<?xml version="1.0" standalone="no"?>
<!DOCTYPE svg PUBLIC "-//W3C//DTD SVG 1.1//EN" "http://www.w3.org/Graphics/SVG/1.1/DTD/svg11.dtd" >
<svg xmlns="http://www.w3.org/2000/svg" xmlns:xlink="http://www.w3.org/1999/xlink" version="1.1">
<metadata></metadata>
<defs>
<font id="wesregular" horiz-adv-x="514" >
<font-face units-per-em="1000" ascent="800" descent="-200" />
<missing-glyph horiz-adv-x="183" />
<glyph horiz-adv-x="0" />
<glyph horiz-adv-x="0" />
<glyph horiz-adv-x="333" />
<glyph unicode="&#xd;" horiz-adv-x="0" />
<glyph unicode=" "  horiz-adv-x="183" />
<glyph unicode="&#x09;" horiz-adv-x="183" />
<glyph unicode="&#xa0;" horiz-adv-x="183" />
<glyph unicode="!" horiz-adv-x="227" d="M91 408q-9 188 -9 241q0 21 1 33.5t4.5 21t9 11.5t15.5 3q12 0 18.5 -9.5t6.5 -17.5q-6 -116 -6 -296q0 -157 1 -233q0 -21 -21 -21q-10 1 -13 35t-4 111.5t-3 120.5zM114 70q14 0 23 -10t9 -25q0 -13 -10 -24t-25 -11q-13 0 -20.5 10.5t-7.5 27.5q0 32 31 32z" />
<glyph unicode="&#x22;" horiz-adv-x="257" d="M59 705q6 9 20 9q10 0 16.5 -5t8.5 -15t2.5 -15.5t0.5 -17.5q0 -20 -4.5 -40.5t-9.5 -34t-5 -14.5q-4 -15 -10 -15q-9 0 -18 44.5t-9 72.5q0 18 8 31zM175 713q31 0 31 -37q0 -22 -4.5 -45.5t-9.5 -39.5t-5 -19q-5 -15 -11 -15q-5 0 -11.5 21t-10.5 47.5t-4 42.5 q0 45 25 45z" />
<glyph unicode="#" horiz-adv-x="533" d="M447 226q11 -2 11 -11q0 -8 -9.5 -12.5t-26.5 -5.5t-32 -1.5t-35 0.5t-26 1q-11 -2 -26 -51.5t-30.5 -98t-28.5 -48.5q-16 0 -16 12q0 4 5 15q7 20 25 79t31 92h-20q-13 0 -39 -0.5t-37 -0.5q-20 0 -28 1q-4 -1 -15.5 -30t-29.5 -85.5t-21 -64.5q-11 -17 -25 -17 q-11 0 -11 12q0 6 3 14q13 43 63 171h-12q-9 0 -28.5 -0.5t-29.5 -0.5h-4q-45 0 -45 11q0 5 2.5 8.5t9 6t13 3.5t19 1.5t23.5 0.5h29.5h33.5q5 19 24 70.5t26 76.5h-23.5h-24.5h-22t-21.5 1t-16 2.5t-11.5 4.5t-4 7q0 15 36 15h19h31h49q9 22 27 72t30 72t26 22q9 0 12 -9 q-42 -114 -56 -157h126q2 6 7 21.5t9 29t10 31t12 31.5t12.5 26t13 19t13.5 7q12 0 13 -18q-13 -37 -30 -82t-24 -65h91q29 0 29 -11q0 -4 -2 -7t-5 -5.5t-6.5 -4.5t-6.5 -2q-15 0 -31.5 0.5t-23.5 0.5q-6 0 -14.5 0.5t-12.5 0.5t-9.5 -0.5t-8 -1t-6 -1.5t-4.5 -2.5t-3 -4 t-3 -5.5t-2 -7q-5 -15 -46 -128h62h46zM356 374q-24 4 -54 4q-28 0 -72 -4q-5 0 -26.5 -62t-27.5 -85h123q5 14 18.5 43t23.5 54.5t15 49.5z" />
<glyph unicode="$" horiz-adv-x="467" d="M416 171q0 -18 -6.5 -41t-22 -48.5t-37 -46.5t-55.5 -35.5t-75 -15.5q0 -56 -2 -59q-2 -1 -11 -1h-3.5t-3.5 0.5t-3 1.5t-1.5 3.5t-0.5 6.5v48q-52 2 -83 18.5t-61 53.5q-20 25 -20 51q0 12 9 22t19 10q9 0 18 -6.5t11 -16.5q9 -38 37 -69.5t70 -35.5v361 q-32 24 -51 41.5t-41 44.5t-32.5 60t-10.5 73q0 49 35 87.5t100 44.5v23q0 6 0.5 9.5t3.5 6.5t9 3q3 0 5 -1t3.5 -2t2.5 -3.5t1.5 -4.5t0.5 -6v-7t-0.5 -8t-0.5 -9q51 0 78 -19t40 -75q1 -3 1 -11q0 -22 -18 -27q-13 0 -19.5 11t-10 27t-8.5 32.5t-20.5 29t-42.5 14.5v-271 q9 -5 33.5 -18t35 -19.5t31.5 -20.5t31.5 -25.5t25 -31t21.5 -40t12.5 -48.5t5.5 -61zM115 597q0 -54 20 -86.5t60 -58.5v251q-39 -6 -59.5 -35t-20.5 -71zM220 11q31 4 54.5 24.5t36 48t18.5 49t8 37.5q0 32 -8.5 58.5t-27 49t-35.5 38.5t-46 38v-343z" />
<glyph unicode="%" horiz-adv-x="697" d="M314 516q0 -195 -126 -195q-26 0 -47 9.5t-34 23t-22.5 34t-13.5 37.5t-6.5 38.5t-3 31t-0.5 21.5q0 13 0.5 23.5t3 32.5t7 38.5t14 36.5t22.5 33.5t33.5 22.5t46.5 9q126 0 126 -196zM188 341q11 0 20.5 4.5t16 14.5t11.5 20t8 26t4.5 27.5t2.5 29.5t1 27.5v25.5 q0 19 -0.5 31.5t-2 36.5t-5.5 40t-11 33t-18.5 26t-26.5 9q-63 0 -63 -175.5t63 -175.5zM510 390q126 0 126 -196q0 -195 -126 -195q-30 0 -52.5 11t-35.5 31.5t-21.5 40t-11.5 45.5t-3.5 38.5t-0.5 28.5v22.5t2.5 31.5t7 38.5t13.5 37t22 34t33.5 23t46.5 9.5zM510 18 q14 0 24.5 7.5t17.5 18t12 28t7 31t3.5 34t1.5 30.5v27v35.5t-2 37.5t-6 39.5t-11 31.5t-19 24t-28 8q-64 0 -64 -176q0 -17 0.5 -31t3.5 -43t9.5 -49t19.5 -36.5t31 -16.5zM490 714q6 0 9.5 -4.5t3.5 -9.5q0 -1 -0.5 -2.5l-0.5 -1.5q-37 -92 -141.5 -355t-118.5 -302l-3 -9 t-3 -8t-3.5 -6.5t-4.5 -6t-6 -3.5t-9 -3t-12 -1q-6 0 -6 9q0 12 6 27q167 435 260 643q2 4 4.5 9.5t3.5 8t2.5 6t3 4.5t4 2.5t5 2t6.5 0.5z" />
<glyph unicode="&#x26;" horiz-adv-x="488" d="M345 532q0 10 -1 20.5t-3.5 31t-9 37.5t-16 34t-26.5 27t-38 10q-22 0 -39 -15.5t-25.5 -38.5t-13 -46t-4.5 -44q0 -11 2.5 -24.5t10.5 -33t22 -34.5t40 -26t61 -11q-28 -21 -51 -21q-28 0 -49 -10t-33.5 -28.5t-21 -39t-12.5 -48.5t-5 -49.5t-1 -49.5q0 -58 29 -104.5 t69 -46.5q43 0 74 45.5t36 137.5q-2 6 -2 10q0 12 14 12q6 0 11 -2t8 -5.5t5 -8.5t3 -10t1 -10.5v-9.5t-0.5 -7.5t-0.5 -4.5q0 -19 -3 -39t-13 -44.5t-25.5 -42.5t-44 -30.5t-65.5 -12.5q-38 0 -68.5 13.5t-48.5 33.5t-29.5 45.5t-16 47t-4.5 40.5q0 33 3 59.5t9.5 48t13 36 t18.5 30t20.5 24l23.5 23.5q-2 3 -11.5 16.5t-16.5 26t-13.5 40t-6.5 62.5q0 61 42.5 113.5t105.5 52.5q32 0 58.5 -12.5t41.5 -31t23 -38t8 -36.5q0 -21 -8 -42q-1 -3 -5 -6t-11.5 -7t-10.5 -7zM209 212q3 13 7 25t11.5 25.5t18.5 24.5t25.5 19.5t35 13.5t44.5 5 q21 0 85.5 -18.5t91.5 -18.5q9 0 18 1.5t14.5 3.5t15.5 5.5t15 4.5q-22 -54 -84 -54q-24 0 -86.5 17t-82.5 17q-23 0 -48 -12t-39 -23.5t-42 -35.5z" />
<glyph unicode="'" horiz-adv-x="159" d="M59 705q6 9 20 9q10 0 16.5 -5t8.5 -15t2.5 -15.5t0.5 -17.5q0 -20 -4.5 -40.5t-9.5 -34t-5 -14.5q-4 -15 -10 -15q-9 0 -18 44.5t-9 72.5q0 18 8 31z" />
<glyph unicode="(" horiz-adv-x="288" d="M225 -121q-29 0 -57.5 57t-47 156t-18.5 211q0 103 18 201.5t47 159t58 60.5q2 0 2 -2t-6 -17.5t-15.5 -46.5t-18.5 -75t-15.5 -118t-6.5 -162q0 -95 6.5 -172t15.5 -121t18 -73t15 -42.5t6 -14.5t-1 -1z" />
<glyph unicode=")" horiz-adv-x="288" d="M63 -121q-2 0 -2 1t6.5 14.5t15.5 43t18.5 73.5t15.5 121t6 171q0 88 -6 162t-15.5 118t-18.5 75t-15.5 46.5t-6.5 17.5t2 2q22 0 44.5 -36t40 -94.5t28.5 -136t11 -154.5q0 -84 -11 -163t-28.5 -136t-39.5 -91t-45 -34z" />
<glyph unicode="*" horiz-adv-x="307" d="M235 568q21 -12 21 -26q0 -8 -6.5 -13t-11.5 -5q-7 0 -15 3.5t-14 7.5t-14.5 12t-13 12.5t-13.5 14t-11 11.5q17 -51 18 -69q0 -35 -20 -35q-6 0 -10.5 2.5t-6.5 6.5t-2.5 7.5t-1 7.5l-0.5 4q3 44 12 72q-4 -5 -10.5 -11t-13 -12.5t-8.5 -7.5q-1 -1 -7.5 -6.5t-11 -9 t-12 -7t-14.5 -3.5q-5 0 -11.5 5.5t-6.5 13.5q0 28 96 51q-95 29 -95 56q0 4 2.5 8.5t6.5 7.5t8 3q14 0 36 -18.5t42 -43.5q-10 32 -13 78q0 1 0.5 4.5t1 6.5t2.5 6.5t6.5 6t10.5 2.5q20 0 20 -35q0 -6 -19 -77q8 16 25 32.5t32.5 27t24.5 10.5q6 0 11.5 -5.5t5.5 -12.5 q0 -15 -31 -31.5t-64 -25.5q15 -4 40.5 -12.5t34.5 -13.5z" />
<glyph unicode="+" horiz-adv-x="332" d="M285.5 318q6.5 0 11.5 -3t5 -7q0 -13 -12 -13h-112v-128q-4 -8 -12 -8q-7 0 -9 6v130q-28 -1 -117 -1q-9 0 -9 9q0 5 3 9.5t8 4.5h115q0 20 -0.5 67.5t-0.5 54.5q3 10 10 10q6 0 9 -10t4 -27t1 -32.5t-1 -35.5t-1 -27q19 0 60 0.5t47.5 0.5z" />
<glyph unicode="," horiz-adv-x="181" d="M51 -76q4 4 20 18.5t22 25t6 25.5q-43 8 -43 35q0 12 13 27t29 15q14 0 23.5 -13.5t9.5 -28.5q-4 -37 -23 -66t-57 -38z" />
<glyph unicode="-" horiz-adv-x="332" d="M285.5 318q6.5 0 11.5 -3t5 -7q0 -13 -12 -13h-112h-21q-7 0 -53 -1t-64 0q-9 0 -9 9q0 5 3 9.5t8 4.5h115h21q19 0 60 0.5t47.5 0.5z" />
<glyph unicode="." horiz-adv-x="166" d="M83 66q8 0 15.5 -4.5t12 -13t4.5 -17.5q0 -13 -10.5 -24t-22.5 -11q-31 0 -31 38q0 32 32 32z" />
<glyph unicode="/" horiz-adv-x="377" d="M343 716q4 -1 4 -7q0 -8 -5 -13q-16 -40 -53 -131t-91.5 -227t-94.5 -237t-42 -108q-4 -10 -14 -10q-7 0 -11.5 5t-4.5 13q0 5 3 11q27 68 145.5 354.5t126.5 303.5q1 3 4.5 11t6 13t6 11t7.5 9t9 3l1.5 -0.5t2.5 -0.5z" />
<glyph unicode="0" horiz-adv-x="484" d="M82 364v90t3 76t9 69.5t17 52t28 42.5t42 22.5t58 9.5q115 0 139.5 -68t24.5 -294q0 -63 -1 -95t-5 -83t-14.5 -77.5t-28 -55.5t-46.5 -41t-69 -12q-33 0 -58.5 11t-42 26t-27.5 46.5t-17 55t-9 69.5t-3 73.5v82.5zM344 364q2 22 2 54q0 45 -4 87t-14 91t-33 78.5 t-56 29.5q-100 0 -100 -294v-46q0 -2 -0.5 -17.5t-0.5 -28.5q0 -36 1.5 -69t7.5 -77t16.5 -75.5t30 -54t45.5 -22.5q25 0 44 21t30 58t18 72t9.5 80.5t3 66t0.5 42.5v4z" />
<glyph unicode="1" horiz-adv-x="310" d="M117 17q7 2 21 2t20 2q0 8 1 132.5t1 198.5q0 23 -0.5 59t-0.5 47t0.5 49t0.5 58q0 44 -2 54q-12 -9 -102 -67q-14 -10 -13 -10q-6 0 -14.5 3t-8.5 7q0 8 8 15q30 28 105 87t88 59v-65v-468v-123q0 -7 -1 -15.5t-1 -9.5q0 -7 3.5 -9t16.5 -4h12q8 0 8 -4q0 -6 -8 -9.5 t-23.5 -5t-28 -1.5t-33.5 0.5t-27 0.5h-5h-4.5h-4t-3.5 1.5t-2.5 3t-2 5t-0.5 7.5z" />
<glyph unicode="2" horiz-adv-x="442" d="M116 44q47 0 133.5 1t130.5 1q1 -5 1 -18l-1 -28h-287q-8 -2 -12 -2q-20 0 -20 16q0 11 16 57.5t57 131.5t92 163q31 42 47.5 67t33 66t16.5 76q0 23 -4.5 42.5t-15 38t-32 29.5t-51.5 11q-25 0 -45 -8t-31 -19.5t-16.5 -20.5t-6.5 -15v-37t-1 -40.5t-10 -35t-25 -19.5 q-23 12 -23 41q0 54 31 109q7 14 19 26.5t41.5 25t66.5 12.5q160 -4 160 -157q0 -14 -5 -33t-19 -46.5t-34 -53.5q-61 -83 -112 -178.5t-71.5 -145t-22.5 -57.5z" />
<glyph unicode="3" horiz-adv-x="420" d="M258 401q17 -2 33 -12t32 -30.5t26 -61t10 -95.5q0 -83 -43.5 -142.5t-117.5 -59.5q-28 0 -52 9t-40 23.5t-28.5 31.5t-20 35.5t-11.5 31.5t-5 24h10h21q14 0 20 2q0 -5 1.5 -12t3.5 -18.5t6.5 -23t10 -24t13.5 -23t18 -19t24 -13.5t30 -5q37 0 70.5 52.5t33.5 127.5 q0 31 -4.5 57.5t-12.5 45t-18.5 32.5t-22.5 22t-24 12t-24 4q-7 0 -18.5 -0.5t-16.5 -0.5l-6 4v26q7 1 21.5 3.5t21.5 3.5q31 4 67.5 48t36.5 104q0 37 -11 65t-28 42.5t-34 21.5t-33 7q-32 0 -54.5 -15t-32.5 -37t-13.5 -38t-3.5 -29q0 -14 -6.5 -19t-20.5 -5 q-10 0 -17.5 6.5t-7.5 15.5q0 23 8 46t25 45.5t49.5 36.5t75.5 14q22 0 47.5 -8t51.5 -25t43 -49.5t17 -74.5q0 -30 -7 -54.5t-21.5 -42t-24.5 -27.5t-27.5 -22t-19.5 -13z" />
<glyph unicode="4" horiz-adv-x="465" d="M267 19v25q0 23 1.5 70t1.5 70v23q-14 -2 -74 -2q-27 0 -78 0.5t-67 0.5h-20q7 18 34 71t62.5 119.5t70 131t63.5 118t36 67.5q31 -13 31 -31q0 -414 1 -426q11 0 27 -0.5t23 -0.5q6 0 19.5 0.5t19.5 0.5q22 0 27 -8t10 -42q-10 -1 -31 -1q-10 0 -31.5 0.5t-32.5 0.5 q-4 0 -12.5 -0.5t-10.5 -0.5q-1 0 -3.5 0.5t-3.5 0.5q-4 0 -4 -2q0 -1 1 -7t1 -12q-1 -25 -1 -96q0 -63 2 -70q6 1 19 1q2 0 7 0.5t7 0.5t5.5 -1t5 -2.5t2.5 -4t1 -6.5q0 -2 -6.5 -4t-18.5 -2.5t-25 -1t-28 -0.5h-26h-20.5h-9.5q-2 0 -6.5 4t-4.5 7q0 4 3.5 7t7 3.5t5.5 0.5 t8.5 -1t11.5 -1zM267 615q-1 0 -33 -62.5t-80 -154t-75 -142.5q79 -2 112 -2q1 0 14 -0.5t21 0t19 1t17 2.5t6 5q0 9 -0.5 27.5t-0.5 27.5q0 32 0.5 96.5t0.5 96.5q0 15 -0.5 44.5t-0.5 43.5q0 2 0.5 6t0.5 5t-0.5 3t-0.5 3z" />
<glyph unicode="5" horiz-adv-x="424" d="M158 659h-9h-10q-8 0 -9.5 -2t-4.5 -11q-5 -28 -16.5 -111t-14.5 -95l7.5 6t14.5 10t19 9.5t27.5 8.5t34.5 3q40 0 79 -15q85 -35 85 -232q0 -21 -3.5 -46.5t-15 -58.5t-29 -60t-49 -45.5t-70.5 -18.5q-56 0 -92 31.5t-36 69.5q0 20 10 20q5 0 8.5 -10.5l8.5 -25.5 t14.5 -30t31.5 -25.5t54 -10.5q30 0 52.5 21.5t33 54t15 60t4.5 49.5q-1 28 -2 44.5t-3 43t-5.5 42.5t-8.5 36.5t-13 33t-19 24t-25.5 17t-32.5 5.5q-61 0 -124 -94q-4 15 -4 19q15 92 34 244q3 13 4 35.5t3.5 38t7.5 20.5h251v-12q0 -8 0.5 -23t0.5 -23v-4q0 -6 -0.5 -9 t-4 -6t-10.5 -3q-8 0 -8 25h-49h-132z" />
<glyph unicode="6" horiz-adv-x="462" d="M401 593q0 -13 -15 -13q-9 0 -16 4.5t-7 11.5q-1 28 -10 48t-25.5 31t-37.5 16t-48 5q-21 0 -38 -10t-27.5 -23.5t-18 -37.5t-11 -42.5t-5.5 -47.5t-2 -44v-41q11 26 39.5 50t62.5 24q25 0 45.5 -5.5t36 -14t27.5 -23.5t20 -29.5t13 -37.5t8 -40.5t4.5 -46t2 -47.5 t0.5 -50q0 -38 -2 -64.5t-7 -54.5t-16 -46.5t-28 -34t-43 -23t-61 -7.5q-39 0 -67.5 14t-45.5 45t-27.5 59.5t-14.5 78t-4.5 78t-0.5 81.5v90t3 76t9 69t17.5 51.5t28.5 42.5t42.5 22.5t59.5 9.5q48 0 80.5 -8.5t49 -26t23 -38.5t6.5 -51zM140 252v-5q0 -15 1.5 -36.5 t7.5 -57t16 -63.5t30 -49.5t47 -21.5q21 0 37.5 8.5t27 20.5t17.5 34t11 39.5t5.5 47.5t2 47t0.5 48v12q0 229 -101 229q-17 0 -33.5 -9.5t-33 -31.5t-26.5 -67t-10 -108q0 -25 1 -37z" />
<glyph unicode="7" horiz-adv-x="362" d="M342 714q0 -9 -118.5 -349t-119.5 -345q-5 -20 -24 -20q-24 0 -24 15q0 6 3 14q6 15 116.5 320t112.5 310h-246q-11 5 -11 26q0 24 11 29q8 -1 82 -1h87.5t88 0.5t42.5 0.5z" />
<glyph unicode="8" horiz-adv-x="460" d="M280 387q3 -2 7 -6q25 -19 37 -29.5t29.5 -30.5t25 -40t14 -51t6.5 -70q0 -68 -44.5 -118.5t-127.5 -50.5q-42 0 -73.5 11.5t-49 29t-27.5 43.5t-13 49t-3 52q0 111 112 186q-2 1 -10.5 8.5t-21.5 24.5t-24.5 39t-20 56.5t-8.5 73.5q0 35 13 70.5t45.5 63t76.5 27.5 q40 0 69 -13t43.5 -30t23 -39.5t10 -35.5t1.5 -24q0 -1 0.5 -5t0.5 -14q0 -23 -4.5 -47.5t-26.5 -63t-60 -66.5zM139 572q1 -30 9.5 -54.5t26.5 -44.5t33.5 -33t42.5 -32q26 23 43 63.5t17 87.5q0 17 -1 26h1q-12 110 -84 110q-46 0 -67 -34t-21 -82v-7zM227 18h8 q31 0 53.5 10t34.5 24t19 35t9 38.5t2 39.5q0 18 -4.5 34.5t-15 31.5t-19 25.5t-26 24.5t-26.5 20.5t-30.5 20.5t-27.5 18q-32 -29 -51.5 -67.5t-23.5 -60t-4 -38.5q0 -26 4.5 -50.5t15 -49t32 -40t50.5 -16.5z" />
<glyph unicode="9" horiz-adv-x="461" d="M61 121q0 13 15 13q8 0 14.5 -4.5t7.5 -11.5q1 -54 32.5 -76.5t88.5 -22.5q22 0 39 10t27.5 23.5t18.5 37.5t11.5 42.5t5.5 47.5t2 44v41q-12 -26 -41.5 -50.5t-62.5 -24.5q-25 0 -46 5.5t-36 14t-27 24t-20 29.5t-13.5 37.5t-8 40.5t-4 46t-2 47.5t-0.5 49.5q0 46 3 77 t12 63t25.5 50.5t46 30.5t70.5 12q39 0 67.5 -14.5t45.5 -45.5t27.5 -59.5t14.5 -78.5t4.5 -79t0.5 -82v-89.5t-3 -75.5t-9 -69t-17.5 -51t-28.5 -42t-42.5 -22.5t-59.5 -9.5q-49 0 -81.5 8t-48.5 25.5t-22 38t-6 50.5zM323 464v13.5t-2 32.5t-5.5 45.5t-11.5 48.5t-18.5 46 t-27.5 32.5t-38.5 13.5t-38 -8.5t-27 -20.5t-17.5 -34t-11 -39t-5.5 -46.5t-2 -46.5t-0.5 -49v-14q0 -230 101 -230q18 0 34.5 9.5t33.5 32t27 69t10 111.5q0 6 -0.5 17t-0.5 17z" />
<glyph unicode=":" horiz-adv-x="178" d="M93 509q16 0 25.5 -8t9.5 -21q0 -15 -15 -31.5t-32 -16.5q-13 0 -21.5 10t-8.5 24q0 17 12 30t30 13zM92 66q13 -1 22.5 -11t9.5 -24q0 -13 -10.5 -24t-22.5 -11q-31 0 -31 38q0 32 32 32z" />
<glyph unicode=";" horiz-adv-x="182" d="M51 -76q5 5 16 15t16.5 15.5t10 16t4.5 22.5q-42 9 -42 35q0 13 13 27.5t29 14.5q13 0 23.5 -12.5t10.5 -25.5q0 -36 -20.5 -67.5t-60.5 -40.5zM94 509q16 0 25.5 -8t9.5 -21q0 -15 -15 -31.5t-32 -16.5q-8 0 -15 5t-11 12.5t-4 16.5q0 17 12.5 30t29.5 13z" />
<glyph unicode="&#x3c;" horiz-adv-x="380" d="M339 114q-178 86 -308 163q14 7 121 44.5t164 55.5q17 4 19 4q7 0 10 -5.5t5 -20.5q-31 -10 -116.5 -40.5t-137.5 -47.5q11 -5 60.5 -31t94.5 -49.5t64 -32.5q8 -4 12 -6.5t8 -9.5t4 -17v-7z" />
<glyph unicode="=" horiz-adv-x="342" d="M283 255q9 -5 9 -10t-4 -8.5t-9 -3.5q-61 -1 -219 -1q-9 4 -9 12q0 6 7 10q190 0 225 1zM60 347q-9 0 -9 10q0 16 11 16h213q17 0 17 -12q0 -14 -13 -14h-219z" />
<glyph unicode="&#x3e;" horiz-adv-x="381" d="M43 396q63 -24 108.5 -42t99.5 -40t100 -41q-1 0 -25.5 -13.5t-51.5 -28t-64 -33.5t-67.5 -33t-57.5 -24t-39 -10q-7 0 -10 5t-5 21q132 59 249 117q-16 8 -103 40.5t-110 43.5q-8 4 -12 6.5t-8.5 9.5t-4.5 16q0 1 0.5 3t0.5 3z" />
<glyph unicode="?" horiz-adv-x="397" d="M88 521q-7 -13 -22 -13q-16 0 -20.5 9.5t-4.5 28.5q0 28 7.5 55.5t24 55t48.5 44t76 16.5q79 -2 119.5 -42t40.5 -110q0 -20 -5.5 -39t-18 -40t-22 -34t-30 -39t-29.5 -38q-59 -77 -59 -167q0 -8 0.5 -17t1.5 -16.5t2 -13t1.5 -9.5l0.5 -4q0 -13 -13 -13q-18 0 -18 68 q0 16 2 31.5t7 32.5t8 29t13 31t13.5 27.5t16.5 29t16.5 26t18.5 29t17 26.5q24 37 24 78q0 18 -4 37t-14 38.5t-24.5 35t-37 25t-50.5 9.5q-42 0 -65.5 -25.5t-23.5 -67.5q0 -12 1.5 -35t1.5 -39zM160 27q0 15 9.5 25.5t23.5 10.5q8 0 16 -4t12.5 -12t4.5 -17 q0 -13 -11 -23t-24 -10t-22 8.5t-9 21.5z" />
<glyph unicode="@" horiz-adv-x="601" d="M569 92q-12 -14 -25 -25q-13 -10 -40 -25t-80 -32.5t-101 -17.5q-30 0 -65 7.5t-74 27t-70.5 49t-52 77.5t-20.5 107q0 25 5.5 53t24.5 66.5t49.5 68t87.5 50t132 20.5q15 0 38 -5t55.5 -20t59 -38t45.5 -64.5t19 -93.5q0 -43 -18 -82.5t-43.5 -64.5t-52.5 -39.5 t-47 -14.5q-19 0 -36 9t-24 17.5t-8 12.5q-14 -13 -23.5 -20.5t-23 -12.5t-29.5 -5q-25 0 -41.5 15.5t-21 32t-4.5 31.5q0 18 4.5 39t15 43.5t24.5 41t35 30.5t44 12q30 0 53 -25q4 0 14 4t16 4q7 0 13 -5q-39 -145 -39 -169q0 -13 9.5 -24t30.5 -11q29 0 50.5 19.5t32 49.5 t15 57.5t4.5 52.5q0 14 -2.5 31t-8 41.5t-18 46.5t-30 41.5t-45.5 31.5t-63 12q-54 0 -98.5 -17t-72 -43t-47 -59t-27 -63t-7.5 -57q0 -99 69 -174.5t166 -75.5q72 2 133 25t102 58q5 5 10 5q3 0 3 -2t-2 -4zM354 289q0 14 -9 22t-21 8q-37 0 -67.5 -46.5t-30.5 -90.5 q0 -59 40 -59q24 0 43 24t27.5 56t13 55t4.5 31z" />
<glyph unicode="A" d="M514 16q0 -2 -1 -5t-3 -4.5t-4.5 -3t-4.5 -1.5h1h-3h-29h-82h-16q-6 0 -11 4.5t-5 9.5q0 4 2.5 7t6 5t6.5 2h34q-42 135 -61 215q-1 1 -1 2h-190q-4 -2 -31.5 -97.5t-31.5 -119.5q10 -2 19 -0.5t15 -1.5t6 -12q0 -5 -3.5 -9.5t-7.5 -4.5h-3h-23h-67h-15q-11 0 -11 14 t11 14h17q31 0 32 2q2 1 22 69t47.5 166.5t55 196t48 171.5t21.5 79q1 4 5.5 7t6.5 3q4 0 8.5 -4.5t4.5 -9.5q2 -7 90.5 -334t92.5 -346h3h37q5 0 8.5 -4t3.5 -10zM246 607q-62 -223 -89 -331q29 0 89.5 0.5t92.5 0.5q-88 322 -90 330h-3z" />
<glyph unicode="B" horiz-adv-x="506" d="M445 337q11 -38 11 -91q0 -44 -2.5 -78t-9 -59.5t-14 -43.5t-22.5 -30t-28.5 -19t-37.5 -10.5t-44.5 -4.5t-53.5 -1q-20 0 -44.5 -0.5t-41 -0.5t-35 -0.5t-30.5 0.5t-22 2.5t-15 5t-5 7.5q0 6 4.5 10t9.5 4h30l2 -0.5t3 -0.5q2 0 2 61v130v38v103v89v104v42q0 2 0.5 15 t0.5 24t-0.5 23.5t-2.5 19.5t-5 7h-7q-2 0 -4.5 -0.5t-3.5 -0.5t-2 0.5t-3 0.5h-10q-5 0 -9.5 4.5t-4.5 10.5t4.5 10t9.5 4h30q5 0 28.5 1t36.5 1q9 0 27.5 -1t26.5 -1t25.5 0.5t26.5 0.5q56 0 87 -22q40 -39 40 -134q0 -48 -7.5 -75.5t-29.5 -54.5q71 -27 89 -90zM160 684 v-254q13 1 37 1.5t35.5 1t30 3t27.5 7.5t21 14t17.5 22t9.5 33t4 46q0 67 -30 107q-4 6 -12.5 12t-27.5 13t-42 7q-30 0 -70 -13zM363 74q27 67 27 143q0 197 -140 197q-62 0 -92 -11q1 -28 1 -85q0 -42 -1 -127.5t-1 -129.5q0 -15 2 -20.5t7 -7.5t22 -4q50 -8 64 -8 q36 0 69 12.5t42 40.5z" />
<glyph unicode="C" horiz-adv-x="433" d="M140 600l-9 -314q0 -3 -0.5 -12.5t-0.5 -17.5q0 -36 3 -69.5t12 -75t30.5 -66.5t52.5 -25q34 0 64.5 23.5t32.5 55.5q1 7 1 23.5t0.5 25.5t3 20t7.5 16.5t13 5.5q26 0 26 -41q0 -25 -7 -51t-22 -52t-45.5 -42.5t-70.5 -16.5q-55 0 -86 25t-47 94t-16 196q0 46 1.5 110.5 t4 122.5t5.5 76q5 37 21.5 61.5t48 38.5t79.5 14q137 0 140 -136v-2.5t-1 -5t-3 -6t-6.5 -4.5t-10.5 -2q-8 0 -12.5 7.5t-7 19.5t-4.5 26.5t-8 29t-15.5 26.5t-29 19.5t-45.5 7.5q-90 -3 -99 -105z" />
<glyph unicode="D" d="M453 366q0 -123 -19.5 -202t-53.5 -114t-85 -42q-71 -9 -126 -9h-88h-17q-13 0 -13 14t13 14h28h7q0 10 0.5 33t0.5 36q0 26 -0.5 80.5t-0.5 80.5v41v254v108h1q0 16 -1 22h-7h-28q-13 0 -13 15q0 13 13 13h17h105q76 0 128 -14q14 -4 28 -12.5t30 -24.5t29.5 -41.5 t25.5 -59t18.5 -83.5t7.5 -109zM366 122q30 74 30 211q0 17 -2.5 61t-11 108.5t-20.5 94.5q-19 42 -51 66t-89 24q-9 0 -19 -0.5t-18 -1t-14 -1.5t-10 -1l-3 -1v-94v-31v-338v-170q0 -2 -1.5 -8t-0.5 -8.5t9.5 -5.5t26.5 -3q23 0 45 4t48.5 13t48 30t32.5 51z" />
<glyph unicode="E" horiz-adv-x="454" d="M369 93q2 16 6.5 20.5t19.5 4.5q5 0 9 -19t6.5 -50t3.5 -37q-6 -13 -26 -13q-2 0 -20.5 2t-19.5 2q-76 -4 -165 -4q-119 0 -126 3q-5 2 -5 13q0 4 1.5 6.5t4 4t5.5 2.5t8.5 1h9.5h11h11v655h-15.5h-15t-10.5 1t-8 4.5t-2 9.5t4 10t10 4h2q36 1 123 1l165 -1q12 1 35 1 q18 0 23 -12q0 -4 -3.5 -38.5t-7 -51.5t-9.5 -17q-14 0 -19 4.5t-6 19.5q0 8 -1 22.5t-0.5 18t-2 12t-4 9t-7 4.5t-10.5 3t-17 0t-23 0t-30.5 -1.5t-38.5 -0.5q-42 0 -75 -2v-255h143q0 12 0.5 16.5t4 9.5t11.5 5q9 0 14.5 -3t8 -5t4 -11t1.5 -11v-14q0 -17 -2.5 -25.5 t-6.5 -11t-12 -2.5q-14 0 -17.5 3t-3 13t-2.5 17q-16 1 -52 1h-58h-33q0 -30 -1 -87.5t-1 -99.5q0 -183 3 -196q15 0 59.5 -0.5t67.5 -0.5q76 0 77 3q1 9 1.5 20t1.5 22.5t1 20.5z" />
<glyph unicode="F" horiz-adv-x="421" d="M381 713q24 0 30 -13q-1 -7 -2.5 -23t-3 -28.5t-3.5 -26t-5.5 -21t-6.5 -7.5q-8 0 -14 3.5t-8.5 9.5t-4 15.5t-2 17.5t-1 20.5t-1.5 19.5q-2 6 -80 6q-45 0 -106 -3l-9 -1h-5v-278h142v8.5t0.5 9t2 6t4.5 5.5t8 2q6 0 10.5 -1.5t8 -3t5.5 -5t3 -5.5t1.5 -8t0.5 -8.5v-10 v-9.5q0 -21 -5 -27.5t-17 -6.5q-1 0 -4 -0.5t-4.5 0t-4 1t-3.5 2t-2 4.5t-1 8q0 14 -4 16.5t-18 2.5t-43 -1t-43 -1q-26 0 -37 2q0 -17 -0.5 -186.5t-0.5 -170.5h6h1h28q5 0 10 -4.5t5 -9.5t-5 -9t-10 -4h1h-2h-27h-83h-18q-5 0 -9 4t-4 9q0 4 2 7t5 5t6 2h30h6v206v449h-6 h-30q-5 0 -9 5t-4 11t4.5 10.5t9.5 4.5h1q36 1 128 1h53.5t51 -0.5t41 -0.5h30h11.5z" />
<glyph unicode="G" horiz-adv-x="461" d="M418 333q12 -2 12 -14q0 -5 -3.5 -9t-8.5 -4h-28h-1h-7v-97v-87q0 -8 -0.5 -17t-8.5 -32t-22.5 -39.5t-45.5 -30t-73 -13.5q-27 0 -46 2.5t-35 11t-27 19t-19 31t-12 42.5t-7 58.5t-3.5 73.5t-0.5 92q0 79 3.5 171t9.5 118q13 109 136 114q79 0 114 -34t39 -103 q0 -12 -11 -18q-3 -2 -8 -2q-12 0 -17.5 14t-8.5 34t-10 40t-29 34t-59 14q-47 0 -69 -26.5t-27 -77.5l-10 -314q0 -5 -0.5 -16t-0.5 -17q0 -42 3.5 -79.5t13 -76.5t30 -62t49.5 -23q46 0 72 35.5t21 76.5v52v132h-8h-1h-26q-6 0 -10.5 4t-4.5 9.5t4.5 9.5t10.5 4h15 q62 0 86 -1q0 1 1 1h25h2h1z" />
<glyph unicode="H" horiz-adv-x="624" d="M561 27q5 0 8.5 -4t3.5 -10q0 -13 -14 -13h-28h-84h-18q-4 0 -8 3.5t-4 9.5t4 10t8 4l38 1v321h-23q-58 0 -168.5 -2t-114.5 -3v-317h5h1h28q13 0 13 -14q0 -3 -1.5 -6t-4.5 -5t-7 -2h1h-3h-26h-86h-16q-14 0 -14 13q0 6 4 10t10 4h28h8q1 28 1 207v119.5t-0.5 121 t-0.5 103v76v28.5h-8h-28q-6 0 -10 4.5t-4 10.5t4 10t10 4h16h86h26h1h2h-1q13 0 13 -14.5t-13 -14.5h-28h-1h-5l0.5 -59t0.5 -135.5v-118.5q2 0 148.5 2t154.5 2q1 303 1 309h-6h-1h-30q-4 0 -8 4.5t-4 10.5t4 10t8 4h18h84h28q14 0 14 -14.5t-12 -14.5h-30h-7v-655h7h30z " />
<glyph unicode="I" horiz-adv-x="259" d="M195 28q5 0 9 -4t4 -9.5t-4 -10t-9 -4.5v0h-3h-28h-84h-17q-5 0 -8.5 4t-3.5 9q0 15 12 15h29h1h6q1 28 1 206v119.5t-0.5 121t-0.5 103v76v28.5h-6h-1h-29q-12 0 -12 15t12 15h17q14 0 44 -0.5t40 -0.5v1h28h3v-1q13 0 13 -14q0 -6 -4 -10.5t-9 -4.5h-31h-6v-654h6h31z " />
<glyph unicode="J" horiz-adv-x="292" d="M228 714q4 0 7 -2t5 -5.5t2 -7.5q0 -6 -4 -10.5t-10 -4.5h-28h-1h-6v-635q0 -42 -7 -72t-13.5 -40.5t-16.5 -23.5q-54 -65 -123 -65q-32 0 -63 15t-31 42q0 8 8 17.5t17 9.5q11 0 22 -18q20 -34 61 -34q40 0 63.5 33.5t23.5 76.5q0 12 -0.5 352.5t-0.5 341.5h-7h-28 q-13 0 -13 15t13 15h17h85h26h4h-2z" />
<glyph unicode="K" horiz-adv-x="525" d="M512 27q5 0 9 -4t4 -10q0 -5 -4 -9t-9 -4h-2h-28h-85h-16q-3 0 -6 2t-5 5t-2 6q0 6 4 10t9 4h28h1h6q-34 84 -190 418q-13 -13 -34.5 -36t-33.5 -34q1 -123 1 -347h5h1h31q4 0 7.5 -4t3.5 -10q0 -14 -11 -14h1h-2h-30h-84h-17q-5 0 -9 4t-4 9q0 6 4 10.5t9 4.5h29h7 q1 28 1 88q0 31 -0.5 92.5t-0.5 90.5v281v102h-7h-29q-5 0 -9 4.5t-4 10.5q0 4 2 7.5t5 5.5t6 2h17q15 0 44 -0.5t39 -0.5l1 1h30h2q0 -1 -1 -1q11 0 11 -14q0 -3 -0.5 -5t-1.5 -4t-2.5 -3l-3 -2t-3.5 -1h-31h-1h-5v-50t-0.5 -112.5t-0.5 -93.5q23 23 49.5 49t50 50l47 48 t42 43t33 34.5t22.5 23.5l8 8h-1h-28q-5 0 -9 4.5t-4 10.5t4 10t9 4h16h85h28h2q5 0 9 -4t4 -10t-4 -10.5t-9 -4.5h-62q-6 -12 -192 -204q14 -32 35.5 -80t44 -96t45.5 -97.5t41.5 -88t31 -63t13.5 -26.5h43z" />
<glyph unicode="L" horiz-adv-x="426" d="M394 118q8 -67 12 -106q-7 -13 -28 -13q-9 1 -285 1h-31q-4 0 -7.5 4.5t-3.5 9.5q0 14 11 14h31q2 0 3 1.5t1.5 6t1 10t1 14.5t0.5 18.5t-0.5 23.5t-0.5 27.5v32.5v37v485h-6h-31q-3 0 -5.5 2.5t-4 5.5t-1.5 7q0 6 3.5 10.5t7.5 4.5h124q5 0 8.5 -4.5t3.5 -10.5 t-3.5 -10.5t-8.5 -4.5h-29q-1 -4 -1 -237v-85t0.5 -68.5t0.5 -52.5t0.5 -40t0.5 -27.5v-17.5v-8q0 -13 -0.5 -40t-0.5 -41v-20.5t2.5 -14t6 -10t13 -4t20 -3t31.5 -0.5q70 0 120 7l5 2q1 0 2 5t1.5 13.5l1 17t1.5 18.5t1 15q2 17 7 21t25 4z" />
<glyph unicode="M" horiz-adv-x="722" d="M671 14q0 -6 -4 -10t-9 -4h1h-3h-27h-84h-16q-6 0 -10 4t-4 10t4 10t10 4h28h6q0 11 0.5 33.5t0.5 35.5q0 26 -0.5 80.5t-0.5 80.5v41v254v48q-12 -14 -22 -31t-20.5 -36t-18.5 -31q-28 -41 -73 -120.5t-63 -109.5q-33 46 -71.5 106t-78.5 123t-73 110q-1 -6 -1 -130 q0 -271 3 -445q0 -1 -0.5 -4t-0.5 -5h52q5 0 9 -4t4 -10t-4 -10t-9 -4h1h-3h-27h-85h-17q-6 0 -10 4t-4 10t4 10t10 4h51q0 6 -3 166t-3 380v27v49.5t1.5 34.5t4 26t7.5 7q42 -59 68 -97q148 -226 167 -259q9 -16 16 -16q6 0 19 15q123 188 187 321q18 36 31 36q8 0 8 -16 q3 -40 3 -674h6h1h29q5 0 9 -4t4 -10z" />
<glyph unicode="N" horiz-adv-x="651" d="M585 718q7 0 11.5 -4.5t4.5 -10.5q0 -5 -4.5 -10t-11.5 -5h-52q0 -9 3 -159.5t3 -366.5v-27.5v-27v-24.5t-0.5 -23.5t-1 -19.5t-1.5 -16.5t-2 -12.5t-3 -8.5t-5 -2.5q-3 4 -89.5 142.5t-177.5 280.5t-121 183q0 -30 6 -568q0 -1 -0.5 -4.5t-0.5 -5.5h54q5 0 9 -4t4 -10 q0 -3 -1.5 -6.5t-5 -5.5t-6.5 -2h1h-3h-29h-83h-17q-6 0 -10.5 4.5t-4.5 10t4.5 9.5t10.5 4h51v270q0 5 -3 119t-3 181q0 106 9 117q2 3 4 3q1 0 89 -140.5t176.5 -279t119.5 -180.5q1 4 1 84v76.5t-0.5 89t-1 91.5t-0.5 87.5t-0.5 72t-0.5 50.5v19h-50q-6 0 -10.5 5 t-4.5 10q0 4 2 7.5t5 5.5t7 2h-1h3h28h83h16z" />
<glyph unicode="O" horiz-adv-x="517" d="M83 300q2 25 2.5 54t0.5 67t1 54q0 57 14 102t34 72.5t46 45.5t49 25t43 7q45 0 84.5 -26.5t51.5 -67.5q27 -89 27 -267q0 -78 -15 -164q-6 -37 -13 -64t-21.5 -57.5t-34 -49t-51 -31t-71.5 -12.5q-32 0 -56 9t-39 25.5t-26 38.5t-16 47.5t-8 53.5t-2.5 55.5t-0.5 54.5 q1 6 1 9.5v9v9.5zM370 432v4q0 41 -12 164q-3 35 -29.5 64t-63.5 29q-21 0 -38 -7.5t-29 -21t-20.5 -30.5t-14 -39.5t-8.5 -43.5t-4.5 -47.5t-2 -47t-1 -45.5t-1.5 -41q-3 -44 -3 -154q0 -67 7 -135q5 -29 35 -46.5t59 -17.5q40 0 70.5 20t40.5 61q17 71 17 241q0 67 -2 93z " />
<glyph unicode="P" horiz-adv-x="518" d="M488 519q-1 -38 -14 -69.5t-32 -52t-46.5 -36t-53 -24t-56 -13.5t-52 -6.5t-43.5 -1.5q-10 0 -21 0.5t-13 0.5v-121v-168h6h1h30q12 0 12 -14q0 -5 -3.5 -9.5t-8.5 -4.5h1h-3h-28h-84h-16q-4 0 -7 2t-4.5 5.5t-1.5 6.5q0 14 13 14h28h7q1 24 1 75q0 27 -0.5 82.5 t-0.5 82.5v31v255v109h1q0 13 -1 20h-7h-28q-13 0 -13 15t13 15h16q5 0 54 0.5t78 0.5q48 0 60 -1t24.5 -2t35 -6.5t41.5 -13t41 -22.5t37.5 -34.5t26 -49.5t10.5 -66zM157 340h27t40.5 4t51.5 11.5t50 23t46.5 37t31.5 56t13 78.5q0 71 -51 106.5t-142 35.5q-35 0 -65 -8 q0 -1 -2 -1v-94v-249z" />
<glyph unicode="Q" horiz-adv-x="505" d="M455 -52q-2 -3 -10 -16.5t-13 -21.5q-17 1 -28.5 2t-22 4.5t-16.5 4.5t-13.5 9.5t-10 11.5t-9 17t-9 21t-10.5 28q-38 -17 -72 -17q-32 0 -65.5 11.5t-57.5 32.5q-11 9 -17 27t-7.5 33t-2.5 38.5t-2 31.5q-1 24 -4 136.5t-3 172.5q0 104 35 167q15 27 39.5 46.5t54 29.5 t59.5 10q61 0 103 -48.5t43 -112.5q0 -6 0.5 -17.5t0.5 -18.5q0 -18 -1 -53.5t-1 -53.5v-94v-14q0 -40 -0.5 -62t-3 -59t-8.5 -60.5t-17 -48.5t-28 -40q-10 -12 -10 -28q0 -34 18 -51.5t40 -17.5q32 0 43 4q1 -1 3 -2t3 -2zM340 57q5 9 9 21.5t6 22t3 26t1 24v25.5v22 q-2 73 -2 206t-1 181q-3 61 -23 90.5t-68 29.5q-68 0 -99 -49.5t-31 -151.5q0 -53 7 -155t8 -135q1 -22 0.5 -40t0 -41.5t2.5 -42.5q3 -31 32.5 -56.5t64.5 -25.5q18 0 36.5 8.5t18.5 22.5q0 23 -60 37q-4 1 -5 2q28 21 42 21q20 0 58 -42z" />
<glyph unicode="R" horiz-adv-x="504" d="M51 14q0 6 4 10.5t9 4.5h29l1 -1h6q0 3 -0.5 69.5t-0.5 123.5v145.5t0.5 135t0.5 56.5q0 1 -0.5 11.5t-0.5 19.5q0 30 0.5 58.5t0.5 35.5h-6h-1h-29q-5 0 -9 4.5t-4 10.5q0 2 1 5t3 4.5t4.5 3t4.5 1.5h-1h2h28h100h2q25 0 51 -4t58.5 -17.5t57 -35.5t41.5 -61t17 -90 t-6.5 -86t-21.5 -57t-32 -34t-44 -24q27 -23 41 -55.5t16.5 -61t8.5 -65.5t18 -63q8 -17 35 -26t48.5 -15.5t21.5 -16.5v-3q-71 0 -115.5 30t-63.5 102q-3 13 -8.5 35.5t-8.5 33.5t-9 28t-12 25.5t-16.5 19t-23.5 15.5t-32 8.5t-43 3.5h-13q0 -30 -0.5 -91t-0.5 -91 q0 -15 0.5 -44.5t0.5 -43.5h6h29q14 0 14 -14q0 -6 -4 -10t-10 -4h-18h-84h-28h-2h1q-5 0 -9 4t-4 10zM358 502q0 47 -11.5 83t-28.5 56t-40 32.5t-42 16.5t-38 4q-3 0 -9 0.5t-9.5 0.5t-8 -1.5t-6.5 -4.5t-4 -10t-2 -18h1v-107v-229q25 -4 43 -4q28 0 52.5 7.5t49 25.5 t39 56t14.5 92z" />
<glyph unicode="S" horiz-adv-x="436" d="M286 605q-2 5 -3.5 18t-4.5 22t-10 19.5t-22.5 16t-39.5 5.5q-37 0 -70 -38.5t-33 -86.5q0 -27 12 -49.5t27 -35.5t38 -25q79 -39 129 -92q17 -18 27.5 -31.5t23.5 -36.5t19.5 -54t6.5 -70v-21q-1 -14 -5 -31.5t-17 -41t-31.5 -42t-52 -31.5t-75.5 -13q-42 2 -80.5 15.5 t-66 43t-27.5 67.5q0 11 8.5 21t18.5 10q8 0 17.5 -7.5t11.5 -17.5q10 -42 51 -74.5t76 -32.5q46 0 78 38t32 92q0 24 -5 46.5t-16.5 43.5t-23 37t-31.5 36t-33.5 32t-38.5 33.5t-37 32.5q-20 18 -33 33t-26.5 45.5t-13.5 65.5q0 67 44 122.5t112 55.5q39 0 73 -25.5 t34 -76.5q0 -9 -8 -17t-18 -8q-9 0 -17 7z" />
<glyph unicode="T" horiz-adv-x="416" d="M366 713h6q16 0 24 -12q-9 -72 -12 -107q-21 0 -26 4t-7 23q-1 8 -2.5 25t-2 29t-1.5 12h-30h-75q0 -31 -0.5 -96t-0.5 -179v-98.5v-103.5v-89.5t0.5 -67.5l0.5 -26h34q14 0 14 -13.5t-13 -13.5v-1q0 -1 -2 -1l-1 2h-26l-102 -2q-3 0 -5.5 1t-4.5 3.5t-3 5t-1 5.5 q0 6 4 10t10 4h38q1 28 1 175q0 299 -0.5 387t-0.5 97h-110q0 -10 -2 -32l-3 -33q-2 -19 -7.5 -23t-26.5 -4q-6 62 -13 107q7 12 24 12h6q5 -1 159 -1q152 0 157 1z" />
<glyph unicode="U" horiz-adv-x="534" d="M470 714q6 0 9.5 -4.5t3.5 -10.5q0 -15 -13 -15h-29h-1h-23v-37t0.5 -94.5t0.5 -121v-129v-107.5v-71q0 -13 -2.5 -27t-11.5 -34t-23 -35t-41.5 -25.5t-64.5 -10.5q-85 0 -127 40.5t-46 101.5q-3 20 -3.5 35.5t-0.5 28t0.5 50t0.5 77.5v93.5v96.5t0.5 83t0.5 62v24h-7 h-30q-12 0 -12 15q0 4 1.5 7.5t4.5 5.5t6 2h19h84h26h3h-1q12 0 12 -15t-12 -15h-28h-1h-6v-504q0 -138 89 -159q13 -3 28 -3q34 0 65.5 14.5t39.5 40.5q3 12 5 25t3 27t1.5 25t1 26t1.5 23v485h-24h-29q-14 0 -14 15q0 6 4 10.5t10 4.5h17h84h28h2h-1z" />
<glyph unicode="V" horiz-adv-x="525" d="M511 713q6 0 10 -4t4 -10t-4 -10.5t-11 -4.5h-28h-29l-178 -683h-29q-196 678 -196 683h-7h-30q-5 0 -9 4.5t-4 10.5t4 10t9 4h-1h3h28h85h16q6 0 10 -4t4 -10t-4 -10.5t-10 -4.5h-29h-6l159 -597q26 86 64 235.5t63 255.5l25 106h-10h-1h-29q-5 0 -9 4.5t-4 10.5t4 10 t9 4h17h85h27h3h-1z" />
<glyph unicode="W" horiz-adv-x="797" d="M785 713q4 0 7 -2t4.5 -4.5t1.5 -5.5q0 -15 -13 -15h-31h-29l-177 -683h-30q-70 245 -126 442l-115 -442h-30q-196 678 -196 683h-6h-1h-31q-5 0 -9 4.5t-4 10.5q0 4 4 8t9 4h-1h2h30h82h19q6 0 10 -4t4 -8t-2 -7t-5 -5.5t-7 -2.5h-30h-5l161 -599q28 95 105 409 q-11 41 -26.5 92.5t-22 74.5l-6.5 23h-6h-28q-6 0 -10 4.5t-4 10.5q0 4 4 8t10 4h-1h4h25h86h16q5 0 9 -4t4 -8t-1.5 -7t-4.5 -5.5t-7 -2.5h-29h-1h-7l162 -599q25 86 63 236t64 257l26 106h-11h-1h-29q-5 0 -9 4.5t-4 10.5q0 4 4 8t9 4h16h84h28h2h1z" />
<glyph unicode="X" horiz-adv-x="566" d="M504 683h-6q0 -1 -25 -42.5t-73.5 -124t-86.5 -147.5q37 -65 87 -154t77 -137t29 -52l25 1q14 0 14 -14q0 -11 -13 -13h1h-3h-29h-86h-16q-4 0 -7.5 2t-5 5t-1.5 6q0 6 4 10t10 4h28v-1h5q-3 10 -9 23.5t-16 34t-18.5 36.5t-24.5 45.5t-25 45.5t-28.5 52t-27.5 51 q-133 -231 -152 -288h6v1h29q6 0 10 -4t4 -9.5t-4 -9.5t-10 -4h-18h-84h-27h-3h1q-14 2 -14 13q0 14 15 14l61 -1q2 4 25.5 46t68.5 121.5t79 140.5q-41 71 -94 161.5t-81 138.5t-28 49h-6h-26q-4 0 -7.5 2.5t-5.5 5.5t-2 7q0 13 15 13h14q15 0 43 -0.5t40 -0.5l1 1h27h2 q0 -1 -1 -1q13 0 13 -12q0 -6 -4 -10.5t-9 -4.5h-22q0 -5 162 -291q24 42 49 86.5t44.5 79.5t35 64t24 45l8.5 16h-60q-5 0 -9 4.5t-4 10.5q0 12 13 12q-1 0 -1 1h4h24l1 -1q12 0 41.5 0.5t44.5 0.5h16q4 0 7 -1.5t5 -4.5t2 -7q0 -6 -4 -10.5t-10 -4.5h-27h-1z" />
<glyph unicode="Y" horiz-adv-x="523" d="M511 713q5 0 8.5 -3.5t3.5 -8.5q0 -15 -12 -15h-30h-5q0 -2 -30 -70t-78 -168.5t-84 -168.5v-249h6h30q5 0 9 -4t4 -10q0 -12 -15 -12h-28h-85h-16q-4 0 -8 4t-4 8q0 3 1.5 5.5t3 4t3.5 3t4 1.5h29h1h7v64q0 108 -1 161q-20 47 -45 106t-48.5 114.5t-43 103.5t-31.5 77 t-12 30h-6h-1h-25q-5 0 -9 4.5t-4 10.5q0 3 2 5.5t5 4.5t6 2h13h85h28h3h-1q5 0 9 -4t4 -8q0 -6 -4 -10.5t-9 -4.5h-25q0 -1 24 -60.5t61 -149.5t66 -159q34 65 77 156t70.5 151.5t27.5 61.5h-62q-5 0 -9 4.5t-4 10.5q0 4 4 8t9 4h-1h3h27h85h17z" />
<glyph unicode="Z" horiz-adv-x="414" d="M382 82q12 -4 12 -15q0 -19 -10 -42t-17 -23h-245h-86h-5h-3h1l269 683h-239l-10 -45q-6 -10 -14 -10q-6 0 -10.5 4t-4.5 10l0.5 1.5t0.5 2.5l5 17l3 15q5 22 8 26.5t11 4.5h327q0 -5 -26 -72t-65.5 -164.5t-77 -190t-70 -172t-35.5 -85.5h7h1h246l12 45q4 10 13 10h2z " />
<glyph unicode="[" horiz-adv-x="298" d="M233 652h-70v-672h63q1 -1 6.5 -1t10.5 -2t5 -7t-5.5 -7.5t-11.5 -3l-6 -0.5h-122q0 40 -0.5 337.5t-0.5 374.5h116h9h7t5.5 -1t3.5 -2t3 -3t1 -4q0 -9 -14 -9z" />
<glyph unicode="\" horiz-adv-x="377" d="M35 716l1.5 0.5t2.5 0.5q4 0 8 -3t7.5 -9.5t6 -11t6.5 -13t4 -10.5q5 -9 273 -658q3 -6 3 -11q0 -8 -5.5 -13t-12.5 -5q-8 0 -13 10q-6 23 -280 703q-5 3 -5 13q0 6 4 7z" />
<glyph unicode="]" horiz-adv-x="302" d="M137 652h-69q-17 0 -17 9q0 7 7.5 8.5t24.5 1.5h118v-712h-123l-7 0.5t-13.5 3t-6.5 7.5t5.5 7t11.5 2t6 1h63v672z" />
<glyph unicode="^" horiz-adv-x="339" d="M155 695q-16 -25 -31.5 -45.5t-35 -45.5t-27.5 -35q-3 -4 -7 -11.5t-8 -11t-13 -7.5q-2 4 -2 6q100 135 113 154q11 11 23 11q7 0 19 -9.5t29 -28t30 -33.5t31 -36.5t23 -27.5q10 -12 10 -23q0 -10 -15 -10q-9 0 -18 8q-14 17 -121 145z" />
<glyph unicode="_" horiz-adv-x="271" d="M255 -110q4 0 8 -1.5t6 -4t2 -4.5q0 -14 -12 -14h-111h-22q-6 0 -52.5 -0.5t-64.5 -0.5q-9 0 -9 10q0 5 3 9.5t8 4.5h115h22q18 0 59.5 0.5t47.5 0.5z" />
<glyph unicode="`" horiz-adv-x="159" d="M31 696q9 22 30 22q12 0 25.5 -19.5t23.5 -42t18 -46.5q0 -1 0.5 -2.5l0.5 -1.5q0 -3 -1.5 -7t-4 -6.5t-6.5 -2.5q-23 0 -86 106z" />
<glyph unicode="a" horiz-adv-x="434" d="M434 31q0 -2 0.5 -5t0.5 -5q0 -24 -53 -24q-63 0 -94 65q-9 -6 -28.5 -22t-30.5 -23.5t-33.5 -15t-47.5 -7.5q-55 0 -86 30.5t-31 83.5q0 38 22 72t65 79q47 47 177 74q1 11 1 33q0 69 -25 107t-83 38q-24 0 -43.5 -10t-31 -30t-11.5 -46q-3 -20 -8 -28.5t-16 -8.5 q-32 0 -32 17q0 40 27 70t61.5 43t68.5 13q29 0 51 -6.5t37 -17t25.5 -29t16.5 -36.5t9 -46t4 -50t1 -56q0 -27 -3.5 -79.5t-3.5 -78.5q0 -103 73 -103q13 0 21 2zM297 304q-8 2 -23 2q-21 0 -65 -18q-56 -20 -88.5 -64.5t-32.5 -104.5q0 -37 31.5 -64.5t68.5 -27.5 q19 0 44 14.5t42 35t17 34.5q6 133 6 193z" />
<glyph unicode="b" horiz-adv-x="417" d="M71 -2q-1 3 -1 16q0 8 0.5 23.5t0.5 18.5q0 38 -0.5 201t-0.5 305t-1 147q-7 0 -13.5 -0.5t-7.5 -0.5q-7 0 -12 5t-5 9q0 2 3 3.5t10 2.5t13.5 1.5t17.5 0.5h18h18.5h16.5h10q24 0 24 -6t-4 -11t-9 -5q-2 0 -5.5 0.5t-5.5 0.5h-6v-216q4 1 16 7t27 9.5t35 3.5q28 0 50 -7 t37 -21t26 -29.5t17 -39t10 -43t4.5 -47t0.5 -45.5t-0.5 -45.5t-0.5 -39.5q0 -31 -2 -54t-10.5 -51.5t-23.5 -47t-42.5 -31.5t-65.5 -14h-18q-13 0 -41 -1t-43 -1q-14 0 -37 2zM132 56q1 -13 19.5 -26t55.5 -13q27 0 44.5 13.5t25.5 38t11 48t3 53.5v37q1 33 0 67t-2.5 65.5 t-6.5 59.5t-13 49t-22.5 33t-33.5 12q-47 0 -64 -23t-17 -64q0 -27 -0.5 -122t-0.5 -140q0 -76 1 -88z" />
<glyph unicode="c" horiz-adv-x="377" d="M283 152q6 -2 11 -2q3 0 10 1t10 1q5 0 7 -1q0 -16 -1.5 -32.5t-9 -41.5t-19.5 -43.5t-36 -32t-55 -13.5q-26 0 -45.5 6.5t-37.5 26t-30 52t-19 86t-7 127.5q0 24 1 43t4.5 44.5t9.5 44.5t17 39t26.5 33t39 21t52.5 8q33 0 74 -10q5 -4 12 -4q2 0 7 0.5t7 0.5q6 0 10 -2 q5 -84 5 -106q-5 -22 -22 -22q-5 0 -9 2t-6 6t-3.5 8.5t-2 10.5t-0.5 10.5t0.5 11.5t0.5 11q0 3 0.5 10.5t0.5 11.5q0 17 -18.5 31.5t-46.5 14.5q-99 0 -99 -176q0 -20 1.5 -49t1.5 -36q0 -2 -0.5 -14.5t-0.5 -22.5q0 -192 77 -197q30 4 49 26t24 45t7 47t3 25z" />
<glyph unicode="d" horiz-adv-x="436" d="M389 31q7 0 12 -5t5 -12q0 -6 -5.5 -11t-11.5 -5h-39q-1 0 -2.5 0.5l-1.5 0.5q-11 -3 -38 -3q-15 0 -43 1t-41 1h-18q-27 1 -48.5 7.5t-36.5 17t-25.5 26t-16.5 31.5t-10 36.5t-5 37t-1 37.5q0 12 -0.5 35t-1 40t0 41.5t2.5 43.5t6.5 41.5t11.5 38.5t18 32.5t25.5 26.5 t35 16.5t45.5 6.5q16 0 29 -2.5t20.5 -5.5t16.5 -7t15 -5v216h-10q-4 0 -11.5 -0.5t-10.5 -0.5q-13 0 -13 16q0 5 4.5 5.5t22.5 0.5h11q7 0 26.5 0.5t29.5 0.5t23.5 -1t20 -3t6.5 -5q0 -5 -6 -9.5t-13 -4.5l-6 0.5t-12 0.5q-1 -4 -1.5 -94.5t-0.5 -201t-0.5 -218.5 t-0.5 -139q-1 -25 4 -25h39zM287 56v350q0 87 -83 87q-15 0 -27 -7t-20 -19t-14 -28.5t-9.5 -37t-6 -43t-2.5 -47t-0.5 -49.5t-0.5 -49v-36q0 -24 1.5 -44t7 -42.5t14.5 -37.5t25 -25.5t38 -10.5q37 0 56.5 13t20.5 26z" />
<glyph unicode="e" horiz-adv-x="398" d="M123 251q-3 -101 -3 -105q1 -1 0 -7.5t1 -18t3.5 -25t7.5 -27.5t14 -25t21.5 -18.5t30.5 -7.5q18 0 32.5 5.5t23 12.5t15.5 17t10 17.5t6 16t4 9.5q9 25 20 25q12 0 18 -4.5t6 -9.5q0 -2 -7 -24q-14 -43 -48.5 -66t-75.5 -23q-63 0 -106 51q-19 22 -27 61t-8 146 q0 266 147 266q129 0 129 -202v-6q0 -12 -0.5 -17.5t-1.5 -14.5t-4 -13t-8.5 -7.5t-13.5 -3.5h-112q-69 0 -74 -2zM279 272q4 17 4 47t-4.5 59t-13 57t-24.5 45.5t-37 17.5q-71 -5 -74 -110q-1 -11 -2 -25t-1.5 -25t-1.5 -24.5t-1 -24.5q0 -3 0.5 -9.5t0.5 -9.5q52 0 154 2z " />
<glyph unicode="f" horiz-adv-x="267" d="M84 17v476q-5 0 -11.5 -0.5t-10.5 -0.5h-4.5t-7 0.5t-5.5 0.5h-7q-7 0 -7 4t3 16h50v25q0 23 1 41t5 42t12.5 41.5t22 33.5t36 24.5t51.5 8.5q27 0 48.5 -7.5t34 -19.5t20.5 -28t10.5 -31t2.5 -30q0 -48 -21 -48q-5 0 -9.5 6t-4.5 10q0 2 0.5 6.5t0.5 6.5q0 64 -19 89.5 t-64 25.5q-21 0 -35.5 -9t-21 -26t-9 -36t-2.5 -45q0 -18 1 -45.5t1 -33.5h87v-7q0 -15 -20 -15q-5 0 -14.5 1t-13.5 1q-6 0 -17.5 -0.5t-19.5 -0.5q0 -52 -0.5 -160.5t-0.5 -162.5q0 -105 1 -153q10 -2 14 -2q3 0 7.5 0.5t6.5 0.5q19 0 19 -9q0 -4 -5 -9q-3 0 -23.5 -0.5 t-39.5 -0.5t-40 0.5t-34 1.5t-13 3q0 9 3.5 12t11.5 3q3 0 10 -0.5t10 -0.5q7 0 10 1z" />
<glyph unicode="g" horiz-adv-x="375" d="M375 497q-2 -3 -14.5 -14t-19 -17t-15.5 -15t-13.5 -15t-4.5 -10q0 -13 3.5 -40t3.5 -41q0 -21 -7 -53l-3.5 -15.5t-6 -22t-8.5 -22.5t-13.5 -27t-18 -26t-26 -27.5t-33.5 -23.5q-20 -8 -43 -25.5t-23 -36.5q0 -8 15.5 -12t45 -6.5t45.5 -6.5q72 -24 72 -119 q0 -19 -4 -37t-14.5 -37t-33.5 -30.5t-56 -11.5q-52 0 -88 29.5t-36 88.5q3 32 32 32q1 0 4 -0.5t4 -0.5q0 -6 -2 -19.5t-2 -21.5q0 -16 7 -29.5t17.5 -22t24 -14.5t26.5 -8.5t25 -2.5q21 0 38.5 16t17.5 38q0 18 -3 33.5t-8.5 26.5t-12 19.5t-16 14.5t-17 9.5t-17.5 6 t-16 3.5t-14.5 2t-10.5 1t-5 1q-21 4 -31 6.5t-18.5 11t-8.5 22.5q0 34 66 78q-68 19 -93 58.5t-25 123.5q0 88 46 147.5t133 59.5q46 0 70 -31q5 -8 11 -8q12 0 32.5 15t22.5 15q4 0 19 -9zM280 321v6q-9 156 -96 156q-44 0 -71.5 -35.5t-27.5 -103.5q0 -56 16 -106 q16 -26 41 -41.5t54 -15.5q37 0 60.5 39.5t23.5 91.5v9z" />
<glyph unicode="h" horiz-adv-x="444" d="M141 18q39 0 39 -4q0 -15 -4 -15q-5 0 -18 0.5t-20 0.5q-35 0 -96 -2q-1 3 -1 8q0 12 13 12q3 0 9 -0.5t8 -0.5q4 0 7 1q3 55 3 202q0 103 -1.5 284t-1.5 206h-16h-29q-2 2 -2 6q0 16 70 16q5 0 13 0.5t13 0.5h11.5t11 -0.5l9 -1t7.5 -1.5t5.5 -2t3.5 -3t1 -5 q0 -12 -11 -12q-3 0 -10 1t-10 1h-4v-229q3 2 13 11t16 12t24.5 6.5t45.5 3.5q36 0 62.5 -12.5t39.5 -29.5t21 -41t9.5 -40t1.5 -33q0 -25 -0.5 -97t-0.5 -116q0 -83 1 -127q4 -1 11 -1q2 0 7.5 0.5t9.5 0.5h2h5t3.5 -2t1.5 -6q0 -11 -21 -11h-124q-1 2 -1 7q0 11 15 11 q3 0 9.5 -0.5t9.5 -0.5q7 0 9 2q0 8 0.5 81t0.5 121q0 116 -1 139l-0.5 15t-1 19t-2 19t-3.5 21t-5.5 18t-8.5 17.5t-12 12.5t-16.5 10t-20.5 3q-56 0 -78 -23t-22 -67q0 -30 -1 -128.5t-1 -145.5q0 -93 2 -112z" />
<glyph unicode="i" horiz-adv-x="239" d="M150 17h11h21h2q12 1 12 -8q0 -4 -6 -6t-17 -2.5t-20 -1t-22.5 0t-16.5 0.5q-2 0 -12.5 -0.5t-19 -0.5t-18.5 0.5t-15.5 2.5t-5.5 6q0 6 7.5 8t17 1.5t18.5 -0.5v476h-11h-18q-9 0 -12.5 2t-3.5 9q0 9 11 9q2 0 7.5 -0.5t8.5 -0.5q76 2 117 2q14 0 14 -9q0 -7 -8 -12h-41 q-1 -51 -1 -158q0 -55 0.5 -161.5t0.5 -156.5zM112 577q-16 1 -24.5 10.5t-8.5 24.5q0 20 12.5 33t31.5 13q14 0 22 -3t11.5 -10.5t3.5 -21.5q0 -20 -14.5 -33t-33.5 -13z" />
<glyph unicode="j" horiz-adv-x="246" d="M206 499q0 -7 -24 -7q-8 0 -14 0.5t-7 0.5h-8q-5 0 -8 1v-34v-320q0 -51 -0.5 -118.5t-0.5 -75.5q-1 -45 -12 -78.5t-26 -51.5t-35.5 -29t-35.5 -14t-30 -3q-28 0 -56.5 13t-49.5 40t-21 62q0 14 6 24.5t16 11.5q13 0 20 -13t11 -31.5t10 -37.5t21 -32t39 -13 q14 0 25.5 3.5t19.5 11.5t14 16t10 21.5t6.5 23.5t3.5 26.5t1.5 25.5t0.5 26t1 22q1 37 1 156q0 44 -0.5 83.5t-0.5 65.5v45v28.5v9.5q0 19 0.5 59t0.5 53q0 6 -0.5 11t-0.5 8v4q-10 -2 -46 -2q-13 2 -13 11q0 2 2 4.5t5.5 4t8.5 1.5h3q5 1 23 1q10 0 34 -0.5t36 -0.5 q20 0 27 1h5h17t11 -1.5t8 -4.5t2 -8zM110 578q-40 0 -40 35q0 17 16 31t35 14q12 0 23 -11t11 -22q0 -18 -13 -32.5t-32 -14.5z" />
<glyph unicode="k" horiz-adv-x="452" d="M453 9q0 -11 -71 -11q-100 0 -100 6q0 7 5 10t11.5 2.5t16.5 -0.5t17 2q-88 172 -150 276q-6 -7 -20 -23.5t-21 -24.5v-229h11h20q14 0 14 -8q0 -4 -6 -6t-17 -2.5t-19.5 -1t-21.5 0t-17 0.5q-2 0 -12.5 -0.5t-19.5 -0.5t-19 0.5t-16 2.5t-6 6q0 6 8 8t18.5 1.5 t19.5 -0.5q0 2 -1 74t-1 131q0 57 0.5 127t0.5 130v111.5t0.5 83.5t0.5 34h-30q-17 0 -17 8q0 11 9 11q2 0 8 -0.5t10 -0.5q113 3 114 3q18 0 18 -9q0 -8 -9 -12h-40v-414q1 -1 3 -2q113 121 176 189q0 2 4 7t4 6q-3 0 -14 -1t-16 -1q-13 0 -19 10q0 2 5 6.5t10 4.5h6 q11 1 34 1h43q5 0 14 0.5t14 0.5q16 0 16 -8q0 -15 -18 -15q-4 0 -11.5 1t-10.5 1q-14 0 -27 -7t-19 -13.5t-19 -22.5q-8 -10 -24.5 -28t-28.5 -30.5t-21.5 -26.5t-9.5 -21t5 -18q28 -56 80.5 -159t73.5 -144q8 -8 24 -8q3 0 8.5 0.5t7.5 0.5q21 0 22 -8z" />
<glyph unicode="l" horiz-adv-x="240" d="M86 708h-26q-10 0 -14.5 2t-4.5 10q0 7 9 7q2 0 8.5 -0.5t9.5 -0.5q12 1 29.5 1.5t30 1t28.5 0.5h30t14 -10q0 -2 -1 -4t-3.5 -3l-5 -2t-6 -1.5t-6.5 -0.5h-7.5h-7.5h-7h-6q0 -21 -0.5 -57t-0.5 -78.5v-78.5q0 -95 0.5 -265t0.5 -212h11h21q14 0 14 -9q0 -3 -6 -5t-17 -3 t-20.5 -1t-22 0.5t-16.5 0.5q-2 0 -12.5 -0.5t-19 -0.5t-18.5 0.5t-15.5 2.5t-5.5 5q0 4 2.5 6t7 3t10 1h11.5h12v691z" />
<glyph unicode="m" horiz-adv-x="781" d="M748 17q3 -4 3 -8t-6 -6t-17 -2.5t-20 -1t-22 0t-16 0.5t-13.5 -0.5t-19.5 -0.5t-19 0.5t-15.5 2.5t-5.5 6q0 2 0.5 3.5t2 2.5t3.5 1.5t4.5 1t5 0.5h6.5h6.5h7h7.5v291q-8 158 -101 158q-51 0 -85 -35t-34 -80q0 -5 0.5 -69.5t0.5 -143.5v-121h11h21q13 0 13 -9 q0 -3 -5.5 -5t-16.5 -2.5t-19.5 -0.5h-22h-15.5q-3 0 -13.5 -0.5t-19 -0.5t-18.5 0.5t-16 2.5t-6 6q0 6 7 8t21.5 1.5t16.5 -0.5v334q-4 119 -99 119q-27 0 -49 -13t-36 -35t-22.5 -43t-14.5 -44q0 -55 0.5 -161.5t0.5 -156.5h11h21q14 0 14 -9q0 -3 -6 -5t-16.5 -3 t-19.5 -1t-21.5 0.5t-16.5 0.5h-8t-12.5 -0.5t-14 -0.5t-14 0.5t-12.5 1t-9 2t-3 3.5q0 4 3 7t7.5 3.5t10.5 1t11.5 0t10.5 -0.5v476h-10h-18q-9 0 -12.5 2t-3.5 9q0 9 10 9h4t6.5 -0.5t5.5 -0.5q14 1 41.5 1.5t40.5 0.5v-21q-1 -52 -1 -77q15 28 46 52.5t76 24.5 q36 0 62.5 -9.5t37 -19.5t20.5 -23.5t14 -16.5q44 69 144 69q41 0 71.5 -12t47.5 -29.5t27.5 -43t14 -46t4.5 -45.5h1v-300h12h21h11z" />
<glyph unicode="n" horiz-adv-x="498" d="M465 17q3 -4 3 -8t-6 -6t-17 -2.5t-20.5 -1t-22.5 0t-16 0.5t-13.5 -0.5t-19 -0.5t-18.5 0.5t-15.5 2.5t-5.5 6q0 3 2.5 5t7.5 3t10 1h12.5h11.5q0 23 0.5 177.5t0.5 156.5l-1.5 16.5t-3 20t-6 23.5t-11.5 21.5t-18 19.5t-25.5 12.5t-35.5 5.5q-27 0 -49 -13t-36 -34.5 t-23 -43.5t-13 -44v-318h12h22q14 0 14 -8q0 -4 -6 -6t-17 -2.5t-20 -1t-22 0t-16 0.5t-13.5 -0.5t-19 -0.5t-18.5 0.5t-15.5 2.5t-5.5 6q0 6 8 8t18 1.5t18 -0.5v476h-10h-19q-16 0 -16 10t9 10q2 0 7.5 -0.5t9.5 -0.5q14 1 40.5 1.5t40.5 0.5q-1 -73 -1 -98q15 28 46 52.5 t76 24.5q80 0 119 -35.5t42 -106.5q1 -16 1 -334h13h21h10z" />
<glyph unicode="o" horiz-adv-x="416" d="M210 -14q-24 0 -44.5 6t-35 17t-26 25t-18.5 31t-12.5 34t-8 36t-3.5 34.5t-1 31.5q0 28 1 47.5t1 27.5q0 248 144 248q27 0 49 -7.5t37 -22.5t26 -31t17.5 -39t11 -41t5.5 -42.5t1.5 -37.5t0 -31.5t-0.5 -19.5v-5.5t0.5 -15t0.5 -19.5q0 -27 -2.5 -52t-11.5 -58t-24 -57 t-42.5 -41.5t-64.5 -17.5zM286 233q0 42 -1.5 74.5t-6 71t-12.5 63.5t-23 42t-35 17q-23 0 -38.5 -15.5t-22.5 -43t-9.5 -54t-2.5 -61.5q0 -16 0.5 -41.5t0.5 -33.5q0 -7 -0.5 -29t-0.5 -36q0 -173 79 -173q73 7 73 158q0 15 -0.5 35.5t-0.5 25.5z" />
<glyph unicode="p" horiz-adv-x="451" d="M75 479q-28 -2 -30 -2q-11 0 -11 11l-0.5 4.5t-0.5 6.5t1.5 5.5t3.5 5t7 3t11 1.5t17.5 -0.5t17.5 -0.5q14 0 21 1q16 0 21 -6t5 -33v-5q1 1 4.5 5t8 8.5t12.5 10t18 10t25 7.5t33 3q37 0 65.5 -15t44.5 -38t25.5 -54.5t13 -59.5t3.5 -59q0 -28 -1 -39v-6v-8.5t0.5 -10 t0.5 -11.5q0 -26 -2.5 -50.5t-12 -56.5t-24.5 -55.5t-43.5 -40t-66.5 -16.5q-67 0 -104 39q0 -1 -0.5 -68t-0.5 -112q0 -6 -0.5 -21t-0.5 -24.5t0.5 -21t1.5 -17.5t3 -6q58 0 58 -20q0 -6 -3 -10t-10 -5.5t-11.5 -2t-14.5 0t-12 0.5q-14 0 -42 0.5t-40 0.5q-3 0 -10 -0.5 t-10 -0.5q-15 0 -15 16q0 8 6.5 14t15.5 6q2 0 6.5 -0.5t6.5 -0.5q6 0 9 1q0 78 -0.5 237t-0.5 240q0 160 1 240zM336 249q0 4 0.5 23.5t0.5 34.5q0 188 -102 188q-23 0 -43.5 -17t-32.5 -41t-18.5 -48.5t-6.5 -42.5q0 -30 1 -91t1 -92q0 -19 10.5 -52.5t36 -65.5t57.5 -32 q96 0 96 206v30z" />
<glyph unicode="q" horiz-adv-x="452" d="M377 -237h5q4 0 9.5 0.5t7.5 0.5q10 0 16.5 -5.5t6.5 -14.5q0 -16 -21 -16q-10 1 -32 1q-12 0 -39.5 -1t-40.5 -1q-2 0 -6 -0.5t-6.5 -0.5t-7 0.5t-6.5 2t-5 3.5t-4 5.5t-1 8.5q0 20 60 20q1 19 1 89v74.5t-0.5 71.5t-0.5 36q-28 -40 -102 -40q-33 0 -59.5 12t-42 33.5 t-26 44.5t-15 52t-6 48.5t-1.5 39.5v24v26q0 238 154 238q21 0 38.5 -4t27.5 -10t16.5 -12t10.5 -11t5 -6v11q0 19 1 68.5t1 50.5q0 5 1 8.5t3.5 5.5t5.5 2.5t8 0.5t15 -0.5t15 -0.5h25q19 0 28 -1q3 -18 3 -25q0 -11 -11 -11q-3 0 -13 1.5t-18 1.5v-267v-554zM214 16 q24 0 44.5 18.5t32 44.5t18 49.5t6.5 36.5q0 31 0.5 92t0.5 91q0 28 -11 61t-36 60.5t-57 27.5q-96 0 -96 -192q0 -13 0.5 -31.5t0.5 -22.5q0 -2 0.5 -23.5t0.5 -34t2.5 -37t6 -41t11 -37t17 -32.5t25 -21t34.5 -9z" />
<glyph unicode="r" horiz-adv-x="365" d="M353 450q12 -20 12 -38q0 -15 -9 -31t-21 -16q-14 0 -21 15t-9 33.5t-14 33.5t-35 15q-21 0 -46 -14.5t-37.5 -26t-32.5 -32.5q0 -64 0.5 -189t0.5 -183h11h19h2q13 1 13 -9q0 -3 -6.5 -5t-17.5 -3t-20.5 -1t-22 0.5t-15.5 0.5t-9 -0.5t-12 -0.5h-13.5t-13.5 0.5t-11.5 1 t-8.5 2.5t-3 4q0 7 7 9t20.5 1.5t14.5 -0.5v476h-9h-19q-9 0 -12.5 2t-3.5 9q0 9 10 9q2 0 8 -0.5t9 -0.5q14 1 41 1.5t42 0.5q-1 -69 -1 -92q4 3 17.5 14t19 15t18 12.5t20.5 12t20 8.5t23 7t24 2q45 0 71 -43z" />
<glyph unicode="s" horiz-adv-x="367" d="M65 17q-1 -1 -3.5 -5.5t-4 -6.5t-4 -3.5t-6.5 -1.5q-5 0 -7.5 6.5t-3.5 17.5t-1 20.5t0.5 21.5t0.5 15q0 22 9 22q12 0 22.5 -10t21 -25t17.5 -21q30 -35 70 -35q26 0 48.5 15t36 39.5t13.5 51.5q0 46 -41.5 83.5t-131.5 68.5q-31 11 -50.5 45.5t-19.5 74.5 q0 49 35.5 86.5t106.5 37.5q6 0 18.5 -0.5t18.5 -0.5h17h37q8 -16 8 -44q0 -2 0.5 -6.5t0 -6t-1 -5t-1.5 -5.5t-3.5 -5t-6.5 -5t-9 -5q-1 0 -5.5 4.5t-4.5 8.5v5q0 48 -64 48q-28 0 -48 -11t-29.5 -28t-13 -31t-3.5 -26v-3q-1 -9 0 -15.5t7 -20.5t18 -24.5t38 -22.5t62 -20 q1 0 2 -1q11 -4 20 -8t28.5 -18t33 -31t24 -47t10.5 -66q0 -28 -9 -50.5t-24 -37t-35.5 -24t-42 -13.5t-45.5 -4q-63 0 -105 22z" />
<glyph unicode="t" horiz-adv-x="354" d="M323 145q10 -1 16 -12t6 -26q0 -44 -38.5 -78.5t-84.5 -34.5q-15 0 -30 2.5t-36.5 13t-37 28.5t-27.5 52t-12 79q-1 42 -1 323h-5h-10q-1 0 -6 -0.5t-11 -0.5q-26 0 -26 6q0 10 7.5 12.5t25.5 2.5q4 0 12 -0.5t13 -0.5v218h64q-1 -8 -1 -30.5v-48t-0.5 -66t-0.5 -72.5 q30 0 36 -1h5q13 0 13 -9q0 -10 -14 -12q-29 0 -40 1v-176q-2 -67 1 -120v-16q1 -23 1.5 -36t3 -35.5t8 -35.5t14 -27t22.5 -20.5t33 -6.5q25 0 40 13t20.5 32t9 37.5t10.5 31.5t20 13z" />
<glyph unicode="u" horiz-adv-x="463" d="M431 512q1 -4 1 -9t-2.5 -6t-10.5 -2q-1 0 -6.5 0.5t-14.5 1t-18 0.5q0 -2 0.5 -19t0.5 -44.5v-54.5q0 -205 -4 -258q-1 -13 -5.5 -28t-15 -32.5t-25.5 -31t-39.5 -23t-53.5 -9.5q-80 0 -117 33.5t-42 106.5q-3 28 -3 358h-11h-21h-2q-11 -1 -11 7q0 4 11 6.5t31.5 3.5 t38 1t41.5 -0.5t31 -0.5q2 -8 2 -9q0 -6 -6 -7.5t-21 -1t-19 0.5q0 -5 -0.5 -109t-0.5 -162v-27v-24.5t0.5 -18.5t0.5 -13v-5q4 -118 100 -118q51 0 75.5 27.5t36.5 84.5l4 364q-5 0 -11.5 -0.5t-10.5 -0.5h-8.5t-7.5 0.5t-5.5 1.5t-3.5 2.5t-1 4.5q0 4 9.5 6.5t26 3.5 t30.5 1t33.5 -0.5t23.5 -0.5z" />
<glyph unicode="v" horiz-adv-x="434" d="M0 513q31 3 58 3q87 0 87 -15q-2 -1 -43 -8q17 -61 37.5 -124.5t53 -154.5t43.5 -121q12 38 24.5 79.5t23.5 82.5t20.5 78t21 81.5t20.5 78.5q-48 3 -48 4v7q0 4 -1 5q8 4 70 4q68 0 68 -11q-9 -7 -20.5 -8.5t-24 -2.5t-22.5 -7q-13 -51 -49.5 -181.5t-54.5 -200.5 q-15 -55 -37 -104q-22 1 -32 23q-15 53 -34.5 115.5t-35.5 111t-38 115.5t-37 113q-5 18 -23 18h-5q-1 0 -5.5 -0.5t-6 0t-4 1.5t-3.5 3t-2 5.5t-1 9.5z" />
<glyph unicode="w" horiz-adv-x="727" d="M0 496q3 19 18 19q72 -1 145 -6q5 0 11 -6q-3 -10 -9.5 -12t-42.5 -5q12 -43 31 -125t37 -147t41 -122q7 15 13.5 32.5t11 33.5t9.5 34.5t8.5 34.5t8.5 35t10 34q18 58 60 210q11 1 39 3q12 -55 45 -191t50 -211q2 -1 8 -1q31 70 78.5 210.5t54.5 160.5q-34 -2 -44 -2 q-12 0 -12 12q1 4 5 7.5t10.5 6t14.5 4t18 2.5t19.5 1.5t20 0.5t18.5 -0.5t16 -0.5h12q5 0 8.5 -2t8 -6.5l5.5 -5.5q-10 -9 -21.5 -11t-28.5 -2t-26 -2q-74 -191 -154 -429q-4 -19 -12.5 -37.5t-17.5 -18.5q-11 0 -31.5 82.5t-44.5 196t-36 152.5q-13 -26 -24 -62t-22 -81 t-17 -68q-25 -79 -67 -196q-1 -7 -8 -14.5t-11 -7.5q-5 0 -12 13.5t-14.5 38t-16 53.5t-17.5 65.5t-16.5 68t-16 66.5t-13.5 56q-5 19 -14.5 55.5t-14.5 55.5q-1 5 -2.5 8.5t-2.5 6.5t-3.5 5t-4 3.5t-5.5 2.5l-6 1.5t-8.5 0.5h-10.5h-13h-15z" />
<glyph unicode="x" horiz-adv-x="444" d="M435 514q-4 -2 -5.5 -7t-2 -8.5t-2.5 -3.5h-26q-11 0 -19 -0.5t-14 -2.5l-9 -3t-6 -5.5t-4.5 -6.5t-4.5 -9t-4 -11q-43 -89 -78 -150q-8 -12 -8 -28q0 -14 8 -30q5 -10 25.5 -47t34 -61.5t31.5 -55t31 -46.5t20 -16q6 0 16 -3.5t9 -7.5q0 -4 -6.5 -6.5t-19.5 -3t-23 -1 t-25 0t-18 0.5t-15.5 -0.5t-19.5 -0.5h-4q-12 0 -12 6q0 5 1.5 7.5t5 4t7 2t10 1t10.5 0.5q-34 78 -106 189q-13 -24 -32.5 -64.5t-37 -77t-24.5 -49.5q7 -1 25 -2t27 -3q-2 -2 -2.5 -5.5t-0.5 -5.5t-2 -2q-9 -1 -29 -1q-13 0 -37.5 0.5t-36.5 0.5q-4 0 -13.5 -0.5 t-13.5 -0.5q-9 0 -9 10l1 7q1 0 4 -0.5t5 -0.5q23 0 37 11t25 36q15 33 46.5 91.5t43.5 83.5q3 9 3 16q0 9 -6 19q-18 35 -53.5 99t-51.5 95q-2 4 -5 10.5t-4.5 8.5t-6.5 4.5t-14 2.5q-4 0 -11.5 -0.5t-12 -0.5t-16.5 2q2 4 3 10.5t2 8.5t3 2h22q14 0 49 0.5t51 0.5 q20 0 29 -1.5t11.5 -3t2.5 -9t2 -11.5q-4 -1 -13 -1q-3 0 -13 0.5t-15 0.5h-7q13 -35 44.5 -98t42.5 -88q31 48 103 189q-39 0 -50 7q1 1 2 7t1 7q19 2 71 2q71 0 84 -4z" />
<glyph unicode="y" horiz-adv-x="466" d="M265 106q13 57 49.5 185.5t50.5 201.5q-4 0 -27 0.5t-35 2.5t-12 8q0 10 21 13.5t70.5 3.5h53.5t14.5 -0.5t15.5 -0.5q-1 -8 -3 -12t-5.5 -6t-9.5 -2q-3 0 -12.5 1t-12.5 1q-10 0 -15.5 -5t-7.5 -10.5t-6 -23.5q-16 -57 -62 -209q-22 -91 -43.5 -165.5t-40 -123 t-36.5 -85.5t-32 -57t-27 -32t-21 -15t-15 -3t-7 33v6q0 29 27 48q77 53 100 154q0 1 0.5 2.5t0.5 2.5q0 7 -4 15q-26 66 -75.5 203t-76.5 207q-3 9 -9 23.5t-8 19.5q-3 0 -12 -0.5t-13.5 -0.5t-12 0.5t-11 2t-8 3.5t-6.5 5.5t-2 8.5q0 3 6.5 5.5t19 4t26.5 2t31.5 0.5h31.5 t30 -0.5t23 -0.5q3 -12 3 -17q0 -3 -1 -4.5t-3 -2.5t-5 -1.5t-7.5 -1t-9.5 -0.5t-12.5 -0.5t-14.5 -1.5q43 -151 147 -382z" />
<glyph unicode="z" horiz-adv-x="360" d="M319 521q3 -7 3 -13q0 -5 -1.5 -10t-5 -11.5t-4.5 -9.5q-12 -28 -37.5 -77t-30.5 -60q-20 -41 -47 -97.5t-52.5 -110t-46.5 -96.5q-1 -3 -3 -11t-4 -13q6 -1 17 -1q27 0 73 8.5t69 9.5q16 0 26.5 12.5t16 25t10.5 12.5q8 0 27 -10q-10 -50 -28 -70q-30 -1 -107.5 -5 t-120.5 -4q-8 0 -14.5 1.5t-14.5 4.5t-13 5q31 80 111.5 243.5t113.5 254.5q-13 1 -38 1q-18 0 -53 -1t-53 -1h-15q-2 -12 -7 -33.5t-6 -32.5q-22 -4 -31 -5q-1 5 -1 15q0 35 11.5 52.5t45.5 17.5q64 5 200 11q2 0 10 -2z" />
<glyph unicode="{" horiz-adv-x="320" d="M231 -51q0 7 4 11t10 4q14 0 14 -25q0 -12 -4 -23t-16 -19.5t-29 -8.5q-18 0 -31.5 7t-27 25t-21 56t-7.5 93v193q0 11 -5.5 19.5t-14.5 13.5t-17 8.5t-16 5.5t-9 2q3 1 7 2t15 5.5t19 10t14.5 15t6.5 20.5v191q0 56 7.5 94t21 56t27 24t31.5 6q25 0 37 -14.5t12 -35.5 q0 -6 -3 -11.5t-7.5 -9t-9.5 -3.5q-6 0 -8.5 8.5t-2.5 19t-4 19t-14 8.5q-15 0 -19 -19q-2 -14 -2 -82v-109q0 -67 -7 -102t-20 -52.5t-45 -40.5q31 -19 45 -37t20.5 -53t6.5 -103v-110q0 -83 7 -93q4 -6 14 -6t14.5 6t5.5 11.5t1 22.5z" />
<glyph unicode="|" horiz-adv-x="243" d="M121 758q11 0 16 -10t5 -18q-6 -162 -6 -786v-59q0 -37 -25 -37q-7 0 -7 21q0 6 0.5 14.5t0.5 10.5q-3 81 -3 227q0 127 3.5 342.5t3.5 242.5v9v17.5t1 12.5t4 10t7 3z" />
<glyph unicode="}" horiz-adv-x="320" d="M89 -51v-14.5t1 -10.5t3.5 -9t7 -4t11.5 -2q15 0 18 16.5t3 82.5q0 18 -0.5 54.5t-0.5 55.5q0 42 2 69t6 47t13 33.5t19.5 23t28.5 20.5q-30 22 -43 40t-19.5 53t-6.5 102q0 19 0.5 55t0.5 54q0 67 -3 84t-18 17q-11 0 -16 -8.5t-5 -19t-2 -19t-8 -8.5q-9 0 -14.5 8 t-5.5 19q0 13 4.5 23t16.5 17t29.5 7t30.5 -6t26 -24t20 -56t7 -94v-191q0 -17 16 -30.5t32 -17.5l16 -5l-12 -3.5t-22.5 -8t-20 -14.5t-9.5 -23v-193q0 -56 -7 -93.5t-20 -55.5t-26.5 -25t-30.5 -7q-26 0 -38 15.5t-12 35.5q0 25 12 25q6 0 11 -4t5 -11z" />
<glyph unicode="~" horiz-adv-x="331" d="M31 291q4 3 13 11t12 10t10.5 8t10.5 7.5t9 5.5t10 5t10 3t11.5 2.5t12.5 0.5q18 0 51.5 -14.5t48.5 -14.5q10 0 18 2.5t23.5 10.5t24.5 12q5 -7 5 -12q0 -8 -22.5 -23.5t-43.5 -27.5q-16 -7 -30 -7q-20 0 -54 17.5t-49 17.5q-11 0 -30 -9.5t-27 -9.5q-6 0 -14 5z" />
<glyph unicode="&#xa1;" horiz-adv-x="228" d="M90 106q3 47 3.5 123.5t3.5 110.5t15 34q18 0 18 -20q-1 -68 -1 -205q0 -148 7 -396q0 -5 -2 -10t-5 -9t-8.5 -6t-11.5 -2q-17 0 -22 12.5t-5 57.5q0 139 8 310zM112 445q-29 0 -29 32q0 12 3 20.5t9 13.5t15 5q15 0 26 -10.5t11 -25.5t-10 -25t-25 -10z" />
<glyph unicode="&#xa2;" horiz-adv-x="321" d="M275 149q1 0 2.5 0.5l1.5 0.5q12 0 12 -14q0 -20 -27 -38t-53 -22q-7 0 -10.5 -1t-5.5 -4t-2 -5t-0.5 -8.5t-0.5 -10.5v-35v-6.5v-7.5t-1.5 -5.5t-4.5 -4.5t-9 -1q-16 0 -16 22v5v6q0 7 1 24.5t1 23.5q0 7 -1 8q-28 0 -50.5 12t-35.5 29.5t-21 41t-11 44t-3 41.5 q0 39 10.5 74t40 69.5t74.5 56.5q1 1 1 92q2 29 10 29q3 0 5.5 -2.5t4 -7t2.5 -10t2 -13.5t1 -15.5v-17.5v-17.5v-18v-17.5q40 0 60.5 -11t20.5 -44q0 -15 -8.5 -24t-15.5 -10.5t-12 -1.5q-7 0 -9 10t-2 22.5t-7.5 22.5t-22.5 10h-4v-306q5 -1 13 -1q9 0 16.5 2t16 7t12 7 t14 10.5t11.5 9.5zM163 142q0 17 0.5 36.5t1.5 42.5t1 37v147q-30 -23 -50.5 -71.5t-20.5 -97.5q0 -41 16.5 -72t49.5 -42q2 17 2 20z" />
<glyph unicode="&#xa3;" horiz-adv-x="495" d="M498 86q2 1 6 1q12 0 12 -13q0 -26 -72 -66q-29 -15 -63 -15q-8 0 -17.5 1.5t-19 5t-18 7t-18.5 9.5t-17 10.5t-17.5 12t-15.5 11t-14.5 11t-12.5 9.5q-20 -53 -51 -78.5t-65 -25.5q-37 0 -66 25t-29 58q0 38 32 71.5t81 33.5q30 0 57 -12q-28 79 -49 197h-77 q-12 0 -12 15q0 13 12 13h73q-12 66 -12 129q0 47 8.5 85.5t26.5 71.5t51.5 51.5t80.5 18.5q52 0 79.5 -27t27.5 -61q0 -15 -6.5 -25t-18.5 -10q-16 0 -21.5 13t-4.5 28.5t-10.5 28t-38.5 12.5q-106 0 -106 -230q0 -43 3 -85h96q12 0 12 -13q0 -6 -3.5 -10t-7.5 -4 q0 -1 -95 -1q4 -47 11 -96.5t11.5 -76.5t6.5 -35q9 -5 39 -29t64 -42.5t66 -18.5q58 0 102 45zM70 2q11 -9 31 -9q33 0 63.5 25.5t38.5 72.5q-35 15 -62 15q-38 0 -61 -23.5t-23 -50.5q0 -10 3.5 -18t9.5 -12z" />
<glyph unicode="&#xa4;" horiz-adv-x="548" d="M508 517q-1 -38 -14 -69.5t-32.5 -52t-47 -36.5t-53.5 -24t-56.5 -13t-52.5 -6.5t-44 -1.5q-8 0 -19 0.5t-13 0.5v-74l161 1q4 0 8.5 -4.5t4.5 -10.5v-1q0 -11 -9.5 -12.5t-66.5 -0.5h-98v-189h7h1h29q5 0 9 -3.5t4 -8.5q0 -6 -4 -9.5t-9 -3.5h1q-1 -1 -2 -1v1h-28 q-55 0 -85 -1v1h-15q-15 0 -15 13q0 3 1.5 5t3 3.5t4.5 2.5t6 1h28h6q1 26 1 80q0 18 -0.5 54.5t-0.5 54.5h-74q-6 0 -9.5 4t-3.5 10q0 14 13 14h74v57v15h-42q-33 -1 -39 1t-6 14q0 6 3 10t7 4h77v210v109h1q-1 7 -1 21h-6h-28q-15 0 -15 13q0 3 2 6.5t5.5 5.5t7.5 2h15 q4 0 53.5 0.5t80.5 0.5q49 0 61 -1q10 0 22.5 -1.5t34.5 -6.5t42 -12.5t41.5 -22t37 -34t26 -49.5t10.5 -66zM176 659v-73v-247h27.5t40.5 4t51.5 11t50.5 23t47.5 37.5t32 57t13.5 80.5q0 68 -54.5 102t-143.5 34q-32 0 -63 -6q-2 0 -2 -23z" />
<glyph unicode="&#xa5;" horiz-adv-x="525" d="M511 711q14 0 14 -14q0 -6 -4 -10t-10 -4h-28h-7l-4 -10t-11.5 -27.5t-18 -40.5t-23 -52t-26 -58t-29 -62t-29.5 -63h36q7 0 11.5 -3.5t4.5 -9.5q0 -4 -2 -7t-5.5 -5t-7.5 -2h1h-3h-51q-4 -8 -11.5 -24t-10.5 -23h74q7 0 11.5 -4.5t4.5 -8.5q0 -14 -15 -16h1h-3h-83 q0 -179 -1 -218l0.5 -10t0.5 -15h5h1h28q5 0 9.5 -4t4.5 -9q0 -6 -4 -9.5t-10 -3.5l-2 -1v1h-26h-86h-16q-6 0 -10 3.5t-4 9.5t4 9.5t10 3.5h29h6v74v152q-1 2 -7 17h-79q-11 0 -11 16q0 4 3.5 8.5t9.5 4.5h65q-6 11 -19 47h-48q-11 0 -11 14q0 6 3.5 9.5t9.5 3.5h34 q-18 42 -37.5 89.5t-35 85.5t-28.5 70t-20 50l-7 18h-8h-27q-5 0 -9 4t-4 10t4 10t9 4h14v1q29 -1 84 -1h29v1l2 -1q3 0 6 -2t5 -5.5t2 -6.5q0 -6 -4 -10t-10 -4h-24q0 -6 151 -371q34 66 77.5 158t70.5 152t27 61h-61q-3 0 -6.5 2t-5.5 5t-2 7q0 5 4.5 9.5t9.5 4.5h-2 q1 0 4 1v-1h27q56 0 83 1v-1h17z" />
<glyph unicode="&#xa6;" horiz-adv-x="240" d="M107 262q0 40 13 40q7 0 11.5 -18.5t5.5 -54t1.5 -64t0 -73t-0.5 -56.5q0 -17 -5 -27t-13 -10q-6 0 -10 8.5t-5.5 26t-2 28.5t0 33t0.5 23q0 97 4 144zM138 448q0 -11 -2.5 -18.5t-6.5 -11.5t-9 -4q-6 0 -10 8.5t-5.5 26t-2 29t0 33l0.5 21.5v14v21v25.5t0.5 28t1 27.5 t2 26t3.5 21t4.5 15t5.5 5q8 0 12 -19t5 -53t1.5 -66t-0.5 -72t0 -57z" />
<glyph unicode="&#xa7;" horiz-adv-x="412" d="M128 24l1 -6.5t2 -9.5t3 -11t4 -12.5t5 -11.5t7 -11.5t9 -10t11 -8.5t13.5 -5t16.5 -2q27 0 47 10.5t30 28.5t14.5 37.5t4.5 40.5q0 31 -23 62.5t-56 58.5t-66 53.5t-56 57.5t-23 61q0 25 2.5 44.5t3.5 30.5t9 25.5t9 17.5t14.5 19t14.5 19q-31 48 -42.5 82t-11.5 79 q0 32 13 56.5t30 37.5t38 21t33.5 10t19.5 2q10 0 27 -2.5t44 -10t46 -27t19 -46.5t-24 -27q-9 0 -17 5t-10 13q0 13 -26.5 41t-51.5 28q-45 0 -75 -31t-30 -65q0 -37 17.5 -68t43.5 -50t56 -39t56 -37.5t43.5 -43.5t17.5 -57q0 -33 -5.5 -63.5t-13.5 -50t-15.5 -34 t-13 -22.5t-5.5 -9q1 -2 11 -17.5t18.5 -30t16 -39t7.5 -48.5q0 -14 -2.5 -28.5t-7.5 -29t-12.5 -27.5t-19 -24t-25.5 -19t-32.5 -13t-40.5 -5q-59 0 -90.5 35t-31.5 75q0 17 7.5 28t21.5 11q20 0 20 -38zM267 211q31 87 31 114q0 22 -20 60q-60 94 -118 94 q-16 0 -29.5 -14.5t-20 -32.5t-6.5 -34q0 -33 18 -61.5t40 -45t55 -40.5t50 -40z" />
<glyph unicode="&#xa8;" horiz-adv-x="314" d="M227 638q-12 0 -23.5 10t-11.5 23q0 9 5 17.5t13 14.5t18.5 9.5t21.5 3.5q10 0 22 -12.5t12 -19.5q0 -14 -20.5 -30t-36.5 -16zM47 653q-16 9 -16 29q0 11 4.5 17.5t9.5 8.5t13 3.5t10 2.5q38 -2 38 -31q0 -9 -7 -17.5t-17 -13t-18.5 -4.5t-16.5 5z" />
<glyph unicode="&#xa9;" horiz-adv-x="457" d="M410 569q7 -32 7 -56q0 -20 -5 -46q-5 -20 -16 -42t-32 -47t-58 -41t-83 -16q-41 0 -74 14.5t-52.5 35.5t-33 46.5t-18 47t-4.5 38.5q0 49 24 96.5t69 79.5t97 32q146 0 179 -142zM237 353q33 0 67 23.5t54 55t20 57.5q0 1 -0.5 3.5t-0.5 4.5q1 6 1 20q0 62 -45 119 t-111 57q-21 0 -42 -13q-53 -32 -82 -72t-29 -99q0 -23 7 -53q3 -10 13 -25.5t28.5 -34t50 -31t69.5 -12.5zM249 462q23 0 26 -14q-1 -2 -6.5 -8t-7.5 -8t-7 -6.5t-8 -6t-8 -3.5t-10.5 -3t-11.5 -1q-33 0 -53 21.5t-20 54.5q0 45 27 85t69 40q15 0 25 -12t10 -34 q0 -15 -17 -15q-4 0 -6.5 0.5t-4.5 2t-3.5 2.5t-2.5 4.5t-1.5 6t-0.5 7.5t-0.5 8.5t-0.5 11v12.5q-50 -27 -50 -102q0 -50 37 -74q5 7 25 31z" />
<glyph unicode="&#xaa;" horiz-adv-x="227" d="M61 546q-14 14 -14 31q0 20 13.5 35t30 22.5t30 18t13.5 21.5q0 8 -5.5 14t-10.5 7q-16 0 -23.5 -8.5t-9.5 -17t-6 -8.5q-5 0 -9.5 3.5t-4.5 10.5q0 13 14.5 26t36.5 13q38 0 38 -32q0 -7 -0.5 -43.5t-0.5 -53.5t14 -17q7 1 17 1q0 -12 -10 -21t-20 -9q-7 0 -15 8t-13 8 t-19 -9.5t-22 -9.5q-12 0 -24 10zM80 582l-0.5 -2.5t-0.5 -3.5q0 -10 11 -10q23 0 31.5 12t8.5 50q-24 -1 -37 -15t-13 -31zM182 481q15 -3 15 -11q0 -9 -13.5 -10.5t-59.5 -1.5h-35h-13h-12.5h-10.5t-9.5 1t-7 2.5t-4.5 4.5t-1 7t7 8h144z" />
<glyph unicode="&#xab;" horiz-adv-x="335" d="M236 268q30 -50 63 -109q3 -6 3 -12q0 -10 -6 -16q-9 6 -25 24t-32.5 38.5t-32 39.5t-25.5 31.5t-10 11.5q0 5 6 10q56 77 118 143q10 -5 10 -13q0 -3 -3 -8q-12 -19 -41.5 -70.5t-29.5 -54.5q0 -6 5 -15zM87 280q7 -12 17 -28t18.5 -29t19 -30t18.5 -32q1 -2 1 -6 q0 -7 -2 -14t-4 -7l-116 120q-8 8 -8 16q0 6 8 15q70 95 111 145q7 -8 7 -16q0 -11 -11.5 -33t-31.5 -54t-27 -47z" />
<glyph unicode="&#xac;" horiz-adv-x="321" d="M290 328v-7v-10.5t-0.5 -11.5t-1.5 -12t-3 -10t-5.5 -7.5t-8.5 -2.5q-3 0 -5 1.5t-3.5 4t-2.5 5.5t-1 8v8.5v10v9.5h-215q-13 0 -13 14q0 6 3.5 10t9.5 4h232q6 0 10 -4t4 -10z" />
<glyph unicode="&#xad;" horiz-adv-x="332" d="M285.5 318q6.5 0 11.5 -3t5 -7q0 -13 -12 -13h-112h-21q-7 0 -53 -1t-64 0q-9 0 -9 9q0 5 3 9.5t8 4.5h115h21q19 0 60 0.5t47.5 0.5z" />
<glyph unicode="&#xae;" horiz-adv-x="551" d="M276 714q27 0 55.5 -6t61.5 -22.5t58.5 -42t42.5 -68t17 -96.5t-16.5 -95.5t-41.5 -65t-58 -38t-61.5 -19.5t-57.5 -5q-21 0 -48.5 5.5t-61 22t-61 40.5t-46 65.5t-18.5 93.5q0 43 10.5 78t27.5 58t39.5 41t44.5 28t45.5 16t39.5 8t28 2zM476 483q0 46 -14.5 82.5 t-36.5 59t-50 37.5t-52.5 20.5t-46.5 5.5q-34 0 -68.5 -14.5t-62.5 -40t-45.5 -65t-17.5 -85.5q0 -38 9.5 -70t26 -53t36.5 -37.5t42.5 -25t42 -13t37.5 -4.5q17 2 27 3t33.5 6t39.5 12.5t36.5 23t33 35.5t21.5 52t9 71zM404 340q-9 -3 -22 -3q-51 0 -58 38v3q-11 81 -60 81 v-100h10q14 0 15 -9q0 -5 -6 -7.5t-16.5 -3t-20 -0.5t-23 0.5t-18.5 0.5q-16 0 -16 10q0 9 10 9h22q0 34 0.5 123t0.5 110h-21q-12 0 -12 10q0 4 3.5 7.5t8.5 3.5h67q14 0 31 -6t32.5 -22t15.5 -37q0 -42 -34 -65q49 -25 49 -82q0 -21 9.5 -31.5t32.5 -16.5v-13zM264 592 v-109q45 0 45 62q0 24 -14.5 36t-27.5 12q-3 0 -3 -1z" />
<glyph unicode="&#xaf;" horiz-adv-x="261" d="M214 715q4 0 8 -1.5t6.5 -4t2.5 -4.5q0 -5 -4 -8t-10.5 -4.5t-14 -2t-17 -0.5t-17.5 0.5t-17 1t-13 0.5h-22q-10 0 -34.5 -1t-41.5 0q-9 0 -9 9q0 6 5 9.5t15.5 4.5t19.5 1t24 -0.5t21 -0.5h22q18 0 44 0.5t32 0.5z" />
<glyph unicode="&#xb0;" horiz-adv-x="272" d="M232 616q0 -47 -29 -71.5t-69 -24.5q-26 0 -47.5 13t-33.5 35t-12 47q0 38 26.5 66t68.5 28q44 0 70 -23t26 -70zM200 615q0 11 -2.5 22t-8 23t-19 19t-31.5 7q-28 0 -49.5 -19t-21.5 -51q0 -37 22.5 -55.5t48.5 -18.5q27 0 44 19.5t17 53.5z" />
<glyph unicode="&#xb1;" horiz-adv-x="348" d="M299 160q8 0 13.5 -3.5t5.5 -8.5q0 -12 -13 -12q-34 0 -132 -0.5t-134 -0.5q-8 0 -8 9q0 6 2.5 10.5t7.5 4.5h122q-1 0 -1 144q-16 0 -61 -0.5t-59 -0.5q-9 0 -9 10q0 3 1 6.5t3.5 5.5t5.5 2h119q0 108 -1 127q4 10 10 10t10.5 -4.5t4.5 -9.5q0 -15 0.5 -62t0.5 -60 q9 0 23.5 0.5t25 0.5t23 0.5t21 -0.5t16 -2t11.5 -3.5t4 -6.5q0 -13 -13 -13h-111q0 -17 -1 -73t-1 -71q32 1 114 1z" />
<glyph unicode="&#xb2;" horiz-adv-x="247" d="M217 376v-7v-16q-4 -1 -177 -1q-6 0 -7.5 3t-1.5 15q0 11 13.5 30.5t38 50.5t40.5 58q48 71 48 126q0 27 -12.5 43t-34.5 16q-19 0 -31 -13.5t-16 -29.5t-11 -29t-18 -13q-6 0 -11 5t-5 9q4 36 25 63t66 27q32 0 53.5 -12.5t31 -32t9.5 -44.5q0 -31 -20 -70.5 t-43.5 -68.5t-49.5 -59.5t-31 -36.5h127q8 0 12 -2t4.5 -4t0.5 -7z" />
<glyph unicode="&#xb3;" horiz-adv-x="248" d="M218 454q0 -8 -1.5 -17t-5 -23t-10.5 -26t-17 -23t-26.5 -17.5t-37.5 -6.5q-31 0 -59 16t-29 38q-1 8 -1 28q0 4 4.5 7.5t9.5 3.5q7 0 11 -13t7 -28.5t16 -28t35 -12.5q58 0 58 99q0 31 -10 50.5t-25 25.5t-30 8t-25.5 2t-10.5 2q0 6 14 12q0 1 8 2t17.5 4.5t19.5 11 t16.5 26t6.5 44.5q0 27 -11.5 44t-26.5 17q-23 0 -35 -13t-13.5 -28.5t-5 -28.5t-11.5 -13q-5 0 -10 5t-5 10q0 8 3.5 20t12 26.5t25.5 25t39 10.5q31 0 53 -20.5t22 -53.5q0 -16 -3 -30t-7 -23t-8.5 -15.5t-8 -11l-3.5 -4.5l6 -3.5t11.5 -7.5t13.5 -12.5t13.5 -18.5 t9.5 -26t4 -34z" />
<glyph unicode="&#xb4;" horiz-adv-x="159" d="M129 696q-63 -106 -87 -106q-5 0 -8 5.5t-3 10.5q0 9 7.5 27t20.5 42t14 28q7 15 25 15q22 0 31 -22z" />
<glyph unicode="&#xb5;" horiz-adv-x="471" d="M447 37q4 -5 4 -6v-31h-144v32q-22 -38 -92 -38q-23 0 -43 5.5t-31.5 12.5t-20.5 15.5t-12 13t-4 6.5q-7 5 -10 5q-8 0 -8 -16q0 -10 13 -54t13 -67q0 -49 -27 -49q-32 0 -32 73q0 30 6 83t6 63v409h-23q-11 0 -11 9q0 4 6.5 6.5t19.5 3.5t24 1t26.5 -0.5t21.5 -0.5 q-1 -182 -1 -306q0 -111 1 -115q0 -73 88 -73q42 0 66 22t24 45v408h-27q-1 0 -2.5 0.5t-3.5 2.5t-2 5q0 5 8.5 8.5t22.5 4t26.5 0.5t26 -0.5t14.5 -0.5v-477h77z" />
<glyph unicode="&#xb6;" horiz-adv-x="357" d="M274 -113h9q27 0 35 -1.5t8 -8.5q0 -11 -12 -11t-40.5 -0.5t-49 -0.5t-42.5 0.5t-34 3.5t-12 9q0 3 2 5t6.5 3t8 1h10.5h9v22.5t-0.5 58.5t-0.5 74q0 46 0.5 105.5t0.5 111v96.5v73.5v30.5q-18 0 -30.5 1t-35.5 7.5t-37.5 19t-26 38.5t-11.5 63q0 36 16 62t41 38t46 17.5 t38 5.5q20 0 48.5 0.5t44 0.5t31.5 -0.5t23 -3.5t7 -7q0 -3 -2 -5.5t-5.5 -3.5t-8 -1.5t-10 -0.5h-9.5t-9 0.5t-8 0.5v-588v-216zM172 478v213q-39 0 -64 -30t-25 -73q0 -25 4 -43.5t13.5 -34t27.5 -24t44 -8.5zM212 691v-804h38v804h-38z" />
<glyph unicode="&#xb7;" horiz-adv-x="182" d="M46 361q0 17 14 30.5t31 13.5q20 0 33 -13.5t13 -33.5q0 -19 -11.5 -31t-28.5 -12q-31 0 -40.5 8.5t-10.5 37.5z" />
<glyph unicode="&#xb8;" horiz-adv-x="190" d="M69 -69l32 69h23l-27 -59q26 0 44.5 -18t18.5 -47q0 -26 -21 -43t-52 -17q-20 0 -38 11.5t-18 23.5q0 9 16 17q15 -28 43 -28q16 0 27.5 11.5t11.5 26.5q0 18 -11 27.5t-29 9.5q-10 0 -16 -1q-6 6 -6 12q0 1 2 5z" />
<glyph unicode="&#xb9;" horiz-adv-x="184" d="M145 359q9 0 9 -8t-5 -8q-8 0 -26 -0.5t-31.5 -0.5t-28 0.5t-22 2.5t-7.5 6q0 8 12 8h28v260q-1 -2 -3 -5q-5 -10 -8 -14t-6.5 -9t-7 -7t-7.5 -2q-11 0 -11 12q0 8 9 19q8 12 16 26t13.5 23t11 18.5t9.5 14.5t8 8.5t8 3.5q10 0 10 -15l1 -334q7 1 28 1z" />
<glyph unicode="&#xba;" horiz-adv-x="187" d="M89 579q-19 1 -31.5 6.5t-18 14.5t-7 16t-1.5 14q0 30 16.5 56.5t54.5 26.5q22 0 37 -15t15 -40q0 -79 -65 -79zM102 693q-19 0 -30 -15.5t-11 -36.5q0 -16 7.5 -26.5t20.5 -10.5q15 0 25 16.5t10 38.5q0 32 -22 34zM142 525q15 -1 15 -10t-14 -10.5t-60 -1.5h-9h-9h-8.5 t-9 1t-6.5 2.5t-4.5 4.5t-1.5 6t5 4.5t14 2.5t19 1.5t21.5 0.5h20.5t17 -0.5t10 -0.5z" />
<glyph unicode="&#xbb;" horiz-adv-x="334" d="M99 268q6 6 6 14q0 2 -18.5 36t-37 66.5t-18.5 31.5q0 8 11 13q59 -66 116 -143q5 -5 5 -8.5t-6 -12.5q-4 -8 -31.5 -40t-53.5 -60.5t-31 -33.5q-7 3 -7 16q0 4 3 12q8 17 19 35.5t23 39.5t20 34zM248 280q-5 9 -13.5 24t-15.5 26.5t-15 26t-13.5 25t-9.5 19t-4 12.5 q0 9 9 17q95 -125 110 -145q0 -1 2 -3t3 -3.5t2 -4t1 -5.5q0 -1 -29 -34.5t-60 -67t-37 -33.5l-1.5 2t-2.5 5t-2 6.5t-1 6.5t2 7q9 14 20 31.5t19.5 30.5t18 28.5t17.5 28.5z" />
<glyph unicode="&#xbc;" horiz-adv-x="569" d="M185 359q10 0 10 -8t-5 -8q-8 0 -26.5 -0.5t-31.5 -0.5t-27.5 0.5t-22.5 2.5t-8 6q0 8 11 8h30q0 58 0.5 136t0.5 124q-2 -3 -6 -8q-8 -12 -11.5 -16.5t-8 -8.5t-8.5 -4q-11 0 -11 12q0 5 9 19q7 12 18 31t16 27.5t12 18.5t11.5 13.5t9.5 3.5q10 0 10 -15v-334q7 1 28 1z M431 716q4 -1 4 -7q0 -7 -4 -13q-18 -44 -149 -366.5t-135 -336.5q-3 -10 -12 -10q-7 0 -12 5t-5 12q0 6 3 12q23 58 143.5 349t129.5 309q1 3 4.5 11t6 13t6.5 11t8 9t8 3q1 0 2.5 -0.5zM521 120q7 -2 7 -17l-7 -12h-49v-78q28 0 33.5 -1t5.5 -6q0 -6 -6 -6h-17t-21 -0.5 t-21.5 -0.5t-21 0.5t-17.5 1t-12 2t-4 3.5v2q0 4 2.5 5t17.5 0h18v77q-29 0 -77 0.5t-67 0.5q2 4 17.5 30.5t37 62.5t42.5 70.5t38 62t19 30.5q7 12 19 12q14 0 14 -16v-198q0 -6 -0.5 -12.5t-0.5 -8.5q0 -5 5 -5q1 0 6.5 0.5t10.5 0.5h28zM327 118q19 1 51.5 1t50.5 1v169 q-13 -21 -56.5 -93t-45.5 -78z" />
<glyph unicode="&#xbd;" horiz-adv-x="584" d="M523 21v-7v-16q-4 -1 -177 -1q-6 0 -7.5 3t-1.5 15q0 11 13.5 30.5t38 50.5t40.5 58q48 71 48 126q0 18 -5.5 31.5t-16 20.5t-25.5 7q-19 0 -31 -13.5t-16 -29.5t-11 -29t-18 -13q-6 0 -11 5t-5 9q1 16 6.5 30t15 28.5t28 23t41.5 8.5q47 0 70.5 -25t23.5 -64 q0 -31 -20 -70.5t-43.5 -68.5t-49.5 -59.5t-31 -36.5h127q8 0 12 -2t4.5 -4t0.5 -7zM186 359q9 0 9 -8t-5 -8q-8 0 -26.5 -0.5t-31.5 -0.5t-27.5 0.5t-22.5 2.5t-8 6q0 8 13 8h28v260q-1 -2 -3 -5q-7 -13 -10.5 -18t-8.5 -9.5t-10 -4.5q-12 0 -12 12q0 8 10 19q7 12 15.5 26 t13.5 23t10.5 18.5t9.5 14.5t8.5 8.5t8.5 3.5q10 0 10 -15l1 -334q7 1 28 1zM430 716q5 -1 5 -7q0 -8 -6 -13q-274 -680 -280 -703q-4 -10 -14 -10q-4 0 -8 2t-6.5 6.5t-2.5 9.5t3 11q28 68 146 354.5t127 303.5q1 3 3 7.5t3.5 8.5t4 9t5 8.5l5 7t5.5 5t6 1.5q1 0 2.5 -0.5z " />
<glyph unicode="&#xbe;" horiz-adv-x="569" d="M519 120q9 -2 9 -17q0 -4 -2 -7t-5 -4l-2 -1h-48v-78q30 0 35 -1t5 -6q0 -6 -5 -6q-9 0 -27.5 -0.5t-31.5 -0.5t-27 0.5t-21.5 2t-7.5 4.5q0 2 0.5 3t1.5 2t2 1.5t3 1t4 0.5h5t6 -0.5t7.5 -0.5h7.5v77q-28 0 -75.5 0.5t-66.5 0.5q4 11 73.5 126t79.5 130q10 12 20 12 q12 0 12 -16v-198q0 -6 -0.5 -12.5t-0.5 -8.5q0 -5 5 -5q1 0 2.5 0.5t3 0.5h3h3.5h5h27zM328 118q18 1 50.5 1t49.5 1v169q-4 -8 -29 -50t-47.5 -79.5t-23.5 -41.5zM239 445q-1 -10 -2.5 -21t-8 -29t-16 -31t-28.5 -22.5t-43 -9.5q-31 0 -59 16t-30 38q-1 8 -1 28 q0 3 4.5 6.5t9.5 3.5q7 0 11.5 -12.5t7 -28t15.5 -28t36 -12.5q58 0 58 99q0 30 -10.5 49.5t-25.5 26t-29.5 8.5t-25 1.5t-10.5 1.5q0 7 13 13q1 1 8.5 2t17.5 4.5t19.5 11t16 25.5t6.5 44q0 27 -11.5 44.5t-25.5 17.5q-24 0 -36 -13t-13.5 -28.5t-5 -28.5t-11.5 -13 q-5 0 -10 5t-5 10q0 8 4 20t12 26.5t25 25t40 10.5q30 0 52 -20.5t22 -54.5q0 -13 -2 -25t-5 -20.5t-7 -15.5t-7 -11t-5.5 -7.5l-2.5 -3.5l5.5 -3.5t11.5 -7.5t13.5 -12.5t13.5 -18.5t10 -26t4 -34zM441 716q4 -1 4 -7q0 -9 -4 -13q-6 -15 -51.5 -127t-95.5 -235.5 t-92.5 -228.5t-45.5 -112q-4 -10 -13 -10q-7 0 -11 4.5t-4 12.5q0 6 3 12q23 60 144 350t130 308q1 3 7.5 17.5t12 22t12.5 7.5l1.5 -0.5t2.5 -0.5z" />
<glyph unicode="&#xbf;" horiz-adv-x="316" d="M269 -70q7 13 22 13q16 0 20.5 -9.5t4.5 -28.5q0 -28 -7.5 -56t-24 -55t-48.5 -43.5t-76 -16.5q-81 2 -120.5 43t-39.5 115q0 69 37 116q58 76 92 147t34 150q0 13 -1.5 27t-3 23l-1.5 9q0 13 13 13q3 0 5.5 -1t4 -3.5t3 -5.5t2 -7t1 -7.5t0.5 -8v-8v-8v-6.5 q0 -150 -110 -316q-23 -34 -23 -86q0 -28 7 -54.5t21.5 -50.5t40.5 -39t61 -15q28 0 48 12t30 33t10 49q0 12 -1 35.5t-1 39.5zM197 486q0 -16 -9.5 -26.5t-23.5 -10.5q-13 0 -23 9.5t-10 22.5t11 23.5t24 10.5q7 0 12.5 -2.5t9.5 -6.5t6.5 -9t2.5 -11z" />
<glyph unicode="&#xc0;" d="M514 16q0 -2 -1 -5t-3 -4.5t-4.5 -3t-4.5 -1.5h1h-3h-29h-82h-16q-6 0 -11 4.5t-5 9.5q0 4 2.5 7t6 5t6.5 2h34q-42 135 -61 215q-1 1 -1 2h-190q-4 -2 -31.5 -97.5t-31.5 -119.5q10 -2 19 -0.5t15 -1.5t6 -12q0 -5 -3.5 -9.5t-7.5 -4.5h-3h-23h-67h-15q-11 0 -11 14 t11 14h17q31 0 32 2q2 1 22 69t47.5 166.5t55 196t48 171.5t21.5 79q1 4 5.5 7t6.5 3q4 0 8.5 -4.5t4.5 -9.5q2 -7 90.5 -334t92.5 -346h3h37q5 0 8.5 -4t3.5 -10zM246 607q-62 -223 -89 -331q29 0 89.5 0.5t92.5 0.5q-88 322 -90 330h-3zM177 869q9 22 31 22q11 0 25 -19 t24 -42t17 -47l0.5 -1.5t0.5 -2.5q0 -5 -3 -10.5t-8 -5.5q-24 0 -87 106z" />
<glyph unicode="&#xc1;" d="M514 16q0 -2 -1 -5t-3 -4.5t-4.5 -3t-4.5 -1.5h1h-3h-29h-82h-16q-6 0 -11 4.5t-5 9.5q0 4 2.5 7t6 5t6.5 2h34q-42 135 -61 215q-1 1 -1 2h-190q-4 -2 -31.5 -97.5t-31.5 -119.5q10 -2 19 -0.5t15 -1.5t6 -12q0 -5 -3.5 -9.5t-7.5 -4.5h-3h-23h-67h-15q-11 0 -11 14 t11 14h17q31 0 32 2q2 1 22 69t47.5 166.5t55 196t48 171.5t21.5 79q1 4 5.5 7t6.5 3q4 0 8.5 -4.5t4.5 -9.5q2 -7 90.5 -334t92.5 -346h3h37q5 0 8.5 -4t3.5 -10zM246 607q-62 -223 -89 -331q29 0 89.5 0.5t92.5 0.5q-88 322 -90 330h-3zM357 869q-63 -106 -87 -106 q-5 0 -8 5.5t-3 10.5q0 7 5.5 21t12 27t14.5 28.5t11 20.5q6 15 24 15q22 0 31 -22z" />
<glyph unicode="&#xc2;" d="M514 16q0 -2 -1 -5t-3 -4.5t-4.5 -3t-4.5 -1.5h1h-3h-29h-82h-16q-6 0 -11 4.5t-5 9.5q0 4 2.5 7t6 5t6.5 2h34q-42 135 -61 215q-1 1 -1 2h-190q-4 -2 -31.5 -97.5t-31.5 -119.5q10 -2 19 -0.5t15 -1.5t6 -12q0 -5 -3.5 -9.5t-7.5 -4.5h-3h-23h-67h-15q-11 0 -11 14 t11 14h17q31 0 32 2q2 1 22 69t47.5 166.5t55 196t48 171.5t21.5 79q1 4 5.5 7t6.5 3q4 0 8.5 -4.5t4.5 -9.5q2 -7 90.5 -334t92.5 -346h3h37q5 0 8.5 -4t3.5 -10zM246 607q-62 -223 -89 -331q29 0 89.5 0.5t92.5 0.5q-88 322 -90 330h-3zM263 828q-7 -7 -16.5 -23.5 t-18 -27.5t-16.5 -11q-4 0 -10.5 5t-6.5 11q60 97 67 105q4 -4 38 -47t38 -50q2 -4 2 -7q0 -5 -3.5 -9.5t-10.5 -4.5q-6 0 -17.5 11t-25.5 27t-20 21z" />
<glyph unicode="&#xc3;" d="M514 16q0 -2 -1 -5t-3 -4.5t-4.5 -3t-4.5 -1.5h1h-3h-29h-82h-16q-6 0 -11 4.5t-5 9.5q0 4 2.5 7t6 5t6.5 2h34q-42 135 -61 215q-1 1 -1 2h-190q-4 -2 -31.5 -97.5t-31.5 -119.5q10 -2 19 -0.5t15 -1.5t6 -12q0 -5 -3.5 -9.5t-7.5 -4.5h-3h-23h-67h-15q-11 0 -11 14 t11 14h17q31 0 32 2q2 1 22 69t47.5 166.5t55 196t48 171.5t21.5 79q1 4 5.5 7t6.5 3q4 0 8.5 -4.5t4.5 -9.5q2 -7 90.5 -334t92.5 -346h3h37q5 0 8.5 -4t3.5 -10zM246 607q-62 -223 -89 -331q29 0 89.5 0.5t92.5 0.5q-88 322 -90 330h-3zM161 803q20 17 28.5 24t21 12.5 t28.5 5.5q14 0 40.5 -11.5t36.5 -11.5q15 0 52 20q4 -5 4 -10q0 -13 -32.5 -29t-42.5 -16q-15 0 -42 13.5t-39 13.5q-8 0 -23 -7t-21.5 -7t-10.5 3z" />
<glyph unicode="&#xc4;" d="M514 16q0 -2 -1 -5t-3 -4.5t-4.5 -3t-4.5 -1.5h1h-3h-29h-82h-16q-6 0 -11 4.5t-5 9.5q0 4 2.5 7t6 5t6.5 2h34q-42 135 -61 215q-1 1 -1 2h-190q-4 -2 -31.5 -97.5t-31.5 -119.5q10 -2 19 -0.5t15 -1.5t6 -12q0 -5 -3.5 -9.5t-7.5 -4.5h-3h-23h-67h-15q-11 0 -11 14 t11 14h17q31 0 32 2q2 1 22 69t47.5 166.5t55 196t48 171.5t21.5 79q1 4 5.5 7t6.5 3q4 0 8.5 -4.5t4.5 -9.5q2 -7 90.5 -334t92.5 -346h3h37q5 0 8.5 -4t3.5 -10zM246 607q-62 -223 -89 -331q29 0 89.5 0.5t92.5 0.5q-88 322 -90 330h-3zM348 780q-8 0 -16 4.5t-14 12.5 t-6 17q0 12 8.5 22.5t22 16.5t27.5 6q10 0 22 -12.5t12 -19.5q0 -14 -20.5 -30t-35.5 -17zM167 796q-16 9 -16 29q0 11 4.5 17.5t9.5 8.5t13.5 3.5t10.5 2.5q37 -2 37 -31q0 -14 -14 -25t-28 -11q-9 0 -17 6z" />
<glyph unicode="&#xc5;" d="M514 16q0 -2 -1 -5t-3 -4.5t-4.5 -3t-4.5 -1.5h1h-3h-29h-82h-16q-6 0 -11 4.5t-5 9.5q0 4 2.5 7t6 5t6.5 2h34q-42 135 -61 215q-1 1 -1 2h-190q-4 -2 -31.5 -97.5t-31.5 -119.5q10 -2 19 -0.5t15 -1.5t6 -12q0 -5 -3.5 -9.5t-7.5 -4.5h-3h-23h-67h-15q-11 0 -11 14 t11 14h17q31 0 32 2q2 1 22 69t47.5 166.5t55 196t48 171.5t21.5 79q1 4 5.5 7t6.5 3q4 0 8.5 -4.5t4.5 -9.5q2 -7 90.5 -334t92.5 -346h3h37q5 0 8.5 -4t3.5 -10zM246 607q-62 -223 -89 -331q29 0 89.5 0.5t92.5 0.5q-88 322 -90 330h-3zM196 839q1 35 22.5 54.5t51.5 19.5 q29 0 49 -19.5t20 -54.5q0 -32 -22.5 -51.5t-52.5 -19.5q-29 0 -48 19t-20 52zM311 840q0 12 -4 22.5t-14.5 19t-25.5 8.5q-21 0 -32.5 -15.5t-11.5 -34t11.5 -34.5t33 -16t32.5 16t11 34z" />
<glyph unicode="&#xc6;" horiz-adv-x="666" d="M577 92q3 16 7.5 20.5t19.5 4.5q3 0 6 -8t5.5 -22t4 -27t3 -28.5t1.5 -20.5q-5 -12 -26 -12q-312 0 -310 1q-15 0 -15 13q0 3 0.5 5.5t1.5 4t2.5 2.5t3.5 1.5l4 1t5.5 0.5h6h7h7.5v313h-155l-93 -312h41q12 0 12 -14.5t-12 -14.5l-128 1v-1l-4 1h1q-14 0 -14 13 q0 6 4 10.5t10 4.5h58l39 124.5t90.5 289t75.5 242.5q-26 0 -32.5 2t-6.5 12q0 5 4.5 9.5t10.5 4.5h1q374 0 384 1q24 0 28 -12q-2 -21 -6.5 -56t-5.5 -49h-9q-19 0 -24.5 22t-2.5 42t-5 25q-153 -1 -203 -1v-317h142q0 4 0.5 9t0.5 8t1 6.5t3 5.5t5.5 3.5t9.5 1.5 q7 0 11.5 -3t7 -6t3.5 -10t1 -10.5v-11v-9.5q0 -23 -5.5 -29.5t-18.5 -6.5q-11 0 -14.5 4t-2 9t-3 9.5t-18.5 4.5t-43 -0.5t-43 -0.5q-26 0 -37 1q0 -19 -0.5 -164t-0.5 -151l203 1q2 0 3 10t2 28t1 25zM311 368v317h-50q-11 -38 -46.5 -151t-51.5 -166h148z" />
<glyph unicode="&#xc7;" horiz-adv-x="433" d="M201 -69l25 56q-39 1 -65 14.5t-44.5 48.5t-26.5 96t-8 156q0 46 1.5 110.5t4 122.5t5.5 76q5 37 21.5 61.5t48 38.5t79.5 14q137 0 140 -136v-2.5t-1 -5t-3 -6t-6.5 -4.5t-10.5 -2q-8 0 -12.5 7.5t-7 19.5t-4.5 26.5t-8 29t-15.5 26.5t-29 19.5t-45.5 7.5 q-90 -3 -99 -105l-9 -314q0 -3 -0.5 -12.5t-0.5 -17.5q0 -36 3 -69.5t12 -75t30.5 -66.5t52.5 -25q34 0 64.5 23.5t32.5 55.5q1 7 1 23.5t0.5 25.5t3 20t7.5 16.5t13 5.5q26 0 26 -41q0 -19 -3.5 -38t-12.5 -40t-22.5 -38t-36.5 -29.5t-51 -15.5l-22 -47q26 0 45 -18t19 -47 q0 -26 -21 -43t-53 -17q-20 0 -38 11.5t-18 23.5q0 9 16 17q16 -28 43 -28q16 0 27.5 11.5t11.5 26.5q0 18 -10.5 27.5t-29.5 9.5q-10 0 -15 -1q-6 6 -6 12q0 1 2 5z" />
<glyph unicode="&#xc8;" horiz-adv-x="454" d="M369 93q2 16 6.5 20.5t19.5 4.5q5 0 9 -19t6.5 -50t3.5 -37q-6 -13 -26 -13q-2 0 -20.5 2t-19.5 2q-76 -4 -165 -4q-119 0 -126 3q-5 2 -5 13q0 4 1.5 6.5t4 4t5.5 2.5t8.5 1h9.5h11h11v655h-15.5h-15t-10.5 1t-8 4.5t-2 9.5t4 10t10 4h2q36 1 123 1l165 -1q12 1 35 1 q18 0 23 -12q0 -4 -3.5 -38.5t-7 -51.5t-9.5 -17q-14 0 -19 4.5t-6 19.5q0 8 -1 22.5t-0.5 18t-2 12t-4 9t-7 4.5t-10.5 3t-17 0t-23 0t-30.5 -1.5t-38.5 -0.5q-42 0 -75 -2v-255h143q0 12 0.5 16.5t4 9.5t11.5 5q9 0 14.5 -3t8 -5t4 -11t1.5 -11v-14q0 -17 -2.5 -25.5 t-6.5 -11t-12 -2.5q-14 0 -17.5 3t-3 13t-2.5 17q-16 1 -52 1h-58h-33q0 -30 -1 -87.5t-1 -99.5q0 -183 3 -196q15 0 59.5 -0.5t67.5 -0.5q76 0 77 3q1 9 1.5 20t1.5 22.5t1 20.5zM168 869q9 22 31 22q16 0 34.5 -34t31.5 -74l0.5 -1.5t0.5 -2.5q0 -16 -11 -16 q-24 0 -87 106z" />
<glyph unicode="&#xc9;" horiz-adv-x="454" d="M369 93q2 16 6.5 20.5t19.5 4.5q5 0 9 -19t6.5 -50t3.5 -37q-6 -13 -26 -13q-2 0 -20.5 2t-19.5 2q-76 -4 -165 -4q-119 0 -126 3q-5 2 -5 13q0 4 1.5 6.5t4 4t5.5 2.5t8.5 1h9.5h11h11v655h-15.5h-15t-10.5 1t-8 4.5t-2 9.5t4 10t10 4h2q36 1 123 1l165 -1q12 1 35 1 q18 0 23 -12q0 -4 -3.5 -38.5t-7 -51.5t-9.5 -17q-14 0 -19 4.5t-6 19.5q0 8 -1 22.5t-0.5 18t-2 12t-4 9t-7 4.5t-10.5 3t-17 0t-23 0t-30.5 -1.5t-38.5 -0.5q-42 0 -75 -2v-255h143q0 12 0.5 16.5t4 9.5t11.5 5q9 0 14.5 -3t8 -5t4 -11t1.5 -11v-14q0 -17 -2.5 -25.5 t-6.5 -11t-12 -2.5q-14 0 -17.5 3t-3 13t-2.5 17q-16 1 -52 1h-58h-33q0 -30 -1 -87.5t-1 -99.5q0 -183 3 -196q15 0 59.5 -0.5t67.5 -0.5q76 0 77 3q1 9 1.5 20t1.5 22.5t1 20.5zM338 869q-63 -106 -87 -106q-5 0 -8 5.5t-3 10.5q0 9 7.5 27t20.5 42.5t15 27.5q6 15 24 15 q22 0 31 -22z" />
<glyph unicode="&#xca;" horiz-adv-x="454" d="M369 93q2 16 6.5 20.5t19.5 4.5q5 0 9 -19t6.5 -50t3.5 -37q-6 -13 -26 -13q-2 0 -20.5 2t-19.5 2q-76 -4 -165 -4q-119 0 -126 3q-5 2 -5 13q0 4 1.5 6.5t4 4t5.5 2.5t8.5 1h9.5h11h11v655h-15.5h-15t-10.5 1t-8 4.5t-2 9.5t4 10t10 4h2q36 1 123 1l165 -1q12 1 35 1 q18 0 23 -12q0 -4 -3.5 -38.5t-7 -51.5t-9.5 -17q-14 0 -19 4.5t-6 19.5q0 8 -1 22.5t-0.5 18t-2 12t-4 9t-7 4.5t-10.5 3t-17 0t-23 0t-30.5 -1.5t-38.5 -0.5q-42 0 -75 -2v-255h143q0 12 0.5 16.5t4 9.5t11.5 5q9 0 14.5 -3t8 -5t4 -11t1.5 -11v-14q0 -17 -2.5 -25.5 t-6.5 -11t-12 -2.5q-14 0 -17.5 3t-3 13t-2.5 17q-16 1 -52 1h-58h-33q0 -30 -1 -87.5t-1 -99.5q0 -183 3 -196q15 0 59.5 -0.5t67.5 -0.5q76 0 77 3q1 9 1.5 20t1.5 22.5t1 20.5zM244 828q-8 -7 -17.5 -23.5t-17.5 -27.5t-16 -11q-4 0 -11 5t-7 11q61 97 68 105 q4 -4 37.5 -47t37.5 -50q2 -4 2 -7q0 -5 -3.5 -9.5t-9.5 -4.5q-7 0 -18.5 11t-25 27t-19.5 21z" />
<glyph unicode="&#xcb;" horiz-adv-x="454" d="M369 93q2 16 6.5 20.5t19.5 4.5q5 0 9 -19t6.5 -50t3.5 -37q-6 -13 -26 -13q-2 0 -20.5 2t-19.5 2q-76 -4 -165 -4q-119 0 -126 3q-5 2 -5 13q0 4 1.5 6.5t4 4t5.5 2.5t8.5 1h9.5h11h11v655h-15.5h-15t-10.5 1t-8 4.5t-2 9.5t4 10t10 4h2q36 1 123 1l165 -1q12 1 35 1 q18 0 23 -12q0 -4 -3.5 -38.5t-7 -51.5t-9.5 -17q-14 0 -19 4.5t-6 19.5q0 8 -1 22.5t-0.5 18t-2 12t-4 9t-7 4.5t-10.5 3t-17 0t-23 0t-30.5 -1.5t-38.5 -0.5q-42 0 -75 -2v-255h143q0 12 0.5 16.5t4 9.5t11.5 5q9 0 14.5 -3t8 -5t4 -11t1.5 -11v-14q0 -17 -2.5 -25.5 t-6.5 -11t-12 -2.5q-14 0 -17.5 3t-3 13t-2.5 17q-16 1 -52 1h-58h-33q0 -30 -1 -87.5t-1 -99.5q0 -183 3 -196q15 0 59.5 -0.5t67.5 -0.5q76 0 77 3q1 9 1.5 20t1.5 22.5t1 20.5zM318 770q-7 0 -15.5 4.5t-14 12.5t-5.5 17q0 7 3 14t9 12.5t13 9.5t15.5 6.5t17.5 2.5 q10 0 21.5 -12.5t11.5 -19.5q0 -14 -20 -30t-36 -17zM138 785q-17 9 -17 30q0 11 5 17.5t10 8.5t13 3.5t10 2.5q38 -2 38 -31q0 -14 -14.5 -25t-28.5 -11q-9 0 -16 5z" />
<glyph unicode="&#xcc;" horiz-adv-x="260" d="M196 28q5 0 9 -4t4 -9.5t-4 -10t-9 -4.5v0h-3h-28h-84h-17q-5 0 -8.5 4t-3.5 9q0 15 12 15h29h1h6q1 28 1 206v119.5t-0.5 121t-0.5 103v76v28.5h-6h-1h-29q-12 0 -12 15t12 15h17q14 0 44 -0.5t40 -0.5v1h28h3v-1q13 0 13 -14q0 -6 -4 -10.5t-9 -4.5h-31h-6v-654h6h31z M51 869q9 22 31 22q16 0 34.5 -34t31.5 -74l0.5 -1.5t0.5 -2.5q0 -3 -1.5 -6.5t-4 -6.5t-5.5 -3q-24 0 -87 106z" />
<glyph unicode="&#xcd;" horiz-adv-x="260" d="M195 28q5 0 9 -4t4 -9.5t-4 -10t-9 -4.5v0h-3h-28h-84h-17q-5 0 -8.5 4t-3.5 9q0 15 12 15h29h1h6q1 28 1 206v119.5t-0.5 121t-0.5 103v76v28.5h-6h-1h-29q-12 0 -12 15t12 15h17q14 0 44 -0.5t40 -0.5v1h28h3v-1q13 0 13 -14q0 -6 -4 -10.5t-9 -4.5h-31h-6v-654h6h31z M219 869q-63 -106 -86 -106q-5 0 -8.5 5.5t-3.5 10.5q0 9 8 27t21 42.5t14 27.5q6 15 25 15q21 0 30 -22z" />
<glyph unicode="&#xce;" horiz-adv-x="259" d="M195 28q5 0 9 -4t4 -9.5t-4 -10t-9 -4.5v0h-3h-28h-84h-17q-5 0 -8.5 4t-3.5 9q0 15 12 15h29h1h6q1 28 1 206v119.5t-0.5 121t-0.5 103v76v28.5h-6h-1h-29q-12 0 -12 15t12 15h17q14 0 44 -0.5t40 -0.5v1h28h3v-1q13 0 13 -14q0 -6 -4 -10.5t-9 -4.5h-31h-6v-654h6h31z M125 828q-7 -7 -16.5 -23.5t-18 -27.5t-16.5 -11q-2 0 -6 2t-7.5 6t-3.5 8q60 97 67 105q4 -4 38 -47t38 -50q2 -4 2 -7q0 -5 -3.5 -9.5t-9.5 -4.5q-7 0 -18.5 11t-25.5 27t-20 21z" />
<glyph unicode="&#xcf;" horiz-adv-x="252" d="M192 28q5 0 9 -4t4 -9.5t-4 -10t-9 -4.5v0h-3h-28h-85h-16q-5 0 -8.5 4t-3.5 9q0 15 12 15h29h1h6q1 28 1 206v119.5t-0.5 121t-0.5 103v76v28.5h-6h-1h-29q-12 0 -12 15t12 15h16q15 0 45 -0.5t40 -0.5v1h28h3v-1q13 0 13 -14q0 -6 -4 -10.5t-9 -4.5h-31h-6v-654h6h31z M197 770q-6 0 -12 3t-11.5 7t-9 10.5t-3.5 13.5q0 18 18 31.5t40 13.5q10 0 22 -12.5t12 -19.5q0 -10 -10 -21t-23 -18t-23 -8zM16 785q-16 9 -16 30q0 11 4.5 17.5t9.5 8.5t13.5 3.5t10.5 2.5q37 -2 37 -31q0 -14 -14 -25t-28 -11q-9 0 -17 5z" />
<glyph unicode="&#xd0;" d="M463 365q0 -123 -19.5 -202t-53 -114t-84.5 -42q-72 -9 -128 -9h-88h-16q-6 0 -10.5 4t-4.5 9q0 6 4.5 10.5t10.5 4.5h28h8v45q0 26 -0.5 79.5t-0.5 80.5q0 11 0.5 32.5t0.5 32.5v43q-62 0 -66 3q-2 2 -2 12q0 4 4.5 7.5t9.5 3.5h54v188v129h-8h-28q-6 0 -10.5 4 t-4.5 9.5t4.5 10t10.5 4.5h16h84q90 0 150 -15q18 -5 34.5 -16t36 -35.5t33.5 -59.5t24 -91.5t11 -127.5zM377 120q28 74 28 209q0 9 -1.5 36.5t-4.5 72.5t-10 89.5t-17 68.5q-14 29 -29 47t-43 30.5t-66 12.5l-66 -4q0 -34 -0.5 -89t-0.5 -99q0 -80 1 -129h44q6 0 10 -3 t4 -8q0 -11 -6 -12.5t-52 -1.5v-293q0 -2 -1.5 -7.5t-0.5 -8t9 -5.5t26 -3t35 2t39.5 8t40.5 16.5t35 28.5t26 42z" />
<glyph unicode="&#xd1;" horiz-adv-x="651" d="M585 718q7 0 11.5 -4.5t4.5 -10.5q0 -5 -4.5 -10t-11.5 -5h-52q0 -9 3 -159.5t3 -366.5v-27.5v-27v-24.5t-0.5 -23.5t-1 -19.5t-1.5 -16.5t-2 -12.5t-3 -8.5t-5 -2.5q-3 4 -89.5 142.5t-177.5 280.5t-121 183q0 -30 6 -568q0 -1 -0.5 -4.5t-0.5 -5.5h54q5 0 9 -4t4 -10 q0 -3 -1.5 -6.5t-5 -5.5t-6.5 -2h1h-3h-29h-83h-17q-6 0 -10.5 4.5t-4.5 10t4.5 9.5t10.5 4h51v270q0 5 -3 119t-3 181q0 106 9 117q2 3 4 3q1 0 89 -140.5t176.5 -279t119.5 -180.5q1 4 1 84v76.5t-0.5 89t-1 91.5t-0.5 87.5t-0.5 72t-0.5 50.5v19h-50q-6 0 -10.5 5 t-4.5 10q0 4 2 7.5t5 5.5t7 2h-1h3h28h83h16zM220 782q20 18 28.5 24.5t21.5 12t28 5.5q14 0 40.5 -11t36.5 -11q15 0 52 19q4 -4 4 -9q0 -13 -32.5 -29t-42.5 -16q-15 0 -41.5 13.5t-39.5 13.5q-8 0 -23 -7.5t-21.5 -7.5t-10.5 3z" />
<glyph unicode="&#xd2;" horiz-adv-x="517" d="M83 300q2 25 2.5 54t0.5 67t1 54q0 57 14 102t34 72.5t46 45.5t49 25t43 7q45 0 84.5 -26.5t51.5 -67.5q27 -89 27 -267q0 -78 -15 -164q-6 -37 -13 -64t-21.5 -57.5t-34 -49t-51 -31t-71.5 -12.5q-32 0 -56 9t-39 25.5t-26 38.5t-16 47.5t-8 53.5t-2.5 55.5t-0.5 54.5 q1 6 1 9.5v9v9.5zM370 432v4q0 41 -12 164q-3 35 -29.5 64t-63.5 29q-21 0 -38 -7.5t-29 -21t-20.5 -30.5t-14 -39.5t-8.5 -43.5t-4.5 -47.5t-2 -47t-1 -45.5t-1.5 -41q-3 -44 -3 -154q0 -67 7 -135q5 -29 35 -46.5t59 -17.5q40 0 70.5 20t40.5 61q17 71 17 241q0 67 -2 93z M180 879q8 23 30 23q11 0 25 -19.5t24 -42.5t17 -46q0 -1 0.5 -2.5t0.5 -2.5q0 -5 -3 -10.5t-8 -5.5q-23 0 -86 106z" />
<glyph unicode="&#xd3;" horiz-adv-x="517" d="M83 300q2 25 2.5 54t0.5 67t1 54q0 57 14 102t34 72.5t46 45.5t49 25t43 7q45 0 84.5 -26.5t51.5 -67.5q27 -89 27 -267q0 -78 -15 -164q-6 -37 -13 -64t-21.5 -57.5t-34 -49t-51 -31t-71.5 -12.5q-32 0 -56 9t-39 25.5t-26 38.5t-16 47.5t-8 53.5t-2.5 55.5t-0.5 54.5 q1 6 1 9.5v9v9.5zM370 432v4q0 41 -12 164q-3 35 -29.5 64t-63.5 29q-21 0 -38 -7.5t-29 -21t-20.5 -30.5t-14 -39.5t-8.5 -43.5t-4.5 -47.5t-2 -47t-1 -45.5t-1.5 -41q-3 -44 -3 -154q0 -67 7 -135q5 -29 35 -46.5t59 -17.5q40 0 70.5 20t40.5 61q17 71 17 241q0 67 -2 93z M349 879q-63 -106 -87 -106q-3 0 -6 3t-4 6.5t-1 6.5q0 8 5.5 22t12 26.5t14.5 28t11 20.5q6 16 24 16q22 0 31 -23z" />
<glyph unicode="&#xd4;" horiz-adv-x="517" d="M83 300q2 25 2.5 54t0.5 67t1 54q0 57 14 102t34 72.5t46 45.5t49 25t43 7q45 0 84.5 -26.5t51.5 -67.5q27 -89 27 -267q0 -78 -15 -164q-6 -37 -13 -64t-21.5 -57.5t-34 -49t-51 -31t-71.5 -12.5q-32 0 -56 9t-39 25.5t-26 38.5t-16 47.5t-8 53.5t-2.5 55.5t-0.5 54.5 q1 6 1 9.5v9v9.5zM370 432v4q0 41 -12 164q-3 35 -29.5 64t-63.5 29q-21 0 -38 -7.5t-29 -21t-20.5 -30.5t-14 -39.5t-8.5 -43.5t-4.5 -47.5t-2 -47t-1 -45.5t-1.5 -41q-3 -44 -3 -154q0 -67 7 -135q5 -29 35 -46.5t59 -17.5q40 0 70.5 20t40.5 61q17 71 17 241q0 67 -2 93z M255 838q-7 -7 -17 -23.5t-18 -27.5t-16 -11q-4 0 -10.5 5t-6.5 12q60 96 67 105q2 -3 20 -25.5t35.5 -45t19.5 -26.5q3 -4 3 -7t-1 -5.5t-2.5 -4.5t-4 -3.5t-6.5 -1.5q-7 0 -18.5 11t-25 27t-19.5 21z" />
<glyph unicode="&#xd5;" horiz-adv-x="517" d="M83 300q2 25 2.5 54t0.5 67t1 54q0 57 14 102t34 72.5t46 45.5t49 25t43 7q45 0 84.5 -26.5t51.5 -67.5q27 -89 27 -267q0 -78 -15 -164q-6 -37 -13 -64t-21.5 -57.5t-34 -49t-51 -31t-71.5 -12.5q-32 0 -56 9t-39 25.5t-26 38.5t-16 47.5t-8 53.5t-2.5 55.5t-0.5 54.5 q1 6 1 9.5v9v9.5zM370 432v4q0 41 -12 164q-3 35 -29.5 64t-63.5 29q-21 0 -38 -7.5t-29 -21t-20.5 -30.5t-14 -39.5t-8.5 -43.5t-4.5 -47.5t-2 -47t-1 -45.5t-1.5 -41q-3 -44 -3 -154q0 -67 7 -135q5 -29 35 -46.5t59 -17.5q40 0 70.5 20t40.5 61q17 71 17 241q0 67 -2 93z M164 803q20 17 28.5 24t21 12.5t28.5 5.5q14 0 40.5 -11.5t36.5 -11.5q15 0 52 20q4 -5 4 -10q0 -13 -32.5 -29t-42.5 -16q-15 0 -41.5 13.5t-39.5 13.5q-8 0 -23 -7t-21.5 -7t-10.5 3z" />
<glyph unicode="&#xd6;" horiz-adv-x="517" d="M83 300q2 25 2.5 54t0.5 67t1 54q0 57 14 102t34 72.5t46 45.5t49 25t43 7q45 0 84.5 -26.5t51.5 -67.5q27 -89 27 -267q0 -78 -15 -164q-6 -37 -13 -64t-21.5 -57.5t-34 -49t-51 -31t-71.5 -12.5q-32 0 -56 9t-39 25.5t-26 38.5t-16 47.5t-8 53.5t-2.5 55.5t-0.5 54.5 q1 6 1 9.5v9v9.5zM370 432v4q0 41 -12 164q-3 35 -29.5 64t-63.5 29q-21 0 -38 -7.5t-29 -21t-20.5 -30.5t-14 -39.5t-8.5 -43.5t-4.5 -47.5t-2 -47t-1 -45.5t-1.5 -41q-3 -44 -3 -154q0 -67 7 -135q5 -29 35 -46.5t59 -17.5q40 0 70.5 20t40.5 61q17 71 17 241q0 67 -2 93z M340 780q-13 0 -24.5 10.5t-11.5 23.5q0 12 8.5 22.5t22 16.5t27.5 6q10 0 22 -12.5t12 -19.5q0 -9 -10 -20.5t-23.5 -18.5t-22.5 -8zM159 796q-16 9 -16 29q0 11 4.5 17.5t9.5 8.5t13.5 3.5t10.5 2.5q37 -2 37 -31q0 -14 -14.5 -25t-28.5 -11q-8 0 -16 6z" />
<glyph unicode="&#xd7;" horiz-adv-x="345" d="M62 402q-7 7 -7 14q0 5 3.5 7.5t7.5 2.5t22 -17.5t51 -53t34 -36.5q20 23 64 68t49.5 45t10 -4t4.5 -9q0 -3 -22.5 -26.5t-51.5 -52.5t-36 -38q4 -4 19 -19.5t29.5 -31t30.5 -32t25.5 -27.5t9.5 -12q0 -5 -5 -9t-9 -4q-2 0 -7.5 5.5t-14.5 14t-19 19t-21.5 23t-21.5 22.5 t-19 20t-14 15q-16 -19 -45.5 -48.5t-52.5 -51.5t-25 -22q-4 0 -7 3.5t-3 8.5t46.5 53.5t71.5 72.5q-9 7 -24.5 23t-29 31t-26.5 29t-17 17z" />
<glyph unicode="&#xd8;" horiz-adv-x="586" d="M510 673q-17 -22 -35 -54q37 -84 37 -265q0 -58 -4.5 -106.5t-11 -83.5t-18.5 -63t-23 -46t-28.5 -31t-31 -19.5t-34.5 -10t-34.5 -4t-35.5 -0.5q-53 0 -90.5 14t-62.5 55q-2 -3 -5 -8q-22 -34 -29.5 -43t-16.5 -9q-16 0 -16 6q0 10 23 37q4 10 26 50q-31 80 -31 247 q0 73 7 132t18 98t28.5 68t35 44.5t41.5 25t42.5 12t44.5 3.5q53 0 90.5 -16t63.5 -54q5 9 11 19t12 18.5t11.5 14t8.5 5.5q6 0 9 -5.5t3 -10.5q0 -15 -5 -20zM155 353q0 -11 -1 -42t-1 -50q0 -54 7 -100q55 93 259 430q-28 97 -116 97q-9 0 -18.5 -1.5t-25 -9.5t-28.5 -21 t-27.5 -38.5t-25 -60t-17 -87t-6.5 -117.5zM439 352q0 113 -10 193q-132 -214 -259 -430q13 -45 43 -72t78 -27q20 0 34 2t30.5 9.5t27.5 21t22.5 38t18 60t11 87t4.5 118.5z" />
<glyph unicode="&#xd9;" horiz-adv-x="534" d="M470 714q6 0 9.5 -4.5t3.5 -10.5q0 -15 -13 -15h-29h-1h-23v-37t0.5 -94.5t0.5 -121v-129v-107.5v-71q0 -13 -2.5 -27t-11.5 -34t-23 -35t-41.5 -25.5t-64.5 -10.5q-85 0 -127 40.5t-46 101.5q-3 20 -3.5 35.5t-0.5 28t0.5 50t0.5 77.5v93.5v96.5t0.5 83t0.5 62v24h-7 h-30q-12 0 -12 15q0 4 1.5 7.5t4.5 5.5t6 2h19h84h26h3h-1q12 0 12 -15t-12 -15h-28h-1h-6v-504q0 -138 89 -159q13 -3 28 -3q34 0 65.5 14.5t39.5 40.5q3 12 5 25t3 27t1.5 25t1 26t1.5 23v485h-24h-29q-14 0 -14 15q0 6 4 10.5t10 4.5h17h84h28h2h-1zM188 869q9 22 30 22 q17 0 35.5 -34t31.5 -74l0.5 -1.5t0.5 -2.5q0 -16 -12 -16q-23 0 -86 106z" />
<glyph unicode="&#xda;" horiz-adv-x="534" d="M470 714q6 0 9.5 -4.5t3.5 -10.5q0 -15 -13 -15h-29h-1h-23v-37t0.5 -94.5t0.5 -121v-129v-107.5v-71q0 -13 -2.5 -27t-11.5 -34t-23 -35t-41.5 -25.5t-64.5 -10.5q-85 0 -127 40.5t-46 101.5q-3 20 -3.5 35.5t-0.5 28t0.5 50t0.5 77.5v93.5v96.5t0.5 83t0.5 62v24h-7 h-30q-12 0 -12 15q0 4 1.5 7.5t4.5 5.5t6 2h19h84h26h3h-1q12 0 12 -15t-12 -15h-28h-1h-6v-504q0 -138 89 -159q13 -3 28 -3q34 0 65.5 14.5t39.5 40.5q3 12 5 25t3 27t1.5 25t1 26t1.5 23v485h-24h-29q-14 0 -14 15q0 6 4 10.5t10 4.5h17h84h28h2h-1zM357 869 q-63 -106 -87 -106q-5 0 -8 5.5t-3 10.5q0 7 5.5 21t12 27t14.5 28.5t11 20.5q6 15 24 15q22 0 31 -22z" />
<glyph unicode="&#xdb;" horiz-adv-x="534" d="M470 714q6 0 9.5 -4.5t3.5 -10.5q0 -15 -13 -15h-29h-1h-23v-37t0.5 -94.5t0.5 -121v-129v-107.5v-71q0 -13 -2.5 -27t-11.5 -34t-23 -35t-41.5 -25.5t-64.5 -10.5q-85 0 -127 40.5t-46 101.5q-3 20 -3.5 35.5t-0.5 28t0.5 50t0.5 77.5v93.5v96.5t0.5 83t0.5 62v24h-7 h-30q-12 0 -12 15q0 4 1.5 7.5t4.5 5.5t6 2h19h84h26h3h-1q12 0 12 -15t-12 -15h-28h-1h-6v-504q0 -138 89 -159q13 -3 28 -3q34 0 65.5 14.5t39.5 40.5q3 12 5 25t3 27t1.5 25t1 26t1.5 23v485h-24h-29q-14 0 -14 15q0 6 4 10.5t10 4.5h17h84h28h2h-1zM263 828 q-7 -7 -16.5 -23.5t-18 -27.5t-16.5 -11q-4 0 -10.5 5t-6.5 11q60 97 67 105q4 -4 38 -47t38 -50q2 -4 2 -7q0 -5 -3.5 -9.5t-10.5 -4.5q-6 0 -17.5 11t-25.5 27t-20 21z" />
<glyph unicode="&#xdc;" horiz-adv-x="534" d="M470 714q6 0 9.5 -4.5t3.5 -10.5q0 -15 -13 -15h-29h-1h-23v-37t0.5 -94.5t0.5 -121v-129v-107.5v-71q0 -13 -2.5 -27t-11.5 -34t-23 -35t-41.5 -25.5t-64.5 -10.5q-85 0 -127 40.5t-46 101.5q-3 20 -3.5 35.5t-0.5 28t0.5 50t0.5 77.5v93.5v96.5t0.5 83t0.5 62v24h-7 h-30q-12 0 -12 15q0 4 1.5 7.5t4.5 5.5t6 2h19h84h26h3h-1q12 0 12 -15t-12 -15h-28h-1h-6v-504q0 -138 89 -159q13 -3 28 -3q34 0 65.5 14.5t39.5 40.5q3 12 5 25t3 27t1.5 25t1 26t1.5 23v485h-24h-29q-14 0 -14 15q0 6 4 10.5t10 4.5h17h84h28h2h-1zM348 770 q-12 0 -24 10.5t-12 23.5q0 7 3.5 14t9 12.5t13 9.5t16 6.5t16.5 2.5q10 0 22 -12.5t12 -19.5q0 -14 -20.5 -30t-35.5 -17zM167 785q-16 9 -16 30q0 11 4.5 17.5t9.5 8.5t13.5 3.5t10.5 2.5q37 -2 37 -31q0 -14 -14 -25t-28 -11q-9 0 -17 5z" />
<glyph unicode="&#xdd;" horiz-adv-x="523" d="M511 713q5 0 8.5 -3.5t3.5 -8.5q0 -15 -12 -15h-30h-5q0 -2 -30 -70t-78 -168.5t-84 -168.5v-249h6h30q5 0 9 -4t4 -10q0 -12 -15 -12h-28h-85h-16q-4 0 -8 4t-4 8q0 3 1.5 5.5t3 4t3.5 3t4 1.5h29h1h7v64q0 108 -1 161q-20 47 -45 106t-48.5 114.5t-43 103.5t-31.5 77 t-12 30h-6h-1h-25q-5 0 -9 4.5t-4 10.5q0 3 2 5.5t5 4.5t6 2h13h85h28h3h-1q5 0 9 -4t4 -8q0 -6 -4 -10.5t-9 -4.5h-25q0 -1 24 -60.5t61 -149.5t66 -159q34 65 77 156t70.5 151.5t27.5 61.5h-62q-5 0 -9 4.5t-4 10.5q0 4 4 8t9 4h-1h3h27h85h17zM361 869q-63 -106 -87 -106 q-5 0 -8 5.5t-3 10.5q0 7 5.5 21t12 27t15 28.5t10.5 20.5q6 15 24 15q22 0 31 -22z" />
<glyph unicode="&#xde;" horiz-adv-x="459" d="M239 575q17 0 33.5 -3t41 -16t41.5 -34.5t30 -63.5t13 -99q0 -30 -4 -55t-10 -43.5t-17.5 -34t-21.5 -25.5t-26.5 -18t-28 -12t-32 -8t-31.5 -5.5t-32 -3.5q-2 0 -6 -1q-10 -1 -14 -1.5t-8 -4t-4.5 -9.5t-0.5 -18q0 -17 1 -50t1 -47h31q14 0 14 -12q0 -11 -25 -12.5 t-64.5 0.5t-55.5 0q-13 0 -13 12q0 5 4 8.5t9 3.5h37q0 14 -0.5 133t-0.5 198q0 36 0.5 97.5t0.5 84.5q0 102 -1 150q-37 0 -43 1.5t-6 10.5q0 6 4 9.5t9 3.5h131q14 0 14 -12q0 -9 -5.5 -11t-30.5 -2h-8v-110q9 -1 28 -1h29h17zM339 373v11q0 43 -15.5 77t-39.5 53 t-50 28.5t-50 9.5q-8 0 -20 -2v-138q0 -24 -0.5 -58t-0.5 -51q0 -16 0.5 -47.5t0.5 -46.5v-5q0 -15 3 -18t20 -3q30 0 54.5 8.5t40 21t27 31.5t17 34.5t8.5 36.5t3.5 30.5t1.5 22.5v5z" />
<glyph unicode="&#xdf;" horiz-adv-x="450" d="M145 0q-11 0 -32 -0.5t-34.5 -0.5t-28.5 0.5t-22.5 3t-7.5 6.5q0 3 1 4.5t3 2.5l4 2t5.5 1.5t7 0.5h8.5h9.5t11.5 -0.5t13 -0.5v179v336q0 188 124 188q45 0 69 -36.5t24 -83.5q0 -29 -8 -59.5t-17.5 -50t-18.5 -36t-9 -17.5t9.5 -2.5t19.5 -3.5t24.5 -9.5t27.5 -18 t26.5 -30t23 -44t16 -62t6.5 -82.5q0 -41 -7 -74t-17.5 -52.5t-25.5 -34t-27 -21t-27 -9.5t-21 -3h-12h-1q-45 0 -73 32.5t-28 80.5q0 17 11 17q10 0 16.5 -16.5t10.5 -36.5t19.5 -37t41.5 -17q13 0 26 7t27 24t22.5 55t8.5 92q0 43 -6.5 78.5t-16 57t-23.5 37t-25 22.5 t-25 11t-19.5 4.5t-12.5 0.5q-12 0 -21.5 -2t-14 -3.5t-5.5 -1.5q-2 0 -2 3q0 1 0.5 6.5t0.5 10.5q45 46 63 101t18 99q0 12 -2 23t-7.5 25.5t-19 23t-32.5 8.5q-18 0 -30 -17t-15.5 -35.5t-3.5 -35.5v-610z" />
<glyph unicode="&#xe0;" horiz-adv-x="434" d="M434 31q0 -2 0.5 -5t0.5 -5q0 -24 -53 -24q-63 0 -94 65q-9 -6 -28.5 -22t-30.5 -23.5t-33.5 -15t-47.5 -7.5q-55 0 -86 30.5t-31 83.5q0 38 22 72t65 79q47 47 177 74q1 11 1 33q0 69 -25 107t-83 38q-24 0 -43.5 -10t-31 -30t-11.5 -46q-3 -20 -8 -28.5t-16 -8.5 q-32 0 -32 17q0 40 27 70t61.5 43t68.5 13q29 0 51 -6.5t37 -17t25.5 -29t16.5 -36.5t9 -46t4 -50t1 -56q0 -27 -3.5 -79.5t-3.5 -78.5q0 -103 73 -103q13 0 21 2zM297 304q-8 2 -23 2q-21 0 -65 -18q-56 -20 -88.5 -64.5t-32.5 -104.5q0 -37 31.5 -64.5t68.5 -27.5 q19 0 44 14.5t42 35t17 34.5q6 133 6 193zM128 685q8 23 30 23q16 0 35 -34.5t31 -73.5q0 -1 0.5 -2.5l0.5 -1.5q0 -6 -3 -11.5t-8 -5.5q-24 0 -86 106z" />
<glyph unicode="&#xe1;" horiz-adv-x="434" d="M434 31q0 -2 0.5 -5t0.5 -5q0 -24 -53 -24q-63 0 -94 65q-9 -6 -28.5 -22t-30.5 -23.5t-33.5 -15t-47.5 -7.5q-55 0 -86 30.5t-31 83.5q0 38 22 72t65 79q47 47 177 74q1 11 1 33q0 69 -25 107t-83 38q-24 0 -43.5 -10t-31 -30t-11.5 -46q-3 -20 -8 -28.5t-16 -8.5 q-32 0 -32 17q0 40 27 70t61.5 43t68.5 13q29 0 51 -6.5t37 -17t25.5 -29t16.5 -36.5t9 -46t4 -50t1 -56q0 -27 -3.5 -79.5t-3.5 -78.5q0 -103 73 -103q13 0 21 2zM297 304q-8 2 -23 2q-21 0 -65 -18q-56 -20 -88.5 -64.5t-32.5 -104.5q0 -37 31.5 -64.5t68.5 -27.5 q19 0 44 14.5t42 35t17 34.5q6 133 6 193zM297 685q-63 -106 -87 -106q-3 0 -6 3t-4 6.5t-1 7.5q0 9 7.5 27t20.5 42t15 28q6 15 24 15q22 0 31 -23z" />
<glyph unicode="&#xe2;" horiz-adv-x="434" d="M434 31q0 -2 0.5 -5t0.5 -5q0 -24 -53 -24q-63 0 -94 65q-9 -6 -28.5 -22t-30.5 -23.5t-33.5 -15t-47.5 -7.5q-55 0 -86 30.5t-31 83.5q0 38 22 72t65 79q47 47 177 74q1 11 1 33q0 69 -25 107t-83 38q-24 0 -43.5 -10t-31 -30t-11.5 -46q-3 -20 -8 -28.5t-16 -8.5 q-32 0 -32 17q0 40 27 70t61.5 43t68.5 13q29 0 51 -6.5t37 -17t25.5 -29t16.5 -36.5t9 -46t4 -50t1 -56q0 -27 -3.5 -79.5t-3.5 -78.5q0 -103 73 -103q13 0 21 2zM297 304q-8 2 -23 2q-21 0 -65 -18q-56 -20 -88.5 -64.5t-32.5 -104.5q0 -37 31.5 -64.5t68.5 -27.5 q19 0 44 14.5t42 35t17 34.5q6 133 6 193zM193 634q-8 -7 -17.5 -23.5t-17.5 -27.5t-16 -11q-4 0 -11 5t-7 12q61 96 68 105q4 -4 37.5 -47.5t37.5 -49.5q2 -4 2 -7q0 -6 -3.5 -10.5t-9.5 -4.5q-7 0 -18.5 11t-25 27t-19.5 21z" />
<glyph unicode="&#xe3;" horiz-adv-x="434" d="M434 31q0 -2 0.5 -5t0.5 -5q0 -24 -53 -24q-63 0 -94 65q-9 -6 -28.5 -22t-30.5 -23.5t-33.5 -15t-47.5 -7.5q-55 0 -86 30.5t-31 83.5q0 38 22 72t65 79q47 47 177 74q1 11 1 33q0 69 -25 107t-83 38q-24 0 -43.5 -10t-31 -30t-11.5 -46q-3 -20 -8 -28.5t-16 -8.5 q-32 0 -32 17q0 40 27 70t61.5 43t68.5 13q29 0 51 -6.5t37 -17t25.5 -29t16.5 -36.5t9 -46t4 -50t1 -56q0 -27 -3.5 -79.5t-3.5 -78.5q0 -103 73 -103q13 0 21 2zM297 304q-8 2 -23 2q-21 0 -65 -18q-56 -20 -88.5 -64.5t-32.5 -104.5q0 -37 31.5 -64.5t68.5 -27.5 q19 0 44 14.5t42 35t17 34.5q6 133 6 193zM101 619q19 18 28 24.5t21.5 12t27.5 5.5t41 -11t37 -11q15 0 52 19q4 -4 4 -9q0 -9 -17.5 -20.5t-35 -18t-22.5 -6.5q-16 0 -42.5 13t-38.5 13q-8 0 -23.5 -7t-21.5 -7t-10 3z" />
<glyph unicode="&#xe4;" horiz-adv-x="434" d="M434 31q0 -2 0.5 -5t0.5 -5q0 -24 -53 -24q-63 0 -94 65q-9 -6 -28.5 -22t-30.5 -23.5t-33.5 -15t-47.5 -7.5q-55 0 -86 30.5t-31 83.5q0 38 22 72t65 79q47 47 177 74q1 11 1 33q0 69 -25 107t-83 38q-24 0 -43.5 -10t-31 -30t-11.5 -46q-3 -20 -8 -28.5t-16 -8.5 q-32 0 -32 17q0 40 27 70t61.5 43t68.5 13q29 0 51 -6.5t37 -17t25.5 -29t16.5 -36.5t9 -46t4 -50t1 -56q0 -27 -3.5 -79.5t-3.5 -78.5q0 -103 73 -103q13 0 21 2zM297 304q-8 2 -23 2q-21 0 -65 -18q-56 -20 -88.5 -64.5t-32.5 -104.5q0 -37 31.5 -64.5t68.5 -27.5 q19 0 44 14.5t42 35t17 34.5q6 133 6 193zM277 586q-7 0 -15.5 4.5t-14 12.5t-5.5 17q0 8 3 15t9 12t13 9.5t15.5 6.5t17.5 2q10 0 22 -12.5t12 -19.5q0 -9 -10 -20t-23.5 -18.5t-23.5 -8.5zM97 602q-16 9 -16 29q0 11 4.5 17.5t9.5 8.5t13 3.5t10 2.5q38 -2 38 -31 q0 -9 -7 -17.5t-17 -13t-18.5 -4.5t-16.5 5z" />
<glyph unicode="&#xe5;" horiz-adv-x="434" d="M434 31q0 -2 0.5 -5t0.5 -5q0 -24 -53 -24q-63 0 -94 65q-9 -6 -28.5 -22t-30.5 -23.5t-33.5 -15t-47.5 -7.5q-55 0 -86 30.5t-31 83.5q0 38 22 72t65 79q47 47 177 74q1 11 1 33q0 69 -25 107t-83 38q-24 0 -43.5 -10t-31 -30t-11.5 -46q-3 -20 -8 -28.5t-16 -8.5 q-32 0 -32 17q0 40 27 70t61.5 43t68.5 13q29 0 51 -6.5t37 -17t25.5 -29t16.5 -36.5t9 -46t4 -50t1 -56q0 -27 -3.5 -79.5t-3.5 -78.5q0 -103 73 -103q13 0 21 2zM297 304q-8 2 -23 2q-21 0 -65 -18q-56 -20 -88.5 -64.5t-32.5 -104.5q0 -37 31.5 -64.5t68.5 -27.5 q19 0 44 14.5t42 35t17 34.5q6 133 6 193zM125 646q1 34 23 53.5t52 19.5q29 0 48.5 -19.5t19.5 -53.5q0 -33 -22.5 -52.5t-51.5 -19.5t-48.5 19t-20.5 53zM241 646.5q0 18.5 -11.5 34.5t-33 16t-32.5 -16t-11 -34.5t11 -34t32.5 -15.5t33 15.5t11.5 34z" />
<glyph unicode="&#xe6;" horiz-adv-x="645" d="M449 530q68 0 101 -50.5t33 -155.5v-3q0 -18 -0.5 -26t-3 -17t-8.5 -12.5t-16 -3.5h-119q-75 0 -79 -2q-3 -101 -3 -106q0 -25 1 -37q1 -13 2 -19.5t6 -23.5t13 -26t24.5 -17.5t39.5 -8.5q13 0 25 3t20.5 7.5t16 11.5t11.5 12.5t8 14t5.5 12.5t3.5 11t2 8q9 26 25 26 q12 0 18 -6t6 -13q0 -8 -7 -22q-72 -97 -165 -97q-45 0 -82 21t-49 46q-3 -3 -11.5 -10t-12.5 -10.5t-12.5 -10t-14 -10t-14 -8t-16 -7t-17 -5.5t-19.5 -4t-21 -1q-53 0 -86.5 30t-33.5 97q0 17 3.5 33.5t11.5 35t23 35.5t36.5 33.5t53.5 31t72 25.5q13 3 34 8.5t32 7.5 q0 3 0.5 11t0.5 13q0 24 -4 47t-13 48.5t-29 42t-48 17.5q-36 0 -65 -17.5t-33 -47.5q-1 -3 -1 -8q-3 -17 -4 -24t-4 -14.5t-6.5 -9.5t-10.5 -2q-31 0 -31 20q0 40 27.5 70t62.5 42.5t68 12.5q50 0 83 -22.5t45 -59.5q38 83 125 83zM287 216v30v54q-96 -12 -152 -67 t-56 -119q0 -32 22 -56.5t59 -24.5q29 0 61 14t43 23q7 6 12 18t7 31t2.5 30.5t1 36.5t0.5 30zM524 280q3 17 3 45q0 30 -4 60.5t-13 59.5t-26 47t-39 18q-16 -1 -29.5 -7t-22 -16.5t-15.5 -21t-10.5 -27t-6 -29t-3 -31.5t-1 -29.5t0 -28t0.5 -23.5q0 -3 0.5 -9t0.5 -10 q114 2 165 2z" />
<glyph unicode="&#xe7;" horiz-adv-x="377" d="M172 -69l26 57q-26 0 -45 7t-37 26.5t-29.5 52t-18.5 86t-7 126.5q0 24 1 43t4.5 44.5t9.5 44.5t17 39t26.5 33t39 21t52.5 8q33 0 74 -10q5 -4 12 -4q2 0 7 0.5t7 0.5q6 0 10 -2q5 -84 5 -106q-5 -22 -22 -22q-5 0 -9 2t-6 6t-3.5 8.5t-2 10.5t-0.5 10.5t0.5 11.5 t0.5 11q0 3 0.5 10.5t0.5 11.5q0 17 -18.5 31.5t-46.5 14.5q-99 0 -99 -176q0 -20 1.5 -49t1.5 -36q0 -2 -0.5 -14.5t-0.5 -22.5q0 -192 77 -197q30 4 49 26t24 45t7 47t3 25q6 -2 11 -2q3 0 10 1t10 1q5 0 7 -1q0 -19 -3 -39.5t-12 -48t-30.5 -48t-53.5 -25.5l-22 -49 q26 0 44.5 -18t18.5 -47q0 -26 -21 -43t-52 -17q-13 0 -26.5 5.5t-21.5 13.5t-8 16q0 9 16 17q15 -28 43 -28q16 0 27.5 11.5t11.5 26.5q0 18 -11 27.5t-29 9.5q-10 0 -16 -1q-6 6 -6 12q0 1 2 5z" />
<glyph unicode="&#xe8;" horiz-adv-x="398" d="M123 251q-3 -101 -3 -105q1 -1 0 -7.5t1 -18t3.5 -25t7.5 -27.5t14 -25t21.5 -18.5t30.5 -7.5q18 0 32.5 5.5t23 12.5t15.5 17t10 17.5t6 16t4 9.5q9 25 20 25q12 0 18 -4.5t6 -9.5q0 -2 -7 -24q-14 -43 -48.5 -66t-75.5 -23q-63 0 -106 51q-19 22 -27 61t-8 146 q0 266 147 266q129 0 129 -202v-6q0 -12 -0.5 -17.5t-1.5 -14.5t-4 -13t-8.5 -7.5t-13.5 -3.5h-112q-69 0 -74 -2zM279 272q4 17 4 47t-4.5 59t-13 57t-24.5 45.5t-37 17.5q-71 -5 -74 -110q-1 -11 -2 -25t-1.5 -25t-1.5 -24.5t-1 -24.5q0 -3 0.5 -9.5t0.5 -9.5q52 0 154 2z M130 675q9 23 30 23q17 0 35.5 -34.5t30.5 -73.5q0 -1 0.5 -2.5t0.5 -2.5q0 -3 -1 -6.5t-3.5 -6.5t-6.5 -3q-23 0 -86 106z" />
<glyph unicode="&#xe9;" horiz-adv-x="398" d="M123 251q-3 -101 -3 -105q1 -1 0 -7.5t1 -18t3.5 -25t7.5 -27.5t14 -25t21.5 -18.5t30.5 -7.5q18 0 32.5 5.5t23 12.5t15.5 17t10 17.5t6 16t4 9.5q9 25 20 25q12 0 18 -4.5t6 -9.5q0 -2 -7 -24q-14 -43 -48.5 -66t-75.5 -23q-63 0 -106 51q-19 22 -27 61t-8 146 q0 266 147 266q129 0 129 -202v-6q0 -12 -0.5 -17.5t-1.5 -14.5t-4 -13t-8.5 -7.5t-13.5 -3.5h-112q-69 0 -74 -2zM279 272q4 17 4 47t-4.5 59t-13 57t-24.5 45.5t-37 17.5q-71 -5 -74 -110q-1 -11 -2 -25t-1.5 -25t-1.5 -24.5t-1 -24.5q0 -3 0.5 -9.5t0.5 -9.5q52 0 154 2z M289 675q-63 -106 -87 -106q-3 0 -6 3t-4 6.5t-1 6.5q0 8 5.5 22t12 26.5t14.5 28t11 20.5q6 16 24 16q22 0 31 -23z" />
<glyph unicode="&#xea;" horiz-adv-x="398" d="M123 251q-3 -101 -3 -105q1 -1 0 -7.5t1 -18t3.5 -25t7.5 -27.5t14 -25t21.5 -18.5t30.5 -7.5q18 0 32.5 5.5t23 12.5t15.5 17t10 17.5t6 16t4 9.5q9 25 20 25q12 0 18 -4.5t6 -9.5q0 -2 -7 -24q-14 -43 -48.5 -66t-75.5 -23q-63 0 -106 51q-19 22 -27 61t-8 146 q0 266 147 266q129 0 129 -202v-6q0 -12 -0.5 -17.5t-1.5 -14.5t-4 -13t-8.5 -7.5t-13.5 -3.5h-112q-69 0 -74 -2zM279 272q4 17 4 47t-4.5 59t-13 57t-24.5 45.5t-37 17.5q-71 -5 -74 -110q-1 -11 -2 -25t-1.5 -25t-1.5 -24.5t-1 -24.5q0 -3 0.5 -9.5t0.5 -9.5q52 0 154 2z M195 634q-8 -7 -17.5 -23.5t-17.5 -27.5t-16 -11q-4 0 -11 5t-7 12q61 96 68 105q4 -4 38 -47.5t37 -49.5q2 -4 2 -7q0 -6 -3.5 -10.5t-9.5 -4.5q-7 0 -18.5 11t-25 27t-19.5 21z" />
<glyph unicode="&#xeb;" horiz-adv-x="398" d="M123 251q-3 -101 -3 -105q1 -1 0 -7.5t1 -18t3.5 -25t7.5 -27.5t14 -25t21.5 -18.5t30.5 -7.5q18 0 32.5 5.5t23 12.5t15.5 17t10 17.5t6 16t4 9.5q9 25 20 25q12 0 18 -4.5t6 -9.5q0 -2 -7 -24q-14 -43 -48.5 -66t-75.5 -23q-63 0 -106 51q-19 22 -27 61t-8 146 q0 266 147 266q129 0 129 -202v-6q0 -12 -0.5 -17.5t-1.5 -14.5t-4 -13t-8.5 -7.5t-13.5 -3.5h-112q-69 0 -74 -2zM279 272q4 17 4 47t-4.5 59t-13 57t-24.5 45.5t-37 17.5q-71 -5 -74 -110q-1 -11 -2 -25t-1.5 -25t-1.5 -24.5t-1 -24.5q0 -3 0.5 -9.5t0.5 -9.5q52 0 154 2z M279 586q-7 0 -15.5 4.5t-14 12.5t-5.5 17q0 8 3 15t9 12t13 9.5t15.5 6.5t17.5 2q10 0 22 -12.5t12 -19.5q0 -9 -10 -20t-23.5 -18.5t-23.5 -8.5zM99 602q-16 9 -16 29q0 11 4.5 17.5t9.5 8.5t13 3.5t10 2.5q38 -2 38 -31q0 -9 -7 -17.5t-17 -13t-18.5 -4.5t-16.5 5z" />
<glyph unicode="&#xec;" horiz-adv-x="240" d="M151 17h11h21l3 0.5t4 0t3 -1t3 -2.5t1 -5q0 -4 -6 -6t-17 -2.5t-20 -1t-22.5 0t-16.5 0.5q-2 0 -12.5 -0.5t-19 -0.5t-18.5 0.5t-15.5 2.5t-5.5 6q0 6 7.5 8t17 1.5t18.5 -0.5v476h-11h-18q-6 0 -9 0.5t-5 3t-2 7.5q0 9 11 9q2 0 7.5 -0.5t8.5 -0.5q76 2 117 2 q14 0 14 -9q0 -7 -8 -12h-41q-1 -51 -1 -158q0 -55 0.5 -161.5t0.5 -156.5zM31 675q9 23 30 23q17 0 35.5 -34.5t31.5 -73.5q0 -1 0.5 -2.5t0.5 -2.5q0 -5 -3.5 -10.5t-8.5 -5.5q-23 0 -86 106z" />
<glyph unicode="&#xed;" horiz-adv-x="239" d="M150 17h11h21h2q12 1 12 -8q0 -4 -6 -6t-17 -2.5t-20 -1t-22.5 0t-16.5 0.5q-2 0 -12.5 -0.5t-19 -0.5t-18.5 0.5t-15.5 2.5t-5.5 6q0 6 7.5 8t17 1.5t18.5 -0.5v476h-11h-18q-9 0 -12.5 2t-3.5 9q0 9 11 9q2 0 7.5 -0.5t8.5 -0.5q76 2 117 2q14 0 14 -9q0 -7 -8 -12h-41 q-1 -51 -1 -158q0 -55 0.5 -161.5t0.5 -156.5zM209 675q-63 -106 -87 -106q-5 0 -8 5.5t-3 10.5q0 8 5.5 22t12 26.5t15 28t10.5 20.5q6 16 24 16q22 0 31 -23z" />
<glyph unicode="&#xee;" horiz-adv-x="239" d="M150 17h11h21h2q12 1 12 -8q0 -4 -6 -6t-17 -2.5t-20 -1t-22.5 0t-16.5 0.5q-2 0 -12.5 -0.5t-19 -0.5t-18.5 0.5t-15.5 2.5t-5.5 6q0 6 7.5 8t17 1.5t18.5 -0.5v476h-11h-18q-9 0 -12.5 2t-3.5 9q0 9 11 9q2 0 7.5 -0.5t8.5 -0.5q76 2 117 2q14 0 14 -9q0 -7 -8 -12h-41 q-1 -51 -1 -158q0 -55 0.5 -161.5t0.5 -156.5zM115 645q-7 -8 -16.5 -24.5t-18 -27.5t-16.5 -11q-2 0 -6 2.5t-7.5 6.5t-3.5 8q60 97 67 105q4 -4 38 -47.5t38 -49.5q2 -4 2 -7q0 -4 -1.5 -7t-4.5 -5.5t-8 -2.5q-6 0 -17.5 11t-25.5 27t-20 22z" />
<glyph unicode="&#xef;" horiz-adv-x="252" d="M156 17h11h21h2q12 1 12 -8q0 -4 -6 -6t-17 -2.5t-20 -1t-22 0t-17 0.5q-2 0 -12.5 -0.5t-19 -0.5t-18.5 0.5t-15.5 2.5t-5.5 6q0 6 7.5 8t17 1.5t18.5 -0.5v476h-10h-19q-8 0 -12 2t-4 9q0 9 11 9q2 0 7.5 -0.5t8.5 -0.5q76 2 117 2q14 0 14 -9q0 -7 -8 -12h-41 q-1 -51 -1 -158q0 -55 0.5 -161.5t0.5 -156.5zM197 576q-8 0 -16 4.5t-14 12.5t-6 17q0 19 18 32t40 13q10 0 22 -12.5t12 -19.5q0 -9 -10 -20.5t-23 -18.5t-23 -8zM16 592q-16 9 -16 29q0 11 4.5 17.5t9.5 8.5t13.5 3.5t10.5 2.5q37 -2 37 -31q0 -14 -14 -25t-28 -11 q-9 0 -17 6z" />
<glyph unicode="&#xf0;" horiz-adv-x="371" d="M90 473q50 28 133 58q-2 14 -9 32.5t-19.5 42t-33.5 39.5t-47 16q-57 0 -65 -52q-3 -13 -13 -13q-5 0 -10.5 7t-5.5 14q8 36 34.5 53.5t59.5 17.5q90 0 159 -126q1 -1 2 -1q18 0 103 34h7q17 0 17 -12q0 -13 -29 -23.5t-58 -19.5t-29 -19q13 -87 13 -156q0 -157 -40 -252 q-5 -12 -11.5 -25.5t-19.5 -37.5t-29.5 -39.5t-31.5 -16.5q-4 0 -17.5 1.5t-20 2.5t-17 4.5t-19.5 8.5q-42 25 -42 100q0 54 17 95q43 107 113 107q29 0 65 -22q4 39 4 75q0 56 -8 95t-21 39q-5 0 -56.5 -24.5t-58.5 -24.5q-17 4 -17 17q0 1 0.5 3zM153 30q21 2 47.5 65 t26.5 116q0 69 -53 69q-12 -1 -25.5 -19t-24 -43.5t-17 -56.5t-6.5 -58q0 -73 46 -73h6z" />
<glyph unicode="&#xf1;" horiz-adv-x="498" d="M465 17q3 -4 3 -8t-6 -6t-17 -2.5t-20.5 -1t-22.5 0t-16 0.5t-13.5 -0.5t-19 -0.5t-18.5 0.5t-15.5 2.5t-5.5 6q0 3 2.5 5t7.5 3t10 1h12.5h11.5q0 23 0.5 177.5t0.5 156.5l-1.5 16.5t-3 20t-6 23.5t-11.5 21.5t-18 19.5t-25.5 12.5t-35.5 5.5q-27 0 -49 -13t-36 -34.5 t-23 -43.5t-13 -44v-318h12h22q14 0 14 -8q0 -4 -6 -6t-17 -2.5t-20 -1t-22 0t-16 0.5t-13.5 -0.5t-19 -0.5t-18.5 0.5t-15.5 2.5t-5.5 6q0 6 8 8t18 1.5t18 -0.5v476h-10h-19q-16 0 -16 10t9 10q2 0 7.5 -0.5t9.5 -0.5q14 1 40.5 1.5t40.5 0.5q-1 -73 -1 -98q15 28 46 52.5 t76 24.5q80 0 119 -35.5t42 -106.5q1 -16 1 -334h13h21h10zM154 599q19 17 28 24t21.5 12.5t28.5 5.5q14 0 40 -11.5t37 -11.5q15 0 52 20q4 -5 4 -10q0 -9 -17.5 -20t-35 -18t-22.5 -7q-16 0 -42.5 13.5t-38.5 13.5q-8 0 -23.5 -7t-21.5 -7t-10 3z" />
<glyph unicode="&#xf2;" horiz-adv-x="416" d="M210 -14q-24 0 -44.5 6t-35 17t-26 25t-18.5 31t-12.5 34t-8 36t-3.5 34.5t-1 31.5q0 28 1 47.5t1 27.5q0 248 144 248q27 0 49 -7.5t37 -22.5t26 -31t17.5 -39t11 -41t5.5 -42.5t1.5 -37.5t0 -31.5t-0.5 -19.5v-5.5t0.5 -15t0.5 -19.5q0 -27 -2.5 -52t-11.5 -58t-24 -57 t-42.5 -41.5t-64.5 -17.5zM286 233q0 42 -1.5 74.5t-6 71t-12.5 63.5t-23 42t-35 17q-23 0 -38.5 -15.5t-22.5 -43t-9.5 -54t-2.5 -61.5q0 -16 0.5 -41.5t0.5 -33.5q0 -7 -0.5 -29t-0.5 -36q0 -173 79 -173q73 7 73 158q0 15 -0.5 35.5t-0.5 25.5zM129 675q8 23 30 23 q17 0 35.5 -34.5t30.5 -73.5q0 -1 0.5 -2.5t0.5 -2.5q0 -3 -1 -6.5t-3.5 -6.5t-6.5 -3q-23 0 -86 106z" />
<glyph unicode="&#xf3;" horiz-adv-x="416" d="M210 -14q-24 0 -44.5 6t-35 17t-26 25t-18.5 31t-12.5 34t-8 36t-3.5 34.5t-1 31.5q0 28 1 47.5t1 27.5q0 248 144 248q27 0 49 -7.5t37 -22.5t26 -31t17.5 -39t11 -41t5.5 -42.5t1.5 -37.5t0 -31.5t-0.5 -19.5v-5.5t0.5 -15t0.5 -19.5q0 -27 -2.5 -52t-11.5 -58t-24 -57 t-42.5 -41.5t-64.5 -17.5zM286 233q0 42 -1.5 74.5t-6 71t-12.5 63.5t-23 42t-35 17q-23 0 -38.5 -15.5t-22.5 -43t-9.5 -54t-2.5 -61.5q0 -16 0.5 -41.5t0.5 -33.5q0 -7 -0.5 -29t-0.5 -36q0 -173 79 -173q73 7 73 158q0 15 -0.5 35.5t-0.5 25.5zM298 675 q-63 -106 -87 -106q-3 0 -6 3t-4 6.5t-1 6.5q0 8 5.5 22t12 26.5t14.5 28t11 20.5q6 16 24 16q22 0 31 -23z" />
<glyph unicode="&#xf4;" horiz-adv-x="416" d="M210 -14q-24 0 -44.5 6t-35 17t-26 25t-18.5 31t-12.5 34t-8 36t-3.5 34.5t-1 31.5q0 28 1 47.5t1 27.5q0 248 144 248q27 0 49 -7.5t37 -22.5t26 -31t17.5 -39t11 -41t5.5 -42.5t1.5 -37.5t0 -31.5t-0.5 -19.5v-5.5t0.5 -15t0.5 -19.5q0 -27 -2.5 -52t-11.5 -58t-24 -57 t-42.5 -41.5t-64.5 -17.5zM286 233q0 42 -1.5 74.5t-6 71t-12.5 63.5t-23 42t-35 17q-23 0 -38.5 -15.5t-22.5 -43t-9.5 -54t-2.5 -61.5q0 -16 0.5 -41.5t0.5 -33.5q0 -7 -0.5 -29t-0.5 -36q0 -173 79 -173q73 7 73 158q0 15 -0.5 35.5t-0.5 25.5zM204 634q-7 -7 -17 -23.5 t-18 -27.5t-16 -11q-4 0 -10.5 5t-6.5 12q60 96 67 105q4 -4 38 -47.5t37 -49.5q2 -4 2 -7t-0.5 -5.5t-2 -4.5t-4 -3.5t-6.5 -1.5q-7 0 -18.5 11t-25 27t-19.5 21z" />
<glyph unicode="&#xf5;" horiz-adv-x="416" d="M210 -14q-24 0 -44.5 6t-35 17t-26 25t-18.5 31t-12.5 34t-8 36t-3.5 34.5t-1 31.5q0 28 1 47.5t1 27.5q0 248 144 248q27 0 49 -7.5t37 -22.5t26 -31t17.5 -39t11 -41t5.5 -42.5t1.5 -37.5t0 -31.5t-0.5 -19.5v-5.5t0.5 -15t0.5 -19.5q0 -27 -2.5 -52t-11.5 -58t-24 -57 t-42.5 -41.5t-64.5 -17.5zM286 233q0 42 -1.5 74.5t-6 71t-12.5 63.5t-23 42t-35 17q-23 0 -38.5 -15.5t-22.5 -43t-9.5 -54t-2.5 -61.5q0 -16 0.5 -41.5t0.5 -33.5q0 -7 -0.5 -29t-0.5 -36q0 -173 79 -173q73 7 73 158q0 15 -0.5 35.5t-0.5 25.5zM102 599q19 17 28 24 t21.5 12.5t28.5 5.5q14 0 40 -11.5t37 -11.5q15 0 52 20q4 -5 4 -10q0 -13 -32.5 -29t-42.5 -16q-16 0 -42.5 13.5t-38.5 13.5q-8 0 -23.5 -7t-21.5 -7t-10 3z" />
<glyph unicode="&#xf6;" horiz-adv-x="416" d="M210 -14q-24 0 -44.5 6t-35 17t-26 25t-18.5 31t-12.5 34t-8 36t-3.5 34.5t-1 31.5q0 28 1 47.5t1 27.5q0 248 144 248q27 0 49 -7.5t37 -22.5t26 -31t17.5 -39t11 -41t5.5 -42.5t1.5 -37.5t0 -31.5t-0.5 -19.5v-5.5t0.5 -15t0.5 -19.5q0 -27 -2.5 -52t-11.5 -58t-24 -57 t-42.5 -41.5t-64.5 -17.5zM286 233q0 42 -1.5 74.5t-6 71t-12.5 63.5t-23 42t-35 17q-23 0 -38.5 -15.5t-22.5 -43t-9.5 -54t-2.5 -61.5q0 -16 0.5 -41.5t0.5 -33.5q0 -7 -0.5 -29t-0.5 -36q0 -173 79 -173q73 7 73 158q0 15 -0.5 35.5t-0.5 25.5zM289 576q-8 0 -16.5 4.5 t-14 12.5t-5.5 17q0 12 8.5 22.5t22 16.5t27.5 6q10 0 22 -12.5t12 -19.5q0 -14 -20.5 -30t-35.5 -17zM108 592q-16 9 -16 29q0 11 4.5 17.5t9.5 8.5t13.5 3.5t10.5 2.5q37 -2 37 -31q0 -14 -14.5 -25t-28.5 -11q-8 0 -16 6z" />
<glyph unicode="&#xf7;" horiz-adv-x="326" d="M284 314q12 0 12 -8q0 -10 -13 -10q-3 0 -61 -0.5t-115.5 -0.5h-60.5q-6 0 -10.5 2.5t-4.5 5.5q0 12 240 12q8 0 13 -1zM164 398q-12 0 -20.5 7t-8.5 18q0 13 8.5 21.5t22.5 8.5q10 0 17 -6.5t7 -17.5q0 -9 -3.5 -16t-9.5 -11t-13 -4zM148 216q6 3 12 3q11 0 21.5 -8 t10.5 -20t-8 -18.5t-21 -6.5q-28 0 -28 25q0 19 13 25z" />
<glyph unicode="&#xf8;" horiz-adv-x="467" d="M453 483q4 -4 4 -10q0 -14 -12 -23l-4.5 -4.5t-9.5 -10t-14 -14.5l-19 -19l-22 -22q5 -37 5 -80q0 -11 -0.5 -26t-0.5 -18q2 -18 2 -45q0 -22 -1.5 -43t-6.5 -47.5t-15.5 -48t-26 -41t-40 -30.5t-54.5 -11q-109 1 -138 115q-5 -6 -10.5 -12t-10 -10.5l-8.5 -8.5t-7 -6.5 t-5.5 -5t-4 -3.5t-1.5 -2q-15 -15 -26 -15q-17 0 -17 7q0 4 5 10t14.5 14.5t10.5 9.5q2 4 53 58q-4 30 -4 63q0 36 2 52v27q0 245 145 245q100 0 133 -112q5 5 13 15q32 35 43 45t22 10q4 0 6 -3zM238 504q-78 0 -78 -172q0 -29 1 -65t1 -60q23 24 73 75t73 75 q-13 147 -70 147zM313 238q0 13 -1 39t-1 39q-96 -98 -149 -151q1 -23 3 -42.5t7.5 -39.5t13.5 -34t22 -23t33 -9q72 7 72 161v50v10z" />
<glyph unicode="&#xf9;" horiz-adv-x="463" d="M431 512q1 -4 1 -9t-2.5 -6t-10.5 -2q-1 0 -6.5 0.5t-14.5 1t-18 0.5q0 -2 0.5 -19t0.5 -44.5v-54.5q0 -205 -4 -258q-1 -13 -5.5 -28t-15 -32.5t-25.5 -31t-39.5 -23t-53.5 -9.5q-80 0 -117 33.5t-42 106.5q-3 28 -3 358h-11h-21h-2q-11 -1 -11 7q0 4 11 6.5t31.5 3.5 t38 1t41.5 -0.5t31 -0.5q2 -8 2 -9q0 -6 -6 -7.5t-21 -1t-19 0.5q0 -5 -0.5 -109t-0.5 -162v-27v-24.5t0.5 -18.5t0.5 -13v-5q4 -118 100 -118q51 0 75.5 27.5t36.5 84.5l4 364q-5 0 -11.5 -0.5t-10.5 -0.5h-8.5t-7.5 0.5t-5.5 1.5t-3.5 2.5t-1 4.5q0 4 9.5 6.5t26 3.5 t30.5 1t33.5 -0.5t23.5 -0.5zM162 675q9 23 31 23q16 0 34.5 -34.5t31.5 -73.5q0 -1 0.5 -2.5t0.5 -2.5q0 -3 -1 -6.5t-4 -6.5t-6 -3q-24 0 -87 106z" />
<glyph unicode="&#xfa;" horiz-adv-x="463" d="M431 512q1 -4 1 -9t-2.5 -6t-10.5 -2q-1 0 -6.5 0.5t-14.5 1t-18 0.5q0 -2 0.5 -19t0.5 -44.5v-54.5q0 -205 -4 -258q-1 -13 -5.5 -28t-15 -32.5t-25.5 -31t-39.5 -23t-53.5 -9.5q-80 0 -117 33.5t-42 106.5q-3 28 -3 358h-11h-21h-2q-11 -1 -11 7q0 4 11 6.5t31.5 3.5 t38 1t41.5 -0.5t31 -0.5q2 -8 2 -9q0 -6 -6 -7.5t-21 -1t-19 0.5q0 -5 -0.5 -109t-0.5 -162v-27v-24.5t0.5 -18.5t0.5 -13v-5q4 -118 100 -118q51 0 75.5 27.5t36.5 84.5l4 364q-5 0 -11.5 -0.5t-10.5 -0.5h-8.5t-7.5 0.5t-5.5 1.5t-3.5 2.5t-1 4.5q0 4 9.5 6.5t26 3.5 t30.5 1t33.5 -0.5t23.5 -0.5zM321 675q-63 -106 -86 -106q-4 0 -6.5 3t-4 6.5t-1.5 6.5q0 8 5.5 22t12 26.5t15 28t10.5 20.5q6 16 25 16q21 0 30 -23z" />
<glyph unicode="&#xfb;" horiz-adv-x="463" d="M431 512q1 -4 1 -9t-2.5 -6t-10.5 -2q-1 0 -6.5 0.5t-14.5 1t-18 0.5q0 -2 0.5 -19t0.5 -44.5v-54.5q0 -205 -4 -258q-1 -13 -5.5 -28t-15 -32.5t-25.5 -31t-39.5 -23t-53.5 -9.5q-80 0 -117 33.5t-42 106.5q-3 28 -3 358h-11h-21h-2q-11 -1 -11 7q0 4 11 6.5t31.5 3.5 t38 1t41.5 -0.5t31 -0.5q2 -8 2 -9q0 -6 -6 -7.5t-21 -1t-19 0.5q0 -5 -0.5 -109t-0.5 -162v-27v-24.5t0.5 -18.5t0.5 -13v-5q4 -118 100 -118q51 0 75.5 27.5t36.5 84.5l4 364q-5 0 -11.5 -0.5t-10.5 -0.5h-8.5t-7.5 0.5t-5.5 1.5t-3.5 2.5t-1 4.5q0 4 9.5 6.5t26 3.5 t30.5 1t33.5 -0.5t23.5 -0.5zM238 634q-8 -7 -17.5 -23.5t-17.5 -27.5t-16 -11q-4 0 -11 5t-7 12q61 96 68 105q4 -4 37.5 -47.5t37.5 -49.5q2 -4 2 -7t-0.5 -5.5t-2.5 -4.5t-4.5 -3.5t-5.5 -1.5q-7 0 -18.5 11t-25 27t-19.5 21z" />
<glyph unicode="&#xfc;" horiz-adv-x="463" d="M431 512q1 -4 1 -9t-2.5 -6t-10.5 -2q-1 0 -6.5 0.5t-14.5 1t-18 0.5q0 -2 0.5 -19t0.5 -44.5v-54.5q0 -205 -4 -258q-1 -13 -5.5 -28t-15 -32.5t-25.5 -31t-39.5 -23t-53.5 -9.5q-80 0 -117 33.5t-42 106.5q-3 28 -3 358h-11h-21h-2q-11 -1 -11 7q0 4 11 6.5t31.5 3.5 t38 1t41.5 -0.5t31 -0.5q2 -8 2 -9q0 -6 -6 -7.5t-21 -1t-19 0.5q0 -5 -0.5 -109t-0.5 -162v-27v-24.5t0.5 -18.5t0.5 -13v-5q4 -118 100 -118q51 0 75.5 27.5t36.5 84.5l4 364q-5 0 -11.5 -0.5t-10.5 -0.5h-8.5t-7.5 0.5t-5.5 1.5t-3.5 2.5t-1 4.5q0 4 9.5 6.5t26 3.5 t30.5 1t33.5 -0.5t23.5 -0.5zM322 576q-7 0 -15.5 4.5t-14 12.5t-5.5 17q0 12 8.5 22.5t21.5 16.5t28 6q10 0 21.5 -12.5t11.5 -19.5q0 -14 -20 -30t-36 -17zM142 592q-17 9 -17 29q0 11 5 17.5t10 8.5t13 3.5t10 2.5q38 -2 38 -31q0 -14 -14.5 -25t-28.5 -11q-9 0 -16 6z " />
<glyph unicode="&#xfd;" horiz-adv-x="466" d="M265 106q13 57 49.5 185.5t50.5 201.5q-4 0 -27 0.5t-35 2.5t-12 8q0 10 21 13.5t70.5 3.5h53.5t14.5 -0.5t15.5 -0.5q-1 -8 -3 -12t-5.5 -6t-9.5 -2q-3 0 -12.5 1t-12.5 1q-10 0 -15.5 -5t-7.5 -10.5t-6 -23.5q-16 -57 -62 -209q-22 -91 -43.5 -165.5t-40 -123 t-36.5 -85.5t-32 -57t-27 -32t-21 -15t-15 -3t-7 33v6q0 29 27 48q77 53 100 154q0 1 0.5 2.5t0.5 2.5q0 7 -4 15q-26 66 -75.5 203t-76.5 207q-3 9 -9 23.5t-8 19.5q-3 0 -12 -0.5t-13.5 -0.5t-12 0.5t-11 2t-8 3.5t-6.5 5.5t-2 8.5q0 3 6.5 5.5t19 4t26.5 2t31.5 0.5h31.5 t30 -0.5t23 -0.5q3 -12 3 -17q0 -3 -1 -4.5t-3 -2.5t-5 -1.5t-7.5 -1t-9.5 -0.5t-12.5 -0.5t-14.5 -1.5q43 -151 147 -382zM322 675q-63 -106 -86 -106q-5 0 -8.5 5.5t-3.5 10.5q0 8 5.5 22t12 26.5t15 28t10.5 20.5q6 16 25 16q21 0 30 -23z" />
<glyph unicode="&#xfe;" horiz-adv-x="355" d="M31 -264q0 9 15 9h30v979h-32q-11 0 -11 10.5t9 10.5h129q19 0 19 -12q0 -9 -19 -9h-7h-24v-346q22 0 37.5 -1t42 -8.5t43 -21t29.5 -42t13 -67.5q0 -43 -11.5 -73t-26.5 -45t-40.5 -23.5t-42.5 -9.5t-44 -1v-341h33q18 0 18 -9q0 -5 -3 -7.5t-4.5 -2.5h-7.5 q-15 0 -41.5 -0.5t-41.5 -1t-31 0.5t-23.5 3.5t-7.5 7.5zM251 237q0 32 -6 55t-15 36.5t-24 21.5t-30.5 10.5t-35.5 2.5v-257q6 -1 15 -1q15 0 28.5 4.5t30.5 16.5t27 40.5t10 70.5z" />
<glyph unicode="&#xff;" horiz-adv-x="466" d="M265 106q13 57 49.5 185.5t50.5 201.5q-4 0 -27 0.5t-35 2.5t-12 8q0 10 21 13.5t70.5 3.5h53.5t14.5 -0.5t15.5 -0.5q-1 -8 -3 -12t-5.5 -6t-9.5 -2q-3 0 -12.5 1t-12.5 1q-10 0 -15.5 -5t-7.5 -10.5t-6 -23.5q-16 -57 -62 -209q-22 -91 -43.5 -165.5t-40 -123 t-36.5 -85.5t-32 -57t-27 -32t-21 -15t-15 -3t-7 33v6q0 29 27 48q77 53 100 154q0 1 0.5 2.5t0.5 2.5q0 7 -4 15q-26 66 -75.5 203t-76.5 207q-3 9 -9 23.5t-8 19.5q-3 0 -12 -0.5t-13.5 -0.5t-12 0.5t-11 2t-8 3.5t-6.5 5.5t-2 8.5q0 3 6.5 5.5t19 4t26.5 2t31.5 0.5h31.5 t30 -0.5t23 -0.5q3 -12 3 -17q0 -3 -1 -4.5t-3 -2.5t-5 -1.5t-7.5 -1t-9.5 -0.5t-12.5 -0.5t-14.5 -1.5q43 -151 147 -382zM323 597q-4 0 -9 1.5t-9.5 4.5t-8.5 7.5t-6 9.5t-2 10q0 19 18 32t40 13q5 0 11 -3.5t11 -9t8 -10.5t3 -8q0 -15 -20 -30.5t-36 -16.5zM143 612 q-17 9 -17 30q0 10 5 16.5t10 8.5t13 3.5t10 2.5q38 -1 38 -30q0 -10 -7 -18.5t-17 -13t-19 -4.5t-16 5z" />
<glyph unicode="&#x100;" d="M514 16q0 -2 -1 -5t-3 -4.5t-4.5 -3t-4.5 -1.5h1h-3h-29h-82h-16q-6 0 -11 4.5t-5 9.5q0 4 2.5 7t6 5t6.5 2h34q-42 135 -61 215q-1 1 -1 2h-190q-4 -2 -31.5 -97.5t-31.5 -119.5q10 -2 19 -0.5t15 -1.5t6 -12q0 -5 -3.5 -9.5t-7.5 -4.5h-3h-23h-67h-15q-11 0 -11 14 t11 14h17q31 0 32 2q2 1 22 69t47.5 166.5t55 196t48 171.5t21.5 79q1 4 5.5 7t6.5 3q4 0 8.5 -4.5t4.5 -9.5q2 -7 90.5 -334t92.5 -346h3h37q5 0 8.5 -4t3.5 -10zM246 607q-62 -223 -89 -331q29 0 89.5 0.5t92.5 0.5q-88 322 -90 330h-3zM351 827q6 0 11 -3t5 -7 q0 -6 -6.5 -9.5t-18.5 -4.5t-23 -1t-25.5 1t-19.5 1h-21q-11 0 -26 -0.5t-23.5 -1t-27.5 0.5q-9 0 -9 9q0 6 5.5 9.5t16 4.5t19.5 1t23.5 -0.5t21.5 -0.5h21q19 0 45 0.5t32 0.5z" />
<glyph unicode="&#x101;" horiz-adv-x="434" d="M434 31q0 -2 0.5 -5t0.5 -5q0 -24 -53 -24q-63 0 -94 65q-9 -6 -28.5 -22t-30.5 -23.5t-33.5 -15t-47.5 -7.5q-55 0 -86 30.5t-31 83.5q0 38 22 72t65 79q47 47 177 74q1 11 1 33q0 69 -25 107t-83 38q-24 0 -43.5 -10t-31 -30t-11.5 -46q-3 -20 -8 -28.5t-16 -8.5 q-32 0 -32 17q0 40 27 70t61.5 43t68.5 13q29 0 51 -6.5t37 -17t25.5 -29t16.5 -36.5t9 -46t4 -50t1 -56q0 -27 -3.5 -79.5t-3.5 -78.5q0 -103 73 -103q13 0 21 2zM297 304q-8 2 -23 2q-21 0 -65 -18q-56 -20 -88.5 -64.5t-32.5 -104.5q0 -37 31.5 -64.5t68.5 -27.5 q19 0 44 14.5t42 35t17 34.5q6 133 6 193zM291 633q3 0 6 -0.5t5 -2t3.5 -3.5t1.5 -4q0 -6 -6.5 -9.5t-18.5 -4.5t-23 -0.5t-25.5 1t-19.5 0.5h-21q-10 0 -34.5 -1t-42.5 0q-9 0 -9 9q0 5 3 8t8.5 4.5t11.5 2.5t15 1t16 -0.5t16.5 -1t15.5 -0.5h21q19 0 45 0.5t32 0.5z" />
<glyph unicode="&#x102;" d="M514 16q0 -2 -1 -5t-3 -4.5t-4.5 -3t-4.5 -1.5h1h-3h-29h-82h-16q-6 0 -11 4.5t-5 9.5q0 4 2.5 7t6 5t6.5 2h34q-42 135 -61 215q-1 1 -1 2h-190q-4 -2 -31.5 -97.5t-31.5 -119.5q10 -2 19 -0.5t15 -1.5t6 -12q0 -5 -3.5 -9.5t-7.5 -4.5h-3h-23h-67h-15q-11 0 -11 14 t11 14h17q31 0 32 2q2 1 22 69t47.5 166.5t55 196t48 171.5t21.5 79q1 4 5.5 7t6.5 3q4 0 8.5 -4.5t4.5 -9.5q2 -7 90.5 -334t92.5 -346h3h37q5 0 8.5 -4t3.5 -10zM246 607q-62 -223 -89 -331q29 0 89.5 0.5t92.5 0.5q-88 322 -90 330h-3zM193 804q30 -16 47 -16 q26 0 46.5 17.5t20.5 44.5q0 13 -15.5 26.5t-29.5 13.5q-19 0 -40 -34q-16 9 -16 23q0 19 20.5 31.5t41.5 12.5q40 0 59 -19t19 -44q0 -31 -15.5 -54.5t-35.5 -33.5t-39 -10q-18 0 -43 10t-25 21q0 6 5 11z" />
<glyph unicode="&#x103;" horiz-adv-x="434" d="M434 31q0 -2 0.5 -5t0.5 -5q0 -24 -53 -24q-63 0 -94 65q-9 -6 -28.5 -22t-30.5 -23.5t-33.5 -15t-47.5 -7.5q-55 0 -86 30.5t-31 83.5q0 38 22 72t65 79q47 47 177 74q1 11 1 33q0 69 -25 107t-83 38q-24 0 -43.5 -10t-31 -30t-11.5 -46q-3 -20 -8 -28.5t-16 -8.5 q-32 0 -32 17q0 40 27 70t61.5 43t68.5 13q29 0 51 -6.5t37 -17t25.5 -29t16.5 -36.5t9 -46t4 -50t1 -56q0 -27 -3.5 -79.5t-3.5 -78.5q0 -103 73 -103q13 0 21 2zM297 304q-8 2 -23 2q-21 0 -65 -18q-56 -20 -88.5 -64.5t-32.5 -104.5q0 -37 31.5 -64.5t68.5 -27.5 q19 0 44 14.5t42 35t17 34.5q6 133 6 193zM143 620q30 -15 47 -15q26 0 46.5 17.5t20.5 43.5q0 13 -15.5 27t-29.5 14q-19 0 -40 -35q-16 9 -16 24q0 19 20.5 31.5t41.5 12.5q28 0 46 -10.5t25 -24t7 -29.5q0 -45 -29.5 -71.5t-60.5 -26.5q-18 0 -43 10.5t-25 20.5q0 6 5 11 z" />
<glyph unicode="&#x104;" d="M469 -148q-20 -13 -43 -13q-32 0 -49.5 18.5t-17.5 41.5q0 30 22 60t55 43h-64q-6 0 -11 4.5t-5 9.5q0 4 2.5 7t6 5t6.5 2h34q-42 135 -61 215q-1 1 -1 2h-190q-4 -2 -31.5 -97.5t-31.5 -119.5q10 -2 19 -0.5t15 -1.5t6 -12q0 -5 -3.5 -9.5t-7.5 -4.5h-108q-11 0 -11 14 t11 14h17q31 0 32 2q2 1 22 69t47.5 166.5t55 196t48 171.5t21.5 79q1 4 5.5 7t6.5 3q4 0 8.5 -4.5t4.5 -9.5q2 -7 90.5 -334t92.5 -346h40q5 0 8.5 -4t3.5 -9.5t-4 -10t-8 -4.5h-42q-23 -11 -45.5 -40.5t-22.5 -51.5q0 -16 10.5 -27t27.5 -11q24 0 39 17v-37zM246 607 q-62 -223 -89 -331q29 0 89.5 0.5t92.5 0.5q-88 322 -90 330h-3z" />
<glyph unicode="&#x105;" horiz-adv-x="434" d="M420 -144q-20 -13 -43 -13q-32 0 -49.5 18.5t-17.5 41.5q0 26 16.5 52.5t42.5 42.5q-53 6 -81 64q-9 -6 -28.5 -22t-30.5 -23.5t-33.5 -15t-47.5 -7.5q-55 0 -86 30.5t-31 83.5q0 38 22 72t65 79q47 47 177 74q1 11 1 33q0 69 -25 107t-83 38q-24 0 -43.5 -10t-31 -30 t-11.5 -46q-3 -20 -8 -28.5t-16 -8.5q-32 0 -32 17q0 40 27 70t61.5 43t68.5 13q29 0 51 -6.5t37 -17t25.5 -29t16.5 -36.5t9 -46t4 -50t1 -56q0 -27 -3.5 -79.5t-3.5 -78.5q0 -103 73 -103q13 0 21 2q0 -2 0.5 -5t0.5 -5q0 -19 -38 -23q-21 -16 -37.5 -40.5t-16.5 -43.5 q0 -16 10.5 -26.5t27.5 -10.5q24 0 39 16v-37zM297 304q-8 2 -23 2q-21 0 -65 -18q-56 -20 -88.5 -64.5t-32.5 -104.5q0 -37 31.5 -64.5t68.5 -27.5q19 0 44 14.5t42 35t17 34.5q6 133 6 193z" />
<glyph unicode="&#x106;" horiz-adv-x="433" d="M140 600l-9 -314q0 -3 -0.5 -12.5t-0.5 -17.5q0 -36 3 -69.5t12 -75t30.5 -66.5t52.5 -25q34 0 64.5 23.5t32.5 55.5q1 7 1 23.5t0.5 25.5t3 20t7.5 16.5t13 5.5q26 0 26 -41q0 -25 -7 -51t-22 -52t-45.5 -42.5t-70.5 -16.5q-55 0 -86 25t-47 94t-16 196q0 46 1.5 110.5 t4 122.5t5.5 76q5 37 21.5 61.5t48 38.5t79.5 14q137 0 140 -136v-2.5t-1 -5t-3 -6t-6.5 -4.5t-10.5 -2q-8 0 -12.5 7.5t-7 19.5t-4.5 26.5t-8 29t-15.5 26.5t-29 19.5t-45.5 7.5q-90 -3 -99 -105zM316 879q-63 -106 -86 -106q-4 0 -6.5 3t-4 6.5t-1.5 6.5q0 8 5.5 22 t12 26.5t15 28t10.5 20.5q6 16 25 16q21 0 30 -23z" />
<glyph unicode="&#x107;" horiz-adv-x="377" d="M283 152q6 -2 11 -2q3 0 10 1t10 1q5 0 7 -1q0 -16 -1.5 -32.5t-9 -41.5t-19.5 -43.5t-36 -32t-55 -13.5q-26 0 -45.5 6.5t-37.5 26t-30 52t-19 86t-7 127.5q0 24 1 43t4.5 44.5t9.5 44.5t17 39t26.5 33t39 21t52.5 8q33 0 74 -10q5 -4 12 -4q2 0 7 0.5t7 0.5q6 0 10 -2 q5 -84 5 -106q-5 -22 -22 -22q-5 0 -9 2t-6 6t-3.5 8.5t-2 10.5t-0.5 10.5t0.5 11.5t0.5 11q0 3 0.5 10.5t0.5 11.5q0 17 -18.5 31.5t-46.5 14.5q-99 0 -99 -176q0 -20 1.5 -49t1.5 -36q0 -2 -0.5 -14.5t-0.5 -22.5q0 -192 77 -197q30 4 49 26t24 45t7 47t3 25zM289 675 q-63 -106 -87 -106q-3 0 -6 3t-4 6.5t-1 6.5q0 8 5.5 22t12 26.5t14.5 28t11 20.5q6 16 24 16q22 0 31 -23z" />
<glyph unicode="&#x108;" horiz-adv-x="433" d="M140 600l-9 -314q0 -3 -0.5 -12.5t-0.5 -17.5q0 -36 3 -69.5t12 -75t30.5 -66.5t52.5 -25q34 0 64.5 23.5t32.5 55.5q1 7 1 23.5t0.5 25.5t3 20t7.5 16.5t13 5.5q26 0 26 -41q0 -25 -7 -51t-22 -52t-45.5 -42.5t-70.5 -16.5q-55 0 -86 25t-47 94t-16 196q0 46 1.5 110.5 t4 122.5t5.5 76q5 37 21.5 61.5t48 38.5t79.5 14q137 0 140 -136v-2.5t-1 -5t-3 -6t-6.5 -4.5t-10.5 -2q-8 0 -12.5 7.5t-7 19.5t-4.5 26.5t-8 29t-15.5 26.5t-29 19.5t-45.5 7.5q-90 -3 -99 -105zM233 838q-8 -7 -17.5 -23.5t-17.5 -27.5t-16 -11q-4 0 -11 5t-7 12 q60 96 68 105q3 -4 37 -47.5t38 -49.5q2 -4 2 -7q0 -4 -1.5 -7t-4.5 -5.5t-7 -2.5q-7 0 -18.5 11t-25.5 27t-19 21z" />
<glyph unicode="&#x109;" horiz-adv-x="377" d="M283 152q6 -2 11 -2q3 0 10 1t10 1q5 0 7 -1q0 -16 -1.5 -32.5t-9 -41.5t-19.5 -43.5t-36 -32t-55 -13.5q-26 0 -45.5 6.5t-37.5 26t-30 52t-19 86t-7 127.5q0 24 1 43t4.5 44.5t9.5 44.5t17 39t26.5 33t39 21t52.5 8q33 0 74 -10q5 -4 12 -4q2 0 7 0.5t7 0.5q6 0 10 -2 q5 -84 5 -106q-5 -22 -22 -22q-5 0 -9 2t-6 6t-3.5 8.5t-2 10.5t-0.5 10.5t0.5 11.5t0.5 11q0 3 0.5 10.5t0.5 11.5q0 17 -18.5 31.5t-46.5 14.5q-99 0 -99 -176q0 -20 1.5 -49t1.5 -36q0 -2 -0.5 -14.5t-0.5 -22.5q0 -192 77 -197q30 4 49 26t24 45t7 47t3 25zM205 634 q-7 -7 -17 -23.5t-18 -27.5t-16 -11q-4 0 -10.5 5t-6.5 12q60 96 67 105q4 -4 38 -47.5t37 -49.5q3 -4 3 -7q0 -4 -1.5 -7t-4.5 -5.5t-7.5 -2.5t-11 4.5t-13.5 12t-13.5 15.5t-14 15.5z" />
<glyph unicode="&#x10c;" horiz-adv-x="433" d="M140 600l-9 -314q0 -3 -0.5 -12.5t-0.5 -17.5q0 -36 3 -69.5t12 -75t30.5 -66.5t52.5 -25q34 0 64.5 23.5t32.5 55.5q1 7 1 23.5t0.5 25.5t3 20t7.5 16.5t13 5.5q26 0 26 -41q0 -25 -7 -51t-22 -52t-45.5 -42.5t-70.5 -16.5q-55 0 -86 25t-47 94t-16 196q0 46 1.5 110.5 t4 122.5t5.5 76q5 37 21.5 61.5t48 38.5t79.5 14q137 0 140 -136v-2.5t-1 -5t-3 -6t-6.5 -4.5t-10.5 -2q-8 0 -12.5 7.5t-7 19.5t-4.5 26.5t-8 29t-15.5 26.5t-29 19.5t-45.5 7.5q-90 -3 -99 -105zM233 824q5 5 19 21t25.5 27t18.5 11q3 0 5.5 -1t4 -3.5t2.5 -5t1 -4.5 q0 -5 -2 -7q-4 -6 -38 -49.5t-37 -47.5l-68 105q0 6 4.5 10t8 5t5.5 1q8 0 16 -11t17.5 -27.5t17.5 -23.5z" />
<glyph unicode="&#x10d;" horiz-adv-x="377" d="M283 152q6 -2 11 -2q3 0 10 1t10 1q5 0 7 -1q0 -16 -1.5 -32.5t-9 -41.5t-19.5 -43.5t-36 -32t-55 -13.5q-26 0 -45.5 6.5t-37.5 26t-30 52t-19 86t-7 127.5q0 24 1 43t4.5 44.5t9.5 44.5t17 39t26.5 33t39 21t52.5 8q33 0 74 -10q5 -4 12 -4q2 0 7 0.5t7 0.5q6 0 10 -2 q5 -84 5 -106q-5 -22 -22 -22q-5 0 -9 2t-6 6t-3.5 8.5t-2 10.5t-0.5 10.5t0.5 11.5t0.5 11q0 3 0.5 10.5t0.5 11.5q0 17 -18.5 31.5t-46.5 14.5q-99 0 -99 -176q0 -20 1.5 -49t1.5 -36q0 -2 -0.5 -14.5t-0.5 -22.5q0 -192 77 -197q30 4 49 26t24 45t7 47t3 25zM205 630 q5 5 15 16t17.5 20t16.5 16.5t14 7.5q7 0 10.5 -4.5t3.5 -10.5q0 -5 -3 -7q-3 -6 -37 -49.5t-38 -47.5l-67 105q0 6 4 10t8 5.5t5 1.5q6 0 13 -7.5t12 -17t12.5 -21t13.5 -17.5z" />
<glyph unicode="&#x10e;" d="M453 366q0 -123 -19.5 -202t-53.5 -114t-85 -42q-71 -9 -126 -9h-88h-17q-13 0 -13 14t13 14h28h7q0 10 0.5 33t0.5 36q0 26 -0.5 80.5t-0.5 80.5v41v254v108h1q0 16 -1 22h-7h-28q-13 0 -13 15q0 13 13 13h17h105q76 0 128 -14q14 -4 28 -12.5t30 -24.5t29.5 -41.5 t25.5 -59t18.5 -83.5t7.5 -109zM366 122q30 74 30 211q0 17 -2.5 61t-11 108.5t-20.5 94.5q-19 42 -51 66t-89 24q-9 0 -19 -0.5t-18 -1t-14 -1.5t-10 -1l-3 -1v-94v-31v-338v-170q0 -2 -1.5 -8t-0.5 -8.5t9.5 -5.5t26.5 -3q23 0 45 4t48.5 13t48 30t32.5 51zM233 824 q5 5 19 21t25.5 27t18.5 11q3 0 5.5 -1t4 -3.5t2.5 -5t1 -4.5q0 -5 -2 -7q-4 -6 -38 -49.5t-37 -47.5l-68 105q0 6 4.5 10t8 5t5.5 1q8 0 16 -11t17.5 -27.5t17.5 -23.5z" />
<glyph unicode="&#x10f;" horiz-adv-x="457" d="M389 31q7 0 12 -5t5 -12q0 -6 -5.5 -11t-11.5 -5h-39q-1 0 -2.5 0.5l-1.5 0.5q-11 -3 -38 -3q-15 0 -43 1t-41 1h-18q-27 1 -48.5 7.5t-36.5 17t-25.5 26t-16.5 31.5t-10 36.5t-5 37t-1 37.5q0 12 -0.5 35t-1 40t0 41.5t2.5 43.5t6.5 41.5t11.5 38.5t18 32.5t25.5 26.5 t35 16.5t45.5 6.5q16 0 29 -2.5t20.5 -5.5t16.5 -7t15 -5v216h-10q-4 0 -11.5 -0.5t-10.5 -0.5q-13 0 -13 16q0 5 4.5 5.5t22.5 0.5h11q7 0 26.5 0.5t29.5 0.5t23.5 -1t20 -3t6.5 -5q0 -5 -6 -9.5t-13 -4.5l-6 0.5t-12 0.5q-1 -4 -1.5 -94.5t-0.5 -201t-0.5 -218.5 t-0.5 -139q-1 -25 4 -25h39zM287 56v350q0 87 -83 87q-15 0 -27 -7t-20 -19t-14 -28.5t-9.5 -37t-6 -43t-2.5 -47t-0.5 -49.5t-0.5 -49v-36q0 -24 1.5 -44t7 -42.5t14.5 -37.5t25 -25.5t38 -10.5q37 0 56.5 13t20.5 26zM406 566q6 7 21 21.5t21.5 25t6.5 25.5 q-15 2 -23.5 5.5t-14.5 10.5t-6 18q0 9 6.5 19t16 17t18.5 7q15 0 26 -12t11 -27q0 -35 -21 -67t-62 -43z" />
<glyph unicode="&#x110;" horiz-adv-x="524" d="M463 365q0 -123 -19.5 -202t-53 -114t-84.5 -42q-72 -9 -128 -9h-88h-16q-6 0 -10.5 4t-4.5 9q0 6 4.5 10.5t10.5 4.5h28h8v45q0 26 -0.5 79.5t-0.5 80.5q0 11 0.5 32.5t0.5 32.5v43q-62 0 -66 3q-2 2 -2 12q0 4 4.5 7.5t9.5 3.5h54v188v129h-8h-28q-6 0 -10.5 4 t-4.5 9.5t4.5 10t10.5 4.5h16h84q90 0 150 -15q18 -5 34.5 -16t36 -35.5t33.5 -59.5t24 -91.5t11 -127.5zM377 120q28 74 28 209q0 9 -1.5 36.5t-4.5 72.5t-10 89.5t-17 68.5q-14 29 -29 47t-43 30.5t-66 12.5l-66 -4q0 -34 -0.5 -89t-0.5 -99q0 -80 1 -129h44q6 0 10 -3 t4 -8q0 -11 -6 -12.5t-52 -1.5v-293q0 -2 -1.5 -7.5t-0.5 -8t9 -5.5t26 -3t35 2t39.5 8t40.5 16.5t35 28.5t26 42z" />
<glyph unicode="&#x111;" horiz-adv-x="432" d="M385 34q6 0 11.5 -5.5t5.5 -12.5q0 -8 -5 -13.5t-12 -5.5h-40q-1 0 -2 0.5l-1 0.5q-7 -2 -35 -2q-15 0 -43.5 0.5t-40.5 0.5h-20q-37 1 -64 13.5t-41.5 30.5t-23 45t-11 50t-2.5 53q0 11 0.5 31t0.5 28v41q0 27 1 46t4 44t8.5 42.5t16 36t25 30t36.5 18.5t50 7 q16 0 29.5 -2.5t20.5 -5.5t15 -7.5t12 -5.5v118h-81q-13 0 -13 13q0 5 3.5 9t9.5 4h81v74h-6q-3 0 -10.5 -0.5t-10.5 -0.5q-7 0 -11.5 4.5t-4.5 11.5q0 4 5 4.5t23 0.5h11q6 0 18.5 0.5t20.5 0.5t19.5 -0.5t19 -1t14.5 -1t10.5 -2t3.5 -3.5q0 -5 -6 -9.5t-12 -4.5 q-2 0 -8 0.5t-12 0.5q0 -31 -1 -74h31q4 0 8 -4t4 -9q0 -10 -4.5 -11.5t-25.5 -1.5h-4.5h-4h-4.5v-121.5t-0.5 -151.5t-0.5 -144.5v-113v-45.5h3h40zM280 56v89v263q0 40 -17.5 62t-63.5 22q-19 0 -33 -12.5t-22 -33t-13 -48.5t-6.5 -60t-2.5 -65.5t0 -66.5v-37q0 -30 3 -53 t11 -47t26 -37.5t44 -13.5q37 0 55.5 12t18.5 26z" />
<glyph unicode="&#x112;" horiz-adv-x="454" d="M369 93q2 16 6.5 20.5t19.5 4.5q5 0 9 -19t6.5 -50t3.5 -37q-6 -13 -26 -13q-2 0 -20.5 2t-19.5 2q-76 -4 -165 -4q-119 0 -126 3q-5 2 -5 13q0 4 1.5 6.5t4 4t5.5 2.5t8.5 1h9.5h11h11v655h-15.5h-15t-10.5 1t-8 4.5t-2 9.5t4 10t10 4h2q36 1 123 1l165 -1q12 1 35 1 q18 0 23 -12q0 -4 -3.5 -38.5t-7 -51.5t-9.5 -17q-14 0 -19 4.5t-6 19.5q0 8 -1 22.5t-0.5 18t-2 12t-4 9t-7 4.5t-10.5 3t-17 0t-23 0t-30.5 -1.5t-38.5 -0.5q-42 0 -75 -2v-255h143q0 12 0.5 16.5t4 9.5t11.5 5q9 0 14.5 -3t8 -5t4 -11t1.5 -11v-14q0 -17 -2.5 -25.5 t-6.5 -11t-12 -2.5q-14 0 -17.5 3t-3 13t-2.5 17q-16 1 -52 1h-58h-33q0 -30 -1 -87.5t-1 -99.5q0 -183 3 -196q15 0 59.5 -0.5t67.5 -0.5q76 0 77 3q1 9 1.5 20t1.5 22.5t1 20.5zM331.5 827q6.5 0 11.5 -3t5 -7q0 -6 -7 -9.5t-19 -4.5t-22.5 -1t-25 1t-19.5 1h-21 q-11 0 -35.5 -1t-41.5 0q-9 0 -9 9q0 6 5 9.5t15.5 4.5t19.5 1t24 -0.5t22 -0.5h21q18 0 44 0.5t32.5 0.5z" />
<glyph unicode="&#x113;" horiz-adv-x="398" d="M123 251q-3 -101 -3 -105q1 -1 0 -7.5t1 -18t3.5 -25t7.5 -27.5t14 -25t21.5 -18.5t30.5 -7.5q18 0 32.5 5.5t23 12.5t15.5 17t10 17.5t6 16t4 9.5q9 25 20 25q12 0 18 -4.5t6 -9.5q0 -2 -7 -24q-14 -43 -48.5 -66t-75.5 -23q-63 0 -106 51q-19 22 -27 61t-8 146 q0 266 147 266q129 0 129 -202v-6q0 -12 -0.5 -17.5t-1.5 -14.5t-4 -13t-8.5 -7.5t-13.5 -3.5h-112q-69 0 -74 -2zM279 272q4 17 4 47t-4.5 59t-13 57t-24.5 45.5t-37 17.5q-71 -5 -74 -110q-1 -11 -2 -25t-1.5 -25t-1.5 -24.5t-1 -24.5q0 -3 0.5 -9.5t0.5 -9.5q52 0 154 2z M293 613q6 0 11 -3t5 -7q0 -6 -6.5 -9.5t-18.5 -4.5t-23 -1t-25.5 1t-19.5 1h-21q-10 0 -34.5 -1t-42.5 0q-9 0 -9 9q0 4 3 7t8.5 5t11.5 2.5t15 0.5h16t16.5 -0.5t15.5 -0.5h21q19 0 45 0.5t32 0.5z" />
<glyph unicode="&#x116;" horiz-adv-x="454" d="M369 93q2 16 6.5 20.5t19.5 4.5q5 0 9 -19t6.5 -50t3.5 -37q-6 -13 -26 -13q-2 0 -20.5 2t-19.5 2q-76 -4 -165 -4q-119 0 -126 3q-5 2 -5 13q0 4 1.5 6.5t4 4t5.5 2.5t8.5 1h9.5h11h11v655h-15.5h-15t-10.5 1t-8 4.5t-2 9.5t4 10t10 4h2q36 1 123 1l165 -1q12 1 35 1 q18 0 23 -12q0 -4 -3.5 -38.5t-7 -51.5t-9.5 -17q-14 0 -19 4.5t-6 19.5q0 8 -1 22.5t-0.5 18t-2 12t-4 9t-7 4.5t-10.5 3t-17 0t-23 0t-30.5 -1.5t-38.5 -0.5q-42 0 -75 -2v-255h143q0 12 0.5 16.5t4 9.5t11.5 5q9 0 14.5 -3t8 -5t4 -11t1.5 -11v-14q0 -17 -2.5 -25.5 t-6.5 -11t-12 -2.5q-14 0 -17.5 3t-3 13t-2.5 17q-16 1 -52 1h-58h-33q0 -30 -1 -87.5t-1 -99.5q0 -183 3 -196q15 0 59.5 -0.5t67.5 -0.5q76 0 77 3q1 9 1.5 20t1.5 22.5t1 20.5zM238 780q-13 0 -24.5 10.5t-11.5 23.5q0 19 18 32t40 13q10 0 22 -12.5t12 -19.5 q0 -14 -20.5 -30t-35.5 -17z" />
<glyph unicode="&#x117;" horiz-adv-x="398" d="M123 251q-3 -101 -3 -105q1 -1 0 -7.5t1 -18t3.5 -25t7.5 -27.5t14 -25t21.5 -18.5t30.5 -7.5q18 0 32.5 5.5t23 12.5t15.5 17t10 17.5t6 16t4 9.5q9 25 20 25q12 0 18 -4.5t6 -9.5q0 -2 -7 -24q-14 -43 -48.5 -66t-75.5 -23q-63 0 -106 51q-19 22 -27 61t-8 146 q0 266 147 266q129 0 129 -202v-6q0 -12 -0.5 -17.5t-1.5 -14.5t-4 -13t-8.5 -7.5t-13.5 -3.5h-112q-69 0 -74 -2zM279 272q4 17 4 47t-4.5 59t-13 57t-24.5 45.5t-37 17.5q-71 -5 -74 -110q-1 -11 -2 -25t-1.5 -25t-1.5 -24.5t-1 -24.5q0 -3 0.5 -9.5t0.5 -9.5q52 0 154 2z M199 586q-8 0 -16 4.5t-14 12.5t-6 17q0 19 18 32t40 13q10 0 22 -12.5t12 -19.5t-6 -15.5t-14.5 -15t-18.5 -11t-17 -5.5z" />
<glyph unicode="&#x118;" horiz-adv-x="454" d="M298 -147q-20 -13 -43 -13q-33 0 -50 18.5t-17 41.5q0 28 19 57t48 43q-19 -1 -72 -1q-119 0 -126 3q-5 2 -5 13q0 4 1.5 6.5t4 4t5.5 2.5t8.5 1h9.5h11h11v655h-15.5h-15t-10.5 1t-8 4.5t-2 9.5t4 10t10 4h2q36 1 123 1l165 -1q12 1 35 1q18 0 23 -12q0 -4 -3.5 -38.5 t-7 -51.5t-9.5 -17q-14 0 -19 4.5t-6 19.5q0 8 -1 22.5t-0.5 18t-2 12t-4 9t-7 4.5t-10.5 3t-17 0t-23 0t-30.5 -1.5t-38.5 -0.5q-42 0 -75 -2v-255h143q0 12 0.5 16.5t4 9.5t11.5 5q9 0 14.5 -3t8 -5t4 -11t1.5 -11v-14q0 -17 -2.5 -25.5t-6.5 -11t-12 -2.5q-14 0 -17.5 3 t-3 13t-2.5 17q-16 1 -52 1h-91q0 -30 -1 -87.5t-1 -99.5q0 -183 3 -196q15 0 59.5 -0.5t67.5 -0.5q76 0 77 3l4 63q2 16 6.5 20.5t19.5 4.5q5 0 9 -19t6.5 -50t3.5 -37q-6 -13 -26 -13q-2 0 -20.5 2t-19.5 2q-38 -3 -65 -3q-23 -14 -43 -41.5t-20 -47.5q0 -16 10.5 -26.5 t28.5 -10.5q24 0 39 16v-37z" />
<glyph unicode="&#x119;" horiz-adv-x="398" d="M253 -144q-20 -13 -43 -13q-32 0 -49.5 18.5t-17.5 41.5q0 24 14 49t38 41q-59 3 -99 51q-19 22 -27 61t-8 146q0 266 147 266q129 0 129 -202v-6q0 -12 -0.5 -17.5t-1.5 -14.5t-4 -13t-8.5 -7.5t-13.5 -3.5h-112q-69 0 -74 -2q-3 -101 -3 -105q1 -1 0 -7.5t1 -18 t3.5 -25t7.5 -27.5t14 -25t21.5 -18.5t30.5 -7.5q18 0 32.5 5.5t23 12.5t15.5 17t10 17.5t6 16t4 9.5q9 25 20 25q12 0 18 -4.5t6 -9.5q0 -2 -7 -24q-12 -36 -39 -58.5t-61 -28.5q-20 -16 -35.5 -39.5t-15.5 -41.5q0 -16 10.5 -26.5t28.5 -10.5q24 0 39 16v-37zM279 272 q4 17 4 47t-4.5 59t-13 57t-24.5 45.5t-37 17.5q-71 -5 -74 -110q-1 -11 -2 -25t-1.5 -25t-1.5 -24.5t-1 -24.5q0 -3 0.5 -9.5t0.5 -9.5q52 0 154 2z" />
<glyph unicode="&#x11a;" horiz-adv-x="454" d="M369 93q2 16 6.5 20.5t19.5 4.5q5 0 9 -19t6.5 -50t3.5 -37q-6 -13 -26 -13q-2 0 -20.5 2t-19.5 2q-76 -4 -165 -4q-119 0 -126 3q-5 2 -5 13q0 4 1.5 6.5t4 4t5.5 2.5t8.5 1h9.5h11h11v655h-15.5h-15t-10.5 1t-8 4.5t-2 9.5t4 10t10 4h2q36 1 123 1l165 -1q12 1 35 1 q18 0 23 -12q0 -4 -3.5 -38.5t-7 -51.5t-9.5 -17q-14 0 -19 4.5t-6 19.5q0 8 -1 22.5t-0.5 18t-2 12t-4 9t-7 4.5t-10.5 3t-17 0t-23 0t-30.5 -1.5t-38.5 -0.5q-42 0 -75 -2v-255h143q0 12 0.5 16.5t4 9.5t11.5 5q9 0 14.5 -3t8 -5t4 -11t1.5 -11v-14q0 -17 -2.5 -25.5 t-6.5 -11t-12 -2.5q-14 0 -17.5 3t-3 13t-2.5 17q-16 1 -52 1h-58h-33q0 -30 -1 -87.5t-1 -99.5q0 -183 3 -196q15 0 59.5 -0.5t67.5 -0.5q76 0 77 3q1 9 1.5 20t1.5 22.5t1 20.5zM254 824q6 5 19.5 21t25 27t18.5 11t10 -4.5t3 -9.5t-2 -7q-3 -6 -37 -49.5t-38 -47.5 l-67 105q0 6 4 10t8 5t5 1q8 0 16.5 -11t18 -27.5t16.5 -23.5z" />
<glyph unicode="&#x11b;" horiz-adv-x="398" d="M123 251q-3 -101 -3 -105q1 -1 0 -7.5t1 -18t3.5 -25t7.5 -27.5t14 -25t21.5 -18.5t30.5 -7.5q18 0 32.5 5.5t23 12.5t15.5 17t10 17.5t6 16t4 9.5q9 25 20 25q12 0 18 -4.5t6 -9.5q0 -2 -7 -24q-14 -43 -48.5 -66t-75.5 -23q-63 0 -106 51q-19 22 -27 61t-8 146 q0 266 147 266q129 0 129 -202v-6q0 -12 -0.5 -17.5t-1.5 -14.5t-4 -13t-8.5 -7.5t-13.5 -3.5h-112q-69 0 -74 -2zM279 272q4 17 4 47t-4.5 59t-13 57t-24.5 45.5t-37 17.5q-71 -5 -74 -110q-1 -11 -2 -25t-1.5 -25t-1.5 -24.5t-1 -24.5q0 -3 0.5 -9.5t0.5 -9.5q52 0 154 2z M205 630q5 5 15 16t17.5 20t16.5 16.5t14 7.5q7 0 10.5 -4.5t3.5 -10.5q0 -5 -3 -7q-3 -6 -37 -49.5t-38 -47.5l-67 105q0 6 4 10t8 5.5t5 1.5q6 0 13 -7.5t12 -17t12.5 -21t13.5 -17.5z" />
<glyph unicode="&#x11e;" horiz-adv-x="461" d="M418 333q12 -2 12 -14q0 -5 -3.5 -9t-8.5 -4h-28h-1h-7v-97v-87q0 -8 -0.5 -17t-8.5 -32t-22.5 -39.5t-45.5 -30t-73 -13.5q-27 0 -46 2.5t-35 11t-27 19t-19 31t-12 42.5t-7 58.5t-3.5 73.5t-0.5 92q0 79 3.5 171t9.5 118q13 109 136 114q79 0 114 -34t39 -103 q0 -12 -11 -18q-3 -2 -8 -2q-12 0 -17.5 14t-8.5 34t-10 40t-29 34t-59 14q-47 0 -69 -26.5t-27 -77.5l-10 -314q0 -5 -0.5 -16t-0.5 -17q0 -42 3.5 -79.5t13 -76.5t30 -62t49.5 -23q46 0 72 35.5t21 76.5v52v132h-8h-1h-26q-6 0 -10.5 4t-4.5 9.5t4.5 9.5t10.5 4h15 q62 0 86 -1q0 1 1 1h25h2h1zM166 804q31 -16 47 -16q10 0 20 3t18.5 8.5t15 13t10 17t3.5 20.5q0 13 -15.5 26.5t-28.5 13.5q-20 0 -40 -34q-16 9 -16 23q0 19 20.5 31.5t41.5 12.5q27 0 45.5 -10t25 -23.5t6.5 -29.5q0 -45 -29.5 -71.5t-59.5 -26.5q-19 0 -44 10t-25 21 q0 6 5 11z" />
<glyph unicode="&#x11f;" horiz-adv-x="375" d="M375 497q-2 -3 -14.5 -14t-19 -17t-15.5 -15t-13.5 -15t-4.5 -10q0 -13 3.5 -40t3.5 -41q0 -21 -7 -53l-3.5 -15.5t-6 -22t-8.5 -22.5t-13.5 -27t-18 -26t-26 -27.5t-33.5 -23.5q-20 -8 -43 -25.5t-23 -36.5q0 -8 15.5 -12t45 -6.5t45.5 -6.5q72 -24 72 -119 q0 -19 -4 -37t-14.5 -37t-33.5 -30.5t-56 -11.5q-52 0 -88 29.5t-36 88.5q3 32 32 32q1 0 4 -0.5t4 -0.5q0 -6 -2 -19.5t-2 -21.5q0 -16 7 -29.5t17.5 -22t24 -14.5t26.5 -8.5t25 -2.5q21 0 38.5 16t17.5 38q0 18 -3 33.5t-8.5 26.5t-12 19.5t-16 14.5t-17 9.5t-17.5 6 t-16 3.5t-14.5 2t-10.5 1t-5 1q-21 4 -31 6.5t-18.5 11t-8.5 22.5q0 34 66 78q-68 19 -93 58.5t-25 123.5q0 88 46 147.5t133 59.5q46 0 70 -31q5 -8 11 -8q12 0 32.5 15t22.5 15q4 0 19 -9zM280 321v6q-9 156 -96 156q-44 0 -71.5 -35.5t-27.5 -103.5q0 -56 16 -106 q16 -26 41 -41.5t54 -15.5q37 0 60.5 39.5t23.5 91.5v9zM123 610q31 -15 47 -15q27 0 47.5 17t20.5 44q0 13 -16 27t-29 14q-20 0 -40 -35q-16 9 -16 23q0 19 20.5 31.5t41.5 12.5q27 0 45.5 -10t25 -23.5t6.5 -29.5q0 -24 -9 -43t-22.5 -30.5t-29 -18t-28.5 -6.5 q-19 0 -44 10.5t-25 20.5q0 6 5 11z" />
<glyph unicode="&#x122;" horiz-adv-x="461" d="M418 333q12 -2 12 -14q0 -5 -3.5 -9t-8.5 -4h-28h-1h-7v-97v-87q0 -8 -0.5 -17t-8.5 -32t-22.5 -39.5t-45.5 -30t-73 -13.5q-27 0 -46 2.5t-35 11t-27 19t-19 31t-12 42.5t-7 58.5t-3.5 73.5t-0.5 92q0 79 3.5 171t9.5 118q13 109 136 114q79 0 114 -34t39 -103 q0 -12 -11 -18q-3 -2 -8 -2q-12 0 -17.5 14t-8.5 34t-10 40t-29 34t-59 14q-47 0 -69 -26.5t-27 -77.5l-10 -314q0 -5 -0.5 -16t-0.5 -17q0 -42 3.5 -79.5t13 -76.5t30 -62t49.5 -23q46 0 72 35.5t21 76.5v52v132h-8h-1h-26q-6 0 -10.5 4t-4.5 9.5t4.5 9.5t10.5 4h15 q62 0 86 -1q0 1 1 1h25h2h1zM191 -218q4 4 20 18.5t22 25t6 25.5q-43 9 -43 35q0 12 13 27.5t29 15.5q13 0 22.5 -14t9.5 -29q-2 -23 -9.5 -42.5t-25.5 -37.5t-44 -24z" />
<glyph unicode="&#x123;" horiz-adv-x="375" d="M239 725l-11.5 -11.5t-11.5 -11t-10 -10.5t-8.5 -11t-5.5 -12t-2 -15q14 -3 23 -6.5t15 -10.5t6 -18q0 -13 -14 -28t-27 -15q-16 0 -26.5 12t-10.5 27q0 22 8 43.5t27.5 40.5t47.5 26zM375 497q-2 -3 -14.5 -14t-19 -17t-15.5 -15t-13.5 -15t-4.5 -10q0 -13 3.5 -40 t3.5 -41q0 -21 -7 -53l-3.5 -15.5t-6 -22t-8.5 -22.5t-13.5 -27t-18 -26t-26 -27.5t-33.5 -23.5q-20 -8 -43 -25.5t-23 -36.5q0 -8 15.5 -12t45 -6.5t45.5 -6.5q72 -24 72 -119q0 -19 -4 -37t-14.5 -37t-33.5 -30.5t-56 -11.5q-52 0 -88 29.5t-36 88.5q3 32 32 32 q1 0 4 -0.5t4 -0.5q0 -6 -2 -19.5t-2 -21.5q0 -16 7 -29.5t17.5 -22t24 -14.5t26.5 -8.5t25 -2.5q21 0 38.5 16t17.5 38q0 18 -3 33.5t-8.5 26.5t-12 19.5t-16 14.5t-17 9.5t-17.5 6t-16 3.5t-14.5 2t-10.5 1t-5 1q-21 4 -31 6.5t-18.5 11t-8.5 22.5q0 34 66 78 q-68 19 -93 58.5t-25 123.5q0 88 46 147.5t133 59.5q46 0 70 -31q5 -8 11 -8q12 0 32.5 15t22.5 15q4 0 19 -9zM280 321v6q-9 156 -96 156q-44 0 -71.5 -35.5t-27.5 -103.5q0 -56 16 -106q16 -26 41 -41.5t54 -15.5q37 0 60.5 39.5t23.5 91.5v9z" />
<glyph unicode="&#x12a;" horiz-adv-x="261" d="M196 28q5 0 9 -4t4 -9.5t-4 -10t-9 -4.5v0h-3h-28h-84h-17q-5 0 -8.5 4t-3.5 9q0 15 12 15h29h1h6q1 28 1 206v119.5t-0.5 121t-0.5 103v76v28.5h-6h-1h-29q-12 0 -12 15t12 15h17q14 0 44 -0.5t40 -0.5v1h28h3v-1q13 0 13 -14q0 -6 -4 -10.5t-9 -4.5h-31h-6v-654h6h31z M214 817q4 0 8 -1.5t6.5 -4t2.5 -4.5q0 -5 -4 -8t-10.5 -4.5t-14 -2t-17 -0.5t-17.5 0.5t-17 1t-13 0.5h-22q-10 0 -34.5 -1t-41.5 0q-9 0 -9 9q0 6 5 9.5t15.5 4.5t19.5 1t24 -0.5t21 -0.5h22q18 0 44 0.5t32 0.5z" />
<glyph unicode="&#x12b;" horiz-adv-x="240" d="M150 17h11h21h2q12 1 12 -8q0 -4 -6 -6t-17 -2.5t-20 -1t-22.5 0t-16.5 0.5q-2 0 -12.5 -0.5t-19 -0.5t-18.5 0.5t-15.5 2.5t-5.5 6q0 6 7.5 8t17 1.5t18.5 -0.5v476h-11h-18q-9 0 -12.5 2t-3.5 9q0 9 11 9q2 0 7.5 -0.5t8.5 -0.5q76 2 117 2q14 0 14 -9q0 -7 -8 -12h-41 q-1 -51 -1 -158q0 -55 0.5 -161.5t0.5 -156.5zM204 623q6 0 11 -3t5 -7q0 -6 -6.5 -9.5t-18.5 -4.5t-23 -1t-25 1t-19 1h-22q-10 0 -34.5 -1t-41.5 0q-10 0 -10 9q0 6 5.5 9.5t16 4.5t19.5 1t24 -0.5t21 -0.5h22q18 0 44 0.5t32 0.5z" />
<glyph unicode="&#x12e;" horiz-adv-x="259" d="M173 -144q-19 -13 -42 -13q-33 0 -50.5 18.5t-17.5 41.5q0 27 17.5 54.5t45.5 42.5h-63q-5 0 -8.5 4t-3.5 9q0 15 12 15h36q1 28 1 206v119.5t-0.5 121t-0.5 103v76v28.5h-36q-12 0 -12 15t12 15h17q14 0 44 -0.5t40 -0.5v1h31v-1q13 0 13 -14q0 -6 -4 -10.5t-9 -4.5h-37 v-654h37q5 0 9 -4t4 -9.5t-4 -10t-9 -4.5h-41q-22 -14 -40 -40t-18 -46q0 -16 10.5 -26.5t28.5 -10.5q24 0 38 16v-37z" />
<glyph unicode="&#x12f;" horiz-adv-x="239" d="M162 -144q-20 -13 -43 -13q-32 0 -49.5 18.5t-17.5 41.5q0 27 17.5 54.5t45.5 42.5h-1q-2 0 -12.5 -0.5t-19 -0.5t-18.5 0.5t-15.5 2.5t-5.5 6q0 6 7.5 8t17 1.5t18.5 -0.5v476h-29q-9 0 -12.5 2t-3.5 9q0 9 11 9q2 0 7.5 -0.5t8.5 -0.5q76 2 117 2q14 0 14 -9 q0 -7 -8 -12h-41q-1 -51 -1 -158q0 -55 0.5 -161.5t0.5 -156.5h32h2q12 1 12 -8q0 -11 -54 -9q-14 -10 -27 -25t-21.5 -31.5t-8.5 -29.5q0 -16 10 -26.5t28 -10.5q24 0 39 16v-37zM112 577q-16 1 -24.5 10.5t-8.5 24.5q0 20 12.5 33t31.5 13q14 0 22 -3t11.5 -10.5 t3.5 -21.5q0 -20 -14.5 -33t-33.5 -13z" />
<glyph unicode="&#x130;" horiz-adv-x="259" d="M195 28q5 0 9 -4t4 -9.5t-4 -10t-9 -4.5v0h-3h-28h-84h-17q-5 0 -8.5 4t-3.5 9q0 15 12 15h29h1h6q1 28 1 206v119.5t-0.5 121t-0.5 103v76v28.5h-6h-1h-29q-12 0 -12 15t12 15h17q14 0 44 -0.5t40 -0.5v1h28h3v-1q13 0 13 -14q0 -6 -4 -10.5t-9 -4.5h-31h-6v-654h6h31z M130 780q-13 0 -24.5 10.5t-11.5 23.5q0 9 5 17.5t13 14.5t18.5 9.5t21.5 3.5q10 0 22 -12.5t12 -19.5q0 -14 -20.5 -30t-35.5 -17z" />
<glyph unicode="&#x131;" horiz-adv-x="239" d="M150 17h11h21h2q12 1 12 -8q0 -4 -6 -6t-17 -2.5t-20 -1t-22.5 0t-16.5 0.5q-2 0 -12.5 -0.5t-19 -0.5t-18.5 0.5t-15.5 2.5t-5.5 6q0 6 7.5 8t17 1.5t18.5 -0.5v476h-11h-18q-9 0 -12.5 2t-3.5 9q0 9 11 9q2 0 7.5 -0.5t8.5 -0.5q76 2 117 2q14 0 14 -9q0 -7 -8 -12h-41 q-1 -51 -1 -158q0 -55 0.5 -161.5t0.5 -156.5z" />
<glyph unicode="&#x136;" horiz-adv-x="525" d="M512 27q5 0 9 -4t4 -10q0 -5 -4 -9t-9 -4h-2h-28h-85h-16q-3 0 -6 2t-5 5t-2 6q0 6 4 10t9 4h28h1h6q-34 84 -190 418q-13 -13 -34.5 -36t-33.5 -34q1 -123 1 -347h5h1h31q4 0 7.5 -4t3.5 -10q0 -14 -11 -14h1h-2h-30h-84h-17q-5 0 -9 4t-4 9q0 6 4 10.5t9 4.5h29h7 q1 28 1 88q0 31 -0.5 92.5t-0.5 90.5v281v102h-7h-29q-5 0 -9 4.5t-4 10.5q0 4 2 7.5t5 5.5t6 2h17q15 0 44 -0.5t39 -0.5l1 1h30h2q0 -1 -1 -1q11 0 11 -14q0 -3 -0.5 -5t-1.5 -4t-2.5 -3l-3 -2t-3.5 -1h-31h-1h-5v-50t-0.5 -112.5t-0.5 -93.5q23 23 49.5 49t50 50l47 48 t42 43t33 34.5t22.5 23.5l8 8h-1h-28q-5 0 -9 4.5t-4 10.5t4 10t9 4h16h85h28h2q5 0 9 -4t4 -10t-4 -10.5t-9 -4.5h-62q-6 -12 -192 -204q14 -32 35.5 -80t44 -96t45.5 -97.5t41.5 -88t31 -63t13.5 -26.5h43zM233 -218q4 4 20 18.5t21.5 25t5.5 25.5q-42 9 -42 35 q0 7 5.5 17t15.5 18t20 8q14 0 23.5 -14t9.5 -29q-4 -37 -22.5 -66t-56.5 -38z" />
<glyph unicode="&#x137;" horiz-adv-x="452" d="M453 9q0 -11 -71 -11q-100 0 -100 6q0 7 5 10t11.5 2.5t16.5 -0.5t17 2q-88 172 -150 276q-6 -7 -20 -23.5t-21 -24.5v-229h11h20q14 0 14 -8q0 -4 -6 -6t-17 -2.5t-19.5 -1t-21.5 0t-17 0.5q-2 0 -12.5 -0.5t-19.5 -0.5t-19 0.5t-16 2.5t-6 6q0 6 8 8t18.5 1.5 t19.5 -0.5q0 2 -1 74t-1 131q0 57 0.5 127t0.5 130v111.5t0.5 83.5t0.5 34h-30q-17 0 -17 8q0 11 9 11q2 0 8 -0.5t10 -0.5q113 3 114 3q18 0 18 -9q0 -8 -9 -12h-40v-414q1 -1 3 -2q113 121 176 189q0 2 4 7t4 6q-3 0 -14 -1t-16 -1q-13 0 -19 10q0 2 5 6.5t10 4.5h6 q11 1 34 1h43q5 0 14 0.5t14 0.5q16 0 16 -8q0 -15 -18 -15q-4 0 -11.5 1t-10.5 1q-14 0 -27 -7t-19 -13.5t-19 -22.5q-8 -10 -24.5 -28t-28.5 -30.5t-21.5 -26.5t-9.5 -21t5 -18q28 -56 80.5 -159t73.5 -144q8 -8 24 -8q3 0 8.5 0.5t7.5 0.5q21 0 22 -8zM176 -228 q5 4 21 18.5t21.5 25t5.5 25.5q-42 8 -42 35q0 12 13 27t28 15q14 0 23.5 -13.5t9.5 -28.5q-4 -37 -22.5 -66t-57.5 -38z" />
<glyph unicode="&#x139;" horiz-adv-x="426" d="M394 118q8 -67 12 -106q-7 -13 -28 -13q-9 1 -285 1h-31q-4 0 -7.5 4.5t-3.5 9.5q0 14 11 14h31q2 0 3 1.5t1.5 6t1 10t1 14.5t0.5 18.5t-0.5 23.5t-0.5 27.5v32.5v37v485h-6h-31q-3 0 -5.5 2.5t-4 5.5t-1.5 7q0 6 3.5 10.5t7.5 4.5h124q5 0 8.5 -4.5t3.5 -10.5 t-3.5 -10.5t-8.5 -4.5h-29q-1 -4 -1 -237v-85t0.5 -68.5t0.5 -52.5t0.5 -40t0.5 -27.5v-17.5v-8q0 -13 -0.5 -40t-0.5 -41v-20.5t2.5 -14t6 -10t13 -4t20 -3t31.5 -0.5q70 0 120 7l5 2q1 0 2 5t1.5 13.5l1 17t1.5 18.5t1 15q2 17 7 21t25 4zM211 879q-63 -106 -87 -106 q-4 0 -7.5 5.5t-3.5 10.5q0 10 8 27.5t20.5 42t14.5 27.5q6 16 25 16q21 0 30 -23z" />
<glyph unicode="&#x13a;" horiz-adv-x="240" d="M86 708h-26q-10 0 -14.5 2t-4.5 10q0 7 9 7q2 0 8.5 -0.5t9.5 -0.5q12 1 29.5 1.5t30 1t28.5 0.5h30t14 -10q0 -2 -1 -4t-3.5 -3l-5 -2t-6 -1.5t-6.5 -0.5h-7.5h-7.5h-7h-6q0 -21 -0.5 -57t-0.5 -78.5v-78.5q0 -95 0.5 -265t0.5 -212h11h21q14 0 14 -9q0 -3 -6 -5t-17 -3 t-20.5 -1t-22 0.5t-16.5 0.5q-2 0 -12.5 -0.5t-19 -0.5t-18.5 0.5t-15.5 2.5t-5.5 5q0 4 2.5 6t7 3t10 1h11.5h12v691zM210 879q-63 -106 -87 -106q-4 0 -7.5 5.5t-3.5 10.5q0 8 5.5 22t12 26.5t15 28t10.5 20.5q6 16 25 16q21 0 30 -23z" />
<glyph unicode="&#x13b;" horiz-adv-x="426" d="M394 118q8 -67 12 -106q-7 -13 -28 -13q-9 1 -285 1h-31q-4 0 -7.5 4.5t-3.5 9.5q0 14 11 14h31q2 0 3 1.5t1.5 6t1 10t1 14.5t0.5 18.5t-0.5 23.5t-0.5 27.5v32.5v37v485h-6h-31q-3 0 -5.5 2.5t-4 5.5t-1.5 7q0 6 3.5 10.5t7.5 4.5h124q5 0 8.5 -4.5t3.5 -10.5 t-3.5 -10.5t-8.5 -4.5h-29q-1 -4 -1 -237v-85t0.5 -68.5t0.5 -52.5t0.5 -40t0.5 -27.5v-17.5v-8q0 -13 -0.5 -40t-0.5 -41v-20.5t2.5 -14t6 -10t13 -4t20 -3t31.5 -0.5q70 0 120 7l5 2q1 0 2 5t1.5 13.5l1 17t1.5 18.5t1 15q2 17 7 21t25 4zM194 -228q5 6 15.5 15.5 t16.5 15.5t11 16t5 22q-43 8 -43 35q0 7 5.5 17t15.5 17.5t21 7.5q13 0 22.5 -13.5t9.5 -28.5q-3 -37 -22 -66t-57 -38z" />
<glyph unicode="&#x13c;" horiz-adv-x="240" d="M86 708h-26q-10 0 -14.5 2t-4.5 10q0 7 9 7q2 0 8.5 -0.5t9.5 -0.5q12 1 29.5 1.5t30 1t28.5 0.5h30t14 -10q0 -2 -1 -4t-3.5 -3l-5 -2t-6 -1.5t-6.5 -0.5h-7.5h-7.5h-7h-6q0 -21 -0.5 -57t-0.5 -78.5v-78.5q0 -95 0.5 -265t0.5 -212h11h21q14 0 14 -9q0 -3 -6 -5t-17 -3 t-20.5 -1t-22 0.5t-16.5 0.5q-2 0 -12.5 -0.5t-19 -0.5t-18.5 0.5t-15.5 2.5t-5.5 5q0 4 2.5 6t7 3t10 1h11.5h12v691zM81 -228q4 4 20 18.5t22 25t6 25.5q-43 8 -43 35q0 12 13 27t29 15q13 0 22.5 -13.5t9.5 -28.5q-4 -37 -22.5 -66t-56.5 -38z" />
<glyph unicode="&#x13d;" horiz-adv-x="426" d="M394 118q8 -67 12 -106q-7 -13 -28 -13q-9 1 -285 1h-31q-4 0 -7.5 4.5t-3.5 9.5q0 14 11 14h31q2 0 3 1.5t1.5 6t1 10t1 14.5t0.5 18.5t-0.5 23.5t-0.5 27.5v32.5v37v485h-6h-31q-3 0 -5.5 2.5t-4 5.5t-1.5 7q0 6 3.5 10.5t7.5 4.5h124q5 0 8.5 -4.5t3.5 -10.5 t-3.5 -10.5t-8.5 -4.5h-29q-1 -4 -1 -237v-85t0.5 -68.5t0.5 -52.5t0.5 -40t0.5 -27.5v-17.5v-8q0 -13 -0.5 -40t-0.5 -41v-20.5t2.5 -14t6 -10t13 -4t20 -3t31.5 -0.5q70 0 120 7l5 2q1 0 2 5t1.5 13.5l1 17t1.5 18.5t1 15q2 17 7 21t25 4zM243 566q6 7 21 21.5t21.5 25 t6.5 25.5q-23 4 -33.5 11.5t-10.5 22.5q0 13 13.5 28t27.5 15q15 0 25.5 -12t10.5 -27q0 -22 -7.5 -43t-27 -40.5t-47.5 -26.5z" />
<glyph unicode="&#x13e;" horiz-adv-x="251" d="M86 708h-26q-10 0 -14.5 2t-4.5 10q0 7 9 7q2 0 8.5 -0.5t9.5 -0.5q12 1 29.5 1.5t30 1t28.5 0.5h30t14 -10q0 -2 -1 -4t-3.5 -3l-5 -2t-6 -1.5t-6.5 -0.5h-7.5h-7.5h-7h-6q0 -21 -0.5 -57t-0.5 -78.5v-78.5q0 -95 0.5 -265t0.5 -212h11h21q14 0 14 -9q0 -3 -6 -5t-17 -3 t-20.5 -1t-22 0.5t-16.5 0.5q-2 0 -12.5 -0.5t-19 -0.5t-18.5 0.5t-15.5 2.5t-5.5 5q0 4 2.5 6t7 3t10 1h11.5h12v691zM200 566q6 7 21 21.5t21.5 25t6.5 25.5q-22 4 -33 11.5t-11 22.5q0 13 13.5 28t27.5 15q15 0 26 -12t11 -27q0 -35 -21 -67t-62 -43z" />
<glyph unicode="&#x141;" horiz-adv-x="444" d="M411 105q4 -32 13 -106l-177 -1h-136h-28q-14 0 -14 14.5t14 14.5h28h6q2 9 2 321q-19 -17 -65 -51q-13 9 -13 21q0 8 8.5 17.5t19.5 18.5t25.5 22.5t23.5 26.5q0 44 -0.5 162l-0.5 118h-6h-28q-4 0 -7.5 2t-5.5 5t-2 7q0 14 15 14h121q13 0 13 -14q0 -6 -4 -10t-9 -4 h-26h-1q0 -3 0.5 -116l0.5 -113q17 15 29.5 26.5t26 24.5t27.5 25q2 1 7 1t9 -2.5t6.5 -6.5t2.5 -10q0 -14 -26.5 -40t-53 -47t-26.5 -24q-3 -21 -3 -358q0 -20 13 -25t63 -5q14 0 31.5 0.5t32 1t27 1t20 1l7.5 0.5q1 8 2 24t2 25t4 19.5t9 15t15 4.5h8z" />
<glyph unicode="&#x142;" horiz-adv-x="278" d="M230 530q1 0 2.5 0.5t2.5 0.5q13 0 13 -16q0 -5 -7 -16t-18 -24.5t-21 -25.5t-21 -24t-13 -14v-395h31l3 0.5t5 0t4.5 -1t4 -2.5t1.5 -6t-11 -6.5t-31.5 -3.5t-38 -1t-41 0.5t-30.5 0.5q-2 8 -2 10q0 7 9 8.5t19 0.5t18 0v329q-4 -5 -11.5 -13.5t-10.5 -11t-8 -8.5 t-8 -8.5t-7.5 -6.5t-8.5 -7.5t-10 -7.5q-14 1 -14 15q0 5 15.5 23.5t36 41t26.5 32.5v90v81t-0.5 63t-0.5 44.5v17.5h-12h-14q-21 0 -21 11t12 11h12q19 0 59 1t61 1q14 0 14 -11q0 -4 -1.5 -6.5t-4.5 -4t-6.5 -2.5t-9 -1h-9.5t-10 0.5t-10 0.5q0 -9 -0.5 -29.5t-0.5 -32.5 q0 -20 0.5 -73.5t0.5 -86.5q41 39 62 62z" />
<glyph unicode="&#x143;" horiz-adv-x="651" d="M585 718q7 0 11.5 -4.5t4.5 -10.5q0 -5 -4.5 -10t-11.5 -5h-52q0 -9 3 -159.5t3 -366.5v-27.5v-27v-24.5t-0.5 -23.5t-1 -19.5t-1.5 -16.5t-2 -12.5t-3 -8.5t-5 -2.5q-3 4 -89.5 142.5t-177.5 280.5t-121 183q0 -30 6 -568q0 -1 -0.5 -4.5t-0.5 -5.5h54q5 0 9 -4t4 -10 q0 -3 -1.5 -6.5t-5 -5.5t-6.5 -2h1h-3h-29h-83h-17q-6 0 -10.5 4.5t-4.5 10t4.5 9.5t10.5 4h51v270q0 5 -3 119t-3 181q0 106 9 117q2 3 4 3q1 0 89 -140.5t176.5 -279t119.5 -180.5q1 4 1 84v76.5t-0.5 89t-1 91.5t-0.5 87.5t-0.5 72t-0.5 50.5v19h-50q-6 0 -10.5 5 t-4.5 10q0 4 2 7.5t5 5.5t7 2h-1h3h28h83h16zM425 869q-63 -106 -86 -106q-5 0 -8.5 5.5t-3.5 10.5q0 7 5.5 21t12 27t15 28.5t10.5 20.5q6 15 25 15q21 0 30 -22z" />
<glyph unicode="&#x144;" horiz-adv-x="498" d="M465 17q3 -4 3 -8t-6 -6t-17 -2.5t-20.5 -1t-22.5 0t-16 0.5t-13.5 -0.5t-19 -0.5t-18.5 0.5t-15.5 2.5t-5.5 6q0 3 2.5 5t7.5 3t10 1h12.5h11.5q0 23 0.5 177.5t0.5 156.5l-1.5 16.5t-3 20t-6 23.5t-11.5 21.5t-18 19.5t-25.5 12.5t-35.5 5.5q-27 0 -49 -13t-36 -34.5 t-23 -43.5t-13 -44v-318h12h22q14 0 14 -8q0 -4 -6 -6t-17 -2.5t-20 -1t-22 0t-16 0.5t-13.5 -0.5t-19 -0.5t-18.5 0.5t-15.5 2.5t-5.5 6q0 6 8 8t18 1.5t18 -0.5v476h-10h-19q-16 0 -16 10t9 10q2 0 7.5 -0.5t9.5 -0.5q14 1 40.5 1.5t40.5 0.5q-1 -73 -1 -98q15 28 46 52.5 t76 24.5q80 0 119 -35.5t42 -106.5q1 -16 1 -334h13h21h10zM339 675q-63 -106 -87 -106q-5 0 -8 5.5t-3 10.5q0 8 5.5 22t12 26.5t14.5 28t11 20.5q6 16 24 16q22 0 31 -23z" />
<glyph unicode="&#x145;" horiz-adv-x="651" d="M585 718q7 0 11.5 -4.5t4.5 -10.5q0 -5 -4.5 -10t-11.5 -5h-52q0 -9 3 -159.5t3 -366.5v-27.5v-27v-24.5t-0.5 -23.5t-1 -19.5t-1.5 -16.5t-2 -12.5t-3 -8.5t-5 -2.5q-3 4 -89.5 142.5t-177.5 280.5t-121 183q0 -30 6 -568q0 -1 -0.5 -4.5t-0.5 -5.5h54q5 0 9 -4t4 -10 q0 -3 -1.5 -6.5t-5 -5.5t-6.5 -2h1h-3h-29h-83h-17q-6 0 -10.5 4.5t-4.5 10t4.5 9.5t10.5 4h51v270q0 5 -3 119t-3 181q0 106 9 117q2 3 4 3q1 0 89 -140.5t176.5 -279t119.5 -180.5q1 4 1 84v76.5t-0.5 89t-1 91.5t-0.5 87.5t-0.5 72t-0.5 50.5v19h-50q-6 0 -10.5 5 t-4.5 10q0 4 2 7.5t5 5.5t7 2h-1h3h28h83h16zM286 -218q4 4 20 18.5t22 25t6 25.5q-43 9 -43 35q0 12 13 27.5t29 15.5q13 0 22.5 -14t9.5 -29q-3 -37 -22 -66t-57 -38z" />
<glyph unicode="&#x146;" horiz-adv-x="498" d="M465 17q3 -4 3 -8t-6 -6t-17 -2.5t-20.5 -1t-22.5 0t-16 0.5t-13.5 -0.5t-19 -0.5t-18.5 0.5t-15.5 2.5t-5.5 6q0 3 2.5 5t7.5 3t10 1h12.5h11.5q0 23 0.5 177.5t0.5 156.5l-1.5 16.5t-3 20t-6 23.5t-11.5 21.5t-18 19.5t-25.5 12.5t-35.5 5.5q-27 0 -49 -13t-36 -34.5 t-23 -43.5t-13 -44v-318h12h22q14 0 14 -8q0 -4 -6 -6t-17 -2.5t-20 -1t-22 0t-16 0.5t-13.5 -0.5t-19 -0.5t-18.5 0.5t-15.5 2.5t-5.5 6q0 6 8 8t18 1.5t18 -0.5v476h-10h-19q-16 0 -16 10t9 10q2 0 7.5 -0.5t9.5 -0.5q14 1 40.5 1.5t40.5 0.5q-1 -73 -1 -98q15 28 46 52.5 t76 24.5q80 0 119 -35.5t42 -106.5q1 -16 1 -334h13h21h10zM209 -228q4 4 20 18.5t22 25t6 25.5q-43 8 -43 35q0 12 13 27t29 15q9 0 17 -6.5t12 -16.5t4 -19q-4 -37 -23 -66t-57 -38z" />
<glyph unicode="&#x147;" horiz-adv-x="651" d="M585 718q7 0 11.5 -4.5t4.5 -10.5q0 -5 -4.5 -10t-11.5 -5h-52q0 -9 3 -159.5t3 -366.5v-27.5v-27v-24.5t-0.5 -23.5t-1 -19.5t-1.5 -16.5t-2 -12.5t-3 -8.5t-5 -2.5q-3 4 -89.5 142.5t-177.5 280.5t-121 183q0 -30 6 -568q0 -1 -0.5 -4.5t-0.5 -5.5h54q5 0 9 -4t4 -10 q0 -3 -1.5 -6.5t-5 -5.5t-6.5 -2h1h-3h-29h-83h-17q-6 0 -10.5 4.5t-4.5 10t4.5 9.5t10.5 4h51v270q0 5 -3 119t-3 181q0 106 9 117q2 3 4 3q1 0 89 -140.5t176.5 -279t119.5 -180.5q1 4 1 84v76.5t-0.5 89t-1 91.5t-0.5 87.5t-0.5 72t-0.5 50.5v19h-50q-6 0 -10.5 5 t-4.5 10q0 4 2 7.5t5 5.5t7 2h-1h3h28h83h16zM332 824q5 5 14.5 16t17.5 20t16.5 16t14.5 7t9.5 -4.5t3.5 -9.5t-2 -7q-4 -6 -38 -49.5t-38 -47.5l-67 105q0 6 4.5 10t8 5t4.5 1q9 0 17 -11t17.5 -27.5t17.5 -23.5z" />
<glyph unicode="&#x148;" horiz-adv-x="498" d="M465 17q3 -4 3 -8t-6 -6t-17 -2.5t-20.5 -1t-22.5 0t-16 0.5t-13.5 -0.5t-19 -0.5t-18.5 0.5t-15.5 2.5t-5.5 6q0 3 2.5 5t7.5 3t10 1h12.5h11.5q0 23 0.5 177.5t0.5 156.5l-1.5 16.5t-3 20t-6 23.5t-11.5 21.5t-18 19.5t-25.5 12.5t-35.5 5.5q-27 0 -49 -13t-36 -34.5 t-23 -43.5t-13 -44v-318h12h22q14 0 14 -8q0 -4 -6 -6t-17 -2.5t-20 -1t-22 0t-16 0.5t-13.5 -0.5t-19 -0.5t-18.5 0.5t-15.5 2.5t-5.5 6q0 6 8 8t18 1.5t18 -0.5v476h-10h-19q-16 0 -16 10t9 10q2 0 7.5 -0.5t9.5 -0.5q14 1 40.5 1.5t40.5 0.5q-1 -73 -1 -98q15 28 46 52.5 t76 24.5q80 0 119 -35.5t42 -106.5q1 -16 1 -334h13h21h10zM255 630q6 6 19.5 22t25 27t18.5 11q4 0 6.5 -1.5t4 -3.5t2.5 -4.5t1 -5.5q0 -5 -3 -7q-3 -6 -37 -49.5t-38 -47.5l-67 105q0 6 4 10t8 5.5t5 1.5q5 0 10.5 -5t10 -12.5t9 -15.5t10.5 -16.5t11 -13.5z" />
<glyph unicode="&#x14c;" horiz-adv-x="517" d="M83 300q2 25 2.5 54t0.5 67t1 54q0 57 14 102t34 72.5t46 45.5t49 25t43 7q45 0 84.5 -26.5t51.5 -67.5q27 -89 27 -267q0 -78 -15 -164q-6 -37 -13 -64t-21.5 -57.5t-34 -49t-51 -31t-71.5 -12.5q-32 0 -56 9t-39 25.5t-26 38.5t-16 47.5t-8 53.5t-2.5 55.5t-0.5 54.5 q1 6 1 9.5v9v9.5zM370 432v4q0 41 -12 164q-3 35 -29.5 64t-63.5 29q-21 0 -38 -7.5t-29 -21t-20.5 -30.5t-14 -39.5t-8.5 -43.5t-4.5 -47.5t-2 -47t-1 -45.5t-1.5 -41q-3 -44 -3 -154q0 -67 7 -135q5 -29 35 -46.5t59 -17.5q40 0 70.5 20t40.5 61q17 71 17 241q0 67 -2 93z M353 827q6 0 11 -3t5 -7q0 -6 -6.5 -9.5t-18.5 -4.5t-23 -1t-25 1t-20 1h-21q-10 0 -34.5 -1t-42.5 0q-9 0 -9 9q0 6 5.5 9.5t16 4.5t19.5 1t23.5 -0.5t21.5 -0.5h21q19 0 45 0.5t32 0.5z" />
<glyph unicode="&#x14d;" horiz-adv-x="416" d="M210 -14q-24 0 -44.5 6t-35 17t-26 25t-18.5 31t-12.5 34t-8 36t-3.5 34.5t-1 31.5q0 28 1 47.5t1 27.5q0 248 144 248q27 0 49 -7.5t37 -22.5t26 -31t17.5 -39t11 -41t5.5 -42.5t1.5 -37.5t0 -31.5t-0.5 -19.5v-5.5t0.5 -15t0.5 -19.5q0 -27 -2.5 -52t-11.5 -58t-24 -57 t-42.5 -41.5t-64.5 -17.5zM286 233q0 42 -1.5 74.5t-6 71t-12.5 63.5t-23 42t-35 17q-23 0 -38.5 -15.5t-22.5 -43t-9.5 -54t-2.5 -61.5q0 -16 0.5 -41.5t0.5 -33.5q0 -7 -0.5 -29t-0.5 -36q0 -173 79 -173q73 7 73 158q0 15 -0.5 35.5t-0.5 25.5zM302 623q6 0 11 -3t5 -7 t-3.5 -7.5t-10 -4.5t-14 -2t-17.5 -1t-17.5 0.5t-16.5 1t-14 0.5h-21q-10 0 -34.5 -1t-41.5 0q-10 0 -10 9q0 6 5.5 9.5t16 4.5t19.5 1t23.5 -0.5t21.5 -0.5h21q19 0 45 0.5t32 0.5z" />
<glyph unicode="&#x150;" horiz-adv-x="517" d="M83 300q2 25 2.5 54t0.5 67t1 54q0 57 14 102t34 72.5t46 45.5t49 25t43 7q45 0 84.5 -26.5t51.5 -67.5q27 -89 27 -267q0 -78 -15 -164q-6 -37 -13 -64t-21.5 -57.5t-34 -49t-51 -31t-71.5 -12.5q-32 0 -56 9t-39 25.5t-26 38.5t-16 47.5t-8 53.5t-2.5 55.5t-0.5 54.5 q1 6 1 9.5v9v9.5zM370 432v4q0 41 -12 164q-3 35 -29.5 64t-63.5 29q-21 0 -38 -7.5t-29 -21t-20.5 -30.5t-14 -39.5t-8.5 -43.5t-4.5 -47.5t-2 -47t-1 -45.5t-1.5 -41q-3 -44 -3 -154q0 -67 7 -135q5 -29 35 -46.5t59 -17.5q40 0 70.5 20t40.5 61q17 71 17 241q0 67 -2 93z M288 879q-3 -5 -11.5 -19.5t-16.5 -27.5t-16.5 -26.5t-15 -22t-9.5 -8.5t-6 4.5t-3 8.5q0 13 21 54t22 44q4 13 14 13q5 0 9.5 -2.5t7.5 -7t4 -10.5zM390 879q-2 -3 -11 -18l-16.5 -27.5t-16.5 -27t-15.5 -23t-9.5 -8.5t-6 4.5t-3 8.5q0 9 9 29t20.5 42t13.5 27q5 13 15 13 q7 0 13 -6t7 -14z" />
<glyph unicode="&#x151;" horiz-adv-x="416" d="M210 -14q-24 0 -44.5 6t-35 17t-26 25t-18.5 31t-12.5 34t-8 36t-3.5 34.5t-1 31.5q0 28 1 47.5t1 27.5q0 248 144 248q27 0 49 -7.5t37 -22.5t26 -31t17.5 -39t11 -41t5.5 -42.5t1.5 -37.5t0 -31.5t-0.5 -19.5v-5.5t0.5 -15t0.5 -19.5q0 -27 -2.5 -52t-11.5 -58t-24 -57 t-42.5 -41.5t-64.5 -17.5zM286 233q0 42 -1.5 74.5t-6 71t-12.5 63.5t-23 42t-35 17q-23 0 -38.5 -15.5t-22.5 -43t-9.5 -54t-2.5 -61.5q0 -16 0.5 -41.5t0.5 -33.5q0 -7 -0.5 -29t-0.5 -36q0 -173 79 -173q73 7 73 158q0 15 -0.5 35.5t-0.5 25.5zM237 675 q-3 -5 -11.5 -19.5t-16.5 -27.5t-16.5 -26.5t-15 -22t-9.5 -8.5t-6 4.5t-3 8.5q0 13 21 54t22 44q4 13 14 13q5 0 9.5 -2.5t7.5 -7t4 -10.5zM339 675q-2 -3 -7.5 -12t-10.5 -17.5t-11.5 -19.5t-12.5 -20.5t-11.5 -17.5t-9.5 -12.5t-6 -4.5q-3 0 -6 4.5t-3 8.5q0 7 6 22 t13 28.5t14.5 28t9.5 19.5q5 13 15 13q7 0 13 -6t7 -14z" />
<glyph unicode="&#x152;" horiz-adv-x="679" d="M592 92q2 16 6.5 20.5t19.5 4.5q3 0 5.5 -4t4.5 -12t3.5 -17t2.5 -20t1.5 -20t1.5 -19t2 -15q-7 -12 -23 -12q-1 0 -3.5 0.5t-3.5 0.5q-46 0 -192.5 -1t-175.5 -1q-33 0 -58.5 9t-42 21.5t-28 35t-17.5 41.5t-9 49.5t-3.5 49t-0.5 50.5q0 7 0.5 21.5t0.5 21.5 q0 6 -0.5 19.5t-0.5 20.5q0 22 1.5 65.5t1.5 63.5q1 67 18.5 117t46.5 77t62 39.5t70 12.5q324 0 327 3q24 0 30 -14q-6 -50 -13 -105h-8q-10 0 -15.5 2t-7.5 6.5t-3 14.5q-2 22 -4 66q-59 1 -114 1q-70 0 -88 -1v-280h140q1 2 1.5 12.5t4 14.5t13.5 4q5 0 9 -1t6.5 -3.5 t5 -4t3.5 -5.5t2 -6t1 -7.5v-7.5v-8v-7q0 -22 -5.5 -28.5t-16.5 -6.5q-13 0 -17 5.5t-1.5 12t-1.5 12t-17 5.5q-15 0 -44.5 -0.5t-43.5 -0.5q-26 0 -39 1v-187q0 -167 1 -174q201 0 201 4q0 7 1 19t1.5 24t1.5 21zM328 41v621q-23 14 -53.5 14t-53 -13t-35 -35.5 t-18.5 -44.5t-9 -47q-12 -115 -12 -224q0 -91 3 -140v-3q10 -142 124 -142q20 0 54 14z" />
<glyph unicode="&#x153;" horiz-adv-x="619" d="M425 517q132 0 132 -208q0 -13 -0.5 -19t-3 -16.5t-9.5 -15.5t-18 -5h-88q-93 0 -98 -2q-3 -101 -3 -105v-1q-1 -7 -0.5 -14t2.5 -24t7 -31t13 -28.5t23.5 -23t34.5 -8.5q72 0 88 77q1 1 1 2q6 25 22 25q12 0 17.5 -5t5.5 -11q0 -50 -44 -81t-88 -31q-36 0 -62.5 15 t-52.5 48q-37 -61 -104 -61q-27 0 -48.5 9.5t-35.5 24.5t-24.5 36.5t-16 42t-8.5 45t-4 41t-1 34.5v27q0 5 -0.5 20t-0.5 26q0 220 137 220q84 0 117 -72q37 69 110 69zM275 106q2 84 3 130q-1 31 -2.5 90.5t-2.5 78.5l-1.5 22.5t-5 23.5t-11.5 24.5t-21 17t-34 9.5 q-28 -2 -45.5 -14t-26 -35t-11.5 -47t-3 -59q0 -15 0.5 -46t0.5 -47v-39q0 -30 1 -52.5t6 -52t13.5 -48.5t25 -33t39.5 -14q69 0 75 91zM500 271q2 21 2 40q0 30 -4 59.5t-12.5 59t-25 48t-38.5 18.5q-82 0 -82 -157q0 -21 0.5 -40.5t0.5 -29.5q112 2 159 2z" />
<glyph unicode="&#x154;" horiz-adv-x="504" d="M51 14q0 6 4 10.5t9 4.5h29l1 -1h6q0 3 -0.5 69.5t-0.5 123.5v145.5t0.5 135t0.5 56.5q0 1 -0.5 11.5t-0.5 19.5q0 30 0.5 58.5t0.5 35.5h-6h-1h-29q-5 0 -9 4.5t-4 10.5q0 2 1 5t3 4.5t4.5 3t4.5 1.5h-1h2h28h100h2q25 0 51 -4t58.5 -17.5t57 -35.5t41.5 -61t17 -90 t-6.5 -86t-21.5 -57t-32 -34t-44 -24q27 -23 41 -55.5t16.5 -61t8.5 -65.5t18 -63q8 -17 35 -26t48.5 -15.5t21.5 -16.5v-3q-71 0 -115.5 30t-63.5 102q-3 13 -8.5 35.5t-8.5 33.5t-9 28t-12 25.5t-16.5 19t-23.5 15.5t-32 8.5t-43 3.5h-13q0 -30 -0.5 -91t-0.5 -91 q0 -15 0.5 -44.5t0.5 -43.5h6h29q14 0 14 -14q0 -6 -4 -10t-10 -4h-18h-84h-28h-2h1q-5 0 -9 4t-4 10zM358 502q0 47 -11.5 83t-28.5 56t-40 32.5t-42 16.5t-38 4q-3 0 -9 0.5t-9.5 0.5t-8 -1.5t-6.5 -4.5t-4 -10t-2 -18h1v-107v-229q25 -4 43 -4q28 0 52.5 7.5t49 25.5 t39 56t14.5 92zM342 869q-63 -106 -87 -106q-3 0 -6 3t-4 6.5t-1 6.5q0 9 7.5 27t20.5 42.5t15 27.5q6 15 24 15q22 0 31 -22z" />
<glyph unicode="&#x155;" horiz-adv-x="365" d="M353 450q12 -20 12 -38q0 -15 -9 -31t-21 -16q-14 0 -21 15t-9 33.5t-14 33.5t-35 15q-21 0 -46 -14.5t-37.5 -26t-32.5 -32.5q0 -64 0.5 -189t0.5 -183h11h19h2q13 1 13 -9q0 -3 -6.5 -5t-17.5 -3t-20.5 -1t-22 0.5t-15.5 0.5t-9 -0.5t-12 -0.5h-13.5t-13.5 0.5t-11.5 1 t-8.5 2.5t-3 4q0 7 7 9t20.5 1.5t14.5 -0.5v476h-9h-19q-9 0 -12.5 2t-3.5 9q0 9 10 9q2 0 8 -0.5t9 -0.5q14 1 41 1.5t42 0.5q-1 -69 -1 -92q4 3 17.5 14t19 15t18 12.5t20.5 12t20 8.5t23 7t24 2q45 0 71 -43zM293 675q-63 -106 -87 -106q-5 0 -8 5.5t-3 10.5q0 8 5.5 22 t12 26.5t14.5 28t11 20.5q6 16 24 16q22 0 31 -23z" />
<glyph unicode="&#x156;" horiz-adv-x="504" d="M51 14q0 6 4 10.5t9 4.5h29l1 -1h6q0 3 -0.5 69.5t-0.5 123.5v145.5t0.5 135t0.5 56.5q0 1 -0.5 11.5t-0.5 19.5q0 30 0.5 58.5t0.5 35.5h-6h-1h-29q-5 0 -9 4.5t-4 10.5q0 2 1 5t3 4.5t4.5 3t4.5 1.5h-1h2h28h100h2q25 0 51 -4t58.5 -17.5t57 -35.5t41.5 -61t17 -90 t-6.5 -86t-21.5 -57t-32 -34t-44 -24q27 -23 41 -55.5t16.5 -61t8.5 -65.5t18 -63q8 -17 35 -26t48.5 -15.5t21.5 -16.5v-3q-71 0 -115.5 30t-63.5 102q-3 13 -8.5 35.5t-8.5 33.5t-9 28t-12 25.5t-16.5 19t-23.5 15.5t-32 8.5t-43 3.5h-13q0 -30 -0.5 -91t-0.5 -91 q0 -15 0.5 -44.5t0.5 -43.5h6h29q14 0 14 -14q0 -6 -4 -10t-10 -4h-18h-84h-28h-2h1q-5 0 -9 4t-4 10zM358 502q0 47 -11.5 83t-28.5 56t-40 32.5t-42 16.5t-38 4q-3 0 -9 0.5t-9.5 0.5t-8 -1.5t-6.5 -4.5t-4 -10t-2 -18h1v-107v-229q25 -4 43 -4q28 0 52.5 7.5t49 25.5 t39 56t14.5 92zM212 -218q4 4 20 18.5t22 25t6 25.5q-43 9 -43 35q0 12 13.5 27.5t28.5 15.5q14 0 23.5 -14t9.5 -29q-3 -23 -10 -42.5t-25 -37.5t-45 -24z" />
<glyph unicode="&#x157;" horiz-adv-x="365" d="M353 450q12 -20 12 -38q0 -15 -9 -31t-21 -16q-14 0 -21 15t-9 33.5t-14 33.5t-35 15q-21 0 -46 -14.5t-37.5 -26t-32.5 -32.5q0 -64 0.5 -189t0.5 -183h11h19h2q13 1 13 -9q0 -3 -6.5 -5t-17.5 -3t-20.5 -1t-22 0.5t-15.5 0.5t-9 -0.5t-12 -0.5h-13.5t-13.5 0.5t-11.5 1 t-8.5 2.5t-3 4q0 7 7 9t20.5 1.5t14.5 -0.5v476h-9h-19q-9 0 -12.5 2t-3.5 9q0 9 10 9q2 0 8 -0.5t9 -0.5q14 1 41 1.5t42 0.5q-1 -69 -1 -92q4 3 17.5 14t19 15t18 12.5t20.5 12t20 8.5t23 7t24 2q45 0 71 -43zM71 -228q6 6 16.5 15.5t16.5 15.5t10.5 16t4.5 22 q-43 8 -43 35q0 7 6 17t16 17.5t20 7.5t17.5 -6.5t11.5 -16.5t4 -19q-4 -37 -22.5 -66t-57.5 -38z" />
<glyph unicode="&#x158;" horiz-adv-x="504" d="M51 14q0 6 4 10.5t9 4.5h29l1 -1h6q0 3 -0.5 69.5t-0.5 123.5v145.5t0.5 135t0.5 56.5q0 1 -0.5 11.5t-0.5 19.5q0 30 0.5 58.5t0.5 35.5h-6h-1h-29q-5 0 -9 4.5t-4 10.5q0 2 1 5t3 4.5t4.5 3t4.5 1.5h-1h2h28h100h2q25 0 51 -4t58.5 -17.5t57 -35.5t41.5 -61t17 -90 t-6.5 -86t-21.5 -57t-32 -34t-44 -24q27 -23 41 -55.5t16.5 -61t8.5 -65.5t18 -63q8 -17 35 -26t48.5 -15.5t21.5 -16.5v-3q-71 0 -115.5 30t-63.5 102q-3 13 -8.5 35.5t-8.5 33.5t-9 28t-12 25.5t-16.5 19t-23.5 15.5t-32 8.5t-43 3.5h-13q0 -30 -0.5 -91t-0.5 -91 q0 -15 0.5 -44.5t0.5 -43.5h6h29q14 0 14 -14q0 -6 -4 -10t-10 -4h-18h-84h-28h-2h1q-5 0 -9 4t-4 10zM358 502q0 47 -11.5 83t-28.5 56t-40 32.5t-42 16.5t-38 4q-3 0 -9 0.5t-9.5 0.5t-8 -1.5t-6.5 -4.5t-4 -10t-2 -18h1v-107v-229q25 -4 43 -4q28 0 52.5 7.5t49 25.5 t39 56t14.5 92zM248 824q6 5 19.5 21t25 27t18.5 11q6 0 9.5 -4.5t3.5 -9.5t-2 -7q-2 -4 -19.5 -27t-35.5 -45.5t-20 -24.5l-67 105q0 6 4 10t8 5t5 1q6 0 13 -7t12 -16.5t12.5 -21t13.5 -17.5z" />
<glyph unicode="&#x159;" horiz-adv-x="365" d="M353 450q12 -20 12 -38q0 -15 -9 -31t-21 -16q-14 0 -21 15t-9 33.5t-14 33.5t-35 15q-21 0 -46 -14.5t-37.5 -26t-32.5 -32.5q0 -64 0.5 -189t0.5 -183h11h19h2q13 1 13 -9q0 -3 -6.5 -5t-17.5 -3t-20.5 -1t-22 0.5t-15.5 0.5t-9 -0.5t-12 -0.5h-13.5t-13.5 0.5t-11.5 1 t-8.5 2.5t-3 4q0 7 7 9t20.5 1.5t14.5 -0.5v476h-9h-19q-9 0 -12.5 2t-3.5 9q0 9 10 9q2 0 8 -0.5t9 -0.5q14 1 41 1.5t42 0.5q-1 -69 -1 -92q4 3 17.5 14t19 15t18 12.5t20.5 12t20 8.5t23 7t24 2q45 0 71 -43zM219 630q6 6 20 22t25.5 27t18.5 11q3 0 5.5 -1.5t4 -3.5 t2.5 -4.5t1 -5.5q0 -5 -2 -7q-4 -6 -38 -49.5t-38 -47.5l-67 105q0 6 4.5 10t8 5.5t4.5 1.5q8 0 16.5 -11.5t18 -28t16.5 -23.5z" />
<glyph unicode="&#x15a;" horiz-adv-x="436" d="M286 605q-2 5 -3.5 18t-4.5 22t-10 19.5t-22.5 16t-39.5 5.5q-37 0 -70 -38.5t-33 -86.5q0 -27 12 -49.5t27 -35.5t38 -25q79 -39 129 -92q17 -18 27.5 -31.5t23.5 -36.5t19.5 -54t6.5 -70v-21q-1 -14 -5 -31.5t-17 -41t-31.5 -42t-52 -31.5t-75.5 -13q-42 2 -80.5 15.5 t-66 43t-27.5 67.5q0 11 8.5 21t18.5 10q8 0 17.5 -7.5t11.5 -17.5q10 -42 51 -74.5t76 -32.5q46 0 78 38t32 92q0 24 -5 46.5t-16.5 43.5t-23 37t-31.5 36t-33.5 32t-38.5 33.5t-37 32.5q-20 18 -33 33t-26.5 45.5t-13.5 65.5q0 67 44 122.5t112 55.5q39 0 73 -25.5 t34 -76.5q0 -9 -8 -17t-18 -8q-9 0 -17 7zM308 879q-63 -106 -87 -106q-5 0 -8 5.5t-3 10.5q0 8 5.5 22t12 26.5t14.5 28t11 20.5q6 16 24 16q22 0 31 -23z" />
<glyph unicode="&#x15b;" horiz-adv-x="367" d="M65 17q-1 -1 -3.5 -5.5t-4 -6.5t-4 -3.5t-6.5 -1.5q-5 0 -7.5 6.5t-3.5 17.5t-1 20.5t0.5 21.5t0.5 15q0 22 9 22q12 0 22.5 -10t21 -25t17.5 -21q30 -35 70 -35q26 0 48.5 15t36 39.5t13.5 51.5q0 46 -41.5 83.5t-131.5 68.5q-31 11 -50.5 45.5t-19.5 74.5 q0 49 35.5 86.5t106.5 37.5q6 0 18.5 -0.5t18.5 -0.5h17h37q8 -16 8 -44q0 -2 0.5 -6.5t0 -6t-1 -5t-1.5 -5.5t-3.5 -5t-6.5 -5t-9 -5q-1 0 -5.5 4.5t-4.5 8.5v5q0 48 -64 48q-28 0 -48 -11t-29.5 -28t-13 -31t-3.5 -26v-3q-1 -9 0 -15.5t7 -20.5t18 -24.5t38 -22.5t62 -20 q1 0 2 -1q11 -4 20 -8t28.5 -18t33 -31t24 -47t10.5 -66q0 -28 -9 -50.5t-24 -37t-35.5 -24t-42 -13.5t-45.5 -4q-63 0 -105 22zM263 675q-63 -106 -87 -106q-3 0 -5.5 3t-4 6.5t-1.5 6.5q0 6 3.5 16t9 21.5t11 22t11.5 21.5t8 16q6 16 25 16q21 0 30 -23z" />
<glyph unicode="&#x15e;" horiz-adv-x="436" d="M161 -69l26 58q-63 7 -109.5 39.5t-46.5 84.5q0 11 8.5 21t18.5 10q8 0 17.5 -7.5t11.5 -17.5q10 -42 51 -74.5t76 -32.5q46 0 78 38t32 92q0 24 -5 46.5t-16.5 43.5t-23 37t-31.5 36t-33.5 32t-38.5 33.5t-37 32.5q-20 18 -33 33t-26.5 45.5t-13.5 65.5q0 67 44 122.5 t112 55.5q39 0 73 -25.5t34 -76.5q0 -9 -8 -17t-18 -8q-9 0 -17 7q-2 5 -3.5 18t-4.5 22t-10 19.5t-22.5 16t-39.5 5.5q-37 0 -70 -38.5t-33 -86.5q0 -27 12 -49.5t27 -35.5t38 -25q79 -39 129 -92q17 -18 27.5 -31.5t23.5 -36.5t19.5 -54t6.5 -70v-21q-1 -14 -5 -31.5 t-16.5 -40.5t-31 -41.5t-50.5 -31.5t-73 -14l-21 -46q25 0 44 -18t19 -47q0 -26 -21 -43t-53 -17q-12 0 -25.5 5.5t-22 13.5t-8.5 16q0 9 17 17q15 -28 43 -28q10 0 19 5.5t14 14t5 18.5q0 18 -10.5 27.5t-28.5 9.5q-11 0 -16 -1q-6 6 -6 12q0 1 2 5z" />
<glyph unicode="&#x15f;" horiz-adv-x="367" d="M137 -59l24 54q-57 1 -96 22q-1 -1 -3.5 -5.5t-4 -6.5t-4 -3.5t-6.5 -1.5q-5 0 -7.5 6.5t-3.5 17.5t-1 20.5t0.5 21.5t0.5 15q0 22 9 22q12 0 22.5 -10t21 -25t17.5 -21q30 -35 70 -35q26 0 48.5 15t36 39.5t13.5 51.5q0 46 -41.5 83.5t-131.5 68.5q-31 11 -50.5 45.5 t-19.5 74.5q0 49 35.5 86.5t106.5 37.5q6 0 18.5 -0.5t18.5 -0.5h54q8 -16 8 -44q0 -2 0.5 -6.5t0 -6t-1 -5t-1.5 -5.5t-3.5 -5t-6.5 -5t-9 -5q-1 0 -5.5 4.5t-4.5 8.5v5q0 48 -64 48q-28 0 -48 -11t-29.5 -28t-13 -31t-3.5 -26v-3q-1 -9 0 -15.5t7 -20.5t18 -24.5t38 -22.5 t62 -20q1 0 2 -1q11 -4 20 -8t28.5 -18t33 -31t24 -47t10.5 -66q0 -63 -40.5 -94t-100.5 -34l-21 -45q26 0 44.5 -18t18.5 -47q0 -25 -21 -42t-52 -17q-20 0 -38 11t-18 23q0 9 16 18q15 -29 43 -29q16 0 27.5 11.5t11.5 26.5q0 18 -11 28t-29 10q-10 0 -15 -1q-6 6 -6 11 q0 1 2 5z" />
<glyph unicode="&#x160;" horiz-adv-x="436" d="M286 605q-2 5 -3.5 18t-4.5 22t-10 19.5t-22.5 16t-39.5 5.5q-37 0 -70 -38.5t-33 -86.5q0 -27 12 -49.5t27 -35.5t38 -25q79 -39 129 -92q17 -18 27.5 -31.5t23.5 -36.5t19.5 -54t6.5 -70v-21q-1 -14 -5 -31.5t-17 -41t-31.5 -42t-52 -31.5t-75.5 -13q-42 2 -80.5 15.5 t-66 43t-27.5 67.5q0 11 8.5 21t18.5 10q8 0 17.5 -7.5t11.5 -17.5q10 -42 51 -74.5t76 -32.5q46 0 78 38t32 92q0 24 -5 46.5t-16.5 43.5t-23 37t-31.5 36t-33.5 32t-38.5 33.5t-37 32.5q-20 18 -33 33t-26.5 45.5t-13.5 65.5q0 67 44 122.5t112 55.5q39 0 73 -25.5 t34 -76.5q0 -9 -8 -17t-18 -8q-9 0 -17 7zM224 824q6 5 15.5 16t17.5 20t16.5 16t14.5 7t9.5 -4.5t3.5 -9.5t-2 -7q-4 -6 -38 -49.5t-38 -47.5l-67 105q0 6 4.5 10t8 5t4.5 1q8 0 16.5 -11t18 -27.5t16.5 -23.5z" />
<glyph unicode="&#x161;" horiz-adv-x="367" d="M65 17q-1 -1 -3.5 -5.5t-4 -6.5t-4 -3.5t-6.5 -1.5q-5 0 -7.5 6.5t-3.5 17.5t-1 20.5t0.5 21.5t0.5 15q0 22 9 22q12 0 22.5 -10t21 -25t17.5 -21q30 -35 70 -35q26 0 48.5 15t36 39.5t13.5 51.5q0 46 -41.5 83.5t-131.5 68.5q-31 11 -50.5 45.5t-19.5 74.5 q0 49 35.5 86.5t106.5 37.5q6 0 18.5 -0.5t18.5 -0.5h17h37q8 -16 8 -44q0 -2 0.5 -6.5t0 -6t-1 -5t-1.5 -5.5t-3.5 -5t-6.5 -5t-9 -5q-1 0 -5.5 4.5t-4.5 8.5v5q0 48 -64 48q-28 0 -48 -11t-29.5 -28t-13 -31t-3.5 -26v-3q-1 -9 0 -15.5t7 -20.5t18 -24.5t38 -22.5t62 -20 q1 0 2 -1q11 -4 20 -8t28.5 -18t33 -31t24 -47t10.5 -66q0 -28 -9 -50.5t-24 -37t-35.5 -24t-42 -13.5t-45.5 -4q-63 0 -105 22zM169 620q6 5 20 21t25.5 27t18.5 11q6 0 9.5 -4.5t3.5 -9.5t-2 -7q-3 -4 -20.5 -27t-35 -45.5t-20.5 -24.5l-67 105q0 4 2.5 7.5t6 5.5t6 2.5 l2.5 0.5q8 0 16.5 -11t18 -27.5t16.5 -23.5z" />
<glyph unicode="&#x162;" horiz-adv-x="416" d="M366 713h6q16 0 24 -12q-9 -72 -12 -107q-21 0 -26 4t-7 23q-1 8 -2.5 25t-2 29t-1.5 12h-30h-75q0 -31 -0.5 -96t-0.5 -179v-98.5v-103.5v-89.5t0.5 -67.5l0.5 -26h34q14 0 14 -13.5t-13 -13.5v-1q0 -1 -2 -1l-1 2h-26l-102 -2q-3 0 -5.5 1t-4.5 3.5t-3 5t-1 5.5 q0 6 4 10t10 4h38q1 28 1 175q0 299 -0.5 387t-0.5 97h-110q0 -10 -2 -32l-3 -33q-2 -19 -7.5 -23t-26.5 -4q-6 62 -13 107q7 12 24 12h6q5 -1 159 -1q152 0 157 1zM168 -228q4 4 20 18.5t22 25t6 25.5q-43 8 -43 35q0 7 6 17t16 17.5t20 7.5q14 0 23.5 -13.5t9.5 -28.5 q-4 -37 -22.5 -66t-57.5 -38z" />
<glyph unicode="&#x163;" horiz-adv-x="354" d="M323 145q10 -1 16 -12t6 -26q0 -44 -38.5 -78.5t-84.5 -34.5q-15 0 -30 2.5t-36.5 13t-37 28.5t-27.5 52t-12 79q-1 42 -1 323h-5h-10q-1 0 -6 -0.5t-11 -0.5q-26 0 -26 6q0 10 7.5 12.5t25.5 2.5q4 0 12 -0.5t13 -0.5v218h64q-1 -8 -1 -30.5v-48t-0.5 -66t-0.5 -72.5 q30 0 36 -1h5q13 0 13 -9q0 -10 -14 -12q-29 0 -40 1v-176q-2 -67 1 -120v-16q1 -23 1.5 -36t3 -35.5t8 -35.5t14 -27t22.5 -20.5t33 -6.5q25 0 40 13t20.5 32t9 37.5t10.5 31.5t20 13zM158 -228q6 6 16.5 15.5t16 15.5t10.5 16t5 22q-43 8 -43 35q0 12 13 27t29 15 q9 0 17 -6.5t12 -16.5t4 -19q-4 -37 -23 -66t-57 -38z" />
<glyph unicode="&#x164;" horiz-adv-x="416" d="M366 713h6q16 0 24 -12q-9 -72 -12 -107q-21 0 -26 4t-7 23q-1 8 -2.5 25t-2 29t-1.5 12h-30h-75q0 -31 -0.5 -96t-0.5 -179v-98.5v-103.5v-89.5t0.5 -67.5l0.5 -26h34q14 0 14 -13.5t-13 -13.5v-1q0 -1 -2 -1l-1 2h-26l-102 -2q-3 0 -5.5 1t-4.5 3.5t-3 5t-1 5.5 q0 6 4 10t10 4h38q1 28 1 175q0 299 -0.5 387t-0.5 97h-110q0 -10 -2 -32l-3 -33q-2 -19 -7.5 -23t-26.5 -4q-6 62 -13 107q7 12 24 12h6q5 -1 159 -1q152 0 157 1zM214 824q6 5 20 21t25.5 27t17.5 11q7 0 10.5 -4.5t3.5 -9.5t-2 -7q-4 -6 -38 -49.5t-38 -47.5l-67 105 q0 4 2.5 7.5t6 5.5t5.5 2.5t3 0.5q8 0 16.5 -11t18 -27.5t16.5 -23.5z" />
<glyph unicode="&#x165;" horiz-adv-x="354" d="M323 145q10 -1 16 -12t6 -26q0 -44 -38.5 -78.5t-84.5 -34.5q-15 0 -30 2.5t-36.5 13t-37 28.5t-27.5 52t-12 79q-1 42 -1 323h-5h-10q-1 0 -6 -0.5t-11 -0.5q-26 0 -26 6q0 10 7.5 12.5t25.5 2.5q4 0 12 -0.5t13 -0.5v218h64q-1 -8 -1 -30.5v-48t-0.5 -66t-0.5 -72.5 q30 0 36 -1h5q13 0 13 -9q0 -10 -14 -12q-29 0 -40 1v-176q-2 -67 1 -120v-16q1 -23 1.5 -36t3 -35.5t8 -35.5t14 -27t22.5 -20.5t33 -6.5q25 0 40 13t20.5 32t9 37.5t10.5 31.5t20 13zM222 566l17.5 17.5l16.5 16.5t10.5 16t4.5 22q-22 4 -33 11.5t-11 22.5q0 13 14 28 t27 15q11 0 19.5 -5.5t13 -14.5t4.5 -19q0 -35 -21 -67t-62 -43z" />
<glyph unicode="&#x16a;" horiz-adv-x="534" d="M470 714q6 0 9.5 -4.5t3.5 -10.5q0 -15 -13 -15h-29h-1h-23v-37t0.5 -94.5t0.5 -121v-129v-107.5v-71q0 -13 -2.5 -27t-11.5 -34t-23 -35t-41.5 -25.5t-64.5 -10.5q-85 0 -127 40.5t-46 101.5q-3 20 -3.5 35.5t-0.5 28t0.5 50t0.5 77.5v93.5v96.5t0.5 83t0.5 62v24h-7 h-30q-12 0 -12 15q0 4 1.5 7.5t4.5 5.5t6 2h19h84h26h3h-1q12 0 12 -15t-12 -15h-28h-1h-6v-504q0 -138 89 -159q13 -3 28 -3q34 0 65.5 14.5t39.5 40.5q3 12 5 25t3 27t1.5 25t1 26t1.5 23v485h-24h-29q-14 0 -14 15q0 6 4 10.5t10 4.5h17h84h28h2h-1zM351 827q6 0 11 -3 t5 -7q0 -6 -6.5 -9.5t-18.5 -4.5t-23 -1t-25.5 1t-19.5 1h-21q-11 0 -26 -0.5t-23.5 -1t-27.5 0.5q-9 0 -9 9q0 6 5.5 9.5t16 4.5t19.5 1t23.5 -0.5t21.5 -0.5h21q19 0 45 0.5t32 0.5z" />
<glyph unicode="&#x16b;" horiz-adv-x="463" d="M431 512q1 -4 1 -9t-2.5 -6t-10.5 -2q-1 0 -6.5 0.5t-14.5 1t-18 0.5q0 -2 0.5 -19t0.5 -44.5v-54.5q0 -205 -4 -258q-1 -13 -5.5 -28t-15 -32.5t-25.5 -31t-39.5 -23t-53.5 -9.5q-80 0 -117 33.5t-42 106.5q-3 28 -3 358h-11h-21h-2q-11 -1 -11 7q0 4 11 6.5t31.5 3.5 t38 1t41.5 -0.5t31 -0.5q2 -8 2 -9q0 -6 -6 -7.5t-21 -1t-19 0.5q0 -5 -0.5 -109t-0.5 -162v-27v-24.5t0.5 -18.5t0.5 -13v-5q4 -118 100 -118q51 0 75.5 27.5t36.5 84.5l4 364q-5 0 -11.5 -0.5t-10.5 -0.5h-8.5t-7.5 0.5t-5.5 1.5t-3.5 2.5t-1 4.5q0 4 9.5 6.5t26 3.5 t30.5 1t33.5 -0.5t23.5 -0.5zM325.5 623q6.5 0 11.5 -3t5 -7q0 -6 -7 -9.5t-19 -4.5t-22.5 -1t-25 1t-19.5 1h-22q-10 0 -34.5 -1t-41.5 0q-9 0 -9 9q0 6 5 9.5t15.5 4.5t19.5 1t24 -0.5t21 -0.5h22q18 0 44 0.5t32.5 0.5z" />
<glyph unicode="&#x16e;" horiz-adv-x="534" d="M470 714q6 0 9.5 -4.5t3.5 -10.5q0 -15 -13 -15h-29h-1h-23v-37t0.5 -94.5t0.5 -121v-129v-107.5v-71q0 -13 -2.5 -27t-11.5 -34t-23 -35t-41.5 -25.5t-64.5 -10.5q-85 0 -127 40.5t-46 101.5q-3 20 -3.5 35.5t-0.5 28t0.5 50t0.5 77.5v93.5v96.5t0.5 83t0.5 62v24h-7 h-30q-12 0 -12 15q0 4 1.5 7.5t4.5 5.5t6 2h19h84h26h3h-1q12 0 12 -15t-12 -15h-28h-1h-6v-504q0 -138 89 -159q13 -3 28 -3q34 0 65.5 14.5t39.5 40.5q3 12 5 25t3 27t1.5 25t1 26t1.5 23v485h-24h-29q-14 0 -14 15q0 6 4 10.5t10 4.5h17h84h28h2h-1zM196 829 q1 35 22.5 54.5t51.5 19.5q29 0 49 -19.5t20 -54.5q0 -32 -22.5 -51.5t-52.5 -19.5q-19 0 -34 8t-24.5 24.5t-9.5 38.5zM311 830q0 12 -4 22.5t-14.5 19t-25.5 8.5q-21 0 -32.5 -15.5t-11.5 -34t11.5 -34.5t33 -16t32.5 16t11 34z" />
<glyph unicode="&#x16f;" horiz-adv-x="463" d="M431 512q1 -4 1 -9t-2.5 -6t-10.5 -2q-1 0 -6.5 0.5t-14.5 1t-18 0.5q0 -2 0.5 -19t0.5 -44.5v-54.5q0 -205 -4 -258q-1 -13 -5.5 -28t-15 -32.5t-25.5 -31t-39.5 -23t-53.5 -9.5q-80 0 -117 33.5t-42 106.5q-3 28 -3 358h-11h-21h-2q-11 -1 -11 7q0 4 11 6.5t31.5 3.5 t38 1t41.5 -0.5t31 -0.5q2 -8 2 -9q0 -6 -6 -7.5t-21 -1t-19 0.5q0 -5 -0.5 -109t-0.5 -162v-27v-24.5t0.5 -18.5t0.5 -13v-5q4 -118 100 -118q51 0 75.5 27.5t36.5 84.5l4 364q-5 0 -11.5 -0.5t-10.5 -0.5h-8.5t-7.5 0.5t-5.5 1.5t-3.5 2.5t-1 4.5q0 4 9.5 6.5t26 3.5 t30.5 1t33.5 -0.5t23.5 -0.5zM170 635q1 35 23 54.5t52 19.5q29 0 48.5 -19.5t19.5 -54.5q0 -32 -22.5 -51.5t-51.5 -19.5q-30 0 -49 19t-20 52zM286 636q0 12 -4.5 22.5t-14.5 19t-25 8.5q-22 0 -33 -15.5t-11 -34t11 -34.5t32.5 -16t33 16t11.5 34z" />
<glyph unicode="&#x170;" horiz-adv-x="534" d="M470 714q6 0 9.5 -4.5t3.5 -10.5q0 -15 -13 -15h-29h-1h-23v-37t0.5 -94.5t0.5 -121v-129v-107.5v-71q0 -13 -2.5 -27t-11.5 -34t-23 -35t-41.5 -25.5t-64.5 -10.5q-85 0 -127 40.5t-46 101.5q-3 20 -3.5 35.5t-0.5 28t0.5 50t0.5 77.5v93.5v96.5t0.5 83t0.5 62v24h-7 h-30q-12 0 -12 15q0 4 1.5 7.5t4.5 5.5t6 2h19h84h26h3h-1q12 0 12 -15t-12 -15h-28h-1h-6v-504q0 -138 89 -159q13 -3 28 -3q34 0 65.5 14.5t39.5 40.5q3 12 5 25t3 27t1.5 25t1 26t1.5 23v485h-24h-29q-14 0 -14 15q0 6 4 10.5t10 4.5h17h84h28h2h-1zM286 869 q-3 -4 -7 -11t-8.5 -15t-10 -17t-10.5 -17.5t-10.5 -16.5t-9.5 -14t-7.5 -9.5t-5.5 -3.5q-3 0 -6 4t-3 9q0 13 21 53.5t22 44.5q4 12 14 12q5 0 9.5 -2t7.5 -7t4 -10zM388 869q-2 -3 -11 -18l-16.5 -27.5t-16.5 -27t-15.5 -23t-9.5 -8.5t-6 4t-3 9q0 9 9 29t20.5 42t13.5 27 q5 12 15 12q5 0 9 -2.5t7 -7t4 -9.5z" />
<glyph unicode="&#x171;" horiz-adv-x="463" d="M431 512q1 -4 1 -9t-2.5 -6t-10.5 -2q-1 0 -6.5 0.5t-14.5 1t-18 0.5q0 -2 0.5 -19t0.5 -44.5v-54.5q0 -205 -4 -258q-1 -13 -5.5 -28t-15 -32.5t-25.5 -31t-39.5 -23t-53.5 -9.5q-80 0 -117 33.5t-42 106.5q-3 28 -3 358h-11h-21h-2q-11 -1 -11 7q0 4 11 6.5t31.5 3.5 t38 1t41.5 -0.5t31 -0.5q2 -8 2 -9q0 -6 -6 -7.5t-21 -1t-19 0.5q0 -5 -0.5 -109t-0.5 -162v-27v-24.5t0.5 -18.5t0.5 -13v-5q4 -118 100 -118q51 0 75.5 27.5t36.5 84.5l4 364q-5 0 -11.5 -0.5t-10.5 -0.5h-8.5t-7.5 0.5t-5.5 1.5t-3.5 2.5t-1 4.5q0 4 9.5 6.5t26 3.5 t30.5 1t33.5 -0.5t23.5 -0.5zM260 675q-3 -5 -11.5 -19.5t-16 -27.5t-16 -26.5t-15 -22t-9.5 -8.5q-4 0 -6.5 4.5t-2.5 8.5q0 13 20.5 54t21.5 44q5 13 15 13q4 0 8.5 -2.5t8 -7t3.5 -10.5zM362 675q-2 -3 -7 -12t-10 -17.5t-12 -19.5t-12.5 -20.5t-11 -17.5t-9.5 -12.5 t-6 -4.5q-4 0 -6.5 4.5t-2.5 8.5q0 9 8.5 29t20 42t13.5 27q5 13 16 13q7 0 12.5 -6t6.5 -14z" />
<glyph unicode="&#x172;" horiz-adv-x="534" d="M326 -144q-19 -13 -42 -13q-33 0 -50.5 18.5t-17.5 41.5q0 24 14 48.5t36 40.5q-81 2 -120.5 42t-43.5 100q-3 20 -3.5 35.5t-0.5 28t0.5 50t0.5 77.5v93.5v96.5t0.5 83t0.5 62v24h-37q-12 0 -12 15q0 4 1.5 7.5t4.5 5.5t6 2h131q12 0 12 -15t-12 -15h-35v-504 q0 -138 89 -159q13 -3 28 -3q34 0 65.5 14.5t39.5 40.5q3 12 5 25t3 27t1.5 25t1 26t1.5 23v485h-53q-14 0 -14 15q0 6 4 10.5t10 4.5h131q3 -1 6 -3t4.5 -5.5t1.5 -6.5q0 -15 -13 -15h-53v-37t0.5 -94.5t0.5 -121v-129v-107.5v-71q0 -12 -2 -25t-10 -32t-20 -33.5 t-35.5 -26t-53.5 -14.5q-19 -16 -33.5 -39t-14.5 -40q0 -10 4.5 -18.5t13.5 -13.5t21 -5q24 0 38 16v-37z" />
<glyph unicode="&#x173;" horiz-adv-x="463" d="M296 -134q-20 -13 -43 -13q-33 0 -50 18.5t-17 41.5q0 22 12 44.5t32 39.5q-76 1 -111 35t-40 105q-3 28 -3 358h-32h-2q-11 -1 -11 7q0 4 11 6.5t31.5 3.5t38 1t41.5 -0.5t31 -0.5q2 -8 2 -9q0 -6 -6 -7.5t-21 -1t-19 0.5q0 -5 -0.5 -109t-0.5 -162v-27v-24.5t0.5 -18.5 t0.5 -13v-5q4 -118 100 -118q51 0 75.5 27.5t36.5 84.5l4 364q-5 0 -11.5 -0.5t-10.5 -0.5h-8.5t-7.5 0.5t-5.5 1.5t-3.5 2.5t-1 4.5q0 4 9.5 6.5t26 3.5t30.5 1t33.5 -0.5t23.5 -0.5q1 -4 1 -9t-2.5 -6t-10.5 -2q-1 0 -6.5 0.5t-14.5 1t-18 0.5q0 -2 0.5 -19t0.5 -44.5 v-54.5q0 -205 -4 -258q-1 -15 -7.5 -32.5t-19 -37t-35.5 -34t-53 -18.5q-18 -16 -31 -37.5t-13 -36.5q0 -17 10.5 -27.5t28.5 -10.5q24 0 39 16v-37z" />
<glyph unicode="&#x178;" horiz-adv-x="523" d="M511 713q5 0 8.5 -3.5t3.5 -8.5q0 -15 -12 -15h-30h-5q0 -2 -30 -70t-78 -168.5t-84 -168.5v-249h6h30q5 0 9 -4t4 -10q0 -12 -15 -12h-28h-85h-16q-4 0 -8 4t-4 8q0 3 1.5 5.5t3 4t3.5 3t4 1.5h29h1h7v64q0 108 -1 161q-20 47 -45 106t-48.5 114.5t-43 103.5t-31.5 77 t-12 30h-6h-1h-25q-5 0 -9 4.5t-4 10.5q0 3 2 5.5t5 4.5t6 2h13h85h28h3h-1q5 0 9 -4t4 -8q0 -6 -4 -10.5t-9 -4.5h-25q0 -1 24 -60.5t61 -149.5t66 -159q34 65 77 156t70.5 151.5t27.5 61.5h-62q-5 0 -9 4.5t-4 10.5q0 4 4 8t9 4h-1h3h27h85h17zM342 770q-12 0 -24 10.5 t-12 23.5q0 7 3.5 14t9 12.5t13 9.5t16 6.5t16.5 2.5q10 0 22 -12.5t12 -19.5q0 -14 -20.5 -30t-35.5 -17zM161 785q-16 9 -16 30q0 9 2.5 14.5t7.5 8.5t9.5 4.5t10 2.5t8.5 2q37 -2 37 -31q0 -14 -14 -25t-29 -11q-8 0 -16 5z" />
<glyph unicode="&#x179;" horiz-adv-x="414" d="M382 82q12 -4 12 -15q0 -19 -10 -42t-17 -23h-245h-86h-5h-3h1l269 683h-239l-10 -45q-6 -10 -14 -10q-6 0 -10.5 4t-4.5 10l0.5 1.5t0.5 2.5l5 17l3 15q5 22 8 26.5t11 4.5h327q0 -5 -26 -72t-65.5 -164.5t-77 -190t-70 -172t-35.5 -85.5h7h1h246l12 45q4 10 13 10h2z M297 879q-63 -106 -87 -106q-3 0 -6 3t-4 6.5t-1 6.5q0 8 5.5 22t12 26.5t14.5 28t11 20.5q6 16 24 16q22 0 31 -23z" />
<glyph unicode="&#x17a;" horiz-adv-x="360" d="M319 521q3 -7 3 -13q0 -5 -1.5 -10t-5 -11.5t-4.5 -9.5q-12 -28 -37.5 -77t-30.5 -60q-20 -41 -47 -97.5t-52.5 -110t-46.5 -96.5q-1 -3 -3 -11t-4 -13q6 -1 17 -1q27 0 73 8.5t69 9.5q16 0 26.5 12.5t16 25t10.5 12.5q8 0 27 -10q-10 -50 -28 -70q-30 -1 -107.5 -5 t-120.5 -4q-8 0 -14.5 1.5t-14.5 4.5t-13 5q31 80 111.5 243.5t113.5 254.5q-13 1 -38 1q-18 0 -53 -1t-53 -1h-15q-2 -12 -7 -33.5t-6 -32.5q-22 -4 -31 -5q-1 5 -1 15q0 35 11.5 52.5t45.5 17.5q64 5 200 11q2 0 10 -2zM279 675q-63 -106 -86 -106q-5 0 -8 5.5t-3 10.5 q0 10 7.5 27.5t20.5 42t14 27.5q7 16 25 16q22 0 30 -23z" />
<glyph unicode="&#x17b;" horiz-adv-x="414" d="M382 82q12 -4 12 -15q0 -19 -10 -42t-17 -23h-245h-86h-5h-3h1l269 683h-239l-10 -45q-6 -10 -14 -10q-6 0 -10.5 4t-4.5 10l0.5 1.5t0.5 2.5l5 17l3 15q5 22 8 26.5t11 4.5h327q0 -5 -26 -72t-65.5 -164.5t-77 -190t-70 -172t-35.5 -85.5h7h1h246l12 45q4 10 13 10h2z M197 780q-8 0 -16 4.5t-14 12.5t-6 17q0 19 18 32t40 13q10 0 22 -12.5t12 -19.5q0 -9 -10 -20.5t-23 -18.5t-23 -8z" />
<glyph unicode="&#x17c;" horiz-adv-x="360" d="M319 521q3 -7 3 -13q0 -5 -1.5 -10t-5 -11.5t-4.5 -9.5q-12 -28 -37.5 -77t-30.5 -60q-20 -41 -47 -97.5t-52.5 -110t-46.5 -96.5q-1 -3 -3 -11t-4 -13q6 -1 17 -1q27 0 73 8.5t69 9.5q16 0 26.5 12.5t16 25t10.5 12.5q8 0 27 -10q-10 -50 -28 -70q-30 -1 -107.5 -5 t-120.5 -4q-8 0 -14.5 1.5t-14.5 4.5t-13 5q31 80 111.5 243.5t113.5 254.5q-13 1 -38 1q-18 0 -53 -1t-53 -1h-15q-2 -12 -7 -33.5t-6 -32.5q-22 -4 -31 -5q-1 5 -1 15q0 35 11.5 52.5t45.5 17.5q64 5 200 11q2 0 10 -2zM190 586q-12 0 -24 10.5t-12 23.5q0 19 18 32t40 13 q10 0 22 -12.5t12 -19.5q0 -14 -20.5 -30t-35.5 -17z" />
<glyph unicode="&#x17d;" horiz-adv-x="414" d="M382 82q12 -4 12 -15q0 -19 -10 -42t-17 -23h-245h-86h-5h-3h1l269 683h-239l-10 -45q-6 -10 -14 -10q-6 0 -10.5 4t-4.5 10l0.5 1.5t0.5 2.5l5 17l3 15q5 22 8 26.5t11 4.5h327q0 -5 -26 -72t-65.5 -164.5t-77 -190t-70 -172t-35.5 -85.5h7h1h246l12 45q4 10 13 10h2z M213 824q5 5 15 16t18 20t16.5 16t13.5 7q7 0 10.5 -4.5t3.5 -9.5t-2 -7q-4 -6 -38 -49.5t-38 -47.5l-67 105q0 6 4 10t8 5t5 1q8 0 16.5 -11t18 -27.5t16.5 -23.5z" />
<glyph unicode="&#x17e;" horiz-adv-x="360" d="M319 521q3 -7 3 -13q0 -5 -1.5 -10t-5 -11.5t-4.5 -9.5q-12 -28 -37.5 -77t-30.5 -60q-20 -41 -47 -97.5t-52.5 -110t-46.5 -96.5q-1 -3 -3 -11t-4 -13q6 -1 17 -1q27 0 73 8.5t69 9.5q16 0 26.5 12.5t16 25t10.5 12.5q8 0 27 -10q-10 -50 -28 -70q-30 -1 -107.5 -5 t-120.5 -4q-8 0 -14.5 1.5t-14.5 4.5t-13 5q31 80 111.5 243.5t113.5 254.5q-13 1 -38 1q-18 0 -53 -1t-53 -1h-15q-2 -12 -7 -33.5t-6 -32.5q-22 -4 -31 -5q-1 5 -1 15q0 35 11.5 52.5t45.5 17.5q64 5 200 11q2 0 10 -2zM196 630q6 6 19.5 22t25 27t18.5 11q3 0 6 -1.5 t4.5 -3.5t2 -4.5t0.5 -5.5q0 -5 -2 -7q-3 -6 -37 -49.5t-38 -47.5l-67 105q0 6 4 10t8 5.5t5 1.5q6 0 13 -7.5t12 -17t12.5 -21t13.5 -17.5z" />
<glyph unicode="&#x192;" horiz-adv-x="286" d="M205 714q36 0 53.5 -22.5t17.5 -53.5q0 -36 -22 -36q-15 0 -15 16q0 2 1 11t1 19q0 47 -34 47q-7 0 -12.5 -2t-9.5 -4.5t-7 -7.5t-4.5 -8.5t-3 -11t-2 -11t-1 -12t-1.5 -11.5v-249h69q12 0 12 -13t-12 -13v0h-1v0v0h-1v0h-1v0h-1h-1h-1h-1h-1h-1h-1h-1h-1h-1h-1h-1h-1h-1 h-1h-1h-1h-1h-1h-1h-1h-1h-1h-1h-1h-1h-1h-1h-1h-1h-1h-1h-1h-1h-1h-1h-1h-1h-1h-1h-1h-1h-1h-1h-1h-1h-1h-1h-1h-1h-1h-1h-1h-1h-1h-1h-10q0 -78 0.5 -173t0.5 -159v-67v-13q0 -124 -97 -124q-36 0 -53 23.5t-17 55.5q0 35 22 35q16 0 16 -18q0 -1 -0.5 -10.5t-0.5 -19.5 q0 -46 33 -46q11 0 18.5 4t11.5 12.5t6 15.5t3.5 19t2.5 17q0 259 -1 448h-27q-35 0 -41 1t-5 7v4q0 6 3.5 9.5t8.5 3.5h61l-1 217q0 120 95 120z" />
<glyph unicode="&#x218;" horiz-adv-x="436" d="M286 605q-2 5 -3.5 18t-4.5 22t-10 19.5t-22.5 16t-39.5 5.5q-37 0 -70 -38.5t-33 -86.5q0 -27 12 -49.5t27 -35.5t38 -25q79 -39 129 -92q17 -18 27.5 -31.5t23.5 -36.5t19.5 -54t6.5 -70v-21q-1 -14 -5 -31.5t-17 -41t-31.5 -42t-52 -31.5t-75.5 -13q-42 2 -80.5 15.5 t-66 43t-27.5 67.5q0 11 8.5 21t18.5 10q8 0 17.5 -7.5t11.5 -17.5q10 -42 51 -74.5t76 -32.5q46 0 78 38t32 92q0 24 -5 46.5t-16.5 43.5t-23 37t-31.5 36t-33.5 32t-38.5 33.5t-37 32.5q-20 18 -33 33t-26.5 45.5t-13.5 65.5q0 67 44 122.5t112 55.5q39 0 73 -25.5 t34 -76.5q0 -9 -8 -17t-18 -8q-9 0 -17 7zM161 -228q4 4 20 18.5t22 25t6 25.5q-43 8 -43 35q0 12 13.5 27t28.5 15q9 0 17 -6.5t12 -16.5t4 -19q-4 -37 -23 -66t-57 -38z" />
<glyph unicode="&#x219;" horiz-adv-x="367" d="M65 17q-1 -1 -3.5 -5.5t-4 -6.5t-4 -3.5t-6.5 -1.5q-5 0 -7.5 6.5t-3.5 17.5t-1 20.5t0.5 21.5t0.5 15q0 22 9 22q12 0 22.5 -10t21 -25t17.5 -21q30 -35 70 -35q26 0 48.5 15t36 39.5t13.5 51.5q0 46 -41.5 83.5t-131.5 68.5q-31 11 -50.5 45.5t-19.5 74.5 q0 49 35.5 86.5t106.5 37.5q6 0 18.5 -0.5t18.5 -0.5h17h37q8 -16 8 -44q0 -2 0.5 -6.5t0 -6t-1 -5t-1.5 -5.5t-3.5 -5t-6.5 -5t-9 -5q-1 0 -5.5 4.5t-4.5 8.5v5q0 48 -64 48q-28 0 -48 -11t-29.5 -28t-13 -31t-3.5 -26v-3q-1 -9 0 -15.5t7 -20.5t18 -24.5t38 -22.5t62 -20 q1 0 2 -1q11 -4 20 -8t28.5 -18t33 -31t24 -47t10.5 -66q0 -28 -9 -50.5t-24 -37t-35.5 -24t-42 -13.5t-45.5 -4q-63 0 -105 22zM123 -218q5 5 13 12.5t13.5 12.5t11 11.5t8 14.5t2.5 18q-42 9 -42 35q0 12 13 27.5t28 15.5q14 0 23.5 -14t9.5 -29q-4 -37 -22.5 -66 t-57.5 -38z" />
<glyph unicode="&#x2c6;" horiz-adv-x="206" d="M99 655q-7 -8 -17 -24.5t-18 -27t-16 -10.5q-4 0 -10.5 5t-6.5 11q60 97 67 105q2 -2 20 -24.5t35.5 -45.5t19.5 -27t2 -7q0 -5 -3 -9.5t-10 -4.5t-18.5 11t-25 27t-19.5 21z" />
<glyph unicode="&#x2c7;" horiz-adv-x="206" d="M99 651q6 5 19.5 21t25 27t18.5 11t10 -4.5t3 -9.5t-2 -8q-3 -6 -37 -49t-38 -47l-67 105q0 5 4 9t8 5.5t5 1.5q8 0 16 -11t18 -27.5t17 -23.5z" />
<glyph unicode="&#x2d8;" horiz-adv-x="219" d="M36 600q30 -16 47 -16q26 0 46.5 17.5t20.5 44.5q0 13 -15.5 26.5t-29.5 13.5q-19 0 -40 -34q-16 9 -16 23q0 19 20.5 31.5t41.5 12.5q40 0 59 -19t19 -44q0 -45 -29.5 -71.5t-60.5 -26.5q-11 0 -27.5 4.5t-28.5 12t-12 14.5q0 6 5 11z" />
<glyph unicode="&#x2d9;" horiz-adv-x="153" d="M66 638q-12 0 -23.5 10t-11.5 23q0 9 5 17.5t13 14.5t18.5 9.5t21.5 3.5q10 0 21.5 -12.5t11.5 -19.5q0 -14 -20 -30t-36 -16z" />
<glyph unicode="&#x2da;" horiz-adv-x="204" d="M31 635q0 35 22 54.5t52 19.5q19 0 34 -8t24.5 -25t9.5 -41q0 -32 -22 -51.5t-52 -19.5q-29 0 -48.5 19t-19.5 52zM146 636.5q0 18.5 -11 34t-33 15.5t-33 -15.5t-11 -34t11 -34.5t33 -16t33 16t11 34.5z" />
<glyph unicode="&#x2db;" horiz-adv-x="175" d="M141 -154q-20 -13 -43 -13q-33 0 -50 18t-17 42q0 33 26 65.5t63 41.5h25q-15 -1 -34.5 -18t-33.5 -39.5t-14 -38.5t10.5 -27t28.5 -11q24 0 39 17v-37z" />
<glyph unicode="&#x2dc;" horiz-adv-x="272" d="M31 650q19 17 27.5 24t21.5 12.5t28 5.5t41 -11.5t37 -11.5q15 0 52 19q4 -4 4 -9q0 -13 -32.5 -29t-43.5 -16q-15 0 -41.5 13.5t-38.5 13.5q-9 0 -24 -7t-21 -7t-10 3z" />
<glyph unicode="&#x2dd;" horiz-adv-x="240" d="M108 696q-3 -5 -11.5 -19.5t-16 -27.5t-16 -27t-15 -22t-9.5 -8q-4 0 -6.5 4t-2.5 9q0 12 20.5 53t21.5 45q5 12 15 12q7 0 13 -5.5t7 -13.5zM210 696q-2 -3 -10.5 -18.5t-16 -28t-16.5 -27t-16 -22.5t-9 -8q-4 0 -6.5 4t-2.5 9q0 9 8.5 29t20 42t13.5 27q5 12 16 12 q4 0 8.5 -2.5t7.5 -7t3 -9.5z" />
<glyph unicode="&#x401;" horiz-adv-x="454" d="M345 780q-5 0 -10 2t-9.5 5t-8 7t-6 9.5t-2.5 10.5q0 9 5 17.5t13.5 14.5t19 9.5t20.5 3.5t22 -12.5t12 -19.5t-6 -15.5t-15 -15t-18.5 -11t-16.5 -5.5zM164 796q-16 9 -16 29q0 11 4.5 17.5t9.5 8.5t13.5 3.5t10.5 2.5q37 -2 37 -31q0 -14 -14 -25t-28 -11q-9 0 -17 6z M367 99q3 15 7 19t20 4h8q3 -44 12 -105q-9 -14 -27 -14q-3 0 -22.5 1l-19.5 1h-282q-5 0 -8.5 4t-3.5 10t2.5 9t8 4t10 1h14h14.5v657q-4 0 -11 -0.5t-11 -0.5h-9t-7.5 1t-5.5 2.5t-4 4t-1 6.5q0 6 3.5 10.5t8.5 4.5h3q30 1 99 1l188 -2q5 1 15 1.5t16 0.5q20 0 30 -12 q-10 -67 -12 -106h-8q-16 0 -23 14t-7 30.5t-0.5 31t-4.5 14.5q-54 1 -108 1q-52 0 -93 -2v-254q24 0 72 0.5t71 0.5v6.5v7.5t1 6.5t2.5 5.5t5 3.5t7.5 1.5q9 0 24 -4q3 -21 3 -48q0 -21 -4.5 -27.5t-14.5 -6.5q-14 0 -18 5.5t-2.5 12t-3.5 11.5t-21 5q-13 0 -41.5 -0.5 t-42.5 -0.5q-26 0 -38 1q0 -28 -1 -85t-1 -99q0 -181 2 -199q14 0 53 -0.5t59 -0.5q91 0 92 4q1 10 2.5 31t2.5 32z" />
<glyph unicode="&#x402;" horiz-adv-x="632" d="M538 432q43 -58 43 -142q0 -14 -1 -26t-9 -44t-23 -62.5t-46.5 -74.5t-75.5 -86q-8 -8 -18.5 -15t-18.5 -11t-22 -10.5t-21 -10.5q-1 3 -1 8q0 18 24 38q66 53 108 137t42 173q0 38 -12.5 70t-33.5 53t-49.5 32.5t-60.5 11.5q-91 0 -144 -92v-357h39q4 0 7 -4t3 -10 q0 -13 -13 -13h-130q-5 0 -9 4t-4 9q0 6 4 10t9 4h36v208v454h-26h-29.5h-26t-20 -0.5t-7.5 -1.5q-1 -7 -1 -22.5t-1 -25t-3.5 -20t-8.5 -16t-16 -5.5q-5 0 -9 18t-7.5 48t-5.5 39q11 14 32 14q8 -2 158 -2q149 0 161 2q22 0 29 -14q0 -5 -2 -22.5t-3.5 -29t-4 -25.5t-6 -21 t-6.5 -7q-12 0 -18.5 9.5t-7.5 21t-1.5 30t-2.5 27.5q-1 5 -32 5q-11 0 -38 -1t-39 -1v-237q1 0 10.5 6t23 13.5t32.5 15t46 12.5t56 5q94 0 151 -69z" />
<glyph unicode="&#x403;" horiz-adv-x="413" d="M382 714q25 0 31 -13q-2 -21 -6.5 -55.5t-5.5 -50.5q-16 0 -22 1.5t-8.5 6t-3.5 17.5q0 3 -1.5 24.5t-3.5 34.5t-7 13q-51 2 -173 2q-14 0 -18 -6t-4 -23v-58.5t-0.5 -130.5t-0.5 -146q0 -300 1 -303h35q5 0 9.5 -4.5t4.5 -10.5t-4.5 -10t-9.5 -4h-132q-12 0 -12 14 q0 6 2 9t8 4.5t10.5 1.5h14.5h15v485v171h-15h-14.5t-10 1t-7.5 4t-2 9q0 14 11 14h31q6 0 37 -0.5t64 -0.5h70.5t69 1t47.5 3zM326 869q-63 -106 -86 -106q-5 0 -8.5 5.5t-3.5 10.5q0 9 8 27t21 42.5t14 27.5q6 15 25 15q21 0 30 -22z" />
<glyph unicode="&#x404;" horiz-adv-x="436" d="M96 600q8 55 43 83.5t105 28.5q136 0 142 -132q0 -14 -12 -19q-2 -1 -6 -1q-14 0 -20 13.5t-9 33t-9.5 39t-27.5 33.5t-57 14q-95 0 -103 -103l-4 -195q4 4 19 16.5t22.5 18t18.5 11.5t19 6q21 0 51.5 -24t40.5 -56l-6 -2q-46 44 -58 44q-6 0 -22 -12t-36.5 -24 t-36.5 -12q-5 0 -13 2l-2 -81q0 -40 3.5 -120.5t7.5 -102.5q3 -21 26 -35.5t46 -14.5q39 0 74 25.5t37 65.5q1 10 0.5 21.5t0 23t2 21.5t6 16t12.5 7q27 0 27 -43q0 -24 -7 -48.5t-22 -49t-44.5 -40.5t-69.5 -16q-35 2 -58 7.5t-41 20t-27.5 34t-16 56.5t-8 80.5t-1.5 111.5 q0 76 4 175t10 123z" />
<glyph unicode="&#x405;" horiz-adv-x="436" d="M286 605q-2 5 -3.5 18t-4.5 22t-10 19.5t-22.5 16t-39.5 5.5q-37 0 -70 -38.5t-33 -86.5q0 -27 12 -49.5t27 -35.5t38 -25q79 -39 129 -92q17 -18 27.5 -31.5t23.5 -36.5t19.5 -54t6.5 -70v-21q-1 -14 -5 -31.5t-17 -41t-31.5 -42t-52 -31.5t-75.5 -13q-42 2 -80.5 15.5 t-66 43t-27.5 67.5q0 11 8.5 21t18.5 10q8 0 17.5 -7.5t11.5 -17.5q10 -42 51 -74.5t76 -32.5q46 0 78 38t32 92q0 24 -5 46.5t-16.5 43.5t-23 37t-31.5 36t-33.5 32t-38.5 33.5t-37 32.5q-20 18 -33 33t-26.5 45.5t-13.5 65.5q0 67 44 122.5t112 55.5q39 0 73 -25.5 t34 -76.5q0 -9 -8 -17t-18 -8q-9 0 -17 7z" />
<glyph unicode="&#x406;" horiz-adv-x="259" d="M195 28q5 0 9 -4t4 -9.5t-4 -10t-9 -4.5v0h-3h-28h-84h-17q-5 0 -8.5 4t-3.5 9q0 15 12 15h29h1h6q1 28 1 206v119.5t-0.5 121t-0.5 103v76v28.5h-6h-1h-29q-12 0 -12 15t12 15h17q14 0 44 -0.5t40 -0.5v1h28h3v-1q13 0 13 -14q0 -6 -4 -10.5t-9 -4.5h-31h-6v-654h6h31z " />
<glyph unicode="&#x407;" horiz-adv-x="252" d="M192 28q5 0 9 -4t4 -9.5t-4 -10t-9 -4.5v0h-3h-28h-85h-16q-5 0 -8.5 4t-3.5 9q0 15 12 15h29h1h6q1 28 1 206v119.5t-0.5 121t-0.5 103v76v28.5h-6h-1h-29q-12 0 -12 15t12 15h16q15 0 45 -0.5t40 -0.5v1h28h3v-1q13 0 13 -14q0 -6 -4 -10.5t-9 -4.5h-31h-6v-654h6h31z M197 780q-8 0 -16 4.5t-14 12.5t-6 17q0 19 18 32t40 13q10 0 22 -12.5t12 -19.5q0 -9 -10 -20.5t-23 -18.5t-23 -8zM16 796q-16 9 -16 29q0 11 4.5 17.5t9.5 8.5t13.5 3.5t10.5 2.5q37 -2 37 -31q0 -14 -14 -25t-28 -11q-9 0 -17 6z" />
<glyph unicode="&#x408;" horiz-adv-x="292" d="M228 714q4 0 7 -2t5 -5.5t2 -7.5q0 -6 -4 -10.5t-10 -4.5h-28h-1h-6v-635q0 -42 -7 -72t-13.5 -40.5t-16.5 -23.5q-54 -65 -123 -65q-32 0 -63 15t-31 42q0 8 8 17.5t17 9.5q11 0 22 -18q20 -34 61 -34q40 0 63.5 33.5t23.5 76.5q0 12 -0.5 352.5t-0.5 341.5h-7h-28 q-13 0 -13 15t13 15h17h85h26h4h-2z" />
<glyph unicode="&#x409;" horiz-adv-x="782" d="M408 437q41 2 62 2q272 0 272 -199q0 -48 -12.5 -86t-33.5 -62t-43 -38t-47 -22q-90 -34 -265 -34h-26h-4h1q-5 0 -9.5 4t-4.5 9q0 6 4.5 10.5t9.5 4.5h37v657q-23 0 -59 0.5t-49 0.5q-15 0 -19 -4t-7 -20q-1 -11 -5 -80.5t-7 -107.5q-1 -17 -6.5 -86.5t-8.5 -100 t-11 -82.5t-19 -94q-37 -117 -108 -117q-27 0 -48.5 13t-21.5 40q0 7 4.5 12.5t14.5 5.5q13 0 31.5 -12t27.5 -12q15 0 28 13.5t23 40.5t18 56t14.5 72t11 75t8.5 79t6 70t4 61q1 3 1 5v4.5v4.5q2 17 5.5 55.5t6.5 69.5t3 38q0 1 -18.5 1.5t-18.5 13.5q0 12 14 12h242h9h26 l1 1l2 -1q5 0 9 -4.5t4 -10t-4 -9.5t-9 -4h-29h-1h-6v-94v-151zM408 29q5 -1 18 -1q25 0 55 5t65.5 19.5t64.5 36t48 58t19 83.5q0 33 -8.5 60t-22.5 44.5t-35 30.5t-40.5 19.5t-45.5 10.5t-44.5 5t-41.5 1h-32v-372z" />
<glyph unicode="&#x40a;" horiz-adv-x="898" d="M615 439h11q22 0 47 -3.5t59.5 -16.5t61 -33t45.5 -58t19 -87q0 -156 -138 -208q-70 -34 -160 -34h1h-4h-27h-7v1q-50 0 -76 -1v1h-17q-14 0 -14 13q0 6 4 10.5t10 4.5h29h6q0 11 0.5 34t0.5 35q0 26 -0.5 79.5t-0.5 79.5v40v60q-5 1 -19 1q-19 0 -42 -1.5t-41.5 -2.5 t-41 -2t-41.5 -1q-9 0 -38.5 1t-49 0t-33.5 -4v-319h6h1h30q2 0 4.5 -1.5t4.5 -3t3 -4.5t1 -6q0 -5 -4 -9t-9 -4l-2 -1v1h-28q-55 0 -84 -1v1h-19q-5 0 -8.5 3.5t-3.5 9.5q0 4 2 7.5t4.5 5.5t5.5 2h30h1h6q0 11 0.5 34t0.5 35q0 26 -0.5 79.5t-0.5 79.5v40v259v129h-6h-1 h-30q-5 0 -8.5 4t-3.5 10q0 4 2 7t4.5 5t5.5 2h19h84h28h2q3 0 6 -2t5 -5t2 -7t-2 -7.5t-5 -5.5t-6 -2h-30l-1 1h-6v-308q230 0 306 6v173v107h1q-1 6 -1 22h-6h-29q-14 0 -14 14q0 6 4 10t10 4h17h84h27h4h-1q5 0 8.5 -4t3.5 -10q0 -7 -4.5 -11t-8.5 -4h-30h-1h-5v-94v-151 q60 0 91 1zM694 55q35 28 61 73t26 99q0 63 -31 117.5t-75 61.5q-49 8 -103 8q-17 0 -48 -3v-269v-93v-6v-5.5t1 -4.5t3.5 -4t7.5 -1.5t13 -0.5q39 0 86.5 10t58.5 18z" />
<glyph unicode="&#x40b;" horiz-adv-x="627" d="M594 26q2 0 4.5 -1.5t4.5 -3t3 -4t1 -5.5t-2 -6t-5 -4.5t-6 -1.5h-19h-83h-27h-2h-3h1q-12 0 -12 12q0 14 13 14h30h1h5v221v2q1 4 0 12.5t-1.5 20t-5 24t-10.5 25t-17.5 24.5t-26.5 21t-37.5 14.5t-49.5 5.5q-56 0 -134 -24v-346h38q5 0 8.5 -4t3.5 -9.5t-3.5 -9 t-8.5 -3.5q-15 2 -54.5 0t-65 -0.5t-25.5 12.5q0 14 13 14h37v657l-107 1q-4 -1 -5 -10.5t0 -22.5t0 -26t-7 -21.5t-19 -8.5h-9q-4 39 -12 105q6 13 26 13q-4 0 74 -0.5t160 -1t89 -0.5h5q17 0 24 -13q-2 -18 -4.5 -36t-5 -37.5t-3.5 -29.5h-9q-19 0 -24.5 23t-2.5 42.5 t-4 22.5h-110v-61l1 -218q93 25 158 25q52 0 88.5 -14t55 -39t27 -53t8.5 -61q0 -14 1.5 -124t1.5 -112h8h30z" />
<glyph unicode="&#x40c;" horiz-adv-x="505" d="M101 303v255v128h-7h-28q-6 0 -10.5 4t-4.5 10t4 10t11 4h17h83h29h3h-1q2 0 4.5 -1t4 -3t2.5 -4.5t1 -5.5q0 -6 -3.5 -10t-8.5 -4h-31h-1h-6v-95q0 -19 -0.5 -32t-0.5 -19q0 -8 0.5 -22.5t0.5 -21.5q0 -5 -0.5 -13.5t-0.5 -13.5t1.5 -8.5t2 -5t4.5 -2.5t5 -1h6.5h6.5 q26 0 48 16t38 46t26 55.5t20 59.5q9 34 37 63t59 29q27 0 47 -27t20 -54q0 -15 -11 -28.5t-22 -13.5q-4 0 -6.5 3.5t-2.5 7.5q0 3 2.5 11.5t2.5 12.5q0 24 -15 42t-31 18q-15 -1 -29.5 -15t-27.5 -41t-22 -48.5t-21.5 -55.5t-16.5 -43q-2 -8 -8 -16.5t-15.5 -19.5 t-13.5 -17q8 -4 14 -6q104 -26 131 -138q3 -16 5.5 -45t4 -56t6.5 -57t12.5 -52.5t24.5 -39t40 -19.5q35 -4 46 -19q-8 -8 -24 -8q-43 0 -75 22t-49 63q-7 16 -12 36t-10 44.5t-8 37.5q-6 29 -11 49.5t-12.5 44.5t-16 40.5t-21 32.5t-27.5 25.5t-35 15.5t-44 6q-1 0 -9 -0.5 t-13 -0.5v-229v-154h6h1h31q5 0 8.5 -4.5t3.5 -10.5q0 -5 -4 -9.5t-8 -4.5h1h-3h-29h-83h-17q-6 0 -10.5 4.5t-4.5 9.5q0 6 4 10.5t11 4.5h28h7q1 28 1 89q0 31 -0.5 93t-0.5 91zM353 869q-63 -106 -87 -106q-5 0 -8 5.5t-3 10.5q0 6 3.5 16t9 21.5t11 22t11 21.5t8.5 16 q6 15 24 15q22 0 31 -22z" />
<glyph unicode="&#x40e;" horiz-adv-x="520" d="M506 710q14 -2 14 -15t-14 -13h-29h-1h-26q1 -3 -64 -258q-17 -63 -26 -95.5t-26 -83t-36.5 -91t-45.5 -78.5q-54 -82 -123 -82q-37 0 -66 22.5t-29 62.5q0 49 27 49q22 0 22 -21q0 -5 -1.5 -18.5t-1.5 -20.5q0 -53 49 -53q45 0 84 50q44 59 81 157q1 2 1 8q0 8 -4 14 q-41 82 -90 168q-18 42 -88 176q-7 12 -26 52t-19 42h-5h-1h-29q-5 0 -9 4t-4 10q0 5 4 9.5t9 4.5h18q59 0 83 -1q0 1 1 1h27h3h-1q12 -2 12 -15q0 -6 -3.5 -9.5t-8.5 -3.5h-4h-1h-25q0 -1 32 -65t80 -158.5t71 -141.5q9 12 35 102.5t48 175t22 87.5h-16h-31q-12 0 -12 14 t12 14h18q60 0 83 -1l1 1h27h3h-1zM206 804q31 -16 47 -16q10 0 20 3t18.5 8.5t15 13t10 17t3.5 20.5q0 13 -15.5 26.5t-29.5 13.5q-19 0 -39 -34q-17 9 -17 23q0 19 21 31.5t42 12.5q39 0 58 -19t19 -44q0 -45 -29.5 -71.5t-60.5 -26.5q-18 0 -43 10t-25 21q0 6 5 11z" />
<glyph unicode="&#x40f;" horiz-adv-x="610" d="M547 27q5 0 9 -4.5t4 -11.5q0 -5 -4 -9t-9 -4h1h-3h-28h-9h-2q-114 -13 -145 -26q-15 -6 -23.5 -25t-15 -34.5t-16.5 -17.5q-3 0 -10 15.5t-21.5 34.5t-35.5 25q-33 10 -62.5 16.5t-47.5 8t-33.5 2.5t-23 0.5t-13 0.5t-7 3.5t-1.5 9.5q0 16 13 16h30v-1h5q1 8 1 19h-1 v110v256v31q0 26 0.5 81.5t0.5 83.5q0 51 -1 75h-5h-30q-13 0 -13 14q0 1 1.5 4.5t1.5 6.5v-1q5 5 10 5h17q10 0 41 -1t42 0h29v1l3 -1h-1q5 0 9.5 -4t4.5 -10t-4.5 -10t-9.5 -4h-31h-1h-5v-656h5l1 1h289q0 3 1 9.5t1 8.5h-2v110v256v31q0 26 0.5 81.5t0.5 83.5q0 51 -1 75 h-6h-29q-6 0 -10.5 4t-4.5 10q0 4 2 7.5t5.5 5.5t7.5 2h18q9 0 38 -1t43 0h28v1l3 -1h-1q5 0 9 -4t4 -10q0 -4 -2 -7t-5 -5t-6 -2h-30h-6v-656h6v1h30z" />
<glyph unicode="&#x410;" d="M514 18q0 -14 -13 -16h1h-3h-28q0 1 -2 1q-9 0 -37.5 -0.5t-43.5 -0.5h-17q-12 0 -12 16q0 12 11 14h34q-35 120 -60 216l-2 2h-189q-4 0 -31.5 -96.5t-32.5 -121.5q4 -1 8 -1l22 1q11 -2 11 -14q0 -14 -11 -16h-2h-24v1q-9 0 -32.5 -0.5t-36.5 -0.5h-13q-4 0 -7.5 5 t-3.5 11q0 11 8 13t38 2h15q2 0 13.5 36t28 95t36 129.5t39.5 143t36.5 132.5t27.5 100.5t12 44.5t5.5 7t6.5 3q4 0 8.5 -4t4.5 -8q3 -10 17 -62t34 -124.5t42.5 -156t41.5 -155.5t32.5 -123t14.5 -59h3h38q12 -2 12 -14zM246 608q-36 -125 -89 -330h182q-8 27 -40.5 145.5 t-49.5 184.5h-3z" />
<glyph unicode="&#x411;" horiz-adv-x="488" d="M417 306q0 -29 -1 -75.5t-1 -80.5v-14t-3 -23t-7.5 -29.5t-14.5 -29.5t-23.5 -27.5t-35 -19t-48.5 -7.5h-219q-5 0 -9 4.5t-4 10.5t4 10.5t9 4.5h38v484v172h-11.5h-10.5h-9t-8.5 1t-6 2.5t-4 4t-1.5 6.5q0 6 4 10t9 4q247 1 291 1q9 1 31 1q23 0 29 -13 q-1 -7 -2.5 -22.5t-3 -28t-3.5 -26t-5.5 -21t-6.5 -7.5q-7 0 -12.5 2.5t-9 8.5t-5.5 11.5t-2.5 15.5t-1 16t-0.5 17.5v15.5l-15 0.5t-38.5 0.5h-50h-54h-47.5q0 -13 -0.5 -40t-0.5 -40q0 -26 0.5 -80t0.5 -85q2 0 10 2t16.5 4.5t24.5 4.5t34 2q37 0 66 -6t47.5 -17.5t31 -25 t18.5 -31.5t8.5 -33.5t2.5 -34.5zM357 134v97q0 51 -2 91q-2 21 -6 36t-15 33t-36 27.5t-62 9.5q-20 0 -54 -6q-20 -3 -24 -30t-3 -124v-83q0 -30 1 -78t1 -62q0 -15 6 -19.5t27 -4.5q9 0 20 1t28 3.5t32 7t31 13t28 20t19.5 29t8.5 39.5z" />
<glyph unicode="&#x412;" horiz-adv-x="505" d="M446 341q9 -44 9 -97q0 -35 -2 -63t-6 -51t-9.5 -40.5t-14.5 -31t-18 -23t-23 -16t-27 -10.5t-32.5 -6t-36.5 -2.5t-42 -0.5q-11 0 -48.5 0.5t-58.5 0.5h-71q-15 0 -15 14q0 6 4.5 10.5t10.5 4.5q16 -1 26 -1q4 0 6.5 3.5t3.5 11t1 14.5t-0.5 17.5t-0.5 15.5 q0 24 -0.5 70.5t-0.5 60.5q0 8 0.5 23.5t0.5 22.5q0 17 -0.5 52t-0.5 53v79v105q1 12 1 40q0 14 -0.5 44t-0.5 45h-9.5h-9h-8t-7 0.5t-5.5 1t-5 1.5t-3.5 2.5t-2 3.5t-0.5 5q0 14 15 14h29h9h15.5t18.5 0.5t19 0.5q10 0 29 -0.5t28 -0.5q8 0 24.5 0.5t25.5 0.5q57 0 87 -21 q40 -39 40 -133q0 -49 -7 -76.5t-30 -53.5q44 -24 62.5 -40.5t29.5 -49.5zM160 687v-253h7q46 1 66 2.5t46.5 7.5t36 19.5t17 36.5t7.5 60q0 70 -28 107q-6 10 -28.5 20.5t-57.5 10.5q-29 0 -66 -11zM316 35q37 16 54.5 70t17.5 121q0 191 -137 191q-64 0 -92 -11 q1 -30 1 -85q0 -44 -1.5 -133t-1.5 -134q0 -14 5 -17.5t25 -5.5q54 -8 66 -8q37 0 63 12z" />
<glyph unicode="&#x413;" horiz-adv-x="413" d="M382 714q25 0 31 -13q-2 -21 -6.5 -55.5t-5.5 -50.5q-16 0 -22 1.5t-8.5 6t-3.5 17.5q0 3 -1.5 24.5t-3.5 34.5t-7 13q-51 2 -173 2q-14 0 -18 -6t-4 -23v-58.5t-0.5 -130.5t-0.5 -146q0 -300 1 -303h35q5 0 9.5 -4.5t4.5 -10.5t-4.5 -10t-9.5 -4h-132q-12 0 -12 14 q0 6 2 9t8 4.5t10.5 1.5h14.5h15v485v171h-15h-14.5t-10 1t-7.5 4t-2 9q0 14 11 14h31q6 0 37 -0.5t64 -0.5h70.5t69 1t47.5 3z" />
<glyph unicode="&#x414;" horiz-adv-x="564" d="M502 712q11 -1 11 -11q0 -13 -13 -16t-25 0.5t-16 -0.5v-636q0 -11 7 -16.5t15.5 -6t15.5 -3t7 -9.5q0 -11 -4 -32t-12.5 -41.5t-19.5 -20.5q-5 0 -9.5 3.5t-7 8t-2.5 9.5l10 25q4 17 4 28q0 8 -4 8q-22 0 -189 -1.5t-244 -1.5q0 -3 3 -14.5t5.5 -23t2.5 -19.5 q0 -23 -21 -23q-9 0 -15.5 6t-9.5 16.5t-4.5 20.5t-3.5 23.5t-3 20.5q0 18 17 18q1 0 6 -1t8 -1q32 0 59 33.5t45 86t33 119.5t23.5 132t14 126.5t7.5 98.5t2 53q0 10 -18 15t-18 15q0 13 11 13h311q3 0 6.5 -0.5t7.5 -1t7 -0.5zM399 92v573q0 20 -4 20h-7h-154 q-2 0 -4 -30.5t-6 -82t-10.5 -114t-18.5 -130t-27 -126.5t-38 -107t-51 -68q22 0 144 -0.5t174 -0.5q2 0 2 66z" />
<glyph unicode="&#x415;" horiz-adv-x="452" d="M366 95q2 15 6 19t19 4q3 0 6.5 -7.5t5.5 -21t3.5 -26t3 -28t2.5 -22.5q-5 -14 -27 -14q-1 0 -20.5 1t-21.5 1q-24 0 -71.5 -0.5t-91.5 -0.5h-54q-54 -1 -64.5 1.5t-10.5 13.5q0 6 2.5 9t8 4t10 1h14h14.5v656h-15h-14t-10 1t-8 4t-2 9t3.5 10.5t8.5 4.5h2q30 1 99 1 l188 -2q4 0 14.5 1t14.5 1q26 0 31 -12q-1 -5 -1.5 -12l-1 -14t-1.5 -15.5t-2 -16l-2 -15t-2.5 -13.5t-3 -10.5t-3.5 -7t-4 -2.5q-15 0 -18.5 4t-6.5 20q-2 15 -2 36q-1 24 -9.5 27.5t-58.5 3.5q-29 -1 -47 -1q-52 0 -91 -2v-254q22 0 70 0.5t71 0.5v8.5t0.5 9t2 7t5 6 t8.5 1.5q8 0 25 -4q2 -14 2 -48q0 -21 -4.5 -27.5t-15.5 -6.5q-13 0 -16.5 4t-3.5 14t-2 16h-22q-13 0 -41.5 -0.5t-42.5 -0.5q-25 0 -36 1v-55t-0.5 -115.5t-0.5 -113.5q0 -24 0.5 -47.5t0.5 -37.5v-14q14 0 52.5 -0.5t58.5 -0.5q91 0 91 4q6 61 6 63z" />
<glyph unicode="&#x416;" horiz-adv-x="737" d="M750 14q3 -1 8 -10q-10 -7 -25 -7q-88 2 -124 85q-7 16 -12 34t-10 47.5t-7 36.5q-6 30 -11 48.5t-13 43.5t-16 41t-20.5 33t-27.5 26.5t-35 15.5t-44 6q-13 0 -21 -2v-382h36q6 0 10 -4.5t4 -10.5q0 -14 -14 -14l-3 -1q0 1 -1 1h-127q-6 0 -10 4t-4 10q0 4 2 7.5t5 5.5 t7 2h38q2 95 2 247q0 135 -2 135q-25 0 -47 -5.5t-41 -16t-34 -28t-23 -40.5q-13 -32 -21 -77t-16.5 -88.5t-22.5 -74.5q-19 -41 -51.5 -63t-74.5 -22q-14 0 -24 7q1 2 2.5 4.5t2.5 4t3 1.5q17 7 38.5 12.5t30.5 8.5t18 13.5t14 30.5q7 33 14.5 105t16.5 109q13 52 59 96 t86 48q-23 16 -40.5 44.5t-25 52t-16.5 56t-14 43.5q-9 18 -15 28t-18 21t-25 11q-17 0 -31.5 -18t-14.5 -42q0 -4 2.5 -12.5t2.5 -11.5q0 -11 -10 -11q-7 0 -14.5 5.5t-12.5 15.5t-5 23q0 27 19 53t47 26q31 0 57.5 -27.5t37.5 -64.5q51 -176 130 -176q10 0 16 1v232h-38 q-4 0 -7 2t-5 5t-2 7q0 6 4 10t10 4h127h2h2q4 0 7 -2t5 -5t2 -7q0 -6 -4 -10.5t-10 -4.5l-36 1l-0.5 -11.5t-0.5 -29v-38.5v-44.5v-42.5v-14q0 -41 2.5 -47.5t17.5 -6.5h5q27 0 49 16.5t38 46.5t25.5 55t19.5 59q10 35 37.5 63.5t58.5 28.5q26 0 46 -26t20 -52q0 -9 -4 -19 t-12 -18t-18 -8q-9 0 -9 11q0 3 2 11.5t2 12.5q0 16 -6 30t-16.5 22t-21.5 8q-29 0 -59 -60q-3 -6 -18 -54t-32 -82.5t-43 -59.5q36 -4 83 -48.5t58 -95.5q4 -15 7 -32.5t4 -29.5t2.5 -33t2.5 -31q4 -29 8 -48t7 -33.5t8.5 -23t10.5 -14.5t14.5 -10t17 -6.5t23 -7.5 t29.5 -10z" />
<glyph unicode="&#x417;" horiz-adv-x="400" d="M87 189q5 12 17 12q13 0 18 -13q-11 -81 -11 -96q0 -26 6 -46.5t15.5 -31t17 -15.5t13.5 -6q3 -1 9 -1q28 0 62.5 23t40.5 48q13 48 13 134q0 112 -19 194q-10 46 -55 46h-18h-32q-9 0 -25 -2.5t-24 -2.5q-11 3 -11 11q0 12 16 14t38.5 4.5t33.5 15.5q31 69 31 124 q0 27 -6 47.5t-14 31t-17.5 17t-15.5 8t-9 1.5q-22 0 -43.5 -14.5t-21.5 -34.5q0 -9 4.5 -29t4.5 -31q0 -8 -3 -15t-8.5 -11.5t-11.5 -4.5q-10 0 -15.5 9t-5.5 24q0 55 32.5 95t88.5 40q26 0 51 -10q12 -4 27.5 -35t15.5 -76q0 -48 -23 -98q-1 -2 -6 -13t-5 -15q0 -2 9 -4 t22.5 -8.5t27 -19.5t23.5 -44t11 -74q5 -67 5 -117q0 -243 -153 -243q-61 0 -87.5 30.5t-26.5 95.5q0 56 14 86z" />
<glyph unicode="&#x418;" horiz-adv-x="648" d="M584 30q6 0 10 -4.5t4 -10.5t-4 -10.5t-10 -4.5h-131q-6 0 -10 4t-4 11q0 6 4 10.5t10 4.5h30q1 0 2.5 -0.5t3.5 -0.5l1 0.5t2 0.5l-0.5 31.5t-0.5 81.5v112t-0.5 125t-0.5 117.5v93.5v50q-9 -11 -61 -101.5t-76 -138.5q-42 -76 -77.5 -145.5t-54.5 -110t-25 -50.5 q-3 -6 -10 -21.5t-12 -25.5t-12 -22.5t-15.5 -18.5t-16.5 -6q-29 0 -29 48v463v161v9q0 4 -1 4h-6h-30q-5 0 -9 4t-4 10q0 14 13 14h132q13 0 13 -14q0 -6 -4 -10t-9 -4h-31h-8v-120q0 -94 -1 -260t-1 -196l1 -34q2 4 34 63.5t78 145t69 127.5q83 151 123 227q9 14 23.5 42 t23 38.5t18.5 10.5q12 0 16 -2t6.5 -14t2.5 -43q0 -26 -0.5 -103t-0.5 -112v-117v-274q0 -36 2 -36l1.5 0.5t2.5 0.5h29z" />
<glyph unicode="&#x419;" horiz-adv-x="650" d="M276 783q31 -15 47 -15q13 0 25 4.5t21.5 12.5t15.5 19.5t6 24.5q0 7 -5 14.5t-11.5 13t-14.5 9.5t-14 4q-20 0 -40 -35q-16 9 -16 24q0 13 10.5 23.5t24.5 15.5t27 5q40 0 58.5 -19t18.5 -45q0 -45 -29 -71t-60 -26q-19 0 -44 10t-25 20q0 6 5 11zM584 30q7 0 11.5 -4.5 t4.5 -10.5t-4.5 -10.5t-11.5 -4.5h-129q-6 0 -10 4.5t-4 10.5t4 10.5t10 4.5h29q3 -1 4 -1q2 0 2 312q0 299 -1 300q-9 -11 -58.5 -100t-75.5 -140q-113 -213 -122 -238q-57 -102 -74 -150q-2 -4 -10.5 -8t-16.5 -4q-31 0 -31 48v556v68v9q0 4 -1 4h-6h-29q-6 0 -10 4t-4 10 q0 14 14 14h131q13 0 13 -14q0 -6 -4 -10t-9 -4h-28h-7v-75q0 -108 -1 -305t-1 -214v-16q3 5 35 65t75.5 142t68.5 129q20 38 62 113.5t62 113.5q10 15 22.5 42t21 38t20.5 11t15.5 -1.5t6.5 -15t3 -45.5q0 -27 -0.5 -106t-0.5 -113v-28q0 -27 -0.5 -142.5t-0.5 -167.5 q0 -82 2 -82q1 0 3.5 0.5l2.5 0.5h27z" />
<glyph unicode="&#x41a;" horiz-adv-x="505" d="M101 303v255v128h-7h-28q-6 0 -10.5 4t-4.5 10t4 10t11 4h17h83h29h3h-1q2 0 4.5 -1t4 -3t2.5 -4.5t1 -5.5q0 -6 -3.5 -10t-8.5 -4h-31h-1h-6v-95q0 -19 -0.5 -32t-0.5 -19q0 -8 0.5 -22.5t0.5 -21.5q0 -5 -0.5 -13.5t-0.5 -13.5t1.5 -8.5t2 -5t4.5 -2.5t5 -1h6.5h6.5 q26 0 48 16t38 46t26 55.5t20 59.5q9 34 37 63t59 29q27 0 47 -27t20 -54q0 -15 -11 -28.5t-22 -13.5q-4 0 -6.5 3.5t-2.5 7.5q0 3 2.5 11.5t2.5 12.5q0 24 -15 42t-31 18q-15 -1 -29.5 -15t-27.5 -41t-22 -48.5t-21.5 -55.5t-16.5 -43q-2 -8 -8 -16.5t-15.5 -19.5 t-13.5 -17q8 -4 14 -6q104 -26 131 -138q3 -16 5.5 -45t4 -56t6.5 -57t12.5 -52.5t24.5 -39t40 -19.5q35 -4 46 -19q-8 -8 -24 -8q-43 0 -75 22t-49 63q-7 16 -12 36t-10 44.5t-8 37.5q-6 29 -11 49.5t-12.5 44.5t-16 40.5t-21 32.5t-27.5 25.5t-35 15.5t-44 6q-1 0 -9 -0.5 t-13 -0.5v-229v-154h6h1h31q5 0 8.5 -4.5t3.5 -10.5q0 -5 -4 -9.5t-8 -4.5h1h-3h-29h-83h-17q-6 0 -10.5 4.5t-4.5 9.5q0 6 4 10.5t11 4.5h28h7q1 28 1 89q0 31 -0.5 93t-0.5 91z" />
<glyph unicode="&#x41b;" horiz-adv-x="508" d="M444 30q14 -2 14 -14q0 -7 -4.5 -11.5t-10.5 -4.5h-20q-13 0 -41.5 0.5t-38.5 0.5l-1 -1h-28h-3h1q-14 2 -14 16q0 12 13 14h39v657h-107q-17 0 -21.5 -3.5t-5.5 -20.5q-2 -29 -8.5 -124t-12 -157.5t-12.5 -123.5q-3 -25 -12 -78.5t-13 -66.5q-37 -117 -109 -117 q-27 0 -48 13t-21 40q0 7 4.5 12.5t14.5 5.5q13 0 32 -12t27 -12q20 0 36.5 25.5t28.5 71t20.5 94t14.5 109t9 100t5 81.5q1 19 4.5 58t6.5 70t3 34q0 1 -6 1h-12.5t-12 3.5t-5.5 10.5q0 13 15 13h276q15 0 15 -13q0 -10 -6 -12t-30 -2h-13q-1 0 -1 -328t1 -329h37z" />
<glyph unicode="&#x41c;" horiz-adv-x="722" d="M671 12q0 -5 -3.5 -9t-8.5 -4h1h-3h-129q-5 0 -9 4t-4 9q0 15 13 15h31h6v176v398q-18 -39 -94 -164.5t-104 -163.5q-39 54 -109.5 168t-112.5 171q0 -86 0.5 -324t0.5 -261l51 1q5 0 9 -4.5t4 -11.5q0 -5 -4 -9t-9 -4h-2h-130q-6 0 -10 4t-4 9q0 15 14 15h54 q0 21 -2.5 342t-2.5 347q0 3 6 3q1 0 5 -2q1 0 37 -52.5t59.5 -87t63.5 -97t73 -117.5q9 -16 16 -16q8 0 19 15q118 181 187 321q19 34 31 34q9 0 9 -15q2 -51 2 -675h6q0 1 1 1h30q12 0 12 -16z" />
<glyph unicode="&#x41d;" horiz-adv-x="625" d="M561 31q6 0 9.5 -4.5t3.5 -11.5q0 -5 -4 -9.5t-9 -4.5h1h-3h-27h-85h-16q-6 0 -10.5 4.5t-4.5 9.5q0 16 15 16h29v-1h6v320h-12h-31t-42 0.5t-50.5 0.5h-51.5q-117 0 -120 -1v-320l37 1q5 0 9 -4.5t4 -11.5q0 -5 -4 -9.5t-9 -4.5h1h-3h-130q-5 0 -9 4.5t-4 9.5 q0 7 4 11.5t9 4.5l38 -1q1 28 1 207v119.5v121.5t-0.5 103.5t-0.5 76v28.5h-8h-30q-5 0 -9 4t-4 10t4 10.5t9 4.5h18q16 0 45.5 -0.5t38.5 -0.5h28l1 1l2 -1h-1q13 0 13 -14q0 -6 -4 -10t-9 -4h-30h-1h-6v-307q2 0 150.5 -1.5t156.5 -1.5v310h-6h-29q-6 0 -10.5 4t-4.5 10 q0 15 15 15h16q15 0 44.5 -0.5t40.5 -0.5h27v1l3 -1h-1q13 0 13 -14q0 -6 -4 -10t-9 -4h-29h-6v-656h6v1h29z" />
<glyph unicode="&#x41e;" horiz-adv-x="516" d="M84 298q1 26 1.5 56t0.5 66.5t1 55.5q1 70 18 122t44.5 80t57 41t60.5 13q51 0 91 -31t51 -66q26 -102 26 -270q0 -93 -13 -164q0 -3 -1 -9q-5 -27 -7.5 -41t-9.5 -40t-14.5 -40.5t-20.5 -34t-29.5 -29.5t-40 -17.5t-52.5 -7.5q-27 0 -49.5 6t-38.5 14.5t-28.5 24 t-20.5 29.5t-13.5 35.5t-8.5 36.5t-4 39.5t-1.5 37t0.5 35.5v14q0 7 0.5 22t0.5 22zM370 432q0 61 -10 171q-5 35 -31 64.5t-63 29.5q-24 0 -43 -10t-31 -25.5t-21 -39t-13 -46.5t-6.5 -53.5t-3.5 -53.5t-1.5 -52.5t-1.5 -46.5q-4 -61 -4 -159q0 -35 1 -42l1 -11.5t1.5 -17 t3 -19t4.5 -22t6.5 -22t10 -22t13 -18.5t17 -15.5t22 -9.5t26.5 -4q29 0 63.5 25.5t43.5 60.5q15 57 17 280q0 16 -0.5 36t-0.5 22z" />
<glyph unicode="&#x41f;" horiz-adv-x="610" d="M548 30q3 0 5.5 -2t4.5 -5.5t2 -7.5q0 -6 -4.5 -10t-9.5 -4h-129q-4 0 -8.5 4.5t-4.5 9.5q0 6 4 10.5t9 4.5h31h6v56q0 26 -0.5 79.5t-0.5 80.5q0 39 1 57v383h-288h-6v-656h6h29q6 0 10 -4.5t4 -10.5q0 -5 -4 -9.5t-9 -4.5v0h-3h-129q-5 0 -9 4.5t-4 9.5q0 6 4 10.5 t9 4.5h30h7v56q0 26 -0.5 79.5t-0.5 80.5q0 39 1 57v383h-7h-30q-5 0 -9 4t-4 10t4 10t9 4h17h465q5 0 9.5 -4t4.5 -10t-4 -10t-8 -4h-30h-1h-5v-656h5h1h30z" />
<glyph unicode="&#x420;" horiz-adv-x="520" d="M490 521q-1 -38 -14 -69t-32 -51.5t-46 -36t-53 -23.5t-56.5 -13t-51.5 -6.5t-43 -1.5q-10 0 -21 0.5t-13 0.5v-291h6h30q2 0 4.5 -1.5t4.5 -3t3 -4.5t1 -6q0 -5 -4 -9.5t-9 -4.5h1q-1 0 -3 -1v1l-129 -1q-6 0 -10 4t-4 11q0 6 4 10.5t10 4.5h29h8q1 36 1 287v105v100.5 t-0.5 82t-0.5 59.5v22h-8h-29q-14 0 -14 14q0 6 4 10t10 4h17q5 0 54 0.5t78 0.5q49 0 62 -1l24 -2t34 -6.5t41.5 -13t41.5 -22.5t37 -34t25.5 -49t10.5 -66zM160 345h11q14 0 28 1t36 4t41.5 9.5t41.5 16t39.5 26t32 37t22.5 50.5t8 66q0 45 -24.5 76.5t-67.5 46.5t-102 15 q-32 0 -64 -7q-2 0 -2 -341z" />
<glyph unicode="&#x421;" horiz-adv-x="433" d="M148 116q2 -8 2.5 -11.5t4.5 -16t10.5 -19.5t15.5 -16.5t23.5 -14t33.5 -4.5q35 0 54.5 15t26.5 43t7 77q1 8 4.5 14t9 9.5t12.5 3.5q23 0 23 -39q0 -25 -6.5 -50.5t-22 -51t-45.5 -42t-70 -16.5q-35 2 -57 7.5t-40 20.5t-27.5 35t-15.5 57.5t-7.5 81t-1.5 111.5 q0 75 4 173t10 125q7 56 40.5 83t105.5 27t104.5 -34t35.5 -99q0 -2 -0.5 -5t-5.5 -8.5t-13 -5.5q-10 0 -15 9.5t-5 23.5t-4 30t-11.5 30t-27.5 23.5t-51 9.5q-45 -2 -69.5 -33.5t-29.5 -83.5q-5 -221 -5 -357q0 -88 3 -102z" />
<glyph unicode="&#x422;" horiz-adv-x="415" d="M364 716h6q19 0 25 -11q-1 -5 -1.5 -12t-1.5 -14.5t-2 -15.5t-1.5 -15.5t-2 -15.5t-3 -14t-3 -10.5t-3.5 -7t-4 -2.5q-18 0 -23.5 21t-3 41.5t-3.5 29.5q-9 0 -45.5 -1t-59.5 -1v-658h37q6 0 10 -4.5t4 -10.5q0 -13 -14 -15h1h-3h-28q-15 0 -37 -0.5t-32.5 -0.5t-23 1 t-17 5t-4.5 10t3.5 10.5t9.5 4.5h36q1 28 1 174q0 299 -0.5 387.5t-0.5 95.5h-108q0 -5 -0.5 -15t-1 -17.5t-1.5 -16.5t-3 -15.5t-5 -12.5t-8 -9t-12 -3q-6 0 -10 16.5t-7 52t-4 38.5q4 11 24 11h320z" />
<glyph unicode="&#x423;" horiz-adv-x="520" d="M506 710q14 -2 14 -15t-14 -13h-29h-1h-26q1 -3 -64 -258q-17 -63 -26 -95.5t-26 -83t-36.5 -91t-45.5 -78.5q-54 -82 -123 -82q-37 0 -66 22.5t-29 62.5q0 49 27 49q22 0 22 -21q0 -5 -1.5 -18.5t-1.5 -20.5q0 -53 49 -53q45 0 84 50q44 59 81 157q1 2 1 8q0 8 -4 14 q-41 82 -90 168q-18 42 -88 176q-7 12 -26 52t-19 42h-5h-1h-29q-5 0 -9 4t-4 10q0 5 4 9.5t9 4.5h18q59 0 83 -1q0 1 1 1h27h3h-1q12 -2 12 -15q0 -6 -3.5 -9.5t-8.5 -3.5h-4h-1h-25q0 -1 32 -65t80 -158.5t71 -141.5q9 12 35 102.5t48 175t22 87.5h-16h-31q-12 0 -12 14 t12 14h18q60 0 83 -1l1 1h27h3h-1z" />
<glyph unicode="&#x424;" horiz-adv-x="604" d="M526 580q18 -69 18 -129q0 -46 -9.5 -85.5t-24 -65.5t-24 -38.5t-18.5 -21.5q-10 -11 -27 -19t-35 -12t-33.5 -6.5t-27 -4t-12.5 -1.5v-168h34q6 0 10 -4t4 -9q0 -3 -2 -6t-5 -5t-7 -2h1h-3h-126q-7 0 -11.5 4t-4.5 9q0 3 1.5 5t3.5 3.5t4.5 3t6.5 1.5h33q0 12 0.5 38.5 t0.5 40.5q0 13 -0.5 40t-0.5 41v1q0 2 -5 3.5t-13.5 1.5h-16.5h-18h-13q-30 2 -54 10t-39.5 22t-26 30.5t-16 38.5t-7.5 43t-2 47q0 97 37 173q10 24 23.5 42.5t25.5 30.5t35 24.5t39 19.5t51 22v26h-6h-27q-7 0 -11.5 4.5t-4.5 10t4.5 9.5t11.5 4q24 -4 56 -1t59 1t27 -15 q0 -2 -1 -4.5t-3 -4t-4.5 -3t-5.5 -1.5h-27h-1h-6v-20q16 -4 66 -9q96 -12 127 -115zM144 272q41 -45 124 -57q4 100 4 150v192v114q-4 -1 -10 -3t-10 -3t-8.5 -3t-7.5 -4q-64 -35 -94 -114.5t-30 -169.5q0 -67 32 -102zM478 329q11 44 11 92q0 43 -5.5 82.5t-18.5 79.5 t-39.5 64t-64.5 24q-10 0 -28 -2v-450q121 0 145 110z" />
<glyph unicode="&#x425;" horiz-adv-x="568" d="M504 684h-6q0 -1 -24 -42t-74 -127.5t-85 -146.5q25 -44 54 -96.5t51.5 -92t42 -74.5t30.5 -55.5t13 -23.5h27q4 0 7.5 -2t5 -4.5t1.5 -5.5q0 -13 -14 -13h1h-3h-30h-85h-16q-7 0 -11 4t-4 9q0 3 1.5 5.5t5 4.5t8.5 2h28h6q-16 47 -151 288q-12 -21 -39.5 -70.5l-40 -72 t-30.5 -56t-28 -54.5t-15 -35h6h1h29q4 0 7 -2t5 -4.5t2 -5.5q0 -5 -4 -9t-10 -4h-17h-85h-27h-4h1q-5 0 -9.5 4t-4.5 9q0 4 4.5 8t10.5 4h63q2 4 25.5 46.5t67.5 120.5t78 142q-38 67 -92 160t-81.5 140t-27.5 49h-7h-27q-5 0 -9.5 4.5t-4.5 10t4.5 9t9.5 3.5h15h83h28h2 q6 0 9.5 -3.5t3.5 -8.5q0 -4 -1.5 -7t-4.5 -5.5t-7 -2.5h-24q0 -1 165 -295q161 294 161 295h-61q-5 0 -9 4.5t-4 10.5q0 12 16 12h25h85h17q15 0 15 -12q0 -4 -2 -7t-5.5 -5.5t-7.5 -2.5h-28h-1z" />
<glyph unicode="&#x426;" horiz-adv-x="637" d="M616 -23q22 -28 22 -68q0 -42 -28 -62t-68 -20q-18 0 -37.5 4t-36.5 10.5t-29 12.5t-24 12.5t-14 7.5q-3 0 -15 5.5t-23.5 10.5t-30 9t-34.5 4q-33 0 -54.5 -14t-21.5 -37q0 -11 8 -33q-28 13 -28 42q0 32 37 49.5t77 17.5q35 0 65 -9t47.5 -20t41 -20t45.5 -9 q34 0 61 17t27 47q0 21 -15.5 39.5t-40.5 24.5q-7 2 -170 2h-158h-55q-55 0 -83 -1v1h-18q-12 0 -12 13q0 5 3.5 9t8.5 4h29h8v207v450h-8h-29q-12 0 -12 15q0 13 12 13h18h83h29h3h-1q5 0 9 -3.5t4 -9.5t-4 -11t-9 -5h-31v1h-6v-657q0 -1 21 -2.5t56.5 -3t66.5 -1.5l163 7 q1 33 1 260v110v107.5t-0.5 89.5t-0.5 65.5v24.5h-5h-29q-5 0 -9 4.5t-4 10.5t4 9.5t9 3.5h17h85h27h1h2h-1q13 0 13 -13q0 -6 -4 -11t-9 -5h-29q0 1 -1 1h-5q0 -536 -1 -633q0 -1 0.5 -7t0.5 -9q27 -4 47.5 -18t41.5 -39z" />
<glyph unicode="&#x427;" horiz-adv-x="580" d="M517 26q5 0 8.5 -4t3.5 -8q0 -5 -3.5 -9t-8.5 -4h1h-3h-26h-87h-14q-6 0 -10.5 4t-4.5 9q0 3 2 5.5t5.5 4.5t7.5 2h26h7q1 29 1 131l-1 224q-16 0 -42.5 -1.5t-37.5 -1.5q-139 2 -199 43q-55 38 -58 97q-3 35 -3 166h-6h-30q-4 0 -7 2.5t-5 5.5t-2 7q0 5 4 8.5t10 3.5h18 h83h28h4h-1q6 0 10 -3.5t4 -8.5q0 -4 -2 -7t-5.5 -5.5t-7.5 -2.5h-30h-5v-152q0 -46 17 -66q68 -58 182 -58q40 0 81 7v196v73h-7h-26q-6 0 -10.5 4.5t-4.5 10.5q0 12 15 12h14h87h26h3h-1q12 0 12 -12q0 -6 -3.5 -10.5t-8.5 -4.5h-28h-1h-7v-427v-231h7h1h28z" />
</font>
</defs>
</svg>
