<?xml version="1.0" standalone="no"?>
<!DOCTYPE svg PUBLIC "-//W3C//DTD SVG 1.1//EN" "http://www.w3.org/Graphics/SVG/1.1/DTD/svg11.dtd" >
<svg xmlns="http://www.w3.org/2000/svg" xmlns:xlink="http://www.w3.org/1999/xlink" version="1.1">
<metadata></metadata>
<defs>
<font id="helveticaneuecyrthin_italic" horiz-adv-x="561" >
<font-face units-per-em="1000" ascent="800" descent="-200" />
<missing-glyph horiz-adv-x="280" />
<glyph horiz-adv-x="0" />
<glyph horiz-adv-x="333" />
<glyph unicode=" "  horiz-adv-x="280" />
<glyph unicode="&#x09;" horiz-adv-x="280" />
<glyph unicode="&#xa0;" horiz-adv-x="280" />
<glyph unicode="!" horiz-adv-x="206" d="M76 99l-21 -99h-48l21 99h48zM206 719l-47 -221l-75 -317h-29l60 318l47 220h44z" />
<glyph unicode="&#x22;" horiz-adv-x="318" d="M130 441h-28l54 278h39zM272 441h-30l54 278h39z" />
<glyph unicode="#" d="M128 0h-37l47 219h-124l7 33h124l41 190h-124l7 33h123l46 217h37l-47 -217h157l46 217h37l-46 -217h123l-7 -33h-123l-40 -190h123l-7 -33h-123l-47 -219h-36l46 219h-157zM337 252l41 190h-157l-40 -190h156z" />
<glyph unicode="$" d="M385 783l-17 -77q84 -9 132 -54t48 -128q0 -8 -1 -16h-38v15q0 130 -148 149l-63 -297q28 -9 48 -16t44.5 -18.5t41 -25.5t31 -32t22 -42.5t7.5 -53.5q0 -66 -37 -113.5t-92 -68.5t-121 -21q-13 0 -25 1l-20 -91h-27l19 92q-92 8 -144 62t-52 140q0 12 1 22h40 q-1 -10 -1 -21q0 -48 19 -84t55.5 -58t88.5 -28l69 326q-67 21 -106 44.5t-56.5 54t-17.5 72.5q0 85 64.5 138.5t167.5 53.5h23l16 75h29zM272 384l61 290q-9 1 -19 1q-41 0 -76 -12t-60 -32t-39 -49t-14 -63q0 -50 33 -80t114 -55zM291 337l-68 -319q12 -1 24 -1 q52 0 97.5 17.5t76 56.5t30.5 93q0 28 -9 50.5t-23.5 38t-37 28.5t-43 20.5t-47.5 15.5z" />
<glyph unicode="%" horiz-adv-x="766" d="M671 731l-538 -762h-39l537 762h40zM376 577q0 -54 -20.5 -104t-62.5 -84.5t-97 -34.5q-62 0 -99 37.5t-37 100.5q0 94 52.5 157t130.5 63q62 0 97.5 -36.5t35.5 -98.5zM240 682q-45 0 -79.5 -30t-49.5 -71.5t-15 -86.5q0 -51 26.5 -80t74.5 -29q45 0 78.5 30.5 t48.5 72.5t15 86q0 49 -25.5 78.5t-73.5 29.5zM711 211q0 -53 -20 -103t-62.5 -85t-97.5 -35q-62 0 -99 37.5t-37 100.5q0 37 9 71t25.5 61t39 47t51 30.5t59.5 10.5q61 0 96.5 -36.5t35.5 -98.5zM576 316q-46 0 -80 -30t-49.5 -71.5t-15.5 -86.5q0 -51 27 -80t74 -29 q45 0 78.5 31t49 73t15.5 85q0 49 -25.5 78.5t-73.5 29.5z" />
<glyph unicode="&#x26;" horiz-adv-x="598" d="M516 296q-14 -80 -70 -164l87 -132h-46l-67 101q-85 -116 -214 -116q-84 0 -137.5 48.5t-53.5 126.5q0 23 4 43t12.5 37.5t17.5 31.5t24.5 27t27.5 22.5t31.5 21t32 18t33.5 17.5t32 17q-28 40 -47.5 86t-19.5 83q0 65 44.5 106.5t113.5 41.5q65 0 106.5 -35.5 t41.5 -92.5q0 -29 -11.5 -55t-26 -43.5t-41.5 -37.5t-44 -30t-48 -27q-10 -6 -14 -8l141 -218q42 74 52 131h39zM265 412q25 12 42.5 21.5t43.5 27t41.5 33.5t27.5 39t12 47q0 29 -14 51.5t-39 35t-58 12.5q-35 0 -62.5 -14.5t-42.5 -40.5t-15 -58q0 -26 11.5 -56.5 t21.5 -48t31 -49.5zM249 366q-11 -6 -36.5 -19.5t-39 -21.5t-35.5 -22t-34 -26.5t-25 -30t-18.5 -38t-5.5 -44.5q0 -42 19.5 -75t55 -51.5t79.5 -18.5q36 0 71.5 14t66.5 40t53 60z" />
<glyph unicode="'" horiz-adv-x="206" d="M150 441h-29l55 278h38z" />
<glyph unicode="(" horiz-adv-x="243" d="M313 725q-230 -282 -230 -621q0 -156 45 -291h-31q-24 65 -39 152t-15 167q0 158 59 309t173 284h38z" />
<glyph unicode=")" horiz-adv-x="243" d="M123 725q24 -63 38.5 -149t14.5 -165q0 -328 -232 -598h-38q112 134 171.5 292t59.5 329q0 150 -45 291h31z" />
<glyph unicode="*" horiz-adv-x="355" d="M266 730l-29 -133l126 37l5 -28l-125 -36l70 -103l-26 -17l-73 110l-94 -99l-22 20l93 96l-106 59l15 26l108 -62l28 132z" />
<glyph unicode="+" horiz-adv-x="606" d="M274 29v228h-230v33h230v226h35v-226h229v-33h-229v-228h-35z" />
<glyph unicode="," horiz-adv-x="280" d="M134 103l-21 -101q-12 -56 -32.5 -86.5t-67.5 -44.5l7 33q15 6 26 15.5t17.5 24.5t9.5 25.5t8 30.5h-18l22 103h49z" />
<glyph unicode="-" horiz-adv-x="355" d="M276 293l-8 -39h-219l9 39h218z" />
<glyph unicode="." horiz-adv-x="280" d="M121 103l-22 -103h-51l23 103h50z" />
<glyph unicode="/" horiz-adv-x="336" d="M389 725l-415 -734h-40l415 734h40z" />
<glyph unicode="0" d="M537 465q0 -48 -7.5 -99.5t-23 -106.5t-41 -103.5t-58.5 -87.5t-80 -61.5t-101 -22.5q-98 0 -151.5 63.5t-53.5 180.5q0 58 11 120.5t35.5 126.5t59.5 115t88.5 83t117.5 32q54 0 94 -18.5t63.5 -51.5t35 -75.5t11.5 -94.5zM332 670q-47 0 -88 -22t-69.5 -59.5t-50.5 -84 t-35 -97.5t-19.5 -98.5t-6.5 -89.5q0 -94 43.5 -146.5t121.5 -52.5q47 0 87.5 22t69 59t50.5 83t35 96.5t19.5 96.5t6.5 86q0 43 -8.5 78.5t-27 65t-51 46.5t-77.5 17z" />
<glyph unicode="1" d="M407 695l-148 -695h-43l134 626q-90 -77 -206 -94l8 36q65 10 113.5 40.5t104.5 86.5h37z" />
<glyph unicode="2" d="M448 37l-7 -37h-457q3 46 23 86.5t53 72.5t66.5 56t77.5 48l41 20.5t47 24t45.5 26.5t46 30.5t39.5 33t33.5 38.5t21 43t8.5 49q0 32 -11.5 58t-32.5 44.5t-51 28.5t-67 10q-85 0 -136.5 -52.5t-59.5 -146.5h-40q8 110 71.5 172.5t166.5 62.5q92 0 146.5 -48t54.5 -129 q0 -28 -8.5 -55t-21 -48t-34.5 -42.5t-41 -36.5t-48.5 -33t-48.5 -28.5t-51 -27t-46 -24.5q-35 -19 -61.5 -36t-57 -42t-51 -55.5t-27.5 -63.5q23 0 417 1z" />
<glyph unicode="3" d="M58 227q-4 -20 -4 -44q0 -74 48 -118.5t129 -44.5q86 0 147 53t61 138q0 32 -10.5 56t-28 39t-42 24t-49.5 12.5t-53 3.5h-20l8 36q21 -1 41 -1q98 0 151.5 39.5t53.5 111.5q0 62 -44.5 99.5t-117.5 37.5q-77 0 -129.5 -48.5t-64.5 -130.5h-40q15 101 77.5 157.5 t157.5 56.5q60 0 106 -21t71 -59.5t25 -88.5q0 -46 -20 -83t-57.5 -60t-87.5 -29q35 -10 61 -29t41.5 -50.5t15.5 -71.5q0 -54 -21.5 -98t-57.5 -72t-82.5 -42.5t-98.5 -14.5q-97 0 -154 53.5t-57 145.5q0 24 4 43h41z" />
<glyph unicode="4" d="M500 212l-7 -34h-115l-38 -178h-41l37 178h-335l8 40l437 479h41l-102 -485h115zM344 212l68 320q14 71 23 105l-387 -425h296z" />
<glyph unicode="5" d="M544 692l-9 -39h-324l-95 -261q69 72 170 72q94 0 150 -55t56 -147q0 -117 -73 -197.5t-190 -80.5q-96 0 -152 51t-56 140q0 9 3 33h41q-2 -17 -2 -33q0 -51 21.5 -86.5t59.5 -53t87 -17.5q93 0 154.5 67.5t61.5 169.5q0 79 -46.5 125t-125.5 46q-107 0 -170 -86l-41 2 l121 350h359z" />
<glyph unicode="6" d="M545 522h-41q-5 149 -152 149q-29 0 -55 -7.5t-46.5 -19t-39.5 -30.5t-32.5 -37t-26.5 -45.5t-21 -48t-17.5 -51.5t-14.5 -50.5t-12 -49.5q32 60 85 93.5t117 33.5q95 0 153.5 -57.5t58.5 -151.5q0 -115 -71 -190.5t-178 -75.5q-103 0 -160 62.5t-57 176.5q0 84 27 184 t68 168q81 131 222 131q61 0 104.5 -21.5t66 -62t22.5 -97.5v-3zM285 423q-90 0 -149 -62.5t-59 -156.5q0 -83 48.5 -134t128.5 -51q88 0 146.5 65.5t58.5 165.5q0 77 -48.5 125t-125.5 48z" />
<glyph unicode="7" d="M566 692l-10 -38q-142 -146 -241.5 -304t-164.5 -350h-45q48 163 164 347.5t243 304.5h-394l8 40h440z" />
<glyph unicode="8" d="M362 367q60 -16 95.5 -59.5t35.5 -107.5q0 -67 -38.5 -117t-95.5 -73.5t-122 -23.5q-104 0 -164.5 51.5t-60.5 141.5q0 55 24.5 98t70.5 69t108 32q-111 38 -111 144q0 81 62 132t160 51q93 0 148.5 -45t55.5 -121q0 -68 -47 -116t-121 -56zM328 671q-83 0 -133.5 -42 t-50.5 -110q0 -61 45 -96t122 -35q53 0 93.5 18.5t63 53t22.5 78.5q0 66 -47 99.5t-115 33.5zM264 355q-64 0 -111.5 -22t-72.5 -61.5t-25 -92.5q0 -74 50.5 -116.5t138.5 -42.5q61 0 108 23t72.5 64.5t25.5 94.5q0 75 -54 114t-132 39z" />
<glyph unicode="9" d="M17 168h40v-6q0 -67 41 -105t112 -38q38 0 70.5 12t56.5 30.5t44.5 47.5t34 57t25.5 65t19 66t14 65q-69 -132 -205 -132q-94 0 -152 58t-58 152q0 112 69 189t181 77q105 0 159.5 -63.5t54.5 -172.5q0 -69 -15 -145.5t-48.5 -153t-78.5 -123.5q-66 -65 -172 -65 q-92 0 -142 47.5t-50 134.5v3zM307 669q-62 0 -110 -31.5t-72.5 -83.5t-24.5 -114q0 -78 48 -125.5t128 -47.5q86 0 146 64.5t60 157.5q0 85 -45.5 132.5t-129.5 47.5z" />
<glyph unicode=":" horiz-adv-x="280" d="M126 103l-22 -103h-50l22 103h50zM215 517l-22 -103h-51l23 103h50z" />
<glyph unicode=";" horiz-adv-x="280" d="M215 517l-22 -103h-51l23 103h50zM126 103l-21 -101q-12 -56 -32.5 -86.5t-67.5 -44.5l7 33q15 6 26 15.5t17.5 24.5t9.5 25.5t8 30.5h-18l22 103h49z" />
<glyph unicode="&#x3c;" horiz-adv-x="606" d="M32 255v36l494 205v-36l-451 -187l451 -185v-38z" />
<glyph unicode="=" horiz-adv-x="606" d="M56 346v34h493v-34h-493zM56 162v33h493v-33h-493z" />
<glyph unicode="&#x3e;" horiz-adv-x="606" d="M550 255l-493 -205v38l452 185l-452 187v36l493 -205v-36z" />
<glyph unicode="?" horiz-adv-x="524" d="M226 99l-21 -99h-47l22 99h46zM239 183h-39q1 3 7.5 29.5t9.5 37t10.5 29t15.5 30.5q16 23 32 36.5t70 48.5q56 36 87 75t31 95q0 61 -40.5 96.5t-108.5 35.5q-167 0 -192 -199h-39q10 113 70.5 174t161.5 61q87 0 139 -45.5t52 -121.5q0 -110 -122 -189q-6 -4 -25 -16.5 t-27 -18t-21.5 -16.5t-23 -22t-16.5 -24q-7 -12 -12.5 -26.5t-8 -22.5t-6.5 -25.5t-5 -21.5z" />
<glyph unicode="@" horiz-adv-x="808" d="M715 111l15 -20q-76 -54 -148 -79t-161 -25q-108 0 -197.5 43t-143 125.5t-53.5 189.5q0 86 34 159t90.5 122.5t131.5 77t157 27.5q93 0 168.5 -34t122 -102.5t46.5 -160.5q0 -43 -14 -88.5t-39 -84.5t-64.5 -63.5t-85.5 -24.5q-32 0 -53 18t-21 48q0 6 8 47 q-53 -113 -151 -113q-64 0 -99.5 42.5t-35.5 106.5q0 41 15 83.5t40 77t63.5 57t80.5 22.5q55 0 88.5 -32t36.5 -86l32 104h35l-60 -192q-25 -87 -25 -112q0 -22 15.5 -33.5t38.5 -11.5q50 0 90 41t58.5 94t18.5 101q0 65 -25.5 117t-69 84.5t-98.5 50t-117 17.5 q-103 0 -191 -45t-140.5 -127.5t-52.5 -186.5q0 -76 30 -139.5t80.5 -105t116.5 -64.5t139 -23q84 0 151.5 24t142.5 74zM527 426q0 48 -27 78.5t-74 30.5t-86 -35.5t-58.5 -84t-19.5 -95.5q0 -33 10.5 -59.5t34 -43.5t57.5 -17q23 0 44 9t36.5 23t29.5 34t23 39.5t16 40.5 q14 46 14 80z" />
<glyph unicode="A" horiz-adv-x="617" d="M415 719l133 -719h-45l-41 232h-346l-141 -232h-51l445 719h46zM385 679q-12 -19 -33.5 -58t-33.5 -57l-181 -295h319l-54 298q-14 74 -17 112z" />
<glyph unicode="B" horiz-adv-x="636" d="M149 719h229q28 0 49 -1t47.5 -4.5t46 -10.5t39 -19t32 -28.5t20 -41.5t7.5 -56q0 -50 -20.5 -88.5t-59.5 -63.5t-92 -32q42 -8 71.5 -26t46.5 -50t17 -76q0 -45 -17.5 -86.5t-49.5 -71.5q-24 -23 -50.5 -37t-61 -19.5t-57 -6.5t-65.5 -1h-283zM185 681l-62 -291h221 q232 0 232 166q0 34 -12 58t-29 37t-45.5 20t-51.5 8.5t-57 1.5h-196zM115 355l-67 -319h218q97 0 147 13q55 15 90 63t35 109q0 35 -12 60.5t-30.5 39.5t-47.5 21.5t-53.5 10t-58.5 2.5h-221z" />
<glyph unicode="C" horiz-adv-x="711" d="M662 250q-30 -120 -121.5 -193.5t-216.5 -73.5q-129 0 -205.5 80.5t-76.5 219.5q0 86 26.5 166.5t74.5 144t123 101.5t165 38q79 0 139.5 -29t94 -82.5t34.5 -123.5h-44q-6 93 -64.5 145t-159.5 52q-79 0 -145 -35.5t-108.5 -94t-66 -131.5t-23.5 -149q0 -121 64 -192.5 t173 -71.5q105 0 183.5 61.5t108.5 167.5h45z" />
<glyph unicode="D" horiz-adv-x="691" d="M150 719h197q75 0 120 -9.5t78 -31.5q105 -70 105 -242q0 -107 -42 -202.5t-116 -155.5q-61 -50 -122.5 -64t-158.5 -14h-211zM186 681l-134 -643h225q78 0 142 35t104.5 92t62.5 127.5t22 145.5q0 128 -61 185.5t-190 57.5h-171z" />
<glyph unicode="E" d="M620 719l-8 -38h-426l-61 -289h398l-8 -37h-398l-67 -317h440l-8 -38h-484l152 719h470z" />
<glyph unicode="F" horiz-adv-x="524" d="M602 719l-8 -39h-408l-61 -288h367l-8 -37h-367l-76 -355h-43l151 719h453z" />
<glyph unicode="G" horiz-adv-x="748" d="M699 351l-73 -351h-32l15 89q5 30 15 75q-99 -180 -290 -180q-92 0 -158 38t-99 106t-33 161q0 88 28 168.5t77.5 142t125.5 98t167 36.5q120 0 193 -62.5t77 -170.5h-43q-6 63 -34.5 107t-78 66.5t-117.5 22.5q-65 0 -122 -23.5t-98 -63.5t-71 -92.5t-45 -112.5 t-15 -121q0 -122 67 -192.5t183 -70.5q54 0 99.5 15t80 41t61.5 63.5t45 80.5t29 94h-264l8 36h302z" />
<glyph unicode="H" horiz-adv-x="673" d="M686 719l-152 -719h-44l76 357h-450l-77 -357h-43l152 719h45l-69 -325h450l68 325h44z" />
<glyph unicode="I" horiz-adv-x="186" d="M195 719l-153 -719h-44l152 719h45z" />
<glyph unicode="J" horiz-adv-x="485" d="M502 719l-107 -506q-11 -54 -25.5 -91.5t-40 -70.5t-65.5 -49.5t-96 -16.5q-87 0 -134 42t-47 117q0 36 10 82h42q-10 -59 -10 -81q0 -59 36 -91.5t103 -32.5q31 0 56 7t43 20.5t31.5 29.5t23.5 39.5t16 45t12 50.5l109 506h43z" />
<glyph unicode="K" horiz-adv-x="617" d="M685 719l-385 -304l276 -415h-50l-259 389l-173 -134l-53 -255h-43l150 719h44l-86 -409l516 409h63z" />
<glyph unicode="L" horiz-adv-x="505" d="M195 719l-145 -681h406l-9 -38h-449l152 719h45z" />
<glyph unicode="M" horiz-adv-x="823" d="M838 719l-153 -719h-43l106 493q27 123 45 184q-12 -18 -26 -42t-28.5 -48t-25.5 -42l-349 -545h-44l-116 539q-11 49 -26 138q-6 -29 -13 -66.5t-14 -74t-13 -64.5l-100 -472h-43l153 719h60l114 -534q4 -19 8.5 -45.5t9.5 -52t9 -45.5q11 21 22.5 40.5t31.5 50t24 37.5 l350 549h61z" />
<glyph unicode="N" horiz-adv-x="691" d="M702 719l-153 -719h-48l-285 587q-9 20 -38 86q-7 -51 -21 -117l-118 -556h-43l152 719h51l254 -526q37 -77 67 -147l140 673h42z" />
<glyph unicode="O" horiz-adv-x="748" d="M718 441q0 -69 -15.5 -135.5t-48 -125t-77.5 -102.5t-108 -69.5t-137 -25.5q-88 0 -154.5 37t-102 106t-35.5 162q0 88 26 168t74 143t123 100t165 37q133 0 211.5 -80.5t78.5 -214.5zM423 698q-65 0 -120.5 -23.5t-95.5 -63t-68 -92t-41.5 -111.5t-13.5 -120 q0 -122 68 -195t182 -73q64 0 119.5 24.5t95.5 65.5t68.5 94.5t43 112t14.5 117.5q0 120 -66.5 192t-185.5 72z" />
<glyph unicode="P" horiz-adv-x="598" d="M148 719h243q39 0 70 -4t61.5 -15.5t50.5 -30.5t32.5 -51t12.5 -76q0 -64 -32 -117.5t-86 -79.5q-30 -14 -68.5 -19.5t-108.5 -5.5h-215l-68 -320h-44zM185 681l-69 -323h205q40 0 63 1t57.5 8.5t57.5 22.5q34 22 55 63t21 87q0 36 -10.5 61.5t-27.5 40.5t-43.5 24 t-52.5 12t-61 3h-195z" />
<glyph unicode="Q" horiz-adv-x="748" d="M651 -28l-26 -28l-101 94q-86 -55 -193 -55q-90 0 -156.5 39t-100.5 107.5t-34 158.5q0 56 11.5 111t33 105t55 92.5t75.5 73.5t96 48.5t114 17.5q136 0 214.5 -80.5t78.5 -219.5q0 -110 -44 -213t-118 -163zM423 183l104 -95q71 56 109 150.5t38 191.5 q0 123 -67.5 195.5t-181.5 72.5q-63 0 -118.5 -23t-95.5 -62.5t-69 -91t-43.5 -110t-14.5 -118.5q0 -121 67 -196t188 -75q86 0 155 45l-97 89z" />
<glyph unicode="R" horiz-adv-x="636" d="M152 719h244q27 0 50.5 -2t48 -7t43.5 -13t36.5 -22t29 -31.5t18 -43t6.5 -56.5q0 -86 -55.5 -141.5t-146.5 -61.5q60 -10 82.5 -44.5t22.5 -97.5q0 -21 -2.5 -63t-2.5 -62q0 -42 10 -74h-45q-8 31 -8 72q0 23 2.5 70.5t2.5 59.5q0 29 -5.5 50t-17.5 34.5t-25.5 22 t-36 12.5t-42 5t-49.5 1h-199l-70 -327h-44zM187 680l-67 -315h213q75 0 116.5 9t71.5 32t47 59t17 75q0 35 -11 61t-28 40.5t-44 23.5t-53 12t-60 3h-202z" />
<glyph unicode="S" horiz-adv-x="636" d="M611 512h-41v10q0 171 -206 171q-64 0 -111 -19t-72 -54t-25 -82q0 -21 6.5 -39t15 -31t26 -25.5t29.5 -20t36.5 -16t35.5 -12t38 -11t34 -9.5q41 -12 68.5 -24t54.5 -32t40 -50.5t13 -72.5q0 -95 -74 -152t-196 -57q-127 0 -196.5 59.5t-69.5 168.5q0 3 0.5 7t0.5 8v9 h43v-19q0 -101 59 -149t165 -48q102 0 164 47t62 125q0 32 -11.5 56t-34.5 39.5t-45 25t-54 18.5q-9 3 -33.5 10t-35 10.5t-33.5 11t-34.5 13t-30.5 15.5t-29 19.5t-22.5 23t-19 28t-11 33t-4.5 39.5q0 89 68 141.5t183 52.5q80 0 135.5 -22.5t84 -67t28.5 -109.5 q0 -9 -1 -19z" />
<glyph unicode="T" horiz-adv-x="524" d="M617 719l-8 -37h-250l-144 -682h-44l144 682h-259l8 37h553z" />
<glyph unicode="U" horiz-adv-x="673" d="M688 719l-102 -486q-52 -247 -302 -247q-39 0 -74.5 7.5t-67 23.5t-55 39.5t-37 57.5t-13.5 75q0 47 13 106l90 424h45l-92 -434q-12 -56 -12 -95q0 -78 54.5 -123.5t149.5 -45.5q108 0 175 58q27 23 46 58t26.5 62t16.5 73l95 447h44z" />
<glyph unicode="V" horiz-adv-x="579" d="M662 719l-421 -719h-53l-120 719h45l87 -536q5 -28 12 -79t9 -66q25 49 77 139l315 542h49z" />
<glyph unicode="W" horiz-adv-x="916" d="M978 719l-354 -719h-49l-46 513q-11 125 -12 166q-13 -26 -37 -77.5t-37 -76.5l-261 -525h-51l-60 719h44l43 -528q4 -48 8 -145q27 65 62 136l269 537h54l45 -503q10 -111 12 -168q35 86 74 163l250 508h46z" />
<glyph unicode="X" d="M636 719l-323 -352l191 -367h-47l-120 228q-37 73 -53 109q-10 -10 -56 -60l-254 -277h-55l344 373l-179 346h47l115 -224q17 -31 47 -94q10 11 41 48t49 56l200 214h53z" />
<glyph unicode="Y" d="M658 719l-365 -424l-63 -295h-43l63 302l-193 417h47l130 -285q38 -82 44 -99q35 45 74 90l253 294h53z" />
<glyph unicode="Z" horiz-adv-x="542" d="M603 719l-9 -42l-568 -605q-26 -30 -33 -35q9 0 25.5 0.5t24.5 0.5h447l-7 -38h-547l9 44l537 572q21 22 63 65h-457l9 38h506z" />
<glyph unicode="[" horiz-adv-x="243" d="M312 722l-7 -33h-102l-178 -834h100l-7 -35h-139l193 902h140z" />
<glyph unicode="\" horiz-adv-x="336" d="M389 -9h-40l-415 734h40z" />
<glyph unicode="]" horiz-adv-x="243" d="M233 722l-194 -903h-140l7 35h102l179 834h-100l7 34h139z" />
<glyph unicode="^" horiz-adv-x="606" d="M117 277l167 415h39l167 -415h-40l-147 375l-146 -375h-40z" />
<glyph unicode="_" horiz-adv-x="505" d="M0 -126v50h505v-50h-505z" />
<glyph unicode="`" horiz-adv-x="168" d="M171 602h-37l-113 143h50z" />
<glyph unicode="a" horiz-adv-x="505" d="M59 369q23 84 73 123t140 39q40 0 72 -8t53.5 -24t32.5 -39t11 -52q0 -28 -14 -89l-36 -158q-17 -72 -17 -98q0 -33 28 -33q11 0 33 5l-6 -33q-26 -6 -39 -6q-53 0 -53 56q0 18 7 46q-68 -113 -202 -113q-73 0 -115 37.5t-42 101.5q0 42 20 76.5t56 54.5q30 16 69.5 24 t125.5 13q1 0 11.5 0.5t14.5 1t15 1.5t17 2t16 2.5t16 4t13.5 5t13 6.5t9.5 8q8 10 13.5 32t5.5 44q0 96 -129 96q-49 0 -83 -13.5t-56 -41t-34 -71.5h-40zM383 291q-12 -11 -20 -15t-28 -7q-20 -4 -110 -10t-133 -26q-20 -9 -35 -25t-23.5 -37.5t-8.5 -44.5q0 -33 15 -57.5 t43.5 -37.5t66.5 -13q60 0 109.5 31t76.5 84q18 35 35 106z" />
<glyph unicode="b" d="M185 719l-68 -318q70 131 204 131q86 0 136.5 -57.5t50.5 -155.5q0 -33 -5.5 -67t-17.5 -67t-28 -62.5t-39 -55t-49.5 -43.5t-60 -28.5t-70.5 -10.5q-72 0 -119.5 41t-58.5 114l-29 -140h-39l152 719h41zM315 497q-56 0 -102 -27.5t-74 -72.5t-43 -97.5t-15 -105.5 q0 -81 42 -129t112 -48q55 0 100.5 28.5t74 73.5t44 97t15.5 103q0 79 -39 128.5t-115 49.5z" />
<glyph unicode="c" horiz-adv-x="524" d="M458 166q-28 -84 -89.5 -132t-148.5 -48q-94 0 -145.5 56t-51.5 158q0 62 19 121t53 106.5t88.5 76t120.5 28.5q85 0 134.5 -45t49.5 -123v-3h-41q0 63 -38.5 99.5t-106.5 36.5q-56 0 -102.5 -26t-75.5 -68.5t-44.5 -94.5t-15.5 -106q0 -87 41.5 -134.5t117.5 -47.5 q67 0 116.5 37.5t76.5 108.5h42z" />
<glyph unicode="d" d="M579 719l-152 -719h-39l22 101l9 29q-71 -145 -209 -145q-89 0 -140 54t-51 149q0 48 11.5 97t35 93.5t56 78.5t78.5 54.5t98 20.5q74 0 119.5 -38t53.5 -106q1 5 3.5 21t10.5 53l53 257h41zM300 497q-57 0 -104.5 -28t-76 -73t-44 -98.5t-15.5 -107.5t18.5 -93t53.5 -59 t85 -20q32 0 62 11t53 30.5t42.5 45t33.5 55t24 61t14.5 62.5t4.5 59q0 71 -40.5 113t-110.5 42z" />
<glyph unicode="e" horiz-adv-x="524" d="M449 170q-25 -90 -85 -137.5t-147 -47.5q-96 0 -149.5 58t-53.5 163q0 139 77.5 232.5t192.5 93.5q91 0 142.5 -55t51.5 -153q0 -28 -6 -68h-413q-4 -22 -4 -50q0 -88 43.5 -138t121.5 -50q44 0 81 18t64 52t43 82h41zM64 290h371q3 24 3 35q0 82 -41.5 127.5 t-115.5 45.5q-80 0 -138.5 -56t-78.5 -152z" />
<glyph unicode="f" horiz-adv-x="243" d="M275 517l-8 -35h-108l-103 -482h-41l103 482h-89l7 35h89l13 55q1 2 2 5q5 23 8 34t9 29.5t12 28t16.5 21.5t23 18t30 10.5t39.5 4.5q27 0 53 -4l-6 -36q-24 4 -40 4q-24 0 -41.5 -7t-27.5 -16t-18.5 -27.5t-12 -32.5t-8.5 -39l-10 -48h108z" />
<glyph unicode="g" horiz-adv-x="542" d="M522 517l-98 -463q-10 -49 -21.5 -84t-31 -68.5t-46 -53.5t-65.5 -32.5t-89 -12.5q-88 0 -137 39t-49 111v11h41v-8q0 -59 38 -89.5t111 -30.5q36 0 65.5 7.5t50 23.5t35.5 34t26.5 46t18.5 52t15 60l16 71q-66 -113 -184 -113q-90 0 -142.5 56.5t-52.5 151.5 q0 130 73 216t183 86q74 0 121.5 -38.5t56.5 -105.5l27 134h38zM282 497q-93 0 -155 -78t-62 -193q0 -80 42 -126.5t115 -46.5q41 0 77 17t60.5 45.5t42.5 65t26 75.5t8 77q0 75 -40.5 119.5t-113.5 44.5z" />
<glyph unicode="h" horiz-adv-x="524" d="M181 719l-68 -313q40 60 90 92t118 32t110.5 -36.5t42.5 -95.5q0 -31 -15 -101l-64 -297h-40l62 298q14 68 14 96q0 46 -32.5 73.5t-88.5 27.5q-49 0 -88 -19t-65.5 -52.5t-43.5 -72t-27 -84.5l-58 -267h-40l152 719h41z" />
<glyph unicode="i" horiz-adv-x="168" d="M142 517l-110 -517h-40l110 517h40zM186 719l-21 -102h-42l21 102h42z" />
<glyph unicode="j" horiz-adv-x="168" d="M142 517l-121 -571q-5 -25 -9.5 -41.5t-14 -36t-22 -30.5t-32.5 -19t-46 -8q-20 0 -42 3l7 37q15 -4 32 -4q19 0 33 6t22 13t15 22t9.5 25t6.5 30q1 5 2 8l119 566h41zM185 719l-21 -102h-42l21 102h42z" />
<glyph unicode="k" horiz-adv-x="467" d="M184 719l-102 -477l351 275h58l-266 -206l187 -311h-47l-171 286l-122 -95l-41 -191h-39l152 719h40z" />
<glyph unicode="l" horiz-adv-x="168" d="M184 719l-153 -719h-40l152 719h41z" />
<glyph unicode="m" horiz-adv-x="803" d="M141 517l-23 -107q72 121 186 121q60 0 93.5 -33t33.5 -92v-2q70 126 187 126q41 0 73.5 -15.5t50.5 -43.5t18 -63t-14 -95l-66 -313h-42l69 319q10 49 10 81q0 42 -30.5 68t-79.5 26q-72 0 -125 -61q-24 -28 -38 -60t-26 -85l-61 -288h-42l68 314q11 54 11 84 q0 44 -27.5 70.5t-73.5 26.5q-70 0 -126 -60q-20 -21 -33.5 -43.5t-23 -50.5t-18.5 -67l-59 -274h-41l110 517h39z" />
<glyph unicode="n" horiz-adv-x="524" d="M137 517l-23 -110q80 124 206 124q68 0 109.5 -36.5t41.5 -96.5q0 -38 -14 -102l-64 -296h-42l65 304q13 70 13 89q0 47 -32.5 74.5t-87.5 27.5q-88 0 -151 -71q-30 -32 -46 -71t-27 -93l-56 -260h-40l110 517h38z" />
<glyph unicode="o" horiz-adv-x="542" d="M495 326q0 -49 -10.5 -97t-33.5 -92.5t-54.5 -78t-77 -53.5t-98.5 -20q-98 0 -152 56.5t-54 158.5q0 63 18.5 121.5t52 106t88 76t120.5 28.5q95 0 148 -55t53 -151zM291 497q-56 0 -102 -26.5t-74.5 -69.5t-43.5 -95t-15 -106q0 -86 43.5 -133.5t122.5 -47.5 q57 0 103 29t73.5 75t41.5 99t14 106q0 78 -43 123.5t-120 45.5z" />
<glyph unicode="p" d="M134 517l-25 -120q32 64 85 99.5t123 35.5q57 0 99 -25.5t64.5 -73.5t22.5 -113q0 -59 -18 -117.5t-50.5 -107.5t-85 -79.5t-115.5 -30.5q-75 0 -123 42.5t-54 116.5l-69 -331h-41l150 704h37zM306 498q-56 0 -104 -31t-76 -82q-51 -95 -51 -195q0 -79 43 -125.5 t115 -46.5q54 0 99 29t72.5 74.5t43 97.5t15.5 102q0 80 -39.5 128.5t-117.5 48.5z" />
<glyph unicode="q" d="M535 517l-149 -704h-41l68 311q-20 -41 -50.5 -72t-71.5 -49t-87 -18q-87 0 -136.5 54.5t-49.5 150.5q0 60 19 120t53 110t87.5 81t117.5 31q76 0 122 -38t54 -107l27 130h37zM298 498q-57 0 -104 -27.5t-76 -72.5t-44 -98.5t-15 -107.5q0 -83 40.5 -128.5t113.5 -45.5 q57 0 104 31.5t75 80.5t43 104.5t15 107.5q0 71 -41 113.5t-111 42.5z" />
<glyph unicode="r" horiz-adv-x="280" d="M335 521l-8 -43q-13 2 -28 2q-67 0 -118 -42q-24 -19 -42.5 -45t-31 -59t-19 -58t-14.5 -63l-46 -213h-41l110 517h38l-28 -130q74 136 196 136q2 0 32 -2z" />
<glyph unicode="s" horiz-adv-x="467" d="M425 367h-40v15q0 57 -34.5 84.5t-107.5 27.5q-64 0 -101 -26.5t-37 -72.5q0 -15 4 -28t14 -23.5t18 -17.5t25 -14.5t25 -11t28 -10t24 -8.5q27 -10 43 -16.5t38.5 -19.5t34.5 -26.5t21.5 -34.5t9.5 -47q0 -39 -18 -69.5t-47.5 -48.5t-64 -26.5t-71.5 -8.5 q-92 0 -142.5 42.5t-50.5 118.5q0 2 2 27h40q-2 -25 -2 -26q0 -61 41 -94.5t115 -33.5q68 0 111.5 32t43.5 82q0 14 -4 26.5t-9 21.5t-16.5 18.5t-19 15t-23.5 12.5t-23 10t-24.5 9.5t-22.5 8.5q-21 8 -29.5 11t-27.5 11.5t-27.5 14.5t-21.5 17t-19 22t-10.5 26.5t-4.5 33.5 q0 64 49.5 102t132.5 38q179 0 179 -147q0 -9 -1 -17z" />
<glyph unicode="t" horiz-adv-x="261" d="M273 517l-8 -35h-109l-73 -343q-10 -46 -10 -62q0 -44 60 -44q25 0 52 5l-7 -36q-31 -5 -57 -5q-25 0 -44.5 6t-33 22.5t-13.5 42.5q0 21 11 72l73 342h-96l8 35h95l35 162h41l-33 -162h109z" />
<glyph unicode="u" horiz-adv-x="524" d="M496 517l-110 -517h-40l25 113q-37 -67 -84 -97.5t-110 -30.5q-70 0 -113 37.5t-43 97.5q0 36 13 98l64 299h41l-61 -291q-15 -74 -15 -100q0 -48 34 -77t90 -29q45 0 82.5 21t62.5 56.5t41.5 74.5t25.5 83l55 262h42z" />
<glyph unicode="v" horiz-adv-x="430" d="M459 517l-294 -517h-47l-91 517h44l62 -373q14 -84 15 -105q8 19 50 94l215 384h46z" />
<glyph unicode="w" horiz-adv-x="711" d="M745 517l-273 -517h-47l-39 363q-10 87 -10 111q-23 -51 -46 -93l-196 -381h-47l-61 517h44l34 -319q10 -89 14 -157q10 24 53 107l187 369h51l37 -341q10 -88 12 -134q17 43 70 146l173 329h44z" />
<glyph unicode="x" horiz-adv-x="430" d="M456 517l-231 -249l145 -268h-48l-126 241l-221 -241h-51l254 272l-131 245h47l113 -220l199 220h50z" />
<glyph unicode="y" horiz-adv-x="430" d="M464 517l-292 -512q-50 -89 -80 -129q-24 -34 -52 -48.5t-69 -14.5q-11 0 -40 3l8 36q20 -1 34 -1q42 0 66.5 21t50.5 66l36 62l-100 517h43l63 -326q12 -59 25 -145q28 59 71 135l190 336h46z" />
<glyph unicode="z" horiz-adv-x="430" d="M449 517l-7 -35l-376 -386q-44 -43 -66 -63q16 0 46.5 1t46.5 1h263l-8 -35h-401l9 37l363 372q14 15 40.5 40.5t34.5 33.5q-53 0 -336 -1l8 35h383z" />
<glyph unicode="{" horiz-adv-x="336" d="M-6 257l6 25q102 8 141 64q13 18 29 84l28 121q22 92 70.5 133.5t139.5 41.5l-5 -26q-29 0 -52 -6.5t-40 -16t-31 -26.5t-22.5 -32.5t-17 -41t-12.5 -43.5t-11 -48l-13 -63q-11 -50 -27.5 -81t-47.5 -50.5t-80 -23.5q45 -13 70 -36.5t25 -66.5q0 -28 -8 -64l-11 -54 q-16 -79 -16 -114q0 -89 112 -95l-6 -25q-64 0 -101 32t-37 95q0 36 9 80l11 56q14 70 14 96q0 27 -20.5 46.5t-44.5 27.5t-52 11z" />
<glyph unicode="|" horiz-adv-x="224" d="M94 -216v1010h36v-1010h-36z" />
<glyph unicode="}" horiz-adv-x="336" d="M318 283l-6 -25q-102 -8 -141 -65q-13 -17 -29 -84l-28 -121q-21 -91 -70 -133t-140 -42l5 26q29 0 52.5 6.5t40 16t30.5 27t22.5 32.5t17 40.5t13 44t10.5 48.5l13 62q16 75 50 112t105 44q-22 6 -38 13.5t-29.5 19.5t-20.5 29.5t-7 40.5q0 27 8 63l11 54q16 79 16 114 q0 89 -112 95l6 25q64 0 101 -31.5t37 -95.5q0 -36 -9 -80l-11 -55q-14 -71 -14 -96q0 -28 20.5 -47t44.5 -27t52 -11z" />
<glyph unicode="~" horiz-adv-x="606" d="M563 334q-10 -48 -40 -82t-78 -34q-37 0 -133 33q-8 3 -12 5q-16 5 -42.5 14.5t-38.5 13.5t-29 7.5t-29 3.5q-34 0 -58 -24.5t-32 -59.5h-29q11 50 40.5 83t77.5 33q16 0 35.5 -3.5t32 -7.5t41 -13.5l40.5 -13.5t36 -12.5t37 -13t30.5 -8.5t31.5 -4q35 0 58.5 24t32.5 59 h28z" />
<glyph unicode="&#xa3;" d="M327 354l-7 -27h-148q10 -44 10 -73q0 -35 -9.5 -64.5t-31 -57t-39 -45.5t-48.5 -47q51 21 90 21q12 0 23 -1.5t24 -4.5t20 -5t24 -7t22 -7q47 -14 76 -14q39 0 70 16t65 54l20 -31q-69 -78 -157 -78q-32 0 -69 12q-5 2 -15 5t-15.5 5t-14.5 5t-15 4.5t-14.5 4t-15.5 4 t-14.5 2.5t-15.5 1.5t-16 0.5q-56 0 -118 -42l-18 35q84 70 118 122t34 112q0 32 -12 73h-91l5 27h79q-32 80 -32 147q0 91 65.5 149.5t168.5 58.5q52 0 92.5 -14t68.5 -40.5t42.5 -65.5t14.5 -88q0 -9 -1 -17h-39v12q0 86 -45.5 131.5t-132.5 45.5q-85 0 -139 -49t-54 -126 q0 -63 33 -144h162z" />
<glyph unicode="&#xa4;" d="M59 162l63 63q-49 62 -49 135.5t49 135.5l-64 65l24 23l63 -65q62 50 136 50q76 0 135 -50l65 65l23 -24l-64 -64q50 -66 50 -135q0 -71 -51 -136l65 -64l-23 -24l-65 65q-61 -50 -135 -50q-76 0 -135 50l-64 -64zM281 533q-47 0 -87 -23t-63 -63t-23 -86 q0 -72 51 -122.5t122 -50.5q72 0 122.5 50.5t50.5 122t-50.5 122t-122.5 50.5z" />
<glyph unicode="&#xa6;" horiz-adv-x="224" d="M93 -90v253h38v-253h-38zM93 415v253h38v-253h-38z" />
<glyph unicode="&#xa7;" d="M499 538h-40q1 10 1 21q0 27 -9 50t-26 38.5t-41 24t-54 8.5q-53 0 -86.5 -29t-33.5 -74q0 -9 1.5 -18.5t4.5 -17t7.5 -16t9 -15t11 -14t11.5 -13t13 -13t13.5 -12.5t13.5 -12.5t13 -11.5q7 -6 34 -29.5t39.5 -35.5t34.5 -35.5t33 -41t20 -41.5t9 -47q0 -58 -39 -99 t-105 -50q36 -42 36 -91q0 -41 -22 -73.5t-61 -51t-87 -18.5q-79 0 -128 44.5t-49 116.5q0 2 2 26h41q-2 -11 -2 -25q0 -57 38 -91t101 -34q54 0 88.5 29t34.5 73q0 10 -1.5 20t-6.5 20.5t-8.5 18.5t-12 19t-12.5 16.5t-15.5 17l-15 15t-16 15.5t-14.5 13 q-102 97 -134.5 140.5t-32.5 91.5q0 58 39 100t99 50q-27 42 -27 80q0 61 45.5 99.5t116.5 38.5q78 0 124 -42t46 -112q0 -12 -1 -23zM314 81q62 7 91 42t29 76q0 66 -88 147l-133 124q-39 -6 -66.5 -26t-38.5 -44t-11 -50q0 -25 13.5 -51t26.5 -40.5t38 -39.5q1 -2 2 -2.5 t2.5 -2l2.5 -2.5z" />
<glyph unicode="&#xa9;" horiz-adv-x="808" d="M404 736q101 0 186.5 -50t134.5 -135t49 -184q0 -101 -50 -186.5t-135 -134.5t-185 -49q-101 0 -186 50t-134.5 135.5t-49.5 184.5q0 101 50 186t135 134t185 49zM404 709q-70 0 -133.5 -27.5t-109.5 -73.5t-72.5 -109t-26.5 -132q0 -94 46 -173t125 -124.5t171 -45.5 q94 0 173 46t124.5 125t45.5 172t-46 172t-125 124.5t-172 45.5zM581 286q-10 -59 -57.5 -95t-107.5 -36q-89 0 -144 63.5t-55 152.5q0 88 53 151t138 63q65 0 114.5 -40t55.5 -102h-33q-9 52 -46 82.5t-89 30.5q-73 0 -114.5 -54.5t-41.5 -128.5q0 -37 11 -71t31 -60.5 t51.5 -42t68.5 -15.5q49 0 85.5 27.5t47.5 74.5h32z" />
<glyph unicode="&#xab;" horiz-adv-x="392" d="M203 423l-10 -50l-114 -100l68 -112l-9 -46l-90 144l10 38zM334 423l-11 -51l-114 -99l69 -112l-9 -46l-90 144l9 38z" />
<glyph unicode="&#xac;" horiz-adv-x="606" d="M56 346v34h493v-218h-34v184h-459z" />
<glyph unicode="&#xad;" horiz-adv-x="355" d="M276 293l-8 -39h-219l9 39h218z" />
<glyph unicode="&#xae;" horiz-adv-x="404" d="M241 736q77 0 131 -54t54 -131t-54.5 -131t-130.5 -54q-50 0 -92.5 25t-67 68t-24.5 92q0 77 54 131t130 54zM241 715q-67 0 -115 -48.5t-48 -115.5q0 -44 22 -82t60 -60t81 -22q68 0 116 48.5t48 115.5q0 68 -48.5 116t-115.5 48zM173 650h78q31 0 52 -14.5t21 -42.5 q0 -33 -35 -47q33 -16 33 -62q0 -20 6 -30h-25q-5 11 -5 24q0 18 -3 29t-10.5 18t-19.5 9t-32 2h-37v-82h-23v196zM196 558h45q60 0 60 37q0 9 -2 15t-8.5 10t-10 6t-14.5 2.5t-12.5 0.5h-14.5h-43v-71z" />
<glyph unicode="&#xb0;" horiz-adv-x="404" d="M246 707q60 0 102 -42t42 -101t-42.5 -101t-101.5 -42q-38 0 -71 19.5t-52 52t-19 71.5q0 59 42 101t100 42zM246 674q-45 0 -77 -32.5t-32 -77.5q0 -46 32.5 -78t76.5 -32q46 0 78.5 32.5t32.5 77.5q0 22 -9 42.5t-24 35t-35.5 23.5t-42.5 9z" />
<glyph unicode="&#xb1;" horiz-adv-x="606" d="M261 77v190h-230v33h230v191h35v-191h229v-33h-229v-190h-35zM31 -4v33h494v-33h-494z" />
<glyph unicode="&#xb5;" horiz-adv-x="524" d="M98 517h41l-61 -291q-15 -74 -15 -100q0 -48 34 -77t90 -29q45 0 82.5 21t62.5 56.5t41.5 74.5t25.5 83l55 262h42l-110 -517h-40l25 113q-37 -66 -85 -97t-112 -31q-48 0 -82 21.5t-48 62.5l-54 -256h-42z" />
<glyph unicode="&#xb6;" horiz-adv-x="606" d="M612 689h-56l-182 -857h-37l182 857h-137l-182 -857h-36l93 440q-82 5 -126.5 49.5t-44.5 123.5q0 87 42.5 150t110.5 93.5t151 30.5h229z" />
<glyph unicode="&#xb7;" horiz-adv-x="280" d="M158 359l-23 -103h-50l22 103h51z" />
<glyph unicode="&#xbb;" horiz-adv-x="392" d="M92 423l89 -141l-9 -41l-146 -126l11 52l113 100l-68 112zM222 424l90 -143l-10 -39l-145 -126l11 51l113 100l-69 112z" />
<glyph unicode="&#xf7;" horiz-adv-x="606" d="M316 372h-50v101h50v-101zM545 256h-510v33h510v-33zM316 72h-50v101h50v-101z" />
<glyph unicode="&#x192;" d="M424 432l-9 -34h-122l-103 -384q-6 -24 -9 -34t-9.5 -31.5t-11.5 -31.5t-13.5 -26.5t-16.5 -24.5t-20.5 -19t-26 -16t-31 -9t-38.5 -4q-23 0 -43 2l9 37q15 -2 32 -2q27 0 48 9.5t33 21.5t23.5 36t16 39l13.5 45q1 8 2 11l103 381h-109l10 34h109l30 114q11 43 22 69 t29.5 49.5t47 33.5t70.5 10q21 0 52 -4l-9 -36q-30 3 -42 3q-57 0 -83 -26.5t-47 -104.5l-29 -108h122z" />
<glyph unicode="&#x401;" d="M620 719l-8 -38h-426l-61 -289h398l-8 -37h-398l-67 -317h440l-8 -38h-484l152 719h470zM345 894l-21 -102h-42l21 102h42zM512 894l-20 -102h-44l23 102h41z" />
<glyph unicode="&#x402;" horiz-adv-x="711" d="M230 145l-30 -145h-43l144 681h-223l8 38h550l-8 -38h-284l-83 -396q79 137 222 137q47 0 82 -15.5t55 -42t30 -58t10 -67.5q0 -83 -45 -163t-119 -134t-157 -66l8 38q108 22 190 118.5t82 204.5q0 31 -8.5 57t-25.5 47t-47.5 33.5t-71.5 12.5q-85 0 -148.5 -64 t-87.5 -178z" />
<glyph unicode="&#x403;" horiz-adv-x="505" d="M466 918l-134 -141h-36l118 141h52zM580 681h-396l-145 -681h-43l152 719h440z" />
<glyph unicode="&#x404;" horiz-adv-x="711" d="M485 392l-8 -37h-384q-5 -39 -5 -70q0 -121 64 -192.5t173 -71.5q105 0 183.5 61.5t108.5 167.5h45q-30 -120 -121.5 -193.5t-216.5 -73.5q-129 0 -205.5 80.5t-76.5 219.5q0 86 26.5 166.5t74.5 144t123 101.5t165 38q79 0 139.5 -29t94 -82.5t34.5 -123.5h-44 q-6 93 -64.5 145t-159.5 52q-65 0 -122 -24.5t-98 -66.5t-69.5 -96t-41.5 -116h385z" />
<glyph unicode="&#x405;" horiz-adv-x="636" d="M611 512h-41v10q0 171 -206 171q-64 0 -111 -19t-72 -54t-25 -82q0 -21 6.5 -39t15 -31t26 -25.5t29.5 -20t36.5 -16t35.5 -12t38 -11t34 -9.5q41 -12 68.5 -24t54.5 -32t40 -50.5t13 -72.5q0 -95 -74 -152t-196 -57q-127 0 -196.5 59.5t-69.5 168.5q0 3 0.5 7t0.5 8v9 h43v-19q0 -101 59 -149t165 -48q102 0 164 47t62 125q0 32 -11.5 56t-34.5 39.5t-45 25t-54 18.5q-9 3 -33.5 10t-35 10.5t-33.5 11t-34.5 13t-30.5 15.5t-29 19.5t-22.5 23t-19 28t-11 33t-4.5 39.5q0 89 68 141.5t183 52.5q80 0 135.5 -22.5t84 -67t28.5 -109.5 q0 -9 -1 -19z" />
<glyph unicode="&#x406;" horiz-adv-x="186" d="M195 719l-153 -719h-44l152 719h45z" />
<glyph unicode="&#x407;" horiz-adv-x="186" d="M194 719l-153 -719h-43l152 719h44zM321 894l-22 -102h-43l22 102h43zM144 894l-22 -102h-42l22 102h42z" />
<glyph unicode="&#x408;" horiz-adv-x="485" d="M502 719l-107 -506q-11 -54 -25.5 -91.5t-40 -70.5t-65.5 -49.5t-96 -16.5q-87 0 -134 42t-47 117q0 36 10 82h42q-10 -59 -10 -81q0 -59 36 -91.5t103 -32.5q31 0 56 7t43 20.5t31.5 29.5t23.5 39.5t16 45t12 50.5l109 506h43z" />
<glyph unicode="&#x409;" horiz-adv-x="1010" d="M964 222q0 -64 -32.5 -117.5t-86.5 -79.5q-30 -14 -68 -19.5t-108 -5.5h-229l145 681h-265l-111 -453q-9 -38 -19.5 -69t-27.5 -63.5t-36.5 -54.5t-47 -36t-59.5 -14q-48 0 -71 9l9 40q20 -12 70 -12q22 0 42 14t34.5 35t27.5 48.5t21.5 52.5t14.5 50l119 491h350 l-67 -320h167q40 0 71 -4t61.5 -15.5t50.5 -30.5t32.5 -51t12.5 -76zM920 220q0 23 -4 41t-11.5 32t-18 25t-24.5 18t-28.5 12t-33 7.5t-36.5 4t-39 1.5h-164l-69 -323h175q32 0 47 0.5t42.5 3t48.5 9.5t39 19q23 14 40 37.5t26.5 53t9.5 59.5z" />
<glyph unicode="&#x40a;" horiz-adv-x="1010" d="M512 361h-395l-78 -361h-43l152 719h45l-68 -320h395l68 320h43l-67 -320h177q40 0 71 -4t61.5 -15.5t50.5 -30.5t32.5 -51t12.5 -76q0 -64 -32.5 -117.5t-86.5 -79.5q-30 -14 -68 -19.5t-108 -5.5h-239zM925 220q0 35 -10.5 61t-27 41t-43 24t-53 12t-61.5 3h-174 l-69 -323h185q42 0 63 1t56 8.5t58 22.5q35 22 55.5 63t20.5 87z" />
<glyph unicode="&#x40b;" horiz-adv-x="711" d="M613 149l-32 -149h-44l33 149q16 75 16 122q0 61 -32 91.5t-109 30.5q-19 0 -40.5 -4t-39 -8.5t-38.5 -12.5t-32 -13t-27.5 -13t-19.5 -9l-70 -333h-44l146 681h-223l8 38h550l-8 -38h-284l-65 -306q118 55 188 55q69 0 110 -17.5t57.5 -49.5t16.5 -82q0 -55 -17 -132z " />
<glyph unicode="&#x40c;" horiz-adv-x="617" d="M685 719l-385 -304l276 -415h-50l-259 389l-173 -134l-53 -255h-43l150 719h44l-86 -409l516 409h63zM496 918l-133 -141h-37l118 141h52z" />
<glyph unicode="&#x40e;" d="M233 155l-159 564h46l143 -521l350 521h51l-430 -634q-65 -97 -140 -97q-18 0 -44 6.5t-34 15.5l9 42q11 -11 31.5 -18.5t38.5 -7.5q51 0 102 75zM525 890q-12 -52 -53 -86.5t-98 -34.5q-54 0 -88.5 29t-34.5 79q0 9 1 13h34q1 -47 25 -67.5t62 -20.5q37 0 71 24.5 t48 63.5h33z" />
<glyph unicode="&#x40f;" horiz-adv-x="673" d="M287 0l-40 -187h-43l39 187h-247l152 719h44l-145 -681h451l144 681h44l-153 -719h-246z" />
<glyph unicode="&#x410;" horiz-adv-x="617" d="M415 719l133 -719h-45l-41 232h-346l-141 -232h-51l445 719h46zM385 679q-12 -19 -33.5 -58t-33.5 -57l-181 -295h319l-54 298q-14 74 -17 112z" />
<glyph unicode="&#x411;" horiz-adv-x="636" d="M531 224q0 27 -8.5 50.5t-26 43.5t-49 32t-73.5 12h-267l-69 -324h266q61 0 111 19t83 62.5t33 104.5zM626 719l-8 -38h-442l-60 -281h257q95 0 149 -47.5t54 -126.5q0 -72 -37.5 -124.5t-96 -77t-130.5 -24.5h-325l153 719h486z" />
<glyph unicode="&#x412;" horiz-adv-x="636" d="M149 719h229q28 0 49 -1t47.5 -4.5t46 -10.5t39 -19t32 -28.5t20 -41.5t7.5 -56q0 -50 -20.5 -88.5t-59.5 -63.5t-92 -32q42 -8 71.5 -26t46.5 -50t17 -76q0 -45 -17.5 -86.5t-49.5 -71.5q-24 -23 -50.5 -37t-61 -19.5t-57 -6.5t-65.5 -1h-283zM185 681l-62 -291h221 q232 0 232 166q0 34 -12 58t-29 37t-45.5 20t-51.5 8.5t-57 1.5h-196zM115 355l-67 -319h218q97 0 147 13q55 15 90 63t35 109q0 35 -12 60.5t-30.5 39.5t-47.5 21.5t-53.5 10t-58.5 2.5h-221z" />
<glyph unicode="&#x413;" horiz-adv-x="505" d="M580 681h-396l-145 -681h-43l152 719h440z" />
<glyph unicode="&#x414;" horiz-adv-x="676" d="M509 -187l39 187h-563l-40 -187h-43l48 225h65q150 198 255 681h391l-146 -681h85l-48 -225h-43zM609 682h-304q-109 -465 -241 -644h408z" />
<glyph unicode="&#x415;" d="M620 719l-8 -38h-426l-61 -289h398l-8 -37h-398l-67 -317h440l-8 -38h-484l152 719h470z" />
<glyph unicode="&#x416;" horiz-adv-x="989" d="M359 409l-389 -409h-58l420 440l-244 279h53l333 -381l79 381h44l-80 -378l475 378h64l-361 -285l242 -434h-50l-226 407l-155 -121l-62 -286h-43l62 291z" />
<glyph unicode="&#x417;" horiz-adv-x="636" d="M614 569q0 -74 -48.5 -127t-125.5 -65v-2q67 -8 104 -45.5t37 -102.5q0 -75 -44 -131.5t-111 -83.5t-143 -27q-127 0 -196.5 60t-69.5 169q0 3 0.5 7t0.5 8v9h43v-19q0 -101 59.5 -149.5t164.5 -48.5q66 0 123 24t93.5 72.5t36.5 110.5q0 128 -189 128q-69 0 -83 -1 l10 38h74q57 0 105.5 18t81.5 59.5t33 100.5q0 62 -51.5 94.5t-132.5 32.5q-219 0 -253 -182h-43q43 220 297 220q106 0 166.5 -45t60.5 -122z" />
<glyph unicode="&#x418;" horiz-adv-x="673" d="M490 0l141 664h-3l-573 -664h-59l152 719h44l-140 -663h3l570 663h61l-153 -719h-43z" />
<glyph unicode="&#x419;" horiz-adv-x="673" d="M490 0l141 664h-3l-573 -664h-59l152 719h44l-140 -663h3l570 663h61l-153 -719h-43zM573 890q-12 -52 -53.5 -86.5t-98.5 -34.5q-54 0 -88 29t-34 79q0 9 1 13h33q1 -47 25 -67.5t62 -20.5q25 0 48.5 11t42.5 31t28 46h34z" />
<glyph unicode="&#x41a;" horiz-adv-x="617" d="M685 719l-385 -304l276 -415h-50l-259 389l-173 -134l-53 -255h-43l150 719h44l-86 -409l516 409h63z" />
<glyph unicode="&#x41b;" horiz-adv-x="673" d="M690 719l-153 -719h-43l144 681h-313l-111 -453q-9 -38 -19.5 -69t-27.5 -63.5t-36.5 -54.5t-47 -36t-59.5 -14q-48 0 -70 9l8 40q20 -12 70 -12q27 0 51 20t41 52.5t28.5 64t19.5 63.5l119 491h399z" />
<glyph unicode="&#x41c;" horiz-adv-x="823" d="M838 719l-153 -719h-43l106 493q27 123 45 184q-12 -18 -26 -42t-28.5 -48t-25.5 -42l-349 -545h-44l-116 539q-11 49 -26 138q-6 -29 -13 -66.5t-14 -74t-13 -64.5l-100 -472h-43l153 719h60l114 -534q4 -19 8.5 -45.5t9.5 -52t9 -45.5q11 21 22.5 40.5t31.5 50t24 37.5 l350 549h61z" />
<glyph unicode="&#x41d;" horiz-adv-x="673" d="M686 719l-152 -719h-44l76 357h-450l-77 -357h-43l152 719h45l-69 -325h450l68 325h44z" />
<glyph unicode="&#x41e;" horiz-adv-x="748" d="M718 441q0 -69 -15.5 -135.5t-48 -125t-77.5 -102.5t-108 -69.5t-137 -25.5q-88 0 -154.5 37t-102 106t-35.5 162q0 88 26 168t74 143t123 100t165 37q133 0 211.5 -80.5t78.5 -214.5zM423 698q-65 0 -120.5 -23.5t-95.5 -63t-68 -92t-41.5 -111.5t-13.5 -120 q0 -122 68 -195t182 -73q64 0 119.5 24.5t95.5 65.5t68.5 94.5t43 112t14.5 117.5q0 120 -66.5 192t-185.5 72z" />
<glyph unicode="&#x41f;" horiz-adv-x="673" d="M686 719l-152 -719h-44l144 681h-449l-146 -681h-43l152 719h538z" />
<glyph unicode="&#x420;" horiz-adv-x="598" d="M148 719h243q39 0 70 -4t61.5 -15.5t50.5 -30.5t32.5 -51t12.5 -76q0 -64 -32 -117.5t-86 -79.5q-30 -14 -68.5 -19.5t-108.5 -5.5h-215l-68 -320h-44zM185 681l-69 -323h205q40 0 63 1t57.5 8.5t57.5 22.5q34 22 55 63t21 87q0 36 -10.5 61.5t-27.5 40.5t-43.5 24 t-52.5 12t-61 3h-195z" />
<glyph unicode="&#x421;" horiz-adv-x="711" d="M662 250q-30 -120 -121.5 -193.5t-216.5 -73.5q-129 0 -205.5 80.5t-76.5 219.5q0 86 26.5 166.5t74.5 144t123 101.5t165 38q79 0 139.5 -29t94 -82.5t34.5 -123.5h-44q-6 93 -64.5 145t-159.5 52q-79 0 -145 -35.5t-108.5 -94t-66 -131.5t-23.5 -149q0 -121 64 -192.5 t173 -71.5q105 0 183.5 61.5t108.5 167.5h45z" />
<glyph unicode="&#x422;" horiz-adv-x="524" d="M617 719l-8 -37h-250l-144 -682h-44l144 682h-259l8 37h553z" />
<glyph unicode="&#x423;" d="M233 155l-159 564h46l143 -521l350 521h51l-430 -634q-65 -97 -140 -97q-18 0 -44 6.5t-34 15.5l9 42q11 -11 31.5 -18.5t38.5 -7.5q51 0 102 75z" />
<glyph unicode="&#x424;" horiz-adv-x="729" d="M297 120l103 485h-27q-125 0 -211.5 -81.5t-86.5 -204.5q0 -92 60 -140t162 -59zM442 605l-104 -487h-1h1q3 0 9.5 0.5t8.5 0.5q64 4 118.5 23t97 52.5t67 86t24.5 119.5q0 93 -63.5 148t-157.5 57zM467 719l-17 -77q54 -2 101 -20t81.5 -48.5t54.5 -75.5t20 -99 q0 -73 -29 -133.5t-78 -100t-113.5 -61t-136.5 -21.5h-19l-18 -83h-42l18 83q-112 5 -185.5 68t-73.5 171q0 96 50 170.5t130.5 112.5t176.5 38h21l16 76h43z" />
<glyph unicode="&#x425;" d="M636 719l-323 -352l191 -367h-47l-120 228q-37 73 -53 109q-10 -10 -56 -60l-254 -277h-55l344 373l-179 346h47l115 -224q17 -31 47 -94q10 11 41 48t49 56l200 214h53z" />
<glyph unicode="&#x426;" horiz-adv-x="691" d="M524 -187l40 187h-567l152 719h44l-145 -681h449l144 681h44l-145 -681h75l-47 -225h-44z" />
<glyph unicode="&#x427;" horiz-adv-x="636" d="M451 0l76 356q-33 -13 -110 -31.5t-129 -18.5q-100 0 -147.5 33.5t-47.5 116.5q0 36 11 91l36 172h44l-36 -163q-13 -63 -13 -99q0 -60 34.5 -87t116.5 -27q59 0 136 19t114 34l69 323h42l-153 -719h-43z" />
<glyph unicode="&#x428;" horiz-adv-x="1010" d="M-3 0l152 719h44l-145 -681h370l145 681h43l-144 -681h370l145 681h42l-152 -719h-870z" />
<glyph unicode="&#x429;" horiz-adv-x="1034" d="M858 -187l40 187h-901l152 719h44l-145 -681h370l145 681h43l-144 -681h369l145 681h43l-144 -681h74l-47 -225h-44z" />
<glyph unicode="&#x42a;" horiz-adv-x="785" d="M315 681h-261l8 38h305l-68 -320h198q40 0 71 -4t61.5 -15.5t50.5 -30.5t32 -51t12 -76q0 -64 -32 -117.5t-86 -79.5q-30 -14 -68.5 -19.5t-108.5 -5.5h-258zM681 220q0 30 -7 52.5t-20.5 38t-30 25.5t-40 15t-46 7.5t-51.5 2.5h-195l-69 -323h205q43 0 64 1t56 8.5 t58 22.5q34 22 55 63t21 87z" />
<glyph unicode="&#x42b;" horiz-adv-x="817" d="M632 0l154 719h43l-153 -719h-44zM551 222q0 -64 -32 -117.5t-86 -79.5q-30 -14 -68.5 -19.5t-107.5 -5.5h-260l153 719h44l-68 -320h198q40 0 71 -4t61.5 -15.5t50.5 -30.5t32 -51t12 -76zM508 220q0 30 -7 52.5t-20.5 38t-30 25.5t-40 15t-46 7.5t-51.5 2.5h-195 l-69 -323h206q42 0 63 1t56 8.5t58 22.5q34 22 55 63t21 87z" />
<glyph unicode="&#x42c;" horiz-adv-x="598" d="M551 222q0 -64 -32 -117.5t-86 -79.5q-30 -14 -68.5 -19.5t-107.5 -5.5h-260l152 719h44l-68 -320h199q40 0 71 -4t61.5 -15.5t50.5 -30.5t32 -51t12 -76zM508 220q0 30 -7 52.5t-20.5 38t-30 25.5t-40 15t-46 7.5t-51.5 2.5h-195l-69 -323h206q42 0 63 1t56 8.5t58 22.5 q34 22 55 63t21 87z" />
<glyph unicode="&#x42d;" horiz-adv-x="711" d="M295 22q129 0 220.5 92t113.5 243h-383l9 38h378q1 10 1 31q0 82 -29 143t-85 94.5t-132 33.5q-65 0 -121.5 -23.5t-98 -67.5t-62.5 -103h-42q17 70 69.5 124.5t119.5 81.5t138 27q132 0 209.5 -82.5t77.5 -222.5q0 -31 -5 -73q-24 -169 -129 -271.5t-253 -102.5 q-122 0 -196.5 73t-74.5 193h43q5 -102 65 -165t167 -63z" />
<glyph unicode="&#x42e;" horiz-adv-x="989" d="M960 441q0 -58 -11.5 -114t-33 -107t-55 -94.5t-75 -75t-96 -49.5t-115.5 -18q-134 0 -213 82.5t-79 222.5q0 39 4 69h-170l-77 -357h-43l152 719h45l-69 -325h168q13 71 44.5 132.5t78 108.5t112.5 74t143 27q132 0 211 -80.5t79 -214.5zM665 698q-65 0 -121 -23.5 t-95.5 -63t-68 -92t-42 -111.5t-13.5 -120q0 -122 68 -195t183 -73q63 0 118.5 24.5t95.5 65.5t69 94.5t43 112t14 117.5q0 120 -66.5 192t-184.5 72z" />
<glyph unicode="&#x42f;" horiz-adv-x="636" d="M597 682h-261q-92 0 -151 -46t-59 -135q0 -64 48.5 -98.5t128.5 -34.5h227zM452 0l71 330h-252l-309 -330h-55l316 336q-37 6 -69.5 28.5t-52 58.5t-19.5 78q0 73 37 123.5t94.5 72.5t130.5 22h304l-152 -719h-44z" />
<glyph unicode="&#x430;" horiz-adv-x="505" d="M59 369q23 84 73 123t140 39q40 0 72 -8t53.5 -24t32.5 -39t11 -52q0 -28 -14 -89l-36 -158q-17 -72 -17 -98q0 -33 28 -33q11 0 33 5l-6 -33q-26 -6 -39 -6q-53 0 -53 56q0 18 7 46q-68 -113 -202 -113q-73 0 -115 37.5t-42 101.5q0 42 20 76.5t56 54.5q30 16 69.5 24 t125.5 13q1 0 11.5 0.5t14.5 1t15 1.5t17 2t16 2.5t16 4t13.5 5t13 6.5t9.5 8q8 10 13.5 32t5.5 44q0 96 -129 96q-49 0 -83 -13.5t-56 -41t-34 -71.5h-40zM383 291q-12 -11 -20 -15t-28 -7q-20 -4 -110 -10t-133 -26q-20 -9 -35 -25t-23.5 -37.5t-8.5 -44.5q0 -33 15 -57.5 t43.5 -37.5t66.5 -13q60 0 109.5 31t76.5 84q18 35 35 106z" />
<glyph unicode="&#x431;" horiz-adv-x="542" d="M522 736q-7 -32 -37 -47t-93 -23l-91 -12q-40 -4 -74.5 -26t-59 -52t-44 -70t-31.5 -77.5t-20 -78.5h3q36 75 95 119.5t130 44.5q91 0 141.5 -52.5t50.5 -144.5q0 -61 -17.5 -119t-49 -106t-83.5 -77.5t-115 -29.5q-98 0 -147.5 59.5t-49.5 166.5q0 55 8 113.5t28 122 t49.5 114t77.5 86.5t107 43l100 12q3 0 12.5 1.5t13 2t11.5 1.5t11.5 2.5t9.5 3t9 4t7 5t6 6.5l4 8h38zM451 319q0 74 -40.5 117t-113.5 43q-53 0 -97 -25.5t-71.5 -67t-42.5 -92t-15 -103.5q0 -55 18.5 -93.5t54 -58.5t84.5 -20q55 0 99 27.5t70 72t40 96.5t14 104z" />
<glyph unicode="&#x432;" horiz-adv-x="505" d="M99 517h193q29 0 50 -1.5t46 -8t40.5 -18.5t26.5 -34.5t11 -53.5q0 -53 -32.5 -86.5t-90.5 -41.5q45 -8 70.5 -37.5t25.5 -75.5q0 -68 -48 -115q-22 -21 -53 -31.5t-53 -12t-63 -1.5h-232zM133 483l-40 -193h179q153 0 153 109q0 23 -8 39t-19 24.5t-30 13.5t-34.5 6 t-37.5 1h-163zM84 256l-46 -221h172q68 0 102 9q39 10 63 43.5t24 76.5q0 17 -4.5 31t-11.5 23.5t-18.5 16.5t-22.5 11t-26 6t-27.5 3t-28.5 1h-176z" />
<glyph unicode="&#x433;" horiz-adv-x="404" d="M136 482l-102 -482h-40l110 517h343l-8 -35h-303z" />
<glyph unicode="&#x434;" horiz-adv-x="542" d="M387 -163l34 163h-442l-35 -163h-40l42 198h61q53 76 97.5 198t68.5 240l9 44h319l-102 -482h71l-43 -198h-40zM453 482h-238l-9 -40q-26 -110 -68.5 -225.5t-88.5 -181.5h310z" />
<glyph unicode="&#x435;" horiz-adv-x="524" d="M449 170q-25 -90 -85 -137.5t-147 -47.5q-96 0 -149.5 58t-53.5 163q0 139 77.5 232.5t192.5 93.5q91 0 142.5 -55t51.5 -153q0 -28 -6 -68h-413q-4 -22 -4 -50q0 -88 43.5 -138t121.5 -50q44 0 81 18t64 52t43 82h41zM64 290h371q3 24 3 35q0 82 -41.5 127.5 t-115.5 45.5q-80 0 -138.5 -56t-78.5 -152z" />
<glyph unicode="&#x436;" horiz-adv-x="729" d="M670 0h-47l-171 273l30 29zM755 517l-397 -337l-39 -180h-40l38 180l-249 337h50l210 -285l61 285h40l-60 -285l328 285h58zM250 273l-263 -273h-56l298 305z" />
<glyph unicode="&#x437;" horiz-adv-x="477" d="M300 276q49 -6 79.5 -38t30.5 -77q0 -54 -33.5 -95t-83 -61t-103.5 -20q-89 0 -140.5 41t-51.5 115q0 9 2 34h40q-2 -22 -2 -32q0 -61 39 -92.5t113 -31.5q41 0 81 16.5t69 50t29 76.5q0 96 -153 96h-49l8 34h36q31 0 60 5.5t57.5 17.5t46 36.5t17.5 57.5q0 28 -18 48.5 t-46.5 30.5t-64.5 10q-152 0 -181 -131h-42q22 88 78 126.5t148 38.5q50 0 87 -13.5t58 -41.5t21 -68q0 -36 -18 -65t-47.5 -46.5t-66.5 -21.5z" />
<glyph unicode="&#x438;" horiz-adv-x="524" d="M352 0l98 465h-1l-406 -465h-51l109 517h40l-99 -467h1l406 467h53l-109 -517h-41z" />
<glyph unicode="&#x439;" horiz-adv-x="524" d="M352 0l98 465h-1l-406 -465h-51l109 517h40l-99 -467h1l406 467h53l-109 -517h-41zM467 719q-8 -33 -28.5 -60.5t-53 -44t-70.5 -16.5q-53 0 -87.5 29t-34.5 79q0 9 1 13h33q1 -47 25 -67.5t62 -20.5q25 0 48.5 11.5t42.5 31.5t28 45h34z" />
<glyph unicode="&#x43a;" horiz-adv-x="467" d="M408 0h-44l-171 275l-128 -102l-37 -173h-40l110 517h40l-62 -291l363 291h59l-275 -218z" />
<glyph unicode="&#x43b;" horiz-adv-x="542" d="M521 517l-110 -517h-40l102 482h-230l-68 -277q-29 -116 -70 -165.5t-97 -49.5q-30 0 -54 10l7 36q22 -11 54 -11q76 0 122 184l76 308h308z" />
<glyph unicode="&#x43c;" horiz-adv-x="636" d="M133 481l-102 -481h-40l110 517h63l93 -470l291 470h67l-110 -517h-40l102 481h-2l-295 -481h-43l-92 481h-2z" />
<glyph unicode="&#x43d;" horiz-adv-x="524" d="M352 0l55 258h-322l-55 -258h-40l109 517h40l-47 -225h322l48 225h40l-109 -517h-41z" />
<glyph unicode="&#x43e;" horiz-adv-x="542" d="M495 326q0 -49 -10.5 -97t-33.5 -92.5t-54.5 -78t-77 -53.5t-98.5 -20q-98 0 -152 56.5t-54 158.5q0 63 18.5 121.5t52 106t88 76t120.5 28.5q95 0 148 -55t53 -151zM291 497q-56 0 -102 -26.5t-74.5 -69.5t-43.5 -95t-15 -106q0 -86 43.5 -133.5t122.5 -47.5 q57 0 103 29t73.5 75t41.5 99t14 106q0 78 -43 123.5t-120 45.5z" />
<glyph unicode="&#x43f;" horiz-adv-x="524" d="M352 0l104 483h-323l-103 -483h-40l110 517h403l-110 -517h-41z" />
<glyph unicode="&#x440;" d="M134 517l-25 -120q32 64 85 99.5t123 35.5q57 0 99 -25.5t64.5 -73.5t22.5 -113q0 -59 -18 -117.5t-50.5 -107.5t-85 -79.5t-115.5 -30.5q-75 0 -123 42.5t-54 116.5l-69 -331h-41l150 704h37zM306 498q-56 0 -104 -31t-76 -82q-51 -95 -51 -195q0 -79 43 -125.5 t115 -46.5q54 0 99 29t72.5 74.5t43 97.5t15.5 102q0 80 -39.5 128.5t-117.5 48.5z" />
<glyph unicode="&#x441;" horiz-adv-x="524" d="M458 166q-28 -84 -89.5 -132t-148.5 -48q-94 0 -145.5 56t-51.5 158q0 62 19 121t53 106.5t88.5 76t120.5 28.5q85 0 134.5 -45t49.5 -123v-3h-41q0 63 -38.5 99.5t-106.5 36.5q-56 0 -102.5 -26t-75.5 -68.5t-44.5 -94.5t-15.5 -106q0 -87 41.5 -134.5t117.5 -47.5 q67 0 116.5 37.5t76.5 108.5h42z" />
<glyph unicode="&#x442;" horiz-adv-x="448" d="M264 482l-102 -482h-41l102 482h-196l7 35h433l-7 -35h-196z" />
<glyph unicode="&#x443;" horiz-adv-x="430" d="M464 517l-292 -512q-50 -89 -80 -129q-24 -34 -52 -48.5t-69 -14.5q-11 0 -40 3l8 36q20 -1 34 -1q42 0 66.5 21t50.5 66l36 62l-100 517h43l63 -326q12 -59 25 -145q28 59 71 135l190 336h46z" />
<glyph unicode="&#x444;" horiz-adv-x="773" d="M328 154l45 209q2 18 2 26q0 45 -29 76.5t-69 31.5q-55 0 -99 -31.5t-70.5 -80t-40 -102.5t-13.5 -105q0 -71 28.5 -113t89.5 -42q47 0 96 39t60 92zM689 350q0 68 -29.5 107.5t-93.5 39.5q-30 0 -62.5 -18t-58 -49.5t-32.5 -66.5l-44 -209q-3 -14 -3 -26q0 -29 14 -53.5 t36.5 -38t49.5 -13.5q53 0 97 33t70.5 83.5t41 105.5t14.5 105zM465 -12q-42 0 -72 21t-44 55l-53 -251h-40l53 251q-65 -76 -143 -76q-75 0 -115.5 52.5t-40.5 135.5q0 58 17.5 119t49 114.5t83.5 87.5t114 34q41 0 72 -22.5t45 -56.5l57 267h41l-58 -267q19 22 42 39.5 t52.5 28.5t57.5 11q74 0 111 -48.5t37 -130.5q0 -58 -17.5 -120.5t-50 -117.5t-84.5 -90.5t-114 -35.5z" />
<glyph unicode="&#x445;" horiz-adv-x="430" d="M456 517l-231 -249l145 -268h-48l-126 241l-221 -241h-51l254 272l-131 245h47l113 -220l199 220h50z" />
<glyph unicode="&#x446;" horiz-adv-x="542" d="M382 -163l35 163h-427l110 517h40l-103 -482h322l103 482h40l-103 -482h66l-43 -198h-40z" />
<glyph unicode="&#x447;" horiz-adv-x="493" d="M321 0l54 251q-109 -39 -177 -39q-142 0 -142 117q0 28 7 59l27 129h40l-30 -142q-5 -22 -5 -45q0 -44 26.5 -63t77.5 -19q41 0 98 14.5t86 27.5l48 227h41l-110 -517h-41z" />
<glyph unicode="&#x448;" horiz-adv-x="775" d="M-10 0l109 517h40l-102 -482h267l102 482h40l-102 -482h267l102 482h40l-109 -517h-654z" />
<glyph unicode="&#x449;" horiz-adv-x="796" d="M635 -163l36 163h-681l110 517h40l-103 -482h268l103 482h40l-103 -482h267l103 482h40l-103 -482h66l-42 -198h-41z" />
<glyph unicode="&#x44a;" horiz-adv-x="617" d="M552 170q0 -49 -24 -90t-65 -61q-42 -19 -135 -19h-223l102 482h-180l7 35h221l-45 -211h171q38 0 66 -5.5t53.5 -19.5t38.5 -42t13 -69zM512 168q0 31 -10.5 52.5t-31.5 31.5t-44 14t-55 4h-169l-50 -235h176q29 0 45.5 1t41.5 6.5t43 16.5q24 16 39 46t15 63z" />
<glyph unicode="&#x44b;" horiz-adv-x="636" d="M418 170q0 -49 -24.5 -90t-65.5 -61q-41 -19 -134 -19h-203l110 517h39l-44 -211h150q38 0 66.5 -5.5t53.5 -19.5t38.5 -42t13.5 -69zM378 168q0 31 -11 52.5t-32 31.5t-44 14t-55 4h-148l-51 -235h157q22 0 34 0.5t31.5 2.5t35 7t28.5 14q25 16 40 46t15 63zM466 0 l110 517h40l-110 -517h-40z" />
<glyph unicode="&#x44c;" horiz-adv-x="493" d="M438 170q0 -49 -24.5 -90t-65.5 -61q-41 -19 -134 -19h-223l110 517h39l-44 -211h171q38 0 66 -5.5t53.5 -19.5t38.5 -42t13 -69zM398 168q0 31 -11 52.5t-32 31.5t-43.5 14t-54.5 4h-169l-51 -235h177q22 0 34 0.5t31.5 2.5t35 7t28.5 14q25 16 40 46t15 63z" />
<glyph unicode="&#x44d;" horiz-adv-x="524" d="M474 318q0 -62 -19 -121t-53 -106.5t-88.5 -76t-120.5 -28.5q-56 0 -97.5 20.5t-64 58.5t-22.5 90v3h40q0 -64 39 -100.5t107 -36.5q64 0 115 34t79.5 85t38.5 115h-274l7 35h271q1 9 1 26q0 87 -41.5 134.5t-117.5 47.5q-63 0 -111 -33.5t-77 -96.5h-42q30 77 90 120.5 t143 43.5q94 0 145.5 -56t51.5 -158z" />
<glyph unicode="&#x44e;" horiz-adv-x="737" d="M690 326q0 -49 -11 -97t-33.5 -92.5t-54 -78t-77 -53.5t-98.5 -20q-98 0 -152 56.5t-54 158.5q0 32 4 58h-129l-55 -258h-40l109 517h40l-47 -225h128q24 104 93.5 172t175.5 68q95 0 148 -55t53 -151zM486 497q-56 0 -102 -26.5t-74.5 -69.5t-44 -95t-15.5 -106 q0 -86 44 -133.5t123 -47.5q57 0 103 29t73.5 75t41.5 99t14 106q0 78 -43 123.5t-120 45.5z" />
<glyph unicode="&#x44f;" horiz-adv-x="505" d="M483 516l-110 -516h-40l47 223h-183l-215 -223h-51l228 235q-26 5 -48 22t-35 43.5t-13 56.5q0 77 54 118t134 41h232zM435 483h-186q-63 0 -104.5 -33.5t-41.5 -95.5q0 -45 34 -70.5t89 -25.5h162z" />
<glyph unicode="&#x451;" horiz-adv-x="524" d="M449 170q-25 -90 -85 -137.5t-147 -47.5q-96 0 -149.5 58t-53.5 163q0 139 77.5 232.5t192.5 93.5q91 0 142.5 -55t51.5 -153q0 -28 -6 -68h-413q-4 -22 -4 -50q0 -88 43.5 -138t121.5 -50q44 0 81 18t64 52t43 82h41zM64 290h371q3 24 3 35q0 82 -41.5 127.5 t-115.5 45.5q-80 0 -138.5 -56t-78.5 -152zM243 717l-21 -102h-42l21 102h42zM410 717l-20 -102h-44l23 102h41z" />
<glyph unicode="&#x452;" horiz-adv-x="524" d="M426 109q-24 -114 -102 -194.5t-210 -100.5l7 33q97 15 170.5 87t91.5 160q1 5 8.5 40t13 65.5t5.5 48.5q0 108 -119 108q-86 0 -150 -60t-84 -157l-30 -139h-40l102 482h-64l8 35h64l42 202h40l-43 -202h266l-8 -35h-266l-45 -215h2q32 56 91.5 89t122.5 33 q36 0 63.5 -8.5t44 -22t26.5 -31.5t13.5 -34.5t3.5 -34.5q0 -14 -1 -29t-4.5 -32.5t-5.5 -28t-6.5 -32t-6.5 -27.5z" />
<glyph unicode="&#x453;" horiz-adv-x="404" d="M133 482l-102 -482h-40l109 517h343l-7 -35h-303zM410 745l-154 -143h-40l139 143h55z" />
<glyph unicode="&#x454;" horiz-adv-x="524" d="M488 368h-41q-2 60 -40.5 94.5t-104.5 34.5q-56 0 -102.5 -26t-75.5 -68.5t-44.5 -94.5t-15.5 -106q0 -87 41.5 -134.5t117.5 -47.5q67 0 116.5 37.5t76.5 108.5h42q-28 -84 -89.5 -132t-148.5 -48q-94 0 -145.5 56t-51.5 158q0 62 19 121t53 106.5t88.5 76t120.5 28.5 q56 0 97 -19.5t63.5 -57t23.5 -87.5zM352 292l-7 -34h-287l8 34h286z" />
<glyph unicode="&#x455;" horiz-adv-x="467" d="M425 367h-40v15q0 57 -34.5 84.5t-107.5 27.5q-64 0 -101 -26.5t-37 -72.5q0 -15 4 -28t14 -23.5t18 -17.5t25 -14.5t25 -11t28 -10t24 -8.5q27 -10 43 -16.5t38.5 -19.5t34.5 -26.5t21.5 -34.5t9.5 -47q0 -39 -18 -69.5t-47.5 -48.5t-64 -26.5t-71.5 -8.5 q-92 0 -142.5 42.5t-50.5 118.5q0 2 2 27h40q-2 -25 -2 -26q0 -61 41 -94.5t115 -33.5q68 0 111.5 32t43.5 82q0 14 -4 26.5t-9 21.5t-16.5 18.5t-19 15t-23.5 12.5t-23 10t-24.5 9.5t-22.5 8.5q-21 8 -29.5 11t-27.5 11.5t-27.5 14.5t-21.5 17t-19 22t-10.5 26.5t-4.5 33.5 q0 64 49.5 102t132.5 38q179 0 179 -147q0 -9 -1 -17z" />
<glyph unicode="&#x456;" horiz-adv-x="168" d="M142 517l-110 -517h-40l110 517h40zM186 719l-21 -102h-42l21 102h42z" />
<glyph unicode="&#x457;" horiz-adv-x="168" d="M271 719l-23 -102h-43l22 102h44zM94 719l-22 -102h-43l23 102h42zM142 517l-110 -517h-40l110 517h40z" />
<glyph unicode="&#x458;" horiz-adv-x="168" d="M142 517l-121 -571q-5 -25 -9.5 -41.5t-14 -36t-22 -30.5t-32.5 -19t-46 -8q-20 0 -42 3l7 37q15 -4 32 -4q19 0 33 6t22 13t15 22t9.5 25t6.5 30q1 5 2 8l119 566h41zM185 719l-21 -102h-42l21 102h42z" />
<glyph unicode="&#x459;" horiz-adv-x="785" d="M730 170q0 -50 -24.5 -90.5t-66.5 -60.5q-41 -19 -134 -19h-169l101 482h-194l-68 -277q-29 -116 -70 -165.5t-97 -49.5q-30 0 -54 10l7 36q22 -11 54 -11q76 0 122 184l76 308h273l-45 -212h116q38 0 66.5 -5.5t54 -19t39 -41.5t13.5 -69zM689 168q0 31 -11 52.5 t-32 31.5t-43.5 14t-55.5 4h-114l-49 -235h121q29 0 46 1t41.5 6.5t41.5 16.5q17 10 29.5 27t19 38.5t6.5 43.5z" />
<glyph unicode="&#x45a;" horiz-adv-x="785" d="M374 270h-286l-58 -270h-40l109 517h40l-44 -212h286l44 212h41l-45 -212h135q38 0 66 -5.5t53.5 -19t39 -41.5t13.5 -69q0 -49 -24.5 -90t-65.5 -61q-42 -19 -135 -19h-186zM688 168q0 31 -11 52.5t-32 31.5t-43.5 14t-55.5 4h-132l-50 -235h140q29 0 45.5 1t41 6.5 t41.5 16.5q25 16 40.5 45.5t15.5 63.5z" />
<glyph unicode="&#x45b;" horiz-adv-x="524" d="M28 0h-1h-40l103 482h-64l7 35h64l43 202h40l-44 -202h266l-7 -35h-266l-46 -217q39 60 89 92t119 32q68 0 110 -36.5t42 -95.5q0 -32 -15 -101l-33 -156h-40l32 157q14 68 14 95q0 47 -32.5 74.5t-88.5 27.5q-49 0 -88.5 -19t-65.5 -52.5t-43 -72t-27 -85.5z" />
<glyph unicode="&#x45c;" horiz-adv-x="467" d="M408 0h-44l-171 275l-128 -102l-37 -173h-40l110 517h40l-62 -291l363 291h59l-275 -218zM419 745l-154 -143h-40l139 143h55z" />
<glyph unicode="&#x45e;" horiz-adv-x="430" d="M464 517l-292 -512q-50 -89 -80 -129q-24 -34 -52 -48.5t-69 -14.5q-11 0 -40 3l8 36q20 -1 34 -1q42 0 66.5 21t50.5 66l36 62l-100 517h43l63 -326q12 -59 25 -145q28 59 71 135l190 336h46zM405 719q-12 -51 -53 -86t-98 -35q-54 0 -88.5 29t-34.5 79q0 9 1 13h34 q0 -47 24.5 -67.5t61.5 -20.5q38 0 71.5 25t48.5 63h33z" />
<glyph unicode="&#x45f;" horiz-adv-x="524" d="M211 0l-35 -163h-41l36 163h-182l110 517h40l-103 -482h323l103 482h40l-110 -517h-181z" />
<glyph unicode="&#x490;" horiz-adv-x="505" d="M184 681l-146 -681h-43l153 719h395l37 172h43l-44 -210h-395z" />
<glyph unicode="&#x491;" horiz-adv-x="404" d="M479 680l-43 -198h-303l-102 -482h-40l110 517h303l34 163h41z" />
<glyph unicode="&#x2000;" horiz-adv-x="459" />
<glyph unicode="&#x2001;" horiz-adv-x="918" />
<glyph unicode="&#x2002;" horiz-adv-x="459" />
<glyph unicode="&#x2003;" horiz-adv-x="918" />
<glyph unicode="&#x2004;" horiz-adv-x="306" />
<glyph unicode="&#x2005;" horiz-adv-x="229" />
<glyph unicode="&#x2006;" horiz-adv-x="153" />
<glyph unicode="&#x2007;" horiz-adv-x="153" />
<glyph unicode="&#x2008;" horiz-adv-x="114" />
<glyph unicode="&#x2009;" horiz-adv-x="183" />
<glyph unicode="&#x200a;" horiz-adv-x="51" />
<glyph unicode="&#x2010;" horiz-adv-x="355" d="M276 293l-8 -39h-219l9 39h218z" />
<glyph unicode="&#x2011;" horiz-adv-x="355" d="M276 293l-8 -39h-219l9 39h218z" />
<glyph unicode="&#x2012;" horiz-adv-x="355" d="M276 293l-8 -39h-219l9 39h218z" />
<glyph unicode="&#x2013;" horiz-adv-x="505" d="M509 294l-8 -38h-505l8 38h505z" />
<glyph unicode="&#x2014;" horiz-adv-x="1010" d="M1014 294l-8 -38h-1010l8 38h1010z" />
<glyph unicode="&#x2018;" horiz-adv-x="206" d="M229 733l-7 -33q-15 -6 -25.5 -15.5t-17.5 -24.5t-10 -25.5t-7 -30.5h18l-22 -103h-50l21 101q12 56 32.5 86.5t67.5 44.5z" />
<glyph unicode="&#x2019;" horiz-adv-x="206" d="M212 719l-21 -101q-12 -56 -32.5 -86t-67.5 -45l7 33q15 6 25.5 15.5t17.5 24.5t10 25.5t8 30.5h-19l23 103h49z" />
<glyph unicode="&#x201a;" horiz-adv-x="206" d="M82 103l-21 -101q-12 -56 -32.5 -86.5t-67.5 -44.5l7 33q15 6 25.5 15.5t17 24.5t10 25.5t7.5 30.5h-18l22 103h50z" />
<glyph unicode="&#x201c;" horiz-adv-x="318" d="M339 733l-7 -33q-15 -6 -25.5 -15.5t-17.5 -24.5t-10 -25.5t-7 -30.5h18l-22 -103h-50l21 101q12 56 32.5 86.5t67.5 44.5zM212 733l-7 -33q-15 -6 -25.5 -15.5t-17.5 -24.5t-10 -25.5t-8 -30.5h19l-23 -103h-49l21 101q12 56 32.5 86.5t67.5 44.5z" />
<glyph unicode="&#x201d;" horiz-adv-x="318" d="M325 719l-21 -101q-12 -56 -32.5 -86t-67.5 -45l7 33q15 6 25.5 15.5t17.5 24.5t10 25.5t8 30.5h-18l22 103h49zM198 719l-21 -101q-12 -56 -32.5 -86t-67.5 -45l7 33q15 6 25.5 15.5t17.5 24.5t10 25.5t7 30.5h-18l22 103h50z" />
<glyph unicode="&#x201e;" horiz-adv-x="318" d="M82 103l-21 -101q-12 -56 -32.5 -86.5t-67.5 -44.5l7 33q15 6 25.5 15.5t17 24.5t10 25.5t7.5 30.5h-18l22 103h50zM209 103l-21 -101q-12 -56 -32.5 -86.5t-67.5 -44.5l7 33q12 5 21.5 13t15.5 16t11 21t7 21.5t6 24.5h-19l23 103h49z" />
<glyph unicode="&#x2020;" d="M380 719l-50 -235h207l-8 -37h-207l-126 -594h-39l125 594h-207l8 37h207l49 235h41z" />
<glyph unicode="&#x2021;" d="M379 719l-43 -200h207l-7 -36h-207l-84 -395h207l-7 -34h-207l-42 -200h-39l42 200h-207l8 34h207l83 395h-206l7 36h207l42 200h39z" />
<glyph unicode="&#x2022;" horiz-adv-x="505" d="M252 539q76 0 128 -52.5t52 -126.5q0 -75 -53 -127.5t-127 -52.5t-126.5 53t-52.5 127q0 75 52.5 127t126.5 52z" />
<glyph unicode="&#x2026;" horiz-adv-x="1010" d="M149 103l-22 -103h-50l22 103h50zM487 103l-22 -103h-51l22 103h51zM823 103l-22 -103h-51l23 103h50z" />
<glyph unicode="&#x202f;" horiz-adv-x="183" />
<glyph unicode="&#x2030;" horiz-adv-x="1066" d="M645 730l-551 -762h-38l550 762h39zM361 579q0 -87 -50.5 -146.5t-123.5 -59.5q-62 0 -96.5 35.5t-34.5 98.5q0 84 48.5 144.5t130.5 60.5q61 0 93.5 -35.5t32.5 -97.5zM230 682q-60 0 -99.5 -50t-39.5 -127q0 -49 26 -76t72 -27q43 0 75.5 29t46.5 68.5t14 82.5 q0 48 -24 74t-71 26zM649 195q0 -87 -50 -146.5t-123 -59.5q-62 0 -97 35.5t-35 98.5q0 84 49 144.5t131 60.5q41 0 69.5 -17.5t42 -47t13.5 -68.5zM519 298q-60 0 -99.5 -50t-39.5 -127q0 -48 26 -75.5t72 -27.5q43 0 75 29t46.5 69t14.5 82q0 44 -24.5 72t-70.5 28z M1010 195q0 -87 -50 -146.5t-124 -59.5q-61 0 -96 35.5t-35 98.5q0 84 49 144.5t131 60.5q61 0 93 -35.5t32 -97.5zM880 298q-61 0 -100.5 -50t-39.5 -127q0 -48 26 -75.5t72 -27.5q44 0 76 29t46.5 69t14.5 82q0 24 -6 42t-18 31t-30 20t-41 7z" />
<glyph unicode="&#x2039;" horiz-adv-x="261" d="M199 423l-11 -51l-114 -99l68 -112l-9 -46l-90 143l10 39z" />
<glyph unicode="&#x203a;" horiz-adv-x="261" d="M97 424l90 -143l-9 -39l-147 -126l11 52l115 99l-70 112z" />
<glyph unicode="&#x205f;" horiz-adv-x="229" />
<glyph unicode="&#x2122;" horiz-adv-x="999" d="M283 360v331h-130v28h290v-28h-130v-331h-30zM515 360v359h47l124 -318l124 318h44v-359h-27v326l-128 -326h-27l-129 326v-326h-28z" />
<glyph unicode="&#x2206;" horiz-adv-x="645" d="M418 719l141 -719h-619l443 719h35zM2 35h509l-120 634z" />
<glyph unicode="&#x221a;" horiz-adv-x="606" d="M511 793l-217 -1009h-32l-180 370l-45 -22l-13 28l74 36l175 -363l205 960h33z" />
<glyph unicode="&#x221e;" horiz-adv-x="729" d="M352 294q5 4 18 15.5t19 17.5t18.5 16.5t21 16.5t20.5 14.5t22.5 13t22.5 9.5t24 7t24 2q38 0 67 -17.5t45 -47t16 -66.5q0 -59 -35 -97t-93 -38q-14 0 -28.5 3.5t-26 7t-26 12.5t-23 14t-23.5 17.5t-21 18t-22 20t-20 17.5q-9 -7 -32.5 -28.5t-36.5 -31.5t-34 -23.5 t-42 -19.5t-44 -6q-58 0 -93 37t-35 95q0 56 35 94.5t90 38.5q24 0 49 -8.5t50.5 -26.5t41 -31t41.5 -36l3.5 -3.5l3.5 -3.5zM375 272q7 -6 28 -25t33 -28t31 -21.5t37.5 -18t37.5 -5.5q44 0 69 27.5t25 72.5q0 43 -24.5 71t-67.5 28q-25 0 -58 -17.5t-52.5 -33.5t-50.5 -43 l-3 -3t-2.5 -2t-2.5 -2zM329 272q-2 2 -19.5 17.5t-23.5 20t-22.5 18t-26.5 18.5t-25 13t-28 11t-26 3q-40 0 -64.5 -29.5t-24.5 -69.5q0 -45 25 -72t69 -27q18 0 37.5 6.5t34.5 15t35 24t30.5 25t28.5 26.5z" />
<glyph unicode="&#x2248;" horiz-adv-x="606" d="M541 406q-9 -49 -39 -82.5t-78 -33.5q-37 0 -133 33q-8 3 -12 4q-15 5 -35 12t-32 11t-26 8.5t-25 6.5t-22 2q-33 0 -57 -25t-33 -59h-28q7 32 20.5 57t39 42t57.5 17q14 0 27.5 -2t29 -6.5t27.5 -8t32.5 -10.5t33.5 -11q12 -4 36 -13t36.5 -13t30.5 -8t32 -4q34 0 58 24 t33 59h27zM541 264q-9 -49 -39 -83t-78 -34q-37 0 -133 34q-8 2 -12 4q-13 4 -29.5 10t-27 9.5t-23.5 7.5t-22 6.5t-19 4t-19 1.5q-33 0 -57 -24.5t-33 -59.5h-28q10 50 39.5 83.5t77.5 33.5q14 0 27.5 -2t29 -6.5t27.5 -8.5t32.5 -11t33.5 -11q12 -4 36 -12.5t36.5 -13 t30.5 -8t32 -3.5q34 0 58 24t33 59h27z" />
<glyph unicode="&#x2260;" horiz-adv-x="606" d="M238 196l81 151h-266v34h284l77 144l29 -15l-68 -129h171v-34h-189l-82 -151h271v-33h-288l-76 -143l-29 15l67 128h-167v33h185z" />
<glyph unicode="&#x2264;" horiz-adv-x="606" d="M33 263v36l494 202v-37l-449 -183l449 -182v-37zM33 19h494v-33h-494v33z" />
<glyph unicode="&#x2265;" horiz-adv-x="606" d="M546 263l-493 -201v37l450 182l-450 183v37l493 -202v-36zM546 19v-33h-493v33h493z" />
<glyph unicode="&#x25fc;" horiz-adv-x="515" d="M0 515h515v-515h-515v515z" />
</font>
</defs>
</svg>
