<?xml version="1.0" standalone="no"?>
<!DOCTYPE svg PUBLIC "-//W3C//DTD SVG 1.1//EN" "http://www.w3.org/Graphics/SVG/1.1/DTD/svg11.dtd" >
<svg xmlns="http://www.w3.org/2000/svg" xmlns:xlink="http://www.w3.org/1999/xlink" version="1.1">
<metadata></metadata>
<defs>
<font id="helveticaneuecyrlight_italic" horiz-adv-x="561" >
<font-face units-per-em="1000" ascent="800" descent="-200" />
<missing-glyph horiz-adv-x="280" />
<glyph horiz-adv-x="0" />
<glyph horiz-adv-x="333" />
<glyph unicode=" "  horiz-adv-x="280" />
<glyph unicode="&#x09;" horiz-adv-x="280" />
<glyph unicode="&#xa0;" horiz-adv-x="280" />
<glyph unicode="!" horiz-adv-x="280" d="M125 100l-21 -100h-75l21 100h75zM252 719l-47 -222l-82 -317h-37l52 317l47 222h67z" />
<glyph unicode="&#x22;" horiz-adv-x="373" d="M147 414h-40l53 284h54zM297 414h-40l53 284h54z" />
<glyph unicode="#" d="M128 0h-54l46 213h-114l10 49h115l39 175h-114l10 49h115l46 212h55l-47 -212h139l46 212h55l-47 -212h115l-11 -49h-115l-38 -175h114l-11 -49h-114l-47 -213h-54l46 213h-138zM324 262l39 175h-139l-38 -175h138z" />
<glyph unicode="$" d="M391 789l-15 -75q171 -23 171 -177q0 -2 -0.5 -7.5t-0.5 -10.5h-59v16q0 37 -14 64t-41.5 43.5t-66.5 21.5l-59 -277q40 -12 69.5 -25.5t58 -35.5t43.5 -54t15 -74q0 -62 -31.5 -111t-88.5 -76t-131 -27q-2 0 -8 0.5t-12 0.5l-18 -88h-36l19 89q-90 9 -139 62t-49 140 q0 12 1 24h61q-1 -11 -1 -23q0 -66 35.5 -105t102.5 -47l64 303q-32 10 -53 18t-46.5 22.5t-40.5 31.5t-25.5 42.5t-10.5 57.5q0 91 65 148t168 57q3 0 9.5 -0.5t11.5 -0.5l16 73h36zM273 398l56 269h-14q-73 0 -121.5 -42t-48.5 -106q0 -46 28.5 -73.5t99.5 -47.5zM294 330 l-62 -296h14q79 0 131.5 45t52.5 113q0 51 -33 85t-103 53z" />
<glyph unicode="%" horiz-adv-x="841" d="M719 734l-545 -767h-56l546 767h55zM775 222q0 -42 -12 -83t-34.5 -76t-59 -56t-81.5 -21q-64 0 -100 37.5t-36 103.5q0 57 20 110t63.5 91t101.5 38q65 0 101.5 -39.5t36.5 -104.5zM635 321q-32 0 -58 -18.5t-40.5 -47t-22 -60t-7.5 -61.5q0 -105 83 -105q42 0 73.5 34 t44.5 77t13 83q0 45 -21 71.5t-65 26.5zM392 571q0 -58 -20 -110.5t-64 -89.5t-103 -37q-63 0 -99 38t-36 104q0 57 19.5 110t63 90.5t102.5 37.5q64 0 100.5 -39t36.5 -104zM252 670q-42 0 -72.5 -32.5t-43 -73t-12.5 -81.5q0 -105 83 -105q42 0 73.5 34t44.5 76.5t13 83.5 q0 29 -8.5 50.5t-28 34.5t-49.5 13z" />
<glyph unicode="&#x26;" horiz-adv-x="617" d="M551 317q-16 -96 -86 -185l86 -132h-71l-57 89q-85 -103 -208 -103q-84 0 -139.5 47.5t-55.5 130.5q0 35 10.5 65t24 49t39 39.5t42 30.5t48 27t42.5 23q-20 33 -30.5 52t-20.5 50t-10 60q0 69 46.5 113t118.5 44q69 0 112 -37t43 -96q0 -90 -110 -162q-22 -14 -65 -38 l-1 -1h-1l-1 -1h-1l126 -200q45 66 59 135h60zM279 424q4 3 21 12t25 13.5t24 14.5t24.5 17.5t20.5 19.5t18.5 23t11 25t4.5 29q0 39 -27 63.5t-71 24.5q-31 0 -55.5 -13.5t-38 -37t-13.5 -53.5q0 -11 1.5 -21t5.5 -22t6.5 -19t10 -20.5t10 -17.5t12 -20t10.5 -18zM256 355 q-6 -4 -25.5 -14.5t-27.5 -15t-25.5 -15t-26 -17.5t-22 -19t-20.5 -22.5t-14.5 -23.5t-10.5 -28t-3 -31q0 -57 38.5 -94t98.5 -37q48 0 95.5 26.5t79.5 69.5z" />
<glyph unicode="'" horiz-adv-x="280" d="M180 414h-41l53 284h54z" />
<glyph unicode="(" horiz-adv-x="261" d="M345 728q-113 -131 -175 -288.5t-62 -325.5q0 -156 50 -303h-44q-31 76 -49 168t-18 174q0 157 66 304t180 271h52z" />
<glyph unicode=")" horiz-adv-x="261" d="M128 728q66 -167 66 -337q0 -161 -62.5 -302.5t-181.5 -277.5h-54q237 285 237 614q0 152 -48 303h43z" />
<glyph unicode="*" horiz-adv-x="355" d="M275 727l-27 -121l120 24l4 -38l-116 -25l59 -102l-36 -20l-61 107l-87 -93l-29 28l85 90l-101 55l20 36l103 -57l25 120z" />
<glyph unicode="+" horiz-adv-x="606" d="M256 0v219h-224v50h224v219h54v-219h224v-50h-224v-219h-54z" />
<glyph unicode="," horiz-adv-x="280" d="M131 104l-22 -104q-14 -65 -42 -97t-80 -41l8 39q33 10 48 34.5t22 64.5h-37l22 104h81z" />
<glyph unicode="-" horiz-adv-x="373" d="M305 307l-13 -60h-254l12 60h255z" />
<glyph unicode="." horiz-adv-x="280" d="M130 104l-23 -104h-84l23 104h84z" />
<glyph unicode="/" horiz-adv-x="336" d="M393 728l-416 -740h-56l417 740h55z" />
<glyph unicode="0" d="M534 467q0 -40 -5 -84t-17 -91t-29 -91t-42.5 -84t-56.5 -69.5t-72 -46.5t-88 -17q-96 0 -148.5 64.5t-52.5 183.5q0 58 10.5 120t35 126.5t59.5 115.5t88.5 83t116.5 32q54 0 94 -18.5t63 -52.5t33.5 -76.5t10.5 -94.5zM332 654q-50 0 -93 -31t-70 -79.5t-46 -108.5 t-27 -114.5t-8 -100.5q0 -87 36.5 -134.5t103.5 -47.5q52 0 94.5 32t69 80.5t45 108.5t26 113t7.5 97q0 185 -138 185z" />
<glyph unicode="1" d="M421 704l-149 -704h-66l125 587q-37 -23 -92.5 -38.5t-103.5 -19.5l10 50q147 16 226 125h50z" />
<glyph unicode="2" d="M458 57l-13 -57h-457q2 33 12.5 63.5t24 54t37.5 48t42.5 40t51 36.5t51.5 32t54 31q14 7 21 11q23 13 36 20.5t35 22t35 25.5t29 28t25 33t15.5 37t6.5 43q0 59 -39.5 94.5t-105.5 35.5q-76 0 -123 -48.5t-55 -135.5h-59q6 109 71.5 174t169.5 65q93 0 148 -49.5 t55 -133.5q0 -32 -7.5 -60t-24 -52t-33.5 -42t-44.5 -37.5t-47 -31.5t-51.5 -30q-5 -3 -32.5 -18t-39 -22t-38 -23t-40.5 -27t-35 -28t-33.5 -31.5t-23.5 -33t-15 -35.5q4 0 17 0.5t46 0.5h334z" />
<glyph unicode="3" d="M71 224q-2 -16 -2 -35q0 -70 42.5 -110t116.5 -40q80 0 133 50t53 129q0 123 -164 123q-10 0 -23 -1l11 54q19 -1 37 -1q36 0 67.5 7t59 22t43.5 44t16 68q0 36 -17.5 63.5t-49 42t-73.5 14.5q-70 0 -116.5 -43t-59.5 -119h-60q15 103 77.5 160t160.5 57q90 0 146 -47 t56 -124q0 -66 -40 -112t-107 -59q50 -16 77.5 -54.5t27.5 -94.5q0 -105 -75.5 -169t-182.5 -64q-100 0 -159 53.5t-59 145.5q0 22 3 40h61z" />
<glyph unicode="4" d="M504 227l-12 -52h-106l-37 -175h-62l37 175h-326l13 59l430 474h56l-100 -481h107zM335 227l57 268q8 38 26 115l-348 -384q8 0 24.5 0.5t24.5 0.5h216z" />
<glyph unicode="5" d="M536 698l-12 -56h-308l-78 -230q61 56 150 56q92 0 148.5 -57t56.5 -150q0 -75 -33 -138t-94 -100.5t-138 -37.5q-98 0 -155 52.5t-57 142.5v21h63q-1 -11 -1 -23q0 -64 41 -102t110 -38q85 0 139.5 60.5t54.5 155.5q0 74 -41 116t-113 42q-100 0 -152 -78l-57 3l116 361 h360z" />
<glyph unicode="6" d="M549 526h-62q-5 65 -34.5 98.5t-95.5 33.5q-33 0 -61.5 -10.5t-48.5 -24.5t-39 -40.5t-30.5 -46.5t-24.5 -55.5t-19 -55t-16 -55.5q0 -2 -0.5 -3.5t-1 -3.5t-1.5 -3q31 47 78.5 73.5t102.5 26.5q61 0 108 -26.5t73 -75t26 -110.5q0 -114 -70.5 -189t-178.5 -75 q-105 0 -162 64t-57 181q0 67 22 160q76 322 301 322q59 0 102 -21t66 -61.5t23 -96.5v-6zM286 405q-81 0 -133.5 -56.5t-52.5 -143.5q0 -76 43 -122t115 -46q78 0 129 60t51 151q0 71 -41 114t-111 43z" />
<glyph unicode="7" d="M574 698l-12 -56q-127 -121 -231 -294.5t-158 -347.5h-71q46 161 154 335t238 302h-383l12 61h451z" />
<glyph unicode="8" d="M378 372q55 -18 86 -62t31 -103q0 -68 -36.5 -119t-93 -76t-123.5 -25q-104 0 -165 53.5t-61 145.5q0 80 50.5 133t137.5 65q-48 19 -73 56t-25 86q0 82 60 132.5t157 50.5q92 0 147.5 -46.5t55.5 -124.5q0 -63 -42 -110t-106 -56zM323 658q-70 0 -112.5 -38t-42.5 -100 q0 -55 38.5 -87.5t105.5 -32.5q68 0 110 37.5t42 97.5t-40 91.5t-101 31.5zM267 349q-84 0 -134 -44.5t-50 -119.5q0 -68 44 -107t119 -39q81 0 131.5 47t50.5 122q0 69 -45.5 105t-115.5 36z" />
<glyph unicode="9" d="M18 170h61v-6q0 -59 36.5 -92.5t99.5 -33.5q33 0 62 11t50 27.5t39 43t30 51.5t23 58.5t17 58t12 56.5q-65 -107 -184 -107q-91 0 -147.5 58.5t-56.5 151.5q0 75 32.5 135.5t89.5 95t128 34.5q106 0 160 -65.5t54 -176.5q0 -59 -12.5 -132.5t-33.5 -130.5 q-38 -106 -100 -164.5t-165 -58.5q-92 0 -143.5 47.5t-51.5 132.5v6zM309 655q-80 0 -133 -59t-53 -150q0 -69 42 -111t112 -42q77 0 129.5 58.5t52.5 144.5q0 74 -38.5 116.5t-111.5 42.5z" />
<glyph unicode=":" horiz-adv-x="280" d="M137 104l-23 -104h-84l24 104h83zM222 506l-23 -104h-84l23 104h84z" />
<glyph unicode=";" horiz-adv-x="280" d="M222 506l-23 -104h-84l23 104h84zM136 104l-22 -104q-14 -65 -42 -97t-80 -41l8 39q33 10 48 34.5t22 64.5h-37l23 104h80z" />
<glyph unicode="&#x3c;" horiz-adv-x="606" d="M22 235v55l502 202v-55l-439 -174l439 -174v-54z" />
<glyph unicode="=" horiz-adv-x="606" d="M31 323v49h502v-49h-502zM31 138v49h502v-49h-502z" />
<glyph unicode="&#x3e;" horiz-adv-x="606" d="M558 235l-502 -200v54l439 174l-439 174v55l502 -202v-55z" />
<glyph unicode="?" horiz-adv-x="542" d="M252 100l-21 -100h-75l22 100h74zM262 184h-60q12 76 39 117t91 85q26 17 45 32.5t39 37.5t31 47.5t11 54.5q0 35 -16.5 62t-46 42t-69.5 15q-80 0 -123 -49t-55 -132h-60q11 107 72 171t168 64q89 0 143 -46.5t54 -123.5q0 -31 -9.5 -59t-21 -47t-36 -41.5t-40 -34 t-46.5 -33.5l-4.5 -3t-3.5 -2.5t-4 -3.5q-12 -8 -22 -16.5t-17.5 -15t-14.5 -15.5t-11.5 -14t-9 -15.5t-6.5 -14t-5.5 -15t-4 -14.5t-4 -16.5t-3.5 -16.5z" />
<glyph unicode="@" horiz-adv-x="808" d="M711 119l20 -26q-74 -54 -147 -80t-161 -26q-107 0 -195.5 42.5t-143 126t-54.5 191.5q0 81 32 152.5t86 122t130.5 80t161.5 29.5q150 0 244 -83t94 -214q0 -106 -61.5 -184t-143.5 -78q-34 0 -55.5 19t-21.5 50q0 11 7 38q-26 -51 -61 -79t-87 -28q-60 0 -97.5 41 t-37.5 107q0 97 60 170t139 73q51 0 83.5 -25.5t40.5 -70.5l25 81h50l-57 -191q-24 -76 -24 -106q0 -20 13.5 -32t35.5 -12q39 0 75.5 32.5t58.5 85t22 109.5q0 117 -84 189.5t-219 72.5q-78 0 -147 -27t-118.5 -73.5t-78 -111t-28.5 -138.5q0 -73 29 -135t78 -103 t113.5 -63.5t136.5 -22.5q153 0 287 97zM518 430q0 44 -24 70.5t-64 26.5q-37 0 -72 -29t-56.5 -77t-21.5 -100q0 -26 6 -47t17.5 -36t28 -23t37.5 -8q44 0 80 40.5t52.5 90.5t16.5 92z" />
<glyph unicode="A" horiz-adv-x="636" d="M440 719l131 -719h-71l-37 226h-326l-134 -226h-78l440 719h75zM391 660q-19 -43 -90 -161l-131 -217h283l-41 238q-16 95 -21 140z" />
<glyph unicode="B" horiz-adv-x="673" d="M154 719h230q29 0 50.5 -1t49 -4.5t47.5 -10.5t40.5 -19t33 -29t20.5 -42.5t8 -58.5q0 -71 -41.5 -119t-113.5 -60q58 -13 90 -52t32 -98q0 -74 -43 -133t-114 -79q-30 -8 -59 -10.5t-95 -2.5h-287zM208 661l-54 -262h198q33 0 53.5 1t48.5 8t48 20t34.5 32t22 41.5 t7.5 47.5q0 31 -11.5 53t-27 33t-42.5 17t-47 7.5t-51 1.5h-179zM142 345l-61 -286h197q92 0 136 10q52 12 85 54.5t33 98.5q0 20 -4 36t-10 28t-17 21.5t-21 15.5t-25.5 10.5t-27.5 6.5t-30 3.5t-30 1.5h-30h-195z" />
<glyph unicode="C" horiz-adv-x="711" d="M655 247q-32 -125 -118.5 -194.5t-212.5 -69.5q-88 0 -153 36.5t-100 105.5t-36 163q0 86 27 166t76 142.5t124 100t164 37.5q119 0 193.5 -65t74.5 -169v-7h-67q-5 89 -57 135.5t-145 46.5q-59 0 -111 -22t-89.5 -59.5t-65 -86.5t-41 -104t-13.5 -111q0 -117 59 -184 t161 -67q97 0 166 55t95 151h69z" />
<glyph unicode="D" horiz-adv-x="691" d="M154 719h184q82 0 125.5 -7.5t77.5 -27.5q122 -70 122 -254q0 -93 -34 -179.5t-102.5 -152t-158.5 -86.5q-52 -12 -155 -12h-211zM209 661l-126 -602h190q76 0 138 30.5t102 83t61.5 120t21.5 141.5q0 125 -59.5 176t-179.5 51h-148z" />
<glyph unicode="E" horiz-adv-x="579" d="M637 719l-12 -58h-415l-55 -260h387l-12 -59h-387l-60 -283h424l-13 -59h-492l153 719h482z" />
<glyph unicode="F" horiz-adv-x="542" d="M616 719l-12 -58h-393l-55 -261h350l-12 -57h-351l-72 -343h-69l153 719h461z" />
<glyph unicode="G" horiz-adv-x="748" d="M703 366l-76 -366h-46l14 121q-53 -72 -114 -105t-149 -33q-135 0 -212.5 81.5t-77.5 225.5q0 90 28 170.5t78.5 141t126.5 95.5t168 35q123 0 196.5 -62.5t76.5 -170.5h-67q-7 87 -62 131.5t-147 44.5q-76 0 -139.5 -33.5t-104 -88.5t-63 -123.5t-22.5 -140.5 q0 -118 61.5 -184t170.5 -66q64 0 114.5 21.5t84.5 60t55.5 85t33.5 103.5h-248l12 57h308z" />
<glyph unicode="H" horiz-adv-x="711" d="M709 719l-151 -719h-69l74 346h-416l-74 -346h-68l153 719h67l-65 -314h415l66 314h68z" />
<glyph unicode="I" horiz-adv-x="224" d="M225 719l-152 -719h-69l153 719h68z" />
<glyph unicode="J" horiz-adv-x="505" d="M517 719l-103 -489q-1 -3 -2 -10q-8 -35 -12.5 -54t-15.5 -47.5t-24 -49.5q-54 -85 -179 -85q-89 0 -138 43.5t-49 121.5q0 38 9 82h66q-9 -54 -9 -79q0 -54 31 -83t90 -29q34 0 60.5 11t42.5 26t28.5 42t18.5 48.5t13 56.5l105 495h68z" />
<glyph unicode="K" horiz-adv-x="654" d="M700 719l-368 -300l256 -419h-77l-229 378l-161 -129l-52 -249h-68l152 719h67l-82 -385l468 385h94z" />
<glyph unicode="L" horiz-adv-x="542" d="M224 719l-140 -660h395l-13 -59h-463l153 719h68z" />
<glyph unicode="M" horiz-adv-x="860" d="M861 719l-153 -719h-67l88 407q22 99 62 252q-27 -54 -96 -165l-306 -494h-62l-99 503q-11 55 -26 156q-17 -116 -49 -267l-83 -392h-66l154 719h92l94 -495q22 -113 26 -158q56 99 75 131l320 522h96z" />
<glyph unicode="N" horiz-adv-x="711" d="M715 719l-151 -719h-76l-234 509q-35 77 -57 135q-23 -131 -35 -188l-96 -456h-67l154 719h74l231 -502q47 -101 60 -145q8 37 21.5 113t22.5 113l88 421h65z" />
<glyph unicode="O" horiz-adv-x="748" d="M721 433q0 -69 -15.5 -135t-48 -123.5t-78 -100.5t-109.5 -68t-139 -25q-138 0 -217 83t-79 228q0 88 27 167.5t75.5 140.5t123.5 97t165 36q134 0 214.5 -82.5t80.5 -217.5zM421 674q-76 0 -138.5 -33t-100.5 -87.5t-58.5 -122t-20.5 -139.5q0 -117 63 -185t170 -68 q62 0 114 23.5t88.5 62t62.5 89.5t38 106.5t12 111.5q0 110 -61 176t-169 66z" />
<glyph unicode="P" horiz-adv-x="636" d="M152 719h239q81 0 126 -13q34 -10 60 -34.5t40 -59.5t14 -76q0 -63 -30 -116.5t-81 -81.5q-32 -17 -71.5 -23t-116.5 -6h-199l-65 -309h-69zM208 661l-63 -295h186h10q35 0 55 0.5t49.5 8t50.5 21.5q31 20 49.5 57t18.5 79t-20 75t-58 43q-37 11 -115 11h-163z" />
<glyph unicode="Q" horiz-adv-x="748" d="M655 -24l-40 -42l-100 95q-83 -47 -186 -47q-91 0 -158 39.5t-102 109t-35 160.5q0 63 13.5 121.5t38 107t60 88.5t78.5 67.5t94.5 42.5t106.5 15q137 0 216.5 -82t79.5 -224q0 -108 -42.5 -206t-114.5 -158zM426 192l92 -87q64 53 98.5 141t34.5 177q0 115 -61.5 183 t-166.5 68q-49 0 -93.5 -15t-79 -41t-63 -61.5t-46.5 -77t-28 -87.5t-10 -93q0 -78 29.5 -136t83.5 -90t125.5 -32t127.5 32l-83 77z" />
<glyph unicode="R" horiz-adv-x="654" d="M153 719h252q76 0 114 -9q59 -13 93.5 -58.5t34.5 -110.5q0 -81 -50 -136t-131 -64q90 -18 90 -130q0 -24 -4.5 -72.5t-4.5 -72.5q0 -40 12 -66h-71q-9 24 -9 60q0 9 5 64.5t5 83.5q0 31 -7.5 52t-19 32.5t-33.5 17.5t-41.5 7.5t-53.5 1.5h-198l-67 -319h-68zM208 660 l-60 -285h206q35 0 57.5 1t54 9.5t52.5 23.5q29 20 45.5 54t16.5 72q0 52 -31 85q-21 23 -52 31.5t-100 8.5h-189z" />
<glyph unicode="S" horiz-adv-x="636" d="M609 510h-65v12q0 153 -186 153q-88 0 -138.5 -37.5t-50.5 -101.5q0 -14 3.5 -27.5t8.5 -23.5t15.5 -20t17.5 -16.5t22.5 -14t23.5 -11.5t26 -9.5t25 -7.5t26 -7.5t24 -6.5q35 -10 59.5 -18.5t53 -24.5t45.5 -34.5t29 -47t12 -64.5q0 -98 -76 -157.5t-200 -59.5 q-128 0 -199 60t-71 170q0 11 1 21h66v-16q0 -179 205 -179q93 0 150 43.5t57 113.5q0 19 -5 35t-11.5 27t-20.5 21.5t-23 16t-29 13t-29 10t-32 8.5l-18 6q-30 8 -46 13t-43.5 15t-42.5 19t-34.5 24.5t-29.5 32.5t-17.5 40.5t-7.5 51.5q0 91 69 145t186 54q42 0 78.5 -6.5 t68.5 -22t55 -38.5t36 -58t13 -79q0 -8 -1 -17z" />
<glyph unicode="T" d="M641 719l-12 -58h-246l-140 -661h-68l139 661h-252l12 58h567z" />
<glyph unicode="U" horiz-adv-x="711" d="M714 719l-94 -440q-9 -45 -14 -66t-18.5 -56t-30.5 -60q-78 -110 -251 -110q-117 0 -187.5 56t-70.5 150q0 40 15 108l89 418h67l-90 -427q-12 -54 -12 -95q0 -73 49.5 -114.5t136.5 -41.5q95 0 157 46q40 30 59.5 77.5t33.5 119.5l92 435h69z" />
<glyph unicode="V" horiz-adv-x="598" d="M671 719l-413 -719h-80l-112 719h70l72 -492q7 -48 20 -165q12 20 26.5 47.5t29 54.5t26.5 48l287 507h74z" />
<glyph unicode="W" horiz-adv-x="916" d="M981 719l-342 -719h-73l-41 484q-8 94 -11 171q-16 -32 -43.5 -94.5t-40.5 -88.5l-229 -472h-75l-54 719h68l31 -451q7 -115 7 -196q29 74 85 187l224 460h79l35 -424q12 -146 14 -218q45 113 93 214l202 428h71z" />
<glyph unicode="X" horiz-adv-x="579" d="M649 719l-310 -354l187 -365h-73l-159 321l-279 -321h-82l330 375l-176 344h74l147 -302l261 302h80z" />
<glyph unicode="Y" horiz-adv-x="579" d="M683 719l-358 -428l-61 -291h-68l63 298l-191 421h72l161 -367l301 367h81z" />
<glyph unicode="Z" horiz-adv-x="579" d="M627 719l-12 -60l-576 -602q17 0 49.5 1t48.5 1h383l-12 -59h-560l14 62l571 599h-435l13 58h516z" />
<glyph unicode="[" horiz-adv-x="243" d="M331 725l-10 -48h-105l-172 -812h104l-11 -50h-163l194 910h163z" />
<glyph unicode="\" horiz-adv-x="336" d="M410 -12h-55l-417 740h55z" />
<glyph unicode="]" horiz-adv-x="243" d="M235 725l-195 -910h-163l10 50h105l174 811h-104l10 49h163z" />
<glyph unicode="^" horiz-adv-x="606" d="M107 300l170 419h53l169 -419h-58l-139 355l-136 -355h-59z" />
<glyph unicode="_" horiz-adv-x="505" d="M0 -126v50h505v-50h-505z" />
<glyph unicode="`" horiz-adv-x="186" d="M174 599h-51l-107 144h74z" />
<glyph unicode="a" horiz-adv-x="524" d="M63 367q34 165 218 165q86 0 132.5 -32t46.5 -92q0 -25 -15 -89l-37 -166q-13 -66 -13 -76q0 -33 27 -33q10 0 30 4l-9 -48q-26 -7 -46 -7q-29 0 -44.5 15.5t-15.5 45.5q0 9 4 27q-67 -96 -188 -96q-75 0 -117.5 38t-42.5 104q0 30 8.5 54.5t22 41t35 29.5t41.5 20 t48.5 12.5t49 8t48.5 4.5q3 0 18 0.5t22 1.5t21.5 2t23.5 3.5t20 5.5t18.5 8t12.5 11q7 10 12.5 32.5t5.5 43.5q0 74 -117 74q-68 0 -106.5 -27t-53.5 -85h-60zM378 281q-9 -9 -21.5 -14.5t-31.5 -9t-30 -5t-34 -2.5t-26 -2q-17 -1 -29.5 -2t-30 -3.5t-30.5 -6.5t-28 -10 t-25.5 -14.5t-19.5 -20t-13 -26.5t-4 -34q0 -45 31 -71t85 -26q68 0 120 46q30 26 45 56.5t31 97.5z" />
<glyph unicode="b" horiz-adv-x="579" d="M211 719l-62 -292q70 107 186 107q92 0 142.5 -61t50.5 -156q0 -59 -18.5 -117.5t-51.5 -106.5t-85.5 -78t-114.5 -30q-71 0 -118 35t-62 99l-23 -119h-59l153 719h62zM323 483q-89 0 -147 -74q-32 -39 -51.5 -98.5t-19.5 -115.5q0 -73 39.5 -116.5t105.5 -43.5 q51 0 93.5 26.5t68.5 68.5t40.5 90.5t14.5 95.5q0 73 -37 120t-107 47z" />
<glyph unicode="c" horiz-adv-x="524" d="M465 168q-61 -183 -241 -183q-97 0 -150.5 57t-53.5 160q0 63 19.5 122.5t55.5 106.5t91 75t121 28q57 0 99.5 -20.5t65.5 -59t23 -89.5v-6h-63v1q0 56 -34.5 89t-94.5 33q-53 0 -96 -25t-69.5 -65.5t-40.5 -88.5t-14 -98q0 -80 37.5 -123.5t107.5 -43.5q40 0 73 15 t58.5 44.5t40.5 70.5h65z" />
<glyph unicode="d" horiz-adv-x="579" d="M592 719l-152 -719h-58l10 45q9 41 14 60q-30 -58 -79.5 -89t-114.5 -31q-93 0 -144.5 54t-51.5 153q0 62 19.5 122.5t54 110t89.5 79.5t121 30q68 0 112 -31.5t56 -88.5q4 25 11 56l51 249h62zM315 481h-12q-54 0 -98 -26.5t-71 -69t-41 -92.5t-14 -101q0 -74 38 -115.5 t105 -41.5q53 0 97 29t70 74.5t40 97t14 100.5q0 43 -15.5 75.5t-44.5 51t-68 18.5z" />
<glyph unicode="e" horiz-adv-x="524" d="M459 167q-27 -88 -86.5 -136t-151.5 -48q-98 0 -153.5 58.5t-55.5 163.5q0 140 79.5 234t196.5 94q93 0 146 -56.5t53 -155.5q0 -32 -6 -76h-403q-4 -24 -4 -42q0 -79 40 -123.5t110 -44.5q61 0 105 34.5t65 97.5h65zM86 297h338q2 14 2 29q0 49 -16.5 84t-49 53.5 t-76.5 18.5q-73 0 -125.5 -49.5t-72.5 -135.5z" />
<glyph unicode="f" horiz-adv-x="261" d="M302 519l-11 -52h-104l-100 -467h-63l100 467h-89l11 52h89l9 38q1 2 2 7q7 27 10.5 39.5t10.5 33.5t14 31t18.5 23.5t25.5 19.5t33.5 10.5t44.5 4.5q28 0 56 -7l-11 -53q-22 5 -41 5q-21 0 -36.5 -5.5t-24.5 -12.5t-16.5 -23t-10.5 -26.5t-9 -33.5q-2 -9 -3 -13l-9 -38 h104z" />
<glyph unicode="g" d="M538 519l-96 -451q-11 -54 -22 -90.5t-31.5 -73.5t-47.5 -59t-68.5 -36t-96.5 -14q-37 0 -71 8.5t-62.5 26t-45.5 47.5t-17 69v11h63q0 -37 16 -62t46.5 -38t75.5 -13q40 0 71 11t50.5 27t34.5 45t23 54t18 65l14 58q-28 -46 -74 -71.5t-103 -25.5q-87 0 -140.5 57 t-53.5 151q0 133 74.5 223t184.5 90q48 0 85.5 -14.5t60.5 -42.5t31 -67l23 115h58zM287 481q-48 0 -87.5 -24.5t-64 -63.5t-37.5 -84.5t-13 -90.5q0 -74 38.5 -116.5t104.5 -42.5q50 0 90 25.5t63.5 67t36 88t12.5 92.5q0 68 -38.5 108.5t-104.5 40.5z" />
<glyph unicode="h" horiz-adv-x="542" d="M209 719l-65 -296q80 109 197 109q69 0 110.5 -36t41.5 -96q0 -37 -13 -95l-66 -305h-64l65 302q12 56 12 87q0 42 -28 65.5t-77 23.5q-46 0 -88 -22.5t-71 -63.5q-32 -44 -49 -121l-57 -271h-62l151 719h63z" />
<glyph unicode="i" horiz-adv-x="186" d="M161 519l-111 -519h-62l110 519h63zM204 722l-22 -104h-63l21 104h64z" />
<glyph unicode="j" horiz-adv-x="186" d="M161 519l-112 -529q-1 -6 -3 -19q-6 -28 -9 -41.5t-9.5 -36t-12.5 -33t-16 -24t-22.5 -20t-29.5 -11t-39 -4.5q-25 0 -47 4l11 54q19 -4 32 -4q34 0 50 19q8 11 14 32.5t21 93.5l109 519h63zM203 722l-21 -104h-64l22 104h63z" />
<glyph unicode="k" horiz-adv-x="467" d="M208 719l-97 -453l312 253h85l-248 -199l159 -320h-71l-137 281l-116 -92l-39 -189h-61l152 719h61z" />
<glyph unicode="l" horiz-adv-x="186" d="M203 719l-153 -719h-62l152 719h63z" />
<glyph unicode="m" horiz-adv-x="841" d="M166 519l-22 -95q37 53 85 81t101 28q57 0 91 -29.5t38 -82.5q73 110 185 110q41 0 73 -15t50.5 -41.5t18.5 -60.5q0 -36 -14 -101l-66 -313h-64l67 314q11 53 11 82q0 37 -25.5 59t-69.5 22q-68 0 -121 -58q-25 -26 -38.5 -56.5t-25.5 -88.5l-57 -274h-64l66 311 q13 62 13 87q0 24 -10.5 42t-30.5 28t-46 10q-68 0 -123 -57q-28 -28 -43.5 -60t-27.5 -87l-58 -274h-63l110 519h60z" />
<glyph unicode="n" horiz-adv-x="542" d="M158 519l-21 -97q79 110 197 110q68 0 110 -36t42 -94q0 -28 -14 -97l-65 -305h-64l66 311q11 48 11 81q0 39 -28 62.5t-76 23.5q-84 0 -143 -67q-19 -20 -31.5 -45t-19.5 -47t-14 -53l-56 -266h-63l110 519h59z" />
<glyph unicode="o" d="M510 325q0 -63 -18.5 -123t-52.5 -109t-89 -79t-122 -30q-101 0 -157 57.5t-56 162.5q0 142 81.5 236t204.5 94q98 0 153.5 -55t55.5 -154zM296 482q-93 0 -155.5 -80t-62.5 -197q0 -79 40.5 -124t112.5 -45q52 0 94.5 27t68 70t39 92.5t13.5 97.5q0 73 -39 116t-111 43z " />
<glyph unicode="p" horiz-adv-x="579" d="M163 519l-21 -98q32 55 82 84t112 29q88 0 139.5 -58.5t51.5 -159.5q0 -59 -17.5 -117t-50 -106.5t-85 -78t-114.5 -29.5q-73 0 -121 36t-57 97l-66 -312h-61l150 713h58zM318 483q-52 0 -94.5 -28t-67.5 -72t-38.5 -94t-13.5 -98q0 -71 40 -113.5t108 -42.5q51 0 93 27 t67.5 69t39.5 90.5t14 95.5q0 49 -15.5 85.5t-49.5 58.5t-83 22z" />
<glyph unicode="q" horiz-adv-x="579" d="M556 519l-151 -713h-62l64 292q-69 -113 -194 -113q-89 0 -140 55t-51 152q0 48 12 97t36.5 93t57.5 78t79 54t98 20q70 0 114.5 -32.5t56.5 -90.5l22 108h58zM307 482q-54 0 -97.5 -26.5t-69.5 -69t-40 -92.5t-14 -101q0 -74 37 -115.5t104 -41.5q54 0 98 29t70 74 t40 96.5t14 101.5q0 66 -38.5 105.5t-103.5 39.5z" />
<glyph unicode="r" horiz-adv-x="318" d="M361 526l-15 -65q-24 2 -26 2q-62 0 -107 -33q-47 -35 -70 -85t-39 -123l-48 -222h-63l111 519h59l-28 -121q73 130 193 130q18 0 33 -2z" />
<glyph unicode="s" horiz-adv-x="485" d="M437 368h-61v7q0 105 -129 105q-28 0 -51 -6t-39 -17.5t-25 -27.5t-9 -35q0 -16 7.5 -29t16 -22t26.5 -18.5t29 -13.5l33 -12t30 -11q71 -27 105 -58t34 -88q0 -40 -18.5 -71.5t-48.5 -49.5t-65.5 -27t-73.5 -9q-94 0 -147.5 44t-53.5 121q0 10 1 19h61v-14q0 -57 37 -88 t106 -31q61 0 99.5 27.5t38.5 71.5q0 11 -2 20t-7.5 17.5t-10.5 14.5t-16 13t-17 11t-21.5 11t-22.5 10t-26 10.5t-26 9.5q-30 13 -48.5 22.5t-39 25.5t-30.5 38t-10 51q0 65 52.5 104.5t139.5 39.5q57 0 98 -18t62.5 -52.5t21.5 -82.5v-12z" />
<glyph unicode="t" horiz-adv-x="298" d="M304 519l-11 -52h-105l-68 -314q-10 -45 -10 -64q0 -39 56 -39q20 0 52 7l-11 -56q-32 -5 -61 -5q-101 0 -101 79q0 21 13 78l66 314h-93l12 52h92l35 158h62l-33 -158h105z" />
<glyph unicode="u" horiz-adv-x="542" d="M510 519l-110 -519h-59l22 97q-69 -111 -187 -111q-70 0 -112.5 36.5t-42.5 96.5q0 30 13 93l65 307h64l-67 -315q-10 -47 -10 -76q0 -41 29.5 -65.5t79.5 -24.5q42 0 77 19t58 51t37.5 67.5t23.5 75.5l56 268h63z" />
<glyph unicode="v" horiz-adv-x="467" d="M477 519l-291 -519h-69l-83 519h66l49 -328q8 -57 14 -131q17 44 58 118l188 341h68z" />
<glyph unicode="w" horiz-adv-x="748" d="M753 519l-270 -519h-69l-31 342q-3 32 -7 101q-13 -29 -42 -87l-173 -356h-70l-61 519h66l26 -253q15 -141 15 -199q10 24 46 99l169 353h74l30 -312q8 -87 9 -137q14 40 45 101l177 348h66z" />
<glyph unicode="x" horiz-adv-x="467" d="M489 519l-227 -250l138 -269h-72l-111 228l-200 -228h-77l250 274l-123 245h71l96 -206l179 206h76z" />
<glyph unicode="y" horiz-adv-x="467" d="M496 519l-305 -539q-16 -28 -22.5 -40t-21.5 -36t-24.5 -34.5t-25 -26.5t-29.5 -23t-32.5 -12.5t-38.5 -5.5q-23 0 -53 6l12 54q25 -5 43 -5q32 0 54.5 18.5t43.5 52.5l44 72l-97 519h67l75 -441l241 441h69z" />
<glyph unicode="z" horiz-adv-x="430" d="M446 519l-10 -47l-410 -423q22 4 115 4h225l-11 -53h-414l11 50l405 417h-313l13 52h389z" />
<glyph unicode="{" horiz-adv-x="336" d="M-14 256l8 36q56 0 98 23q14 8 25 18.5t17.5 20t12.5 25t8.5 25t7.5 29.5l29 120q10 42 20 67t31.5 49t55.5 39q50 22 115 22l-7 -35q-51 0 -95 -27q-12 -8 -22.5 -18t-18 -24t-13 -24.5t-11 -30t-7.5 -28t-7 -30.5t-6 -27l-14 -63q-16 -73 -48 -109t-104 -44 q42 -12 67.5 -39t25.5 -67q0 -19 -6 -48l-21 -112q-7 -37 -7 -65q0 -47 41 -70q22 -13 67 -17l-8 -35h-7q-58 0 -100.5 33.5t-42.5 90.5q0 27 6 62l21 112q6 33 6 54q0 27 -20.5 48t-49.5 30q-19 6 -47 9z" />
<glyph unicode="|" horiz-adv-x="224" d="M85 -216v1010h54v-1010h-54z" />
<glyph unicode="}" horiz-adv-x="336" d="M324 292l-8 -36q-54 0 -99 -25q-17 -9 -29 -21t-20 -30t-11 -29t-10 -37l-29 -120q-15 -62 -36.5 -97.5t-70.5 -57.5q-50 -22 -115 -22l7 36q51 0 95 27q12 7 22.5 17t18 24.5t13 25t11 29.5t7.5 28t7 30.5t6 27.5l14 62q16 74 48 109.5t104 44.5q-27 8 -47 21.5 t-32.5 35.5t-12.5 49q0 19 5 47l21 112q7 37 7 65q0 47 -41 71q-22 12 -67 17l7 34h8q58 0 100 -33t42 -91q0 -27 -6 -62l-20 -112q-6 -33 -6 -53q0 -27 20.5 -48.5t49.5 -30.5q19 -5 47 -8z" />
<glyph unicode="~" horiz-adv-x="606" d="M547 323q-5 -55 -35 -92.5t-84 -37.5q-40 0 -137 33q-10 4 -34.5 12.5t-41 14t-37.5 10.5t-36 5q-31 0 -54 -23.5t-28 -60.5h-40q5 28 13 49.5t21.5 41.5t35.5 30.5t52 10.5q10 0 21 -1t24 -4t22.5 -5.5t25 -7.5t22 -7.5t23 -8l19.5 -6.5q4 -2 28.5 -11t36 -12.5t30.5 -8 t33 -4.5q35 0 55.5 23.5t28.5 59.5h36z" />
<glyph unicode="&#xa3;" d="M338 365l-8 -35h-143q9 -38 9 -71t-8.5 -60t-28 -52.5t-34.5 -40.5t-46 -42q-7 -6 -10 -9q53 24 102 24q31 0 90 -18q58 -18 87 -18q18 0 32 3t26.5 9.5t19.5 11.5t20 15.5t21 15.5l25 -51q-74 -63 -152 -63q-9 0 -19.5 1.5t-18.5 3t-20.5 5t-18 5t-19.5 6.5t-18 6 q-56 18 -87 18q-27 0 -52 -9t-67 -34l-23 54q76 61 107.5 110t31.5 106q0 32 -12 74h-88l7 35h71q-26 74 -26 136q0 94 67 155t170 61q99 0 159 -56.5t60 -150.5q0 -13 -1 -24h-61v16q0 77 -40 118t-117 41q-30 0 -57 -8t-48 -22.5t-36.5 -34.5t-23.5 -45.5t-8 -54.5 q0 -66 26 -131h160z" />
<glyph unicode="&#xa4;" d="M52 164l63 63q-46 62 -46 133t45 131l-64 65l35 34l63 -65q58 46 133 46q70 0 132 -45l64 63l34 -35l-64 -63q46 -65 46 -132q0 -70 -47 -131l65 -65l-34 -35l-65 66q-57 -48 -131 -48q-71 0 -132 47l-63 -64zM281 518q-33 0 -62.5 -12.5t-50.5 -34t-34 -51t-13 -61.5 q0 -66 47 -113t113 -47t112.5 47t46.5 113t-46.5 112.5t-112.5 46.5z" />
<glyph unicode="&#xa6;" horiz-adv-x="224" d="M85 -90v253h54v-253h-54zM85 415v253h54v-253h-54z" />
<glyph unicode="&#xa7;" d="M510 543h-61q1 8 1 17q0 50 -30 79.5t-83 29.5q-47 0 -77 -26t-30 -66q0 -14 3 -26.5t10.5 -25t15 -23t23.5 -26.5t29 -28.5t36.5 -35.5t42.5 -41q24 -24 36 -37t29 -35.5t24.5 -45t7.5 -48.5q0 -40 -18 -73t-50.5 -54t-76.5 -28q33 -38 33 -88q0 -32 -13.5 -59.5 t-37 -46.5t-56.5 -30.5t-70 -11.5q-83 0 -133 45.5t-50 120.5q0 3 0.5 9t0.5 11h61q-1 -8 -1 -17q0 -52 34.5 -84t91.5 -32q46 0 77 26t31 64q0 19 -7 38t-25 41.5t-32 38t-44 45.5l-9 9q-8 9 -25.5 25.5t-28.5 27.5t-26 28t-25 31.5t-19 31.5t-14 35t-5 36q0 58 39.5 100.5 t101.5 51.5q-25 41 -25 81q0 63 48 103.5t123 40.5q80 0 127 -42.5t47 -113.5q0 -11 -1 -22zM315 90q46 5 76 34t30 74q0 30 -18 61t-59 71l-128 126q-41 -4 -73 -33t-32 -74q0 -52 77 -129z" />
<glyph unicode="&#xa9;" horiz-adv-x="808" d="M404 727q100 0 185.5 -49.5t135.5 -135t50 -185.5q0 -101 -50 -186t-135.5 -134.5t-185.5 -49.5q-101 0 -186.5 49.5t-135 134.5t-49.5 186q0 100 49.5 185.5t135 135t186.5 49.5zM404 692q-91 0 -168 -45t-122 -122t-45 -167q0 -92 45 -169t122 -122t168 -45 q68 0 130 26.5t107 71.5t71.5 107t26.5 130q0 90 -45 167.5t-122 122.5t-168 45zM583 281q-9 -60 -56 -99t-112 -39q-86 0 -143.5 62t-57.5 155t55 154.5t138 61.5q46 0 84 -19t61.5 -52t27.5 -75h-45q-9 48 -42.5 76t-82.5 28q-31 0 -57.5 -12.5t-45 -35t-29 -54.5 t-10.5 -69q0 -78 41.5 -128t106.5 -50q46 0 79 26t43 70h45z" />
<glyph unicode="&#xab;" horiz-adv-x="430" d="M215 425l-15 -68l-117 -85l78 -104l-15 -63l-106 141l16 65zM377 426l-15 -70l-118 -84l77 -103l-13 -63l-106 140l15 65z" />
<glyph unicode="&#xac;" horiz-adv-x="606" d="M25 323v49h502v-234h-50v185h-452z" />
<glyph unicode="&#xad;" horiz-adv-x="373" d="M305 307l-13 -60h-254l12 60h255z" />
<glyph unicode="&#xae;" horiz-adv-x="404" d="M243 730q77 0 131 -54t54 -131t-54 -131t-131 -54q-75 0 -129 54t-54 131t54 131t129 54zM243 703q-64 0 -110 -46.5t-46 -112.5q0 -64 46 -110.5t110 -46.5q65 0 111.5 46.5t46.5 110.5q0 66 -46.5 112.5t-111.5 46.5zM173 639h69q85 0 85 -54q0 -33 -34 -45 q17 -8 24 -21.5t7 -36.5q0 -16 6 -29h-33q-3 10 -3.5 21t-1.5 15q-4 27 -15.5 32.5t-44.5 5.5h-28v-74h-31v186zM204 553h36q56 0 56 32q0 10 -4.5 16t-14.5 8.5t-16.5 3t-17.5 0.5h-4h-35v-60z" />
<glyph unicode="&#xb0;" horiz-adv-x="404" d="M244.5 719q62.5 0 106 -43.5t43.5 -105.5t-43.5 -106t-106 -44t-106 44t-43.5 106t43.5 105.5t106 43.5zM244.5 671q-41.5 0 -71.5 -30t-30 -71q0 -43 30 -72t71.5 -29t71 29t29.5 72q0 41 -29.5 71t-71 30z" />
<glyph unicode="&#xb1;" horiz-adv-x="606" d="M252 87v180h-224v48h224v179h54v-179h224v-48h-224v-180h-54zM28 -8v48h502v-48h-502z" />
<glyph unicode="&#xb5;" horiz-adv-x="542" d="M103 519h64l-62 -292q-14 -70 -14 -93q0 -46 27.5 -71t78.5 -25q34 0 63.5 12.5t51 33t38.5 48.5t27.5 57.5t17.5 60.5l57 269h63l-111 -519h-60l23 97q-35 -54 -77.5 -82.5t-102.5 -28.5q-45 0 -73.5 17t-47.5 56l-53 -253h-63z" />
<glyph unicode="&#xb6;" horiz-adv-x="606" d="M613 674h-54l-180 -849h-55l181 849h-127l-181 -849h-55l94 441q-79 6 -122.5 51.5t-43.5 122.5q0 87 44 151.5t114 96t154 31.5h240z" />
<glyph unicode="&#xb7;" horiz-adv-x="280" d="M193 350l-23 -104h-84l23 104h84z" />
<glyph unicode="&#xbb;" horiz-adv-x="430" d="M88 425l106 -139l-15 -65l-160 -115l15 71l116 84l-75 103zM248 426l108 -140l-16 -65l-159 -114l15 69l117 85l-77 103z" />
<glyph unicode="&#xf7;" horiz-adv-x="606" d="M26 218v50h502v-50h-502zM241 13v101h71v-101h-71zM241 372v101h71v-101h-71z" />
<glyph unicode="&#x192;" d="M439 441l-14 -50h-117l-102 -376q-1 -2 -2 -7l-12 -42t-12.5 -37.5t-16.5 -35.5t-21 -27.5t-28 -23t-36.5 -13t-47.5 -5.5q-19 0 -50 4l14 54q16 -3 34 -3q23 0 40 7.5t27.5 17.5t19.5 30t13 33t11 38q2 9 3 13l102 373h-102l14 50h102l31 116q8 31 16 52t21.5 42.5 t30.5 34t42.5 20.5t58.5 8q26 0 61 -5l-14 -54q-27 5 -43 5q-48 0 -71 -24.5t-42 -94.5l-27 -100h117z" />
<glyph unicode="&#x401;" horiz-adv-x="579" d="M637 719l-12 -58h-415l-55 -260h387l-12 -59h-387l-60 -283h424l-13 -59h-492l153 719h482zM367 889l-22 -102h-64l21 102h65zM532 889l-20 -102h-66l22 102h64z" />
<glyph unicode="&#x402;" horiz-adv-x="729" d="M336 -125l13 59q84 6 142.5 50.5t84.5 109.5t26 144q0 66 -34 104.5t-97 38.5q-87 0 -145 -54.5t-80 -157.5l-35 -169h-69l141 661h-231l12 58h571l-12 -58h-272l-69 -327h3q35 51 88 77.5t113 26.5q57 0 100 -26t65 -71.5t22 -104.5q0 -69 -23.5 -134t-65.5 -115.5 t-106.5 -81t-141.5 -30.5z" />
<glyph unicode="&#x403;" horiz-adv-x="524" d="M73 0h-68l153 719h445l-12 -58h-378zM533 914l-147 -144h-54l117 144h84z" />
<glyph unicode="&#x404;" horiz-adv-x="711" d="M511 401l-13 -58h-390q-3 -25 -3 -51q0 -117 59 -184t161 -67q97 0 166 55t95 151h69q-32 -125 -118.5 -194.5t-212.5 -69.5q-88 0 -153 36.5t-100 105.5t-36 163q0 86 27 166t76 142.5t124 100t164 37.5q117 0 191.5 -63t76.5 -165h-68q-8 82 -59.5 125.5t-141.5 43.5 q-116 0 -197 -78.5t-110 -195.5h393z" />
<glyph unicode="&#x405;" horiz-adv-x="636" d="M609 510h-65v12q0 153 -186 153q-88 0 -138.5 -37.5t-50.5 -101.5q0 -14 3.5 -27.5t8.5 -23.5t15.5 -20t17.5 -16.5t22.5 -14t23.5 -11.5t26 -9.5t25 -7.5t26 -7.5t24 -6.5q35 -10 59.5 -18.5t53 -24.5t45.5 -34.5t29 -47t12 -64.5q0 -98 -76 -157.5t-200 -59.5 q-128 0 -199 60t-71 170q0 11 1 21h66v-16q0 -179 205 -179q93 0 150 43.5t57 113.5q0 19 -5 35t-11.5 27t-20.5 21.5t-23 16t-29 13t-29 10t-32 8.5l-18 6q-30 8 -46 13t-43.5 15t-42.5 19t-34.5 24.5t-29.5 32.5t-17.5 40.5t-7.5 51.5q0 91 69 145t186 54q42 0 78.5 -6.5 t68.5 -22t55 -38.5t36 -58t13 -79q0 -8 -1 -17z" />
<glyph unicode="&#x406;" horiz-adv-x="224" d="M225 719l-152 -719h-69l153 719h68z" />
<glyph unicode="&#x407;" horiz-adv-x="224" d="M225 719l-152 -719h-69l153 719h68zM169 889l-22 -102h-64l21 102h65zM334 889l-20 -102h-66l22 102h64z" />
<glyph unicode="&#x408;" horiz-adv-x="505" d="M517 719l-103 -489q-1 -3 -2 -10q-8 -35 -12.5 -54t-15.5 -47.5t-24 -49.5q-54 -85 -179 -85q-89 0 -138 43.5t-49 121.5q0 38 9 82h66q-9 -54 -9 -79q0 -54 31 -83t90 -29q34 0 60.5 11t42.5 26t28.5 42t18.5 48.5t13 56.5l105 495h68z" />
<glyph unicode="&#x409;" horiz-adv-x="1010" d="M960 229q0 -63 -31 -117.5t-82 -82.5q-32 -17 -71 -23t-117 -6h-233l141 661h-253l-104 -424q-14 -58 -30.5 -101t-40 -78.5t-56.5 -54t-74 -18.5q-44 0 -74 13l12 57q23 -12 66 -12q42 0 75.5 52t65.5 183l108 441h385l-64 -305h134q81 0 126 -13q53 -15 85 -62t32 -110 zM892 225q0 42 -20 75.5t-58 43.5q-40 12 -115 12h-128l-63 -297h152q42 0 59.5 0.5t50 7.5t54.5 22q31 20 49.5 57.5t18.5 78.5z" />
<glyph unicode="&#x40a;" horiz-adv-x="1010" d="M500 356h-351l-76 -356h-68l153 719h67l-63 -305h350l65 305h67l-64 -305h140q81 0 126 -13q26 -8 48 -24t37 -38t23.5 -50.5t8.5 -59.5q0 -63 -31 -117.5t-82 -82.5q-32 -17 -71 -23t-117 -6h-239zM895 225q0 42 -20 75.5t-58 43.5q-40 12 -115 12h-134l-63 -297h158h9 q27 0 41.5 0.5t37.5 3t41.5 9t34.5 17.5q31 20 49.5 57t18.5 79z" />
<glyph unicode="&#x40b;" horiz-adv-x="729" d="M471 438q55 0 94.5 -12.5t60.5 -34.5t30.5 -46t9.5 -53q0 -34 -8 -71l-48 -221h-69l49 227q7 38 7 56q0 41 -28 68.5t-98 27.5q-40 0 -93.5 -14.5t-88.5 -32.5l-71 -332h-69l141 661h-231l12 58h571l-12 -58h-271l-57 -266q21 10 52.5 20t63.5 16.5t53 6.5z" />
<glyph unicode="&#x40c;" horiz-adv-x="654" d="M700 719l-368 -300l256 -419h-77l-229 378l-161 -129l-52 -249h-68l152 719h67l-82 -385l468 385h94zM543 914l-147 -144h-54l118 144h83z" />
<glyph unicode="&#x40e;" horiz-adv-x="598" d="M219 167l-155 552h72l133 -480l331 480h79l-413 -598q-26 -36 -49 -61t-42 -40t-40 -23t-38.5 -10t-40.5 -2q-35 0 -71 18l12 59q27 -19 78 -19q34 0 64 27t63 72zM249 895h40v-10q0 -23 10 -39.5t29.5 -25t47.5 -8.5q43 0 75.5 21.5t48.5 61.5h39q-19 -64 -61 -97.5 t-103 -33.5q-60 0 -93.5 29.5t-33.5 84.5q0 2 0.5 5t0.5 6v6z" />
<glyph unicode="&#x40f;" horiz-adv-x="711" d="M316 0l-41 -194h-69l41 194h-242l153 719h68l-140 -660h416l140 660h69l-152 -719h-243z" />
<glyph unicode="&#x410;" horiz-adv-x="636" d="M571 0h-71l-37 226h-326l-134 -226h-78l440 719h75zM453 282l-41 238q-16 95 -21 140q-19 -43 -90 -161l-131 -217h283z" />
<glyph unicode="&#x411;" horiz-adv-x="673" d="M643 719l-12 -58h-417l-51 -247h204q80 0 127 -13q52 -15 83.5 -62t31.5 -110t-30.5 -117.5t-81.5 -82.5q-33 -17 -72.5 -23t-116.5 -6h-303l153 719h485zM541 225q0 42 -19.5 75.5t-57.5 43.5q-41 12 -116 12h-199l-62 -297h222q43 0 60.5 0.5t50 7.5t54.5 22 q20 13 35.5 34.5t23.5 48t8 53.5z" />
<glyph unicode="&#x412;" horiz-adv-x="673" d="M633 554q0 -71 -41.5 -119t-113.5 -60q58 -13 90 -52t32 -98q0 -74 -43 -133t-114 -79q-30 -8 -59 -10.5t-95 -2.5h-287l152 719h230q29 0 50.5 -1t49 -4.5t47.5 -10.5t40.5 -19t33 -29t20.5 -42.5t8 -58.5zM566 549q0 31 -11.5 53t-27 33t-42.5 17t-47 7.5t-51 1.5h-179 l-54 -262h198q33 0 53.5 1t48.5 8t48 20t34.5 32t22 41.5t7.5 47.5zM532 222q0 20 -4 36t-10 28t-17 21.5t-21 15.5t-25.5 10.5t-27.5 6.5t-30 3.5t-30 1.5h-30h-195l-61 -286h197q92 0 136 10q52 12 85 54.5t33 98.5z" />
<glyph unicode="&#x413;" horiz-adv-x="524" d="M603 719l-12 -58h-378l-140 -661h-68l153 719h445z" />
<glyph unicode="&#x414;" horiz-adv-x="711" d="M706 719l-140 -660h75l-53 -253h-69l42 194h-558l-41 -194h-69l53 253h64q43 57 78.5 124t57.5 120.5t43.5 126.5t31 112.5t24.5 109.5q4 17 5 26l10 41h446zM625 661h-308l-3 -14q-2 -7 -12.5 -54.5t-14.5 -62.5t-16 -61t-20 -69t-22 -66t-27.5 -72t-31.5 -66.5t-39 -71 t-45 -65.5h411z" />
<glyph unicode="&#x415;" horiz-adv-x="579" d="M637 719l-12 -58h-415l-55 -260h387l-12 -59h-387l-60 -283h424l-13 -59h-492l153 719h482z" />
<glyph unicode="&#x416;" horiz-adv-x="999" d="M1052 719l-353 -310l236 -409h-82l-208 362l-122 -107l-54 -255h-69l54 255l-76 106l-357 -361h-95l415 412l-220 307h87l265 -381l79 381h69l-79 -374l412 374h98z" />
<glyph unicode="&#x417;" horiz-adv-x="636" d="M602 562q0 -65 -39.5 -113t-100.5 -71v-2q105 -29 105 -142q0 -77 -42 -134.5t-107 -85t-142 -27.5q-134 0 -202 59.5t-68 170.5q0 11 1 21h66v-16q0 -179 205 -179q54 0 103.5 22t83 65.5t33.5 98.5q0 54 -40.5 85t-105.5 31h-115l12 56h112q69 0 120 44.5t51 113.5 q0 59 -44 89.5t-119 30.5q-76 0 -132.5 -45t-71.5 -105h-68q22 100 99.5 153.5t176.5 53.5q98 0 163.5 -46.5t65.5 -127.5z" />
<glyph unicode="&#x418;" horiz-adv-x="711" d="M710 719l-152 -719h-69l137 645l-526 -645h-95l153 719h68l-136 -645l525 645h95z" />
<glyph unicode="&#x419;" horiz-adv-x="711" d="M592 895q-19 -64 -61 -97.5t-104 -33.5q-59 0 -92.5 29.5t-33.5 84.5v5t0.5 6t0.5 6h39v-10q0 -35 23 -54t64 -19q29 0 53.5 9.5t42.5 28.5t28 45h40zM710 719l-152 -719h-69l137 645l-526 -645h-95l153 719h68l-136 -645l525 645h95z" />
<glyph unicode="&#x41a;" horiz-adv-x="654" d="M700 719l-368 -300l256 -419h-77l-229 378l-161 -129l-52 -249h-68l152 719h67l-82 -385l468 385h94z" />
<glyph unicode="&#x41b;" horiz-adv-x="673" d="M674 719l-153 -719h-69l141 661h-279l-104 -424q-14 -58 -30.5 -101t-40 -78.5t-56.5 -54t-74 -18.5q-39 0 -74 13l12 57q23 -12 66 -12q42 0 75.5 52t65.5 183l108 441h412z" />
<glyph unicode="&#x41c;" horiz-adv-x="860" d="M861 719l-153 -719h-67l88 407q22 99 62 252q-27 -54 -96 -165l-306 -494h-62l-99 503q-11 55 -26 156q-17 -116 -49 -267l-83 -392h-66l154 719h92l94 -495q22 -113 26 -158q56 99 75 131l320 522h96z" />
<glyph unicode="&#x41d;" horiz-adv-x="711" d="M709 719l-151 -719h-69l74 346h-416l-74 -346h-68l153 719h67l-65 -314h415l66 314h68z" />
<glyph unicode="&#x41e;" horiz-adv-x="748" d="M721 433q0 -69 -15.5 -135t-48 -123.5t-78 -100.5t-109.5 -68t-139 -25q-138 0 -217 83t-79 228q0 88 27 167.5t75.5 140.5t123.5 97t165 36q134 0 214.5 -82.5t80.5 -217.5zM651 432q0 110 -61 176t-169 66q-76 0 -138.5 -33t-100.5 -87.5t-58.5 -122t-20.5 -139.5 q0 -117 63 -185t170 -68q62 0 114 23.5t88.5 62t62.5 89.5t38 106.5t12 111.5z" />
<glyph unicode="&#x41f;" horiz-adv-x="711" d="M709 719l-151 -719h-69l140 661h-415l-141 -661h-68l153 719h551z" />
<glyph unicode="&#x420;" horiz-adv-x="636" d="M631 536q0 -63 -30 -116.5t-81 -81.5q-32 -17 -71.5 -23t-116.5 -6h-199l-65 -309h-69l153 719h239q81 0 126 -13q34 -10 60 -34.5t40 -59.5t14 -76zM564 532q0 42 -20 75t-58 43q-37 11 -115 11h-163l-63 -295h186h10q35 0 55 0.5t49.5 8t50.5 21.5q31 20 49.5 57 t18.5 79z" />
<glyph unicode="&#x421;" horiz-adv-x="711" d="M694 493h-67q-5 89 -57 135.5t-145 46.5q-59 0 -111 -22t-89.5 -59.5t-65 -86.5t-41 -104t-13.5 -111q0 -117 59 -184t161 -67q97 0 166 55t95 151h69q-32 -125 -118.5 -194.5t-212.5 -69.5q-88 0 -153 36.5t-100 105.5t-36 163q0 86 27 166t76 142.5t124 100t164 37.5 q119 0 193.5 -65t74.5 -169v-7z" />
<glyph unicode="&#x422;" d="M641 719l-12 -58h-246l-140 -661h-68l139 661h-252l12 58h567z" />
<glyph unicode="&#x423;" horiz-adv-x="598" d="M679 719l-413 -598q-26 -36 -49 -61t-42 -40t-40 -23t-38.5 -10t-40.5 -2q-35 0 -71 18l12 59q27 -19 78 -19q34 0 64 27t63 72l17 25l-155 552h72l133 -480l331 480h79z" />
<glyph unicode="&#x424;" horiz-adv-x="757" d="M731 404q0 -49 -13.5 -93t-37.5 -78.5t-57.5 -62t-73 -46t-84.5 -28t-92 -9.5h-17l-20 -87h-68l19 87q-114 5 -186.5 66.5t-72.5 169.5q0 97 50.5 170.5t131.5 110t177 36.5h17l17 79h69l-17 -79q114 -4 186 -66t72 -170zM664 404q0 82 -55 126t-148 52l-93 -438 q83 2 149 31t106.5 88.5t40.5 140.5zM392 583q-83 -2 -149 -31t-106.5 -88.5t-40.5 -140.5q0 -82 54.5 -126t148.5 -52z" />
<glyph unicode="&#x425;" horiz-adv-x="579" d="M649 719l-310 -354l187 -365h-73l-159 321l-279 -321h-82l330 375l-176 344h74l147 -302l261 302h80z" />
<glyph unicode="&#x426;" horiz-adv-x="729" d="M723 719l-140 -660h76l-54 -253h-69l42 194h-573l153 719h68l-140 -660h428l140 660h69z" />
<glyph unicode="&#x427;" horiz-adv-x="646" d="M645 719l-152 -719h-69l73 343q-38 -9 -110.5 -19.5t-116.5 -10.5q-194 0 -194 152q0 32 9 73l38 181h69l-42 -195q-6 -30 -6 -50q0 -101 131 -101q57 0 125 9.5t109 19.5l68 317h68z" />
<glyph unicode="&#x428;" horiz-adv-x="1054" d="M1067 719l-153 -719h-909l153 719h68l-140 -660h351l141 660h68l-140 -660h351l141 660h69z" />
<glyph unicode="&#x429;" horiz-adv-x="1072" d="M1067 719l-141 -660h76l-54 -253h-68l41 194h-916l153 719h68l-140 -660h351l141 660h68l-140 -660h351l141 660h69z" />
<glyph unicode="&#x42a;" horiz-adv-x="792" d="M744 229q0 -63 -30 -117.5t-82 -82.5q-33 -17 -72.5 -23t-116.5 -6h-282l140 661h-239l12 58h308l-64 -305h184q81 0 127 -13q35 -10 61 -34.5t40 -60t14 -77.5zM677 225q0 42 -20 75.5t-58 43.5q-40 12 -115 12h-179l-63 -297h202q43 0 60.5 0.5t50 7.5t54.5 22 q31 20 49.5 57t18.5 79z" />
<glyph unicode="&#x42b;" horiz-adv-x="849" d="M851 719l-151 -719h-69l153 719h67zM580 229q0 -63 -30.5 -117.5t-81.5 -82.5q-33 -17 -73 -23t-116 -6h-283l152 719h69l-63 -305h183q81 0 128 -13q52 -15 83.5 -62t31.5 -110zM512 225q0 42 -20 75.5t-58 43.5q-40 12 -115 12h-179l-62 -297h202q42 0 59.5 0.5t50 7.5 t54.5 22q31 20 49.5 57t18.5 79z" />
<glyph unicode="&#x42c;" horiz-adv-x="636" d="M589 229q0 -63 -30.5 -117.5t-81.5 -82.5q-33 -17 -72.5 -23t-116.5 -6h-283l153 719h68l-63 -305h183q81 0 128 -13q34 -10 60 -34.5t40.5 -60t14.5 -77.5zM521 225q0 42 -19.5 75.5t-58.5 43.5q-40 12 -115 12h-179l-62 -297h202q42 0 59.5 0.5t50.5 7.5t54 22 q31 20 49.5 57t18.5 79z" />
<glyph unicode="&#x42d;" horiz-adv-x="711" d="M683 429q0 -85 -27.5 -165t-76 -143t-123.5 -100.5t-164 -37.5q-119 0 -193.5 65t-74.5 169v7h67q5 -88 57 -135t145 -47q64 0 118 24.5t92.5 67t64 95.5t37.5 114h-378l13 58h372q1 8 1 24q0 117 -59 184t-161 67q-87 0 -152 -45t-97 -125h-71q23 66 67 118 q94 110 254 110q133 0 211 -81.5t78 -223.5z" />
<glyph unicode="&#x42e;" horiz-adv-x="1010" d="M983 433q0 -69 -16 -135t-48.5 -123.5t-78 -100.5t-109.5 -68t-138 -25q-138 0 -217 83t-79 228q0 27 3 54h-153l-74 -346h-68l153 719h67l-65 -315h148q15 70 47 129.5t79.5 104t112.5 70t141 25.5q88 0 155 -37.5t103.5 -105.5t36.5 -157zM913 432q0 110 -61 176 t-169 66q-77 0 -139 -33t-100.5 -87.5t-58.5 -122t-20 -139.5q0 -77 28 -134t81 -88t124 -31q61 0 113.5 23.5t89 62t62.5 89.5t38 106.5t12 111.5z" />
<glyph unicode="&#x42f;" horiz-adv-x="636" d="M640 719l-152 -719h-69l68 313h-153l-310 -313h-89l312 315q-80 8 -126.5 52.5t-46.5 126.5q0 62 29.5 115.5t80.5 80.5q22 11 45.5 17.5t56.5 9t85 2.5h269zM560 661h-190q-42 0 -59 -0.5t-49.5 -7.5t-54.5 -22q-30 -20 -48 -56t-18 -77t19 -73t56 -42q39 -11 114 -11 h168z" />
<glyph unicode="&#x430;" horiz-adv-x="524" d="M63 367q34 165 218 165q86 0 132.5 -32t46.5 -92q0 -25 -15 -89l-37 -166q-13 -66 -13 -76q0 -33 27 -33q10 0 30 4l-9 -48q-26 -7 -46 -7q-29 0 -44.5 15.5t-15.5 45.5q0 9 4 27q-67 -96 -188 -96q-75 0 -117.5 38t-42.5 104q0 30 8.5 54.5t22 41t35 29.5t41.5 20 t48.5 12.5t49 8t48.5 4.5q3 0 18 0.5t22 1.5t21.5 2t23.5 3.5t20 5.5t18.5 8t12.5 11q7 10 12.5 32.5t5.5 43.5q0 74 -117 74q-68 0 -106.5 -27t-53.5 -85h-60zM378 281q-9 -9 -21.5 -14.5t-31.5 -9t-30 -5t-34 -2.5t-26 -2q-17 -1 -29.5 -2t-30 -3.5t-30.5 -6.5t-28 -10 t-25.5 -14.5t-19.5 -20t-13 -26.5t-4 -34q0 -45 31 -71t85 -26q68 0 120 46q30 26 45 56.5t31 97.5z" />
<glyph unicode="&#x431;" d="M571 736q-13 -46 -49 -64t-105 -23l-78 -5q-88 -6 -146.5 -68t-94.5 -186h3q30 55 86 93.5t119 38.5q96 0 149.5 -53.5t53.5 -149.5q0 -62 -18 -121.5t-52 -107.5t-87.5 -77t-118.5 -29q-98 0 -152.5 58.5t-54.5 165.5q0 101 33 213t87 179q43 53 96 77t130 29l49 3 q39 2 54.5 8t24.5 19h71zM445 317q0 46 -16 80.5t-49 53.5t-79 19q-89 0 -150.5 -78t-61.5 -193q0 -77 39 -120t108 -43q50 0 91.5 26t66.5 68t38 90.5t13 96.5z" />
<glyph unicode="&#x432;" horiz-adv-x="524" d="M103 519h199q30 0 51.5 -1.5t47.5 -8t42 -19t27.5 -35.5t11.5 -55q0 -51 -30 -86t-82 -43q42 -9 65 -37.5t23 -70.5q0 -54 -31 -97t-82 -57q-34 -9 -112 -9h-239zM157 467l-37 -170h162q68 0 98 19q41 26 41 79q0 20 -7.5 34t-17.5 21t-27.5 11t-30.5 5t-33 1h-148z M110 247l-41 -194h155q65 0 93 7q35 8 57.5 37t22.5 67q0 19 -5.5 34t-16 23.5t-22 14t-28.5 8t-29.5 3t-30.5 0.5h-155z" />
<glyph unicode="&#x433;" horiz-adv-x="404" d="M438 466h-280l-99 -466h-64l110 519h344z" />
<glyph unicode="&#x434;" d="M443 -166h-63l35 166h-418l-35 -166h-64l46 219h62q100 131 157 399l14 67h339l-99 -466h73zM354 53l87 414h-214l-7 -35q-25 -123 -64.5 -220.5t-83.5 -158.5h282z" />
<glyph unicode="&#x435;" horiz-adv-x="524" d="M459 167q-27 -88 -86.5 -136t-151.5 -48q-98 0 -153.5 58.5t-55.5 163.5q0 140 79.5 234t196.5 94q93 0 146 -56.5t53 -155.5q0 -32 -6 -76h-403q-4 -24 -4 -42q0 -79 40 -123.5t110 -44.5q61 0 105 34.5t65 97.5h65zM86 297h338q2 14 2 29q0 49 -16.5 84t-49 53.5 t-76.5 18.5q-73 0 -125.5 -49.5t-72.5 -135.5z" />
<glyph unicode="&#x436;" horiz-adv-x="711" d="M245 267l-240 -267h-81l288 311l-156 208h79l182 -253l54 253h63l-52 -247l277 247h87l-244 -210l164 -309h-72l-140 268l-89 -77l-41 -191h-63l41 193z" />
<glyph unicode="&#x437;" horiz-adv-x="489" d="M446 406q0 -49 -33 -84.5t-77 -44.5v-2q36 -7 61 -33.5t25 -70.5q0 -91 -63.5 -138.5t-158.5 -47.5q-91 0 -147.5 44.5t-56.5 120.5q0 10 1 19h61v-14q0 -57 37 -88t106 -31q68 0 114 34t46 99q0 35 -24.5 55.5t-75.5 20.5h-89l11 51h69q53 0 93.5 29.5t40.5 78.5 q0 10 -2.5 18.5t-7.5 17.5t-14.5 16t-22.5 13t-32 9t-42 3q-131 0 -157 -112h-63q37 165 228 165q82 0 127.5 -32.5t45.5 -95.5z" />
<glyph unicode="&#x438;" horiz-adv-x="542" d="M408 0h-64l95 444l-366 -444h-84l110 519h64l-94 -444l365 444h84z" />
<glyph unicode="&#x439;" horiz-adv-x="542" d="M408 0h-64l95 444l-366 -444h-84l110 519h64l-94 -444l365 444h84zM194 721h39q0 -1 -0.5 -4.5t-0.5 -5.5q0 -34 23 -53.5t64 -19.5q43 0 76.5 22t48.5 61h40q-19 -63 -61.5 -97t-104.5 -34q-59 0 -92 29.5t-33 84.5q0 11 1 17z" />
<glyph unicode="&#x43a;" horiz-adv-x="467" d="M163 519l-57 -261l314 261h85l-258 -211l163 -308h-73l-139 267l-108 -89l-37 -178h-63l111 519h62z" />
<glyph unicode="&#x43b;" horiz-adv-x="542" d="M409 0h-64l99 467h-206l-67 -274q-27 -107 -67.5 -156t-102.5 -49q-31 0 -62 13l12 52q22 -12 51 -12q68 0 106 155l81 323h330z" />
<glyph unicode="&#x43c;" horiz-adv-x="673" d="M540 0h-63l91 427h-3l-272 -427h-57l-90 427h-3l-90 -427h-64l110 519h82l97 -447l285 447h87z" />
<glyph unicode="&#x43d;" horiz-adv-x="542" d="M407 0h-64l52 244h-291l-51 -244h-64l110 519h64l-47 -221h291l46 221h64z" />
<glyph unicode="&#x43e;" d="M510 325q0 -63 -18.5 -123t-52.5 -109t-89 -79t-122 -30q-101 0 -157 57.5t-56 162.5q0 142 81.5 236t204.5 94q98 0 153.5 -55t55.5 -154zM296 482q-93 0 -155.5 -80t-62.5 -197q0 -79 40.5 -124t112.5 -45q52 0 94.5 27t68 70t39 92.5t13.5 97.5q0 73 -39 116t-111 43z " />
<glyph unicode="&#x43f;" horiz-adv-x="542" d="M407 0h-64l99 467h-290l-99 -467h-64l110 519h418z" />
<glyph unicode="&#x440;" horiz-adv-x="579" d="M163 519l-21 -98q32 55 82 84t112 29q88 0 139.5 -58.5t51.5 -159.5q0 -59 -17.5 -117t-50 -106.5t-85 -78t-114.5 -29.5q-73 0 -121 36t-57 97l-66 -312h-61l150 713h58zM318 483q-52 0 -94.5 -28t-67.5 -72t-38.5 -94t-13.5 -98q0 -71 40 -113.5t108 -42.5q51 0 93 27 t67.5 69t39.5 90.5t14 95.5q0 49 -15.5 85.5t-49.5 58.5t-83 22z" />
<glyph unicode="&#x441;" horiz-adv-x="524" d="M465 168q-61 -183 -241 -183q-97 0 -150.5 57t-53.5 160q0 63 19.5 122.5t55.5 106.5t91 75t121 28q57 0 99.5 -20.5t65.5 -59t23 -89.5v-6h-63v1q0 56 -34.5 89t-94.5 33q-53 0 -96 -25t-69.5 -65.5t-40.5 -88.5t-14 -98q0 -80 37.5 -123.5t107.5 -43.5q40 0 73 15 t58.5 44.5t40.5 70.5h65z" />
<glyph unicode="&#x442;" horiz-adv-x="448" d="M476 467h-193l-99 -467h-64l99 467h-193l11 52h450z" />
<glyph unicode="&#x443;" horiz-adv-x="467" d="M496 519l-305 -539q-16 -28 -22.5 -40t-21.5 -36t-24.5 -34.5t-25 -26.5t-29.5 -23t-32.5 -12.5t-38.5 -5.5q-23 0 -53 6l12 54q25 -5 43 -5q32 0 54.5 18.5t43.5 52.5l44 72l-97 519h67l75 -441l241 441h69z" />
<glyph unicode="&#x444;" horiz-adv-x="808" d="M329 152l48 220q2 16 2 24q0 39 -26 63t-68 24q-53 0 -95.5 -30.5t-67 -78.5t-37.5 -100t-13 -101q0 -68 30.5 -101.5t86.5 -33.5q50 0 90 31.5t50 82.5zM697 343q0 71 -32 105.5t-86 34.5q-49 0 -88.5 -31.5t-50.5 -79.5l-47 -220q-3 -14 -3 -27q0 -15 4.5 -29 t12.5 -24.5t19.5 -18t26.5 -11.5t32 -4q53 0 95.5 30t66.5 76.5t37 98t13 100.5zM373 55l-53 -249l-63 1l52 248h-2q-25 -32 -62.5 -51t-78.5 -19q-69 0 -113.5 51t-44.5 139q0 48 10.5 97.5t33 96.5t54 84t76.5 59t98 22q42 0 72 -17.5t42 -50.5h2l54 253h64l-54 -253h2 q56 68 140 68q75 0 118 -50.5t43 -137.5q0 -47 -11 -96.5t-34 -97t-54.5 -85t-77 -60t-96.5 -22.5q-42 0 -73 19.5t-42 50.5h-2z" />
<glyph unicode="&#x445;" horiz-adv-x="467" d="M489 519l-227 -250l138 -269h-72l-111 228l-200 -228h-77l250 274l-123 245h71l96 -206l179 206h76z" />
<glyph unicode="&#x446;" d="M448 -166h-63l35 166h-431l110 519h64l-99 -466h291l98 466h64l-99 -466h77z" />
<glyph unicode="&#x447;" horiz-adv-x="505" d="M360 247q-36 -12 -88.5 -21.5t-96.5 -9.5q-82 0 -114.5 39.5t-14.5 128.5l29 135h63l-30 -142q-4 -19 -4.5 -34t3 -25t8 -18t13 -12.5t15.5 -7.5t18.5 -4.5t19 -1.5h19.5q39 0 89 9.5t83 21.5l45 214h64l-110 -519h-64z" />
<glyph unicode="&#x448;" horiz-adv-x="796" d="M-11 0l110 519h64l-99 -465h240l99 465h64l-99 -465h240l99 465h64l-110 -519h-672z" />
<glyph unicode="&#x449;" horiz-adv-x="816" d="M-11 0l110 519h64l-99 -465h240l99 465h64l-99 -465h240l99 465h64l-99 -465h77l-46 -220h-64l36 166h-686z" />
<glyph unicode="&#x44a;" horiz-adv-x="617" d="M566 173q0 -47 -23.5 -88.5t-61.5 -62.5q-25 -13 -55 -17.5t-87 -4.5h-237l99 467h-173l11 52h236l-45 -204h153q62 0 95 -10q39 -12 63.5 -48.5t24.5 -83.5zM504 170q0 19 -5.5 35.5t-18.5 30t-32 19.5q-26 7 -78 7h-150l-44 -209h167h41t35 5t38 16q11 7 20 17.5t15 23 t9 26.5t3 29z" />
<glyph unicode="&#x44b;" horiz-adv-x="673" d="M585 519h63l-110 -519h-63zM423 173q0 -47 -23 -88.5t-62 -62.5q-25 -13 -55 -17.5t-86 -4.5h-207l110 519h63l-45 -204h122q62 0 95 -10q40 -12 64 -48.5t24 -83.5zM362 170q0 19 -5.5 35.5t-18.5 30t-32 19.5q-27 7 -79 7h-119l-44 -209h137h41t35 5t37 16q22 14 35 40 t13 56z" />
<glyph unicode="&#x44c;" horiz-adv-x="505" d="M453 173q0 -47 -23 -88.5t-61 -62.5q-17 -9 -35.5 -13.5t-43.5 -6.5t-63 -2h-237l110 519h63l-45 -204h153q61 0 95 -10q39 -12 63 -48.5t24 -83.5zM392 170q0 19 -5.5 35.5t-18.5 30t-32 19.5q-27 7 -78 7h-150l-44 -209h167h41t35 5t37 16q23 14 35.5 40t12.5 56z" />
<glyph unicode="&#x44d;" horiz-adv-x="524" d="M473 317q0 -63 -20 -122t-55.5 -106t-90.5 -75.5t-121 -28.5q-86 0 -137 46t-51 124v6h63v-1q0 -57 34 -90t95 -33q84 0 139 59t73 145h-238l11 53h234q1 7 1 20q0 80 -38 123.5t-107 43.5q-56 0 -99 -29.5t-67 -84.5h-66q64 167 236 167q97 0 150.5 -57t53.5 -160z" />
<glyph unicode="&#x44e;" horiz-adv-x="767" d="M716 325q0 -63 -18.5 -123t-52.5 -109t-89 -79t-122 -30q-101 0 -157 57.5t-56 162.5q0 14 2 40h-119l-51 -244h-64l110 519h64l-47 -221h115q26 106 100.5 171t175.5 65q98 0 153.5 -55t55.5 -154zM502 482q-92 0 -155 -80t-63 -197q0 -79 40.5 -124t112.5 -45 q52 0 94.5 27t68 70t39 92.5t13.5 97.5q0 73 -39 116t-111 43z" />
<glyph unicode="&#x44f;" horiz-adv-x="524" d="M258 226l-224 -226h-79l225 227q-58 6 -92 38t-34 92q0 30 9.5 57.5t27.5 49t42 34.5q23 13 51 17t85 4h230l-110 -519h-64l49 226h-116zM424 467h-160q-21 0 -29 -0.5t-24.5 -2t-29 -5.5t-22.5 -12q-20 -12 -32 -36t-12 -50.5t13 -47.5t37 -27q25 -7 73 -7h147z" />
<glyph unicode="&#x451;" horiz-adv-x="524" d="M459 167q-27 -88 -86.5 -136t-151.5 -48q-98 0 -153.5 58.5t-55.5 163.5q0 140 79.5 234t196.5 94q93 0 146 -56.5t53 -155.5q0 -32 -6 -76h-403q-4 -24 -4 -42q0 -79 40 -123.5t110 -44.5q61 0 105 34.5t65 97.5h65zM86 297h338q2 14 2 29q0 49 -16.5 84t-49 53.5 t-76.5 18.5q-73 0 -125.5 -49.5t-72.5 -135.5zM264 716l-22 -102h-64l21 102h65zM429 716l-20 -102h-66l22 102h64z" />
<glyph unicode="&#x452;" horiz-adv-x="542" d="M467 258q0 -11 -1.5 -24.5t-3.5 -26.5t-5.5 -30t-6 -28.5t-6.5 -29t-6 -25.5q-24 -117 -114 -199.5t-209 -87.5l13 60q93 5 161 72t88 164q3 15 9 42.5t8 40t4.5 29.5t2.5 31q0 42 -28 65.5t-77 23.5q-46 0 -88 -22.5t-72 -63.5q-29 -41 -48 -121l-29 -128h-64l99 467 h-53l12 52h52l42 200h64l-42 -200h235l-11 -52h-235l-39 -182h2q78 105 194 105q68 0 110 -36.5t42 -95.5z" />
<glyph unicode="&#x453;" horiz-adv-x="404" d="M432 466h-280l-99 -466h-64l110 519h344zM417 743l-147 -144h-54l117 144h84z" />
<glyph unicode="&#x454;" horiz-adv-x="524" d="M340 295l-11 -54h-244q-2 -24 -2 -36q0 -80 37.5 -123.5t107.5 -43.5q40 0 73 15t58.5 44.5t40.5 70.5h65q-61 -183 -241 -183q-97 0 -150.5 57t-53.5 160q0 63 19.5 122.5t55.5 106.5t91 75t121 28q85 0 136 -45.5t52 -120.5h-63q-1 26 -10.5 47.5t-26 36t-40 22.5 t-52.5 8q-80 0 -134 -53.5t-74 -133.5h245z" />
<glyph unicode="&#x455;" horiz-adv-x="485" d="M437 368h-61v7q0 105 -129 105q-28 0 -51 -6t-39 -17.5t-25 -27.5t-9 -35q0 -16 7.5 -29t16 -22t26.5 -18.5t29 -13.5l33 -12t30 -11q71 -27 105 -58t34 -88q0 -40 -18.5 -71.5t-48.5 -49.5t-65.5 -27t-73.5 -9q-94 0 -147.5 44t-53.5 121q0 10 1 19h61v-14q0 -57 37 -88 t106 -31q61 0 99.5 27.5t38.5 71.5q0 11 -2 20t-7.5 17.5t-10.5 14.5t-16 13t-17 11t-21.5 11t-22.5 10t-26 10.5t-26 9.5q-30 13 -48.5 22.5t-39 25.5t-30.5 38t-10 51q0 65 52.5 104.5t139.5 39.5q57 0 98 -18t62.5 -52.5t21.5 -82.5v-12z" />
<glyph unicode="&#x456;" horiz-adv-x="186" d="M161 519l-111 -519h-62l110 519h63zM204 722l-22 -104h-63l21 104h64z" />
<glyph unicode="&#x457;" horiz-adv-x="186" d="M161 519l-111 -519h-62l110 519h63zM113 716l-21 -102h-65l21 102h65zM279 716l-20 -102h-66l21 102h65z" />
<glyph unicode="&#x458;" horiz-adv-x="186" d="M161 519l-112 -529q-1 -6 -3 -19q-6 -28 -9 -41.5t-9.5 -36t-12.5 -33t-16 -24t-22.5 -20t-29.5 -11t-39 -4.5q-25 0 -47 4l11 54q19 -4 32 -4q34 0 50 19q8 11 14 32.5t21 93.5l109 519h63zM203 722l-21 -104h-64l22 104h63z" />
<glyph unicode="&#x459;" horiz-adv-x="785" d="M734 168.5q0 -46.5 -22.5 -86.5t-60.5 -61q-23 -12 -52.5 -16.5t-86.5 -4.5h-195l98 467h-181l-67 -292q-44 -187 -166 -187q-14 0 -36 4t-33 9l11 52q23 -12 59 -12q69 0 101 137l81 341h306l-45 -212h111q59 0 92 -10q39 -11 62.5 -46.5t23.5 -82zM673 166 q0 28 -13.5 50.5t-39.5 29.5q-28 8 -78 8h-109l-42 -201h124q2 0 11.5 -0.5t12 0t11 0.5t12 0.5t11 1t12 1.5t11 2.5t11 3.5t10 4.5t10.5 6.5q14 9 24 23.5t16 32.5t6 37z" />
<glyph unicode="&#x45a;" horiz-adv-x="785" d="M360 254h-254l-53 -254h-64l110 519h64l-46 -212h254l45 212h64l-45 -212h121q60 0 93 -10q38 -11 61.5 -46.5t23.5 -81.5q0 -47 -22.5 -87t-60.5 -61q-23 -12 -52.5 -16.5t-86.5 -4.5h-205zM673 166q0 28 -13.5 50.5t-39.5 29.5q-28 8 -78 8h-119l-42 -201h134h24.5 t21.5 0.5t24.5 2.5t20.5 6.5t21 10.5q21 14 33.5 39t12.5 54z" />
<glyph unicode="&#x45b;" horiz-adv-x="542" d="M467 258q0 -37 -14 -95l-37 -163h-64l37 160q12 51 12 86q0 42 -28 65.5t-77 23.5q-46 0 -88 -22.5t-72 -63.5q-29 -41 -48 -121l-29 -128h-64l99 467h-53l12 52h52l42 200h64l-42 -200h235l-11 -52h-235l-39 -182h2q78 105 194 105q68 0 110 -36.5t42 -95.5z" />
<glyph unicode="&#x45c;" horiz-adv-x="467" d="M164 519l-56 -261l316 261h85l-260 -211l165 -308h-73l-141 267l-109 -89l-38 -178h-63l111 519h63zM451 743l-147 -144h-54l118 144h83z" />
<glyph unicode="&#x45e;" horiz-adv-x="467" d="M496 519l-305 -539q-16 -28 -22.5 -40t-21.5 -36t-24.5 -34.5t-25 -26.5t-29.5 -23t-32.5 -12.5t-38.5 -5.5q-23 0 -53 6l12 54q25 -5 43 -5q32 0 54.5 18.5t43.5 52.5l44 72l-97 519h67l75 -441l241 441h69zM159 721h39q0 -1 -0.5 -4.5t-0.5 -5.5q0 -34 22.5 -53.5 t64.5 -19.5q43 0 76 22t49 61h39q-19 -63 -61.5 -97t-103.5 -34q-59 0 -92 29.5t-33 84.5q0 11 1 17z" />
<glyph unicode="&#x45f;" horiz-adv-x="542" d="M230 0l-35 -166h-64l36 166h-177l110 519h64l-99 -466h290l98 466h64l-110 -519h-177z" />
<glyph unicode="&#x490;" horiz-adv-x="524" d="M589 661h-376l-140 -661h-69l153 719h375l36 165h68z" />
<glyph unicode="&#x491;" horiz-adv-x="404" d="M429 466h-273l-99 -466h-64l110 519h274l34 159h64z" />
<glyph unicode="&#x2000;" horiz-adv-x="457" />
<glyph unicode="&#x2001;" horiz-adv-x="914" />
<glyph unicode="&#x2002;" horiz-adv-x="457" />
<glyph unicode="&#x2003;" horiz-adv-x="914" />
<glyph unicode="&#x2004;" horiz-adv-x="304" />
<glyph unicode="&#x2005;" horiz-adv-x="228" />
<glyph unicode="&#x2006;" horiz-adv-x="152" />
<glyph unicode="&#x2007;" horiz-adv-x="152" />
<glyph unicode="&#x2008;" horiz-adv-x="114" />
<glyph unicode="&#x2009;" horiz-adv-x="182" />
<glyph unicode="&#x200a;" horiz-adv-x="50" />
<glyph unicode="&#x2010;" horiz-adv-x="373" d="M305 307l-13 -60h-254l12 60h255z" />
<glyph unicode="&#x2011;" horiz-adv-x="373" d="M305 307l-13 -60h-254l12 60h255z" />
<glyph unicode="&#x2012;" horiz-adv-x="373" d="M305 307l-13 -60h-254l12 60h255z" />
<glyph unicode="&#x2013;" horiz-adv-x="505" d="M504 307l-13 -61h-503l12 61h504z" />
<glyph unicode="&#x2014;" horiz-adv-x="1010" d="M1011 307l-13 -61h-1010l12 61h1011z" />
<glyph unicode="&#x2018;" horiz-adv-x="280" d="M128 489l20 97q14 65 40.5 101t84.5 46l-9 -41q-24 -8 -38 -23t-20 -30t-12 -44h37l-22 -106h-81z" />
<glyph unicode="&#x2019;" horiz-adv-x="280" d="M264 719l-21 -97q-13 -65 -39.5 -101t-84.5 -46l9 41q23 8 37.5 23t20 30t12.5 44h-37l22 106h81z" />
<glyph unicode="&#x201a;" horiz-adv-x="280" d="M123 102l-21 -97q-15 -70 -42 -103t-77 -40l9 40q34 13 46 34t22 64h-36l21 102h78z" />
<glyph unicode="&#x201c;" horiz-adv-x="373" d="M249 492l22 97q15 70 42 103t77 40l-9 -40q-34 -13 -46.5 -34t-21.5 -64h35l-21 -102h-78zM95 492l21 97q15 70 42.5 103t76.5 40l-9 -40q-18 -7 -30 -16t-19 -23.5t-10.5 -25.5t-7.5 -33h35l-21 -102h-78z" />
<glyph unicode="&#x201d;" horiz-adv-x="373" d="M228 719l-21 -97q-15 -70 -42 -103t-77 -40l9 40q18 7 30 16t19 23.5t10.5 25.5t8.5 33h-36l21 102h78zM383 719l-21 -97q-16 -70 -43 -103t-77 -40l9 40q35 13 47 34t21 64h-35l21 102h78z" />
<glyph unicode="&#x201e;" horiz-adv-x="373" d="M103 102l-21 -97q-15 -70 -42.5 -103t-76.5 -40l9 40q34 13 46 34t21 64h-35l21 102h78zM258 102l-22 -97q-15 -70 -42 -103t-77 -40l9 40q19 7 30.5 16t19 23.5t10.5 25.5t8 33h-35l21 102h78z" />
<glyph unicode="&#x2020;" d="M389 719l-48 -223h202l-11 -54h-202l-126 -595h-61l126 595h-201l11 54h202l47 223h61z" />
<glyph unicode="&#x2021;" d="M389 719l-43 -202h203l-11 -52h-203l-75 -364h202l-12 -52h-203l-42 -201h-60l43 201h-202l12 52h201l77 364h-201l11 52h201l43 202h59z" />
<glyph unicode="&#x2022;" horiz-adv-x="505" d="M252.5 539q74.5 0 127 -52.5t52.5 -127t-52.5 -127t-127.5 -52.5q-48 0 -89.5 24t-65.5 65.5t-24 90.5q0 74 52.5 126.5t127 52.5z" />
<glyph unicode="&#x2026;" horiz-adv-x="1010" d="M160 104l-24 -104h-83l23 104h84zM492 104l-23 -104h-84l23 104h84zM830 104l-23 -104h-84l23 104h84z" />
<glyph unicode="&#x202f;" horiz-adv-x="182" />
<glyph unicode="&#x2030;" horiz-adv-x="1066" d="M667 734l-575 -767h-55l575 767h55zM1009 200q0 -92 -49.5 -151.5t-126.5 -59.5q-60 0 -94 35.5t-34 98.5q0 84 47 145.5t129 61.5q61 0 94.5 -34t33.5 -96zM878 288q-40 0 -68.5 -29t-40 -66t-11.5 -76q0 -41 20.5 -63.5t58.5 -22.5q39 0 67 27.5t40 63.5t12 74 q0 40 -20 66t-58 26zM650 200q0 -92 -49.5 -151.5t-125.5 -59.5q-60 0 -94.5 35.5t-34.5 98.5q0 84 47.5 145.5t128.5 61.5q61 0 94.5 -34t33.5 -96zM519 288q-40 0 -68.5 -29t-40 -66t-11.5 -76q0 -41 21 -63.5t59 -22.5t66.5 27.5t40.5 63.5t12 74q0 25 -8.5 45.5 t-26.5 33.5t-44 13zM361 584q0 -92 -50 -151.5t-126 -59.5q-60 0 -94 35.5t-34 98.5q0 84 47 145.5t128 61.5q61 0 95 -34.5t34 -95.5zM229 672q-39 0 -68 -29t-40.5 -66.5t-11.5 -75.5q0 -41 21 -63.5t59 -22.5q29 0 52.5 16t37.5 40.5t21.5 52.5t7.5 56q0 25 -8.5 45.5 t-26.5 33.5t-44 13z" />
<glyph unicode="&#x2039;" horiz-adv-x="261" d="M207 425l-14 -69l-117 -84l77 -104l-14 -62l-107 140l16 65z" />
<glyph unicode="&#x203a;" horiz-adv-x="261" d="M91 426l106 -140l-15 -65l-160 -115l15 71l118 84l-78 103z" />
<glyph unicode="&#x205f;" horiz-adv-x="228" />
<glyph unicode="&#x2122;" horiz-adv-x="999" d="M270 360v322h-127v37h294v-37h-126v-322h-41zM504 360v359h63l114 -298l114 298h60v-359h-37v318l-121 -318h-35l-121 318v-318h-37z" />
<glyph unicode="&#x2206;" horiz-adv-x="673" d="M344 719l291 -719h-642l288 719h63zM71 53h483l-242 614z" />
<glyph unicode="&#x221a;" horiz-adv-x="606" d="M521 794l-212 -1010h-55l-170 349l-46 -22l-19 41l89 44l168 -351l196 949h49z" />
<glyph unicode="&#x221e;" horiz-adv-x="729" d="M346 279q4 3 26.5 24t29.5 27.5t27.5 22t33.5 21.5t32.5 12t37.5 6q60 0 98.5 -39.5t38.5 -101.5q0 -40 -17 -72t-47.5 -50t-69.5 -18q-43 0 -84.5 23t-105.5 83q-10 -8 -28 -23.5t-29.5 -25t-29 -21.5t-32 -19t-34 -12t-38.5 -5q-59 0 -96.5 38.5t-37.5 98.5 q0 41 17 73.5t47.5 51t68.5 18.5q13 0 27.5 -3.5t25.5 -7t27 -13.5t24 -14.5t25 -18.5t21.5 -18l22.5 -20t19 -17zM380 248q28 -25 47 -41t51 -31.5t60 -15.5q37 0 60 24.5t23 63.5q0 44 -23 69.5t-63 25.5q-9 0 -18.5 -1.5t-19.5 -6t-18.5 -8.5t-18.5 -11.5t-17.5 -12.5 t-18 -14t-15.5 -14t-15.5 -14.5t-13.5 -12.5zM312 248q-1 1 -15.5 13.5t-18.5 16t-18.5 15t-22 16t-20.5 12.5t-22.5 11.5t-21 6.5t-20.5 3q-36 0 -59.5 -26t-23.5 -67q0 -40 23.5 -64.5t63.5 -24.5q35 0 77.5 27t77.5 61z" />
<glyph unicode="&#x2248;" horiz-adv-x="606" d="M543 404q-5 -55 -35 -92.5t-84 -37.5q-40 0 -137 33q-10 3 -34.5 12t-41 14.5t-37.5 10t-36 4.5q-31 0 -54 -23t-28 -60h-40q5 28 13 49.5t21.5 41.5t35.5 30.5t52 10.5q10 0 21 -1.5t24 -4.5t22.5 -5t25 -7t22 -7.5t23 -8l19.5 -6.5q4 -2 28.5 -11t36 -12.5t30.5 -8 t33 -4.5q35 0 55.5 23.5t28.5 59.5h36zM543 241q-5 -55 -35 -92.5t-84 -37.5q-40 0 -137 33q-10 4 -34.5 12.5t-41 14t-37.5 10.5t-36 5q-31 0 -54 -23.5t-28 -60.5h-40q5 28 13 49.5t21.5 41.5t35.5 30.5t52 10.5q10 0 21 -1t24 -4t22.5 -5.5t25 -7.5t22 -7t23 -8t19.5 -7 q4 -2 28.5 -11t36 -12.5t30.5 -7.5t33 -4q35 0 55.5 23.5t28.5 58.5h36z" />
<glyph unicode="&#x2260;" horiz-adv-x="606" d="M216 187l72 136h-256v49h283l78 146l42 -22l-66 -124h165v-49h-192l-72 -136h264v-49h-291l-75 -142l-43 23l65 119h-158v49h184z" />
<glyph unicode="&#x2264;" horiz-adv-x="606" d="M25 263v54l502 195v-54l-435 -168l435 -168v-53zM25 23h502v-48h-502v48z" />
<glyph unicode="&#x2265;" horiz-adv-x="606" d="M553 263l-501 -194v53l434 168l-434 168v54l501 -195v-54zM553 23v-48h-501v48h501z" />
<glyph unicode="&#x25fc;" horiz-adv-x="520" d="M0 520h520v-520h-520v520z" />
</font>
</defs>
</svg>
