<?xml version="1.0" standalone="no"?>
<!DOCTYPE svg PUBLIC "-//W3C//DTD SVG 1.1//EN" "http://www.w3.org/Graphics/SVG/1.1/DTD/svg11.dtd" >
<svg xmlns="http://www.w3.org/2000/svg" xmlns:xlink="http://www.w3.org/1999/xlink" version="1.1">
<metadata></metadata>
<defs>
<font id="nickainleynormal" horiz-adv-x="342" >
<font-face units-per-em="1000" ascent="800" descent="-200" />
<missing-glyph horiz-adv-x="324" />
<glyph horiz-adv-x="0" />
<glyph horiz-adv-x="333" />
<glyph unicode=" "  horiz-adv-x="324" />
<glyph unicode="&#x09;" horiz-adv-x="324" />
<glyph unicode="&#xa0;" horiz-adv-x="324" />
<glyph unicode="!" horiz-adv-x="301" d="M364 791.5q9 -3.5 13 -12t1 -17.5l-210 -594q-3 -8 -11.5 -12.5t-17.5 -1t-12.5 12t-0.5 17.5l210 594q2 9 10.5 13t17.5 0.5zM97.5 66q15.5 0 26.5 -11.5t11 -26.5t-11 -26t-26.5 -11t-26.5 11t-11 26.5t11 26.5t26.5 11z" />
<glyph unicode="&#x22;" horiz-adv-x="300" d="M204 673l60 167q3 9 12 12.5t18 0.5q8 -4 13 -13.5t1 -18.5l-64 -168q-9 -19 -29 -11q-17 13 -11 31zM301 673l60 167q3 9 12 12.5t18 0.5q9 -4 13.5 -13.5t0.5 -18.5l-64 -168q-8 -19 -29 -11q-17 13 -11 31z" />
<glyph unicode="#" horiz-adv-x="578" d="M492 530q11 0 17 -6t7 -16q0 -10 -6 -16.5t-16 -6.5h-80l-46 -128h66q10 0 16.5 -6t7.5 -16q0 -10 -6.5 -16.5t-16.5 -6.5h-83l-74 -212q-3 -8 -12 -12.5t-17.5 -1t-12.5 12t-1 17.5l70 196l-114 1l-74 -213q-4 -9 -12.5 -13t-17 -0.5t-13 12t-1.5 17.5l70 197h-68 q-11 0 -17 7t-6 16q0 6 3 11.5t8.5 8.5t12.5 3h83l45 126h-70q-10 0 -16.5 6.5t-6.5 16.5q1 10 7.5 16t16.5 6h84l64 180q3 9 11.5 13t17.5 0.5t13 -11.5t1 -18l-58 -164h113l64 180q2 8 11 12.5t18 1t12.5 -12t0.5 -17.5l-58 -164h63zM321 357l45 128h-113l-46 -126z" />
<glyph unicode="$" horiz-adv-x="491" d="M429 674q22 -38 18 -98q0 -3 -1 -8t-1 -7q-1 -6 -4.5 -11t-9.5 -7t-12 -2q-9 2 -14.5 9t-4.5 17q1 3 1 12q3 44 -12 73q-12 24 -42 32l-91 -252q53 -47 80 -103q27 -57 17 -107q-9 -51 -45 -86t-86 -47q-40 -9 -76 -5q-9 2 -13 2l-22 -57q-2 -9 -11 -13t-17 -1 q-9 3 -13 11.5t-1 17.5l21 58q-6 2 -17 8q-84 55 -72 171q2 10 9 15.5t17 4.5q4 0 8 -2.5t7 -5.5t4 -7.5t0 -9.5q-9 -90 52 -127l7 -4l99 275q-29 29 -45 64q-23 49 -18 96q7 69 63 114q50 39 112 39l20 54q3 9 11.5 13t17.5 0q9 -2 12.5 -11t0.5 -18l-15 -44q45 -12 66 -53 zM221 469l78 218q-34 -5 -67 -28q-40 -34 -45 -83q-4 -37 13 -72q7 -15 21 -35zM295 310q-19 40 -55 74l-92 -253l1.5 -0.5t2.5 -0.5q32 -4 60 4q17 4 33 12.5t29 20.5t22 28.5t13 35.5q6 35 -14 79z" />
<glyph unicode="%" horiz-adv-x="446" d="M340 724q9 -4 13 -12.5t1 -17.5l-209 -594q-4 -9 -12.5 -13t-17 -0.5t-13 12t-0.5 17.5l209 594q2 5 7 9t10.5 5.5t11.5 -0.5zM91 417q-28 0 -41 19.5t-13 48.5q0 39 15 83t43.5 76t60.5 32q28 0 44 -18.5t16 -48.5q0 -39 -16.5 -83.5t-46.5 -76.5t-62 -32zM91 462 q27 0 53.5 52t26.5 93q0 23 -13 23q-27 0 -51.5 -51t-24.5 -93q0 -24 9 -24zM295 134q-27 0 -40.5 19.5t-13.5 48.5q0 39 15 83t43.5 76t60.5 32q28 0 44 -18.5t16 -48.5q0 -39 -16.5 -83.5t-46 -76.5t-62.5 -32zM295 179q27 0 53.5 52t26.5 93q0 23 -13 23q-27 0 -51.5 -51 t-24.5 -93q0 -24 9 -24z" />
<glyph unicode="&#x26;" horiz-adv-x="624" d="M584 361q8 -5 10.5 -14.5t-2.5 -17.5q-39 -63 -71 -107.5t-70 -78.5q-17 -16 -36 -31l18 -57l9 -25q2 -9 -2.5 -17.5t-12.5 -11.5q-9 -2 -17.5 2t-12.5 13l-7 25l-15 46q-67 -34 -143 -32q-70 0 -111 40.5t-41 109.5q2 70 45.5 129t147.5 134q-13 74 -13 117q0 72 39 120 t100 48q44 0 74.5 -26.5t30.5 -68.5q0 -51 -39 -95.5t-142 -116.5q21 -108 77 -287q3 2 10 8t11 9q57 55 132 177q5 8 14 10.5t17 -2.5zM307 583q0 -40 7 -92q29 20 50 37t45 39.5t37 46t13 44.5q0 22 -17.5 35.5t-42.5 13.5q-44 0 -68 -35t-24 -89zM361 132 q-51 162 -78 286q-58 -42 -91.5 -76.5t-49.5 -67t-17 -69.5q0 -50 29 -77.5t78 -27.5q69 0 129 32z" />
<glyph unicode="'" horiz-adv-x="226" d="M226 673l59 167q3 9 12 12.5t18 0.5q9 -4 13.5 -13.5t0.5 -18.5l-63 -168q-9 -19 -29 -11q-17 13 -11 31z" />
<glyph unicode="(" horiz-adv-x="315" d="M500 890q0 -8 -5 -14.5t-13 -8.5q-65 -12 -109 -49q-26 -23 -48 -56.5t-44 -88t-35.5 -93.5t-38.5 -116q-6 -17 -8 -26q-22 -70 -34 -110t-30 -104.5t-27 -110t-9 -73.5q0 -80 49 -90q20 -4 20 -22q0 -12 -7 -18.5t-20 -4.5q-47 10 -67 44.5t-20 91.5q0 42 17.5 118.5 t35 134.5t49.5 159q4 12 11 36q21 65 31.5 96.5t29.5 81t34 77.5t36 58t44 50q27 23 68.5 41.5t66.5 18.5q10 0 16.5 -6t6.5 -16z" />
<glyph unicode=")" horiz-adv-x="466" d="M-22 -73q0 8 5.5 14.5t13.5 7.5q65 13 109 50q26 22 48 56t44 88.5t35.5 93t37.5 115.5l3 9t2.5 8t3.5 9q29 95 45.5 150t35 133.5t18.5 115.5q0 79 -49 89q-20 5 -20 23q0 11 7.5 18t19.5 5q47 -11 67 -45t20 -92q0 -41 -17.5 -117.5t-34.5 -134.5t-49 -159l-12 -36 q-17 -55 -26 -81.5t-24.5 -70t-27 -68t-27.5 -54.5t-33 -51.5t-37 -38.5q-27 -23 -68 -41t-67 -18q-10 0 -16.5 6t-6.5 16z" />
<glyph unicode="*" horiz-adv-x="315" d="M361 698q9 -1 15 -8t5 -16q0 -10 -7 -16t-17 -6l-34 2l23 -25q6 -8 5.5 -17t-8.5 -16q-6 -6 -15.5 -5.5t-15.5 7.5l-24 26l-2 -34q0 -10 -7 -16.5t-17 -5.5q-9 0 -15.5 7t-5.5 17l2 34l-26 -22q-7 -7 -16.5 -6t-16 8t-5.5 16.5t8 15.5l26 23l-35 2q-10 1 -16 8t-5 16 q0 10 7 16t16 5l36 -2l-24 26q-6 8 -5.5 17.5t7.5 15.5q8 6 17 5.5t16 -8.5l22 -25l3 35q0 9 7.5 15.5t15.5 5.5q10 0 16.5 -7t5.5 -17l-2 -35l27 23q6 7 15.5 6t15.5 -8q7 -7 6 -16.5t-8 -14.5l-26 -24z" />
<glyph unicode="+" horiz-adv-x="381" d="M314 384q4 0 7.5 -1.5t6.5 -4.5t4.5 -7t1.5 -9q0 -3 -1 -6t-2 -5.5t-3 -4.5t-4 -3.5t-4.5 -2.5t-5.5 -1h-108l-46 -123q-3 -7 -11 -10.5t-17 -0.5t-13 11t-1 16l40 107h-92q-8 0 -14 7t-6 16t6 15.5t14 6.5h108l43 116q2 8 10.5 11t17.5 0t13.5 -11t1.5 -15l-38 -101h92z " />
<glyph unicode="," horiz-adv-x="262" d="M91 25q-2 -11 -6 -15l-39 -62q-8 -14 -21 -7q-7 2 -8.5 8.5t2.5 12.5l19 34q-24 10 -22 36q2 16 13.5 25.5t26.5 8.5q10 -1 18.5 -7t13 -15t3.5 -19z" />
<glyph unicode="-" horiz-adv-x="399" d="M299 350q8 0 14 -6.5t6 -16.5q0 -6 -3 -11t-7.5 -8t-9.5 -3h-248q-6 0 -10.5 3t-7 8t-2.5 11q0 10 6 16.5t14 6.5h248z" />
<glyph unicode="." horiz-adv-x="262" d="M53 66q15 0 26.5 -11.5t11.5 -26.5q0 -10 -5.5 -18.5t-14 -13.5t-18.5 -5q-15 0 -26 11t-11 26.5t11 26.5t26 11z" />
<glyph unicode="/" horiz-adv-x="224" d="M329 791.5q9 -3.5 13.5 -12t0.5 -17.5l-308 -879q-4 -9 -12.5 -13t-17 -0.5t-12.5 11.5t-1 17l309 880q3 9 11 13t17 0.5z" />
<glyph unicode="0" horiz-adv-x="537" d="M492 617q0 -95 -31.5 -203t-82.5 -198t-122.5 -149t-145.5 -59q-63 0 -96 51t-35 131q0 69 17 150.5t50.5 160.5t77.5 145t100.5 107t114.5 43q73 4 113 -46t40 -133zM447 616q0 63 -27 99t-79 36q-59 0 -119.5 -59.5t-103.5 -145.5t-69.5 -183t-23.5 -172 q4 -138 85 -138q64 1 127.5 58t108.5 141t73 182t28 182z" />
<glyph unicode="1" horiz-adv-x="367" d="M387 762q0 -9 -11 -37l-266 -701q-5 -15 -23 -15q-11 0 -17.5 10t-2.5 21l224 590q-66 -83 -120 -130.5t-103 -49.5q-32 0 -50 16t-18 41q0 21 8 41q6 15 22 15q3 0 10 -2q12 -6 12 -21q0 -5 -1 -9q-6 -14 -6 -22q0 -13 22 -13q17 0 36 10.5t43 33t40.5 40t46.5 51.5 q25 27 47 54t33.5 43t21.5 29t17 18.5t13 5.5q10 0 16 -5t6 -14z" />
<glyph unicode="2" horiz-adv-x="491" d="M468 646q0 -57 -33 -125t-88.5 -134t-113.5 -122.5t-123 -108.5q-28 -24 -85 -69q57 10 105 10q99 0 229 -38q17 -5 17 -21q0 -12 -9 -18.5t-20 -4.5q-138 37 -217 37q-34 0 -63 -3.5t-49 -7.5t-77 -17q-5 -1 -13 -1q-12 0 -18.5 5t-6.5 13q0 15 18 28q67 45 160 122 q61 49 116.5 102t108.5 114.5t84.5 124.5t31.5 115q0 30 -15 51.5t-41 32t-59 10.5q-53 0 -91.5 -37t-56.5 -97q-1 -4 -4 -7.5t-7 -5.5t-8.5 -2.5t-8.5 0.5q-22 7 -17 29q15 48 42 84.5t66 58.5t84 22q72 0 117 -38t45 -102z" />
<glyph unicode="3" horiz-adv-x="481" d="M442 635q0 -106 -112 -175q-31 -19 -79 -37q41 -9 72 -30.5t49 -55t19 -73.5q0 -108 -78 -181t-184 -73q-82 1 -127.5 43.5t-45.5 116.5q0 51 40 95q6 6 15 6q10 0 16 -6.5t6 -16.5q0 -11 -7 -17q-11 -10 -18 -29t-7 -34q0 -54 33 -82.5t95 -30.5q89 0 152.5 62t63.5 145 q0 65 -50 95t-131 30q-14 0 -23 8t-9 16q0 24 27 32q93 25 149 57q41 25 64.5 60t23.5 75q0 32 -17 56.5t-43.5 37t-57.5 12.5q-46 0 -83 -28q-43 -35 -66 -106q-2 -4 -4.5 -7.5t-6.5 -5.5t-8.5 -2.5t-9.5 0.5q-9 3 -13 11t-2 18q26 84 83 127q47 38 108 38q30 0 55.5 -7 t45.5 -20.5t34.5 -32t22.5 -42t8 -49.5z" />
<glyph unicode="4" horiz-adv-x="505" d="M491.5 783q8.5 -3 13 -11.5t0.5 -17.5l-148 -428q20 3 30 10q8 5 17 3.5t14 -10.5q5 -7 3 -16t-10 -15q-20 -14 -71 -19l-87 -253q-4 -9 -12.5 -13t-17 -1t-12.5 11.5t0 17.5l80 233q-34 -1 -83 0t-88.5 2.5t-82 3t-63.5 1.5q-11 0 -16 5q-7 6 -7 15.5t7 16.5 q107 114 174 213.5t126 233.5q4 8 13 11t17 -1q9 -4 12.5 -12.5t-0.5 -17.5q-58 -129 -119 -222t-155 -198q4 0 125.5 -4.5t155.5 0.5l155 448q3 9 12 13t17.5 1z" />
<glyph unicode="5" horiz-adv-x="502" d="M536 772q4 -9 1 -18t-11 -13q-83 -42 -169 -42q-57 0 -129 17q-8 2 -11 -4l-74 -211q91 52 171 52q42 0 69 -19t39 -49.5t12 -71.5q-1 -60 -24.5 -128t-63.5 -126q-97 -142 -239 -148q-71 0 -112 37.5t-41 105.5q0 60 34 131q5 10 14 13t17 -1q9 -4 12 -13t-1 -17 q-31 -65 -31 -114q0 -33 14.5 -55t38 -32t55.5 -10q60 3 109 34t93 95q36 53 57.5 114t21.5 114q0 95 -75 95q-38 1 -88.5 -18.5t-86.5 -45.5q-3 -2 -16 -12q-11 -9 -15.5 -10.5t-16.5 2.5q-14 7 -14.5 16.5t6.5 27.5l4 12l88 247q12 36 22.5 41.5t31.5 -3.5q61 -21 129 -21 q74 0 148 38q9 4 18 1t13 -11z" />
<glyph unicode="6" horiz-adv-x="518" d="M518 692q3 -10 -1.5 -17.5t-14.5 -10.5q-9 -2 -17 2.5t-11 13.5q-7 28 -20.5 43.5t-31.5 21.5t-45 6q-39 0 -79.5 -26.5t-74.5 -70.5t-62 -93t-49 -102q77 51 183 51q63 0 98.5 -49t35.5 -124q0 -57 -21.5 -115.5t-57.5 -105t-87 -77t-106 -33.5q-72 -2 -110.5 47.5 t-38.5 131.5q0 68 10 116q-23 -33 -34 -53q-5 -8 -14 -10t-17.5 3t-10.5 14t3 17q42 74 98 131q23 73 57.5 141.5t77 125.5t94.5 91.5t104 34.5q53 0 91 -26.5t51 -77.5zM83 378q-29 -100 -29 -192q0 -64 25.5 -99t77.5 -35q58 2 111.5 46.5t84 109.5t30.5 129 q0 21 -3.5 40.5t-11 35.5t-18 27.5t-24.5 17.5t-31 6q-125 0 -212 -86z" />
<glyph unicode="7" horiz-adv-x="478" d="M538 768q19 -14 3 -36q-16 -25 -148 -163q-74 -79 -126 -145h43q6 0 11.5 -2.5t8.5 -8t3 -11.5q0 -10 -6.5 -16.5t-16.5 -6.5h-78q-104 -132 -190 -353q-4 -9 -12.5 -12.5t-17.5 -0.5q-8 3 -12 12t-1 18q33 84 85.5 184t91.5 152h-50q-6 0 -11 3t-8 8t-3 12q0 9 6.5 15.5 t15.5 6.5h84q58 78 151 176q14 16 47.5 51.5t52.5 55.5q-24 -4 -55 -4q-26 0 -124.5 21.5t-109.5 21.5q-19 0 -77 -115q-4 -9 -13 -12t-17 1q-9 4 -12 13t1 17q5 10 16 31t16.5 30.5t15 25.5t16 23.5t16 16.5t18.5 12.5t20 3.5q37 0 115.5 -21t118.5 -22q60 -2 88 14t44 4z " />
<glyph unicode="8" horiz-adv-x="523" d="M495 661q0 -46 -28.5 -96t-71.5 -83.5t-83 -33.5q-10 0 -16.5 6.5t-6.5 16.5q0 19 19 23q55 10 97.5 58.5t42.5 108.5q0 90 -126 90q-77 0 -132 -47t-55 -119q0 -22 7 -41.5t15.5 -32t27 -26.5t29.5 -21t34 -20q77 -44 115.5 -89t38.5 -113q-1 -66 -43 -120t-108.5 -83.5 t-140.5 -29.5q-75 0 -119.5 41t-44.5 110q0 95 58 165.5t161 115.5q-36 26 -55.5 59t-19.5 82q0 93 68 153.5t164 60.5q78 0 125.5 -35t47.5 -100zM214 411q-223 -86 -223 -251q0 -51 32.5 -78.5t86.5 -27.5q97 0 171 55t75 134q0 30 -9 53.5t-31.5 44t-43 34.5t-58.5 36z " />
<glyph unicode="9" horiz-adv-x="530" d="M517 542q0 -7 -3 -12q-44 -73 -98 -129q-142 -393 -351 -393q-55 0 -90 31.5t-35 78.5q0 9 6.5 15t16.5 6q9 0 15 -6t7 -15q1 -33 24 -49t56 -16q45 1 88 26t78 67t63.5 91t52.5 106q-77 -50 -158 -50q-77 0 -118 44.5t-41 124.5q0 81 37.5 158.5t101.5 126.5t133 49 q141 0 148 -178q2 -55 -9 -117q13 19 34 53q6 11 20 11q9 0 15.5 -6.5t6.5 -16.5zM375 424q32 108 30 193q-1 31 -7 55t-17.5 42t-31 27.5t-47.5 9.5q-43 0 -85.5 -26.5t-73 -68t-49 -93.5t-18.5 -102q0 -64 28 -93.5t85 -29.5q29 0 57 8.5t60 27.5t69 50z" />
<glyph unicode=":" horiz-adv-x="276" d="M110.5 232q15.5 0 26.5 -11t11 -26.5t-11 -26t-26.5 -10.5t-26.5 10.5t-11 26t11 26.5t26.5 11zM69.5 75q15.5 0 26.5 -11.5t11 -26.5q0 -10 -5 -18.5t-14 -13.5t-19 -5q-15 0 -26 10.5t-11 26t11 27t26.5 11.5z" />
<glyph unicode=";" horiz-adv-x="322" d="M168.5 266q15.5 0 26.5 -11.5t11 -26.5q0 -6 -2 -11.5t-5.5 -10t-8 -8t-10 -5.5t-12.5 -2q-15 0 -25.5 10.5t-10.5 26t10.5 27t26 11.5zM107 66q31 0 37 -36q7 -40 -22 -70q-22 -23 -57 -20q-23 1 -23 9t15 7q16 -2 28 5.5t17 22.5q2 7 -5 8q-12 4 -20 13.5t-8 22.5 q0 15 11.5 26.5t26.5 11.5z" />
<glyph unicode="&#x3c;" horiz-adv-x="528" d="M490.5 464q3.5 -9 -0.5 -17.5t-13 -11.5l-300 -112l225 -101q9 -3 12.5 -12t-0.5 -18q-4 -8 -13 -11t-18 0l-275 122q-10 4 -13 13q-2 7 -1 12.5t5 10t10 7.5l352 132q9 4 17.5 -0.5t12 -13.5z" />
<glyph unicode="=" horiz-adv-x="434" d="M357 422q9 0 14.5 -7t5.5 -16q0 -3 -0.5 -6t-2 -5.5t-3.5 -4.5t-4 -3.5t-4.5 -2.5t-5.5 -1h-248q-8 0 -13.5 6.5t-5.5 16.5q0 9 5.5 16t13.5 7h248zM306 279q8 0 13.5 -6.5t5.5 -16.5t-5.5 -16.5t-13.5 -6.5h-249q-8 0 -13.5 6.5t-5.5 16.5t5.5 16.5t13.5 6.5h249z" />
<glyph unicode="&#x3e;" horiz-adv-x="534" d="M95 194q-3 9 0.5 17.5t12.5 12.5l300 112l-224 100q-9 4 -12.5 13t0.5 18q4 8 12.5 11t17.5 -1l275 -122q10 -4 13 -13q4 -9 -0.5 -17.5t-13.5 -11.5l-352 -133q-9 -3 -17.5 1t-11.5 13z" />
<glyph unicode="?" horiz-adv-x="509" d="M556 615q0 -39 -11 -73.5t-26 -58t-42.5 -49t-47.5 -39.5t-54 -36q-40 -26 -59 -39.5t-40 -36t-35 -50.5q-26 -49 -30 -103q-1 -10 -8.5 -16t-17.5 -5q-9 1 -15 8.5t-5 16.5q8 66 35 120q23 45 57 76t93 67q30 20 47.5 32t42 34t37.5 41.5t23 48t10 59.5q0 45 -19 75.5 t-55 46.5t-87 16q-70 0 -114 -44.5t-44 -111.5q0 -27 8 -53q3 -9 -1 -17.5t-13 -10.5q-5 -2 -9.5 -1.5t-8 2.5t-6.5 5.5t-4 7.5q-12 36 -12 67q0 86 58 143.5t145 57.5q50 0 88.5 -11.5t65 -34t40.5 -56.5t14 -78zM171.5 51q15.5 0 27 -11t11.5 -26q-1 -16 -12 -26.5 t-26 -10.5q-16 0 -26.5 11t-10.5 26t10.5 26t26 11z" />
<glyph unicode="@" horiz-adv-x="785" d="M745 390q2 -66 -25 -136.5t-79 -120.5t-113 -50q-31 0 -53.5 14t-28.5 43q-43 -51 -93 -51q-68 0 -68 94q1 53 24.5 118t65.5 114t87 49q40 0 68 -33q2 7 9 23q3 8 11.5 11.5t17.5 0t12.5 -12t0.5 -17.5q-9 -24 -20.5 -55t-25 -69t-20.5 -56q-25 -70 -25 -97 q0 -16 9 -22.5t30 -6.5q48 0 88.5 43.5t61.5 103t21 113.5q-3 86 -58 131.5t-146 43.5q-86 -1 -163 -53t-121.5 -133.5t-44.5 -166.5q-1 -98 55 -155t148 -57q63 0 125 23q9 3 17.5 -0.5t11.5 -12.5t-0.5 -17.5t-12.5 -11.5q-71 -26 -141 -26q-113 0 -181.5 70.5 t-66.5 187.5q0 73 31 145.5t81 127.5t119 89t142 35q113 3 180.5 -56.5t69.5 -163.5zM487 321l17 43q0 55 -42 55q-31 0 -62.5 -45.5t-49.5 -100t-20 -92.5q0 -47 24 -47q17 0 33.5 13t29 30t27.5 46.5t23 48t20 49.5z" />
<glyph unicode="A" horiz-adv-x="826" d="M807 419q-37 -105 -48 -130q-116 -317 -116 -371q0 -51 17 -74.5t55 -23.5q6 0 11 -3.5t8.5 -9t3.5 -11.5q0 -9 -7 -16t-16 -7q-119 3 -119 145q0 23 11 67t35 113t36 102t39 105l4 11h-229q-30 -52 -54.5 -90.5t-59.5 -84t-66.5 -74t-70.5 -48t-77 -19.5 q-69 0 -116.5 41t-47.5 107q0 46 23.5 87.5t62 66t80.5 24.5q27 0 50 -11q13 -6 13 -20q0 -9 -6.5 -16t-16.5 -7q-1 0 -15.5 4.5t-24.5 4.5q-46 0 -83.5 -41.5t-37.5 -91.5q0 -45 34.5 -73.5t84.5 -28.5q27 0 53 11t51 33t46.5 45t45.5 57.5t40.5 60.5t39.5 63h-53 q-10 0 -17 7t-7 16q0 10 7 17t17 7h80q11 20 25 45.5t28.5 52t24.5 44.5q99 183 135 230q12 15 25.5 26.5t28 20t29.5 13t29 4.5q86 0 86 -100q0 -38 -13.5 -94t-24.5 -89.5t-33 -96.5zM764 435q1 4 8.5 24.5t10.5 28.5t10 28.5t10.5 32t9 30.5t8.5 32t6.5 29t5 29t1.5 24 q0 60 -42 60q-18 0 -39 -13.5t-36 -32.5q-36 -46 -132 -223q-5 -9 -29 -53.5t-38 -67.5h220z" />
<glyph unicode="B" horiz-adv-x="857" d="M819 572q0 -57 -32.5 -112t-84.5 -90l19 -22q54 -69 54 -167q0 -69 -29.5 -125.5t-84 -89.5t-123.5 -33q-83 0 -135 37.5t-52 102.5q0 50 33.5 84t77.5 34q36 0 63.5 -23.5t42.5 -62.5q2 -8 0.5 -14.5t-7.5 -11t-15 -4.5q-16 0 -21 15q-6 17 -16 29.5t-21.5 19.5t-24.5 7 q-27 0 -47 -22t-20 -51q0 -47 41 -71t101 -24q58 0 102 28t66.5 74t22.5 104q0 48 -18.5 93t-52.5 72q-18 -7 -47 -13t-48 -6q-27 0 -45 4t-30.5 16.5t-12.5 35.5q0 25 15 38.5t41 13.5q32 0 69.5 -10t62.5 -27q33 17 58 45.5t38.5 62t13.5 66.5q3 78 -54 128t-141 50 q-151 0 -228 -95t-82 -266q0 -11 -7.5 -17t-16.5 -6t-16 7t-7 16q0 120 40 210.5t121.5 143t196.5 52.5q104 0 173 -62.5t67 -163.5zM530 629q-28 -55 -77 -214q-1 -1 -1 -2q-18 -58 -27.5 -88t-28.5 -81.5t-33.5 -79.5t-39 -64t-48.5 -54.5t-57.5 -32t-70.5 -13.5 q-68 0 -113 40t-45 105q0 70 47.5 124t108.5 54q20 0 31 -4q16 -8 16 -22q0 -12 -9 -19t-20 -4q-5 2 -17 2q-43 0 -77 -40.5t-34 -88.5t31.5 -75t79.5 -27q24 0 46.5 8t40 19t35.5 32t30.5 39t27 48.5t23 51t20.5 57t18 56t18 56.5q1 4 1.5 5.5l1.5 4.5t1 6q48 158 80 222 q12 21 29 40t37 30.5t37 11.5q8 0 14.5 -5t8.5 -14q0 -22 -19 -26q-12 -2 -25 -11t-24 -21.5t-17 -25.5zM568 376q12 0 34 4q-8 3 -33.5 8t-32.5 5q-15 0 -15 -8.5t47 -8.5z" />
<glyph unicode="C" horiz-adv-x="640" d="M688 258q9 -4 12.5 -12.5t0.5 -17.5q-61 -148 -145.5 -224.5t-205.5 -76.5q-103 0 -158.5 59t-55.5 162q0 80 45 221q-84 20 -132.5 75t-48.5 136q0 36 9.5 74t27 72.5t41.5 64.5q6 7 17 7q9 0 16 -6t7 -17q0 -9 -6 -15q-19 -21 -34.5 -51.5t-24 -64t-8.5 -62.5 q0 -69 41 -111.5t112 -57.5q19 54 43.5 106t57.5 103.5t69 89.5t79.5 61.5t88.5 22.5q64 -2 99 -43.5t35 -107.5t-36 -121.5t-93.5 -90.5t-127 -54.5t-139.5 -19.5q-20 0 -47 3q-46 -146 -46 -214q0 -57 20.5 -97t58 -59.5t90.5 -19.5q107 0 180 68.5t129 204.5q3 9 12 12.5 t17 0.5zM243 405q9 -1 28 -1q61 0 123 16.5t113.5 46t84 76.5t32.5 102q0 48 -22.5 77t-65.5 29q-46 0 -92 -33.5t-84 -87t-67 -110.5t-50 -115z" />
<glyph unicode="D" horiz-adv-x="899" d="M863 438q0 -57 -10 -116.5t-28.5 -117t-47.5 -107.5t-65 -88t-83 -60t-99 -22q-78 0 -128.5 38.5t-50.5 102.5q0 52 33 85.5t78 33.5q37 0 64.5 -23.5t40.5 -63.5q3 -10 -3 -20t-18 -10q-16 0 -21 15q-6 16 -15 28.5t-21.5 20t-26.5 7.5q-27 0 -46.5 -21t-19.5 -52 q0 -46 39.5 -71t94.5 -25q54 0 102 29.5t81 78t57 110t36 125.5t12 123q0 69 -14 124t-42 97t-74.5 66.5t-109.5 27.5q-144 0 -227 -100.5t-84 -260.5q0 -10 -6.5 -16.5t-16.5 -6.5q-9 0 -16 7t-7 16q2 181 98.5 293.5t258.5 112.5q73 -3 128.5 -31t89.5 -76.5t50.5 -111.5 t16.5 -141zM541 629q-28 -55 -78 -214v-3q-14 -43 -21 -65.5t-21 -63.5t-24 -64.5t-27 -57.5t-31.5 -54t-35.5 -43.5t-42 -35.5t-47.5 -20.5t-55.5 -8.5q-68 0 -113 40t-45 106q0 70 47 124t109 54q16 0 31 -4q16 -6 16 -22q0 -7 -4 -13t-11 -8.5t-14 -1.5q-11 2 -17 2 q-44 0 -78 -40.5t-34 -88.5t32 -75.5t80 -27.5q23 0 45.5 8t40 19.5t35 32.5t30.5 39t27 48.5t23 51.5t21.5 57t18.5 55t17 56q3 11 5 17q47 158 80 222q35 66 98 82q24 5 27 -19q0 -22 -18 -26q-12 -2 -25.5 -11t-24 -21.5t-16.5 -25.5z" />
<glyph unicode="E" horiz-adv-x="514" d="M563 258q14 -7 14 -21q0 -3 -2 -9q-40 -96 -88.5 -160t-114.5 -98.5t-147 -34.5q-100 0 -162.5 58.5t-62.5 155.5q0 102 53 176t145 112q-47 51 -47 107q0 25 10 64q-48 21 -87.5 63t-63.5 94q-2 6 -2 10q0 13 13 20q6 2 9 2q14 0 21 -13q24 -49 50 -76t75 -58 q32 69 97 109.5t143 40.5q52 0 85 -23t33 -63q-2 -40 -37 -73t-86.5 -49.5t-104.5 -16.5q-48 0 -103 16q-5 -20 -5 -46q0 -49 47 -90q58 15 94 15q17 0 31.5 -5.5t24.5 -16.5t10 -26q0 -17 -8.5 -29.5t-22.5 -19t-33 -6.5q-49 0 -104 37q-58 -21 -101.5 -59.5t-67 -89 t-23.5 -106.5q0 -79 50.5 -123.5t129.5 -44.5q106 0 179.5 65.5t127.5 198.5q4 9 13 12.5t18 0.5zM218 634q42 -13 88 -13q62 0 121 27t61 66q0 20 -21 30.5t-51 10.5q-63 0 -117.5 -34t-80.5 -87zM302 420q24 -9 48 -7q4 0 6 1t3 2t1 2q0 6 -19 6q-13 0 -39 -4z" />
<glyph unicode="F" horiz-adv-x="682" d="M900 734q0 -34 -34.5 -54.5t-81.5 -20.5q-69 0 -149 13q-41 -67 -107 -267l-13 -42h96q10 0 16.5 -7t6.5 -17q0 -9 -6.5 -16t-16.5 -7h-111q-1 -3 -3 -8q-23 -63 -33.5 -92t-29 -75t-30 -65.5t-30.5 -48.5t-36 -40t-40.5 -24.5t-50.5 -17.5t-60 -4q-88 0 -138.5 55 t-48.5 139q5 97 73 162t160 67q10 0 16.5 -7t6.5 -16q0 -10 -6.5 -16.5t-16.5 -6.5q-73 0 -130.5 -55t-57.5 -129q0 -66 37.5 -107t104.5 -41q30 0 54.5 6.5t43 14.5t36.5 30t29.5 38.5t29 56t27.5 65t31 82.5q9 25 13 37h-62q-10 0 -16.5 7t-6.5 16q0 7 3 12t8 8.5t12 3.5 h78l18 56q63 200 103 262q-29 7 -119 33q-51 15 -76 21.5t-66.5 13.5t-75.5 7q-55 0 -98.5 -45t-43.5 -100q0 -28 9 -50t26 -35.5t39.5 -20.5t50.5 -7q46 0 99 23q6 2 10 2q11 0 16.5 -7.5t5.5 -15.5q0 -14 -13 -20q-59 -27 -119 -27q-78 0 -123.5 43t-45.5 114 q0 78 57 134.5t130 56.5q54 0 105.5 -11t125.5 -33q90 -25 136 -36q70 76 182 79q28 0 50.5 -7t36 -22.5t13.5 -36.5zM853 735q0 9 -17 14.5t-36 5.5q-61 -1 -125 -43q60 -8 109 -8q27 0 48 9t21 22z" />
<glyph unicode="G" horiz-adv-x="759" d="M808 256q14 -7 14 -21q0 -3 -2 -9q-52 -123 -126 -197t-189 -108q-78 -224 -196 -226q-32 0 -56.5 13t-37.5 37t-13 55q0 108 182 142q49 7 86 17l57 163q-110 -146 -232 -146q-53 2 -89 23.5t-53 58.5t-17 90q0 83 45 221q-84 20 -132.5 75t-48.5 136q0 60 26 124 q18 46 52 87q6 7 17 7q8 0 15 -5q8 -6 8 -18q0 -9 -6 -15q-27 -30 -44 -73q-23 -54 -23 -105q0 -69 41 -111.5t112 -57.5q62 178 145.5 282t173.5 104q46 0 80.5 -19t53.5 -54t19 -81q-3 -66 -38 -121t-91 -90.5t-125 -55t-142 -19.5q-20 0 -47 3q-46 -132 -46 -214 q0 -64 29 -94t85 -32q108 0 210 150q78 110 147 292l11 30q6 16 22 16q13 0 19.5 -9.5t1.5 -20.5l-80 -213q-7 -22 -26.5 -75.5t-30.5 -85.5l-45 -131q88 30 149 98t105 171q7 14 20 14q3 0 10 -2zM243 405q41 -5 86 0t87 19t80 36.5t66.5 50t45 62.5t16.5 72q0 49 -29.5 79 t-77.5 30q-74 0 -145 -93t-129 -256zM453 -92q-46 -9 -60 -12q-50 -8 -81 -21t-46.5 -31t-18.5 -43q0 -18 8 -32t22 -21.5t32 -6.5q89 1 144 167z" />
<glyph unicode="H" horiz-adv-x="875" d="M955 774q13 0 19.5 -9.5t1.5 -20.5l-56 -160q-14 -42 -46.5 -134.5t-49.5 -141t-20 -57.5q-59 -160 -81 -228.5t-23 -107.5q-2 -43 16 -69t57 -26q6 0 11.5 -3.5t8.5 -9t3 -11.5q-1 -9 -7.5 -16t-16.5 -7q-59 2 -88.5 40.5t-29.5 101.5q0 45 25 123.5t81 227.5l19 50 h-279q-5 -15 -14 -43q-12 -37 -18.5 -56.5t-19 -53t-22 -52.5t-25 -46t-30 -42t-35 -33t-42 -27.5t-49 -15.5t-58.5 -6q-88 0 -137.5 54t-49.5 140q0 95 70.5 161t162.5 68q10 0 16.5 -7t6.5 -16q0 -10 -6.5 -16.5t-16.5 -6.5q-74 0 -131 -53.5t-57 -130.5q0 -66 37.5 -107 t105.5 -41q23 0 43.5 4t38 13t32.5 18.5t28.5 26.5t24 30.5t21.5 37t18 39t17 43t15.5 43.5t15.5 46q1 4 3 10t3.5 11t2.5 8h-45q-9 0 -16 7t-7 16q0 7 3 12t8.5 8.5t11.5 3.5h61l18 56q1 4 4 14q53 166 93 239l3 6q-39 9 -128 36q-35 11 -53 16t-47.5 12.5t-55 10.5 t-50.5 3q-54 0 -98 -44t-44 -99q0 -57 34 -86t91 -29q46 0 99 23q6 2 10 2q11 0 16.5 -7.5t5.5 -15.5q0 -14 -13 -20q-59 -27 -119 -27q-78 0 -123.5 43t-45.5 114q0 78 57 134.5t130 56.5q37 0 78 -6.5t67.5 -14t74.5 -22.5q92 -29 145 -39q34 33 69 52q5 3 11 3 q11 0 16.5 -7t5.5 -15q0 -14 -13 -21q-60 -34 -83 -81q-37 -68 -94 -245l-13 -42h280q66 189 83 236q54 156 56 161q5 14 21 14z" />
<glyph unicode="I" horiz-adv-x="587" d="M770 780q0 -36 -45 -65.5t-109 -47.5q-5 -13 -33.5 -106.5t-33.5 -112.5q-14 -47 -22 -75.5t-23.5 -75.5t-28 -77t-32 -71t-38 -67t-43.5 -54.5t-51.5 -45t-59 -27t-68.5 -10.5q-80 0 -131.5 56t-51.5 143q0 60 35.5 112.5t90.5 82t113 28.5q9 0 15.5 -7t6.5 -17 q0 -8 -7 -14.5t-16 -6.5q-76 0 -134.5 -55t-58.5 -124q-1 -67 39 -110t100 -43q29 0 56.5 10t49 24.5t43.5 41t37.5 49t33 60.5t28 64t25.5 70.5t22.5 68t20.5 68.5q1 3 1.5 5t1.5 5t1 5q7 22 21 68t26 84t13 41l-32 -6q-5 -1 -15 -4q-28 -6 -43 -9.5t-42 -11.5t-42 -14 t-35 -16.5t-30.5 -22t-18 -26.5t-7.5 -32q-1 -42 24 -69.5t61 -27.5q10 0 16.5 -7t5.5 -17q0 -9 -7 -15.5t-16 -6.5q-56 0 -94 42t-36 102q0 20 5 37t11 30t18.5 25t22.5 20t28.5 16t31 13t36 11t37 9l40.5 9t40 9l58 13q20 54 53.5 93.5t71.5 39.5q29 0 46.5 -16t17.5 -42z M637 721q33 7 58.5 26t25.5 33q0 6 -4 10.5t-11 4.5q-16 0 -35.5 -21.5t-33.5 -52.5z" />
<glyph unicode="J" horiz-adv-x="562" d="M523 710q13 33 30 61t42 47.5t51 19.5q28 0 46 -16t18 -42q0 -36 -45.5 -65.5t-109.5 -47.5q-30 -101 -109 -338.5t-120 -353.5q82 24 147 96.5t108 172.5q5 14 21 14q11 0 18 -10t3 -22q-54 -124 -128 -199t-187 -106l-13 -39q-14 -37 -24 -61t-25 -50.5t-30.5 -41 t-37.5 -24.5t-49 -11q-59 0 -93 28t-36 78q0 16 2 29.5t8 24.5t11 20t15.5 16.5t18 13t22.5 11t24 8.5t28 7l28.5 6t30.5 6q46 7 84 17q72 203 152.5 446t80.5 255q-19 -4 -69 -11q-29 -4 -42.5 -6.5t-42.5 -8t-45 -9.5t-41.5 -11t-40.5 -14t-34.5 -16.5t-31 -21t-22.5 -25 t-15.5 -30t-4.5 -35.5q-2 -41 20 -66.5t65 -30.5q9 0 15 -7t6 -17q0 -9 -6.5 -15.5t-15.5 -6.5q-58 0 -94.5 42t-35.5 103q0 26 7.5 49.5t19 41t32 33t38.5 26.5t47.5 21t50.5 16t55.5 13t54 10.5t54.5 8.5q64 11 94 17zM577 721q32 7 58 26t26 33q0 6 -4.5 10.5t-10.5 4.5 q-17 0 -36 -21.5t-33 -52.5zM252 -103l3 11l-60 -12q-3 0 -11 -2q-25 -4 -37.5 -6.5t-32 -8t-29.5 -11.5t-20.5 -15.5t-15 -22t-4.5 -29.5q0 -32 23.5 -46.5t58.5 -14.5q17 0 31 5.5t25.5 17.5t19.5 23t17.5 32.5t15.5 36t16 42.5z" />
<glyph unicode="K" horiz-adv-x="870" d="M1119 814q0 -17 -16 -22q-24 -8 -48 -25t-53 -48.5t-46 -52t-52 -64.5q-39 -49 -59 -73t-55 -62t-68 -62t-68 -39q83 -51 83 -218q0 -51 -12 -151q-8 -58 -8 -82q0 -95 74 -95q9 0 15.5 -7t6.5 -17q0 -9 -7 -16t-15 -7q-59 0 -89 37.5t-30 104.5q0 22 7 87q11 87 12 146 q0 100 -32 148t-102 50q-9 0 -15.5 6.5t-6.5 15.5t6.5 16t15.5 7q30 0 59 8.5t57.5 28.5t50.5 38t51.5 51t46 53.5t46.5 59.5q30 37 51.5 63t56.5 64t66 58.5t54 20.5q9 0 16 -6t7 -16zM622 650q-37 -68 -94 -245q-12 -38 -22.5 -71t-14.5 -46t-5 -15q-12 -36 -18.5 -56.5 t-19 -53.5t-22 -52.5t-25 -46t-30 -42t-34.5 -33t-42 -27t-49.5 -15.5t-58.5 -6q-88 0 -138.5 55t-48.5 139q5 97 73 162t160 67q10 0 16.5 -7t6.5 -16q0 -10 -6.5 -16.5t-16.5 -6.5q-48 0 -90 -24.5t-68 -66.5t-30 -93q0 -67 38 -107.5t105 -40.5q32 0 60 9.5t49 22.5 t40.5 39t32 46.5t27.5 57.5t23 60.5t22 65.5l43 132q1 4 4 14q53 166 93 239l3 6q-39 9 -128 36q-35 11 -53 16t-47.5 12.5t-55 10.5t-50.5 3q-36 0 -69 -20.5t-53 -54.5t-20 -72q0 -55 34 -83t91 -28q46 0 99 23q6 2 10 2q11 0 16.5 -7.5t5.5 -15.5q0 -14 -13 -20 q-59 -27 -119 -27q-77 0 -123 42.5t-46 113.5q0 52 26.5 96.5t69.5 70t91 25.5q37 0 78 -6.5t67.5 -14t74.5 -22.5q92 -29 145 -39q34 33 69 52q5 3 11 3q14 0 20 -13q2 -6 2 -9q0 -14 -13 -21q-57 -31 -83 -81z" />
<glyph unicode="L" horiz-adv-x="548" d="M468 707q20 54 53.5 93.5t71.5 39.5q28 0 46 -16t18 -42q0 -36 -45.5 -65.5t-109.5 -46.5q-31 -79 -71 -215q-55 -175 -80 -237q-25 -60 -51 -100q2 -2 89 -86l13 -13q35 -35 53.5 -52.5t51 -46t56 -42.5t53.5 -25.5t57 -11.5t51 7t42.5 20.5t27.5 32.5q5 14 20 14 q7 0 12.5 -4.5t8 -9.5t2.5 -10q0 -2 -2 -9q-19 -43 -65 -65t-98 -22q-24 0 -50 7.5t-45.5 15.5t-48.5 29t-43 31.5t-46 41t-40.5 38.5t-42.5 42q-81 78 -82 79q-6 -9 -9 -12q-29 -34 -69.5 -53t-83.5 -19q-112 8 -112 103q3 55 36.5 87t82.5 32q64 0 147 -70q21 35 43 88 q28 73 78 234q36 120 62 191q-18 -4 -66 -11q-41 -6 -62.5 -10t-60 -12t-59.5 -15.5t-49 -20t-44 -27t-28.5 -35t-15.5 -44.5q-1 -4 -1 -13q-2 -37 18 -64q21 -28 56 -32l11 -1q10 0 16 -7t6 -17q0 -9 -7 -15.5t-17 -6.5q-11 0 -15 1q-56 8 -87 51q-28 37 -27 93q0 12 1 17 q4 25 13.5 46t21 37.5t32 30.5t37.5 24t45.5 19.5t47.5 15t53 12t53 9.5t55 8zM524 724q32 7 58 25.5t26 32.5q0 6 -4.5 10.5t-10.5 4.5q-11 0 -24.5 -11t-24.5 -27t-20 -35zM230 96q7 9 11 13q-78 63 -123 63q-29 0 -50 -20.5t-23 -53.5q0 -20 9.5 -33.5t24 -19t33.5 -5.5 q32 0 64 15.5t54 40.5z" />
<glyph unicode="M" horiz-adv-x="1146" d="M1190 656q1 -13 0 -26t-4 -28.5t-5 -27.5t-8 -31.5t-9.5 -30.5t-11.5 -34.5t-12 -34.5t-14 -39t-15 -40q-144 -394 -144 -462q0 -24 10 -41.5t27 -26t38 -8.5q9 0 15.5 -6t6.5 -14.5t-6.5 -15t-15.5 -6.5q-36 0 -63.5 15.5t-41.5 42t-14 60.5q0 12 3.5 31.5t10.5 45.5 t14 51.5t19 60.5t20.5 61t22 64t21 59t20.5 57t17 47q5 13 13 35.5t12.5 33.5t11 30t10 30t8.5 27t8 26.5t6 24.5t4.5 24.5t2.5 22.5t1 23q0 35 -11 57.5t-32.5 32.5t-53.5 10q-54 0 -111 -51t-103 -123q-55 -182 -82.5 -267.5t-100.5 -292.5q-5 -16 -21 -16q-13 0 -19 10 t-3 21q100 279 175 533q16 55 16 94q0 45 -16.5 72.5t-51.5 27.5q-25 0 -56.5 -19.5t-58.5 -45t-62 -69t-56.5 -73.5t-53.5 -76l-81 -249q-45 -139 -75.5 -187t-82.5 -48q-28 0 -42.5 19t-14.5 49q2 80 154 278q4 7 51.5 81t49.5 77l84 257q-6 -4 -18 -13q-44 -32 -70 -49.5 t-70 -42t-85.5 -36t-83.5 -11.5q-50 0 -88.5 20.5t-58.5 60t-15 91.5q1 8 8 13.5t15 5.5q7 0 12 -3.5t7.5 -9t2.5 -12.5q0 -59 31 -90t86 -31q29 0 62 10t60.5 22.5t64.5 35t59 38t58 41.5q10 8 28.5 20.5t25.5 17.5q5 4 13 4q13 0 18.5 -10t2.5 -20l-60 -186q38 49 63 77.5 t56 56t60.5 39.5t62.5 12q51 0 81 -39.5t30 -98.5q104 127 203 127q139 0 139 -142zM323 246l27 83q-2 -4 -8 -11q-20 -31 -44 -65.5t-37 -53t-27.5 -40.5t-21 -36.5t-11 -30.5t-4.5 -32q0 -17 11 -17q32 0 54.5 42t60.5 161z" />
<glyph unicode="N" horiz-adv-x="828" d="M1 778q1 10 7 15t14 5t14.5 -5.5t6.5 -15.5q0 -64 31 -95t96 -31q32 0 69.5 12.5t80.5 38t68.5 42t65.5 45.5q9 6 13 9q25 20 54 39q4 3 11 3q12 0 18 -8q6 -10 3 -20l-63 -191q69 88 124.5 132.5t122.5 44.5q70 0 100.5 -35.5t30.5 -100.5q1 -49 -16 -115.5t-61 -199.5 q-12 -34 -53 -150.5t-62 -183t-22 -89.5q0 -49 18 -72.5t56 -25.5q9 0 15.5 -6t6.5 -14q0 -9 -6.5 -15.5t-15.5 -6.5q-57 0 -87 37t-30 103q1 17 8 46t21.5 74t29.5 88t38.5 110.5t41.5 118.5q43 129 59.5 193.5t16.5 107.5q-2 93 -89 93q-31 0 -63.5 -17t-59.5 -41 t-60.5 -64.5t-55 -71.5t-53.5 -78q-18 -55 -48 -148q-68 -214 -99.5 -274.5t-91.5 -60.5q-55 0 -55 66q0 22 11 52t32 65t35.5 58t39.5 57t26 36l111 168l85 262q-49 -36 -75.5 -53.5t-75.5 -46t-91 -42t-79 -13.5q-80 0 -128 47t-41 122zM353 340l-24 -32 q-134 -180 -136 -243q0 -22 14 -22q13 0 23 4.5t20.5 19t19.5 32t22.5 56t26.5 77.5t34 108z" />
<glyph unicode="O" horiz-adv-x="793" d="M854 225q-66 -158 -164 -158q-51 0 -81 30q-54 -68 -110 -103.5t-125 -35.5q-90 0 -134.5 60t-44.5 163q0 70 18.5 155.5t47.5 151.5q-28 -4 -62 -4q-91 0 -145 41.5t-54 113.5q0 39 15 69t44 60q7 6 16 6t17 -7q6 -7 6 -15q0 -10 -6 -17q-17 -16 -26.5 -29.5t-15 -30 t-5.5 -36.5q0 -52 43 -81t111 -29q39 0 86 9q48 94 109.5 153t132.5 59q24 0 38.5 -12t14.5 -35q0 -43 -43.5 -87t-103 -74.5t-117.5 -43.5q-36 -74 -55.5 -158t-19.5 -159q0 -178 133 -178q59 0 113.5 38t94.5 97q-8 22 -8.5 51t7.5 51q6 17 23 17q11 0 17.5 -9t3.5 -20 q-3 -10 -5 -31q54 93 87.5 202t33.5 203q0 50 -10.5 86.5t-37 59.5t-67.5 23q-25 0 -58 -7q-8 -2 -15 0.5t-10.5 7.5t-3.5 11q0 19 18 25q32 8 65 8q58 0 95.5 -29t53 -75.5t15.5 -111.5q0 -108 -43 -238t-108 -227q18 -23 52 -23q38 0 67.5 32.5t57.5 98.5q5 14 21 14 q11 0 18.5 -10.5t2.5 -21.5zM346 554q70 26 129 65t59 71q0 14 -15 14q-80 0 -173 -150z" />
<glyph unicode="P" horiz-adv-x="789" d="M840 603q0 -77 -31.5 -144.5t-90.5 -109.5t-133 -42q-47 0 -100 20q-15 5 -15 22q0 10 6.5 15.5t14.5 5.5q6 0 9 -1q48 -17 89 -17q59 0 107.5 37.5t73.5 94.5t25 119q0 57 -28 97.5t-76.5 60t-112.5 19.5q-90 0 -157 -49t-100.5 -130t-33.5 -182q0 -9 -6.5 -16t-16 -7 t-16 7t-6.5 16q0 87 23 161t66.5 129t109.5 86t148 31q110 0 180.5 -62t70.5 -161zM561 657q-33 -64 -84 -242q-2 -10 -8 -29q-20 -69 -32 -106t-35 -100t-45 -98.5t-52 -74t-68 -56t-81 -17.5q-68 0 -112 41.5t-44 106.5q0 71 47 124t111 53q45 0 45 -26q0 -11 -9.5 -18 t-19.5 -3q-6 2 -18 2q-44 0 -77.5 -41t-33.5 -89t32.5 -76.5t79.5 -28.5q30 0 57 14t48 32.5t42.5 57t36 68t33.5 85.5t29.5 90.5t29.5 100.5q57 191 88 250q15 32 45.5 57t55.5 25q9 0 16 -5t8 -13q3 -22 -20 -27q-35 -4 -65 -57z" />
<glyph unicode="Q" horiz-adv-x="763" d="M1035 -130q0 -3 -3 -9q-9 -21 -26.5 -37.5t-39 -27.5t-46.5 -17t-51 -6q-32 0 -64 11t-56 24.5t-54.5 40t-47 43.5t-47.5 50q-48 51 -72 72q-71 -56 -154 -56q-91 0 -135 60t-44 163q0 70 18.5 155.5t47.5 151.5q-28 -4 -62 -4q-58 0 -102.5 18t-70.5 53.5t-26 83.5 q0 39 15 69t44 60q7 6 16 6t17 -7q6 -7 6 -15q0 -10 -6 -17q-17 -16 -26.5 -29.5t-15 -30t-5.5 -36.5q0 -27 12.5 -48.5t33.5 -34.5t48.5 -20t59.5 -7q39 0 86 9q48 94 109.5 153t132.5 59q24 0 38.5 -12t14.5 -35q0 -33 -25.5 -67t-65.5 -60.5t-85 -47t-88 -30.5 q-36 -74 -55.5 -158t-19.5 -159q0 -178 133 -178q60 0 117 40q-43 30 -82 28q-21 0 -45 -18q-7 -7 -16 -7t-16 7t-7 16q0 10 8 17q37 31 75 31q59 3 119 -44l10 10q84 88 144 240.5t60 278.5q0 50 -10.5 86.5t-37 59.5t-67.5 23q-11 0 -34 -4.5t-29 -4.5q-11 0 -17.5 6.5 t-6.5 13.5q0 21 22 27.5t61 6.5q84 0 124 -58t40 -158q0 -134 -63.5 -295.5t-153.5 -253.5l-6 -7q30 -27 70 -71q26 -27 37 -38t35 -34t39.5 -33.5t38 -24t44 -18.5t43.5 -5q38 0 73 16t48 43q7 14 21 14q9 0 16 -7t7 -16zM346 554q68 26 128.5 67t60.5 72q0 11 -16 11 q-79 0 -173 -150z" />
<glyph unicode="R" horiz-adv-x="783" d="M820 575q-3 -86 -62 -151t-152 -90q72 -52 72 -193q0 -39 -9 -128.5t-9 -97.5q1 -26 5.5 -43.5t13.5 -29.5t22.5 -17t31.5 -5q5 0 8.5 -1t6.5 -3t5.5 -4.5t3.5 -6t1 -7.5q0 -10 -7 -17.5t-18 -7.5q-58 0 -88 38t-30 104q0 21 9 102.5t9 122.5q0 38 -6 67t-20 55 t-41.5 40.5t-67.5 15.5q-6 0 -11 2t-8.5 5t-5 7t-1.5 8q0 10 7 16.5t19 6.5q74 3 135.5 29t100 74t40.5 109q3 83 -56 130.5t-152 46.5q-95 -2 -163.5 -50t-102 -127.5t-33.5 -182.5q0 -10 -6.5 -16.5t-16.5 -6.5q-9 0 -16 7t-7 16q0 116 40.5 207.5t119.5 145t185 53.5 q115 0 186.5 -62.5t67.5 -160.5zM572 669q-7 -7 -14.5 -15.5t-14.5 -21.5t-12.5 -23.5t-13 -29.5t-11.5 -30t-11.5 -34t-10.5 -32.5t-10.5 -35t-10.5 -32.5q0 -1 -1 -4q-20 -65 -31.5 -99t-33.5 -92t-43 -89.5t-50.5 -66.5t-66 -50.5t-79.5 -15.5q-68 0 -113 40.5t-45 106.5 q0 70 47 124t109 54q47 0 47 -26q0 -8 -3.5 -13.5t-10 -8.5t-14.5 -1q-11 2 -18 2q-44 0 -78 -41t-34 -90q0 -47 32.5 -74.5t79.5 -27.5q23 0 45 8t40 19t35.5 32.5t30 39.5t27 48.5t23.5 51.5t21 57t18 55t18 56q3 12 5 18q17 56 21.5 70.5t19 58.5t24 62.5t25 44 t32.5 40.5q32 28 58 28q11 0 18 -5.5t7 -13.5q0 -22 -19 -26q-17 -3 -34 -18z" />
<glyph unicode="S" horiz-adv-x="596" d="M549 728q-3 -48 -37 -85.5t-93 -56.5q12 -43 49 -123q22 -48 33.5 -76.5t23 -73t11.5 -83.5q0 -83 -38.5 -148t-104.5 -100.5t-147 -35.5q-107 0 -176.5 66.5t-69.5 165.5q0 96 65 166t153 70q66 0 108.5 -46t42.5 -110q0 -11 -2 -19q-4 -17 -20 -17q-11 0 -18 7.5 t-6 17.5q5 48 -25.5 84.5t-79.5 36.5q-71 0 -122 -57.5t-51 -135.5q0 -80 58.5 -132t145.5 -52q106 0 173.5 68.5t67.5 170.5q0 27 -4.5 54t-16 57.5t-19.5 49.5t-23 54q-39 86 -52 133q-33 -2 -53 -2q-217 0 -309 189q-2 6 -2 10q0 11 7.5 16.5t14.5 5.5q15 0 21 -13 q78 -163 266 -163q18 0 46 2q-2 20 -2 28q0 61 32.5 109t85.5 48q33 0 50.5 -23t16.5 -57zM503 728q0 34 -26 34q-21 0 -36.5 -17.5t-23 -42t-7.5 -50.5q0 -14 1 -20q92 34 92 96z" />
<glyph unicode="T" horiz-adv-x="668" d="M984 759q-3 -65 -129 -65q-74 0 -188 22q-17 -18 -33 -42q-41 -70 -106 -275q-28 -93 -45.5 -146t-42 -114t-47 -93t-53.5 -61.5t-68.5 -40.5t-84.5 -10q-82 0 -134.5 55t-52.5 140q0 93 71 160.5t162 67.5q7 0 12 -2.5t8 -8t3 -11.5q0 -10 -6.5 -16.5t-16.5 -6.5 q-72 0 -130 -55.5t-58 -127.5q0 -68 40.5 -109t101.5 -41q39 0 70.5 11t57.5 38t44 51.5t37.5 73.5t30 79.5t30.5 93.5q18 57 28 87q62 202 110 284q2 3 4.5 7t5 7t5.5 7.5l5 7.5q-28 6 -101.5 27t-138.5 34.5t-119 13.5q-84 0 -130.5 -38.5t-46.5 -106.5q1 -56 34.5 -84.5 t90.5 -28.5q48 0 98 23q7 2 11 2q10 0 16 -7.5t6 -15.5q0 -14 -13 -20q-59 -27 -119 -27q-30 0 -56 7t-47 20.5t-36 32t-23 43.5t-8 55q0 90 59.5 141t165.5 51q51 0 120.5 -15.5t150 -37.5t124.5 -30q20 16 45 29.5t51 22t52.5 13t51.5 4.5q52 0 91.5 -20t39.5 -55z M855 740q82 0 82 20q0 6 -8.5 11.5t-22 9t-28 5.5t-26.5 2q-21 0 -45 -4t-47.5 -12t-41.5 -18q84 -14 137 -14z" />
<glyph unicode="U" horiz-adv-x="838" d="M451 710q13 33 30.5 61.5t43 48.5t51.5 20q28 0 45.5 -16t17.5 -42q0 -36 -45 -65.5t-109 -46.5q-46 -114 -103.5 -311.5t-57.5 -245.5q0 -97 73 -97h2q24 0 46.5 7.5t42.5 20.5t39.5 35t36 45.5t35 58t33.5 66t33 76.5t32.5 83.5t33.5 91.5q10 28 25 68t27 72.5t27 74 t28 76.5q5 15 22 15q10 0 15.5 -6.5t5.5 -15.5q0 -5 -1 -9l-106 -290l-58 -163q-49 -146 -49 -220q0 -57 30 -57q18 0 36.5 11t32 25.5t29 40t24 43t21.5 45.5q4 6 9 17.5t7 16.5q7 13 21 13q11 0 17 -7.5t6 -15.5q0 -4 -3 -10q-9 -21 -16 -34q-15 -33 -25 -52t-29 -49 t-36.5 -46.5t-42 -29.5t-51.5 -13q-75 0 -75 102q0 21 1 33q-32 -52 -63 -86.5t-73 -56.5t-88 -22h-3q-58 1 -87.5 39.5t-29.5 103.5q0 50 46.5 213.5t106.5 333.5q-24 -5 -66 -11q-2 0 -7 -1q-40 -6 -61 -10t-59.5 -12.5t-60.5 -16.5t-51 -21.5t-44 -29t-26.5 -38 t-11.5 -48.5q-1 -42 24 -69.5t62 -27.5q9 0 15.5 -7t6.5 -17q0 -9 -7.5 -15.5t-15.5 -6.5q-56 0 -93 41.5t-37 101.5q0 27 7.5 50t19.5 41t32 34t39 27t47.5 21.5t50.5 16.5t55 12.5t53.5 10t54.5 8.5zM507 724q32 7 58 25.5t26 32.5q0 6 -4.5 10.5t-10.5 4.5q-12 0 -25 -11 t-24 -27t-20 -35z" />
<glyph unicode="V" horiz-adv-x="771" d="M451 710q13 33 30.5 61.5t43 48.5t51.5 20q28 0 45.5 -16t17.5 -42q0 -36 -45 -65.5t-109 -46.5q-26 -65 -61 -174t-64.5 -225.5t-29.5 -164.5q0 -101 66 -101q19 0 37.5 8t34.5 20t34 34.5t32 42.5t31.5 53t29.5 57.5t30 65t28.5 65.5t29.5 69q20 48 30 72.5t29.5 68.5 t31.5 67.5t31.5 59t34 55t35 43.5t38.5 35.5t40 20t44 8.5q10 0 17 -6.5t7 -16t-6.5 -16t-16.5 -6.5q-16 0 -31 -5t-30 -17.5t-28.5 -25t-28.5 -35.5t-26.5 -41t-27 -49t-25.5 -52t-26 -58t-25 -58t-25 -61q0 -1 -1 -1q-20 -49 -30.5 -74t-30.5 -70t-33 -69.5t-33 -61 t-35.5 -57t-36.5 -45t-40.5 -37t-42 -21t-46.5 -8.5q-111 0 -111 145q0 54 27.5 166.5t59 211.5t60.5 178q-24 -5 -66 -11q-3 0 -10 -2q-39 -6 -60.5 -9.5t-59.5 -12t-60 -16.5t-50 -21.5t-43.5 -29t-26.5 -38t-11 -48.5q0 -42 25 -69.5t61 -27.5q9 0 15.5 -7t6.5 -17 q-2 -22 -23 -22q-57 0 -93.5 42t-36.5 103q0 27 7.5 50t19 41t32 33.5t39 26.5t48 21t50.5 16t55 13t54 10t54 8q64 11 92 17zM507 724q32 7 58 25.5t26 32.5q0 6 -4.5 10.5t-10.5 4.5q-12 0 -25 -11t-24 -27t-20 -35z" />
<glyph unicode="W" horiz-adv-x="1026" d="M450 707q21 54 54.5 93.5t71.5 39.5q28 0 45.5 -16t17.5 -42q0 -36 -45 -65.5t-109 -46.5q-47 -117 -105.5 -320t-58.5 -248q0 -96 74 -99q81 0 186 226q24 50 92.5 240t77.5 228q4 17 22 17q12 0 19 -10t3 -20q-5 -14 -14 -42q-51 -154 -75.5 -229.5t-47 -167 t-22.5 -138.5q0 -102 67 -102q28 0 52.5 15t47.5 48.5t40 65t38 88.5t33 93t33 104q1 3 3 8q15 48 23 72t23 67t24.5 66.5t25.5 58t29 54t30.5 42.5t34.5 35t38 20t43 8q10 0 17 -6.5t7 -16t-6.5 -16t-15.5 -6.5q-16 0 -30.5 -5t-28 -17t-25 -24.5t-24.5 -35t-22.5 -39.5 t-21.5 -48t-20 -51t-20.5 -56.5t-19 -57t-19.5 -60.5q-1 -4 -2 -6q0 -2 -1 -5q-20 -62 -30.5 -94.5t-31 -87.5t-35 -85t-37.5 -68.5t-44 -58t-49 -33.5t-59 -14q-55 0 -83.5 41t-28.5 107q0 14 2 44q-101 -193 -198 -193q-120 3 -120 144q0 33 24 128.5t60.5 213t72.5 216.5 q-24 -5 -66 -11q-3 0 -10 -2q-39 -6 -60.5 -9.5t-59.5 -12t-60 -16.5t-50 -21.5t-43.5 -29t-26.5 -38t-11 -48.5q0 -42 25 -69.5t61 -27.5q7 0 12 -3.5t7.5 -8t2.5 -10.5t-2.5 -11.5t-8 -9t-12.5 -3.5q-57 0 -94.5 42t-35.5 103q0 34 12.5 62t30.5 48t50 37t58.5 27t69 20 t68.5 14.5t70 10.5q12 2 30 4.5t33.5 5t27.5 4.5zM507 724q32 7 58 25.5t26 32.5q0 6 -4.5 10.5t-10.5 4.5q-12 0 -25 -11t-24 -27t-20 -35z" />
<glyph unicode="X" horiz-adv-x="811" d="M1103 805q6 -7 6 -15.5t-7 -16.5q-7 -6 -17 -6t-16 7q-16 17 -40 17q-19 0 -39 -8.5t-37 -20t-38.5 -35t-36 -41t-38 -50.5t-36 -52.5t-37.5 -57.5q-14 -22 -21 -32q-90 -137 -146 -214q3 -26 6.5 -69.5t5.5 -72t6 -68t8.5 -66t10.5 -57.5t13.5 -50.5t17.5 -37t23 -26 t28 -8.5q18 0 37 12q7 5 14 5q10 0 17 -8q6 -8 6 -14q0 -10 -9 -19q-29 -21 -65 -21q-22 0 -40 6.5t-31.5 23.5t-24 33t-19 47t-13.5 53t-10 63.5t-7.5 66t-6.5 72.5q-5 54 -8 81q-46 -60 -89.5 -106t-92.5 -84t-100.5 -58.5t-102.5 -20.5q-76 0 -125 47t-49 118 q0 34 14.5 68.5t39.5 61.5q8 7 17 7t16 -7t7 -15q0 -10 -7 -17q-42 -45 -42 -98t37 -86.5t92 -33.5q48 0 98 22.5t99 65t92.5 91t90.5 112.5q-11 104 -15 216.5t1 163.5q-49 -8 -80 -12q-37 -5 -65.5 -10t-63 -14t-58.5 -22t-45.5 -31t-32.5 -44t-11 -58q0 -34 23.5 -63 t50.5 -29q6 0 11 -3.5t8 -9t3 -11.5q-1 -10 -7.5 -15.5t-16.5 -5.5q-30 0 -57.5 20.5t-44 53t-16.5 65.5q0 35 10 63.5t25.5 49.5t41 38t50.5 27.5t59.5 19.5t63 14t66.5 10q60 8 94 14q6 51 31.5 84.5t68.5 33.5q28 0 45 -15.5t17 -40.5q0 -35 -35 -60.5t-87 -38.5 q-13 -100 7 -333q55 81 112 169q7 10 19 29q28 43 42.5 65t41 58.5t42.5 55.5t40.5 43.5t44.5 36t44 20.5t48 9q44 0 74 -31zM649 793q-19 -1 -31 -16t-21 -44q66 24 66 49q0 11 -14 11z" />
<glyph unicode="Y" horiz-adv-x="826" d="M451 708q21 54 54.5 93.5t71.5 39.5q28 0 45.5 -16t17.5 -42q0 -35 -45 -65t-109 -47q-31 -75 -64 -179.5t-54.5 -193.5t-21.5 -123q0 -97 74 -97q86 0 160 103q9 13 16.5 24t13.5 20t13 22t11 20.5t12.5 26t12 27t14.5 35t16 39t19.5 49t22.5 56.5q10 28 25 68t27 72.5 t27 74t28 76.5q5 15 22 15q10 0 15.5 -6.5t5.5 -15.5q0 -5 -1 -9l-106 -290q-1 -2 -24.5 -68t-52 -146t-56 -155.5t-33.5 -92.5l-17 -48q88 30 149 98t105 171q7 14 20 14q3 0 10 -2q14 -7 14 -21q0 -3 -2 -9q-52 -123 -126 -197t-189 -108q-78 -224 -196 -226 q-49 0 -78 28.5t-29 76.5q0 108 182 142q49 7 86 17q2 7 59 170q-78 -97 -176 -97q-58 0 -89.5 39t-31.5 104q1 51 41 195.5t93 289.5q-22 -4 -67 -11q-3 0 -10 -2q-39 -6 -60.5 -9.5t-59.5 -12t-60 -16.5t-50 -21.5t-43.5 -29t-26.5 -38t-11 -48.5q0 -42 25 -69.5t61 -27.5 q9 0 15.5 -6.5t6.5 -16.5t-6 -16.5t-17 -6.5q-57 0 -93.5 42t-36.5 103q0 27 7.5 50t19 41t32 33.5t39 26.5t48 21t50.5 16t55 13t54 10t54 8zM508 725q32 7 58 25.5t26 32.5q0 6 -4.5 10.5t-10.5 4.5q-9 0 -18.5 -6t-18.5 -16.5t-17.5 -23.5t-14.5 -27zM519 -92 q-45 -9 -59 -12q-50 -8 -81 -21t-47 -31t-18 -43q0 -18 8 -32t22 -21.5t32 -6.5q89 1 143 167z" />
<glyph unicode="Z" horiz-adv-x="677" d="M946 774q0 -34 -28.5 -51t-72.5 -17q-32 0 -121 19q-91 -116 -317 -450q-78 -116 -109 -155q30 -27 91 -88l13 -13q35 -35 53.5 -52.5t51 -46t56 -42.5t53.5 -25.5t57 -11.5t51 7t42.5 20.5t27.5 32.5q5 14 20 14q4 0 10 -2q13 -8 13 -22q0 -2 -2 -9q-19 -43 -65 -65 t-98 -22q-24 0 -50 7.5t-45.5 15.5t-48.5 29t-43 31.5t-46 41t-40.5 38.5t-42.5 42q-45 45 -87 84q-40 -44 -77 -66.5t-80 -22.5q-55 0 -83.5 27t-28.5 76q0 52 35.5 85.5t83.5 33.5q62 0 145 -68q25 33 105 152q89 131 310 436q-175 54 -264 54q-44 0 -79.5 -18.5 t-55.5 -50t-20 -69.5q0 -47 32 -80q6 -6 6 -15t-7 -17q-7 -6 -16 -6t-17 7q-43 46 -43 115q0 77 59 128.5t143 51.5q61 0 114 -11.5t174 -47.5q16 15 34 27t37.5 21t40.5 14t41 5q38 0 63 -18.5t25 -52.5zM900 777q0 22 -42 22q-51 0 -99 -35q46 -12 84 -12q57 0 57 25z M234 114q-72 58 -117 58q-29 0 -49.5 -20.5t-22.5 -53.5q0 -20 9.5 -33.5t24 -19t33.5 -5.5q56 0 122 74z" />
<glyph unicode="[" horiz-adv-x="425" d="M66 -77q-10 0 -16.5 7t-6.5 16q0 5 2 10l329 899q5 15 21 15h160q10 0 16.5 -6t6.5 -16t-6.5 -16.5t-16.5 -6.5h-144l-313 -855h121q10 0 16.5 -7t6.5 -17q0 -9 -6.5 -16t-16.5 -7h-153z" />
<glyph unicode="\" horiz-adv-x="321" d="M111 813q9 2 16.5 -3.5t8.5 -14.5l152 -920q2 -9 -3 -17t-15 -9q-9 -2 -16.5 3.5t-9.5 14.5l-152 919q-2 10 4 18t15 9z" />
<glyph unicode="]" horiz-adv-x="567" d="M516 870q10 0 16.5 -6.5t6.5 -15.5q0 -5 -2 -11l-329 -899q-5 -15 -21 -15h-160q-10 0 -16.5 6.5t-6.5 16.5t6.5 16.5t16.5 6.5h144l313 855h-121q-10 0 -16.5 7t-6.5 17q0 3 1 6.5t3.5 6.5t5 5t6 3t7.5 1h153z" />
<glyph unicode="^" horiz-adv-x="399" d="M357 513q2 -6 -0.5 -11.5t-7.5 -9.5t-11 -5q-6 0 -11.5 2t-9.5 7t-5 11l-30 211l-163 -221q-6 -8 -15 -9t-17 4q-8 6 -9.5 15.5t4.5 16.5l197 267q5 7 14.5 8.5t16.5 -3.5q8 -7 10 -16z" />
<glyph unicode="_" horiz-adv-x="491" d="M429 -4q12 0 20.5 -7t8.5 -17t-8.5 -16.5t-20.5 -6.5h-359q-12 0 -20.5 6.5t-8.5 16.5t8.5 17t20.5 7h359z" />
<glyph unicode="a" horiz-adv-x="435" d="M484 257q14 -7 14 -20q0 -4 -2 -10l-1 -3q-12 -26 -17 -36.5t-17.5 -36.5t-21 -39t-22 -34t-25.5 -32t-27.5 -23t-32 -17.5t-34.5 -5.5q-38 0 -58 25t-20 66q-64 -91 -135 -91q-43 0 -65.5 32.5t-22.5 84.5q0 53 19.5 121t50.5 129t76.5 102.5t91.5 41.5q70 0 99 -57 q3 10 18 48q5 14 22 14q12 0 18 -10t2 -20l-54 -145q-4 -11 -12.5 -35t-12.5 -35t-11.5 -32t-11 -32t-8.5 -27.5t-7.5 -27t-5.5 -23t-4 -22t-1 -16.5q0 -24 7.5 -35t24.5 -11q16 0 32 8.5t30.5 26t26 33.5t25.5 43.5t21 42.5t20 43l1 3q7 14 20 14q3 0 10 -2zM84 45 q18 0 36.5 10t33 24t30.5 39.5t27 45t25.5 52.5t22 51t20.5 51l26 69q-2 24 -11 42t-24 27t-35 9q-46 -1 -92 -64.5t-73 -142t-28 -134.5q0 -79 42 -79z" />
<glyph unicode="b" horiz-adv-x="412" d="M461 257q14 -5 14 -20q0 -11 -20 -49q-19 -37 -39.5 -62.5t-48.5 -41t-61 -15.5q-47 0 -77 30q-73 -99 -163 -99q-85 0 -85 95q0 46 33 138q3 8 65 186.5t64 184.5q16 53 23 72q5 15 22 15q12 0 19 -9.5t3 -20.5l-24 -70q-34 -99 -46 -131q49 51 105 51q91 0 91 -121 q-1 -53 -23 -119t-55 -125q-3 -7 -4 -8q20 -24 52 -24q36 0 60 24t49 70q3 7 6 13.5t5 11t4 9.5t4 7.5t4.5 5t5.5 3.5t7 1t10 -2zM222 259q12 0 19 -9t4 -20q-1 -5 -4 -18q48 97 48 180q0 37 -8 55t-34 18q-21 0 -41.5 -11.5t-39 -35t-34 -47.5t-32 -59.5t-26.5 -59 t-24 -59.5q-24 -66 -24 -96q0 -52 41 -52q72 0 135 95q-9 23 -9 50q0 29 8 52q5 17 21 17z" />
<glyph unicode="c" d="M391 257q14 -7 14 -22q0 -2 -2 -8q-52 -115 -115 -171t-154 -56q-59 0 -95 40.5t-36 107.5q0 82 38 167.5t96 140.5t111 55q45 0 68.5 -27.5t23.5 -74.5q0 -18 -4 -35.5t-10.5 -31.5t-15.5 -22.5t-18 -8.5q-23 0 -23 22q0 4 13 27.5t13 48.5q0 56 -47 56q-40 0 -87.5 -52 t-79.5 -127.5t-32 -138.5q0 -46 23.5 -74t62.5 -28q75 0 129 51t97 149q4 8 12.5 11.5t17.5 0.5z" />
<glyph unicode="d" horiz-adv-x="464" d="M513 257q14 -7 14 -20q0 -4 -2 -10q-26 -55 -48 -93t-49 -70.5t-58 -48t-68 -15.5q-38 0 -59 25t-21 70q-66 -95 -137 -95q-43 0 -65.5 32.5t-22.5 84.5q0 53 19 121t50.5 129t77 102.5t91.5 41.5q69 0 98 -55l20 56l57 165q6 14 21 14q9 0 15 -5t7 -12t0 -13 q-3 -8 -39.5 -113t-71 -203.5t-39.5 -112.5q-35 -109 -35 -141q0 -46 34 -46q28 0 53.5 15t48 45t40 62t39.5 79q7 13 21 13q3 0 9 -2zM84 45q18 0 36.5 10t33 24t30.5 39.5t27 45t25.5 52.5t22 51t20.5 51q5 11 13 32t11 29q2 3 2 8q-2 37 -20 57.5t-50 20.5 q-46 -1 -92 -64.5t-73 -142t-28 -134.5q0 -79 42 -79z" />
<glyph unicode="e" d="M391 257q14 -7 14 -22q0 -2 -2 -8q-53 -117 -116.5 -172t-145.5 -55q-66 0 -104.5 40.5t-36.5 107.5q2 52 23.5 115t54 118t78 92.5t90.5 37.5q42 0 67 -21t25 -59q0 -41 -26 -77t-70 -62t-89.5 -44t-95.5 -30q-10 -38 -12 -71q-1 -47 24 -73.5t74 -28.5q66 -1 119 47.5 t99 152.5q4 8 12.5 11.5t17.5 0.5zM75 270q218 68 218 161q0 34 -47 34q-26 0 -52.5 -18t-48.5 -49t-39 -62t-31 -66z" />
<glyph unicode="f" horiz-adv-x="207" d="M422 785q4 -5 4 -10q0 -13 -13 -20q-7 -2 -10 -2q-14 0 -21 13q-11 19 -35 19q-77 4 -150 -192q-21 -50 -33 -82h69q9 0 16 -7t7 -16t-7 -16t-16 -7h-86q-57 -152 -175 -490q88 30 149 98t105 171q7 14 20 14q3 0 10 -2q14 -7 14 -21q0 -3 -2 -9q-35 -82 -76.5 -139.5 t-101 -100t-136.5 -65.5q-79 -224 -197 -226q-48 0 -77.5 28.5t-29.5 76.5q0 108 183 142q48 7 85 17q34 93 89 252t91 254h-70q-10 0 -16.5 6.5t-6.5 16.5q0 9 7 16t16 7h88l37 99q84 222 192 222q54 0 77 -47zM-99 -92l-60 -12q-50 -8 -81 -21t-46.5 -31t-18.5 -43 q0 -18 8 -32t22 -21.5t32 -6.5q89 1 144 167z" />
<glyph unicode="g" horiz-adv-x="446" d="M495 256q14 -7 14 -21q0 -3 -2 -9q-35 -82 -77 -139.5t-101 -100t-137 -65.5q-78 -224 -196 -226q-49 0 -78 28.5t-29 76.5q0 108 182 142q49 7 86 17l32 93q-50 -52 -103 -52q-49 0 -68.5 33t-19.5 91q2 55 21.5 121t50 125.5t75 100t89.5 40.5q70 0 100 -60l17 45 q5 15 21 15q12 0 19.5 -9t2.5 -22q-16 -39 -81 -212l-57 -161l-45 -132q88 30 149 98t104 171q7 14 21 14q3 0 10 -2zM84 45q21 0 41.5 12t39 35t33.5 46.5t31.5 59t26.5 59.5t24 59l23 62q0 42 -18.5 64.5t-49.5 22.5q-46 -1 -92 -64.5t-72 -142.5t-27 -135 q-2 -39 5.5 -58.5t34.5 -19.5zM-4 -259q89 1 143 167q-45 -9 -59 -12q-74 -13 -108.5 -35t-37.5 -60q0 -28 17 -44.5t45 -15.5z" />
<glyph unicode="h" horiz-adv-x="430" d="M480 257q14 -7 14 -22q0 -2 -3 -8q-56 -125 -99.5 -176t-97.5 -51q-39 0 -58.5 24.5t-19.5 66.5t21 104.5t42 122t21 93.5q0 57 -56 57q-37 0 -85 -60q-13 -16 -23.5 -31.5t-18.5 -28t-18 -34t-16 -34.5t-19 -47.5t-20.5 -54.5t-27 -74t-31.5 -88q-3 -9 -11.5 -13 t-17.5 -2q-9 3 -13.5 11.5t-0.5 17.5q202 562 231 647q5 14 21 14q12 0 19 -9.5t3 -20.5q-27 -78 -70 -199q51 51 98 51q102 0 102 -102q0 -41 -42.5 -161.5t-42.5 -158.5q0 -46 33 -46q38 0 73 46.5t82 153.5q7 14 21 14q3 0 10 -2z" />
<glyph unicode="i" horiz-adv-x="198" d="M176 566q-15 0 -26.5 10.5t-11.5 26t11.5 26t26.5 10.5t26 -10.5t11 -26t-11 -26t-26 -10.5zM247 257q14 -5 14 -20q0 -4 -2 -10q-18 -41 -32 -69t-34 -60.5t-38.5 -52t-43 -32.5t-51.5 -13q-37 0 -58 26t-19.5 64.5t26.5 121t45 137t56 147.5q5 15 21 15q7 0 13 -3.5 t8.5 -10t-0.5 -15.5q-10 -29 -28 -79q-36 -101 -49.5 -140.5t-27 -81.5t-16.5 -58t-3 -32q0 -46 32 -46q17 0 32.5 8t30 25.5t26 33t25.5 43.5t21.5 43.5t21.5 46.5q7 14 22 14q2 0 8 -2z" />
<glyph unicode="j" horiz-adv-x="206" d="M176 566q-15 0 -26.5 10.5t-11.5 26t11.5 26t26.5 10.5t26 -10.5t11 -26t-11 -26t-26 -10.5zM255 256q14 -7 14 -21q0 -3 -2 -9q-35 -82 -76.5 -139.5t-101 -100t-137.5 -65.5q-78 -224 -196 -226q-49 0 -78 28.5t-29 76.5q0 108 183 142q48 7 85 17q58 168 83.5 240 t56 152.5t53.5 142.5q7 17 23 17q11 0 18 -10t2 -23q-33 -90 -52.5 -140.5t-32.5 -87t-97 -275.5q88 30 149 98t105 171q7 14 20 14q3 0 10 -2zM-244 -259q89 1 144 167q-46 -9 -60 -12q-50 -8 -81 -21t-46.5 -31t-18.5 -43q0 -18 8 -32t22 -21.5t32 -6.5z" />
<glyph unicode="k" horiz-adv-x="426" d="M-16 16q-4 -8 -12.5 -12.5t-16.5 -2.5q-9 3 -13.5 11.5t-0.5 17.5q193 540 231 647q5 14 20 14q13 0 20 -9.5t3 -20.5q-178 -501 -231 -645zM475 257q14 -5 14 -20q0 -4 -2 -10q-18 -41 -32 -69t-34 -60.5t-39 -52t-43.5 -32.5t-50.5 -13q-35 0 -57.5 24.5t-22.5 57.5 q0 23 7 72q6 44 5 64q0 15 -4 25.5t-15 17t-28 6.5t-38 -16.5t-30 -16.5q-18 0 -22 14t9 26q3 4 14 13.5t26.5 24t39.5 35.5t49.5 44.5t59.5 54.5l68 62q6 5 15 5q11 0 17.5 -7.5t6.5 -15.5t-8 -16l-180 -164q64 -11 66 -92q0 -12 -6 -66t-6 -67q0 -16 9 -28t25 -12 q23 0 45 17t43 49.5t35.5 61.5t33.5 72q7 14 20 14q4 0 10 -2z" />
<glyph unicode="l" horiz-adv-x="222" d="M272 257q13 -7 13 -20q0 -4 -2 -10q-53 -114 -103 -170.5t-120 -56.5q-37 0 -58 25.5t-21 65.5q0 36 37 155q13 38 28.5 82.5t35 98.5t29.5 85l56 164q4 9 12 13t18 1q9 -3 13 -11.5t1 -17.5l-57 -164q-5 -16 -39.5 -113.5t-52.5 -151.5q-36 -110 -36 -141q0 -46 34 -46 q29 0 54 15t47.5 45t40 62t39.5 79q7 13 21 13q4 0 10 -2z" />
<glyph unicode="m" horiz-adv-x="666" d="M729 237q0 -2 -3 -13q-14 -31 -22.5 -49.5t-24.5 -48.5t-30.5 -49t-33.5 -38.5t-40.5 -29t-44.5 -9.5q-38 0 -58.5 25t-20.5 66t21.5 102.5t42.5 121.5t21 96q0 57 -56 57q-23 0 -50 -23.5t-51.5 -59t-44.5 -74t-33 -72.5q0 -2 -19 -57.5t-37 -107.5t-17 -51 q-5 -15 -22 -15q-12 0 -18.5 9.5t-2.5 20.5q70 210 73 217q39 113 39 152q0 31 -12.5 46t-41.5 15q-38 0 -94 -79q-14 -22 -50 -87t-41 -78l-73 -209q-3 -9 -11.5 -13.5t-17.5 -1.5t-13.5 11.5t-0.5 17.5q27 78 82.5 233.5t83.5 233.5q5 15 22 15q12 0 18.5 -10t2.5 -20 q-6 -15 -11 -30q53 62 103 62q32 0 54.5 -13t33.5 -35t11 -51q26 40 64 69.5t74 29.5q101 0 101 -102q0 -43 -21 -104t-41.5 -119.5t-20.5 -96.5q0 -46 32 -46q39 0 74 47.5t81 152.5q5 14 21 14q9 0 16 -7t7 -15z" />
<glyph unicode="n" horiz-adv-x="430" d="M480 257q14 -7 14 -20q0 -4 -3 -10q-56 -125 -99.5 -176t-97.5 -51q-38 0 -58 25t-20 66q0 42 21 102.5t42 120t21 97.5q0 57 -56 57q-31 0 -68.5 -41.5t-66 -93.5t-47.5 -103l-76 -214q-3 -9 -11.5 -13t-17.5 -2q-9 3 -13 11.5t-1 17.5q27 76 86 242t80 225q5 15 22 15 q12 0 18.5 -10t2.5 -20l-8 -22q51 53 100 53q102 0 102 -102q0 -40 -21.5 -102.5t-42.5 -123t-21 -94.5q0 -46 33 -46q37 0 70.5 44.5t84.5 155.5q7 14 21 14q3 0 10 -2z" />
<glyph unicode="o" horiz-adv-x="422" d="M483 228q-36 -82 -75.5 -120.5t-87.5 -38.5q-47 0 -82 29q-32 -43 -71 -70.5t-76 -27.5q-94 0 -94 109q0 138 92 288q68 114 152 114q52 -2 80 -33.5t28 -82.5t-23.5 -123t-60.5 -135q17 -23 55 -23q22 0 42.5 14.5t40 43t38.5 73.5q5 14 20 14q12 0 19.5 -10t2.5 -21z M232 259q12 0 18.5 -9t3.5 -20q-1 -3 -5 -25q17 33 29.5 68t18.5 67t6 56q0 22 -8 38t-22.5 23.5t-32.5 7.5q-58 0 -111 -91q-86 -141 -86 -263q0 -66 48 -66q55 0 121 94q-6 14 -8 33.5t0 37.5t6 32q3 17 22 17z" />
<glyph unicode="p" horiz-adv-x="410" d="M459 257q14 -5 14 -20q0 -3 -2 -9q-18 -63 -66 -111t-102 -48q-46 0 -74 28q-77 -103 -162 -100q-61 3 -78 45q-92 -256 -103 -290q-6 -16 -22 -16q-12 0 -19 10t-3 21l121 338q20 53 45.5 123.5t42 116.5t31 85t18.5 51l7 17q5 15 22 15q12 0 18.5 -10t2.5 -20l-9 -23 q52 53 105 53q25 0 43 -9.5t28 -27t15 -39t5 -47.5q0 -54 -26 -131t-57 -123q20 -22 51 -22q40 0 74.5 40.5t49.5 90.5q7 14 20 14q4 0 10 -2zM220 259q12 0 18.5 -9t4.5 -20q-3 -9 -5 -28q53 111 53 190q0 76 -43 76q-21 0 -41.5 -12t-39.5 -36.5t-34 -47.5t-32 -60.5 t-26 -59t-24 -59.5q-3 -7 -7.5 -19.5t-6 -17l-4.5 -13.5t-3.5 -14.5t-1.5 -13.5t-1 -17q0 -29 9.5 -42t31.5 -14q70 -1 133 95q-19 45 -2 105q3 17 21 17z" />
<glyph unicode="q" horiz-adv-x="436" d="M485 256q14 -7 14 -22q0 -2 -2 -8q-19 -40 -32 -65t-32.5 -55t-37 -47t-41 -29.5t-49.5 -13.5q11 -64 11 -110q0 -91 -31 -149t-93 -58q-78 3 -78 88q0 33 10.5 70.5t63.5 193.5q-51 -51 -101 -51q-45 0 -67 32t-22 82q0 54 19 122.5t50.5 129.5t77 103t92.5 42 q65 0 97 -55l16 41q3 9 11.5 13t17.5 1q9 -4 12.5 -12.5t0.5 -17.5q-33 -81 -101 -274q-58 -162 -83 -237t-36.5 -118t-11.5 -65q0 -43 32 -43q26 0 44.5 23t26 56.5t7.5 72.5q0 71 -15 140q-2 7 -1 10q1 10 9 14.5t18 3.5q13 -2 17 -2q20 0 39 11t33.5 26.5t31.5 43t27 48 t26 53.5q7 14 21 14q2 0 9 -2zM85 45q13 0 25.5 4t24.5 13.5t22.5 19.5t22 27t19.5 30t19 35t17 35.5t16 37.5t14.5 35.5t14.5 35.5q2 7 9 22.5t12 27.5l5 12q-4 85 -69 85q-47 -1 -93 -64.5t-73 -143t-28 -135.5q0 -37 9.5 -56t32.5 -21z" />
<glyph unicode="r" horiz-adv-x="397" d="M446 257q14 -7 14 -20q0 -4 -2 -10q-36 -82 -66.5 -131t-62.5 -72.5t-69 -23.5h-1q-37 0 -56.5 25t-19.5 66q0 31 10 70q6 25 32 104t34 98q-91 30 -118 43q-2 -8 -98 -217q-6 -13 -19 -13q-5 0 -11 2q-13 8 -13 21q0 3 2 9l87 188l13 33q-56 38 -56 90q0 32 19.5 51.5 t46.5 19.5q29 0 46 -19.5t17 -52.5q0 -13 -17 -69q25 -12 98 -38q25 -7 41 -12q9 -4 12.5 -13t0.5 -19q-7 -17 -23 -64.5t-31 -93.5t-18 -59q-8 -27 -10 -59q0 -46 32 -46q39 0 73.5 46t82.5 154q7 14 20 14q4 0 10 -2zM130 519q0 25 -18 25q-20 0 -20 -20q0 -29 26 -50 q12 33 12 45z" />
<glyph unicode="s" horiz-adv-x="415" d="M356 191q-1 -86 -57.5 -138.5t-139.5 -52.5q-68 0 -115.5 46t-47.5 112q3 48 21.5 84.5t50.5 56.5t75 20q41 0 71.5 -32.5t31.5 -76.5q0 -10 -6.5 -16.5t-16 -6.5t-16 6.5t-6.5 16.5q-2 27 -19 45t-38 18q-44 0 -72 -32.5t-31 -82.5q0 -49 35 -81t83 -32q66 0 108 40.5 t44 106.5q0 24 -7.5 47.5t-21.5 49.5t-45 83q-12 -12 -22 -25q-7 -9 -17 -9q-11 0 -17 5q-7 6 -7 19q0 7 5 14q20 23 37 40q-16 38 -16 71q0 43 23 73.5t56 30.5q22 0 36 -16t15 -40q0 -61 -60 -129q9 -16 29.5 -53t26 -48t15.5 -34.5t12.5 -40.5t2.5 -39zM251 454 q33 46 33 81q-1 10 -7.5 9.5t-15.5 -8.5q-16 -17 -16 -48q0 -15 6 -34z" />
<glyph unicode="t" horiz-adv-x="224" d="M274 257q13 -7 13 -20q0 -4 -2 -10q-53 -114 -103 -170.5t-119 -56.5q-38 0 -59 25.5t-21 65.5q0 29 17.5 91.5t43.5 130.5l55 155h-68q-9 0 -15.5 6.5t-6.5 15.5t6.5 16t15.5 7h83q2 3 29 80t28 81q5 15 21 15q12 0 19 -10t3 -20q1 3 -10 -29.5t-24 -69t-17 -47.5h72 q10 0 16.5 -7t6.5 -16t-6.5 -15.5t-16.5 -6.5h-88q-1 -2 -61 -171q-58 -165 -58 -206q0 -46 35 -46q28 0 53 15t47.5 45t40.5 62t39 79q7 13 22 13q3 0 9 -2z" />
<glyph unicode="u" horiz-adv-x="433" d="M483 257q13 -7 13 -20q0 -4 -2 -10q-36 -82 -67 -131t-62.5 -72.5t-67.5 -23.5q-67 0 -78 77q-24 -34 -59 -55.5t-70 -21.5h-1q-51 0 -77.5 28.5t-26.5 83.5q0 38 21 99.5t108 287.5q6 14 21 14q13 0 19.5 -9.5t2.5 -20.5q-20 -51 -50 -131q-39 -104 -52 -139.5 t-19 -58.5t-6 -42q0 -67 60 -67q70 0 124 111q8 15 16 33t17.5 41.5t17 42.5t19.5 51t19 52t22 60.5t23 62.5q5 14 20 14q13 0 20 -10t3 -20q-13 -36 -33.5 -92t-27.5 -72q-65 -179 -65 -228q0 -46 32 -46q38 0 73 46.5t83 153.5q5 14 20 14q3 0 10 -2z" />
<glyph unicode="v" horiz-adv-x="372" d="M421 257q14 -5 14 -20q0 -3 -2 -9q-12 -41 -36.5 -77t-59.5 -59t-71 -23q-47 0 -76 29q-41 -55 -69 -76.5t-62 -21.5q-39 0 -58 24.5t-19 66.5q0 20 5 46t18.5 67t26 76t37 102.5t41.5 116.5q5 14 22 14q12 0 19 -9.5t2 -20.5q-40 -111 -60 -167t-37.5 -108.5t-23 -77 t-5.5 -39.5q0 -24 7.5 -35t25 -11t37.5 15.5t35.5 35t29.5 43.5q-17 47 -1 103q5 17 22 17q11 0 18 -9t4 -20q-4 -16 -5 -26q5 9 39 75.5t68.5 135.5t42.5 86q7 13 22 13q3 0 9 -2q13 -7 13 -22q0 -3 -2 -9q-30 -62 -96.5 -191t-80.5 -153q21 -23 52 -23q40 0 75 40.5 t49 90.5q3 14 20 14q4 0 10 -2z" />
<glyph unicode="w" horiz-adv-x="568" d="M631 237q0 -3 -2 -9q-25 -68 -69.5 -113.5t-98.5 -45.5q-46 0 -75 29q-35 -48 -65.5 -73t-65.5 -25q-67 0 -78 77q-54 -77 -119 -77q-37 0 -57 25t-20 66q0 39 28 127t101 281q5 14 21 14q8 0 14.5 -4.5t8 -11.5t-1.5 -14q-83 -229 -104.5 -295.5t-21.5 -96.5 q0 -24 7.5 -35t24.5 -11q40 0 76.5 46.5t79.5 154.5q19 47 92 253q5 14 20 14q13 0 20 -10t3 -20q-63 -168 -95 -262t-32 -130q0 -46 33 -46q13 0 23.5 4.5t23 17.5t24 28t31.5 44q-17 47 -1 103q6 17 22 17q12 0 19 -9t4 -20q-3 -7 -6 -26q91 172 150 297q8 13 22 13 q9 0 15.5 -7t6.5 -16q0 -4 -3 -10q-121 -248 -176 -344q18 -23 51 -23q40 0 68.5 33t56.5 98q7 14 21 14q9 0 16.5 -6.5t7.5 -15.5z" />
<glyph unicode="x" horiz-adv-x="494" d="M557 237q0 -4 -2 -10q-22 -50 -41 -84.5t-44.5 -70t-54.5 -54t-62 -18.5q-105 0 -149 178l-152 -170q-6 -8 -17 -8q-10 0 -16 5q-7 6 -7 18q0 9 5 15l176 196q-9 53 -17 128q-9 80 -13 98q-6 -14 -35.5 -80.5t-56.5 -127.5t-28 -62q-7 -14 -20 -14q-7 0 -12.5 4.5t-8 9.5 t-2.5 10q0 2 2 8q5 10 33 73.5t53.5 121.5t23.5 55q5 13 9 20t11 17.5t16.5 15.5t21.5 5q27 0 35 -34q6 -25 16 -115q8 -69 11 -89l203 227q8 8 18 8q8 0 15 -6q7 -8 7 -16.5t-6 -15.5l-227 -255q32 -174 111 -174q24 0 47 18t44 50.5t36 61.5t33 69q7 14 22 14q8 0 15 -7 t7 -15z" />
<glyph unicode="y" horiz-adv-x="444" d="M494 256q14 -7 14 -21q0 -3 -3 -9q-52 -123 -125.5 -197t-188.5 -108q-78 -224 -196 -226q-49 0 -78 28.5t-29 76.5q0 108 182 142q49 7 86 17l27 78q-39 -37 -83 -37q-62 0 -89.5 34t-27.5 82q0 8 1 16t3.5 19t4.5 19t6.5 22t7.5 22t10 26.5t10.5 27.5t12 32t13.5 35 l60 164q6 14 21 14q9 0 15 -4.5t7.5 -11.5t-1.5 -14l-59 -164q-11 -32 -24.5 -67t-19.5 -51t-12 -34t-8 -29t-2 -22q0 -71 71 -71q41 0 88 70t82 169q8 23 80 214q6 15 20 15q11 0 19 -10t4 -21q-48 -123 -81 -213l-86 -246l-16 -48q88 30 149 98t104 171q7 14 21 14 q3 0 10 -2zM-5 -259q89 1 143 167q-45 -9 -59 -12q-50 -8 -81.5 -21t-47 -31t-17.5 -43q0 -28 17 -44.5t45 -15.5z" />
<glyph unicode="z" horiz-adv-x="430" d="M481 258q14 -5 14 -20q0 -3 -3 -9q-83 -196 -234 -266q-88 -244 -239 -244q-52 0 -82.5 27t-30.5 77q0 55 40 88.5t127 48.5q100 17 149 38q30 105 5 149q-50 -25 -92 -16.5t-42 49.5q0 33 23.5 47.5t56.5 8t62 -29.5q25 18 41 46t22.5 57.5t6.5 62.5q0 43 -18.5 68 t-55.5 25q-12 0 -24 -4.5t-23.5 -16t-21.5 -22t-22 -31t-19.5 -33.5t-19.5 -39l-18 -39t-18.5 -41.5t-16.5 -38.5l-5 -10q-7 -14 -19 -14q-9 0 -16.5 6.5t-7.5 16.5q0 3 2 9q14 33 19 45.5t18.5 42.5t20 43t19.5 38.5t22 37.5t22 31t24.5 28t25.5 19t28.5 14t29.5 4 q57 0 88 -38t31 -101q0 -57 -21 -111t-63 -90q31 -51 12 -145q108 69 172 220q7 14 21 14q3 0 10 -2zM197 180q-16 10 -29.5 13.5t-21 0t-7.5 -13.5q2 -9 20 -8t38 8zM200 -59q-38 -12 -119 -26q-68 -11 -99 -33t-31 -58q0 -24 19 -42.5t48 -18.5q100 0 182 178z" />
<glyph unicode="{" horiz-adv-x="395" d="M523 912q11 -1 16.5 -8t4.5 -16q0 -10 -7 -16.5t-16 -5.5q-24 1 -44 -1.5t-37.5 -9t-31.5 -13.5t-26 -20.5t-21.5 -24t-18.5 -29t-15 -30.5t-13.5 -34t-11 -34l-10.5 -36q-15 -50 -25 -79.5t-30 -66t-45 -59.5q24 -31 24 -76q0 -65 -50 -154q-83 -136 -83 -183t105 -61 q19 -4 19 -23q0 -10 -7.5 -17t-18.5 -6q-76 11 -109.5 38t-33.5 69q0 32 17 71t71 134q44 78 44 131q0 27 -16 51q-41 -24 -101 -24q-26 0 -39.5 12.5t-13.5 32.5q0 25 25.5 39t59.5 14q36 0 71 -17q23 19 41.5 52.5t27.5 60t23 74.5q9 30 14 45.5t15 43t17.5 43t21 37.5 t26.5 34t32.5 26.5t40.5 21.5t48.5 11t59.5 3zM54 424q22 0 43 6q-22 4 -40 1q-4 -1 -7 -2.5t-4 -2.5h-1z" />
<glyph unicode="|" horiz-adv-x="299" d="M336 847q9 -3 14 -11t2 -15l-317 -874q-4 -7 -12.5 -10t-17.5 0q-9 4 -13.5 11.5t-2.5 14.5l318 874q3 7 11.5 10t17.5 0z" />
<glyph unicode="}" horiz-adv-x="519" d="M450 449q26 0 39.5 -12t13.5 -33q0 -25 -25.5 -39t-59.5 -14q-36 0 -70 17q-15 -12 -27.5 -29t-20.5 -32.5t-17.5 -40t-14.5 -40.5t-13 -45q-9 -29 -14 -45t-14.5 -43.5t-17.5 -42.5t-21 -37t-26.5 -34.5t-32.5 -27t-40.5 -21t-49 -11t-58.5 -2.5q-11 1 -17 7.5t-5 16.5 q0 9 7 15.5t17 5.5q25 -1 48 3t40 10t33 18.5t27 23t22.5 30.5t18 32.5t15 37t13 38t12.5 39.5q14 50 24 79.5t30 66.5t45 60q-24 31 -24 75q0 66 50 155q83 135 83 182t-105 62q-19 4 -19 22q0 10 8 17.5t18 5.5q77 -11 110 -38t33 -69q0 -32 -17 -70.5t-71 -134.5 q-43 -78 -43 -131q0 -27 15 -50q41 23 101 23zM446 397q4 1 7 2.5t4 2.5l1 1l-9 1q-21 0 -43 -5q23 -5 40 -2z" />
<glyph unicode="~" horiz-adv-x="509" d="M234 404q-42 25 -84.5 22.5t-69.5 -33.5q-6 -7 -16 -7.5t-16 5.5q-8 6 -8 16t5 16q39 43 97.5 48.5t115.5 -28.5q42 -26 84.5 -23t70.5 34q6 7 16 7.5t16 -5.5q7 -7 7.5 -16.5t-5.5 -16.5q-39 -43 -97 -48t-116 29z" />
<glyph unicode="&#xa1;" horiz-adv-x="301" d="M253.5 445q-15.5 0 -26.5 11t-11 26.5t11 26t26.5 10.5t26.5 -10.5t11 -26t-11 -26.5t-26.5 -11zM-13 -281q-9 3 -13 11.5t-1 17.5l210 594q3 9 11.5 13.5t17.5 0.5q6 -2 9.5 -6.5t4.5 -10.5t-1 -12l-210 -594q-2 -9 -10.5 -13t-17.5 -1z" />
<glyph unicode="&#xa2;" d="M391 257q14 -7 14 -22q0 -2 -2 -8q-52 -115 -115 -171t-154 -56q-36 0 -64 16q-13 -30 -18 -45q-6 -14 -17.5 -15.5t-19 9t-1.5 24.5l23 55q-34 40 -34 104q0 82 38 167.5t96 140.5t111 55q8 0 21 -2q20 34 36 57q13 20 29 10q16 -11 5 -32l-2 -4l-30 -48q33 -25 33 -83 q0 -18 -4 -35.5t-10.5 -31.5t-15.5 -22.5t-18 -8.5q-23 0 -23 22q0 4 13 27.5t13 48.5q0 30 -12 44q-104 -179 -194 -394q21 -14 46 -14q75 0 129 51t97 149q4 8 12.5 11.5t17.5 0.5zM49 147q0 -28 9 -51q89 206 184 369q-40 -4 -86 -56.5t-76.5 -126.5t-30.5 -135z" />
<glyph unicode="&#xa3;" horiz-adv-x="548" d="M502 670q-31 -79 -71 -215q-15 -44 -26 -81h108q4 0 7.5 -2t6 -5t4 -7t1.5 -9q0 -10 -5.5 -16.5t-13.5 -6.5h-123q-24 -73 -39 -110q-25 -60 -51 -100q78 -72 154 -72q41 0 74.5 16t46.5 44q5 14 20 14q7 0 12.5 -4.5t8 -9.5t2.5 -10q0 -2 -2 -9q-20 -42 -65.5 -64.5 t-97.5 -22.5q-83 0 -179 79q-6 -9 -9 -12q-29 -34 -69.5 -53t-83.5 -19q-52 0 -81.5 32t-29.5 77q0 46 31 79.5t87 33.5q64 0 147 -70q21 35 43 88q19 50 33 93h-77q-9 0 -14.5 6.5t-5.5 16.5q0 5 1.5 9t4 7t6.5 5t8 2h91q7 19 31 95q36 120 62 191q-18 -4 -66 -11 q-41 -6 -62.5 -10t-60 -12t-59.5 -15.5t-49 -20t-44 -27t-28.5 -35t-15.5 -44.5q-1 -4 -1 -13q-2 -37 18 -64q21 -28 56 -32l11 -1q10 0 16 -7t6 -17q0 -9 -7 -15.5t-17 -6.5q-11 0 -15 1q-56 8 -87 51q-28 37 -27 93q0 12 1 17q4 25 13.5 46t21 37.5t32 30.5t37.5 24 t45.5 19.5t47.5 15t53 12t53 9.5t55 8l92 14q20 54 53.5 93.5t71.5 39.5q28 0 46 -16t18 -42q0 -36 -45.5 -65.5t-109.5 -46.5zM593 797q-11 0 -24.5 -11t-24.5 -27t-20 -35q32 7 58 25.5t26 32.5q0 6 -4.5 10.5t-10.5 4.5zM230 96q7 9 11 13q-78 63 -123 63q-23 0 -40 -10 t-25 -25t-8 -32q0 -26 18 -45.5t49 -19.5q32 0 64 15.5t54 40.5z" />
<glyph unicode="&#xa5;" horiz-adv-x="732" d="M779 800q43 0 71 -17t28 -49q0 -34 -34.5 -54.5t-81.5 -20.5t-127 13q-19 -32 -33.5 -63t-30.5 -76t-43 -128q-17 -53 -29 -85h65q4 0 7.5 -2t6 -5t4 -7t1.5 -9q0 -10 -5.5 -16.5t-13.5 -6.5h-82q-2 -4 -21 -52h81q8 0 14 -6.5t6 -16t-6 -16t-14 -6.5h-101l-0.5 -1.5 l-0.5 -1.5q-32 -70 -105 -162q-19 -22 -36 -7q-16 15 1 36q57 71 89 136h-63q-8 0 -13.5 6.5t-5.5 16t5.5 16t13.5 6.5h81q11 35 15 52h-74q-8 0 -14 6.5t-6 16.5q0 5 1.5 9t4.5 7t6.5 5t7.5 2h85q14 67 14 134q0 100 -46.5 171.5t-135.5 109.5q-10 4 -14.5 11t-3.5 13.5 t5 12.5t12 7.5t18 -1.5q106 -45 159.5 -130.5t50.5 -206.5q39 114 58 162.5t38 77.5l-52 13q-24 7 -17 29q7 21 30 16q21 -7 69 -18q36 39 73.5 58.5t87.5 20.5zM762 704q27 0 48.5 9t21.5 22q0 9 -17.5 14.5t-35.5 5.5q-12 0 -22.5 -2t-18 -4t-16.5 -7t-14 -8t-16 -10.5 t-17 -11.5q60 -8 87 -8z" />
<glyph unicode="&#xa6;" horiz-adv-x="299" d="M192 450q-21 10 -13 34l127 347q3 10 12 14.5t18 1.5q10 -4 14 -13t0 -20l-126 -347q-4 -11 -13 -15.5t-19 -1.5zM5.5 -63.5q-9.5 3.5 -14 12.5t-0.5 20l127 346q4 11 13 16t18 2q21 -10 13 -34l-126 -347q-4 -10 -12.5 -14.5t-18 -1z" />
<glyph unicode="&#xa9;" horiz-adv-x="785" d="M484 718q75 0 131.5 -31.5t87 -90t29.5 -136.5q0 -98 -51 -190.5t-138 -149.5t-183 -57q-114 0 -182 70.5t-67 187.5q0 98 51.5 190t138.5 149.5t183 57.5zM687 461q1 98 -54.5 155t-148.5 57q-86 0 -162.5 -52t-120.5 -134t-44 -167q-1 -65 24 -113.5t71.5 -73.5 t107.5 -25q85 0 161.5 52t121 133.5t44.5 167.5zM441 278q17 19 33 8q9 -5 9.5 -15.5t-8.5 -19.5q-39 -46 -97 -48q-28 -1 -49 13t-32.5 41t-10.5 63q4 103 62 178t120 77q43 0 65 -19.5t20 -57.5v-11q-1 -12 -10 -19t-18 -5q-10 2 -14.5 7t-3.5 12q1 5 1 15q1 32 -41 32 q-26 0 -56 -27t-53.5 -77t-25.5 -105q-1 -24 5.5 -40.5t18 -24t24.5 -7.5q37 2 61 30z" />
<glyph unicode="&#xab;" horiz-adv-x="367" d="M216 214q2 -11 -2.5 -19.5t-13.5 -11t-17.5 4t-10.5 16.5l-32 138q-1 10 6 19l98 121q7 9 17 11t18 -5q17 -15 1 -34l-92 -113zM324 214q2 -11 -2.5 -19.5t-13.5 -10.5q-6 -2 -12 0.5t-10.5 7.5t-5.5 12l-32 138q-1 10 6 19l98 121q7 9 17 11t18 -5q17 -15 1 -34 l-92 -113z" />
<glyph unicode="&#xad;" horiz-adv-x="399" d="M299 350q8 0 14 -6.5t6 -16.5q0 -6 -3 -11t-7.5 -8t-9.5 -3h-248q-6 0 -10.5 3t-7 8t-2.5 11q0 10 6 16.5t14 6.5h248z" />
<glyph unicode="&#xae;" horiz-adv-x="783" d="M482 799q72 0 116 -45.5t44 -119.5q0 -66 -34.5 -126.5t-91 -97t-117.5 -36.5q-73 0 -117 45.5t-43 119.5q0 49 20 97t53.5 83.5t78 57.5t91.5 22zM599 635q1 57 -30.5 89.5t-85.5 32.5q-38 0 -75.5 -18.5t-65 -48.5t-44.5 -70.5t-17 -81.5q-1 -57 30.5 -89.5t85.5 -32.5 q39 0 78 19l-45 113q-6 12 1.5 23.5t18.5 11.5q36 0 50 25t2.5 50.5t-39.5 25.5q-56 0 -77 -40q-12 -20 -29 -14q-20 7 -8 29q33 64 114 64q37 0 59 -24.5t24 -55t-17.5 -59t-56.5 -36.5l37 -91q41 32 65.5 79.5t24.5 98.5zM360 471q-19 7 -11 29l44 124q8 23 26 16 q19 -6 11 -29l-44 -124q-9 -23 -26 -16z" />
<glyph unicode="&#xb0;" horiz-adv-x="382" d="M247 603q-43 0 -69.5 31t-19.5 73q6 39 36.5 65t69.5 26q27 0 49.5 -14t33 -38t6.5 -52q-6 -39 -36.5 -65t-69.5 -26zM247 648q15 0 28 7t22 19.5t11 26.5t-3 26t-16 19t-25 7q-11 0 -21.5 -4.5t-18.5 -11.5t-13.5 -16.5t-7.5 -19.5q-3 -23 9.5 -38t34.5 -15z" />
<glyph unicode="&#xb6;" horiz-adv-x="504" d="M566 616q9 -8 10.5 -18t-5.5 -17q-14 -16 -34 0q-59 47 -123 59l-123 -349q-11 -33 -18 -53.5t-20.5 -54.5t-25 -56t-29 -48.5t-35 -42t-39.5 -26t-46 -10.5q-52 0 -81 30t-29 72q0 34 21 61.5t59 36.5q2 1 7 1q6 0 11.5 -3t8.5 -7.5t3 -10.5v-1q0 -17 -22 -25 q-21 -5 -32 -19.5t-11 -32.5q0 -23 17 -40t48 -17q20 0 38 10t33.5 31.5t28 41.5t26 54t21 55.5t19.5 57.5q-148 71 -148 210q0 81 62 134t187 53q31 0 38 -1l14 46q2 7 9 11.5t14 4.5q12 0 19 -10t3 -20l-14 -39q77 -18 138 -68z" />
<glyph unicode="&#xb7;" horiz-adv-x="262" d="M180.5 437q15.5 0 26.5 -11t11 -26.5t-11 -26t-26.5 -10.5t-26 10.5t-10.5 26t10.5 26.5t26 11z" />
<glyph unicode="&#xbb;" horiz-adv-x="289" d="M64 472q-3 10 1 19t13 12t17.5 -3t11.5 -16l39 -136q1 -9 -5 -19l-91 -126q-8 -10 -18 -12t-17 3q-17 16 -3 35l86 118zM172 472q-3 10 1 19t13 12t17.5 -3t11.5 -16l39 -136q1 -9 -5 -19l-91 -126q-8 -10 -18 -12t-17 3q-17 16 -3 35l86 118z" />
<glyph unicode="&#xbf;" horiz-adv-x="477" d="M338 460q-10 0 -18.5 5t-14 13.5t-5.5 18.5q1 15 12 26t26 11t26 -11t11 -26.5t-11 -26t-26 -10.5zM-46 -104q0 33 6.5 61.5t21 52.5t28.5 42.5t38.5 38t41.5 31.5t45 30q40 26 59 39.5t39.5 36t35.5 50.5q25 49 30 103q1 10 8.5 16t17.5 5q9 -1 14.5 -8.5t5.5 -16.5 q-8 -66 -35 -120q-23 -45 -57.5 -76t-92.5 -68q-31 -19 -48 -31t-41.5 -34t-37.5 -41.5t-23 -48t-10 -60.5q0 -66 42 -101.5t119 -35.5q70 0 114 44.5t44 111.5q0 27 -8 53q-3 9 1 17t13 11t17.5 -1t10.5 -13q12 -36 12 -67q0 -86 -58 -143.5t-145 -57.5q-100 0 -154 46 t-54 134z" />
<glyph unicode="&#xc0;" horiz-adv-x="826" d="M904 901q15 -13 3 -31q-13 -15 -28 -2l-119 105q-17 15 -3 35q17 17 34 2zM807 419q-37 -105 -48 -130q-116 -317 -116 -371q0 -51 17 -74.5t55 -23.5q6 0 11 -3.5t8.5 -9t3.5 -11.5q0 -9 -7 -16t-16 -7q-119 3 -119 145q0 23 11 67t35 113t36 102t39 105l4 11h-229 q-30 -52 -54.5 -90.5t-59.5 -84t-66.5 -74t-70.5 -48t-77 -19.5q-69 0 -116.5 41t-47.5 107q0 46 23.5 87.5t62 66t80.5 24.5q27 0 50 -11q13 -6 13 -20q0 -9 -6.5 -16t-16.5 -7q-1 0 -15.5 4.5t-24.5 4.5q-46 0 -83.5 -41.5t-37.5 -91.5q0 -45 34.5 -73.5t84.5 -28.5 q27 0 53 11t51 33t46.5 45t45.5 57.5t40.5 60.5t39.5 63h-53q-10 0 -17 7t-7 16q0 10 7 17t17 7h80q11 20 25 45.5t28.5 52t24.5 44.5q99 183 135 230q12 15 25.5 26.5t28 20t29.5 13t29 4.5q86 0 86 -100q0 -38 -13.5 -94t-24.5 -89.5t-33 -96.5zM764 435q1 4 8.5 24.5 t10.5 28.5t10 28.5t10.5 32t9 30.5t8.5 32t6.5 29t5 29t1.5 24q0 60 -42 60q-18 0 -39 -13.5t-36 -32.5q-36 -46 -132 -223q-5 -9 -29 -53.5t-38 -67.5h220z" />
<glyph unicode="&#xc1;" horiz-adv-x="826" d="M795 908l146 101q8 5 17.5 2.5t14.5 -10.5t3 -18t-10 -15l-150 -99q-18 -10 -30 8q-8 20 9 31zM807 419q-37 -105 -48 -130q-116 -317 -116 -371q0 -51 17 -74.5t55 -23.5q6 0 11 -3.5t8.5 -9t3.5 -11.5q0 -9 -7 -16t-16 -7q-119 3 -119 145q0 23 11 67t35 113t36 102 t39 105l4 11h-229q-30 -52 -54.5 -90.5t-59.5 -84t-66.5 -74t-70.5 -48t-77 -19.5q-69 0 -116.5 41t-47.5 107q0 46 23.5 87.5t62 66t80.5 24.5q27 0 50 -11q13 -6 13 -20q0 -9 -6.5 -16t-16.5 -7q-1 0 -15.5 4.5t-24.5 4.5q-46 0 -83.5 -41.5t-37.5 -91.5q0 -45 34.5 -73.5 t84.5 -28.5q27 0 53 11t51 33t46.5 45t45.5 57.5t40.5 60.5t39.5 63h-53q-10 0 -17 7t-7 16q0 10 7 17t17 7h80q11 20 25 45.5t28.5 52t24.5 44.5q99 183 135 230q12 15 25.5 26.5t28 20t29.5 13t29 4.5q86 0 86 -100q0 -38 -13.5 -94t-24.5 -89.5t-33 -96.5zM764 435 q1 4 8.5 24.5t10.5 28.5t10 28.5t10.5 32t9 30.5t8.5 32t6.5 29t5 29t1.5 24q0 60 -42 60q-18 0 -39 -13.5t-36 -32.5q-36 -46 -132 -223q-5 -9 -29 -53.5t-38 -67.5h220z" />
<glyph unicode="&#xc2;" horiz-adv-x="826" d="M957 883q4 -9 1 -16.5t-10 -10.5q-16 -5 -27 10l-54 81l-111 -79q-16 -11 -28 2q-12 19 3 31l127 98q11 8 22 6t16 -11zM807 419q-37 -105 -48 -130q-116 -317 -116 -371q0 -51 17 -74.5t55 -23.5q6 0 11 -3.5t8.5 -9t3.5 -11.5q0 -9 -7 -16t-16 -7q-119 3 -119 145 q0 23 11 67t35 113t36 102t39 105l4 11h-229q-30 -52 -54.5 -90.5t-59.5 -84t-66.5 -74t-70.5 -48t-77 -19.5q-69 0 -116.5 41t-47.5 107q0 46 23.5 87.5t62 66t80.5 24.5q27 0 50 -11q13 -6 13 -20q0 -9 -6.5 -16t-16.5 -7q-1 0 -15.5 4.5t-24.5 4.5q-46 0 -83.5 -41.5 t-37.5 -91.5q0 -45 34.5 -73.5t84.5 -28.5q27 0 53 11t51 33t46.5 45t45.5 57.5t40.5 60.5t39.5 63h-53q-10 0 -17 7t-7 16q0 10 7 17t17 7h80q11 20 25 45.5t28.5 52t24.5 44.5q99 183 135 230q12 15 25.5 26.5t28 20t29.5 13t29 4.5q86 0 86 -100q0 -38 -13.5 -94 t-24.5 -89.5t-33 -96.5zM764 435q1 4 8.5 24.5t10.5 28.5t10 28.5t10.5 32t9 30.5t8.5 32t6.5 29t5 29t1.5 24q0 60 -42 60q-18 0 -39 -13.5t-36 -32.5q-36 -46 -132 -223q-5 -9 -29 -53.5t-38 -67.5h220z" />
<glyph unicode="&#xc3;" horiz-adv-x="826" d="M985 951q0 -7 -4 -14q-6 -9 -15.5 -17t-19.5 -14t-21.5 -9.5t-22.5 -3.5q-40 0 -67 33q-14 17 -33 17q-24 0 -38 -21q-12 -15 -22 -15q-23 0 -23 23q0 6 7 16q7 12 19.5 22t27.5 15t29 5q40 0 67 -32q15 -17 33 -17q7 0 15 3t14.5 8.5t10.5 11.5q7 12 20 12 q10 0 16.5 -6.5t6.5 -16.5zM807 419q-37 -105 -48 -130q-116 -317 -116 -371q0 -51 17 -74.5t55 -23.5q6 0 11 -3.5t8.5 -9t3.5 -11.5q0 -9 -7 -16t-16 -7q-119 3 -119 145q0 23 11 67t35 113t36 102t39 105l4 11h-229q-30 -52 -54.5 -90.5t-59.5 -84t-66.5 -74t-70.5 -48 t-77 -19.5q-69 0 -116.5 41t-47.5 107q0 46 23.5 87.5t62 66t80.5 24.5q27 0 50 -11q13 -6 13 -20q0 -9 -6.5 -16t-16.5 -7q-1 0 -15.5 4.5t-24.5 4.5q-46 0 -83.5 -41.5t-37.5 -91.5q0 -45 34.5 -73.5t84.5 -28.5q27 0 53 11t51 33t46.5 45t45.5 57.5t40.5 60.5t39.5 63 h-53q-10 0 -17 7t-7 16q0 10 7 17t17 7h80q11 20 25 45.5t28.5 52t24.5 44.5q99 183 135 230q12 15 25.5 26.5t28 20t29.5 13t29 4.5q86 0 86 -100q0 -38 -13.5 -94t-24.5 -89.5t-33 -96.5zM764 435q1 4 8.5 24.5t10.5 28.5t10 28.5t10.5 32t9 30.5t8.5 32t6.5 29t5 29 t1.5 24q0 60 -42 60q-18 0 -39 -13.5t-36 -32.5q-36 -46 -132 -223q-5 -9 -29 -53.5t-38 -67.5h220z" />
<glyph unicode="&#xc4;" horiz-adv-x="826" d="M777.5 939q15.5 0 26.5 -11.5t11 -27t-11 -26t-26.5 -10.5t-26 10.5t-10.5 26t10.5 27t26 11.5zM896 939q10 0 19 -5.5t14 -14t5 -18.5q0 -16 -11 -26.5t-27 -10.5q-10 0 -18.5 5t-13 13.5t-4.5 18.5q0 15 10.5 26.5t25.5 11.5zM807 419q-37 -105 -48 -130 q-116 -317 -116 -371q0 -51 17 -74.5t55 -23.5q6 0 11 -3.5t8.5 -9t3.5 -11.5q0 -9 -7 -16t-16 -7q-119 3 -119 145q0 23 11 67t35 113t36 102t39 105l4 11h-229q-30 -52 -54.5 -90.5t-59.5 -84t-66.5 -74t-70.5 -48t-77 -19.5q-69 0 -116.5 41t-47.5 107q0 46 23.5 87.5 t62 66t80.5 24.5q27 0 50 -11q13 -6 13 -20q0 -9 -6.5 -16t-16.5 -7q-1 0 -15.5 4.5t-24.5 4.5q-46 0 -83.5 -41.5t-37.5 -91.5q0 -45 34.5 -73.5t84.5 -28.5q27 0 53 11t51 33t46.5 45t45.5 57.5t40.5 60.5t39.5 63h-53q-10 0 -17 7t-7 16q0 10 7 17t17 7h80q11 20 25 45.5 t28.5 52t24.5 44.5q99 183 135 230q12 15 25.5 26.5t28 20t29.5 13t29 4.5q86 0 86 -100q0 -38 -13.5 -94t-24.5 -89.5t-33 -96.5zM764 435q1 4 8.5 24.5t10.5 28.5t10 28.5t10.5 32t9 30.5t8.5 32t6.5 29t5 29t1.5 24q0 60 -42 60q-18 0 -39 -13.5t-36 -32.5 q-36 -46 -132 -223q-5 -9 -29 -53.5t-38 -67.5h220z" />
<glyph unicode="&#xc5;" horiz-adv-x="826" d="M863 864q-43 0 -69.5 31t-20.5 74q7 39 37 64.5t69 25.5q42 0 69 -30.5t21 -72.5q-7 -39 -37 -65.5t-69 -26.5zM863 909q22 0 39.5 15.5t21 37.5t-9.5 37t-35 15t-39.5 -15.5t-20.5 -36.5q-4 -23 8.5 -38t35.5 -15zM807 419q-37 -105 -48 -130q-116 -317 -116 -371 q0 -51 17 -74.5t55 -23.5q6 0 11 -3.5t8.5 -9t3.5 -11.5q0 -9 -7 -16t-16 -7q-119 3 -119 145q0 23 11 67t35 113t36 102t39 105l4 11h-229q-30 -52 -54.5 -90.5t-59.5 -84t-66.5 -74t-70.5 -48t-77 -19.5q-69 0 -116.5 41t-47.5 107q0 46 23.5 87.5t62 66t80.5 24.5 q27 0 50 -11q13 -6 13 -20q0 -9 -6.5 -16t-16.5 -7q-1 0 -15.5 4.5t-24.5 4.5q-46 0 -83.5 -41.5t-37.5 -91.5q0 -45 34.5 -73.5t84.5 -28.5q27 0 53 11t51 33t46.5 45t45.5 57.5t40.5 60.5t39.5 63h-53q-10 0 -17 7t-7 16q0 10 7 17t17 7h80q11 20 25 45.5t28.5 52 t24.5 44.5q99 183 135 230q12 15 25.5 26.5t28 20t29.5 13t29 4.5q86 0 86 -100q0 -38 -13.5 -94t-24.5 -89.5t-33 -96.5zM764 435q1 4 8.5 24.5t10.5 28.5t10 28.5t10.5 32t9 30.5t8.5 32t6.5 29t5 29t1.5 24q0 60 -42 60q-18 0 -39 -13.5t-36 -32.5q-36 -46 -132 -223 q-5 -9 -29 -53.5t-38 -67.5h220z" />
<glyph unicode="&#xc6;" horiz-adv-x="1194" d="M1243 258q14 -7 14 -21q0 -3 -2 -9q-59 -146 -144 -219.5t-206 -73.5q-100 0 -162.5 58.5t-62.5 155.5q0 72 30 134q1 4 3.5 12t3.5 10l4 11h-229q-30 -52 -54.5 -90.5t-59.5 -84t-66.5 -74t-70.5 -48t-77 -19.5q-69 0 -116.5 41t-47.5 107q0 46 23.5 87.5t62 66 t80.5 24.5q27 0 50 -11q13 -6 13 -20q0 -9 -6.5 -16t-16.5 -7q-1 0 -15.5 4.5t-24.5 4.5q-46 0 -83.5 -41.5t-37.5 -91.5q0 -45 34.5 -73.5t84.5 -28.5q27 0 53 11t51 33t46.5 45t45.5 57.5t40.5 60.5t39.5 63h-53q-10 0 -17 7t-7 16q0 10 7 17t17 7h80q11 20 25 45.5 t28.5 52t24.5 44.5q99 183 135 230q12 15 25.5 26.5t28 20t29.5 13t29 4.5q86 0 86 -100v-12q36 52 94 82.5t124 30.5q34 0 60.5 -10t42 -30t15.5 -46q-2 -44 -42 -79q-7 -6 -16.5 -6t-16 6.5t-6.5 15.5q0 12 9 19q25 20 27 44q0 20 -21.5 30.5t-51.5 10.5q-90 0 -154 -63 t-64 -147q0 -49 48 -90q58 15 94 15q26 0 45.5 -13t19.5 -35q0 -26 -17.5 -40.5t-45.5 -14.5q-50 0 -105 37q-87 -32 -139 -101.5t-52 -153.5q0 -79 50 -123.5t129 -44.5q107 0 180 65.5t128 198.5q3 9 12 12.5t18 0.5zM518 363h220l26 72q1 4 8.5 24.5t10.5 28.5t10 28.5 t10.5 32t9 30.5t8.5 32t6.5 29t5 29t1.5 24q0 60 -42 60q-18 0 -39 -13.5t-36 -32.5q-36 -46 -132 -223q-5 -9 -29 -53.5t-38 -67.5zM878 437q-30 32 -41 71q-10 -33 -30 -89q-2 -5 -5.5 -14.5t-5.5 -14.5q35 27 82 47zM1022 424q-13 0 -39 -4q23 -9 47 -7q4 0 6.5 1t3.5 2 t0 2q0 6 -18 6z" />
<glyph unicode="&#xc7;" horiz-adv-x="640" d="M688 258q9 -4 12.5 -12.5t0.5 -17.5q-61 -148 -145.5 -224.5t-205.5 -76.5h-2l-19 -40q38 3 57.5 -17t14.5 -57q-12 -84 -113 -84q-39 0 -70 24q-11 8 -8.5 21t13 17t22.5 -3q20 -14 50 -14q55 0 60 39q4 23 -7.5 31.5t-38.5 3.5q-14 -3 -22.5 3.5t-4.5 16.5l28 61 q-85 12 -129.5 69.5t-44.5 149.5q0 80 45 221q-84 20 -132.5 75t-48.5 136q0 36 9.5 74t27 72.5t41.5 64.5q6 7 17 7q9 0 16 -6t7 -17q0 -9 -6 -15q-19 -21 -34.5 -51.5t-24 -64t-8.5 -62.5q0 -69 41 -111.5t112 -57.5q19 54 43.5 106t57.5 103.5t69 89.5t79.5 61.5 t88.5 22.5q64 -2 99 -43.5t35 -107.5t-36 -121.5t-93.5 -90.5t-127 -54.5t-139.5 -19.5q-20 0 -47 3q-46 -146 -46 -214q0 -57 20.5 -97t58 -59.5t90.5 -19.5q107 0 180 68.5t129 204.5q3 9 12 12.5t17 0.5zM536 751q-46 0 -92 -33.5t-84 -87t-67 -110.5t-50 -115 q9 -1 28 -1q61 0 123 16.5t113.5 46t84 76.5t32.5 102q0 48 -22.5 77t-65.5 29z" />
<glyph unicode="&#xc8;" horiz-adv-x="514" d="M500 902q15 -13 3 -30q-13 -16 -28 -3l-119 105q-16 15 -3 35q17 17 34 2zM563 258q14 -7 14 -21q0 -3 -2 -9q-40 -96 -88.5 -160t-114.5 -98.5t-147 -34.5q-100 0 -162.5 58.5t-62.5 155.5q0 102 53 176t145 112q-47 51 -47 107q0 25 10 64q-48 21 -87.5 63t-63.5 94 q-2 6 -2 10q0 13 13 20q6 2 9 2q14 0 21 -13q24 -49 50 -76t75 -58q32 69 97 109.5t143 40.5q52 0 85 -23t33 -63q-2 -40 -37 -73t-86.5 -49.5t-104.5 -16.5q-48 0 -103 16q-5 -20 -5 -46q0 -49 47 -90q58 15 94 15q17 0 31.5 -5.5t24.5 -16.5t10 -26q0 -17 -8.5 -29.5 t-22.5 -19t-33 -6.5q-49 0 -104 37q-58 -21 -101.5 -59.5t-67 -89t-23.5 -106.5q0 -79 50.5 -123.5t129.5 -44.5q106 0 179.5 65.5t127.5 198.5q4 9 13 12.5t18 0.5zM218 634q42 -13 88 -13q62 0 121 27t61 66q0 20 -21 30.5t-51 10.5q-63 0 -117.5 -34t-80.5 -87zM302 420 q24 -9 48 -7q4 0 6 1t3 2t1 2q0 6 -19 6q-13 0 -39 -4z" />
<glyph unicode="&#xc9;" horiz-adv-x="514" d="M391 909l146 101q8 5 17.5 2.5t14.5 -10.5t3 -18t-10 -15l-149 -99q-19 -10 -31 8q-8 20 9 31zM563 258q14 -7 14 -21q0 -3 -2 -9q-40 -96 -88.5 -160t-114.5 -98.5t-147 -34.5q-100 0 -162.5 58.5t-62.5 155.5q0 102 53 176t145 112q-47 51 -47 107q0 25 10 64 q-48 21 -87.5 63t-63.5 94q-2 6 -2 10q0 13 13 20q6 2 9 2q14 0 21 -13q24 -49 50 -76t75 -58q32 69 97 109.5t143 40.5q52 0 85 -23t33 -63q-2 -40 -37 -73t-86.5 -49.5t-104.5 -16.5q-48 0 -103 16q-5 -20 -5 -46q0 -49 47 -90q58 15 94 15q17 0 31.5 -5.5t24.5 -16.5 t10 -26q0 -17 -8.5 -29.5t-22.5 -19t-33 -6.5q-49 0 -104 37q-58 -21 -101.5 -59.5t-67 -89t-23.5 -106.5q0 -79 50.5 -123.5t129.5 -44.5q106 0 179.5 65.5t127.5 198.5q4 9 13 12.5t18 0.5zM218 634q42 -13 88 -13q62 0 121 27t61 66q0 20 -21 30.5t-51 10.5 q-63 0 -117.5 -34t-80.5 -87zM302 420q24 -9 48 -7q4 0 6 1t3 2t1 2q0 6 -19 6q-13 0 -39 -4z" />
<glyph unicode="&#xca;" horiz-adv-x="514" d="M553 885q4 -10 1 -17.5t-10 -9.5q-16 -6 -27 9l-54 81l-111 -79q-16 -11 -28 3q-12 18 3 30l127 98q11 8 22 6t16 -11zM563 258q14 -7 14 -21q0 -3 -2 -9q-40 -96 -88.5 -160t-114.5 -98.5t-147 -34.5q-100 0 -162.5 58.5t-62.5 155.5q0 102 53 176t145 112 q-47 51 -47 107q0 25 10 64q-48 21 -87.5 63t-63.5 94q-2 6 -2 10q0 13 13 20q6 2 9 2q14 0 21 -13q24 -49 50 -76t75 -58q32 69 97 109.5t143 40.5q52 0 85 -23t33 -63q-2 -40 -37 -73t-86.5 -49.5t-104.5 -16.5q-48 0 -103 16q-5 -20 -5 -46q0 -49 47 -90q58 15 94 15 q17 0 31.5 -5.5t24.5 -16.5t10 -26q0 -17 -8.5 -29.5t-22.5 -19t-33 -6.5q-49 0 -104 37q-58 -21 -101.5 -59.5t-67 -89t-23.5 -106.5q0 -79 50.5 -123.5t129.5 -44.5q106 0 179.5 65.5t127.5 198.5q4 9 13 12.5t18 0.5zM218 634q42 -13 88 -13q62 0 121 27t61 66 q0 20 -21 30.5t-51 10.5q-63 0 -117.5 -34t-80.5 -87zM302 420q24 -9 48 -7q4 0 6 1t3 2t1 2q0 6 -19 6q-13 0 -39 -4z" />
<glyph unicode="&#xcb;" horiz-adv-x="514" d="M373.5 940q15.5 0 26.5 -11.5t11 -26.5t-11 -26t-26.5 -11t-26 10.5t-10.5 26t10.5 27t26 11.5zM492.5 940q15.5 0 26.5 -11.5t11 -26.5t-11 -26t-26.5 -11t-26 10.5t-10.5 26t10.5 27t26 11.5zM563 258q14 -7 14 -21q0 -3 -2 -9q-40 -96 -88.5 -160t-114.5 -98.5 t-147 -34.5q-100 0 -162.5 58.5t-62.5 155.5q0 102 53 176t145 112q-47 51 -47 107q0 25 10 64q-48 21 -87.5 63t-63.5 94q-2 6 -2 10q0 13 13 20q6 2 9 2q14 0 21 -13q24 -49 50 -76t75 -58q32 69 97 109.5t143 40.5q52 0 85 -23t33 -63q-2 -40 -37 -73t-86.5 -49.5 t-104.5 -16.5q-48 0 -103 16q-5 -20 -5 -46q0 -49 47 -90q58 15 94 15q17 0 31.5 -5.5t24.5 -16.5t10 -26q0 -17 -8.5 -29.5t-22.5 -19t-33 -6.5q-49 0 -104 37q-58 -21 -101.5 -59.5t-67 -89t-23.5 -106.5q0 -79 50.5 -123.5t129.5 -44.5q106 0 179.5 65.5t127.5 198.5 q4 9 13 12.5t18 0.5zM218 634q42 -13 88 -13q62 0 121 27t61 66q0 20 -21 30.5t-51 10.5q-63 0 -117.5 -34t-80.5 -87zM302 420q24 -9 48 -7q4 0 6 1t3 2t1 2q0 6 -19 6q-13 0 -39 -4z" />
<glyph unicode="&#xcc;" horiz-adv-x="587" d="M778 943q14 -13 3 -30q-13 -16 -28 -3l-119 105q-17 15 -3 35q17 17 33 2zM770 780q0 -36 -45 -65.5t-109 -47.5q-5 -13 -33.5 -106.5t-33.5 -112.5q-14 -47 -22 -75.5t-23.5 -75.5t-28 -77t-32 -71t-38 -67t-43.5 -54.5t-51.5 -45t-59 -27t-68.5 -10.5q-80 0 -131.5 56 t-51.5 143q0 60 35.5 112.5t90.5 82t113 28.5q9 0 15.5 -7t6.5 -17q0 -8 -7 -14.5t-16 -6.5q-76 0 -134.5 -55t-58.5 -124q-1 -67 39 -110t100 -43q29 0 56.5 10t49 24.5t43.5 41t37.5 49t33 60.5t28 64t25.5 70.5t22.5 68t20.5 68.5q1 3 1.5 5t1.5 5t1 5q7 22 21 68t26 84 t13 41l-32 -6q-5 -1 -15 -4q-28 -6 -43 -9.5t-42 -11.5t-42 -14t-35 -16.5t-30.5 -22t-18 -26.5t-7.5 -32q-1 -42 24 -69.5t61 -27.5q10 0 16.5 -7t5.5 -17q0 -9 -7 -15.5t-16 -6.5q-56 0 -94 42t-36 102q0 20 5 37t11 30t18.5 25t22.5 20t28.5 16t31 13t36 11t37 9l40.5 9 t40 9l58 13q20 54 53.5 93.5t71.5 39.5q29 0 46.5 -16t17.5 -42zM637 721q33 7 58.5 26t25.5 33q0 6 -4 10.5t-11 4.5q-16 0 -35.5 -21.5t-33.5 -52.5z" />
<glyph unicode="&#xcd;" horiz-adv-x="587" d="M669 950l145 101q9 5 18.5 3t14.5 -11q5 -8 3 -18t-11 -15l-149 -98q-18 -11 -30 7q-8 20 9 31zM770 780q0 -36 -45 -65.5t-109 -47.5q-5 -13 -33.5 -106.5t-33.5 -112.5q-14 -47 -22 -75.5t-23.5 -75.5t-28 -77t-32 -71t-38 -67t-43.5 -54.5t-51.5 -45t-59 -27 t-68.5 -10.5q-80 0 -131.5 56t-51.5 143q0 60 35.5 112.5t90.5 82t113 28.5q9 0 15.5 -7t6.5 -17q0 -8 -7 -14.5t-16 -6.5q-76 0 -134.5 -55t-58.5 -124q-1 -67 39 -110t100 -43q29 0 56.5 10t49 24.5t43.5 41t37.5 49t33 60.5t28 64t25.5 70.5t22.5 68t20.5 68.5q1 3 1.5 5 t1.5 5t1 5q7 22 21 68t26 84t13 41l-32 -6q-5 -1 -15 -4q-28 -6 -43 -9.5t-42 -11.5t-42 -14t-35 -16.5t-30.5 -22t-18 -26.5t-7.5 -32q-1 -42 24 -69.5t61 -27.5q10 0 16.5 -7t5.5 -17q0 -9 -7 -15.5t-16 -6.5q-56 0 -94 42t-36 102q0 20 5 37t11 30t18.5 25t22.5 20 t28.5 16t31 13t36 11t37 9l40.5 9t40 9l58 13q20 54 53.5 93.5t71.5 39.5q29 0 46.5 -16t17.5 -42zM637 721q33 7 58.5 26t25.5 33q0 6 -4 10.5t-11 4.5q-16 0 -35.5 -21.5t-33.5 -52.5z" />
<glyph unicode="&#xce;" horiz-adv-x="587" d="M849 920q4 -9 1 -16.5t-10 -10.5q-16 -5 -27 10l-54 81l-111 -79q-16 -11 -28 2q-12 18 3 30l127 99q11 8 22 6t16 -12zM770 780q0 -36 -45 -65.5t-109 -47.5q-5 -13 -33.5 -106.5t-33.5 -112.5q-14 -47 -22 -75.5t-23.5 -75.5t-28 -77t-32 -71t-38 -67t-43.5 -54.5 t-51.5 -45t-59 -27t-68.5 -10.5q-80 0 -131.5 56t-51.5 143q0 60 35.5 112.5t90.5 82t113 28.5q9 0 15.5 -7t6.5 -17q0 -8 -7 -14.5t-16 -6.5q-76 0 -134.5 -55t-58.5 -124q-1 -67 39 -110t100 -43q29 0 56.5 10t49 24.5t43.5 41t37.5 49t33 60.5t28 64t25.5 70.5t22.5 68 t20.5 68.5q1 3 1.5 5t1.5 5t1 5q7 22 21 68t26 84t13 41l-32 -6q-5 -1 -15 -4q-28 -6 -43 -9.5t-42 -11.5t-42 -14t-35 -16.5t-30.5 -22t-18 -26.5t-7.5 -32q-1 -42 24 -69.5t61 -27.5q10 0 16.5 -7t5.5 -17q0 -9 -7 -15.5t-16 -6.5q-56 0 -94 42t-36 102q0 20 5 37t11 30 t18.5 25t22.5 20t28.5 16t31 13t36 11t37 9l40.5 9t40 9l58 13q20 54 53.5 93.5t71.5 39.5q29 0 46.5 -16t17.5 -42zM637 721q33 7 58.5 26t25.5 33q0 6 -4 10.5t-11 4.5q-16 0 -35.5 -21.5t-33.5 -52.5z" />
<glyph unicode="&#xcf;" horiz-adv-x="587" d="M686 975q15 0 26.5 -11t11.5 -26.5t-11.5 -26t-26.5 -10.5q-10 0 -18.5 4.5t-13.5 13t-5 19t5 19t13.5 13.5t18.5 5zM805 975q15 0 26 -11t11 -26.5t-11 -26t-26 -10.5q-11 0 -19 4.5t-13 13t-5 19t5 19t13.5 13.5t18.5 5zM770 780q0 -36 -45 -65.5t-109 -47.5 q-5 -13 -33.5 -106.5t-33.5 -112.5q-14 -47 -22 -75.5t-23.5 -75.5t-28 -77t-32 -71t-38 -67t-43.5 -54.5t-51.5 -45t-59 -27t-68.5 -10.5q-80 0 -131.5 56t-51.5 143q0 60 35.5 112.5t90.5 82t113 28.5q9 0 15.5 -7t6.5 -17q0 -8 -7 -14.5t-16 -6.5q-76 0 -134.5 -55 t-58.5 -124q-1 -67 39 -110t100 -43q29 0 56.5 10t49 24.5t43.5 41t37.5 49t33 60.5t28 64t25.5 70.5t22.5 68t20.5 68.5q1 3 1.5 5t1.5 5t1 5q7 22 21 68t26 84t13 41l-32 -6q-5 -1 -15 -4q-28 -6 -43 -9.5t-42 -11.5t-42 -14t-35 -16.5t-30.5 -22t-18 -26.5t-7.5 -32 q-1 -42 24 -69.5t61 -27.5q10 0 16.5 -7t5.5 -17q0 -9 -7 -15.5t-16 -6.5q-56 0 -94 42t-36 102q0 20 5 37t11 30t18.5 25t22.5 20t28.5 16t31 13t36 11t37 9l40.5 9t40 9l58 13q20 54 53.5 93.5t71.5 39.5q29 0 46.5 -16t17.5 -42zM637 721q33 7 58.5 26t25.5 33 q0 6 -4 10.5t-11 4.5q-16 0 -35.5 -21.5t-33.5 -52.5z" />
<glyph unicode="&#xd0;" horiz-adv-x="899" d="M578 798q73 -3 128.5 -31t89.5 -76.5t50.5 -111.5t16.5 -141q0 -57 -10 -116.5t-28.5 -117t-47.5 -107.5t-65 -88t-83 -60t-99 -22q-78 0 -128.5 38.5t-50.5 102.5q0 52 33 85.5t78 33.5q37 0 64.5 -23.5t40.5 -63.5q3 -10 -3 -20t-18 -10q-16 0 -21 15q-6 16 -15 28.5 t-21.5 20t-26.5 7.5q-27 0 -46.5 -21t-19.5 -52q0 -46 39.5 -71t94.5 -25q54 0 102 29.5t81 78t57 110t36 125.5t12 123q0 69 -14 124t-42 97t-74.5 66.5t-109.5 27.5q-144 0 -227 -100.5t-84 -260.5q0 -10 -6.5 -16.5t-16.5 -6.5q-9 0 -16 7t-7 16q2 181 98.5 293.5 t258.5 112.5zM541 369h-92q-14 -45 -25 -78t-28 -74t-33 -70t-38.5 -59t-46.5 -48t-55 -29.5t-65 -11.5q-68 0 -113 40t-45 106q0 70 47 124t109 54q16 0 31 -4q16 -6 16 -22q0 -7 -4 -13t-11 -8.5t-14 -1.5q-11 2 -17 2q-44 0 -78 -40.5t-34 -88.5t32 -75.5t80 -27.5 q38 0 72 20t58 49t47 76t37 86.5t31 93.5h-61q-7 0 -12 3.5t-7.5 8.5t-2.5 11q0 10 6.5 16.5t16.5 6.5h74q2 4 4 13q47 158 80 222q35 66 98 82q24 5 27 -19q0 -22 -18 -26q-12 -2 -25.5 -11t-24 -21.5t-16.5 -25.5q-28 -55 -78 -214h77q10 0 16.5 -6.5t7.5 -16.5 q0 -9 -6.5 -16t-16.5 -7z" />
<glyph unicode="&#xd1;" horiz-adv-x="828" d="M935 951q0 -7 -4 -14q-12 -18 -34.5 -31t-44.5 -13q-40 0 -67 33q-14 17 -32 17q-24 0 -39 -21q-11 -15 -22 -15q-22 0 -22 23q0 6 6 16q11 19 33 30.5t44 11.5q39 0 67 -32q14 -17 32 -17q8 0 15.5 3t14 8.5t10.5 11.5q7 12 21 12q9 0 15.5 -6.5t6.5 -16.5zM1 778 q1 10 7 15t14 5t14.5 -5.5t6.5 -15.5q0 -64 31 -95t96 -31q32 0 69.5 12.5t80.5 38t68.5 42t65.5 45.5q9 6 13 9q25 20 54 39q4 3 11 3q12 0 18 -8q6 -10 3 -20l-63 -191q69 88 124.5 132.5t122.5 44.5q70 0 100.5 -35.5t30.5 -100.5q1 -49 -16 -115.5t-61 -199.5 q-12 -34 -53 -150.5t-62 -183t-22 -89.5q0 -49 18 -72.5t56 -25.5q9 0 15.5 -6t6.5 -14q0 -9 -6.5 -15.5t-15.5 -6.5q-57 0 -87 37t-30 103q1 17 8 46t21.5 74t29.5 88t38.5 110.5t41.5 118.5q43 129 59.5 193.5t16.5 107.5q-2 93 -89 93q-31 0 -63.5 -17t-59.5 -41 t-60.5 -64.5t-55 -71.5t-53.5 -78q-18 -55 -48 -148q-68 -214 -99.5 -274.5t-91.5 -60.5q-55 0 -55 66q0 22 11 52t32 65t35.5 58t39.5 57t26 36l111 168l85 262q-49 -36 -75.5 -53.5t-75.5 -46t-91 -42t-79 -13.5q-80 0 -128 47t-41 122zM353 340l-24 -32 q-134 -180 -136 -243q0 -22 14 -22q13 0 23 4.5t20.5 19t19.5 32t22.5 56t26.5 77.5t34 108z" />
<glyph unicode="&#xd2;" horiz-adv-x="793" d="M721 901q15 -13 4 -31q-14 -15 -28 -2l-119 105q-17 15 -3 35q17 17 33 2zM854 225q-66 -158 -164 -158q-51 0 -81 30q-54 -68 -110 -103.5t-125 -35.5q-90 0 -134.5 60t-44.5 163q0 70 18.5 155.5t47.5 151.5q-28 -4 -62 -4q-91 0 -145 41.5t-54 113.5q0 39 15 69t44 60 q7 6 16 6t17 -7q6 -7 6 -15q0 -10 -6 -17q-17 -16 -26.5 -29.5t-15 -30t-5.5 -36.5q0 -52 43 -81t111 -29q39 0 86 9q48 94 109.5 153t132.5 59q24 0 38.5 -12t14.5 -35q0 -43 -43.5 -87t-103 -74.5t-117.5 -43.5q-36 -74 -55.5 -158t-19.5 -159q0 -178 133 -178 q59 0 113.5 38t94.5 97q-8 22 -8.5 51t7.5 51q6 17 23 17q11 0 17.5 -9t3.5 -20q-3 -10 -5 -31q54 93 87.5 202t33.5 203q0 50 -10.5 86.5t-37 59.5t-67.5 23q-25 0 -58 -7q-8 -2 -15 0.5t-10.5 7.5t-3.5 11q0 19 18 25q32 8 65 8q58 0 95.5 -29t53 -75.5t15.5 -111.5 q0 -108 -43 -238t-108 -227q18 -23 52 -23q38 0 67.5 32.5t57.5 98.5q5 14 21 14q11 0 18.5 -10.5t2.5 -21.5zM346 554q70 26 129 65t59 71q0 14 -15 14q-80 0 -173 -150z" />
<glyph unicode="&#xd3;" horiz-adv-x="793" d="M612 908l146 101q8 5 18 2.5t15 -10.5t3 -18t-11 -15l-149 -99q-19 -10 -30 8q-8 20 8 31zM854 225q-66 -158 -164 -158q-51 0 -81 30q-54 -68 -110 -103.5t-125 -35.5q-90 0 -134.5 60t-44.5 163q0 70 18.5 155.5t47.5 151.5q-28 -4 -62 -4q-91 0 -145 41.5t-54 113.5 q0 39 15 69t44 60q7 6 16 6t17 -7q6 -7 6 -15q0 -10 -6 -17q-17 -16 -26.5 -29.5t-15 -30t-5.5 -36.5q0 -52 43 -81t111 -29q39 0 86 9q48 94 109.5 153t132.5 59q24 0 38.5 -12t14.5 -35q0 -43 -43.5 -87t-103 -74.5t-117.5 -43.5q-36 -74 -55.5 -158t-19.5 -159 q0 -178 133 -178q59 0 113.5 38t94.5 97q-8 22 -8.5 51t7.5 51q6 17 23 17q11 0 17.5 -9t3.5 -20q-3 -10 -5 -31q54 93 87.5 202t33.5 203q0 50 -10.5 86.5t-37 59.5t-67.5 23q-25 0 -58 -7q-8 -2 -15 0.5t-10.5 7.5t-3.5 11q0 19 18 25q32 8 65 8q58 0 95.5 -29t53 -75.5 t15.5 -111.5q0 -108 -43 -238t-108 -227q18 -23 52 -23q38 0 67.5 32.5t57.5 98.5q5 14 21 14q11 0 18.5 -10.5t2.5 -21.5zM346 554q70 26 129 65t59 71q0 14 -15 14q-80 0 -173 -150z" />
<glyph unicode="&#xd4;" horiz-adv-x="793" d="M774 883q5 -9 2 -16.5t-10 -10.5q-17 -5 -27 10l-54 81l-112 -79q-16 -11 -28 2q-12 19 4 31l126 98q12 8 23 6t16 -11zM854 225q-66 -158 -164 -158q-51 0 -81 30q-54 -68 -110 -103.5t-125 -35.5q-90 0 -134.5 60t-44.5 163q0 70 18.5 155.5t47.5 151.5q-28 -4 -62 -4 q-91 0 -145 41.5t-54 113.5q0 39 15 69t44 60q7 6 16 6t17 -7q6 -7 6 -15q0 -10 -6 -17q-17 -16 -26.5 -29.5t-15 -30t-5.5 -36.5q0 -52 43 -81t111 -29q39 0 86 9q48 94 109.5 153t132.5 59q24 0 38.5 -12t14.5 -35q0 -43 -43.5 -87t-103 -74.5t-117.5 -43.5 q-36 -74 -55.5 -158t-19.5 -159q0 -178 133 -178q59 0 113.5 38t94.5 97q-8 22 -8.5 51t7.5 51q6 17 23 17q11 0 17.5 -9t3.5 -20q-3 -10 -5 -31q54 93 87.5 202t33.5 203q0 50 -10.5 86.5t-37 59.5t-67.5 23q-25 0 -58 -7q-8 -2 -15 0.5t-10.5 7.5t-3.5 11q0 19 18 25 q32 8 65 8q58 0 95.5 -29t53 -75.5t15.5 -111.5q0 -108 -43 -238t-108 -227q18 -23 52 -23q38 0 67.5 32.5t57.5 98.5q5 14 21 14q11 0 18.5 -10.5t2.5 -21.5zM346 554q70 26 129 65t59 71q0 14 -15 14q-80 0 -173 -150z" />
<glyph unicode="&#xd5;" horiz-adv-x="793" d="M802 951q0 -7 -4 -14q-12 -18 -34.5 -31t-44.5 -13q-39 0 -67 33q-14 17 -32 17q-24 0 -39 -21q-11 -15 -22 -15q-22 0 -22 23q0 6 6 16q11 19 33 30.5t44 11.5q40 0 67 -32q14 -17 32 -17q11 0 22.5 6.5t17.5 16.5q7 12 21 12q9 0 15.5 -6.5t6.5 -16.5zM854 225 q-66 -158 -164 -158q-51 0 -81 30q-54 -68 -110 -103.5t-125 -35.5q-90 0 -134.5 60t-44.5 163q0 70 18.5 155.5t47.5 151.5q-28 -4 -62 -4q-91 0 -145 41.5t-54 113.5q0 39 15 69t44 60q7 6 16 6t17 -7q6 -7 6 -15q0 -10 -6 -17q-17 -16 -26.5 -29.5t-15 -30t-5.5 -36.5 q0 -52 43 -81t111 -29q39 0 86 9q48 94 109.5 153t132.5 59q24 0 38.5 -12t14.5 -35q0 -43 -43.5 -87t-103 -74.5t-117.5 -43.5q-36 -74 -55.5 -158t-19.5 -159q0 -178 133 -178q59 0 113.5 38t94.5 97q-8 22 -8.5 51t7.5 51q6 17 23 17q11 0 17.5 -9t3.5 -20q-3 -10 -5 -31 q54 93 87.5 202t33.5 203q0 50 -10.5 86.5t-37 59.5t-67.5 23q-25 0 -58 -7q-8 -2 -15 0.5t-10.5 7.5t-3.5 11q0 19 18 25q32 8 65 8q58 0 95.5 -29t53 -75.5t15.5 -111.5q0 -108 -43 -238t-108 -227q18 -23 52 -23q38 0 67.5 32.5t57.5 98.5q5 14 21 14q11 0 18.5 -10.5 t2.5 -21.5zM346 554q70 26 129 65t59 71q0 14 -15 14q-80 0 -173 -150z" />
<glyph unicode="&#xd6;" horiz-adv-x="793" d="M595 939q10 0 19 -5.5t14 -14t5 -18.5q0 -16 -11 -26.5t-26.5 -10.5t-26.5 10.5t-11 26t11 27t26 11.5zM714 939q15 0 26.5 -11.5t11.5 -27t-11.5 -26t-27 -10.5t-26 10.5t-10.5 26t11 27t26 11.5zM854 225q-66 -158 -164 -158q-51 0 -81 30q-54 -68 -110 -103.5 t-125 -35.5q-90 0 -134.5 60t-44.5 163q0 70 18.5 155.5t47.5 151.5q-28 -4 -62 -4q-91 0 -145 41.5t-54 113.5q0 39 15 69t44 60q7 6 16 6t17 -7q6 -7 6 -15q0 -10 -6 -17q-17 -16 -26.5 -29.5t-15 -30t-5.5 -36.5q0 -52 43 -81t111 -29q39 0 86 9q48 94 109.5 153 t132.5 59q24 0 38.5 -12t14.5 -35q0 -43 -43.5 -87t-103 -74.5t-117.5 -43.5q-36 -74 -55.5 -158t-19.5 -159q0 -178 133 -178q59 0 113.5 38t94.5 97q-8 22 -8.5 51t7.5 51q6 17 23 17q11 0 17.5 -9t3.5 -20q-3 -10 -5 -31q54 93 87.5 202t33.5 203q0 50 -10.5 86.5 t-37 59.5t-67.5 23q-25 0 -58 -7q-8 -2 -15 0.5t-10.5 7.5t-3.5 11q0 19 18 25q32 8 65 8q58 0 95.5 -29t53 -75.5t15.5 -111.5q0 -108 -43 -238t-108 -227q18 -23 52 -23q38 0 67.5 32.5t57.5 98.5q5 14 21 14q11 0 18.5 -10.5t2.5 -21.5zM346 554q70 26 129 65t59 71 q0 14 -15 14q-80 0 -173 -150z" />
<glyph unicode="&#xd7;" horiz-adv-x="381" d="M366 497q7 -7 7.5 -15.5t-5.5 -13.5l-133 -125l37 -113q3 -8 -1.5 -15.5t-13.5 -10.5q-9 -2 -17.5 1t-10.5 11l-30 94l-109 -102q-13 -12 -31 4q-14 18 0 30l125 115l-40 121q-2 5 -0.5 10.5t6 9.5t10.5 5q9 3 16.5 0t10.5 -11l33 -101l117 109q15 13 29 -3z" />
<glyph unicode="&#xd8;" horiz-adv-x="793" d="M833 257q11 0 18.5 -10.5t2.5 -21.5q-66 -158 -164 -158q-51 0 -81 30q-54 -68 -110 -103.5t-125 -35.5q-30 0 -54 6q-15 -30 -26 -61q-6 -14 -18 -15.5t-20 9t-2 24.5l25 62q-84 51 -84 198q0 70 18.5 155.5t47.5 151.5q-28 -4 -62 -4q-91 0 -145 41.5t-54 113.5 q0 39 15 69t44 60q7 6 16 6t17 -7q6 -7 6 -15q0 -10 -6 -17q-17 -16 -26.5 -29.5t-15 -30t-5.5 -36.5q0 -52 43 -81t111 -29q39 0 86 9q48 94 109.5 153t132.5 59q24 0 38.5 -12t14.5 -35q0 -43 -43.5 -87t-103 -74.5t-117.5 -43.5q-36 -74 -55.5 -158t-19.5 -159 q0 -115 56 -156q73 165 179.5 366t208.5 364q-25 16 -59 16q-25 0 -58 -7q-8 -2 -15 0.5t-10.5 7.5t-3.5 11q0 19 18 25q32 8 65 8q52 0 86 -22l42 62q9 14 21.5 13t16.5 -12.5t-4 -25.5q-14 -21 -42 -66q44 -55 44 -165q0 -108 -43 -238t-108 -227q18 -23 52 -23 q38 0 67.5 32.5t57.5 98.5q5 14 21 14zM604 257q11 0 17.5 -9t3.5 -20q-3 -10 -5 -31q54 93 87.5 202t33.5 203q0 78 -26 121q-100 -161 -201.5 -353t-176.5 -362q16 -5 37 -5q59 0 113.5 38t94.5 97q-8 22 -8.5 51t7.5 51q6 17 23 17zM519 704q-80 0 -173 -150 q70 26 129 65t59 71q0 14 -15 14z" />
<glyph unicode="&#xd9;" horiz-adv-x="838" d="M795 901q15 -13 3 -31q-13 -15 -28 -2l-119 105q-17 15 -3 35q17 17 33 2zM451 710q13 33 30.5 61.5t43 48.5t51.5 20q28 0 45.5 -16t17.5 -42q0 -36 -45 -65.5t-109 -46.5q-46 -114 -103.5 -311.5t-57.5 -245.5q0 -97 73 -97h2q24 0 46.5 7.5t42.5 20.5t39.5 35t36 45.5 t35 58t33.5 66t33 76.5t32.5 83.5t33.5 91.5q10 28 25 68t27 72.5t27 74t28 76.5q5 15 22 15q10 0 15.5 -6.5t5.5 -15.5q0 -5 -1 -9l-106 -290l-58 -163q-49 -146 -49 -220q0 -57 30 -57q18 0 36.5 11t32 25.5t29 40t24 43t21.5 45.5q4 6 9 17.5t7 16.5q7 13 21 13 q11 0 17 -7.5t6 -15.5q0 -4 -3 -10q-9 -21 -16 -34q-15 -33 -25 -52t-29 -49t-36.5 -46.5t-42 -29.5t-51.5 -13q-75 0 -75 102q0 21 1 33q-32 -52 -63 -86.5t-73 -56.5t-88 -22h-3q-58 1 -87.5 39.5t-29.5 103.5q0 50 46.5 213.5t106.5 333.5q-24 -5 -66 -11q-2 0 -7 -1 q-40 -6 -61 -10t-59.5 -12.5t-60.5 -16.5t-51 -21.5t-44 -29t-26.5 -38t-11.5 -48.5q-1 -42 24 -69.5t62 -27.5q9 0 15.5 -7t6.5 -17q0 -9 -7.5 -15.5t-15.5 -6.5q-56 0 -93 41.5t-37 101.5q0 27 7.5 50t19.5 41t32 34t39 27t47.5 21.5t50.5 16.5t55 12.5t53.5 10t54.5 8.5z M507 724q32 7 58 25.5t26 32.5q0 6 -4.5 10.5t-10.5 4.5q-12 0 -25 -11t-24 -27t-20 -35z" />
<glyph unicode="&#xda;" horiz-adv-x="838" d="M697 930l145 100q9 6 18.5 3.5t14.5 -10.5t3 -18t-11 -16l-149 -98q-18 -10 -30 8q-8 19 9 31zM451 710q13 33 30.5 61.5t43 48.5t51.5 20q28 0 45.5 -16t17.5 -42q0 -36 -45 -65.5t-109 -46.5q-46 -114 -103.5 -311.5t-57.5 -245.5q0 -97 73 -97h2q24 0 46.5 7.5 t42.5 20.5t39.5 35t36 45.5t35 58t33.5 66t33 76.5t32.5 83.5t33.5 91.5q10 28 25 68t27 72.5t27 74t28 76.5q5 15 22 15q10 0 15.5 -6.5t5.5 -15.5q0 -5 -1 -9l-106 -290l-58 -163q-49 -146 -49 -220q0 -57 30 -57q18 0 36.5 11t32 25.5t29 40t24 43t21.5 45.5q4 6 9 17.5 t7 16.5q7 13 21 13q11 0 17 -7.5t6 -15.5q0 -4 -3 -10q-9 -21 -16 -34q-15 -33 -25 -52t-29 -49t-36.5 -46.5t-42 -29.5t-51.5 -13q-75 0 -75 102q0 21 1 33q-32 -52 -63 -86.5t-73 -56.5t-88 -22h-3q-58 1 -87.5 39.5t-29.5 103.5q0 50 46.5 213.5t106.5 333.5 q-24 -5 -66 -11q-2 0 -7 -1q-40 -6 -61 -10t-59.5 -12.5t-60.5 -16.5t-51 -21.5t-44 -29t-26.5 -38t-11.5 -48.5q-1 -42 24 -69.5t62 -27.5q9 0 15.5 -7t6.5 -17q0 -9 -7.5 -15.5t-15.5 -6.5q-56 0 -93 41.5t-37 101.5q0 27 7.5 50t19.5 41t32 34t39 27t47.5 21.5t50.5 16.5 t55 12.5t53.5 10t54.5 8.5zM507 724q32 7 58 25.5t26 32.5q0 6 -4.5 10.5t-10.5 4.5q-12 0 -25 -11t-24 -27t-20 -35z" />
<glyph unicode="&#xdb;" horiz-adv-x="838" d="M859 905q4 -9 1 -16.5t-10 -10.5q-16 -5 -27 10l-54 81l-111 -79q-17 -12 -28 2q-13 18 3 30l126 99q12 8 23 6t16 -12zM451 710q13 33 30.5 61.5t43 48.5t51.5 20q28 0 45.5 -16t17.5 -42q0 -36 -45 -65.5t-109 -46.5q-46 -114 -103.5 -311.5t-57.5 -245.5q0 -97 73 -97 h2q24 0 46.5 7.5t42.5 20.5t39.5 35t36 45.5t35 58t33.5 66t33 76.5t32.5 83.5t33.5 91.5q10 28 25 68t27 72.5t27 74t28 76.5q5 15 22 15q10 0 15.5 -6.5t5.5 -15.5q0 -5 -1 -9l-106 -290l-58 -163q-49 -146 -49 -220q0 -57 30 -57q18 0 36.5 11t32 25.5t29 40t24 43 t21.5 45.5q4 6 9 17.5t7 16.5q7 13 21 13q11 0 17 -7.5t6 -15.5q0 -4 -3 -10q-9 -21 -16 -34q-15 -33 -25 -52t-29 -49t-36.5 -46.5t-42 -29.5t-51.5 -13q-75 0 -75 102q0 21 1 33q-32 -52 -63 -86.5t-73 -56.5t-88 -22h-3q-58 1 -87.5 39.5t-29.5 103.5q0 50 46.5 213.5 t106.5 333.5q-24 -5 -66 -11q-2 0 -7 -1q-40 -6 -61 -10t-59.5 -12.5t-60.5 -16.5t-51 -21.5t-44 -29t-26.5 -38t-11.5 -48.5q-1 -42 24 -69.5t62 -27.5q9 0 15.5 -7t6.5 -17q0 -9 -7.5 -15.5t-15.5 -6.5q-56 0 -93 41.5t-37 101.5q0 27 7.5 50t19.5 41t32 34t39 27 t47.5 21.5t50.5 16.5t55 12.5t53.5 10t54.5 8.5zM507 724q32 7 58 25.5t26 32.5q0 6 -4.5 10.5t-10.5 4.5q-12 0 -25 -11t-24 -27t-20 -35z" />
<glyph unicode="&#xdc;" horiz-adv-x="838" d="M679.5 960q15.5 0 26.5 -11t11 -27q0 -10 -5 -18.5t-14 -13t-19 -4.5q-15 0 -25.5 10.5t-10.5 26t10.5 26.5t26 11zM798.5 960q15.5 0 26.5 -11t11 -27q0 -10 -5 -18.5t-14 -13t-19 -4.5q-15 0 -26 10.5t-11 26t11 26.5t26.5 11zM451 710q13 33 30.5 61.5t43 48.5 t51.5 20q28 0 45.5 -16t17.5 -42q0 -36 -45 -65.5t-109 -46.5q-46 -114 -103.5 -311.5t-57.5 -245.5q0 -97 73 -97h2q24 0 46.5 7.5t42.5 20.5t39.5 35t36 45.5t35 58t33.5 66t33 76.5t32.5 83.5t33.5 91.5q10 28 25 68t27 72.5t27 74t28 76.5q5 15 22 15q10 0 15.5 -6.5 t5.5 -15.5q0 -5 -1 -9l-106 -290l-58 -163q-49 -146 -49 -220q0 -57 30 -57q18 0 36.5 11t32 25.5t29 40t24 43t21.5 45.5q4 6 9 17.5t7 16.5q7 13 21 13q11 0 17 -7.5t6 -15.5q0 -4 -3 -10q-9 -21 -16 -34q-15 -33 -25 -52t-29 -49t-36.5 -46.5t-42 -29.5t-51.5 -13 q-75 0 -75 102q0 21 1 33q-32 -52 -63 -86.5t-73 -56.5t-88 -22h-3q-58 1 -87.5 39.5t-29.5 103.5q0 50 46.5 213.5t106.5 333.5q-24 -5 -66 -11q-2 0 -7 -1q-40 -6 -61 -10t-59.5 -12.5t-60.5 -16.5t-51 -21.5t-44 -29t-26.5 -38t-11.5 -48.5q-1 -42 24 -69.5t62 -27.5 q9 0 15.5 -7t6.5 -17q0 -9 -7.5 -15.5t-15.5 -6.5q-56 0 -93 41.5t-37 101.5q0 27 7.5 50t19.5 41t32 34t39 27t47.5 21.5t50.5 16.5t55 12.5t53.5 10t54.5 8.5zM507 724q32 7 58 25.5t26 32.5q0 6 -4.5 10.5t-10.5 4.5q-12 0 -25 -11t-24 -27t-20 -35z" />
<glyph unicode="&#xdd;" horiz-adv-x="826" d="M680 908l146 101q8 5 18 2.5t15 -10.5t3 -18t-11 -15l-149 -99q-18 -10 -30 8q-8 20 8 31zM451 708q21 54 54.5 93.5t71.5 39.5q28 0 45.5 -16t17.5 -42q0 -35 -45 -65t-109 -47q-31 -75 -64 -179.5t-54.5 -193.5t-21.5 -123q0 -97 74 -97q86 0 160 103q9 13 16.5 24 t13.5 20t13 22t11 20.5t12.5 26t12 27t14.5 35t16 39t19.5 49t22.5 56.5q10 28 25 68t27 72.5t27 74t28 76.5q5 15 22 15q10 0 15.5 -6.5t5.5 -15.5q0 -5 -1 -9l-106 -290q-1 -2 -24.5 -68t-52 -146t-56 -155.5t-33.5 -92.5l-17 -48q88 30 149 98t105 171q7 14 20 14 q3 0 10 -2q14 -7 14 -21q0 -3 -2 -9q-52 -123 -126 -197t-189 -108q-78 -224 -196 -226q-49 0 -78 28.5t-29 76.5q0 108 182 142q49 7 86 17q2 7 59 170q-78 -97 -176 -97q-58 0 -89.5 39t-31.5 104q1 51 41 195.5t93 289.5q-22 -4 -67 -11q-3 0 -10 -2q-39 -6 -60.5 -9.5 t-59.5 -12t-60 -16.5t-50 -21.5t-43.5 -29t-26.5 -38t-11 -48.5q0 -42 25 -69.5t61 -27.5q9 0 15.5 -6.5t6.5 -16.5t-6 -16.5t-17 -6.5q-57 0 -93.5 42t-36.5 103q0 27 7.5 50t19 41t32 33.5t39 26.5t48 21t50.5 16t55 13t54 10t54 8zM508 725q32 7 58 25.5t26 32.5 q0 6 -4.5 10.5t-10.5 4.5q-9 0 -18.5 -6t-18.5 -16.5t-17.5 -23.5t-14.5 -27zM519 -92q-45 -9 -59 -12q-50 -8 -81 -21t-47 -31t-18 -43q0 -18 8 -32t22 -21.5t32 -6.5q89 1 143 167z" />
<glyph unicode="&#xde;" horiz-adv-x="789" d="M534 588q54 0 100.5 -16.5t80 -45.5t52 -71t18.5 -91q0 -77 -31.5 -144.5t-90.5 -109.5t-133 -42q-47 0 -100 21q-15 5 -15 21q0 7 3 12t8 7.5t10.5 2.5t8.5 -1q48 -18 89 -18q59 0 107.5 38t73.5 95t25 118q0 86 -59.5 131.5t-157.5 45.5h-8q-7 -20 -38 -126 q-2 -10 -8 -29q-20 -69 -32 -106t-35 -100t-45 -98.5t-52 -74t-68 -56t-81 -17.5q-68 0 -112 41.5t-44 106.5q0 71 47 124t111 53q45 0 45 -26q0 -11 -9.5 -18t-19.5 -3q-6 2 -18 2q-44 0 -77.5 -41t-33.5 -89t32.5 -76.5t79.5 -28.5q30 0 57 14t48 32.5t42.5 57t36 68 t33.5 85.5t29.5 90.5t29.5 100.5q20 69 34 109q-91 -18 -151 -89q-7 -9 -16.5 -11t-16.5 3.5t-8.5 15.5t5.5 19q79 95 202 110q37 100 61 127q-173 -13 -275.5 -78.5t-102.5 -164.5q0 -48 23.5 -77.5t62.5 -29.5q5 0 10.5 -3.5t8.5 -9t2 -11.5q0 -6 -3 -11t-8.5 -8t-11.5 -3 q-60 0 -96 42.5t-34 111.5q3 130 141 209.5t362 80.5q10 0 16.5 -5.5t7.5 -12.5q3 -22 -20 -27q-32 -7 -53 -39t-42 -87h3z" />
<glyph unicode="&#xdf;" horiz-adv-x="385" d="M448 280q8 -6 9 -16t-7 -20q-19 -26 -37.5 -45t-39.5 -34t-33 -22t-37 -21q-10 -63 -30 -105q-8 -17 -17.5 -33t-24 -33.5t-33 -28.5t-37.5 -11q-26 0 -43.5 17.5t-17.5 43.5q0 46 44 93t117 80q5 33 5 80q0 20 -11 57t-17.5 64.5t6 66.5t51.5 73q68 60 68 114 q0 46 -60 46q-83 0 -140 -141q-66 -168 -176 -486q-4 -10 -12.5 -15t-17.5 -2q-20 7 -13 33q47 134 101.5 283.5t76.5 204.5q68 168 181 168q48 0 76.5 -24.5t28.5 -66.5q0 -35 -22 -75t-61 -74q-33 -28 -41 -52.5t-1 -42.5t17.5 -55.5t10.5 -75.5q0 -20 -2 -57 q52 31 105 103q16 22 34 9zM161 -43q17 0 36.5 22.5t36.5 58.5q11 23 18 54q-41 -19 -73.5 -56.5t-32.5 -63.5q0 -7 4 -11t11 -4z" />
<glyph unicode="&#xe0;" horiz-adv-x="435" d="M368 612q15 -13 4 -30q-14 -15 -29 -2l-118 105q-17 15 -4 34q17 17 34 2zM484 257q14 -7 14 -20q0 -4 -2 -10l-1 -3q-12 -26 -17 -36.5t-17.5 -36.5t-21 -39t-22 -34t-25.5 -32t-27.5 -23t-32 -17.5t-34.5 -5.5q-38 0 -58 25t-20 66q-64 -91 -135 -91q-43 0 -65.5 32.5 t-22.5 84.5q0 53 19.5 121t50.5 129t76.5 102.5t91.5 41.5q70 0 99 -57q3 10 18 48q5 14 22 14q12 0 18 -10t2 -20l-54 -145q-4 -11 -12.5 -35t-12.5 -35t-11.5 -32t-11 -32t-8.5 -27.5t-7.5 -27t-5.5 -23t-4 -22t-1 -16.5q0 -24 7.5 -35t24.5 -11q16 0 32 8.5t30.5 26 t26 33.5t25.5 43.5t21 42.5t20 43l1 3q7 14 20 14q3 0 10 -2zM84 45q18 0 36.5 10t33 24t30.5 39.5t27 45t25.5 52.5t22 51t20.5 51l26 69q-2 24 -11 42t-24 27t-35 9q-46 -1 -92 -64.5t-73 -142t-28 -134.5q0 -79 42 -79z" />
<glyph unicode="&#xe1;" horiz-adv-x="435" d="M259 620l146 100q8 6 17.5 3.5t14.5 -10.5q6 -8 4 -18t-11 -16l-149 -98q-19 -10 -30 8q-8 19 8 31zM484 257q14 -7 14 -20q0 -4 -2 -10l-1 -3q-12 -26 -17 -36.5t-17.5 -36.5t-21 -39t-22 -34t-25.5 -32t-27.5 -23t-32 -17.5t-34.5 -5.5q-38 0 -58 25t-20 66 q-64 -91 -135 -91q-43 0 -65.5 32.5t-22.5 84.5q0 53 19.5 121t50.5 129t76.5 102.5t91.5 41.5q70 0 99 -57q3 10 18 48q5 14 22 14q12 0 18 -10t2 -20l-54 -145q-4 -11 -12.5 -35t-12.5 -35t-11.5 -32t-11 -32t-8.5 -27.5t-7.5 -27t-5.5 -23t-4 -22t-1 -16.5q0 -24 7.5 -35 t24.5 -11q16 0 32 8.5t30.5 26t26 33.5t25.5 43.5t21 42.5t20 43l1 3q7 14 20 14q3 0 10 -2zM84 45q18 0 36.5 10t33 24t30.5 39.5t27 45t25.5 52.5t22 51t20.5 51l26 69q-2 24 -11 42t-24 27t-35 9q-46 -1 -92 -64.5t-73 -142t-28 -134.5q0 -79 42 -79z" />
<glyph unicode="&#xe2;" horiz-adv-x="435" d="M421 595q5 -9 2 -16.5t-10 -10.5q-17 -5 -27 10l-54 81l-112 -79q-16 -12 -28 2q-12 18 3 30l127 99q11 8 22.5 6t16.5 -12zM484 257q14 -7 14 -20q0 -4 -2 -10l-1 -3q-12 -26 -17 -36.5t-17.5 -36.5t-21 -39t-22 -34t-25.5 -32t-27.5 -23t-32 -17.5t-34.5 -5.5 q-38 0 -58 25t-20 66q-64 -91 -135 -91q-43 0 -65.5 32.5t-22.5 84.5q0 53 19.5 121t50.5 129t76.5 102.5t91.5 41.5q70 0 99 -57q3 10 18 48q5 14 22 14q12 0 18 -10t2 -20l-54 -145q-4 -11 -12.5 -35t-12.5 -35t-11.5 -32t-11 -32t-8.5 -27.5t-7.5 -27t-5.5 -23t-4 -22 t-1 -16.5q0 -24 7.5 -35t24.5 -11q16 0 32 8.5t30.5 26t26 33.5t25.5 43.5t21 42.5t20 43l1 3q7 14 20 14q3 0 10 -2zM84 45q18 0 36.5 10t33 24t30.5 39.5t27 45t25.5 52.5t22 51t20.5 51l26 69q-2 24 -11 42t-24 27t-35 9q-46 -1 -92 -64.5t-73 -142t-28 -134.5 q0 -79 42 -79z" />
<glyph unicode="&#xe3;" horiz-adv-x="435" d="M449 663q0 -7 -4 -14q-12 -19 -34.5 -31.5t-44.5 -12.5q-40 0 -67 32q-14 17 -32 17q-24 0 -39 -20q-11 -15 -22 -15q-22 0 -22 23q0 6 6 16q11 18 33 30t44 12q39 0 67 -33q14 -17 32 -17q11 0 22.5 7t17.5 17q7 12 21 12q9 0 15.5 -6.5t6.5 -16.5zM484 257 q14 -7 14 -20q0 -4 -2 -10l-1 -3q-12 -26 -17 -36.5t-17.5 -36.5t-21 -39t-22 -34t-25.5 -32t-27.5 -23t-32 -17.5t-34.5 -5.5q-38 0 -58 25t-20 66q-64 -91 -135 -91q-43 0 -65.5 32.5t-22.5 84.5q0 53 19.5 121t50.5 129t76.5 102.5t91.5 41.5q70 0 99 -57q3 10 18 48 q5 14 22 14q12 0 18 -10t2 -20l-54 -145q-4 -11 -12.5 -35t-12.5 -35t-11.5 -32t-11 -32t-8.5 -27.5t-7.5 -27t-5.5 -23t-4 -22t-1 -16.5q0 -24 7.5 -35t24.5 -11q16 0 32 8.5t30.5 26t26 33.5t25.5 43.5t21 42.5t20 43l1 3q7 14 20 14q3 0 10 -2zM84 45q18 0 36.5 10t33 24 t30.5 39.5t27 45t25.5 52.5t22 51t20.5 51l26 69q-2 24 -11 42t-24 27t-35 9q-46 -1 -92 -64.5t-73 -142t-28 -134.5q0 -79 42 -79z" />
<glyph unicode="&#xe4;" horiz-adv-x="435" d="M242 650q15 0 26.5 -11t11.5 -26.5t-11.5 -26t-26.5 -10.5t-26 10.5t-11 26t11 26.5t26 11zM360.5 650q15.5 0 27 -11t11.5 -26.5t-11.5 -26t-27 -10.5t-26 10.5t-10.5 26t10.5 26.5t26 11zM484 257q14 -7 14 -20q0 -4 -2 -10l-1 -3q-12 -26 -17 -36.5t-17.5 -36.5 t-21 -39t-22 -34t-25.5 -32t-27.5 -23t-32 -17.5t-34.5 -5.5q-38 0 -58 25t-20 66q-64 -91 -135 -91q-43 0 -65.5 32.5t-22.5 84.5q0 53 19.5 121t50.5 129t76.5 102.5t91.5 41.5q70 0 99 -57q3 10 18 48q5 14 22 14q12 0 18 -10t2 -20l-54 -145q-4 -11 -12.5 -35t-12.5 -35 t-11.5 -32t-11 -32t-8.5 -27.5t-7.5 -27t-5.5 -23t-4 -22t-1 -16.5q0 -24 7.5 -35t24.5 -11q16 0 32 8.5t30.5 26t26 33.5t25.5 43.5t21 42.5t20 43l1 3q7 14 20 14q3 0 10 -2zM84 45q18 0 36.5 10t33 24t30.5 39.5t27 45t25.5 52.5t22 51t20.5 51l26 69q-2 24 -11 42 t-24 27t-35 9q-46 -1 -92 -64.5t-73 -142t-28 -134.5q0 -79 42 -79z" />
<glyph unicode="&#xe5;" horiz-adv-x="435" d="M307 576q-43 0 -69.5 31t-20.5 73q7 39 37 65t69 26q42 0 69 -31t21 -73q-7 -39 -37.5 -65t-68.5 -26zM307 621q14 0 27 7t22 19.5t11 26.5t-3 26t-16 19t-25 7q-22 0 -39.5 -15.5t-21.5 -36.5q-3 -23 9.5 -38t35.5 -15zM484 257q14 -7 14 -20q0 -4 -2 -10l-1 -3 q-12 -26 -17 -36.5t-17.5 -36.5t-21 -39t-22 -34t-25.5 -32t-27.5 -23t-32 -17.5t-34.5 -5.5q-38 0 -58 25t-20 66q-64 -91 -135 -91q-43 0 -65.5 32.5t-22.5 84.5q0 53 19.5 121t50.5 129t76.5 102.5t91.5 41.5q70 0 99 -57q3 10 18 48q5 14 22 14q12 0 18 -10t2 -20 l-54 -145q-4 -11 -12.5 -35t-12.5 -35t-11.5 -32t-11 -32t-8.5 -27.5t-7.5 -27t-5.5 -23t-4 -22t-1 -16.5q0 -24 7.5 -35t24.5 -11q16 0 32 8.5t30.5 26t26 33.5t25.5 43.5t21 42.5t20 43l1 3q7 14 20 14q3 0 10 -2zM84 45q18 0 36.5 10t33 24t30.5 39.5t27 45t25.5 52.5 t22 51t20.5 51l26 69q-2 24 -11 42t-24 27t-35 9q-46 -1 -92 -64.5t-73 -142t-28 -134.5q0 -79 42 -79z" />
<glyph unicode="&#xe6;" horiz-adv-x="550" d="M599 257q14 -7 14 -22q0 -2 -2 -8q-102 -227 -239 -227q-53 0 -85 26t-42 72l-28 -84q-5 -14 -22 -14q-12 0 -17.5 9.5t-2.5 20.5l11 29q-50 -59 -101 -59q-43 0 -65.5 32.5t-22.5 84.5q0 53 19.5 121t50.5 129t76.5 102.5t91.5 41.5q33 0 53 -13.5t35 -43.5q4 10 18 48 q6 14 22 14q12 0 18.5 -10t1.5 -20l-6 -17q44 42 88 42q42 0 67 -21t25 -59q0 -41 -24.5 -77t-66 -62t-86 -44t-93.5 -30q-10 -38 -12 -71q-1 -47 24.5 -74.5t73.5 -27.5q25 0 50 12t50 36t49.5 62.5t46.5 89.5q4 8 13 11.5t17 0.5zM84 45q13 0 25.5 5t23 12.5t22 21 t20 25.5t18.5 31.5t16.5 33.5t16 36.5t15 36t14.5 37t13 34.5l26 69q-4 78 -59 78q-46 -1 -92 -64.5t-73 -142t-28 -134.5q0 -79 42 -79zM465 465q-21 0 -42 -12.5t-36.5 -31t-32 -47.5t-27 -51.5t-22.5 -52.5q38 12 70.5 26.5t65.5 34t52 45.5t19 55q0 34 -47 34z" />
<glyph unicode="&#xe7;" d="M391 257q14 -7 14 -22q0 -2 -2 -8q-20 -45 -40.5 -79.5t-45 -62.5t-51.5 -46t-59 -28t-69 -11l-21 -49q37 4 56.5 -16.5t14.5 -56.5q-12 -84 -112 -84q-40 0 -71 23q-11 9 -8.5 21.5t13.5 17t22 -2.5q21 -14 50 -14q56 0 61 39q3 23 -8.5 31t-38.5 4q-13 -4 -22 3t-5 17 l33 70q-46 11 -72.5 49.5t-26.5 95.5q0 82 38 167.5t96 140.5t111 55q45 0 68.5 -27.5t23.5 -74.5q0 -18 -4 -35.5t-10.5 -31.5t-15.5 -22.5t-18 -8.5q-23 0 -23 22q0 4 13 27.5t13 48.5q0 56 -47 56q-40 0 -87.5 -52t-79.5 -127.5t-32 -138.5q0 -46 23.5 -74t62.5 -28 q75 0 129 51t97 149q4 8 12.5 11.5t17.5 0.5z" />
<glyph unicode="&#xe8;" d="M345 612q14 -13 3 -30q-13 -15 -28 -2l-119 105q-17 15 -3 34q17 17 33 2zM391 257q14 -7 14 -22q0 -2 -2 -8q-53 -117 -116.5 -172t-145.5 -55q-66 0 -104.5 40.5t-36.5 107.5q2 52 23.5 115t54 118t78 92.5t90.5 37.5q42 0 67 -21t25 -59q0 -41 -26 -77t-70 -62 t-89.5 -44t-95.5 -30q-10 -38 -12 -71q-1 -47 24 -73.5t74 -28.5q66 -1 119 47.5t99 152.5q4 8 12.5 11.5t17.5 0.5zM75 270q218 68 218 161q0 34 -47 34q-26 0 -52.5 -18t-48.5 -49t-39 -62t-31 -66z" />
<glyph unicode="&#xe9;" d="M235 620l146 100q8 6 18 3.5t15 -10.5t3 -18t-11 -16l-149 -98q-18 -10 -30 8q-8 19 8 31zM391 257q14 -7 14 -22q0 -2 -2 -8q-53 -117 -116.5 -172t-145.5 -55q-66 0 -104.5 40.5t-36.5 107.5q2 52 23.5 115t54 118t78 92.5t90.5 37.5q42 0 67 -21t25 -59q0 -41 -26 -77 t-70 -62t-89.5 -44t-95.5 -30q-10 -38 -12 -71q-1 -47 24 -73.5t74 -28.5q66 -1 119 47.5t99 152.5q4 8 12.5 11.5t17.5 0.5zM75 270q218 68 218 161q0 34 -47 34q-26 0 -52.5 -18t-48.5 -49t-39 -62t-31 -66z" />
<glyph unicode="&#xea;" d="M397 595q5 -9 2 -16.5t-10 -10.5q-17 -5 -27 10l-54 81l-111 -79q-17 -12 -29 2q-12 18 4 30l126 99q12 8 23 6t16 -12zM391 257q14 -7 14 -22q0 -2 -2 -8q-53 -117 -116.5 -172t-145.5 -55q-66 0 -104.5 40.5t-36.5 107.5q2 52 23.5 115t54 118t78 92.5t90.5 37.5 q42 0 67 -21t25 -59q0 -41 -26 -77t-70 -62t-89.5 -44t-95.5 -30q-10 -38 -12 -71q-1 -47 24 -73.5t74 -28.5q66 -1 119 47.5t99 152.5q4 8 12.5 11.5t17.5 0.5zM75 270q218 68 218 161q0 34 -47 34q-26 0 -52.5 -18t-48.5 -49t-39 -62t-31 -66z" />
<glyph unicode="&#xeb;" d="M218.5 650q15.5 0 26.5 -11t11 -26.5t-11 -26t-26.5 -10.5t-26.5 10.5t-11 26t11 26.5t26.5 11zM337 650q15 0 26.5 -11t11.5 -26.5t-11.5 -26t-26.5 -10.5t-26 10.5t-11 26t11 26.5t26 11zM391 257q14 -7 14 -22q0 -2 -2 -8q-53 -117 -116.5 -172t-145.5 -55 q-66 0 -104.5 40.5t-36.5 107.5q2 52 23.5 115t54 118t78 92.5t90.5 37.5q42 0 67 -21t25 -59q0 -41 -26 -77t-70 -62t-89.5 -44t-95.5 -30q-10 -38 -12 -71q-1 -47 24 -73.5t74 -28.5q66 -1 119 47.5t99 152.5q4 8 12.5 11.5t17.5 0.5zM75 270q218 68 218 161q0 34 -47 34 q-26 0 -52.5 -18t-48.5 -49t-39 -62t-31 -66z" />
<glyph unicode="&#xec;" horiz-adv-x="198" d="M226 612q14 -13 3 -30q-13 -15 -28 -2l-119 105q-17 15 -3 34q17 17 33 2zM247 257q14 -5 14 -20q0 -4 -2 -10q-18 -41 -32 -69t-34 -60.5t-38.5 -52t-43 -32.5t-51.5 -13q-37 0 -58 26t-19.5 64.5t26.5 121t45 137t56 147.5q5 15 21 15q7 0 13 -3.5t8.5 -10t-0.5 -15.5 q-10 -29 -28 -79q-36 -101 -49.5 -140.5t-27 -81.5t-16.5 -58t-3 -32q0 -46 32 -46q17 0 32.5 8t30 25.5t26 33t25.5 43.5t21.5 43.5t21.5 46.5q7 14 22 14q2 0 8 -2z" />
<glyph unicode="&#xed;" horiz-adv-x="198" d="M117 620l145 100q9 6 18.5 3.5t14.5 -10.5t3 -18t-11 -16l-149 -98q-18 -10 -30 8q-8 19 9 31zM247 257q14 -5 14 -20q0 -4 -2 -10q-18 -41 -32 -69t-34 -60.5t-38.5 -52t-43 -32.5t-51.5 -13q-37 0 -58 26t-19.5 64.5t26.5 121t45 137t56 147.5q5 15 21 15q7 0 13 -3.5 t8.5 -10t-0.5 -15.5q-10 -29 -28 -79q-36 -101 -49.5 -140.5t-27 -81.5t-16.5 -58t-3 -32q0 -46 32 -46q17 0 32.5 8t30 25.5t26 33t25.5 43.5t21.5 43.5t21.5 46.5q7 14 22 14q2 0 8 -2z" />
<glyph unicode="&#xee;" horiz-adv-x="198" d="M246 603q3 -14 -6.5 -21.5t-20.5 -3t-14 19.5l-12 71l-85 -80q-14 -15 -28 2q-12 17 3 30l104 99q10 10 23.5 7t15.5 -12zM247 257q14 -5 14 -20q0 -4 -2 -10q-18 -41 -32 -69t-34 -60.5t-38.5 -52t-43 -32.5t-51.5 -13q-37 0 -58 26t-19.5 64.5t26.5 121t45 137 t56 147.5q5 15 21 15q7 0 13 -3.5t8.5 -10t-0.5 -15.5q-10 -29 -28 -79q-36 -101 -49.5 -140.5t-27 -81.5t-16.5 -58t-3 -32q0 -46 32 -46q17 0 32.5 8t30 25.5t26 33t25.5 43.5t21.5 43.5t21.5 46.5q7 14 22 14q2 0 8 -2z" />
<glyph unicode="&#xef;" horiz-adv-x="198" d="M99.5 650q15.5 0 26.5 -11t11 -26.5t-11 -26t-26.5 -10.5t-26 10.5t-10.5 26t10.5 26.5t26 11zM218.5 650q15.5 0 26.5 -11t11 -26.5t-11 -26t-26.5 -10.5t-26.5 10.5t-11 26t11 26.5t26.5 11zM247 257q14 -5 14 -20q0 -4 -2 -10q-18 -41 -32 -69t-34 -60.5t-38.5 -52 t-43 -32.5t-51.5 -13q-37 0 -58 26t-19.5 64.5t26.5 121t45 137t56 147.5q5 15 21 15q7 0 13 -3.5t8.5 -10t-0.5 -15.5q-10 -29 -28 -79q-36 -101 -49.5 -140.5t-27 -81.5t-16.5 -58t-3 -32q0 -46 32 -46q17 0 32.5 8t30 25.5t26 33t25.5 43.5t21.5 43.5t21.5 46.5 q7 14 22 14q2 0 8 -2z" />
<glyph unicode="&#xf0;" horiz-adv-x="451" d="M490 259q7 0 13.5 -4.5t9 -12t-0.5 -15.5q-66 -158 -164 -158q-49 0 -82 30q-38 -45 -82 -72t-87 -27q-48 0 -79.5 33.5t-31.5 84.5q0 45 21.5 99t55.5 100.5t81.5 77.5t95.5 31q51 0 81 -31q0 66 -23 122l-66 -12q-10 -1 -17.5 4.5t-9.5 14.5q-2 21 20 27l50 8 q-29 48 -80 89q-19 16 -7 33q6 8 15.5 9t18.5 -6q66 -53 101 -116l65 11q21 3 27 -18q1 -10 -3.5 -17.5t-15.5 -8.5l-54 -10q42 -113 3 -277q-15 -57 -52 -111q17 -23 52 -23q38 0 67 32.5t58 98.5q5 14 20 14zM97 45q71 0 143 95q-9 26 -9 52q0 23 8 50q5 17 22 17 q11 0 17.5 -9t4.5 -20q-5 -17 -7 -30q18 31 26 66l0.5 1.5t0.5 2.5q5 16 5 36q0 74 -68 74q-51 0 -101 -46t-79.5 -107t-29.5 -109q0 -32 20 -52.5t47 -20.5z" />
<glyph unicode="&#xf1;" horiz-adv-x="430" d="M434 665q0 -7 -4 -14q-8 -12 -21 -22t-28.5 -16t-29.5 -6q-40 0 -67 32q-14 18 -32 18q-24 0 -39 -21q-12 -15 -22 -15q-23 0 -23 23q0 6 7 16q11 18 33 30t44 12q39 0 67 -32q14 -18 32 -18q11 0 22.5 7t17.5 17q7 12 20 12q10 0 16.5 -6.5t6.5 -16.5zM480 257 q14 -7 14 -20q0 -4 -3 -10q-56 -125 -99.5 -176t-97.5 -51q-38 0 -58 25t-20 66q0 42 21 102.5t42 120t21 97.5q0 57 -56 57q-31 0 -68.5 -41.5t-66 -93.5t-47.5 -103l-76 -214q-3 -9 -11.5 -13t-17.5 -2q-9 3 -13 11.5t-1 17.5q27 76 86 242t80 225q5 15 22 15 q12 0 18.5 -10t2.5 -20l-8 -22q51 53 100 53q102 0 102 -102q0 -40 -21.5 -102.5t-42.5 -123t-21 -94.5q0 -46 33 -46q37 0 70.5 44.5t84.5 155.5q7 14 21 14q3 0 10 -2z" />
<glyph unicode="&#xf2;" horiz-adv-x="422" d="M350 612q15 -13 3 -30q-13 -15 -28 -2l-119 105q-17 15 -3 34q17 17 34 2zM483 228q-36 -82 -75.5 -120.5t-87.5 -38.5q-47 0 -82 29q-32 -43 -71 -70.5t-76 -27.5q-94 0 -94 109q0 138 92 288q68 114 152 114q52 -2 80 -33.5t28 -82.5t-23.5 -123t-60.5 -135 q17 -23 55 -23q22 0 42.5 14.5t40 43t38.5 73.5q5 14 20 14q12 0 19.5 -10t2.5 -21zM232 259q12 0 18.5 -9t3.5 -20q-1 -3 -5 -25q17 33 29.5 68t18.5 67t6 56q0 22 -8 38t-22.5 23.5t-32.5 7.5q-58 0 -111 -91q-86 -141 -86 -263q0 -66 48 -66q55 0 121 94q-6 14 -8 33.5 t0 37.5t6 32q3 17 22 17z" />
<glyph unicode="&#xf3;" horiz-adv-x="422" d="M241 620l146 100q8 6 17.5 3.5t14.5 -10.5t3 -18t-11 -16l-149 -98q-18 -10 -30 8q-8 19 9 31zM483 228q-36 -82 -75.5 -120.5t-87.5 -38.5q-47 0 -82 29q-32 -43 -71 -70.5t-76 -27.5q-94 0 -94 109q0 138 92 288q68 114 152 114q52 -2 80 -33.5t28 -82.5t-23.5 -123 t-60.5 -135q17 -23 55 -23q22 0 42.5 14.5t40 43t38.5 73.5q5 14 20 14q12 0 19.5 -10t2.5 -21zM232 259q12 0 18.5 -9t3.5 -20q-1 -3 -5 -25q17 33 29.5 68t18.5 67t6 56q0 22 -8 38t-22.5 23.5t-32.5 7.5q-58 0 -111 -91q-86 -141 -86 -263q0 -66 48 -66q55 0 121 94 q-6 14 -8 33.5t0 37.5t6 32q3 17 22 17z" />
<glyph unicode="&#xf4;" horiz-adv-x="422" d="M403 595q4 -9 1 -16.5t-10 -10.5q-16 -5 -27 10l-54 81l-111 -79q-16 -12 -28 2q-12 18 3 30l126 99q12 8 23 6t16 -12zM483 228q-36 -82 -75.5 -120.5t-87.5 -38.5q-47 0 -82 29q-32 -43 -71 -70.5t-76 -27.5q-94 0 -94 109q0 138 92 288q68 114 152 114q52 -2 80 -33.5 t28 -82.5t-23.5 -123t-60.5 -135q17 -23 55 -23q22 0 42.5 14.5t40 43t38.5 73.5q5 14 20 14q12 0 19.5 -10t2.5 -21zM232 259q12 0 18.5 -9t3.5 -20q-1 -3 -5 -25q17 33 29.5 68t18.5 67t6 56q0 22 -8 38t-22.5 23.5t-32.5 7.5q-58 0 -111 -91q-86 -141 -86 -263 q0 -66 48 -66q55 0 121 94q-6 14 -8 33.5t0 37.5t6 32q3 17 22 17z" />
<glyph unicode="&#xf5;" horiz-adv-x="422" d="M431 663q0 -7 -4 -14q-13 -19 -35.5 -31.5t-43.5 -12.5q-40 0 -67 32q-14 17 -33 17q-24 0 -38 -20q-12 -15 -22 -15q-23 0 -23 23q0 6 7 16q11 18 32.5 30t43.5 12q40 0 67 -33q14 -17 33 -17q11 0 22.5 7t17.5 17q7 12 20 12q10 0 16.5 -6.5t6.5 -16.5zM483 228 q-36 -82 -75.5 -120.5t-87.5 -38.5q-47 0 -82 29q-32 -43 -71 -70.5t-76 -27.5q-94 0 -94 109q0 138 92 288q68 114 152 114q52 -2 80 -33.5t28 -82.5t-23.5 -123t-60.5 -135q17 -23 55 -23q22 0 42.5 14.5t40 43t38.5 73.5q5 14 20 14q12 0 19.5 -10t2.5 -21zM232 259 q12 0 18.5 -9t3.5 -20q-1 -3 -5 -25q17 33 29.5 68t18.5 67t6 56q0 22 -8 38t-22.5 23.5t-32.5 7.5q-58 0 -111 -91q-86 -141 -86 -263q0 -66 48 -66q55 0 121 94q-6 14 -8 33.5t0 37.5t6 32q3 17 22 17z" />
<glyph unicode="&#xf6;" horiz-adv-x="422" d="M223.5 650q15.5 0 26.5 -11t11 -26.5t-11 -26t-26.5 -10.5t-26 10.5t-10.5 26t10.5 26.5t26 11zM342.5 650q15.5 0 26.5 -11t11 -26.5t-11 -26t-26.5 -10.5t-26 10.5t-10.5 26t10.5 26.5t26 11zM483 228q-36 -82 -75.5 -120.5t-87.5 -38.5q-47 0 -82 29 q-32 -43 -71 -70.5t-76 -27.5q-94 0 -94 109q0 138 92 288q68 114 152 114q52 -2 80 -33.5t28 -82.5t-23.5 -123t-60.5 -135q17 -23 55 -23q22 0 42.5 14.5t40 43t38.5 73.5q5 14 20 14q12 0 19.5 -10t2.5 -21zM232 259q12 0 18.5 -9t3.5 -20q-1 -3 -5 -25q17 33 29.5 68 t18.5 67t6 56q0 22 -8 38t-22.5 23.5t-32.5 7.5q-58 0 -111 -91q-86 -141 -86 -263q0 -66 48 -66q55 0 121 94q-6 14 -8 33.5t0 37.5t6 32q3 17 22 17z" />
<glyph unicode="&#xf8;" horiz-adv-x="422" d="M461 259q12 0 19.5 -10t2.5 -21q-36 -82 -75.5 -120.5t-87.5 -38.5q-47 0 -82 29q-32 -43 -71 -70.5t-76 -27.5q-14 0 -21 1l-16 -41q-6 -14 -17.5 -15t-18.5 9.5t-2 23.5q3 7 8 20t7 19q-34 26 -34 92q0 138 92 288q68 114 152 114q16 0 34 -6q30 47 32 50q13 21 29 10 t5 -32l-2 -4l-28 -43q38 -31 38 -91q0 -51 -23.5 -123t-60.5 -135q17 -23 55 -23q22 0 42.5 14.5t40 43t38.5 73.5q5 14 20 14zM43 111q0 -27 9 -44q95 221 199 397q-4 1 -11 1q-58 0 -111 -91q-86 -141 -86 -263zM232 259q12 0 18.5 -9t3.5 -20q-1 -3 -5 -25q17 33 29.5 68 t18.5 67t6 56q0 30 -16 50q-105 -180 -198 -401h2q55 0 121 94q-6 14 -8 33.5t0 37.5t6 32q3 17 22 17z" />
<glyph unicode="&#xf9;" horiz-adv-x="433" d="M338 612q15 -13 3 -30q-13 -15 -28 -2l-119 105q-16 15 -3 34q17 17 34 2zM483 257q13 -7 13 -20q0 -4 -2 -10q-36 -82 -67 -131t-62.5 -72.5t-67.5 -23.5q-67 0 -78 77q-24 -34 -59 -55.5t-70 -21.5h-1q-51 0 -77.5 28.5t-26.5 83.5q0 38 21 99.5t108 287.5q6 14 21 14 q13 0 19.5 -9.5t2.5 -20.5q-20 -51 -50 -131q-39 -104 -52 -139.5t-19 -58.5t-6 -42q0 -67 60 -67q70 0 124 111q8 15 16 33t17.5 41.5t17 42.5t19.5 51t19 52t22 60.5t23 62.5q5 14 20 14q13 0 20 -10t3 -20q-13 -36 -33.5 -92t-27.5 -72q-65 -179 -65 -228q0 -46 32 -46 q38 0 73 46.5t83 153.5q5 14 20 14q3 0 10 -2z" />
<glyph unicode="&#xfa;" horiz-adv-x="433" d="M229 620l146 100q8 6 17.5 3.5t14.5 -10.5t3 -18t-10 -16l-149 -98q-19 -10 -31 8q-8 19 9 31zM483 257q13 -7 13 -20q0 -4 -2 -10q-36 -82 -67 -131t-62.5 -72.5t-67.5 -23.5q-67 0 -78 77q-24 -34 -59 -55.5t-70 -21.5h-1q-51 0 -77.5 28.5t-26.5 83.5q0 38 21 99.5 t108 287.5q6 14 21 14q13 0 19.5 -9.5t2.5 -20.5q-20 -51 -50 -131q-39 -104 -52 -139.5t-19 -58.5t-6 -42q0 -67 60 -67q70 0 124 111q8 15 16 33t17.5 41.5t17 42.5t19.5 51t19 52t22 60.5t23 62.5q5 14 20 14q13 0 20 -10t3 -20q-13 -36 -33.5 -92t-27.5 -72 q-65 -179 -65 -228q0 -46 32 -46q38 0 73 46.5t83 153.5q5 14 20 14q3 0 10 -2z" />
<glyph unicode="&#xfb;" horiz-adv-x="433" d="M391 595q4 -9 1 -16.5t-10 -10.5q-16 -5 -27 10l-54 81l-111 -79q-16 -12 -28 2q-12 18 3 30l127 99q11 8 22 6t16 -12zM483 257q13 -7 13 -20q0 -4 -2 -10q-36 -82 -67 -131t-62.5 -72.5t-67.5 -23.5q-67 0 -78 77q-24 -34 -59 -55.5t-70 -21.5h-1q-51 0 -77.5 28.5 t-26.5 83.5q0 38 21 99.5t108 287.5q6 14 21 14q13 0 19.5 -9.5t2.5 -20.5q-20 -51 -50 -131q-39 -104 -52 -139.5t-19 -58.5t-6 -42q0 -67 60 -67q70 0 124 111q8 15 16 33t17.5 41.5t17 42.5t19.5 51t19 52t22 60.5t23 62.5q5 14 20 14q13 0 20 -10t3 -20 q-13 -36 -33.5 -92t-27.5 -72q-65 -179 -65 -228q0 -46 32 -46q38 0 73 46.5t83 153.5q5 14 20 14q3 0 10 -2z" />
<glyph unicode="&#xfc;" horiz-adv-x="433" d="M220.5 650q15.5 0 26.5 -11t11 -26.5t-11 -26t-26.5 -10.5t-26 10.5t-10.5 26t10.5 26.5t26 11zM339.5 650q15.5 0 26.5 -11t11 -26.5t-11 -26t-26.5 -10.5t-26.5 10.5t-11 26t11 26.5t26.5 11zM483 257q13 -7 13 -20q0 -4 -2 -10q-36 -82 -67 -131t-62.5 -72.5 t-67.5 -23.5q-67 0 -78 77q-24 -34 -59 -55.5t-70 -21.5h-1q-51 0 -77.5 28.5t-26.5 83.5q0 38 21 99.5t108 287.5q6 14 21 14q13 0 19.5 -9.5t2.5 -20.5q-20 -51 -50 -131q-39 -104 -52 -139.5t-19 -58.5t-6 -42q0 -67 60 -67q70 0 124 111q8 15 16 33t17.5 41.5t17 42.5 t19.5 51t19 52t22 60.5t23 62.5q5 14 20 14q13 0 20 -10t3 -20q-13 -36 -33.5 -92t-27.5 -72q-65 -179 -65 -228q0 -46 32 -46q38 0 73 46.5t83 153.5q5 14 20 14q3 0 10 -2z" />
<glyph unicode="&#xfd;" horiz-adv-x="444" d="M226 620l146 100q8 6 17.5 3.5t14.5 -10.5t3 -18t-11 -16l-149 -98q-18 -10 -30 8q-8 19 9 31zM494 256q14 -7 14 -21q0 -3 -3 -9q-52 -123 -125.5 -197t-188.5 -108q-78 -224 -196 -226q-49 0 -78 28.5t-29 76.5q0 108 182 142q49 7 86 17l27 78q-39 -37 -83 -37 q-62 0 -89.5 34t-27.5 82q0 8 1 16t3.5 19t4.5 19t6.5 22t7.5 22t10 26.5t10.5 27.5t12 32t13.5 35l60 164q6 14 21 14q9 0 15 -4.5t7.5 -11.5t-1.5 -14l-59 -164q-11 -32 -24.5 -67t-19.5 -51t-12 -34t-8 -29t-2 -22q0 -71 71 -71q41 0 88 70t82 169q8 23 80 214 q6 15 20 15q11 0 19 -10t4 -21q-48 -123 -81 -213l-86 -246l-16 -48q88 30 149 98t104 171q7 14 21 14q3 0 10 -2zM-5 -259q89 1 143 167q-45 -9 -59 -12q-50 -8 -81.5 -21t-47 -31t-17.5 -43q0 -28 17 -44.5t45 -15.5z" />
<glyph unicode="&#xfe;" horiz-adv-x="410" d="M459 257q14 -5 14 -20q0 -3 -2 -9q-18 -63 -66 -111t-102 -48q-46 0 -74 28q-77 -103 -162 -100q-61 3 -78 45q-92 -256 -103 -290q-6 -16 -22 -16q-12 0 -19 10t-3 21l121 338l137 376l71 195q5 15 21 15q12 0 19 -9.5t3 -20.5l-73 -201q52 53 105 53q25 0 43 -9.5 t28 -27t15 -39t5 -47.5q0 -54 -26 -131t-57 -123q20 -22 51 -22q40 0 74.5 40.5t49.5 90.5q7 14 20 14q4 0 10 -2zM220 259q12 0 18.5 -9t4.5 -20q-3 -9 -5 -28q53 111 53 190q0 76 -43 76q-21 0 -41.5 -12t-39.5 -36.5t-34 -47.5t-32 -60.5t-26 -59t-24 -59.5 q-3 -7 -7.5 -19.5t-6 -17l-4.5 -13.5t-3.5 -14.5t-1.5 -13.5t-1 -17q0 -29 9.5 -42t31.5 -14q70 -1 133 95q-19 45 -2 105q3 17 21 17z" />
<glyph unicode="&#xff;" horiz-adv-x="444" d="M208.5 650q15.5 0 26.5 -11t11 -26.5t-11 -26t-26.5 -10.5t-26 10.5t-10.5 26t10.5 26.5t26 11zM327.5 650q15.5 0 26.5 -11t11 -26.5t-11 -26t-26.5 -10.5t-26 10.5t-10.5 26t10.5 26.5t26 11zM494 256q14 -7 14 -21q0 -3 -3 -9q-52 -123 -125.5 -197t-188.5 -108 q-78 -224 -196 -226q-49 0 -78 28.5t-29 76.5q0 108 182 142q49 7 86 17l27 78q-39 -37 -83 -37q-62 0 -89.5 34t-27.5 82q0 8 1 16t3.5 19t4.5 19t6.5 22t7.5 22t10 26.5t10.5 27.5t12 32t13.5 35l60 164q6 14 21 14q9 0 15 -4.5t7.5 -11.5t-1.5 -14l-59 -164 q-11 -32 -24.5 -67t-19.5 -51t-12 -34t-8 -29t-2 -22q0 -71 71 -71q41 0 88 70t82 169q8 23 80 214q6 15 20 15q11 0 19 -10t4 -21q-48 -123 -81 -213l-86 -246l-16 -48q88 30 149 98t104 171q7 14 21 14q3 0 10 -2zM-5 -259q89 1 143 167q-45 -9 -59 -12q-50 -8 -81.5 -21 t-47 -31t-17.5 -43q0 -28 17 -44.5t45 -15.5z" />
<glyph unicode="&#x100;" horiz-adv-x="826" d="M941 923q10 0 16.5 -6t6.5 -16t-6 -16.5t-16 -6.5h-211q-10 0 -16.5 6.5t-6.5 16.5q1 6 4 11t8 8t12 3h209zM807 419q-37 -105 -48 -130q-116 -317 -116 -371q0 -51 17 -74.5t55 -23.5q6 0 11 -3.5t8.5 -9t3.5 -11.5q0 -9 -7 -16t-16 -7q-119 3 -119 145q0 23 11 67 t35 113t36 102t39 105l4 11h-229q-30 -52 -54.5 -90.5t-59.5 -84t-66.5 -74t-70.5 -48t-77 -19.5q-69 0 -116.5 41t-47.5 107q0 46 23.5 87.5t62 66t80.5 24.5q27 0 50 -11q13 -6 13 -20q0 -9 -6.5 -16t-16.5 -7q-1 0 -15.5 4.5t-24.5 4.5q-46 0 -83.5 -41.5t-37.5 -91.5 q0 -45 34.5 -73.5t84.5 -28.5q27 0 53 11t51 33t46.5 45t45.5 57.5t40.5 60.5t39.5 63h-53q-10 0 -17 7t-7 16q0 10 7 17t17 7h80q11 20 25 45.5t28.5 52t24.5 44.5q99 183 135 230q12 15 25.5 26.5t28 20t29.5 13t29 4.5q86 0 86 -100q0 -38 -13.5 -94t-24.5 -89.5 t-33 -96.5zM764 435q1 4 8.5 24.5t10.5 28.5t10 28.5t10.5 32t9 30.5t8.5 32t6.5 29t5 29t1.5 24q0 60 -42 60q-18 0 -39 -13.5t-36 -32.5q-36 -46 -132 -223q-5 -9 -29 -53.5t-38 -67.5h220z" />
<glyph unicode="&#x101;" horiz-adv-x="435" d="M405 635q10 0 16.5 -6.5t7.5 -16.5q0 -9 -6.5 -15.5t-16.5 -6.5h-211q-10 0 -16 6.5t-6 15.5q1 10 7 16.5t17 6.5h208zM484 257q14 -7 14 -20q0 -4 -2 -10l-1 -3q-12 -26 -17 -36.5t-17.5 -36.5t-21 -39t-22 -34t-25.5 -32t-27.5 -23t-32 -17.5t-34.5 -5.5q-38 0 -58 25 t-20 66q-64 -91 -135 -91q-43 0 -65.5 32.5t-22.5 84.5q0 53 19.5 121t50.5 129t76.5 102.5t91.5 41.5q70 0 99 -57q3 10 18 48q5 14 22 14q12 0 18 -10t2 -20l-54 -145q-4 -11 -12.5 -35t-12.5 -35t-11.5 -32t-11 -32t-8.5 -27.5t-7.5 -27t-5.5 -23t-4 -22t-1 -16.5 q0 -24 7.5 -35t24.5 -11q16 0 32 8.5t30.5 26t26 33.5t25.5 43.5t21 42.5t20 43l1 3q7 14 20 14q3 0 10 -2zM84 45q18 0 36.5 10t33 24t30.5 39.5t27 45t25.5 52.5t22 51t20.5 51l26 69q-2 24 -11 42t-24 27t-35 9q-46 -1 -92 -64.5t-73 -142t-28 -134.5q0 -79 42 -79z" />
<glyph unicode="&#x102;" horiz-adv-x="826" d="M1000 983q-49 -119 -145 -119q-59 0 -92 39t-17 95q6 17 23 17q7 0 13 -4.5t8 -11t1 -13.5q-10 -36 8.5 -56.5t52.5 -20.5q67 0 106 92q5 14 20 14q12 0 19.5 -10.5t2.5 -21.5zM807 419q-37 -105 -48 -130q-116 -317 -116 -371q0 -51 17 -74.5t55 -23.5q6 0 11 -3.5 t8.5 -9t3.5 -11.5q0 -9 -7 -16t-16 -7q-119 3 -119 145q0 23 11 67t35 113t36 102t39 105l4 11h-229q-30 -52 -54.5 -90.5t-59.5 -84t-66.5 -74t-70.5 -48t-77 -19.5q-69 0 -116.5 41t-47.5 107q0 46 23.5 87.5t62 66t80.5 24.5q27 0 50 -11q13 -6 13 -20q0 -9 -6.5 -16 t-16.5 -7q-1 0 -15.5 4.5t-24.5 4.5q-46 0 -83.5 -41.5t-37.5 -91.5q0 -45 34.5 -73.5t84.5 -28.5q27 0 53 11t51 33t46.5 45t45.5 57.5t40.5 60.5t39.5 63h-53q-10 0 -17 7t-7 16q0 10 7 17t17 7h80q11 20 25 45.5t28.5 52t24.5 44.5q99 183 135 230q12 15 25.5 26.5t28 20 t29.5 13t29 4.5q86 0 86 -100q0 -38 -13.5 -94t-24.5 -89.5t-33 -96.5zM764 435q1 4 8.5 24.5t10.5 28.5t10 28.5t10.5 32t9 30.5t8.5 32t6.5 29t5 29t1.5 24q0 60 -42 60q-18 0 -39 -13.5t-36 -32.5q-36 -46 -132 -223q-5 -9 -29 -53.5t-38 -67.5h220z" />
<glyph unicode="&#x103;" horiz-adv-x="435" d="M464 694q-49 -118 -144 -118q-60 0 -93 38.5t-16 95.5q5 17 22 17q8 0 13.5 -4.5t7.5 -11t1 -13.5q-10 -36 8.5 -56.5t52.5 -20.5q67 0 106 92q6 14 21 14q11 0 18.5 -10.5t2.5 -22.5zM484 257q14 -7 14 -20q0 -4 -2 -10l-1 -3q-12 -26 -17 -36.5t-17.5 -36.5t-21 -39 t-22 -34t-25.5 -32t-27.5 -23t-32 -17.5t-34.5 -5.5q-38 0 -58 25t-20 66q-64 -91 -135 -91q-43 0 -65.5 32.5t-22.5 84.5q0 53 19.5 121t50.5 129t76.5 102.5t91.5 41.5q70 0 99 -57q3 10 18 48q5 14 22 14q12 0 18 -10t2 -20l-54 -145q-4 -11 -12.5 -35t-12.5 -35 t-11.5 -32t-11 -32t-8.5 -27.5t-7.5 -27t-5.5 -23t-4 -22t-1 -16.5q0 -24 7.5 -35t24.5 -11q16 0 32 8.5t30.5 26t26 33.5t25.5 43.5t21 42.5t20 43l1 3q7 14 20 14q3 0 10 -2zM84 45q18 0 36.5 10t33 24t30.5 39.5t27 45t25.5 52.5t22 51t20.5 51l26 69q-2 24 -11 42 t-24 27t-35 9q-46 -1 -92 -64.5t-73 -142t-28 -134.5q0 -79 42 -79z" />
<glyph unicode="&#x104;" horiz-adv-x="826" d="M792 799q86 0 86 -100q0 -38 -13.5 -94t-24.5 -89.5t-33 -96.5q-10 -29 -21.5 -59t-18 -48t-8.5 -23q-55 -151 -76 -202q-15 -33 -27 -50t-34 -36q-37 -32 -63.5 -67t-26.5 -58q0 -17 11 -27.5t28 -10.5q33 0 65 17q14 6 23 0.5t8.5 -18t-13.5 -20.5q-43 -24 -79 -24 q-40 0 -64 21t-24 56q0 22 12.5 47.5t30.5 46.5t31 34t20 19t13 11.5t10 10t8 10t6.5 9t5.5 10t4.5 10t4.5 11.5t5 13q47 111 79 203l4 11h-229q-30 -52 -54.5 -90.5t-59.5 -84t-66.5 -74t-70.5 -48t-77 -19.5q-69 0 -116.5 41t-47.5 107q0 46 23.5 87.5t62 66t80.5 24.5 q27 0 50 -11q13 -6 13 -20q0 -9 -6.5 -16t-16.5 -7q-1 0 -15.5 4.5t-24.5 4.5q-46 0 -83.5 -41.5t-37.5 -91.5q0 -45 34.5 -73.5t84.5 -28.5q27 0 53 11t51 33t46.5 45t45.5 57.5t40.5 60.5t39.5 63h-53q-10 0 -17 7t-7 16q0 10 7 17t17 7h80q11 20 25 45.5t28.5 52 t24.5 44.5q99 183 135 230q12 15 25.5 26.5t28 20t29.5 13t29 4.5zM764 435q1 4 8.5 24.5t10.5 28.5t10 28.5t10.5 32t9 30.5t8.5 32t6.5 29t5 29t1.5 24q0 60 -42 60q-18 0 -39 -13.5t-36 -32.5q-36 -46 -132 -223q-5 -9 -29 -53.5t-38 -67.5h220z" />
<glyph unicode="&#x105;" horiz-adv-x="435" d="M484 257q14 -7 14 -20q0 -4 -2 -10l-1 -3q-2 -4 -5 -11q-21 -45 -34 -71t-38 -62t-50 -55q-72 -62 -97 -92.5t-25 -56.5q0 -17 10.5 -27.5t28.5 -10.5q33 0 65 17q13 6 22.5 0.5t9 -18t-13.5 -20.5q-44 -24 -80 -24q-39 0 -63 21t-24 56q0 59 81 131q-30 6 -46 29.5 t-16 60.5q-64 -91 -135 -91q-43 0 -65.5 32.5t-22.5 84.5q0 53 19.5 121t50.5 129t76.5 102.5t91.5 41.5q70 0 99 -57q3 10 18 48q5 14 22 14q12 0 18 -10t2 -20l-54 -145q-4 -11 -12.5 -35t-12.5 -35t-11.5 -32t-11 -32t-8.5 -27.5t-7.5 -27t-5.5 -23t-4 -22t-1 -16.5 q0 -24 7.5 -35t24.5 -11q16 0 32 8.5t30.5 26t26 33.5t25.5 43.5t21 42.5t20 43l1 3q7 14 20 14q3 0 10 -2zM84 45q18 0 36.5 10t33 24t30.5 39.5t27 45t25.5 52.5t22 51t20.5 51l26 69q-2 24 -11 42t-24 27t-35 9q-46 -1 -92 -64.5t-73 -142t-28 -134.5q0 -79 42 -79z" />
<glyph unicode="&#x106;" horiz-adv-x="640" d="M514 905l146 100q8 6 17.5 3.5t14.5 -10.5t3 -18t-10 -16l-149 -98q-19 -10 -31 8q-7 19 9 31zM688 258q9 -4 12.5 -12.5t0.5 -17.5q-61 -148 -145.5 -224.5t-205.5 -76.5q-103 0 -158.5 59t-55.5 162q0 80 45 221q-84 20 -132.5 75t-48.5 136q0 36 9.5 74t27 72.5 t41.5 64.5q6 7 17 7q9 0 16 -6t7 -17q0 -9 -6 -15q-19 -21 -34.5 -51.5t-24 -64t-8.5 -62.5q0 -69 41 -111.5t112 -57.5q19 54 43.5 106t57.5 103.5t69 89.5t79.5 61.5t88.5 22.5q64 -2 99 -43.5t35 -107.5t-36 -121.5t-93.5 -90.5t-127 -54.5t-139.5 -19.5q-20 0 -47 3 q-46 -146 -46 -214q0 -57 20.5 -97t58 -59.5t90.5 -19.5q107 0 180 68.5t129 204.5q3 9 12 12.5t17 0.5zM243 405q9 -1 28 -1q61 0 123 16.5t113.5 46t84 76.5t32.5 102q0 48 -22.5 77t-65.5 29q-46 0 -92 -33.5t-84 -87t-67 -110.5t-50 -115z" />
<glyph unicode="&#x107;" d="M235 620l146 100q8 6 18 3.5t15 -10.5t3 -18t-11 -16l-149 -98q-18 -10 -30 8q-8 19 8 31zM391 257q14 -7 14 -22q0 -2 -2 -8q-52 -115 -115 -171t-154 -56q-59 0 -95 40.5t-36 107.5q0 82 38 167.5t96 140.5t111 55q45 0 68.5 -27.5t23.5 -74.5q0 -18 -4 -35.5 t-10.5 -31.5t-15.5 -22.5t-18 -8.5q-23 0 -23 22q0 4 13 27.5t13 48.5q0 56 -47 56q-40 0 -87.5 -52t-79.5 -127.5t-32 -138.5q0 -46 23.5 -74t62.5 -28q75 0 129 51t97 149q4 8 12.5 11.5t17.5 0.5z" />
<glyph unicode="&#x10a;" horiz-adv-x="640" d="M555 861q-17 0 -29 11.5t-12 28.5q0 8 3.5 15t9 12.5t13 9t15.5 3.5q17 0 28.5 -12t11.5 -28q0 -17 -11.5 -28.5t-28.5 -11.5zM688 258q9 -4 12.5 -12.5t0.5 -17.5q-61 -148 -145.5 -224.5t-205.5 -76.5q-103 0 -158.5 59t-55.5 162q0 80 45 221q-84 20 -132.5 75 t-48.5 136q0 36 9.5 74t27 72.5t41.5 64.5q6 7 17 7q9 0 16 -6t7 -17q0 -9 -6 -15q-19 -21 -34.5 -51.5t-24 -64t-8.5 -62.5q0 -69 41 -111.5t112 -57.5q19 54 43.5 106t57.5 103.5t69 89.5t79.5 61.5t88.5 22.5q64 -2 99 -43.5t35 -107.5t-36 -121.5t-93.5 -90.5 t-127 -54.5t-139.5 -19.5q-20 0 -47 3q-46 -146 -46 -214q0 -57 20.5 -97t58 -59.5t90.5 -19.5q107 0 180 68.5t129 204.5q3 9 12 12.5t17 0.5zM243 405q9 -1 28 -1q61 0 123 16.5t113.5 46t84 76.5t32.5 102q0 48 -22.5 77t-65.5 29q-46 0 -92 -33.5t-84 -87t-67 -110.5 t-50 -115z" />
<glyph unicode="&#x10b;" d="M276 576q-17 0 -29 11.5t-12 28.5q0 16 12.5 28t29 12t28 -12t11.5 -28q0 -17 -11.5 -28.5t-28.5 -11.5zM391 257q14 -7 14 -22q0 -2 -2 -8q-52 -115 -115 -171t-154 -56q-59 0 -95 40.5t-36 107.5q0 82 38 167.5t96 140.5t111 55q45 0 68.5 -27.5t23.5 -74.5 q0 -18 -4 -35.5t-10.5 -31.5t-15.5 -22.5t-18 -8.5q-23 0 -23 22q0 4 13 27.5t13 48.5q0 56 -47 56q-40 0 -87.5 -52t-79.5 -127.5t-32 -138.5q0 -46 23.5 -74t62.5 -28q75 0 129 51t97 149q4 8 12.5 11.5t17.5 0.5z" />
<glyph unicode="&#x10c;" horiz-adv-x="640" d="M491 974q-7 17 9 27q6 4 15 1t13 -11l35 -72l108 80q15 12 28 -2q11 -17 -3 -30l-125 -100q-11 -9 -23 -6.5t-16 12.5zM688 258q9 -4 12.5 -12.5t0.5 -17.5q-61 -148 -145.5 -224.5t-205.5 -76.5q-103 0 -158.5 59t-55.5 162q0 80 45 221q-84 20 -132.5 75t-48.5 136 q0 36 9.5 74t27 72.5t41.5 64.5q6 7 17 7q9 0 16 -6t7 -17q0 -9 -6 -15q-19 -21 -34.5 -51.5t-24 -64t-8.5 -62.5q0 -69 41 -111.5t112 -57.5q19 54 43.5 106t57.5 103.5t69 89.5t79.5 61.5t88.5 22.5q64 -2 99 -43.5t35 -107.5t-36 -121.5t-93.5 -90.5t-127 -54.5 t-139.5 -19.5q-20 0 -47 3q-46 -146 -46 -214q0 -57 20.5 -97t58 -59.5t90.5 -19.5q107 0 180 68.5t129 204.5q3 9 12 12.5t17 0.5zM243 405q9 -1 28 -1q61 0 123 16.5t113.5 46t84 76.5t32.5 102q0 48 -22.5 77t-65.5 29q-46 0 -92 -33.5t-84 -87t-67 -110.5t-50 -115z" />
<glyph unicode="&#x10d;" d="M213 689q-8 17 8 27q7 4 15.5 1t12.5 -11l35 -72l108 80q16 12 28 -2q12 -17 -3 -31l-124 -99q-12 -9 -24 -6.5t-15 12.5zM391 257q14 -7 14 -22q0 -2 -2 -8q-52 -115 -115 -171t-154 -56q-59 0 -95 40.5t-36 107.5q0 82 38 167.5t96 140.5t111 55q45 0 68.5 -27.5 t23.5 -74.5q0 -18 -4 -35.5t-10.5 -31.5t-15.5 -22.5t-18 -8.5q-23 0 -23 22q0 4 13 27.5t13 48.5q0 56 -47 56q-40 0 -87.5 -52t-79.5 -127.5t-32 -138.5q0 -46 23.5 -74t62.5 -28q75 0 129 51t97 149q4 8 12.5 11.5t17.5 0.5z" />
<glyph unicode="&#x10e;" horiz-adv-x="899" d="M596 977q-7 17 9 27q6 5 15 2t13 -11l34 -73l108 80q16 13 29 -2q11 -17 -4 -30l-124 -100q-12 -9 -23.5 -6.5t-15.5 12.5zM863 438q0 -57 -10 -116.5t-28.5 -117t-47.5 -107.5t-65 -88t-83 -60t-99 -22q-78 0 -128.5 38.5t-50.5 102.5q0 52 33 85.5t78 33.5 q37 0 64.5 -23.5t40.5 -63.5q3 -10 -3 -20t-18 -10q-16 0 -21 15q-6 16 -15 28.5t-21.5 20t-26.5 7.5q-27 0 -46.5 -21t-19.5 -52q0 -46 39.5 -71t94.5 -25q54 0 102 29.5t81 78t57 110t36 125.5t12 123q0 69 -14 124t-42 97t-74.5 66.5t-109.5 27.5q-144 0 -227 -100.5 t-84 -260.5q0 -10 -6.5 -16.5t-16.5 -6.5q-9 0 -16 7t-7 16q2 181 98.5 293.5t258.5 112.5q73 -3 128.5 -31t89.5 -76.5t50.5 -111.5t16.5 -141zM541 629q-28 -55 -78 -214v-3q-14 -43 -21 -65.5t-21 -63.5t-24 -64.5t-27 -57.5t-31.5 -54t-35.5 -43.5t-42 -35.5 t-47.5 -20.5t-55.5 -8.5q-68 0 -113 40t-45 106q0 70 47 124t109 54q16 0 31 -4q16 -6 16 -22q0 -7 -4 -13t-11 -8.5t-14 -1.5q-11 2 -17 2q-44 0 -78 -40.5t-34 -88.5t32 -75.5t80 -27.5q23 0 45.5 8t40 19.5t35 32.5t30.5 39t27 48.5t23 51.5t21.5 57t18.5 55t17 56 q3 11 5 17q47 158 80 222q35 66 98 82q24 5 27 -19q0 -22 -18 -26q-12 -2 -25.5 -11t-24 -21.5t-16.5 -25.5z" />
<glyph unicode="&#x10f;" horiz-adv-x="464" d="M573 650q-2 -11 -5 -15l-39 -62q-8 -14 -21 -7q-7 2 -8.5 8.5t2.5 13.5l19 33q-24 10 -22 37q2 15 13.5 25t26.5 8q15 -1 25.5 -13.5t8.5 -27.5zM513 257q14 -7 14 -20q0 -4 -2 -10q-26 -55 -48 -93t-49 -70.5t-58 -48t-68 -15.5q-38 0 -59 25t-21 70q-66 -95 -137 -95 q-43 0 -65.5 32.5t-22.5 84.5q0 53 19 121t50.5 129t77 102.5t91.5 41.5q69 0 98 -55l20 56l57 165q6 14 21 14q9 0 15 -5t7 -12t0 -13q-3 -8 -39.5 -113t-71 -203.5t-39.5 -112.5q-35 -109 -35 -141q0 -46 34 -46q28 0 53.5 15t48 45t40 62t39.5 79q7 13 21 13q3 0 9 -2z M84 45q18 0 36.5 10t33 24t30.5 39.5t27 45t25.5 52.5t22 51t20.5 51q5 11 13 32t11 29q2 3 2 8q-2 37 -20 57.5t-50 20.5q-46 -1 -92 -64.5t-73 -142t-28 -134.5q0 -79 42 -79z" />
<glyph unicode="&#x110;" horiz-adv-x="899" d="M578 798q73 -3 128.5 -31t89.5 -76.5t50.5 -111.5t16.5 -141q0 -57 -10 -116.5t-28.5 -117t-47.5 -107.5t-65 -88t-83 -60t-99 -22q-78 0 -128.5 38.5t-50.5 102.5q0 52 33 85.5t78 33.5q37 0 64.5 -23.5t40.5 -63.5q3 -10 -3 -20t-18 -10q-16 0 -21 15q-6 16 -15 28.5 t-21.5 20t-26.5 7.5q-27 0 -46.5 -21t-19.5 -52q0 -46 39.5 -71t94.5 -25q54 0 102 29.5t81 78t57 110t36 125.5t12 123q0 69 -14 124t-42 97t-74.5 66.5t-109.5 27.5q-144 0 -227 -100.5t-84 -260.5q0 -10 -6.5 -16.5t-16.5 -6.5q-9 0 -16 7t-7 16q2 181 98.5 293.5 t258.5 112.5zM541 369h-92q-14 -45 -25 -78t-28 -74t-33 -70t-38.5 -59t-46.5 -48t-55 -29.5t-65 -11.5q-68 0 -113 40t-45 106q0 70 47 124t109 54q16 0 31 -4q16 -6 16 -22q0 -7 -4 -13t-11 -8.5t-14 -1.5q-11 2 -17 2q-44 0 -78 -40.5t-34 -88.5t32 -75.5t80 -27.5 q38 0 72 20t58 49t47 76t37 86.5t31 93.5h-61q-7 0 -12 3.5t-7.5 8.5t-2.5 11q0 10 6.5 16.5t16.5 6.5h74q2 4 4 13q47 158 80 222q35 66 98 82q24 5 27 -19q0 -22 -18 -26q-12 -2 -25.5 -11t-24 -21.5t-16.5 -25.5q-28 -55 -78 -214h77q10 0 16.5 -6.5t7.5 -16.5 q0 -9 -6.5 -16t-16.5 -7z" />
<glyph unicode="&#x111;" horiz-adv-x="464" d="M513 257q14 -7 14 -20q0 -4 -2 -10q-26 -55 -48 -93t-49 -70.5t-58 -48t-68 -15.5q-38 0 -59 25t-21 70q-66 -95 -137 -95q-43 0 -65.5 32.5t-22.5 84.5q0 53 19 121t50.5 129t77 102.5t91.5 41.5q69 0 98 -55l20 56q2 7 7 20.5t7 20.5h-57q-5 0 -9.5 1.5t-7.5 4.5 t-4.5 7.5t-1.5 9.5q2 21 24 22h72l27 79q6 14 21 14q9 0 15 -5t7 -12t0 -13q-1 -2 -4.5 -11t-8 -23t-9.5 -29h45q22 -1 24 -23q0 -10 -6.5 -16.5t-16.5 -5.5h-62q-107 -307 -112 -321q-35 -109 -35 -141q0 -46 34 -46q28 0 53.5 15t48 45t40 62t39.5 79q7 13 21 13q3 0 9 -2 zM84 45q18 0 36.5 10t33 24t30.5 39.5t27 45t25.5 52.5t22 51t20.5 51q5 11 13 32t11 29q2 3 2 8q-2 37 -20 57.5t-50 20.5q-46 -1 -92 -64.5t-73 -142t-28 -134.5q0 -79 42 -79z" />
<glyph unicode="&#x112;" horiz-adv-x="514" d="M537 924q10 0 16.5 -6t7.5 -16q0 -10 -6.5 -16.5t-16.5 -6.5h-211q-7 0 -12 3.5t-7.5 8.5t-2.5 11q0 5 2 9t5 7t7 4.5t9 1.5h209zM563 258q14 -7 14 -21q0 -3 -2 -9q-40 -96 -88.5 -160t-114.5 -98.5t-147 -34.5q-100 0 -162.5 58.5t-62.5 155.5q0 102 53 176t145 112 q-47 51 -47 107q0 25 10 64q-48 21 -87.5 63t-63.5 94q-2 6 -2 10q0 13 13 20q6 2 9 2q14 0 21 -13q24 -49 50 -76t75 -58q32 69 97 109.5t143 40.5q52 0 85 -23t33 -63q-2 -40 -37 -73t-86.5 -49.5t-104.5 -16.5q-48 0 -103 16q-5 -20 -5 -46q0 -49 47 -90q58 15 94 15 q17 0 31.5 -5.5t24.5 -16.5t10 -26q0 -17 -8.5 -29.5t-22.5 -19t-33 -6.5q-49 0 -104 37q-58 -21 -101.5 -59.5t-67 -89t-23.5 -106.5q0 -79 50.5 -123.5t129.5 -44.5q106 0 179.5 65.5t127.5 198.5q4 9 13 12.5t18 0.5zM218 634q42 -13 88 -13q62 0 121 27t61 66 q0 20 -21 30.5t-51 10.5q-63 0 -117.5 -34t-80.5 -87zM302 420q24 -9 48 -7q4 0 6 1t3 2t1 2q0 6 -19 6q-13 0 -39 -4z" />
<glyph unicode="&#x113;" d="M381 635q11 0 17 -6.5t7 -16.5q0 -9 -6.5 -15.5t-16.5 -6.5h-210q-10 0 -16.5 6.5t-6.5 15.5q1 10 7.5 16.5t16.5 6.5h208zM391 257q14 -7 14 -22q0 -2 -2 -8q-53 -117 -116.5 -172t-145.5 -55q-66 0 -104.5 40.5t-36.5 107.5q2 52 23.5 115t54 118t78 92.5t90.5 37.5 q42 0 67 -21t25 -59q0 -41 -26 -77t-70 -62t-89.5 -44t-95.5 -30q-10 -38 -12 -71q-1 -47 24 -73.5t74 -28.5q66 -1 119 47.5t99 152.5q4 8 12.5 11.5t17.5 0.5zM75 270q218 68 218 161q0 34 -47 34q-26 0 -52.5 -18t-48.5 -49t-39 -62t-31 -66z" />
<glyph unicode="&#x116;" horiz-adv-x="514" d="M432 865q-17 0 -29 11.5t-12 28.5q0 16 12 28t29 12t28.5 -12t11.5 -28q0 -17 -11.5 -28.5t-28.5 -11.5zM563 258q14 -7 14 -21q0 -3 -2 -9q-40 -96 -88.5 -160t-114.5 -98.5t-147 -34.5q-100 0 -162.5 58.5t-62.5 155.5q0 102 53 176t145 112q-47 51 -47 107q0 25 10 64 q-48 21 -87.5 63t-63.5 94q-2 6 -2 10q0 13 13 20q6 2 9 2q14 0 21 -13q24 -49 50 -76t75 -58q32 69 97 109.5t143 40.5q52 0 85 -23t33 -63q-2 -40 -37 -73t-86.5 -49.5t-104.5 -16.5q-48 0 -103 16q-5 -20 -5 -46q0 -49 47 -90q58 15 94 15q17 0 31.5 -5.5t24.5 -16.5 t10 -26q0 -17 -8.5 -29.5t-22.5 -19t-33 -6.5q-49 0 -104 37q-58 -21 -101.5 -59.5t-67 -89t-23.5 -106.5q0 -79 50.5 -123.5t129.5 -44.5q106 0 179.5 65.5t127.5 198.5q4 9 13 12.5t18 0.5zM218 634q42 -13 88 -13q62 0 121 27t61 66q0 20 -21 30.5t-51 10.5 q-63 0 -117.5 -34t-80.5 -87zM302 420q24 -9 48 -7q4 0 6 1t3 2t1 2q0 6 -19 6q-13 0 -39 -4z" />
<glyph unicode="&#x117;" d="M276 576q-17 0 -29 11.5t-12 28.5q0 16 12.5 28t29 12t28 -12t11.5 -28q0 -17 -11.5 -28.5t-28.5 -11.5zM391 257q14 -7 14 -22q0 -2 -2 -8q-53 -117 -116.5 -172t-145.5 -55q-66 0 -104.5 40.5t-36.5 107.5q2 52 23.5 115t54 118t78 92.5t90.5 37.5q42 0 67 -21t25 -59 q0 -41 -26 -77t-70 -62t-89.5 -44t-95.5 -30q-10 -38 -12 -71q-1 -47 24 -73.5t74 -28.5q66 -1 119 47.5t99 152.5q4 8 12.5 11.5t17.5 0.5zM75 270q218 68 218 161q0 34 -47 34q-26 0 -52.5 -18t-48.5 -49t-39 -62t-31 -66z" />
<glyph unicode="&#x118;" horiz-adv-x="514" d="M575 228q-58 -143 -141 -216q-62 -55 -84.5 -83.5t-22.5 -52.5q0 -17 10.5 -27.5t28.5 -10.5q33 0 65 17q13 6 22.5 0.5t9 -18t-13.5 -20.5q-44 -24 -80 -24q-39 0 -63 21t-24 56q0 37 29 76q-39 -11 -86 -11q-100 0 -162.5 58.5t-62.5 155.5q0 102 53 176t145 112 q-47 51 -47 107q0 25 10 64q-48 21 -87.5 63t-63.5 94q-2 6 -2 10q0 13 13 20q6 2 9 2q14 0 21 -13q24 -49 50 -76t75 -58q32 69 97 109.5t143 40.5q52 0 85 -23t33 -63q-2 -40 -37 -73t-86.5 -49.5t-104.5 -16.5q-48 0 -103 16q-5 -20 -5 -46q0 -49 47 -90q58 15 94 15 q17 0 31.5 -5.5t24.5 -16.5t10 -26q0 -17 -8.5 -29.5t-22.5 -19t-33 -6.5q-49 0 -104 37q-58 -21 -101.5 -59.5t-67 -89t-23.5 -106.5q0 -79 50.5 -123.5t129.5 -44.5q106 0 179.5 65.5t127.5 198.5q4 9 13 12.5t18 0.5q14 -7 14 -21q0 -3 -2 -9zM416 755q-63 0 -117.5 -34 t-80.5 -87q42 -13 88 -13q62 0 121 27t61 66q0 20 -21 30.5t-51 10.5zM341 424q-13 0 -39 -4q24 -9 48 -7q4 0 6 1t3 2t1 2q0 6 -19 6z" />
<glyph unicode="&#x119;" d="M391 257q14 -7 14 -22q0 -2 -2 -8q-32 -71 -67 -118t-75 -73l-1 -1q-79 -68 -106 -100t-27 -59q0 -17 11 -27.5t28 -10.5q33 0 65 17q14 6 23 0.5t8.5 -18t-13.5 -20.5q-43 -24 -79 -24q-40 0 -64 21t-24 56q0 57 80 131q-6 -1 -21 -1q-66 0 -104.5 40.5t-36.5 107.5 q2 52 23.5 115t54 118t78 92.5t90.5 37.5q42 0 67 -21t25 -59q0 -41 -26 -77t-70 -62t-89.5 -44t-95.5 -30q-10 -38 -12 -71q-1 -47 24 -73.5t74 -28.5q66 -1 119 47.5t99 152.5q4 8 12.5 11.5t17.5 0.5zM246 465q-26 0 -52.5 -18t-48.5 -49t-39 -62t-31 -66q218 68 218 161 q0 34 -47 34z" />
<glyph unicode="&#x11a;" horiz-adv-x="514" d="M368 978q-7 17 9 27q6 5 15 2t13 -11l35 -73l108 80q15 13 28 -2q11 -17 -4 -30l-124 -99q-11 -9 -23 -7t-16 12zM563 258q14 -7 14 -21q0 -3 -2 -9q-40 -96 -88.5 -160t-114.5 -98.5t-147 -34.5q-100 0 -162.5 58.5t-62.5 155.5q0 102 53 176t145 112q-47 51 -47 107 q0 25 10 64q-48 21 -87.5 63t-63.5 94q-2 6 -2 10q0 13 13 20q6 2 9 2q14 0 21 -13q24 -49 50 -76t75 -58q32 69 97 109.5t143 40.5q52 0 85 -23t33 -63q-2 -40 -37 -73t-86.5 -49.5t-104.5 -16.5q-48 0 -103 16q-5 -20 -5 -46q0 -49 47 -90q58 15 94 15q17 0 31.5 -5.5 t24.5 -16.5t10 -26q0 -17 -8.5 -29.5t-22.5 -19t-33 -6.5q-49 0 -104 37q-58 -21 -101.5 -59.5t-67 -89t-23.5 -106.5q0 -79 50.5 -123.5t129.5 -44.5q106 0 179.5 65.5t127.5 198.5q4 9 13 12.5t18 0.5zM218 634q42 -13 88 -13q62 0 121 27t61 66q0 20 -21 30.5t-51 10.5 q-63 0 -117.5 -34t-80.5 -87zM302 420q24 -9 48 -7q4 0 6 1t3 2t1 2q0 6 -19 6q-13 0 -39 -4z" />
<glyph unicode="&#x11b;" d="M213 689q-8 17 8 27q7 4 15.5 1t12.5 -11l35 -72l108 80q16 12 28 -2q12 -17 -3 -31l-124 -99q-12 -9 -24 -6.5t-15 12.5zM391 257q14 -7 14 -22q0 -2 -2 -8q-53 -117 -116.5 -172t-145.5 -55q-66 0 -104.5 40.5t-36.5 107.5q2 52 23.5 115t54 118t78 92.5t90.5 37.5 q42 0 67 -21t25 -59q0 -41 -26 -77t-70 -62t-89.5 -44t-95.5 -30q-10 -38 -12 -71q-1 -47 24 -73.5t74 -28.5q66 -1 119 47.5t99 152.5q4 8 12.5 11.5t17.5 0.5zM75 270q218 68 218 161q0 34 -47 34q-26 0 -52.5 -18t-48.5 -49t-39 -62t-31 -66z" />
<glyph unicode="&#x11e;" horiz-adv-x="759" d="M733 984q-49 -119 -144 -119q-60 0 -93 39t-16 95q5 17 22 17q11 0 17.5 -9t4.5 -20q-10 -35 8.5 -56t52.5 -21q67 0 106 92q5 14 21 14q11 0 18.5 -10t2.5 -22zM808 256q14 -7 14 -21q0 -3 -2 -9q-52 -123 -126 -197t-189 -108q-78 -224 -196 -226q-32 0 -56.5 13 t-37.5 37t-13 55q0 108 182 142q49 7 86 17l57 163q-110 -146 -232 -146q-53 2 -89 23.5t-53 58.5t-17 90q0 83 45 221q-84 20 -132.5 75t-48.5 136q0 60 26 124q18 46 52 87q6 7 17 7q8 0 15 -5q8 -6 8 -18q0 -9 -6 -15q-27 -30 -44 -73q-23 -54 -23 -105q0 -69 41 -111.5 t112 -57.5q62 178 145.5 282t173.5 104q46 0 80.5 -19t53.5 -54t19 -81q-3 -66 -38 -121t-91 -90.5t-125 -55t-142 -19.5q-20 0 -47 3q-46 -132 -46 -214q0 -64 29 -94t85 -32q108 0 210 150q78 110 147 292l11 30q6 16 22 16q13 0 19.5 -9.5t1.5 -20.5l-80 -213 q-7 -22 -26.5 -75.5t-30.5 -85.5l-45 -131q88 30 149 98t105 171q7 14 20 14q3 0 10 -2zM243 405q41 -5 86 0t87 19t80 36.5t66.5 50t45 62.5t16.5 72q0 49 -29.5 79t-77.5 30q-74 0 -145 -93t-129 -256zM453 -92q-46 -9 -60 -12q-50 -8 -81 -21t-46.5 -31t-18.5 -43 q0 -18 8 -32t22 -21.5t32 -6.5q89 1 144 167z" />
<glyph unicode="&#x11f;" horiz-adv-x="446" d="M440 694q-50 -118 -145 -118q-60 0 -93 38.5t-16 95.5q6 17 22 17q8 0 13.5 -4.5t8 -11t0.5 -13.5q-10 -36 8.5 -56.5t53.5 -20.5q66 0 105 92q6 14 21 14q11 0 18.5 -10.5t3.5 -22.5zM495 256q14 -7 14 -21q0 -3 -2 -9q-35 -82 -77 -139.5t-101 -100t-137 -65.5 q-78 -224 -196 -226q-49 0 -78 28.5t-29 76.5q0 108 182 142q49 7 86 17l32 93q-50 -52 -103 -52q-49 0 -68.5 33t-19.5 91q2 55 21.5 121t50 125.5t75 100t89.5 40.5q70 0 100 -60l17 45q5 15 21 15q12 0 19.5 -9t2.5 -22q-16 -39 -81 -212l-57 -161l-45 -132q88 30 149 98 t104 171q7 14 21 14q3 0 10 -2zM84 45q21 0 41.5 12t39 35t33.5 46.5t31.5 59t26.5 59.5t24 59l23 62q0 42 -18.5 64.5t-49.5 22.5q-46 -1 -92 -64.5t-72 -142.5t-27 -135q-2 -39 5.5 -58.5t34.5 -19.5zM-4 -259q89 1 143 167q-45 -9 -59 -12q-74 -13 -108.5 -35t-37.5 -60 q0 -28 17 -44.5t45 -15.5z" />
<glyph unicode="&#x120;" horiz-adv-x="759" d="M569 865q-17 0 -29 11.5t-12 28.5q0 11 5.5 20t15 14.5t20.5 5.5q17 0 28.5 -12t11.5 -28q0 -17 -11.5 -28.5t-28.5 -11.5zM808 256q14 -7 14 -21q0 -3 -2 -9q-52 -123 -126 -197t-189 -108q-78 -224 -196 -226q-32 0 -56.5 13t-37.5 37t-13 55q0 108 182 142q49 7 86 17 l57 163q-110 -146 -232 -146q-53 2 -89 23.5t-53 58.5t-17 90q0 83 45 221q-84 20 -132.5 75t-48.5 136q0 60 26 124q18 46 52 87q6 7 17 7q8 0 15 -5q8 -6 8 -18q0 -9 -6 -15q-27 -30 -44 -73q-23 -54 -23 -105q0 -69 41 -111.5t112 -57.5q62 178 145.5 282t173.5 104 q46 0 80.5 -19t53.5 -54t19 -81q-3 -66 -38 -121t-91 -90.5t-125 -55t-142 -19.5q-20 0 -47 3q-46 -132 -46 -214q0 -64 29 -94t85 -32q108 0 210 150q78 110 147 292l11 30q6 16 22 16q13 0 19.5 -9.5t1.5 -20.5l-80 -213q-7 -22 -26.5 -75.5t-30.5 -85.5l-45 -131 q88 30 149 98t105 171q7 14 20 14q3 0 10 -2zM243 405q41 -5 86 0t87 19t80 36.5t66.5 50t45 62.5t16.5 72q0 49 -29.5 79t-77.5 30q-74 0 -145 -93t-129 -256zM453 -92q-46 -9 -60 -12q-50 -8 -81 -21t-46.5 -31t-18.5 -43q0 -18 8 -32t22 -21.5t32 -6.5q89 1 144 167z" />
<glyph unicode="&#x121;" horiz-adv-x="446" d="M275 576q-17 0 -29 11.5t-12 28.5q0 16 12 28t29 12t28.5 -12t11.5 -28q0 -17 -11.5 -28.5t-28.5 -11.5zM495 256q14 -7 14 -21q0 -3 -2 -9q-35 -82 -77 -139.5t-101 -100t-137 -65.5q-78 -224 -196 -226q-49 0 -78 28.5t-29 76.5q0 108 182 142q49 7 86 17l32 93 q-50 -52 -103 -52q-49 0 -68.5 33t-19.5 91q2 55 21.5 121t50 125.5t75 100t89.5 40.5q70 0 100 -60l17 45q5 15 21 15q12 0 19.5 -9t2.5 -22q-16 -39 -81 -212l-57 -161l-45 -132q88 30 149 98t104 171q7 14 21 14q3 0 10 -2zM84 45q21 0 41.5 12t39 35t33.5 46.5t31.5 59 t26.5 59.5t24 59l23 62q0 42 -18.5 64.5t-49.5 22.5q-46 -1 -92 -64.5t-72 -142.5t-27 -135q-2 -39 5.5 -58.5t34.5 -19.5zM-4 -259q89 1 143 167q-45 -9 -59 -12q-74 -13 -108.5 -35t-37.5 -60q0 -28 17 -44.5t45 -15.5z" />
<glyph unicode="&#x122;" horiz-adv-x="759" d="M808 256q14 -7 14 -21q0 -3 -2 -9q-52 -123 -126 -197t-189 -108q-20 -53 -53 -92.5t-71 -39.5q-28 0 -44 17t-16 44q0 41 35.5 66t114.5 46l56 160q-110 -146 -232 -146q-53 2 -89 23.5t-53 58.5t-17 90q0 83 45 221q-84 20 -132.5 75t-48.5 136q0 60 26 124 q18 46 52 87q6 7 17 7q8 0 15 -5q8 -6 8 -18q0 -9 -6 -15q-27 -30 -44 -73q-23 -54 -23 -105q0 -69 41 -111.5t112 -57.5q62 178 145.5 282t173.5 104q46 0 80.5 -19t53.5 -54t19 -81q-3 -66 -38 -121t-91 -90.5t-125 -55t-142 -19.5q-20 0 -47 3q-46 -132 -46 -214 q0 -64 29 -94t85 -32q108 0 210 150q78 110 147 292l11 30q6 16 22 16q13 0 19.5 -9.5t1.5 -20.5l-80 -213q-7 -22 -26.5 -75.5t-30.5 -85.5l-45 -131q88 30 149 98t105 171q7 14 20 14q3 0 10 -2zM517 754q-74 0 -145 -93t-129 -256q41 -5 86 0t87 19t80 36.5t66.5 50 t45 62.5t16.5 72q0 49 -29.5 79t-77.5 30zM381 -165q17 0 36 21.5t33 51.5q-27 -6 -46 -15t-28.5 -20t-9.5 -23q0 -7 4.5 -11t10.5 -4zM222 -146q16 -1 26.5 -13.5t8.5 -27.5q-2 -11 -5 -15l-39 -62q-8 -14 -22 -7q-6 2 -7.5 8.5t2.5 13.5l18 33q-23 10 -21 37q1 15 12.5 25 t26.5 8z" />
<glyph unicode="&#x123;" horiz-adv-x="414" d="M258 597q2 11 6 15l38 62q8 14 22 7q6 -2 8 -8.5t-3 -12.5l-18 -34q23 -10 22 -36q-1 -10 -7 -18.5t-14.5 -12.5t-18.5 -3q-16 2 -26 14t-9 27zM495 256q14 -7 14 -21q0 -3 -2 -9q-35 -82 -77 -139.5t-101 -100t-137 -65.5q-78 -224 -196 -226q-49 0 -78 28.5t-29 76.5 q0 108 182 142q49 7 86 17l32 93q-50 -52 -103 -52q-49 0 -68.5 33t-19.5 91q2 55 21.5 121t50 125.5t75 100t89.5 40.5q70 0 100 -60l17 45q5 15 21 15q12 0 19.5 -9t2.5 -22q-16 -39 -81 -212l-57 -161l-45 -132q88 30 149 98t104 171q7 14 21 14q3 0 10 -2zM84 45 q21 0 41.5 12t39 35t33.5 46.5t31.5 59t26.5 59.5t24 59l23 62q0 42 -18.5 64.5t-49.5 22.5q-46 -1 -92 -64.5t-72 -142.5t-27 -135q-2 -39 5.5 -58.5t34.5 -19.5zM-4 -259q89 1 143 167q-45 -9 -59 -12q-74 -13 -108.5 -35t-37.5 -60q0 -28 17 -44.5t45 -15.5z" />
<glyph unicode="&#x126;" horiz-adv-x="875" d="M955 774q13 0 19.5 -9.5t1.5 -20.5l-56 -160q-14 -42 -46.5 -134.5t-49.5 -141t-20 -57.5q-59 -160 -81 -228.5t-23 -107.5q-2 -43 16 -69t57 -26q6 0 11.5 -3.5t8.5 -9t3 -11.5q-1 -9 -7.5 -16t-16.5 -7q-59 2 -88.5 40.5t-29.5 101.5q0 45 25 123.5t81 227.5l19 50 h-279q-5 -15 -14 -43q-12 -37 -18.5 -56.5t-19 -53t-22 -52.5t-25 -46t-30 -42t-35 -33t-42 -27.5t-49 -15.5t-58.5 -6q-88 0 -137.5 54t-49.5 140q0 95 70.5 161t162.5 68q10 0 16.5 -7t6.5 -16q0 -10 -6.5 -16.5t-16.5 -6.5q-74 0 -131 -53.5t-57 -130.5q0 -66 37.5 -107 t105.5 -41q23 0 43.5 4t38 13t32.5 18.5t28.5 26.5t24 30.5t21.5 37t18 39t17 43t15.5 43.5t15.5 46q1 4 3 10t3.5 11t2.5 8h-45q-9 0 -16 7t-7 16q0 7 3 12t8.5 8.5t11.5 3.5h61l18 56q5 14 15 45.5t15 48.5h-61q-5 0 -8.5 1t-6 3.5t-4.5 5t-3 6t-1 7.5q1 10 7 16t17 6h76 q27 71 51 114l3 6q-39 9 -128 36q-35 11 -53 16t-47.5 12.5t-55 10.5t-50.5 3q-54 0 -98 -44t-44 -99q0 -57 34 -86t91 -29q46 0 99 23q6 2 10 2q11 0 16.5 -7.5t5.5 -15.5q0 -14 -13 -20q-59 -27 -119 -27q-78 0 -123.5 43t-45.5 114q0 78 57 134.5t130 56.5q37 0 78 -6.5 t67.5 -14t74.5 -22.5q92 -29 145 -39q34 33 69 52q5 3 11 3q11 0 16.5 -7t5.5 -15q0 -14 -13 -21q-60 -34 -83 -81q-23 -43 -41 -92h282q11 28 15 41q54 156 56 161q5 14 21 14zM795 363q29 86 53 150h-284q-14 -40 -36 -108l-13 -42h280z" />
<glyph unicode="&#x127;" horiz-adv-x="430" d="M480 257q14 -7 14 -22q0 -2 -3 -8q-56 -125 -99.5 -176t-97.5 -51q-39 0 -58.5 24.5t-19.5 66.5t21 104.5t42 122t21 93.5q0 57 -56 57q-37 0 -85 -60q-13 -16 -23.5 -31.5t-18.5 -28t-18 -34t-16 -34.5t-19 -47.5t-20.5 -54.5t-27 -74t-31.5 -88q-3 -9 -11.5 -13 t-17.5 -2q-9 3 -13.5 11.5t-0.5 17.5l188 523h-36q-5 0 -9.5 1.5t-7.5 4.5t-4.5 7.5t-1.5 9.5q1 10 7.5 16t16.5 6h51q3 10 12.5 38.5t14.5 40.5q5 14 21 14q12 0 19 -9.5t3 -20.5l-22 -63h77q22 0 24 -23q0 -10 -6.5 -16t-16.5 -6h-94q-14 -39 -32 -91q51 51 98 51 q102 0 102 -102q0 -41 -42.5 -161.5t-42.5 -158.5q0 -46 33 -46q38 0 73 46.5t82 153.5q7 14 21 14q3 0 10 -2z" />
<glyph unicode="&#x12a;" horiz-adv-x="587" d="M814 966q11 0 17 -6.5t7 -16.5q0 -9 -6 -16t-17 -7h-210q-10 0 -16.5 7t-6.5 16q1 6 4 11.5t8 8.5t12 3h208zM770 780q0 -36 -45 -65.5t-109 -47.5q-5 -13 -33.5 -106.5t-33.5 -112.5q-14 -47 -22 -75.5t-23.5 -75.5t-28 -77t-32 -71t-38 -67t-43.5 -54.5t-51.5 -45 t-59 -27t-68.5 -10.5q-80 0 -131.5 56t-51.5 143q0 60 35.5 112.5t90.5 82t113 28.5q9 0 15.5 -7t6.5 -17q0 -8 -7 -14.5t-16 -6.5q-76 0 -134.5 -55t-58.5 -124q-1 -67 39 -110t100 -43q29 0 56.5 10t49 24.5t43.5 41t37.5 49t33 60.5t28 64t25.5 70.5t22.5 68t20.5 68.5 q1 3 1.5 5t1.5 5t1 5q7 22 21 68t26 84t13 41l-32 -6q-5 -1 -15 -4q-28 -6 -43 -9.5t-42 -11.5t-42 -14t-35 -16.5t-30.5 -22t-18 -26.5t-7.5 -32q-1 -42 24 -69.5t61 -27.5q10 0 16.5 -7t5.5 -17q0 -9 -7 -15.5t-16 -6.5q-56 0 -94 42t-36 102q0 20 5 37t11 30t18.5 25 t22.5 20t28.5 16t31 13t36 11t37 9l40.5 9t40 9l58 13q20 54 53.5 93.5t71.5 39.5q29 0 46.5 -16t17.5 -42zM637 721q33 7 58.5 26t25.5 33q0 6 -4 10.5t-11 4.5q-16 0 -35.5 -21.5t-33.5 -52.5z" />
<glyph unicode="&#x12b;" horiz-adv-x="198" d="M262 635q11 0 17 -6.5t7 -16.5q0 -9 -6 -15.5t-16 -6.5h-211q-10 0 -16.5 6.5t-6.5 15.5q1 10 7.5 16.5t16.5 6.5h208zM247 257q14 -5 14 -20q0 -4 -2 -10q-18 -41 -32 -69t-34 -60.5t-38.5 -52t-43 -32.5t-51.5 -13q-37 0 -58 26t-19.5 64.5t26.5 121t45 137t56 147.5 q5 15 21 15q7 0 13 -3.5t8.5 -10t-0.5 -15.5q-10 -29 -28 -79q-36 -101 -49.5 -140.5t-27 -81.5t-16.5 -58t-3 -32q0 -46 32 -46q17 0 32.5 8t30 25.5t26 33t25.5 43.5t21.5 43.5t21.5 46.5q7 14 22 14q2 0 8 -2z" />
<glyph unicode="&#x12e;" horiz-adv-x="587" d="M706 838q29 0 46.5 -16t17.5 -42q0 -36 -45 -65.5t-109 -47.5q-5 -13 -33.5 -106.5t-33.5 -112.5q-18 -63 -29.5 -101t-33.5 -98.5t-42.5 -100.5t-50.5 -82.5t-64 -68.5q-51 -47 -70 -72.5t-19 -48.5q0 -17 10.5 -27.5t28.5 -10.5q33 0 64 17q14 6 23.5 0.5t9 -18 t-13.5 -20.5q-44 -24 -80 -24q-40 0 -64 21t-24 56q0 37 32 79q-19 -4 -43 -4q-80 0 -131.5 56t-51.5 143q0 60 35.5 112.5t90.5 82t113 28.5q9 0 15.5 -7t6.5 -17q0 -8 -7 -14.5t-16 -6.5q-76 0 -134.5 -55t-58.5 -124q-1 -67 39 -110t100 -43q29 0 56.5 10t49 24.5 t43.5 41t37.5 49t33 60.5t28 64t25.5 70.5t22.5 68t20.5 68.5q1 3 1.5 5t1.5 5t1 5q7 22 21 68t26 84t13 41l-32 -6q-5 -1 -15 -4q-28 -6 -43 -9.5t-42 -11.5t-42 -14t-35 -16.5t-30.5 -22t-18 -26.5t-7.5 -32q-1 -42 24 -69.5t61 -27.5q10 0 16.5 -7t5.5 -17q0 -9 -7 -15.5 t-16 -6.5q-56 0 -94 42t-36 102q0 20 5 37t11 30t18.5 25t22.5 20t28.5 16t31 13t36 11t37 9l40.5 9t40 9l58 13q20 54 53.5 93.5t71.5 39.5zM637 721q33 7 58.5 26t25.5 33q0 6 -4 10.5t-11 4.5q-16 0 -35.5 -21.5t-33.5 -52.5z" />
<glyph unicode="&#x12f;" horiz-adv-x="198" d="M158 576q-17 0 -29 11.5t-12 28.5q0 8 3 15t8.5 12.5t13 9t16.5 3.5q17 0 28.5 -12t11.5 -28q0 -17 -11.5 -28.5t-28.5 -11.5zM247 257q14 -5 14 -20q0 -4 -2 -10q-67 -153 -124 -199q-75 -65 -100 -95.5t-25 -56.5q0 -17 10.5 -27.5t28.5 -10.5q33 0 64 17q14 6 23 0.5 t9 -18t-13 -20.5q-44 -24 -80 -24q-40 0 -64 21t-24 56q0 59 81 131q-30 6 -47 31t-15 59q1 38 26 120.5t45 137t56 147.5q5 15 21 15q7 0 13 -3.5t8.5 -10t-0.5 -15.5q-10 -29 -28 -79q-36 -101 -49.5 -140.5t-27 -81.5t-16.5 -58t-3 -32q0 -46 32 -46q17 0 32.5 8t30 25.5 t26 33t25.5 43.5t21.5 43.5t21.5 46.5q7 14 22 14q2 0 8 -2z" />
<glyph unicode="&#x130;" horiz-adv-x="587" d="M721 901q-11 0 -20.5 5t-15 14.5t-5.5 20.5q0 16 12.5 28t29 12t28 -12t11.5 -28q0 -17 -11.5 -28.5t-28.5 -11.5zM770 780q0 -36 -45 -65.5t-109 -47.5q-5 -13 -33.5 -106.5t-33.5 -112.5q-14 -47 -22 -75.5t-23.5 -75.5t-28 -77t-32 -71t-38 -67t-43.5 -54.5t-51.5 -45 t-59 -27t-68.5 -10.5q-80 0 -131.5 56t-51.5 143q0 60 35.5 112.5t90.5 82t113 28.5q9 0 15.5 -7t6.5 -17q0 -8 -7 -14.5t-16 -6.5q-76 0 -134.5 -55t-58.5 -124q-1 -67 39 -110t100 -43q29 0 56.5 10t49 24.5t43.5 41t37.5 49t33 60.5t28 64t25.5 70.5t22.5 68t20.5 68.5 q1 3 1.5 5t1.5 5t1 5q7 22 21 68t26 84t13 41l-32 -6q-5 -1 -15 -4q-28 -6 -43 -9.5t-42 -11.5t-42 -14t-35 -16.5t-30.5 -22t-18 -26.5t-7.5 -32q-1 -42 24 -69.5t61 -27.5q10 0 16.5 -7t5.5 -17q0 -9 -7 -15.5t-16 -6.5q-56 0 -94 42t-36 102q0 20 5 37t11 30t18.5 25 t22.5 20t28.5 16t31 13t36 11t37 9l40.5 9t40 9l58 13q20 54 53.5 93.5t71.5 39.5q29 0 46.5 -16t17.5 -42zM637 721q33 7 58.5 26t25.5 33q0 6 -4 10.5t-11 4.5q-16 0 -35.5 -21.5t-33.5 -52.5z" />
<glyph unicode="&#x131;" horiz-adv-x="198" d="M247 257q14 -5 14 -20q0 -4 -2 -10q-18 -41 -32 -69t-34 -60.5t-38.5 -52t-43 -32.5t-51.5 -13q-37 0 -58 26t-19.5 64.5t26.5 121t45 137t56 147.5q5 15 21 15q7 0 13 -3.5t8.5 -10t-0.5 -15.5q-10 -29 -28 -79q-36 -101 -49.5 -140.5t-27 -81.5t-16.5 -58t-3 -32 q0 -46 32 -46q17 0 32.5 8t30 25.5t26 33t25.5 43.5t21.5 43.5t21.5 46.5q7 14 22 14q2 0 8 -2z" />
<glyph unicode="&#x132;" horiz-adv-x="1102" d="M770 780q0 -36 -45 -65.5t-109 -47.5q-5 -13 -33.5 -106.5t-33.5 -112.5q-14 -47 -22 -75.5t-23.5 -75.5t-28 -77t-32 -71t-38 -67t-43.5 -54.5t-51.5 -45t-59 -27t-68.5 -10.5q-80 0 -131.5 56t-51.5 143q0 60 35.5 112.5t90.5 82t113 28.5q9 0 15.5 -7t6.5 -17 q0 -8 -7 -14.5t-16 -6.5q-76 0 -134.5 -55t-58.5 -124q-1 -67 39 -110t100 -43q29 0 56.5 10t49 24.5t43.5 41t37.5 49t33 60.5t28 64t25.5 70.5t22.5 68t20.5 68.5q1 3 1.5 5t1.5 5t1 5q7 22 21 68t26 84t13 41l-32 -6q-5 -1 -15 -4q-28 -6 -43 -9.5t-42 -11.5t-42 -14 t-35 -16.5t-30.5 -22t-18 -26.5t-7.5 -32q-1 -42 24 -69.5t61 -27.5q10 0 16.5 -7t5.5 -17q0 -9 -7 -15.5t-16 -6.5q-56 0 -94 42t-36 102q0 20 5 37t11 30t18.5 25t22.5 20t28.5 16t31 13t36 11t37 9l40.5 9t40 9l58 13q20 54 53.5 93.5t71.5 39.5q29 0 46.5 -16t17.5 -42z M1063 710q20 53 52.5 90.5t70.5 37.5q28 0 46 -16t18 -42q0 -36 -45.5 -65.5t-109.5 -47.5q-30 -101 -109 -338.5t-120 -353.5q82 24 147 96.5t108 172.5q5 14 21 14q7 0 13 -4.5t8 -12t0 -15.5q-54 -124 -128 -199t-187 -106l-13 -39q-14 -37 -24 -61t-25 -50.5t-30.5 -41 t-37.5 -24.5t-49 -11q-59 0 -93 28t-36 78q0 20 3.5 36t12 28.5t16 22t24 17.5t27 12.5t33 10t34.5 8t38 7.5q46 7 84 17q72 203 152.5 446t80.5 255q-19 -4 -69 -11q-32 -5 -47.5 -7.5t-47.5 -8.5t-49.5 -11t-45 -13.5t-43 -17.5t-34.5 -21.5t-29 -26.5t-17 -32t-7 -39 q-2 -41 20 -66.5t65 -30.5q9 0 15 -7t6 -17q0 -9 -6.5 -15.5t-15.5 -6.5q-58 0 -94.5 42t-35.5 103q0 26 7.5 49.5t19 41t32 33t38.5 26.5t47.5 21t50.5 16t55.5 13t54 10.5t54.5 8.5q64 11 94 17zM637 721q33 7 58.5 26t25.5 33q0 6 -4 10.5t-11 4.5q-16 0 -35.5 -21.5 t-33.5 -52.5zM1117 721q13 3 26 8.5t23 12t18 13t12.5 13.5t4.5 12q0 6 -4.5 10.5t-10.5 4.5q-17 0 -36 -21.5t-33 -52.5zM792 -103l3 11l-60 -12q-3 0 -11 -2q-30 -5 -45 -8t-36.5 -10.5t-31.5 -16t-18 -23.5t-8 -35q0 -32 23.5 -46.5t58.5 -14.5q20 0 36.5 9.5t27.5 21 t23 35.5t19 41t19 50z" />
<glyph unicode="&#x133;" horiz-adv-x="405" d="M176 566q-15 0 -26.5 10.5t-11.5 26t11.5 26t26.5 10.5t26 -10.5t11 -26t-11 -26t-26 -10.5zM374.5 566q-15.5 0 -26.5 10.5t-11 26t11 26t26.5 10.5t26 -10.5t10.5 -26t-10.5 -26t-26 -10.5zM454 256q14 -7 14 -21q0 -3 -3 -9q-34 -82 -76 -139.5t-101 -100t-137 -65.5 q-78 -224 -196 -226q-49 0 -78 28.5t-29 76.5q0 108 182 142q49 7 86 17l25 74q-36 -33 -81 -33q-37 0 -58 26t-19.5 64.5t26.5 121t45 137t56 147.5q5 15 21 15q7 0 13 -3.5t8.5 -10t-0.5 -15.5q-10 -29 -28 -79q-36 -101 -49.5 -140.5t-27 -81.5t-16.5 -58t-3 -32 q0 -46 32 -46q19 0 37.5 12t32.5 28.5t30.5 45t26.5 49t25 52.5q8 23 97 262q7 17 23 17q11 0 18 -10t2 -23q-82 -219 -91 -245q0 -1 -0.5 -3t-1.5 -3q-2 -5 -2 -6q-4 -11 -19 -53t-32 -90t-36 -103q88 30 149 98t104 171q7 14 21 14q3 0 10 -2zM-45 -259q89 1 143 167 q-45 -9 -59 -12q-74 -13 -108.5 -35t-37.5 -60q0 -28 17 -44.5t45 -15.5z" />
<glyph unicode="&#x136;" horiz-adv-x="870" d="M1119 814q0 -17 -16 -22q-24 -8 -48 -25t-53 -48.5t-46 -52t-52 -64.5q-39 -49 -59 -73t-55 -62t-68 -62t-68 -39q83 -51 83 -218q0 -51 -12 -151q-8 -58 -8 -82q0 -95 74 -95q9 0 15.5 -7t6.5 -17q0 -9 -7 -16t-15 -7q-59 0 -89 37.5t-30 104.5q0 22 7 87q11 87 12 146 q0 100 -32 148t-102 50q-9 0 -15.5 6.5t-6.5 15.5t6.5 16t15.5 7q30 0 59 8.5t57.5 28.5t50.5 38t51.5 51t46 53.5t46.5 59.5q30 37 51.5 63t56.5 64t66 58.5t54 20.5q9 0 16 -6t7 -16zM622 650q-37 -68 -94 -245q-12 -38 -22.5 -71t-14.5 -46t-5 -15q-12 -36 -18.5 -56.5 t-19 -53.5t-22 -52.5t-25 -46t-30 -42t-34.5 -33t-42 -27t-49.5 -15.5t-58.5 -6q-88 0 -138.5 55t-48.5 139q5 97 73 162t160 67q10 0 16.5 -7t6.5 -16q0 -10 -6.5 -16.5t-16.5 -6.5q-48 0 -90 -24.5t-68 -66.5t-30 -93q0 -67 38 -107.5t105 -40.5q32 0 60 9.5t49 22.5 t40.5 39t32 46.5t27.5 57.5t23 60.5t22 65.5l43 132q1 4 4 14q53 166 93 239l3 6q-39 9 -128 36q-35 11 -53 16t-47.5 12.5t-55 10.5t-50.5 3q-36 0 -69 -20.5t-53 -54.5t-20 -72q0 -55 34 -83t91 -28q46 0 99 23q6 2 10 2q11 0 16.5 -7.5t5.5 -15.5q0 -14 -13 -20 q-59 -27 -119 -27q-77 0 -123 42.5t-46 113.5q0 52 26.5 96.5t69.5 70t91 25.5q37 0 78 -6.5t67.5 -14t74.5 -22.5q92 -29 145 -39q34 33 69 52q5 3 11 3q14 0 20 -13q2 -6 2 -9q0 -14 -13 -21q-57 -31 -83 -81zM521 -110q-3 -11 -6 -15l-39 -62q-8 -14 -21 -7 q-7 2 -8.5 8.5t2.5 12.5l19 34q-24 10 -22 36q2 16 13.5 25.5t26.5 8.5q16 -2 26 -14t9 -27z" />
<glyph unicode="&#x137;" horiz-adv-x="426" d="M-16 16q-4 -8 -12.5 -12.5t-16.5 -2.5q-9 3 -13.5 11.5t-0.5 17.5q193 540 231 647q5 14 20 14q13 0 20 -9.5t3 -20.5q-178 -501 -231 -645zM475 257q14 -5 14 -20q0 -4 -2 -10q-18 -41 -32 -69t-34 -60.5t-39 -52t-43.5 -32.5t-50.5 -13q-35 0 -57.5 24.5t-22.5 57.5 q0 23 7 72q6 44 5 64q0 15 -4 25.5t-15 17t-28 6.5t-38 -16.5t-30 -16.5q-18 0 -22 14t9 26q3 4 14 13.5t26.5 24t39.5 35.5t49.5 44.5t59.5 54.5l68 62q6 5 15 5q11 0 17.5 -7.5t6.5 -15.5t-8 -16l-180 -164q64 -11 66 -92q0 -12 -6 -66t-6 -67q0 -16 9 -28t25 -12 q23 0 45 17t43 49.5t35.5 61.5t33.5 72q7 14 20 14q4 0 10 -2zM133 -66q-2 -11 -6 -15l-38 -62q-8 -14 -22 -7q-6 2 -8 8.5t3 12.5l18 34q-23 10 -22 37q2 15 13.5 25t26.5 8q16 -1 26 -13.5t9 -27.5z" />
<glyph unicode="&#x139;" horiz-adv-x="548" d="M571 928l146 100q8 6 18 3.5t15 -10.5t3 -18t-11 -16l-149 -98q-19 -10 -30 7q-8 20 8 32zM468 707q20 54 53.5 93.5t71.5 39.5q28 0 46 -16t18 -42q0 -36 -45.5 -65.5t-109.5 -46.5q-31 -79 -71 -215q-55 -175 -80 -237q-25 -60 -51 -100q2 -2 89 -86l13 -13 q35 -35 53.5 -52.5t51 -46t56 -42.5t53.5 -25.5t57 -11.5t51 7t42.5 20.5t27.5 32.5q5 14 20 14q7 0 12.5 -4.5t8 -9.5t2.5 -10q0 -2 -2 -9q-19 -43 -65 -65t-98 -22q-24 0 -50 7.5t-45.5 15.5t-48.5 29t-43 31.5t-46 41t-40.5 38.5t-42.5 42q-81 78 -82 79q-6 -9 -9 -12 q-29 -34 -69.5 -53t-83.5 -19q-112 8 -112 103q3 55 36.5 87t82.5 32q64 0 147 -70q21 35 43 88q28 73 78 234q36 120 62 191q-18 -4 -66 -11q-41 -6 -62.5 -10t-60 -12t-59.5 -15.5t-49 -20t-44 -27t-28.5 -35t-15.5 -44.5q-1 -4 -1 -13q-2 -37 18 -64q21 -28 56 -32l11 -1 q10 0 16 -7t6 -17q0 -9 -7 -15.5t-17 -6.5q-11 0 -15 1q-56 8 -87 51q-28 37 -27 93q0 12 1 17q4 25 13.5 46t21 37.5t32 30.5t37.5 24t45.5 19.5t47.5 15t53 12t53 9.5t55 8zM524 724q32 7 58 25.5t26 32.5q0 6 -4.5 10.5t-10.5 4.5q-11 0 -24.5 -11t-24.5 -27t-20 -35z M230 96q7 9 11 13q-78 63 -123 63q-29 0 -50 -20.5t-23 -53.5q0 -20 9.5 -33.5t24 -19t33.5 -5.5q32 0 64 15.5t54 40.5z" />
<glyph unicode="&#x13a;" horiz-adv-x="222" d="M166 778l146 100q8 6 18 3.5t15 -11.5q5 -7 3 -17t-11 -16l-149 -98q-19 -10 -30 7q-8 20 8 32zM272 257q13 -7 13 -20q0 -4 -2 -10q-53 -114 -103 -170.5t-120 -56.5q-37 0 -58 25.5t-21 65.5q0 36 37 155q13 38 28.5 82.5t35 98.5t29.5 85l56 164q4 9 12 13t18 1 q9 -3 13 -11.5t1 -17.5l-57 -164q-5 -16 -39.5 -113.5t-52.5 -151.5q-36 -110 -36 -141q0 -46 34 -46q29 0 54 15t47.5 45t40 62t39.5 79q7 13 21 13q4 0 10 -2z" />
<glyph unicode="&#x13b;" horiz-adv-x="548" d="M468 707q20 54 53.5 93.5t71.5 39.5q28 0 46 -16t18 -42q0 -36 -45.5 -65.5t-109.5 -46.5q-31 -79 -71 -215q-55 -175 -80 -237q-25 -60 -51 -100q2 -2 89 -86l13 -13q35 -35 53.5 -52.5t51 -46t56 -42.5t53.5 -25.5t57 -11.5t51 7t42.5 20.5t27.5 32.5q5 14 20 14 q7 0 12.5 -4.5t8 -9.5t2.5 -10q0 -2 -2 -9q-19 -43 -65 -65t-98 -22q-24 0 -50 7.5t-45.5 15.5t-48.5 29t-43 31.5t-46 41t-40.5 38.5t-42.5 42q-81 78 -82 79q-6 -9 -9 -12q-29 -34 -69.5 -53t-83.5 -19q-112 8 -112 103q3 55 36.5 87t82.5 32q64 0 147 -70q21 35 43 88 q28 73 78 234q36 120 62 191q-18 -4 -66 -11q-41 -6 -62.5 -10t-60 -12t-59.5 -15.5t-49 -20t-44 -27t-28.5 -35t-15.5 -44.5q-1 -4 -1 -13q-2 -37 18 -64q21 -28 56 -32l11 -1q10 0 16 -7t6 -17q0 -9 -7 -15.5t-17 -6.5q-11 0 -15 1q-56 8 -87 51q-28 37 -27 93q0 12 1 17 q4 25 13.5 46t21 37.5t32 30.5t37.5 24t45.5 19.5t47.5 15t53 12t53 9.5t55 8zM524 724q32 7 58 25.5t26 32.5q0 6 -4.5 10.5t-10.5 4.5q-11 0 -24.5 -11t-24.5 -27t-20 -35zM230 96q7 9 11 13q-78 63 -123 63q-29 0 -50 -20.5t-23 -53.5q0 -20 9.5 -33.5t24 -19t33.5 -5.5 q32 0 64 15.5t54 40.5zM299 -87q-2 -11 -5 -16l-39 -61q-8 -15 -22 -8q-6 3 -7.5 9t2.5 13l18 33q-23 10 -21 37q1 16 12.5 25.5t27.5 8.5q10 -2 18 -7.5t12.5 -14.5t3.5 -19z" />
<glyph unicode="&#x13c;" horiz-adv-x="222" d="M272 257q13 -7 13 -20q0 -4 -2 -10q-53 -114 -103 -170.5t-120 -56.5q-37 0 -58 25.5t-21 65.5q0 36 37 155q13 38 28.5 82.5t35 98.5t29.5 85l56 164q4 9 12 13t18 1q9 -3 13 -11.5t1 -17.5l-57 -164q-5 -16 -39.5 -113.5t-52.5 -151.5q-36 -110 -36 -141q0 -46 34 -46 q29 0 54 15t47.5 45t40 62t39.5 79q7 13 21 13q4 0 10 -2zM59 -93q-2 -11 -5 -15l-39 -62q-8 -14 -21 -7q-7 2 -8.5 8.5t2.5 12.5l18 34q-23 10 -21 37q2 15 13.5 25t26.5 8q10 -1 18.5 -7t12.5 -15t3 -19z" />
<glyph unicode="&#x13d;" horiz-adv-x="548" d="M468 707q20 54 53.5 93.5t71.5 39.5q28 0 46 -16t18 -42q0 -36 -45.5 -65.5t-109.5 -46.5q-31 -79 -71 -215q-55 -175 -80 -237q-25 -60 -51 -100q2 -2 89 -86l13 -13q35 -35 53.5 -52.5t51 -46t56 -42.5t53.5 -25.5t57 -11.5t51 7t42.5 20.5t27.5 32.5q5 14 20 14 q7 0 12.5 -4.5t8 -9.5t2.5 -10q0 -2 -2 -9q-19 -43 -65 -65t-98 -22q-24 0 -50 7.5t-45.5 15.5t-48.5 29t-43 31.5t-46 41t-40.5 38.5t-42.5 42q-81 78 -82 79q-6 -9 -9 -12q-29 -34 -69.5 -53t-83.5 -19q-112 8 -112 103q3 55 36.5 87t82.5 32q64 0 147 -70q21 35 43 88 q28 73 78 234q36 120 62 191q-18 -4 -66 -11q-41 -6 -62.5 -10t-60 -12t-59.5 -15.5t-49 -20t-44 -27t-28.5 -35t-15.5 -44.5q-1 -4 -1 -13q-2 -37 18 -64q21 -28 56 -32l11 -1q10 0 16 -7t6 -17q0 -9 -7 -15.5t-17 -6.5q-11 0 -15 1q-56 8 -87 51q-28 37 -27 93q0 12 1 17 q4 25 13.5 46t21 37.5t32 30.5t37.5 24t45.5 19.5t47.5 15t53 12t53 9.5t55 8zM798 789q-2 -10 -5 -15l-39 -61q-8 -15 -22 -8q-6 3 -7.5 9t2.5 13l18 33q-23 10 -21 37q1 16 12.5 25.5t27.5 8.5q15 -2 25.5 -14t8.5 -28zM524 724q32 7 58 25.5t26 32.5q0 6 -4.5 10.5 t-10.5 4.5q-11 0 -24.5 -11t-24.5 -27t-20 -35zM230 96q7 9 11 13q-78 63 -123 63q-29 0 -50 -20.5t-23 -53.5q0 -20 9.5 -33.5t24 -19t33.5 -5.5q32 0 64 15.5t54 40.5z" />
<glyph unicode="&#x13e;" horiz-adv-x="222" d="M333 650q-3 -11 -6 -15l-39 -62q-8 -14 -21 -7q-7 2 -8.5 8.5t2.5 13.5l19 33q-24 10 -22 37q1 7 4.5 13.5t8.5 11t12.5 7t14.5 1.5q16 -1 26 -13.5t9 -27.5zM272 257q13 -7 13 -20q0 -4 -2 -10q-53 -114 -103 -170.5t-120 -56.5q-37 0 -58 25.5t-21 65.5q0 36 37 155 q13 38 28.5 82.5t35 98.5t29.5 85l56 164q4 9 12 13t18 1q9 -3 13 -11.5t1 -17.5l-57 -164q-5 -16 -39.5 -113.5t-52.5 -151.5q-36 -110 -36 -141q0 -46 34 -46q29 0 54 15t47.5 45t40 62t39.5 79q7 13 21 13q4 0 10 -2z" />
<glyph unicode="&#x141;" horiz-adv-x="548" d="M814 -85q7 0 12.5 -4.5t8 -9.5t2.5 -10q0 -2 -2 -9q-19 -43 -65 -65t-98 -22q-24 0 -50 7.5t-45.5 15.5t-48.5 29t-43 31.5t-46 41t-40.5 38.5t-42.5 42q-81 78 -82 79q-6 -9 -9 -12q-29 -34 -69.5 -53t-83.5 -19q-112 8 -112 103q3 55 36.5 87t82.5 32q64 0 147 -70 q21 35 43 88q26 71 34 98l-54 -32q-9 -4 -18 -1.5t-13 10.5q-9 20 9 31l97 56q3 10 6.5 21t8.5 26t8 25q36 120 62 191q-18 -4 -66 -11q-41 -6 -62.5 -10t-60 -12t-59.5 -15.5t-49 -20t-44 -27t-28.5 -35t-15.5 -44.5q-1 -4 -1 -13q-2 -37 18 -64q21 -28 56 -32l11 -1 q10 0 16 -7t6 -17q0 -9 -7 -15.5t-17 -6.5q-11 0 -15 1q-56 8 -87 51q-28 37 -27 93q0 12 1 17q4 25 13.5 46t21 37.5t32 30.5t37.5 24t45.5 19.5t47.5 15t53 12t53 9.5t55 8l92 14q20 54 53.5 93.5t71.5 39.5q28 0 46 -16t18 -42q0 -36 -45.5 -65.5t-109.5 -46.5 q-31 -79 -71 -215q-1 -4 -4 -11.5t-4 -11.5l86 49q20 11 31 -8q12 -19 -8 -31l-129 -75q-30 -95 -52 -149q-25 -60 -51 -100q2 -2 89 -86l13 -13q35 -35 53.5 -52.5t51 -46t56 -42.5t53.5 -25.5t57 -11.5t51 7t42.5 20.5t27.5 32.5q5 14 20 14zM593 797q-11 0 -24.5 -11 t-24.5 -27t-20 -35q32 7 58 25.5t26 32.5q0 6 -4.5 10.5t-10.5 4.5zM230 96q7 9 11 13q-78 63 -123 63q-29 0 -50 -20.5t-23 -53.5q0 -20 9.5 -33.5t24 -19t33.5 -5.5q32 0 64 15.5t54 40.5z" />
<glyph unicode="&#x142;" horiz-adv-x="222" d="M342 819q10 2 18 -2.5t10 -12.5q3 -10 -1 -18t-14 -11l-271 -73q-10 -2 -18 2.5t-10 13.5q-3 22 16 28zM272 257q13 -7 13 -20q0 -4 -2 -10q-53 -114 -103 -170.5t-120 -56.5q-37 0 -58 25.5t-21 65.5q0 36 37 155q13 38 28.5 82.5t35 98.5t29.5 85l56 164q4 9 12 13 t18 1q9 -3 13 -11.5t1 -17.5l-57 -164q-5 -16 -39.5 -113.5t-52.5 -151.5q-36 -110 -36 -141q0 -46 34 -46q29 0 54 15t47.5 45t40 62t39.5 79q7 13 21 13q4 0 10 -2z" />
<glyph unicode="&#x143;" horiz-adv-x="828" d="M745 908l146 101q8 5 17.5 2.5t14.5 -10.5q6 -8 4 -18t-11 -15l-149 -99q-19 -10 -30 8q-8 20 8 31zM1 778q1 10 7 15t14 5t14.5 -5.5t6.5 -15.5q0 -64 31 -95t96 -31q32 0 69.5 12.5t80.5 38t68.5 42t65.5 45.5q9 6 13 9q25 20 54 39q4 3 11 3q12 0 18 -8q6 -10 3 -20 l-63 -191q69 88 124.5 132.5t122.5 44.5q70 0 100.5 -35.5t30.5 -100.5q1 -49 -16 -115.5t-61 -199.5q-12 -34 -53 -150.5t-62 -183t-22 -89.5q0 -49 18 -72.5t56 -25.5q9 0 15.5 -6t6.5 -14q0 -9 -6.5 -15.5t-15.5 -6.5q-57 0 -87 37t-30 103q1 17 8 46t21.5 74t29.5 88 t38.5 110.5t41.5 118.5q43 129 59.5 193.5t16.5 107.5q-2 93 -89 93q-31 0 -63.5 -17t-59.5 -41t-60.5 -64.5t-55 -71.5t-53.5 -78q-18 -55 -48 -148q-68 -214 -99.5 -274.5t-91.5 -60.5q-55 0 -55 66q0 22 11 52t32 65t35.5 58t39.5 57t26 36l111 168l85 262 q-49 -36 -75.5 -53.5t-75.5 -46t-91 -42t-79 -13.5q-80 0 -128 47t-41 122zM353 340l-24 -32q-134 -180 -136 -243q0 -22 14 -22q13 0 23 4.5t20.5 19t19.5 32t22.5 56t26.5 77.5t34 108z" />
<glyph unicode="&#x144;" horiz-adv-x="430" d="M244 622l146 101q8 5 17.5 2.5t14.5 -10.5t3 -18t-10 -16l-149 -98q-19 -10 -31 8q-7 20 9 31zM480 257q14 -7 14 -20q0 -4 -3 -10q-56 -125 -99.5 -176t-97.5 -51q-38 0 -58 25t-20 66q0 42 21 102.5t42 120t21 97.5q0 57 -56 57q-31 0 -68.5 -41.5t-66 -93.5 t-47.5 -103l-76 -214q-3 -9 -11.5 -13t-17.5 -2q-9 3 -13 11.5t-1 17.5q27 76 86 242t80 225q5 15 22 15q12 0 18.5 -10t2.5 -20l-8 -22q51 53 100 53q102 0 102 -102q0 -40 -21.5 -102.5t-42.5 -123t-21 -94.5q0 -46 33 -46q37 0 70.5 44.5t84.5 155.5q7 14 21 14 q3 0 10 -2z" />
<glyph unicode="&#x145;" horiz-adv-x="828" d="M1 778q1 10 7 15t14 5t14.5 -5.5t6.5 -15.5q0 -64 31 -95t96 -31q32 0 69.5 12.5t80.5 38t68.5 42t65.5 45.5q9 6 13 9q25 20 54 39q4 3 11 3q12 0 18 -8q6 -10 3 -20l-63 -191q69 88 124.5 132.5t122.5 44.5q70 0 100.5 -35.5t30.5 -100.5q1 -49 -16 -115.5t-61 -199.5 q-12 -34 -53 -150.5t-62 -183t-22 -89.5q0 -49 18 -72.5t56 -25.5q9 0 15.5 -6t6.5 -14q0 -9 -6.5 -15.5t-15.5 -6.5q-57 0 -87 37t-30 103q1 17 8 46t21.5 74t29.5 88t38.5 110.5t41.5 118.5q43 129 59.5 193.5t16.5 107.5q-2 93 -89 93q-31 0 -63.5 -17t-59.5 -41 t-60.5 -64.5t-55 -71.5t-53.5 -78q-18 -55 -48 -148q-68 -214 -99.5 -274.5t-91.5 -60.5q-55 0 -55 66q0 22 11 52t32 65t35.5 58t39.5 57t26 36l111 168l85 262q-49 -36 -75.5 -53.5t-75.5 -46t-91 -42t-79 -13.5q-80 0 -128 47t-41 122zM353 340l-24 -32 q-134 -180 -136 -243q0 -22 14 -22q13 0 23 4.5t20.5 19t19.5 32t22.5 56t26.5 77.5t34 108zM447 -122q-2 -11 -5 -15l-39 -62q-8 -14 -22 -7q-6 2 -7.5 8.5t2.5 12.5l18 34q-23 10 -21 37q1 15 12.5 25t27.5 8q15 -2 25.5 -14t8.5 -27z" />
<glyph unicode="&#x146;" horiz-adv-x="430" d="M480 257q14 -7 14 -20q0 -4 -3 -10q-56 -125 -99.5 -176t-97.5 -51q-38 0 -58 25t-20 66q0 42 21 102.5t42 120t21 97.5q0 57 -56 57q-31 0 -68.5 -41.5t-66 -93.5t-47.5 -103l-76 -214q-3 -9 -11.5 -13t-17.5 -2q-9 3 -13 11.5t-1 17.5q27 76 86 242t80 225q5 15 22 15 q12 0 18.5 -10t2.5 -20l-8 -22q51 53 100 53q102 0 102 -102q0 -40 -21.5 -102.5t-42.5 -123t-21 -94.5q0 -46 33 -46q37 0 70.5 44.5t84.5 155.5q7 14 21 14q3 0 10 -2zM150 -84q-2 -11 -5 -15l-39 -62q-8 -14 -22 -7q-6 2 -7.5 8.5t2.5 12.5l18 34q-23 10 -21 36 q1 16 12.5 25.5t27.5 8.5q15 -2 25.5 -14t8.5 -27z" />
<glyph unicode="&#x147;" horiz-adv-x="828" d="M723 977q-8 17 8 27q7 5 15.5 2t12.5 -11l35 -73l108 80q15 13 28 -2q11 -17 -3 -30l-125 -100q-11 -9 -23 -6.5t-15 12.5zM1 778q1 10 7 15t14 5t14.5 -5.5t6.5 -15.5q0 -64 31 -95t96 -31q32 0 69.5 12.5t80.5 38t68.5 42t65.5 45.5q9 6 13 9q25 20 54 39q4 3 11 3 q12 0 18 -8q6 -10 3 -20l-63 -191q69 88 124.5 132.5t122.5 44.5q70 0 100.5 -35.5t30.5 -100.5q1 -49 -16 -115.5t-61 -199.5q-12 -34 -53 -150.5t-62 -183t-22 -89.5q0 -49 18 -72.5t56 -25.5q9 0 15.5 -6t6.5 -14q0 -9 -6.5 -15.5t-15.5 -6.5q-57 0 -87 37t-30 103 q1 17 8 46t21.5 74t29.5 88t38.5 110.5t41.5 118.5q43 129 59.5 193.5t16.5 107.5q-2 93 -89 93q-31 0 -63.5 -17t-59.5 -41t-60.5 -64.5t-55 -71.5t-53.5 -78q-18 -55 -48 -148q-68 -214 -99.5 -274.5t-91.5 -60.5q-55 0 -55 66q0 22 11 52t32 65t35.5 58t39.5 57t26 36 l111 168l85 262q-49 -36 -75.5 -53.5t-75.5 -46t-91 -42t-79 -13.5q-80 0 -128 47t-41 122zM353 340l-24 -32q-134 -180 -136 -243q0 -22 14 -22q13 0 23 4.5t20.5 19t19.5 32t22.5 56t26.5 77.5t34 108z" />
<glyph unicode="&#x148;" horiz-adv-x="430" d="M221 691q-7 17 9 27q6 4 15 1t13 -11l35 -72l108 80q15 12 28 -2q11 -17 -3 -30l-125 -100q-11 -9 -23 -6.5t-16 12.5zM480 257q14 -7 14 -20q0 -4 -3 -10q-56 -125 -99.5 -176t-97.5 -51q-38 0 -58 25t-20 66q0 42 21 102.5t42 120t21 97.5q0 57 -56 57 q-31 0 -68.5 -41.5t-66 -93.5t-47.5 -103l-76 -214q-3 -9 -11.5 -13t-17.5 -2q-9 3 -13 11.5t-1 17.5q27 76 86 242t80 225q5 15 22 15q12 0 18.5 -10t2.5 -20l-8 -22q51 53 100 53q102 0 102 -102q0 -40 -21.5 -102.5t-42.5 -123t-21 -94.5q0 -46 33 -46q37 0 70.5 44.5 t84.5 155.5q7 14 21 14q3 0 10 -2z" />
<glyph unicode="&#x14a;" horiz-adv-x="898" d="M947 256q14 -7 14 -21q0 -3 -2 -9q-35 -82 -76.5 -139.5t-101 -100t-136.5 -65.5q-79 -224 -197 -226q-24 0 -44 7.5t-33.5 21t-21.5 33.5t-8 43q0 108 183 142q49 7 85 17l27 78q16 44 46 129.5t42.5 121t34 98t30 93t19.5 70.5t14.5 66.5t3.5 47.5q-2 93 -89 93 q-31 0 -63.5 -17.5t-59.5 -41t-60.5 -64.5t-55 -71.5t-53.5 -78.5q-19 -59 -51 -158q-68 -214 -94 -263q-41 -58 -85 -62q-64 0 -64 66q0 22 11 52t32 65t35.5 58t39.5 57t26 36l111 168l85 262q-49 -36 -75.5 -53.5t-75.5 -46t-91 -42t-79 -13.5q-80 0 -128 47t-41 122 q1 10 7 15t14 5t14.5 -5.5t6.5 -15.5q0 -64 31 -95t96 -31q32 0 69.5 12.5t80.5 38t68.5 42t65.5 45.5q9 6 13 9q25 20 54 39q4 3 11 3q12 0 18 -8q6 -10 3 -20l-63 -191q34 43 59.5 71.5t56.5 55t63.5 39t67.5 12.5q70 0 100.5 -35t30.5 -101q1 -38 -16.5 -112.5t-53 -182 t-58.5 -173.5t-61 -172l-16 -48q89 30 149.5 98t104.5 171q7 14 20 14q4 0 10 -2zM353 340l-24 -32q-134 -180 -136 -243q0 -22 23 -22q11 0 19 4.5t18 19t18 32.5t21.5 55.5t26.5 77.5t34 108zM448 -259q90 1 144 167l-60 -12q-49 -8 -80.5 -21t-47 -31t-17.5 -43 q0 -18 7.5 -32t21.5 -21.5t32 -6.5z" />
<glyph unicode="&#x14b;" horiz-adv-x="421" d="M470 258q9 -3 12.5 -12t0.5 -17q-28 -63 -54 -108.5t-61 -86.5t-79 -68.5t-100 -42.5l-13 -37q-16 -48 -29 -76.5t-32.5 -56.5t-45 -41.5t-59.5 -14.5q-58 0 -93.5 28.5t-35.5 76.5q0 53 48 89t140 53q77 15 84 17q16 46 47 129.5t50 136.5t34.5 107t15.5 77q0 57 -56 57 q-31 0 -68.5 -41.5t-66 -93.5t-47.5 -103l-76 -214q-3 -9 -11.5 -13t-17.5 -2q-9 3 -13 11.5t-1 17.5q27 76 86 242t80 225q5 15 22 15q12 0 18.5 -10t2.5 -20l-8 -22q51 53 100 53q102 0 102 -102q0 -18 -10.5 -57t-32.5 -105t-38 -111.5t-47 -129.5q-7 -21 -11 -31 q49 21 83.5 45.5t61.5 60t45.5 71t43.5 92.5q5 14 20 14q2 0 9 -2zM133 -100l3 10q-9 -2 -29 -5.5t-30 -6.5q-74 -12 -112 -36t-38 -59q0 -30 22.5 -45.5t59.5 -15.5q20 1 36.5 10.5t28 21t23.5 36t18.5 41t17.5 49.5z" />
<glyph unicode="&#x14c;" horiz-adv-x="793" d="M758 923q10 0 16.5 -6t7.5 -16q0 -5 -1.5 -9t-4.5 -7t-7.5 -5t-9.5 -2h-210q-11 0 -17 6.5t-6 16.5q1 10 7 16t17 6h208zM854 225q-66 -158 -164 -158q-51 0 -81 30q-54 -68 -110 -103.5t-125 -35.5q-90 0 -134.5 60t-44.5 163q0 70 18.5 155.5t47.5 151.5q-28 -4 -62 -4 q-91 0 -145 41.5t-54 113.5q0 39 15 69t44 60q7 6 16 6t17 -7q6 -7 6 -15q0 -10 -6 -17q-17 -16 -26.5 -29.5t-15 -30t-5.5 -36.5q0 -52 43 -81t111 -29q39 0 86 9q48 94 109.5 153t132.5 59q24 0 38.5 -12t14.5 -35q0 -43 -43.5 -87t-103 -74.5t-117.5 -43.5 q-36 -74 -55.5 -158t-19.5 -159q0 -178 133 -178q59 0 113.5 38t94.5 97q-8 22 -8.5 51t7.5 51q6 17 23 17q11 0 17.5 -9t3.5 -20q-3 -10 -5 -31q54 93 87.5 202t33.5 203q0 50 -10.5 86.5t-37 59.5t-67.5 23q-25 0 -58 -7q-8 -2 -15 0.5t-10.5 7.5t-3.5 11q0 19 18 25 q32 8 65 8q58 0 95.5 -29t53 -75.5t15.5 -111.5q0 -108 -43 -238t-108 -227q18 -23 52 -23q38 0 67.5 32.5t57.5 98.5q5 14 21 14q11 0 18.5 -10.5t2.5 -21.5zM346 554q70 26 129 65t59 71q0 14 -15 14q-80 0 -173 -150z" />
<glyph unicode="&#x14d;" horiz-adv-x="422" d="M387 635q10 0 16.5 -6.5t6.5 -16.5q0 -9 -6 -15.5t-16 -6.5h-211q-10 0 -16.5 6.5t-6.5 15.5q1 7 4 12t8 8t12 3h209zM483 228q-36 -82 -75.5 -120.5t-87.5 -38.5q-47 0 -82 29q-32 -43 -71 -70.5t-76 -27.5q-94 0 -94 109q0 138 92 288q68 114 152 114q52 -2 80 -33.5 t28 -82.5t-23.5 -123t-60.5 -135q17 -23 55 -23q22 0 42.5 14.5t40 43t38.5 73.5q5 14 20 14q12 0 19.5 -10t2.5 -21zM232 259q12 0 18.5 -9t3.5 -20q-1 -3 -5 -25q17 33 29.5 68t18.5 67t6 56q0 22 -8 38t-22.5 23.5t-32.5 7.5q-58 0 -111 -91q-86 -141 -86 -263 q0 -66 48 -66q55 0 121 94q-6 14 -8 33.5t0 37.5t6 32q3 17 22 17z" />
<glyph unicode="&#x150;" horiz-adv-x="793" d="M577 901l106 100q16 15 33 -2q14 -19 -3 -35l-111 -96q-15 -13 -29 2q-11 18 4 31zM696 901l105 100q17 15 34 -2q13 -19 -3 -35l-112 -96q-15 -13 -28 2q-11 18 4 31zM854 225q-66 -158 -164 -158q-51 0 -81 30q-54 -68 -110 -103.5t-125 -35.5q-90 0 -134.5 60 t-44.5 163q0 70 18.5 155.5t47.5 151.5q-28 -4 -62 -4q-91 0 -145 41.5t-54 113.5q0 39 15 69t44 60q7 6 16 6t17 -7q6 -7 6 -15q0 -10 -6 -17q-17 -16 -26.5 -29.5t-15 -30t-5.5 -36.5q0 -52 43 -81t111 -29q39 0 86 9q48 94 109.5 153t132.5 59q24 0 38.5 -12t14.5 -35 q0 -43 -43.5 -87t-103 -74.5t-117.5 -43.5q-36 -74 -55.5 -158t-19.5 -159q0 -178 133 -178q59 0 113.5 38t94.5 97q-8 22 -8.5 51t7.5 51q6 17 23 17q11 0 17.5 -9t3.5 -20q-3 -10 -5 -31q54 93 87.5 202t33.5 203q0 50 -10.5 86.5t-37 59.5t-67.5 23q-25 0 -58 -7 q-8 -2 -15 0.5t-10.5 7.5t-3.5 11q0 19 18 25q32 8 65 8q58 0 95.5 -29t53 -75.5t15.5 -111.5q0 -108 -43 -238t-108 -227q18 -23 52 -23q38 0 67.5 32.5t57.5 98.5q5 14 21 14q11 0 18.5 -10.5t2.5 -21.5zM346 554q70 26 129 65t59 71q0 14 -15 14q-80 0 -173 -150z" />
<glyph unicode="&#x151;" horiz-adv-x="422" d="M205 612l106 101q17 15 34 -2q13 -20 -4 -35l-111 -96q-15 -13 -28 2q-11 17 3 30zM324 612l106 101q16 15 33 -2q14 -20 -3 -35l-111 -96q-15 -13 -28 2q-12 17 3 30zM483 228q-36 -82 -75.5 -120.5t-87.5 -38.5q-47 0 -82 29q-32 -43 -71 -70.5t-76 -27.5 q-94 0 -94 109q0 138 92 288q68 114 152 114q52 -2 80 -33.5t28 -82.5t-23.5 -123t-60.5 -135q17 -23 55 -23q22 0 42.5 14.5t40 43t38.5 73.5q5 14 20 14q12 0 19.5 -10t2.5 -21zM232 259q12 0 18.5 -9t3.5 -20q-1 -3 -5 -25q17 33 29.5 68t18.5 67t6 56q0 22 -8 38 t-22.5 23.5t-32.5 7.5q-58 0 -111 -91q-86 -141 -86 -263q0 -66 48 -66q55 0 121 94q-6 14 -8 33.5t0 37.5t6 32q3 17 22 17z" />
<glyph unicode="&#x152;" horiz-adv-x="1130" d="M1179 258q14 -7 14 -21q0 -3 -2 -9q-59 -146 -143.5 -219.5t-206.5 -73.5q-95 0 -157 53.5t-67 144.5q-35 -53 -73 -91.5t-82.5 -61t-87.5 -22.5q-90 0 -134.5 60t-44.5 163q0 70 18.5 155.5t47.5 151.5q-28 -4 -62 -4q-91 0 -145 41.5t-54 113.5q0 39 15 69t44 60 q7 6 16 6t17 -7q6 -7 6 -15q0 -10 -6 -17q-17 -16 -26.5 -29.5t-15 -30t-5.5 -36.5q0 -52 43 -81t111 -29q39 0 86 9q48 94 109.5 153t132.5 59q24 0 38.5 -12t14.5 -35q0 -43 -43.5 -87t-103 -74.5t-117.5 -43.5q-36 -74 -55.5 -158t-19.5 -159q0 -178 133 -178 q64 0 129 61.5t111.5 152.5t75.5 195t29 190q0 169 -93 169q-25 0 -58 -7q-8 -2 -15 0.5t-10.5 7.5t-3.5 11q0 19 18 25q32 8 65 8q70 0 106.5 -54.5t36.5 -161.5q0 -96 -33 -210q35 27 82 47q-46 51 -46 107q0 104 78 180t186 76q35 0 61.5 -10t41.5 -30t15 -46 q-1 -42 -37 -85q-8 -9 -18.5 -10t-16.5 6q-15 16 2 35q22 26 25 54q0 20 -21.5 30.5t-51.5 10.5q-90 0 -154 -63t-64 -147q0 -49 48 -90q58 15 94 15q26 0 46 -13t20 -35q0 -26 -18 -40.5t-46 -14.5q-50 0 -105 37q-87 -32 -139 -101.5t-52 -153.5q0 -79 50 -123.5 t129 -44.5q107 0 180 65.5t128 198.5q3 9 12 12.5t18 0.5zM519 704q-80 0 -173 -150q70 26 129 65t59 71q0 14 -15 14zM949 424q-13 0 -39 -4q24 -9 48 -7q4 0 6 1t3 2t1 2q0 6 -19 6z" />
<glyph unicode="&#x153;" horiz-adv-x="561" d="M610 257q14 -7 14 -22q0 -2 -2 -8q-55 -122 -108 -174.5t-132 -52.5q-36 0 -62.5 13.5t-42.5 40.5t-24 67q-25 -36 -51 -62.5t-55 -42.5t-56 -16q-94 0 -94 109q0 138 92 288q68 114 152 114q48 -2 75.5 -29.5t31.5 -72.5q72 102 150 102q41 0 66.5 -21t25.5 -59 q0 -128 -277 -196q-14 -46 -16 -88q-3 -99 86 -102q64 -1 106.5 44.5t90.5 155.5q4 8 12.5 11.5t17.5 0.5zM91 45q46 0 97 63.5t83 146t32 141.5q0 22 -8 38t-22.5 23.5t-32.5 7.5q-58 0 -111 -91q-86 -141 -86 -263q0 -66 48 -66zM498 465q-43 0 -88 -51t-76 -125 q33 10 57 18t55 21.5t50.5 27.5t33.5 33.5t14 41.5q0 34 -46 34z" />
<glyph unicode="&#x154;" horiz-adv-x="783" d="M622 908l146 101q8 5 17.5 2.5t14.5 -10.5t3 -18t-10 -15l-149 -99q-19 -10 -31 8q-7 20 9 31zM820 575q-3 -86 -62 -151t-152 -90q72 -52 72 -193q0 -39 -9 -128.5t-9 -97.5q1 -26 5.5 -43.5t13.5 -29.5t22.5 -17t31.5 -5q5 0 8.5 -1t6.5 -3t5.5 -4.5t3.5 -6t1 -7.5 q0 -10 -7 -17.5t-18 -7.5q-58 0 -88 38t-30 104q0 21 9 102.5t9 122.5q0 38 -6 67t-20 55t-41.5 40.5t-67.5 15.5q-6 0 -11 2t-8.5 5t-5 7t-1.5 8q0 10 7 16.5t19 6.5q74 3 135.5 29t100 74t40.5 109q3 83 -56 130.5t-152 46.5q-95 -2 -163.5 -50t-102 -127.5t-33.5 -182.5 q0 -10 -6.5 -16.5t-16.5 -6.5q-9 0 -16 7t-7 16q0 116 40.5 207.5t119.5 145t185 53.5q115 0 186.5 -62.5t67.5 -160.5zM572 669q-7 -7 -14.5 -15.5t-14.5 -21.5t-12.5 -23.5t-13 -29.5t-11.5 -30t-11.5 -34t-10.5 -32.5t-10.5 -35t-10.5 -32.5q0 -1 -1 -4 q-20 -65 -31.5 -99t-33.5 -92t-43 -89.5t-50.5 -66.5t-66 -50.5t-79.5 -15.5q-68 0 -113 40.5t-45 106.5q0 70 47 124t109 54q47 0 47 -26q0 -8 -3.5 -13.5t-10 -8.5t-14.5 -1q-11 2 -18 2q-44 0 -78 -41t-34 -90q0 -47 32.5 -74.5t79.5 -27.5q23 0 45 8t40 19t35.5 32.5 t30 39.5t27 48.5t23.5 51.5t21 57t18 55t18 56q3 12 5 18q17 56 21.5 70.5t19 58.5t24 62.5t25 44t32.5 40.5q32 28 58 28q11 0 18 -5.5t7 -13.5q0 -22 -19 -26q-17 -3 -34 -18z" />
<glyph unicode="&#x155;" horiz-adv-x="397" d="M262 555l146 101q8 5 18 2.5t15 -10.5t3 -18t-11 -15l-149 -99q-18 -10 -30 8q-8 20 8 31zM446 257q14 -7 14 -20q0 -4 -2 -10q-36 -82 -66.5 -131t-62.5 -72.5t-69 -23.5h-1q-37 0 -56.5 25t-19.5 66q0 31 10 70q6 25 32 104t34 98q-91 30 -118 43q-2 -8 -98 -217 q-6 -13 -19 -13q-5 0 -11 2q-13 8 -13 21q0 3 2 9l87 188l13 33q-56 38 -56 90q0 32 19.5 51.5t46.5 19.5q29 0 46 -19.5t17 -52.5q0 -13 -17 -69q25 -12 98 -38q25 -7 41 -12q9 -4 12.5 -13t0.5 -19q-7 -17 -23 -64.5t-31 -93.5t-18 -59q-8 -27 -10 -59q0 -46 32 -46 q39 0 73.5 46t82.5 154q7 14 20 14q4 0 10 -2zM130 519q0 25 -18 25q-20 0 -20 -20q0 -29 26 -50q12 33 12 45z" />
<glyph unicode="&#x156;" horiz-adv-x="783" d="M820 575q-3 -86 -62 -151t-152 -90q72 -52 72 -193q0 -39 -9 -128.5t-9 -97.5q1 -26 5.5 -43.5t13.5 -29.5t22.5 -17t31.5 -5q5 0 8.5 -1t6.5 -3t5.5 -4.5t3.5 -6t1 -7.5q0 -10 -7 -17.5t-18 -7.5q-58 0 -88 38t-30 104q0 21 9 102.5t9 122.5q0 38 -6 67t-20 55 t-41.5 40.5t-67.5 15.5q-6 0 -11 2t-8.5 5t-5 7t-1.5 8q0 10 7 16.5t19 6.5q74 3 135.5 29t100 74t40.5 109q3 83 -56 130.5t-152 46.5q-95 -2 -163.5 -50t-102 -127.5t-33.5 -182.5q0 -10 -6.5 -16.5t-16.5 -6.5q-9 0 -16 7t-7 16q0 116 40.5 207.5t119.5 145t185 53.5 q115 0 186.5 -62.5t67.5 -160.5zM572 669q-7 -7 -14.5 -15.5t-14.5 -21.5t-12.5 -23.5t-13 -29.5t-11.5 -30t-11.5 -34t-10.5 -32.5t-10.5 -35t-10.5 -32.5q0 -1 -1 -4q-20 -65 -31.5 -99t-33.5 -92t-43 -89.5t-50.5 -66.5t-66 -50.5t-79.5 -15.5q-68 0 -113 40.5t-45 106.5 q0 70 47 124t109 54q47 0 47 -26q0 -8 -3.5 -13.5t-10 -8.5t-14.5 -1q-11 2 -18 2q-44 0 -78 -41t-34 -90q0 -47 32.5 -74.5t79.5 -27.5q23 0 45 8t40 19t35.5 32.5t30 39.5t27 48.5t23.5 51.5t21 57t18 55t18 56q3 12 5 18q17 56 21.5 70.5t19 58.5t24 62.5t25 44 t32.5 40.5q32 28 58 28q11 0 18 -5.5t7 -13.5q0 -22 -19 -26q-17 -3 -34 -18zM441 -81q-3 -11 -6 -15l-39 -62q-8 -14 -21 -7q-7 2 -8.5 8.5t2.5 12.5l19 34q-24 10 -22 37q2 15 13.5 25t26.5 8q16 -2 26 -14t9 -27z" />
<glyph unicode="&#x157;" horiz-adv-x="397" d="M446 257q14 -7 14 -20q0 -4 -2 -10q-36 -82 -66.5 -131t-62.5 -72.5t-69 -23.5h-1q-37 0 -56.5 25t-19.5 66q0 31 10 70q6 25 32 104t34 98q-91 30 -118 43q-2 -8 -98 -217q-6 -13 -19 -13q-5 0 -11 2q-13 8 -13 21q0 3 2 9l87 188l13 33q-56 38 -56 90q0 32 19.5 51.5 t46.5 19.5q29 0 46 -19.5t17 -52.5q0 -13 -17 -69q25 -12 98 -38q25 -7 41 -12q9 -4 12.5 -13t0.5 -19q-7 -17 -23 -64.5t-31 -93.5t-18 -59q-8 -27 -10 -59q0 -46 32 -46q39 0 73.5 46t82.5 154q7 14 20 14q4 0 10 -2zM130 519q0 25 -18 25q-20 0 -20 -20q0 -29 26 -50 q12 33 12 45zM230 -80q-2 -11 -5 -15l-39 -62q-8 -14 -22 -7q-6 2 -7.5 8.5t2.5 12.5l18 34q-23 10 -21 37q1 15 12.5 25t26.5 8q11 -1 19 -7t12.5 -15t3.5 -19z" />
<glyph unicode="&#x158;" horiz-adv-x="783" d="M599 977q-7 17 9 27q6 5 15 2t13 -11l35 -73l108 80q15 13 28 -2q11 -17 -3 -30l-125 -100q-11 -9 -23 -6.5t-16 12.5zM820 575q-3 -86 -62 -151t-152 -90q72 -52 72 -193q0 -39 -9 -128.5t-9 -97.5q1 -26 5.5 -43.5t13.5 -29.5t22.5 -17t31.5 -5q5 0 8.5 -1t6.5 -3 t5.5 -4.5t3.5 -6t1 -7.5q0 -10 -7 -17.5t-18 -7.5q-58 0 -88 38t-30 104q0 21 9 102.5t9 122.5q0 38 -6 67t-20 55t-41.5 40.5t-67.5 15.5q-6 0 -11 2t-8.5 5t-5 7t-1.5 8q0 10 7 16.5t19 6.5q74 3 135.5 29t100 74t40.5 109q3 83 -56 130.5t-152 46.5q-95 -2 -163.5 -50 t-102 -127.5t-33.5 -182.5q0 -10 -6.5 -16.5t-16.5 -6.5q-9 0 -16 7t-7 16q0 116 40.5 207.5t119.5 145t185 53.5q115 0 186.5 -62.5t67.5 -160.5zM572 669q-7 -7 -14.5 -15.5t-14.5 -21.5t-12.5 -23.5t-13 -29.5t-11.5 -30t-11.5 -34t-10.5 -32.5t-10.5 -35t-10.5 -32.5 q0 -1 -1 -4q-20 -65 -31.5 -99t-33.5 -92t-43 -89.5t-50.5 -66.5t-66 -50.5t-79.5 -15.5q-68 0 -113 40.5t-45 106.5q0 70 47 124t109 54q47 0 47 -26q0 -8 -3.5 -13.5t-10 -8.5t-14.5 -1q-11 2 -18 2q-44 0 -78 -41t-34 -90q0 -47 32.5 -74.5t79.5 -27.5q23 0 45 8t40 19 t35.5 32.5t30 39.5t27 48.5t23.5 51.5t21 57t18 55t18 56q3 12 5 18q17 56 21.5 70.5t19 58.5t24 62.5t25 44t32.5 40.5q32 28 58 28q11 0 18 -5.5t7 -13.5q0 -22 -19 -26q-17 -3 -34 -18z" />
<glyph unicode="&#x159;" horiz-adv-x="397" d="M240 624q-8 17 8 27q7 4 15.5 1.5t12.5 -10.5l35 -73l108 80q16 13 28 -2q12 -17 -3 -30l-124 -100q-12 -9 -24 -6.5t-15 12.5zM446 257q14 -7 14 -20q0 -4 -2 -10q-36 -82 -66.5 -131t-62.5 -72.5t-69 -23.5h-1q-37 0 -56.5 25t-19.5 66q0 31 10 70q6 25 32 104t34 98 q-91 30 -118 43q-2 -8 -98 -217q-6 -13 -19 -13q-5 0 -11 2q-13 8 -13 21q0 3 2 9l87 188l13 33q-56 38 -56 90q0 32 19.5 51.5t46.5 19.5q29 0 46 -19.5t17 -52.5q0 -13 -17 -69q25 -12 98 -38q25 -7 41 -12q9 -4 12.5 -13t0.5 -19q-7 -17 -23 -64.5t-31 -93.5t-18 -59 q-8 -27 -10 -59q0 -46 32 -46q39 0 73.5 46t82.5 154q7 14 20 14q4 0 10 -2zM130 519q0 25 -18 25q-20 0 -20 -20q0 -29 26 -50q12 33 12 45z" />
<glyph unicode="&#x15a;" horiz-adv-x="596" d="M460 917l146 100q8 6 17.5 3.5t14.5 -10.5t3 -18t-10 -16l-149 -98q-19 -10 -31 8q-7 19 9 31zM549 728q-3 -48 -37 -85.5t-93 -56.5q12 -43 49 -123q22 -48 33.5 -76.5t23 -73t11.5 -83.5q0 -83 -38.5 -148t-104.5 -100.5t-147 -35.5q-107 0 -176.5 66.5t-69.5 165.5 q0 96 65 166t153 70q66 0 108.5 -46t42.5 -110q0 -11 -2 -19q-4 -17 -20 -17q-11 0 -18 7.5t-6 17.5q5 48 -25.5 84.5t-79.5 36.5q-71 0 -122 -57.5t-51 -135.5q0 -80 58.5 -132t145.5 -52q106 0 173.5 68.5t67.5 170.5q0 27 -4.5 54t-16 57.5t-19.5 49.5t-23 54 q-39 86 -52 133q-33 -2 -53 -2q-217 0 -309 189q-2 6 -2 10q0 11 7.5 16.5t14.5 5.5q15 0 21 -13q78 -163 266 -163q18 0 46 2q-2 20 -2 28q0 61 32.5 109t85.5 48q33 0 50.5 -23t16.5 -57zM503 728q0 34 -26 34q-21 0 -36.5 -17.5t-23 -42t-7.5 -50.5q0 -14 1 -20 q92 34 92 96z" />
<glyph unicode="&#x15b;" horiz-adv-x="415" d="M257 700l146 100q8 6 17.5 3.5t14.5 -10.5t3 -18t-10 -16l-149 -98q-19 -10 -31 8q-7 19 9 31zM356 191q-1 -86 -57.5 -138.5t-139.5 -52.5q-68 0 -115.5 46t-47.5 112q3 48 21.5 84.5t50.5 56.5t75 20q41 0 71.5 -32.5t31.5 -76.5q0 -10 -6.5 -16.5t-16 -6.5t-16 6.5 t-6.5 16.5q-2 27 -19 45t-38 18q-44 0 -72 -32.5t-31 -82.5q0 -49 35 -81t83 -32q66 0 108 40.5t44 106.5q0 24 -7.5 47.5t-21.5 49.5t-45 83q-12 -12 -22 -25q-7 -9 -17 -9q-11 0 -17 5q-7 6 -7 19q0 7 5 14q20 23 37 40q-16 38 -16 71q0 43 23 73.5t56 30.5q22 0 36 -16 t15 -40q0 -61 -60 -129q9 -16 29.5 -53t26 -48t15.5 -34.5t12.5 -40.5t2.5 -39zM251 454q33 46 33 81q-1 10 -7.5 9.5t-15.5 -8.5q-16 -17 -16 -48q0 -15 6 -34z" />
<glyph unicode="&#x15e;" horiz-adv-x="596" d="M549 728q-3 -48 -37 -85.5t-93 -56.5q12 -43 49 -123q22 -48 33.5 -76.5t23 -73t11.5 -83.5q0 -83 -38.5 -148t-104.5 -100.5t-147 -35.5h-1l-25 -55q38 3 57 -17t15 -57q-12 -84 -113 -84q-39 0 -70 24q-11 9 -8.5 21.5t13 16.5t22.5 -2q20 -14 50 -14q55 0 60 38 q3 23 -8 31.5t-38 3.5q-14 -3 -22.5 4t-4.5 17l34 75q-92 12 -149.5 76t-57.5 154q0 96 65 166t153 70q66 0 108.5 -46t42.5 -110q0 -11 -2 -19q-4 -17 -20 -17q-11 0 -18 7.5t-6 17.5q5 48 -25.5 84.5t-79.5 36.5q-71 0 -122 -57.5t-51 -135.5q0 -80 58.5 -132t145.5 -52 q106 0 173.5 68.5t67.5 170.5q0 27 -4.5 54t-16 57.5t-19.5 49.5t-23 54q-39 86 -52 133q-33 -2 -53 -2q-217 0 -309 189q-2 6 -2 10q0 11 7.5 16.5t14.5 5.5q15 0 21 -13q78 -163 266 -163q18 0 46 2q-2 20 -2 28q0 61 32.5 109t85.5 48q33 0 50.5 -23t16.5 -57zM411 632 q92 34 92 96q0 34 -26 34q-21 0 -36.5 -17.5t-23 -42t-7.5 -50.5q0 -14 1 -20z" />
<glyph unicode="&#x15f;" horiz-adv-x="415" d="M356 191q-1 -86 -57.5 -138.5t-139.5 -52.5l-22 -49q37 4 56.5 -16.5t14.5 -56.5q-11 -84 -112 -84q-40 0 -70 23q-11 9 -8.5 21.5t13 17t22.5 -2.5q20 -14 50 -14q55 0 60 39q2 15 -2 24t-15.5 11.5t-28.5 -0.5q-14 -4 -22.5 3t-4.5 17l32 71q-55 13 -90.5 55.5 t-35.5 98.5q3 48 21.5 84.5t50.5 56.5t75 20q41 0 71.5 -32.5t31.5 -76.5q0 -10 -6.5 -16.5t-16 -6.5t-16 6.5t-6.5 16.5q-2 27 -19 45t-38 18q-44 0 -72 -32.5t-31 -82.5q0 -49 35 -81t83 -32q66 0 108 40.5t44 106.5q0 24 -7.5 47.5t-21.5 49.5t-45 83q-12 -12 -22 -25 q-7 -9 -17 -9q-11 0 -17 5q-7 6 -7 19q0 7 5 14q20 23 37 40q-16 38 -16 71q0 43 23 73.5t56 30.5q22 0 36 -16t15 -40q0 -61 -60 -129q9 -16 29.5 -53t26 -48t15.5 -34.5t12.5 -40.5t2.5 -39zM245 488q0 -15 6 -34q33 46 33 81q-1 10 -7.5 9.5t-15.5 -8.5q-16 -17 -16 -48z " />
<glyph unicode="&#x160;" horiz-adv-x="596" d="M437 986q-7 17 9 27q6 4 15 1t13 -11l35 -72l108 80q15 12 28 -2q11 -17 -3 -31l-125 -99q-11 -9 -23 -6.5t-16 12.5zM549 728q-3 -48 -37 -85.5t-93 -56.5q12 -43 49 -123q22 -48 33.5 -76.5t23 -73t11.5 -83.5q0 -83 -38.5 -148t-104.5 -100.5t-147 -35.5 q-107 0 -176.5 66.5t-69.5 165.5q0 96 65 166t153 70q66 0 108.5 -46t42.5 -110q0 -11 -2 -19q-4 -17 -20 -17q-11 0 -18 7.5t-6 17.5q5 48 -25.5 84.5t-79.5 36.5q-71 0 -122 -57.5t-51 -135.5q0 -80 58.5 -132t145.5 -52q106 0 173.5 68.5t67.5 170.5q0 27 -4.5 54 t-16 57.5t-19.5 49.5t-23 54q-39 86 -52 133q-33 -2 -53 -2q-217 0 -309 189q-2 6 -2 10q0 11 7.5 16.5t14.5 5.5q15 0 21 -13q78 -163 266 -163q18 0 46 2q-2 20 -2 28q0 61 32.5 109t85.5 48q33 0 50.5 -23t16.5 -57zM503 728q0 34 -26 34q-21 0 -36.5 -17.5t-23 -42 t-7.5 -50.5q0 -14 1 -20q92 34 92 96z" />
<glyph unicode="&#x161;" horiz-adv-x="415" d="M234 769q-7 17 9 27q6 4 15 1t13 -11l35 -72l108 80q15 12 28 -2q11 -18 -4 -31l-124 -99q-11 -9 -23 -6.5t-16 11.5zM356 191q-1 -86 -57.5 -138.5t-139.5 -52.5q-68 0 -115.5 46t-47.5 112q3 48 21.5 84.5t50.5 56.5t75 20q41 0 71.5 -32.5t31.5 -76.5 q0 -10 -6.5 -16.5t-16 -6.5t-16 6.5t-6.5 16.5q-2 27 -19 45t-38 18q-44 0 -72 -32.5t-31 -82.5q0 -49 35 -81t83 -32q66 0 108 40.5t44 106.5q0 24 -7.5 47.5t-21.5 49.5t-45 83q-12 -12 -22 -25q-7 -9 -17 -9q-11 0 -17 5q-7 6 -7 19q0 7 5 14q20 23 37 40q-16 38 -16 71 q0 43 23 73.5t56 30.5q22 0 36 -16t15 -40q0 -61 -60 -129q9 -16 29.5 -53t26 -48t15.5 -34.5t12.5 -40.5t2.5 -39zM251 454q33 46 33 81q-1 10 -7.5 9.5t-15.5 -8.5q-16 -17 -16 -48q0 -15 6 -34z" />
<glyph unicode="&#x162;" horiz-adv-x="668" d="M984 759q-3 -65 -129 -65q-74 0 -188 22q-17 -18 -33 -42q-41 -70 -106 -275q-28 -93 -45.5 -146t-42 -114t-47 -93t-53.5 -61.5t-68.5 -40.5t-84.5 -10q-82 0 -134.5 55t-52.5 140q0 93 71 160.5t162 67.5q7 0 12 -2.5t8 -8t3 -11.5q0 -10 -6.5 -16.5t-16.5 -6.5 q-72 0 -130 -55.5t-58 -127.5q0 -68 40.5 -109t101.5 -41q39 0 70.5 11t57.5 38t44 51.5t37.5 73.5t30 79.5t30.5 93.5q18 57 28 87q62 202 110 284q2 3 4.5 7t5 7t5.5 7.5l5 7.5q-28 6 -101.5 27t-138.5 34.5t-119 13.5q-84 0 -130.5 -38.5t-46.5 -106.5q1 -56 34.5 -84.5 t90.5 -28.5q48 0 98 23q7 2 11 2q10 0 16 -7.5t6 -15.5q0 -14 -13 -20q-59 -27 -119 -27q-30 0 -56 7t-47 20.5t-36 32t-23 43.5t-8 55q0 90 59.5 141t165.5 51q51 0 120.5 -15.5t150 -37.5t124.5 -30q20 16 45 29.5t51 22t52.5 13t51.5 4.5q52 0 91.5 -20t39.5 -55z M855 740q82 0 82 20q0 6 -8.5 11.5t-22 9t-28 5.5t-26.5 2q-21 0 -45 -4t-47.5 -12t-41.5 -18q84 -14 137 -14zM186 -166q-2 -11 -6 -15l-39 -62q-8 -14 -21 -8q-7 3 -8.5 9.5t2.5 12.5l19 34q-24 10 -22 36q2 16 13.5 25.5t26.5 8.5q10 -1 18.5 -7t13 -15t3.5 -19z" />
<glyph unicode="&#x163;" horiz-adv-x="224" d="M274 257q13 -7 13 -20q0 -4 -2 -10q-53 -114 -103 -170.5t-119 -56.5q-38 0 -59 25.5t-21 65.5q0 29 17.5 91.5t43.5 130.5l55 155h-68q-9 0 -15.5 6.5t-6.5 15.5t6.5 16t15.5 7h83q2 3 29 80t28 81q5 15 21 15q12 0 19 -10t3 -20q1 3 -10 -29.5t-24 -69t-17 -47.5h72 q10 0 16.5 -7t6.5 -16t-6.5 -15.5t-16.5 -6.5h-88q-1 -2 -61 -171q-58 -165 -58 -206q0 -46 35 -46q28 0 53 15t47.5 45t40.5 62t39 79q7 13 22 13q3 0 9 -2zM55 -86q-2 -11 -5 -16l-39 -61q-8 -14 -22 -8q-6 3 -7.5 9t2.5 13l18 33q-23 10 -21 37q1 16 12.5 25.5t27.5 8.5 q15 -2 25.5 -14t8.5 -27z" />
<glyph unicode="&#x164;" horiz-adv-x="668" d="M612 1001q-7 17 9 27q6 4 15 1t13 -11l35 -72l108 80q15 12 28 -2q11 -17 -4 -30l-124 -100q-11 -9 -23 -6.5t-16 12.5zM984 759q-3 -65 -129 -65q-74 0 -188 22q-17 -18 -33 -42q-41 -70 -106 -275q-28 -93 -45.5 -146t-42 -114t-47 -93t-53.5 -61.5t-68.5 -40.5 t-84.5 -10q-82 0 -134.5 55t-52.5 140q0 93 71 160.5t162 67.5q7 0 12 -2.5t8 -8t3 -11.5q0 -10 -6.5 -16.5t-16.5 -6.5q-72 0 -130 -55.5t-58 -127.5q0 -68 40.5 -109t101.5 -41q39 0 70.5 11t57.5 38t44 51.5t37.5 73.5t30 79.5t30.5 93.5q18 57 28 87q62 202 110 284 q2 3 4.5 7t5 7t5.5 7.5l5 7.5q-28 6 -101.5 27t-138.5 34.5t-119 13.5q-84 0 -130.5 -38.5t-46.5 -106.5q1 -56 34.5 -84.5t90.5 -28.5q48 0 98 23q7 2 11 2q10 0 16 -7.5t6 -15.5q0 -14 -13 -20q-59 -27 -119 -27q-30 0 -56 7t-47 20.5t-36 32t-23 43.5t-8 55 q0 90 59.5 141t165.5 51q51 0 120.5 -15.5t150 -37.5t124.5 -30q20 16 45 29.5t51 22t52.5 13t51.5 4.5q52 0 91.5 -20t39.5 -55zM855 740q82 0 82 20q0 6 -8.5 11.5t-22 9t-28 5.5t-26.5 2q-21 0 -45 -4t-47.5 -12t-41.5 -18q84 -14 137 -14z" />
<glyph unicode="&#x165;" horiz-adv-x="224" d="M338 650q-2 -11 -5 -15l-39 -62q-8 -14 -22 -7q-6 2 -7.5 8.5t2.5 13.5l18 33q-23 10 -21 37q1 15 12.5 25t26.5 8q16 -1 26.5 -13.5t8.5 -27.5zM274 257q13 -7 13 -20q0 -4 -2 -10q-53 -114 -103 -170.5t-119 -56.5q-38 0 -59 25.5t-21 65.5q0 29 17.5 91.5t43.5 130.5 l55 155h-68q-9 0 -15.5 6.5t-6.5 15.5t6.5 16t15.5 7h83q2 3 29 80t28 81q5 15 21 15q12 0 19 -10t3 -20q1 3 -10 -29.5t-24 -69t-17 -47.5h72q10 0 16.5 -7t6.5 -16t-6.5 -15.5t-16.5 -6.5h-88q-1 -2 -61 -171q-58 -165 -58 -206q0 -46 35 -46q28 0 53 15t47.5 45t40.5 62 t39 79q7 13 22 13q3 0 9 -2z" />
<glyph unicode="&#x166;" horiz-adv-x="668" d="M853 834q52 0 91.5 -20t39.5 -55q-3 -65 -129 -65q-74 0 -188 22q-17 -18 -33 -42q-42 -71 -100 -259h65q11 0 17 -6.5t7 -16.5q0 -9 -6 -16t-17 -7h-81q-21 -71 -36.5 -117.5t-35.5 -97t-38 -81.5t-41.5 -61t-49.5 -45.5t-59 -24.5t-72 -8q-82 0 -134.5 55t-52.5 140 q0 93 71 160.5t162 67.5q7 0 12 -2.5t8 -8t3 -11.5q0 -10 -6.5 -16.5t-16.5 -6.5q-72 0 -130 -55.5t-58 -127.5q0 -68 40.5 -109t101.5 -41q39 0 70.5 11t57.5 38t44 51.5t37.5 73.5t30 80t30.5 94q9 28 14 42h-70q-7 0 -12.5 3.5t-8 8.5t-2.5 11q1 10 7 16.5t17 6.5h84 q63 204 109 282q2 3 4.5 7t5 7t5.5 7.5l5 7.5q-28 6 -101.5 27t-138.5 34.5t-119 13.5q-84 0 -130.5 -38.5t-46.5 -106.5q1 -56 34.5 -84.5t90.5 -28.5q48 0 98 23q7 2 11 2q10 0 16 -7.5t6 -15.5q0 -14 -13 -20q-59 -27 -119 -27q-30 0 -56 7t-47 20.5t-36 32t-23 43.5 t-8 55q0 90 59.5 141t165.5 51q51 0 120.5 -15.5t150 -37.5t124.5 -30q20 16 45 29.5t51 22t52.5 13t51.5 4.5zM855 740q82 0 82 20q0 6 -8.5 11.5t-22 9t-28 5.5t-26.5 2q-21 0 -45 -4t-47.5 -12t-41.5 -18q84 -14 137 -14z" />
<glyph unicode="&#x167;" horiz-adv-x="224" d="M274 257q13 -7 13 -20q0 -4 -2 -10q-53 -114 -103 -170.5t-119 -56.5q-38 0 -59 25.5t-21 65.5q0 29 17.5 91.5t43.5 130.5l1 1l8 24h-58q-7 0 -12.5 3t-8 8.5t-2.5 11.5q1 10 7 16t17 6h73q6 17 13.5 38t12 33t4.5 14h-68q-9 0 -15.5 6.5t-6.5 15.5t6.5 16t15.5 7h83 q2 3 29 80t28 81q5 15 21 15q12 0 19 -10t3 -20q1 3 -10 -29.5t-24 -69t-17 -47.5h72q10 0 16.5 -7t6.5 -16t-6.5 -15.5t-16.5 -6.5h-88l-29 -85h86q10 0 16.5 -6t7.5 -16q0 -10 -6.5 -16.5t-16.5 -6.5h-103q-4 -8 -16 -41q-58 -165 -58 -206q0 -46 35 -46q28 0 53 15 t47.5 45t40.5 62t39 79q7 13 22 13q3 0 9 -2z" />
<glyph unicode="&#x16a;" horiz-adv-x="838" d="M842 945q11 0 17 -6.5t7 -16.5q0 -9 -6 -15.5t-17 -6.5h-210q-7 0 -12 3t-8 8t-3 11q1 10 7.5 16.5t16.5 6.5h208zM451 710q13 33 30.5 61.5t43 48.5t51.5 20q28 0 45.5 -16t17.5 -42q0 -36 -45 -65.5t-109 -46.5q-46 -114 -103.5 -311.5t-57.5 -245.5q0 -97 73 -97h2 q24 0 46.5 7.5t42.5 20.5t39.5 35t36 45.5t35 58t33.5 66t33 76.5t32.5 83.5t33.5 91.5q10 28 25 68t27 72.5t27 74t28 76.5q5 15 22 15q10 0 15.5 -6.5t5.5 -15.5q0 -5 -1 -9l-106 -290l-58 -163q-49 -146 -49 -220q0 -57 30 -57q18 0 36.5 11t32 25.5t29 40t24 43 t21.5 45.5q4 6 9 17.5t7 16.5q7 13 21 13q11 0 17 -7.5t6 -15.5q0 -4 -3 -10q-9 -21 -16 -34q-15 -33 -25 -52t-29 -49t-36.5 -46.5t-42 -29.5t-51.5 -13q-75 0 -75 102q0 21 1 33q-32 -52 -63 -86.5t-73 -56.5t-88 -22h-3q-58 1 -87.5 39.5t-29.5 103.5q0 50 46.5 213.5 t106.5 333.5q-24 -5 -66 -11q-2 0 -7 -1q-40 -6 -61 -10t-59.5 -12.5t-60.5 -16.5t-51 -21.5t-44 -29t-26.5 -38t-11.5 -48.5q-1 -42 24 -69.5t62 -27.5q9 0 15.5 -7t6.5 -17q0 -9 -7.5 -15.5t-15.5 -6.5q-56 0 -93 41.5t-37 101.5q0 27 7.5 50t19.5 41t32 34t39 27 t47.5 21.5t50.5 16.5t55 12.5t53.5 10t54.5 8.5zM507 724q32 7 58 25.5t26 32.5q0 6 -4.5 10.5t-10.5 4.5q-12 0 -25 -11t-24 -27t-20 -35z" />
<glyph unicode="&#x16b;" horiz-adv-x="433" d="M375 635q5 0 9.5 -1.5t7.5 -4.5t4.5 -7.5t2.5 -9.5q0 -9 -6.5 -15.5t-16.5 -6.5h-211q-10 0 -16 6.5t-6 15.5q0 10 6.5 16.5t16.5 6.5h209zM483 257q13 -7 13 -20q0 -4 -2 -10q-36 -82 -67 -131t-62.5 -72.5t-67.5 -23.5q-67 0 -78 77q-24 -34 -59 -55.5t-70 -21.5h-1 q-51 0 -77.5 28.5t-26.5 83.5q0 38 21 99.5t108 287.5q6 14 21 14q13 0 19.5 -9.5t2.5 -20.5q-20 -51 -50 -131q-39 -104 -52 -139.5t-19 -58.5t-6 -42q0 -67 60 -67q70 0 124 111q8 15 16 33t17.5 41.5t17 42.5t19.5 51t19 52t22 60.5t23 62.5q5 14 20 14q13 0 20 -10 t3 -20q-13 -36 -33.5 -92t-27.5 -72q-65 -179 -65 -228q0 -46 32 -46q38 0 73 46.5t83 153.5q5 14 20 14q3 0 10 -2z" />
<glyph unicode="&#x16e;" horiz-adv-x="838" d="M744 886q-43 0 -69.5 30.5t-20.5 73.5q4 20 13.5 36.5t23.5 28.5t32 19t37 7q43 0 69.5 -31t20.5 -73q-7 -39 -37 -65t-69 -26zM744 931q22 0 39.5 15.5t21 37.5t-9.5 37t-34.5 15t-39.5 -15.5t-21 -36.5q-3 -23 9.5 -38t34.5 -15zM451 710q13 33 30.5 61.5t43 48.5 t51.5 20q28 0 45.5 -16t17.5 -42q0 -36 -45 -65.5t-109 -46.5q-46 -114 -103.5 -311.5t-57.5 -245.5q0 -97 73 -97h2q24 0 46.5 7.5t42.5 20.5t39.5 35t36 45.5t35 58t33.5 66t33 76.5t32.5 83.5t33.5 91.5q10 28 25 68t27 72.5t27 74t28 76.5q5 15 22 15q10 0 15.5 -6.5 t5.5 -15.5q0 -5 -1 -9l-106 -290l-58 -163q-49 -146 -49 -220q0 -57 30 -57q18 0 36.5 11t32 25.5t29 40t24 43t21.5 45.5q4 6 9 17.5t7 16.5q7 13 21 13q11 0 17 -7.5t6 -15.5q0 -4 -3 -10q-9 -21 -16 -34q-15 -33 -25 -52t-29 -49t-36.5 -46.5t-42 -29.5t-51.5 -13 q-75 0 -75 102q0 21 1 33q-32 -52 -63 -86.5t-73 -56.5t-88 -22h-3q-58 1 -87.5 39.5t-29.5 103.5q0 50 46.5 213.5t106.5 333.5q-24 -5 -66 -11q-2 0 -7 -1q-40 -6 -61 -10t-59.5 -12.5t-60.5 -16.5t-51 -21.5t-44 -29t-26.5 -38t-11.5 -48.5q-1 -42 24 -69.5t62 -27.5 q9 0 15.5 -7t6.5 -17q0 -9 -7.5 -15.5t-15.5 -6.5q-56 0 -93 41.5t-37 101.5q0 27 7.5 50t19.5 41t32 34t39 27t47.5 21.5t50.5 16.5t55 12.5t53.5 10t54.5 8.5zM507 724q32 7 58 25.5t26 32.5q0 6 -4.5 10.5t-10.5 4.5q-12 0 -25 -11t-24 -27t-20 -35z" />
<glyph unicode="&#x16f;" horiz-adv-x="433" d="M276 576q-43 0 -69.5 31t-19.5 73q6 39 36.5 65t69.5 26q27 0 49.5 -14t33.5 -38t6 -52q-6 -39 -36.5 -65t-69.5 -26zM276 621q15 0 28 7t22 19.5t11 26.5q3 22 -9.5 37t-34.5 15t-40 -15.5t-21 -36.5q-3 -23 9.5 -38t34.5 -15zM483 257q13 -7 13 -20q0 -4 -2 -10 q-36 -82 -67 -131t-62.5 -72.5t-67.5 -23.5q-67 0 -78 77q-24 -34 -59 -55.5t-70 -21.5h-1q-51 0 -77.5 28.5t-26.5 83.5q0 38 21 99.5t108 287.5q6 14 21 14q13 0 19.5 -9.5t2.5 -20.5q-20 -51 -50 -131q-39 -104 -52 -139.5t-19 -58.5t-6 -42q0 -67 60 -67q70 0 124 111 q8 15 16 33t17.5 41.5t17 42.5t19.5 51t19 52t22 60.5t23 62.5q5 14 20 14q13 0 20 -10t3 -20q-13 -36 -33.5 -92t-27.5 -72q-65 -179 -65 -228q0 -46 32 -46q38 0 73 46.5t83 153.5q5 14 20 14q3 0 10 -2z" />
<glyph unicode="&#x170;" horiz-adv-x="838" d="M661 922l106 101q16 15 33 -2q14 -20 -3 -35l-111 -96q-15 -13 -28 2q-12 17 3 30zM780 922l106 101q16 15 33 -2q14 -20 -3 -35l-111 -96q-15 -13 -28 2q-12 17 3 30zM451 710q13 33 30.5 61.5t43 48.5t51.5 20q28 0 45.5 -16t17.5 -42q0 -36 -45 -65.5t-109 -46.5 q-46 -114 -103.5 -311.5t-57.5 -245.5q0 -97 73 -97h2q24 0 46.5 7.5t42.5 20.5t39.5 35t36 45.5t35 58t33.5 66t33 76.5t32.5 83.5t33.5 91.5q10 28 25 68t27 72.5t27 74t28 76.5q5 15 22 15q10 0 15.5 -6.5t5.5 -15.5q0 -5 -1 -9l-106 -290l-58 -163q-49 -146 -49 -220 q0 -57 30 -57q18 0 36.5 11t32 25.5t29 40t24 43t21.5 45.5q4 6 9 17.5t7 16.5q7 13 21 13q11 0 17 -7.5t6 -15.5q0 -4 -3 -10q-9 -21 -16 -34q-15 -33 -25 -52t-29 -49t-36.5 -46.5t-42 -29.5t-51.5 -13q-75 0 -75 102q0 21 1 33q-32 -52 -63 -86.5t-73 -56.5t-88 -22h-3 q-58 1 -87.5 39.5t-29.5 103.5q0 50 46.5 213.5t106.5 333.5q-24 -5 -66 -11q-2 0 -7 -1q-40 -6 -61 -10t-59.5 -12.5t-60.5 -16.5t-51 -21.5t-44 -29t-26.5 -38t-11.5 -48.5q-1 -42 24 -69.5t62 -27.5q9 0 15.5 -7t6.5 -17q0 -9 -7.5 -15.5t-15.5 -6.5q-56 0 -93 41.5 t-37 101.5q0 27 7.5 50t19.5 41t32 34t39 27t47.5 21.5t50.5 16.5t55 12.5t53.5 10t54.5 8.5zM507 724q32 7 58 25.5t26 32.5q0 6 -4.5 10.5t-10.5 4.5q-12 0 -25 -11t-24 -27t-20 -35z" />
<glyph unicode="&#x171;" horiz-adv-x="433" d="M193 612l106 101q17 15 34 -2q13 -20 -4 -35l-111 -96q-15 -13 -28 2q-11 17 3 30zM312 612l106 101q16 15 33 -2q14 -20 -3 -35l-111 -96q-15 -13 -28 2q-12 17 3 30zM483 257q13 -7 13 -20q0 -4 -2 -10q-36 -82 -67 -131t-62.5 -72.5t-67.5 -23.5q-67 0 -78 77 q-24 -34 -59 -55.5t-70 -21.5h-1q-51 0 -77.5 28.5t-26.5 83.5q0 38 21 99.5t108 287.5q6 14 21 14q13 0 19.5 -9.5t2.5 -20.5q-20 -51 -50 -131q-39 -104 -52 -139.5t-19 -58.5t-6 -42q0 -67 60 -67q70 0 124 111q8 15 16 33t17.5 41.5t17 42.5t19.5 51t19 52t22 60.5 t23 62.5q5 14 20 14q13 0 20 -10t3 -20q-13 -36 -33.5 -92t-27.5 -72q-65 -179 -65 -228q0 -46 32 -46q38 0 73 46.5t83 153.5q5 14 20 14q3 0 10 -2z" />
<glyph unicode="&#x172;" horiz-adv-x="838" d="M877 257q11 0 17 -7.5t6 -15.5q0 -4 -3 -10q-9 -21 -16 -34q-17 -37 -27.5 -56.5t-30 -49.5t-39.5 -47l-2 -2q-79 -68 -106 -100t-27 -59q0 -17 10.5 -27.5t28.5 -10.5q33 0 65 17q13 6 22.5 0.5t9 -18t-13.5 -20.5q-44 -24 -80 -24q-26 0 -46 9.5t-30.5 27t-10.5 40.5 q0 57 80 131q-62 7 -62 101q0 21 1 33q-32 -52 -63 -86.5t-73 -56.5t-88 -22h-3q-58 1 -87.5 39.5t-29.5 103.5q0 50 46.5 213.5t106.5 333.5q-24 -5 -66 -11q-2 0 -7 -1q-40 -6 -61 -10t-59.5 -12.5t-60.5 -16.5t-51 -21.5t-44 -29t-26.5 -38t-11.5 -48.5q-1 -42 24 -69.5 t62 -27.5q9 0 15.5 -7t6.5 -17q0 -9 -7.5 -15.5t-15.5 -6.5q-56 0 -93 41.5t-37 101.5q0 27 7.5 50t19.5 41t32 34t39 27t47.5 21.5t50.5 16.5t55 12.5t53.5 10t54.5 8.5l92 17q13 33 30.5 61.5t43 48.5t51.5 20q28 0 45.5 -16t17.5 -42q0 -36 -45 -65.5t-109 -46.5 q-46 -114 -103.5 -311.5t-57.5 -245.5q0 -97 73 -97h2q24 0 46.5 7.5t42.5 20.5t39.5 35t36 45.5t35 58t33.5 66t33 76.5t32.5 83.5t33.5 91.5q10 28 25 68t27 72.5t27 74t28 76.5q5 15 22 15q10 0 15.5 -6.5t5.5 -15.5q0 -5 -1 -9l-106 -290l-58 -163q-49 -146 -49 -220 q0 -57 30 -57q18 0 36.5 11t32 25.5t29 40t24 43t21.5 45.5q4 6 9 17.5t7 16.5q7 13 21 13zM576 797q-12 0 -25 -11t-24 -27t-20 -35q32 7 58 25.5t26 32.5q0 6 -4.5 10.5t-10.5 4.5z" />
<glyph unicode="&#x173;" horiz-adv-x="433" d="M483 257q13 -7 13 -20q0 -4 -2 -10q-61 -139 -112 -188q-1 -2 -3 -4q-79 -68 -106 -100t-27 -59q0 -17 10.5 -27.5t28.5 -10.5q33 0 65 17q13 6 22.5 0.5t9 -18t-13.5 -20.5q-44 -24 -80 -24q-39 0 -63 21t-24 56q0 57 81 131q-54 9 -63 76q-24 -34 -59 -55.5t-70 -21.5 h-1q-51 0 -77.5 28.5t-26.5 83.5q0 38 21 99.5t108 287.5q6 14 21 14q13 0 19.5 -9.5t2.5 -20.5q-20 -51 -50 -131q-39 -104 -52 -139.5t-19 -58.5t-6 -42q0 -67 60 -67q70 0 124 111q8 15 16 33t17.5 41.5t17 42.5t19.5 51t19 52t22 60.5t23 62.5q5 14 20 14q13 0 20 -10 t3 -20q-13 -36 -33.5 -92t-27.5 -72q-65 -179 -65 -228q0 -46 32 -46q38 0 73 46.5t83 153.5q5 14 20 14q3 0 10 -2z" />
<glyph unicode="&#x174;" horiz-adv-x="1026" d="M964 883q5 -9 2 -16.5t-10 -10.5q-17 -5 -27 10l-54 81l-111 -79q-17 -11 -29 2q-12 19 4 31l126 98q12 8 23 6t16 -11zM450 707q21 54 54.5 93.5t71.5 39.5q28 0 45.5 -16t17.5 -42q0 -36 -45 -65.5t-109 -46.5q-47 -117 -105.5 -320t-58.5 -248q0 -96 74 -99 q81 0 186 226q24 50 92.5 240t77.5 228q4 17 22 17q12 0 19 -10t3 -20q-5 -14 -14 -42q-51 -154 -75.5 -229.5t-47 -167t-22.5 -138.5q0 -102 67 -102q28 0 52.5 15t47.5 48.5t40 65t38 88.5t33 93t33 104q1 3 3 8q15 48 23 72t23 67t24.5 66.5t25.5 58t29 54t30.5 42.5 t34.5 35t38 20t43 8q10 0 17 -6.5t7 -16t-6.5 -16t-15.5 -6.5q-16 0 -30.5 -5t-28 -17t-25 -24.5t-24.5 -35t-22.5 -39.5t-21.5 -48t-20 -51t-20.5 -56.5t-19 -57t-19.5 -60.5q-1 -4 -2 -6q0 -2 -1 -5q-20 -62 -30.5 -94.5t-31 -87.5t-35 -85t-37.5 -68.5t-44 -58t-49 -33.5 t-59 -14q-55 0 -83.5 41t-28.5 107q0 14 2 44q-101 -193 -198 -193q-120 3 -120 144q0 33 24 128.5t60.5 213t72.5 216.5q-24 -5 -66 -11q-3 0 -10 -2q-39 -6 -60.5 -9.5t-59.5 -12t-60 -16.5t-50 -21.5t-43.5 -29t-26.5 -38t-11 -48.5q0 -42 25 -69.5t61 -27.5q7 0 12 -3.5 t7.5 -8t2.5 -10.5t-2.5 -11.5t-8 -9t-12.5 -3.5q-57 0 -94.5 42t-35.5 103q0 34 12.5 62t30.5 48t50 37t58.5 27t69 20t68.5 14.5t70 10.5q12 2 30 4.5t33.5 5t27.5 4.5zM507 724q32 7 58 25.5t26 32.5q0 6 -4.5 10.5t-10.5 4.5q-12 0 -25 -11t-24 -27t-20 -35z" />
<glyph unicode="&#x175;" horiz-adv-x="568" d="M473 597q4 -9 1 -16.5t-10 -10.5q-16 -5 -27 10l-54 81l-111 -79q-16 -11 -28 2q-12 19 3 31l127 98q11 8 22 6t17 -12zM631 237q0 -3 -2 -9q-25 -68 -69.5 -113.5t-98.5 -45.5q-46 0 -75 29q-35 -48 -65.5 -73t-65.5 -25q-67 0 -78 77q-54 -77 -119 -77q-37 0 -57 25 t-20 66q0 39 28 127t101 281q5 14 21 14q8 0 14.5 -4.5t8 -11.5t-1.5 -14q-83 -229 -104.5 -295.5t-21.5 -96.5q0 -24 7.5 -35t24.5 -11q40 0 76.5 46.5t79.5 154.5q19 47 92 253q5 14 20 14q13 0 20 -10t3 -20q-63 -168 -95 -262t-32 -130q0 -46 33 -46q13 0 23.5 4.5 t23 17.5t24 28t31.5 44q-17 47 -1 103q6 17 22 17q12 0 19 -9t4 -20q-3 -7 -6 -26q91 172 150 297q8 13 22 13q9 0 15.5 -7t6.5 -16q0 -4 -3 -10q-121 -248 -176 -344q18 -23 51 -23q40 0 68.5 33t56.5 98q7 14 21 14q9 0 16.5 -6.5t7.5 -15.5z" />
<glyph unicode="&#x176;" horiz-adv-x="826" d="M842 883q5 -9 2 -16.5t-10 -10.5q-17 -5 -27 10l-54 81l-111 -79q-17 -11 -29 2q-12 19 4 31l126 98q12 8 23 6t16 -11zM451 708q21 54 54.5 93.5t71.5 39.5q28 0 45.5 -16t17.5 -42q0 -35 -45 -65t-109 -47q-31 -75 -64 -179.5t-54.5 -193.5t-21.5 -123q0 -97 74 -97 q86 0 160 103q9 13 16.5 24t13.5 20t13 22t11 20.5t12.5 26t12 27t14.5 35t16 39t19.5 49t22.5 56.5q10 28 25 68t27 72.5t27 74t28 76.5q5 15 22 15q10 0 15.5 -6.5t5.5 -15.5q0 -5 -1 -9l-106 -290q-1 -2 -24.5 -68t-52 -146t-56 -155.5t-33.5 -92.5l-17 -48q88 30 149 98 t105 171q7 14 20 14q3 0 10 -2q14 -7 14 -21q0 -3 -2 -9q-52 -123 -126 -197t-189 -108q-78 -224 -196 -226q-49 0 -78 28.5t-29 76.5q0 108 182 142q49 7 86 17q2 7 59 170q-78 -97 -176 -97q-58 0 -89.5 39t-31.5 104q1 51 41 195.5t93 289.5q-22 -4 -67 -11q-3 0 -10 -2 q-39 -6 -60.5 -9.5t-59.5 -12t-60 -16.5t-50 -21.5t-43.5 -29t-26.5 -38t-11 -48.5q0 -42 25 -69.5t61 -27.5q9 0 15.5 -6.5t6.5 -16.5t-6 -16.5t-17 -6.5q-57 0 -93.5 42t-36.5 103q0 27 7.5 50t19 41t32 33.5t39 26.5t48 21t50.5 16t55 13t54 10t54 8zM508 725 q32 7 58 25.5t26 32.5q0 6 -4.5 10.5t-10.5 4.5q-9 0 -18.5 -6t-18.5 -16.5t-17.5 -23.5t-14.5 -27zM519 -92q-45 -9 -59 -12q-50 -8 -81 -21t-47 -31t-18 -43q0 -18 8 -32t22 -21.5t32 -6.5q89 1 143 167z" />
<glyph unicode="&#x177;" horiz-adv-x="444" d="M388 595q4 -9 1 -16.5t-10 -10.5q-16 -5 -27 10l-54 81l-111 -79q-17 -12 -28 2q-12 18 3 30l126 99q12 8 23 6t16 -12zM494 256q14 -7 14 -21q0 -3 -3 -9q-52 -123 -125.5 -197t-188.5 -108q-78 -224 -196 -226q-49 0 -78 28.5t-29 76.5q0 108 182 142q49 7 86 17l27 78 q-39 -37 -83 -37q-62 0 -89.5 34t-27.5 82q0 8 1 16t3.5 19t4.5 19t6.5 22t7.5 22t10 26.5t10.5 27.5t12 32t13.5 35l60 164q6 14 21 14q9 0 15 -4.5t7.5 -11.5t-1.5 -14l-59 -164q-11 -32 -24.5 -67t-19.5 -51t-12 -34t-8 -29t-2 -22q0 -71 71 -71q41 0 88 70t82 169 q8 23 80 214q6 15 20 15q11 0 19 -10t4 -21q-48 -123 -81 -213l-86 -246l-16 -48q88 30 149 98t104 171q7 14 21 14q3 0 10 -2zM-5 -259q89 1 143 167q-45 -9 -59 -12q-50 -8 -81.5 -21t-47 -31t-17.5 -43q0 -28 17 -44.5t45 -15.5z" />
<glyph unicode="&#x178;" horiz-adv-x="826" d="M663 939q10 0 19 -5.5t14 -14t5 -18.5q0 -16 -11 -26.5t-26.5 -10.5t-26.5 10.5t-11 26t11 27t26 11.5zM782 939q15 0 26.5 -11.5t11.5 -27t-11.5 -26t-26.5 -10.5t-26 10.5t-11 26t11 27t26 11.5zM451 708q21 54 54.5 93.5t71.5 39.5q28 0 45.5 -16t17.5 -42 q0 -35 -45 -65t-109 -47q-31 -75 -64 -179.5t-54.5 -193.5t-21.5 -123q0 -97 74 -97q86 0 160 103q9 13 16.5 24t13.5 20t13 22t11 20.5t12.5 26t12 27t14.5 35t16 39t19.5 49t22.5 56.5q10 28 25 68t27 72.5t27 74t28 76.5q5 15 22 15q10 0 15.5 -6.5t5.5 -15.5q0 -5 -1 -9 l-106 -290q-1 -2 -24.5 -68t-52 -146t-56 -155.5t-33.5 -92.5l-17 -48q88 30 149 98t105 171q7 14 20 14q3 0 10 -2q14 -7 14 -21q0 -3 -2 -9q-52 -123 -126 -197t-189 -108q-78 -224 -196 -226q-49 0 -78 28.5t-29 76.5q0 108 182 142q49 7 86 17q2 7 59 170 q-78 -97 -176 -97q-58 0 -89.5 39t-31.5 104q1 51 41 195.5t93 289.5q-22 -4 -67 -11q-3 0 -10 -2q-39 -6 -60.5 -9.5t-59.5 -12t-60 -16.5t-50 -21.5t-43.5 -29t-26.5 -38t-11 -48.5q0 -42 25 -69.5t61 -27.5q9 0 15.5 -6.5t6.5 -16.5t-6 -16.5t-17 -6.5q-57 0 -93.5 42 t-36.5 103q0 27 7.5 50t19 41t32 33.5t39 26.5t48 21t50.5 16t55 13t54 10t54 8zM508 725q32 7 58 25.5t26 32.5q0 6 -4.5 10.5t-10.5 4.5q-9 0 -18.5 -6t-18.5 -16.5t-17.5 -23.5t-14.5 -27zM519 -92q-45 -9 -59 -12q-50 -8 -81 -21t-47 -31t-18 -43q0 -18 8 -32t22 -21.5 t32 -6.5q89 1 143 167z" />
<glyph unicode="&#x179;" horiz-adv-x="677" d="M637 908l146 101q8 5 17.5 2.5t14.5 -10.5q6 -8 4 -18t-11 -15l-149 -99q-19 -10 -30 8q-8 20 8 31zM946 774q0 -34 -28.5 -51t-72.5 -17q-32 0 -121 19q-91 -116 -317 -450q-78 -116 -109 -155q30 -27 91 -88l13 -13q35 -35 53.5 -52.5t51 -46t56 -42.5t53.5 -25.5 t57 -11.5t51 7t42.5 20.5t27.5 32.5q5 14 20 14q4 0 10 -2q13 -8 13 -22q0 -2 -2 -9q-19 -43 -65 -65t-98 -22q-24 0 -50 7.5t-45.5 15.5t-48.5 29t-43 31.5t-46 41t-40.5 38.5t-42.5 42q-45 45 -87 84q-40 -44 -77 -66.5t-80 -22.5q-55 0 -83.5 27t-28.5 76q0 52 35.5 85.5 t83.5 33.5q62 0 145 -68q25 33 105 152q89 131 310 436q-175 54 -264 54q-44 0 -79.5 -18.5t-55.5 -50t-20 -69.5q0 -47 32 -80q6 -6 6 -15t-7 -17q-7 -6 -16 -6t-17 7q-43 46 -43 115q0 77 59 128.5t143 51.5q61 0 114 -11.5t174 -47.5q16 15 34 27t37.5 21t40.5 14t41 5 q38 0 63 -18.5t25 -52.5zM900 777q0 22 -42 22q-51 0 -99 -35q46 -12 84 -12q57 0 57 25zM234 114q-72 58 -117 58q-29 0 -49.5 -20.5t-22.5 -53.5q0 -20 9.5 -33.5t24 -19t33.5 -5.5q56 0 122 74z" />
<glyph unicode="&#x17a;" horiz-adv-x="430" d="M231 620l146 100q8 6 17.5 3.5t14.5 -10.5t3 -18t-10 -16l-149 -98q-19 -10 -31 8q-7 19 9 31zM481 258q14 -5 14 -20q0 -3 -3 -9q-83 -196 -234 -266q-88 -244 -239 -244q-52 0 -82.5 27t-30.5 77q0 55 40 88.5t127 48.5q100 17 149 38q30 105 5 149q-50 -25 -92 -16.5 t-42 49.5q0 33 23.5 47.5t56.5 8t62 -29.5q25 18 41 46t22.5 57.5t6.5 62.5q0 43 -18.5 68t-55.5 25q-12 0 -24 -4.5t-23.5 -16t-21.5 -22t-22 -31t-19.5 -33.5t-19.5 -39l-18 -39t-18.5 -41.5t-16.5 -38.5l-5 -10q-7 -14 -19 -14q-9 0 -16.5 6.5t-7.5 16.5q0 3 2 9 q14 33 19 45.5t18.5 42.5t20 43t19.5 38.5t22 37.5t22 31t24.5 28t25.5 19t28.5 14t29.5 4q57 0 88 -38t31 -101q0 -57 -21 -111t-63 -90q31 -51 12 -145q108 69 172 220q7 14 21 14q3 0 10 -2zM197 180q-16 10 -29.5 13.5t-21 0t-7.5 -13.5q2 -9 20 -8t38 8zM200 -59 q-38 -12 -119 -26q-68 -11 -99 -33t-31 -58q0 -24 19 -42.5t48 -18.5q100 0 182 178z" />
</font>
</defs>
</svg>
